G04 #@! TF.GenerationSoftware,KiCad,Pcbnew,(5.99.0-10394-g2e15de97e0)*
G04 #@! TF.CreationDate,2021-08-05T10:27:57+02:00*
G04 #@! TF.ProjectId,TFASPDIMU02A,54464153-5044-4494-9d55-3032412e6b69,rev?*
G04 #@! TF.SameCoordinates,Original*
G04 #@! TF.FileFunction,Copper,L1,Top*
G04 #@! TF.FilePolarity,Positive*
%FSLAX46Y46*%
G04 Gerber Fmt 4.6, Leading zero omitted, Abs format (unit mm)*
G04 Created by KiCad (PCBNEW (5.99.0-10394-g2e15de97e0)) date 2021-08-05 10:27:57*
%MOMM*%
%LPD*%
G01*
G04 APERTURE LIST*
G04 Aperture macros list*
%AMFreePoly0*
4,1,22,0.550000,-0.750000,0.000000,-0.750000,0.000000,-0.745033,-0.079941,-0.743568,-0.215256,-0.701293,-0.333266,-0.622738,-0.424486,-0.514219,-0.481581,-0.384460,-0.499164,-0.250000,-0.500000,-0.250000,-0.500000,0.250000,-0.499164,0.250000,-0.499963,0.256109,-0.478152,0.396186,-0.417904,0.524511,-0.324060,0.630769,-0.204165,0.706417,-0.067858,0.745374,0.000000,0.744959,0.000000,0.750000,
0.550000,0.750000,0.550000,-0.750000,0.550000,-0.750000,$1*%
%AMFreePoly1*
4,1,20,0.000000,0.744959,0.073905,0.744508,0.209726,0.703889,0.328688,0.626782,0.421226,0.519385,0.479903,0.390333,0.500000,0.250000,0.500000,-0.250000,0.499851,-0.262216,0.476331,-0.402017,0.414519,-0.529596,0.319384,-0.634700,0.198574,-0.708877,0.061801,-0.746166,0.000000,-0.745033,0.000000,-0.750000,-0.550000,-0.750000,-0.550000,0.750000,0.000000,0.750000,0.000000,0.744959,
0.000000,0.744959,$1*%
G04 Aperture macros list end*
G04 #@! TA.AperFunction,SMDPad,CuDef*
%ADD10FreePoly0,180.000000*%
G04 #@! TD*
G04 #@! TA.AperFunction,SMDPad,CuDef*
%ADD11R,1.000000X1.500000*%
G04 #@! TD*
G04 #@! TA.AperFunction,SMDPad,CuDef*
%ADD12FreePoly1,180.000000*%
G04 #@! TD*
G04 #@! TA.AperFunction,SMDPad,CuDef*
%ADD13FreePoly0,90.000000*%
G04 #@! TD*
G04 #@! TA.AperFunction,SMDPad,CuDef*
%ADD14R,1.500000X1.000000*%
G04 #@! TD*
G04 #@! TA.AperFunction,SMDPad,CuDef*
%ADD15FreePoly1,90.000000*%
G04 #@! TD*
G04 #@! TA.AperFunction,ViaPad*
%ADD16C,0.800000*%
G04 #@! TD*
G04 #@! TA.AperFunction,Conductor*
%ADD17C,0.300000*%
G04 #@! TD*
G04 #@! TA.AperFunction,Conductor*
%ADD18C,0.400000*%
G04 #@! TD*
G04 #@! TA.AperFunction,Conductor*
%ADD19C,0.200000*%
G04 #@! TD*
G04 APERTURE END LIST*
G36*
X5218000Y2748000D02*
G01*
X4718000Y2748000D01*
X4718000Y3348000D01*
X5218000Y3348000D01*
X5218000Y2748000D01*
G37*
G36*
X17572000Y11292000D02*
G01*
X16972000Y11292000D01*
X16972000Y11792000D01*
X17572000Y11792000D01*
X17572000Y11292000D01*
G37*
D10*
X5618000Y3048000D03*
D11*
X4318000Y3048000D03*
D12*
X3018000Y3048000D03*
D13*
X17272000Y10892000D03*
D14*
X17272000Y12192000D03*
D15*
X17272000Y13492000D03*
D16*
X8890000Y11684000D03*
X27559000Y12700000D03*
X21336000Y11049000D03*
X28829000Y9779000D03*
X1270000Y12700000D03*
X27559000Y13716000D03*
X8382000Y1016000D03*
X27432000Y1397000D03*
X28067000Y5080000D03*
X19858561Y8078471D03*
X5080000Y13843000D03*
X14859000Y1143000D03*
X11303000Y3810000D03*
X29083000Y7366000D03*
X27432000Y2413000D03*
X1016000Y4953000D03*
X29083000Y8636000D03*
X15875000Y8890000D03*
X28702000Y12700000D03*
X8890000Y12700000D03*
X21300000Y7300000D03*
X10541000Y1016000D03*
X1270000Y11684000D03*
X28829000Y2413000D03*
X17526000Y1143000D03*
X29083000Y6096000D03*
X1016000Y1651000D03*
X15113000Y11303000D03*
X24638000Y4191000D03*
X2540000Y12700000D03*
X24384000Y10795000D03*
X26162000Y2921000D03*
X17780000Y3429000D03*
X5080000Y12700000D03*
X27432000Y6985000D03*
X26289000Y11811000D03*
X16256000Y1143000D03*
X9525000Y1016000D03*
X24384000Y11811000D03*
X26289000Y10668000D03*
X3810000Y12700000D03*
X22600000Y9400000D03*
X28702000Y13716000D03*
X14732000Y5715000D03*
X29083000Y5080000D03*
X28829000Y1397000D03*
X24100000Y2100000D03*
X16868069Y9802021D03*
X20887970Y5064889D03*
X19200000Y3302000D03*
X7852166Y3069834D03*
X8509000Y4630500D03*
X19751942Y9072271D03*
X15113000Y13589000D03*
X13170500Y12428036D03*
X20682203Y4086796D03*
X26900000Y8100000D03*
X19554163Y10052010D03*
X24003000Y6858000D03*
X15875000Y7890497D03*
X11908500Y7136400D03*
X16144950Y6928140D03*
X12408511Y6223000D03*
X12465944Y3619102D03*
X13807511Y5334000D03*
X12065000Y4572000D03*
X10668000Y11049000D03*
X2159000Y4826000D03*
X2650500Y3076042D03*
D17*
X21300000Y7300000D02*
X21300000Y7600000D01*
D18*
X20887970Y5064889D02*
X20391612Y5064889D01*
X20391612Y5064889D02*
X19200000Y3873277D01*
D17*
X18184000Y2286000D02*
X19200000Y3302000D01*
X7852166Y3069834D02*
X8636000Y2286000D01*
X8636000Y2286000D02*
X18184000Y2286000D01*
D18*
X16868069Y9802021D02*
X20887970Y5782120D01*
D17*
X7852166Y3069834D02*
X7852166Y3973666D01*
D18*
X19200000Y3873277D02*
X19200000Y3302000D01*
D17*
X7852166Y3973666D02*
X8509000Y4630500D01*
D18*
X20887970Y5782120D02*
X20887970Y5064889D01*
D17*
X18808489Y13255511D02*
X18808489Y10366292D01*
X15113000Y13589000D02*
X17175000Y13589000D01*
X17272000Y13492000D02*
X18572000Y13492000D01*
X18808489Y10366292D02*
X18804662Y10362465D01*
X17175000Y13589000D02*
X17272000Y13492000D01*
X18804662Y10362465D02*
X18804662Y9495338D01*
X19227729Y9072271D02*
X19751942Y9072271D01*
X18804662Y9495338D02*
X19227729Y9072271D01*
X18572000Y13492000D02*
X18808489Y13255511D01*
X14708000Y12192000D02*
X14500000Y12400000D01*
X14471964Y12428036D02*
X14500000Y12400000D01*
X17272000Y12192000D02*
X14708000Y12192000D01*
X13170500Y12428036D02*
X14471964Y12428036D01*
X22886796Y4086796D02*
X20682203Y4086796D01*
X26900000Y8100000D02*
X22886796Y4086796D01*
X20320000Y10033000D02*
X23495000Y6858000D01*
X19812000Y10033000D02*
X20320000Y10033000D01*
X23495000Y6858000D02*
X24003000Y6858000D01*
D19*
X11908500Y7136400D02*
X11975703Y7069197D01*
D17*
X15875000Y7890497D02*
X15053700Y7069197D01*
X15053700Y7069197D02*
X11975703Y7069197D01*
X12755188Y6569677D02*
X12408511Y6223000D01*
X16144950Y6928140D02*
X15786487Y6569677D01*
X15786487Y6569677D02*
X12755188Y6569677D01*
X13807511Y5334000D02*
X13807511Y4807511D01*
X12619102Y3619102D02*
X12465944Y3619102D01*
X13807511Y4807511D02*
X12619102Y3619102D01*
X12065000Y4572000D02*
X10668000Y5969000D01*
X10668000Y5969000D02*
X10668000Y11049000D01*
X2159000Y4826000D02*
X3590000Y4826000D01*
X4318000Y4098000D02*
X4318000Y3048000D01*
X3590000Y4826000D02*
X4318000Y4098000D01*
X2584500Y2794000D02*
X2764000Y2794000D01*
X2764000Y2794000D02*
X3018000Y3048000D01*
G04 #@! TA.AperFunction,Conductor*
G36*
X861081Y14481093D02*
G01*
X896636Y14432823D01*
X931244Y14330869D01*
X995200Y14207749D01*
X1048072Y14105967D01*
X1050508Y14101277D01*
X1203128Y13892366D01*
X1385591Y13708945D01*
X1388610Y13706715D01*
X1388616Y13706710D01*
X1536311Y13597622D01*
X1593700Y13555234D01*
X1674465Y13512741D01*
X1819337Y13436519D01*
X1819342Y13436517D01*
X1822664Y13434769D01*
X1826219Y13433542D01*
X1826220Y13433541D01*
X1847225Y13426288D01*
X2067216Y13350325D01*
X2070913Y13349650D01*
X2070920Y13349648D01*
X2282393Y13311027D01*
X2321727Y13303843D01*
X2404595Y13299500D01*
X2565729Y13299500D01*
X2642768Y13305360D01*
X2754221Y13313838D01*
X2754227Y13313839D01*
X2757975Y13314124D01*
X3010014Y13372543D01*
X3023352Y13377864D01*
X3175890Y13438721D01*
X3250316Y13468414D01*
X3473352Y13599530D01*
X3673989Y13762874D01*
X3682710Y13772509D01*
X3845086Y13951899D01*
X3845089Y13951903D01*
X3847609Y13954687D01*
X3944452Y14101277D01*
X3988146Y14167417D01*
X3988146Y14167418D01*
X3990219Y14170555D01*
X4004791Y14202163D01*
X4064124Y14330869D01*
X4098534Y14405510D01*
X4105111Y14428373D01*
X4139370Y14479067D01*
X4200252Y14500000D01*
X10802890Y14500000D01*
X10861081Y14481093D01*
X10896636Y14432823D01*
X10931244Y14330869D01*
X10995200Y14207749D01*
X11048072Y14105967D01*
X11050508Y14101277D01*
X11203128Y13892366D01*
X11385591Y13708945D01*
X11388610Y13706715D01*
X11388616Y13706710D01*
X11536311Y13597622D01*
X11593700Y13555234D01*
X11674465Y13512741D01*
X11819337Y13436519D01*
X11819342Y13436517D01*
X11822664Y13434769D01*
X11826219Y13433542D01*
X11826220Y13433541D01*
X11847225Y13426288D01*
X12067216Y13350325D01*
X12070913Y13349650D01*
X12070920Y13349648D01*
X12282393Y13311027D01*
X12321727Y13303843D01*
X12404595Y13299500D01*
X12565729Y13299500D01*
X12642768Y13305360D01*
X12754221Y13313838D01*
X12754227Y13313839D01*
X12757975Y13314124D01*
X13010014Y13372543D01*
X13023352Y13377864D01*
X13175890Y13438721D01*
X13250316Y13468414D01*
X13473352Y13599530D01*
X13673989Y13762874D01*
X13682710Y13772509D01*
X13845086Y13951899D01*
X13845089Y13951903D01*
X13847609Y13954687D01*
X13944452Y14101277D01*
X13988146Y14167417D01*
X13988146Y14167418D01*
X13990219Y14170555D01*
X14004791Y14202163D01*
X14064124Y14330869D01*
X14098534Y14405510D01*
X14105111Y14428373D01*
X14139370Y14479067D01*
X14200252Y14500000D01*
X29401000Y14500000D01*
X29459191Y14481093D01*
X29495155Y14431593D01*
X29500000Y14401000D01*
X29500000Y599000D01*
X29481093Y540809D01*
X29431593Y504845D01*
X29401000Y500000D01*
X14197110Y500000D01*
X14138919Y518907D01*
X14103364Y567178D01*
X14101854Y571628D01*
X14068756Y669131D01*
X13949492Y898723D01*
X13796872Y1107634D01*
X13614409Y1291055D01*
X13611390Y1293285D01*
X13611384Y1293290D01*
X13409330Y1442528D01*
X13406300Y1444766D01*
X13241284Y1531586D01*
X13180663Y1563481D01*
X13180658Y1563483D01*
X13177336Y1565231D01*
X12932784Y1649675D01*
X12929087Y1650350D01*
X12929080Y1650352D01*
X12681399Y1695586D01*
X12681400Y1695586D01*
X12678273Y1696157D01*
X12595405Y1700500D01*
X12434271Y1700500D01*
X12357232Y1694640D01*
X12245779Y1686162D01*
X12245773Y1686161D01*
X12242025Y1685876D01*
X11989986Y1627457D01*
X11749684Y1531586D01*
X11526648Y1400470D01*
X11326011Y1237126D01*
X11323491Y1234342D01*
X11323489Y1234340D01*
X11154914Y1048101D01*
X11154911Y1048097D01*
X11152391Y1045313D01*
X11009781Y829445D01*
X10901466Y594490D01*
X10900425Y590871D01*
X10894889Y571628D01*
X10860630Y520933D01*
X10799748Y500000D01*
X4197110Y500000D01*
X4138919Y518907D01*
X4103364Y567178D01*
X4101854Y571628D01*
X4068756Y669131D01*
X3949492Y898723D01*
X3796872Y1107634D01*
X3614409Y1291055D01*
X3611390Y1293285D01*
X3611384Y1293290D01*
X3409330Y1442528D01*
X3406300Y1444766D01*
X3241284Y1531586D01*
X3180663Y1563481D01*
X3180658Y1563483D01*
X3177336Y1565231D01*
X2932784Y1649675D01*
X2929087Y1650350D01*
X2929080Y1650352D01*
X2681399Y1695586D01*
X2681400Y1695586D01*
X2678273Y1696157D01*
X2595405Y1700500D01*
X2434271Y1700500D01*
X2357232Y1694640D01*
X2245779Y1686162D01*
X2245773Y1686161D01*
X2242025Y1685876D01*
X1989986Y1627457D01*
X1749684Y1531586D01*
X1526648Y1400470D01*
X1326011Y1237126D01*
X1323491Y1234342D01*
X1323489Y1234340D01*
X1154914Y1048101D01*
X1154911Y1048097D01*
X1152391Y1045313D01*
X1009781Y829445D01*
X901466Y594490D01*
X900425Y590871D01*
X894889Y571628D01*
X860630Y520933D01*
X799748Y500000D01*
X599000Y500000D01*
X540809Y518907D01*
X504845Y568407D01*
X500000Y599000D01*
X500000Y5930377D01*
X1198880Y5930377D01*
X1200625Y5923866D01*
X1200625Y5923863D01*
X1207092Y5899728D01*
X1237905Y5784735D01*
X1241338Y5778929D01*
X1241339Y5778928D01*
X1253259Y5758773D01*
X1314658Y5654952D01*
X1423485Y5550591D01*
X1429438Y5547399D01*
X1547157Y5484279D01*
X1556368Y5479340D01*
X1562948Y5477869D01*
X1562951Y5477868D01*
X1696931Y5447920D01*
X1696932Y5447920D01*
X1703517Y5446448D01*
X1703471Y5446241D01*
X1756518Y5423942D01*
X1788213Y5371607D01*
X1783093Y5310636D01*
X1752098Y5270460D01*
X1730847Y5254153D01*
X1634622Y5128750D01*
X1574132Y4982715D01*
X1553500Y4826000D01*
X1574132Y4669285D01*
X1634622Y4523250D01*
X1730847Y4397847D01*
X1856250Y4301622D01*
X2002285Y4241132D01*
X2159000Y4220500D01*
X2315715Y4241132D01*
X2461750Y4301622D01*
X2587153Y4397847D01*
X2617018Y4436767D01*
X2667441Y4471423D01*
X2695559Y4475500D01*
X3403811Y4475500D01*
X3462002Y4456593D01*
X3473814Y4446504D01*
X3680034Y4240285D01*
X3772591Y4147728D01*
X3800369Y4093211D01*
X3790798Y4032779D01*
X3747533Y3989514D01*
X3747415Y3989459D01*
X3739359Y3987857D01*
X3731253Y3982440D01*
X3730882Y3982287D01*
X3669885Y3977489D01*
X3655116Y3982288D01*
X3654747Y3982441D01*
X3646641Y3987857D01*
X3568000Y4003500D01*
X3019869Y4003500D01*
X3018055Y4003517D01*
X2959347Y4004593D01*
X2955854Y4004158D01*
X2905019Y3997827D01*
X2905018Y3997827D01*
X2901527Y3997392D01*
X2898137Y3996468D01*
X2898133Y3996467D01*
X2872631Y3989514D01*
X2763386Y3959730D01*
X2709914Y3936590D01*
X2706910Y3934745D01*
X2706909Y3934745D01*
X2625486Y3884751D01*
X2587896Y3861671D01*
X2543066Y3824452D01*
X2446980Y3718297D01*
X2432995Y3697563D01*
X2416366Y3672911D01*
X2416363Y3672905D01*
X2414399Y3669994D01*
X2412866Y3666829D01*
X2412865Y3666828D01*
X2405379Y3651377D01*
X2362991Y3607253D01*
X2354175Y3603081D01*
X2347750Y3600420D01*
X2222347Y3504195D01*
X2126122Y3378792D01*
X2091648Y3295565D01*
X2074167Y3253361D01*
X2065632Y3232757D01*
X2045000Y3076042D01*
X2065632Y2919327D01*
X2068116Y2913330D01*
X2078590Y2888044D01*
X2126122Y2773292D01*
X2222347Y2647889D01*
X2227500Y2643935D01*
X2286183Y2598906D01*
X2309085Y2574066D01*
X2321561Y2554744D01*
X2327987Y2549678D01*
X2327989Y2549676D01*
X2352794Y2530122D01*
X2381627Y2493350D01*
X2404031Y2444073D01*
X2404037Y2444062D01*
X2405491Y2440864D01*
X2436882Y2391779D01*
X2439176Y2389116D01*
X2439181Y2389110D01*
X2509981Y2306943D01*
X2530346Y2283308D01*
X2574253Y2245006D01*
X2694404Y2167128D01*
X2747296Y2142688D01*
X2884475Y2101663D01*
X2942101Y2093051D01*
X3016745Y2092595D01*
X3016736Y2091195D01*
X3018000Y2091330D01*
X3018000Y2092500D01*
X3031985Y2092500D01*
X3032590Y2092498D01*
X3081766Y2092197D01*
X3081773Y2092197D01*
X3085280Y2092176D01*
X3087030Y2092415D01*
X3089628Y2092500D01*
X3568000Y2092500D01*
X3646641Y2108143D01*
X3654747Y2113559D01*
X3655116Y2113712D01*
X3716112Y2118511D01*
X3730884Y2113712D01*
X3731253Y2113559D01*
X3739359Y2108143D01*
X3818000Y2092500D01*
X4818000Y2092500D01*
X4864065Y2101663D01*
X4887076Y2106240D01*
X4887078Y2106241D01*
X4896641Y2108143D01*
X4963310Y2152690D01*
X5007857Y2219359D01*
X5023500Y2298000D01*
X5023500Y2449000D01*
X5042407Y2507191D01*
X5091907Y2543155D01*
X5122500Y2548000D01*
X5239919Y2548000D01*
X5240224Y2548069D01*
X5241013Y2548113D01*
X5252268Y2548103D01*
X5252271Y2548104D01*
X5263417Y2548094D01*
X5274303Y2553321D01*
X5295131Y2560594D01*
X5296030Y2560799D01*
X5296031Y2560799D01*
X5306900Y2563279D01*
X5316126Y2570631D01*
X5334976Y2582456D01*
X5345616Y2587565D01*
X5352577Y2596269D01*
X5352579Y2596271D01*
X5353154Y2596991D01*
X5368769Y2612580D01*
X5378212Y2620105D01*
X5383055Y2630145D01*
X5383057Y2630148D01*
X5383341Y2630738D01*
X5395191Y2649557D01*
X5402565Y2658778D01*
X5405064Y2669644D01*
X5405065Y2669647D01*
X5405271Y2670543D01*
X5412581Y2691359D01*
X5412983Y2692192D01*
X5412984Y2692195D01*
X5417826Y2702234D01*
X5417845Y2724631D01*
X5417891Y2725425D01*
X5418000Y2725899D01*
X5418000Y3069834D01*
X7246666Y3069834D01*
X7267298Y2913119D01*
X7327788Y2767084D01*
X7424013Y2641681D01*
X7549416Y2545456D01*
X7695451Y2484966D01*
X7852166Y2464334D01*
X7858600Y2465181D01*
X7858601Y2465181D01*
X7900805Y2470737D01*
X7960965Y2459587D01*
X7983730Y2442588D01*
X8353746Y2072572D01*
X8366909Y2056271D01*
X8373061Y2046744D01*
X8379487Y2041678D01*
X8379489Y2041676D01*
X8399244Y2026102D01*
X8403377Y2022430D01*
X8403392Y2022448D01*
X8406521Y2019797D01*
X8409400Y2016918D01*
X8412716Y2014549D01*
X8412720Y2014545D01*
X8423501Y2006841D01*
X8427210Y2004057D01*
X8464737Y1974473D01*
X8472043Y1971907D01*
X8473300Y1971254D01*
X8479602Y1966751D01*
X8525427Y1953047D01*
X8529791Y1951628D01*
X8574879Y1935794D01*
X8578273Y1935500D01*
X8580413Y1935500D01*
X8582545Y1935408D01*
X8582538Y1935249D01*
X8585577Y1935058D01*
X8591444Y1933303D01*
X8599618Y1933624D01*
X8599619Y1933624D01*
X8645439Y1935424D01*
X8649325Y1935500D01*
X18135326Y1935500D01*
X18156162Y1933282D01*
X18159252Y1932617D01*
X18159256Y1932617D01*
X18167254Y1930895D01*
X18175374Y1931856D01*
X18175377Y1931856D01*
X18200365Y1934814D01*
X18205889Y1935140D01*
X18205887Y1935164D01*
X18209954Y1935500D01*
X18214039Y1935500D01*
X18218065Y1936170D01*
X18218076Y1936171D01*
X18231130Y1938344D01*
X18235742Y1939001D01*
X18261495Y1942049D01*
X18275055Y1943654D01*
X18275056Y1943654D01*
X18283182Y1944616D01*
X18290164Y1947969D01*
X18291513Y1948395D01*
X18299153Y1949667D01*
X18330816Y1966751D01*
X18341197Y1972352D01*
X18345351Y1974468D01*
X18382796Y1992450D01*
X18382797Y1992451D01*
X18388414Y1995148D01*
X18391022Y1997340D01*
X18392533Y1998851D01*
X18394120Y2000306D01*
X18394227Y2000189D01*
X18396499Y2002192D01*
X18401888Y2005100D01*
X18421303Y2026102D01*
X18438537Y2044746D01*
X18441230Y2047548D01*
X19068436Y2674754D01*
X19122953Y2702531D01*
X19151361Y2702903D01*
X19193565Y2697347D01*
X19193566Y2697347D01*
X19200000Y2696500D01*
X19356715Y2717132D01*
X19502750Y2777622D01*
X19628153Y2873847D01*
X19724378Y2999250D01*
X19784868Y3145285D01*
X19805500Y3302000D01*
X19784868Y3458715D01*
X19724378Y3604750D01*
X19678884Y3664039D01*
X19658461Y3721712D01*
X19675838Y3780378D01*
X19687423Y3794308D01*
X19923489Y4030374D01*
X19978006Y4058151D01*
X20038438Y4048580D01*
X20081703Y4005315D01*
X20091646Y3973292D01*
X20093091Y3962317D01*
X20097335Y3930081D01*
X20157825Y3784046D01*
X20254050Y3658643D01*
X20379453Y3562418D01*
X20525488Y3501928D01*
X20654466Y3484948D01*
X20672458Y3482579D01*
X20682203Y3481296D01*
X20691949Y3482579D01*
X20709940Y3484948D01*
X20838918Y3501928D01*
X20984953Y3562418D01*
X21110356Y3658643D01*
X21140221Y3697563D01*
X21190644Y3732219D01*
X21218762Y3736296D01*
X22838122Y3736296D01*
X22858958Y3734078D01*
X22862048Y3733413D01*
X22862052Y3733413D01*
X22870050Y3731691D01*
X22878170Y3732652D01*
X22878173Y3732652D01*
X22903161Y3735610D01*
X22908685Y3735936D01*
X22908683Y3735960D01*
X22912750Y3736296D01*
X22916835Y3736296D01*
X22920861Y3736966D01*
X22920872Y3736967D01*
X22933926Y3739140D01*
X22938538Y3739797D01*
X22964291Y3742845D01*
X22977851Y3744450D01*
X22977852Y3744450D01*
X22985978Y3745412D01*
X22992960Y3748765D01*
X22994309Y3749191D01*
X23001949Y3750463D01*
X23037011Y3769381D01*
X23043993Y3773148D01*
X23048147Y3775264D01*
X23085592Y3793246D01*
X23085593Y3793247D01*
X23091210Y3795944D01*
X23093818Y3798136D01*
X23095329Y3799647D01*
X23096916Y3801102D01*
X23097023Y3800985D01*
X23099295Y3802988D01*
X23104684Y3805896D01*
X23121838Y3824452D01*
X23141333Y3845542D01*
X23144026Y3848344D01*
X26768436Y7472754D01*
X26822953Y7500531D01*
X26851361Y7500903D01*
X26893565Y7495347D01*
X26893566Y7495347D01*
X26900000Y7494500D01*
X27056715Y7515132D01*
X27202750Y7575622D01*
X27328153Y7671847D01*
X27424378Y7797250D01*
X27484868Y7943285D01*
X27505500Y8100000D01*
X27484868Y8256715D01*
X27424378Y8402750D01*
X27328153Y8528153D01*
X27202750Y8624378D01*
X27056715Y8684868D01*
X26927737Y8701848D01*
X26906434Y8704653D01*
X26900000Y8705500D01*
X26893566Y8704653D01*
X26872263Y8701848D01*
X26743285Y8684868D01*
X26597250Y8624378D01*
X26471847Y8528153D01*
X26375622Y8402750D01*
X26315132Y8256715D01*
X26294500Y8100000D01*
X26295347Y8093566D01*
X26295347Y8093565D01*
X26300903Y8051360D01*
X26289752Y7991199D01*
X26272754Y7968435D01*
X24521277Y6216959D01*
X22770610Y4466292D01*
X22716093Y4438515D01*
X22700606Y4437296D01*
X21347852Y4437296D01*
X21289661Y4456203D01*
X21253697Y4505703D01*
X21253697Y4566889D01*
X21287585Y4614838D01*
X21310970Y4632782D01*
X21316123Y4636736D01*
X21412348Y4762139D01*
X21472838Y4908174D01*
X21491971Y5053500D01*
X21492623Y5058455D01*
X21493470Y5064889D01*
X21472838Y5221604D01*
X21412348Y5367639D01*
X21316123Y5493042D01*
X21316157Y5493068D01*
X21289689Y5545017D01*
X21288470Y5560504D01*
X21288470Y5718635D01*
X21288473Y5718669D01*
X21288478Y5718686D01*
X21288478Y5845553D01*
X21284755Y5857013D01*
X21281022Y5868501D01*
X21277395Y5883610D01*
X21274842Y5899728D01*
X21273623Y5907426D01*
X21269713Y5915101D01*
X21262672Y5928919D01*
X21256729Y5943267D01*
X21251680Y5958805D01*
X21249273Y5966213D01*
X21235092Y5985732D01*
X21226978Y5998974D01*
X21219565Y6013523D01*
X21219563Y6013526D01*
X21216026Y6020467D01*
X21126317Y6110176D01*
X21126304Y6110183D01*
X21126281Y6110202D01*
X19339552Y7896931D01*
X17501718Y9734764D01*
X17473941Y9789281D01*
X17473174Y9799023D01*
X17473569Y9802021D01*
X17452937Y9958736D01*
X17392447Y10104771D01*
X17296222Y10230174D01*
X17170819Y10326399D01*
X17024784Y10386889D01*
X16868069Y10407521D01*
X16711354Y10386889D01*
X16565319Y10326399D01*
X16439916Y10230174D01*
X16343691Y10104771D01*
X16283201Y9958736D01*
X16262569Y9802021D01*
X16283201Y9645306D01*
X16343691Y9499271D01*
X16439916Y9373868D01*
X16565319Y9277643D01*
X16668302Y9234986D01*
X16698325Y9222550D01*
X16711354Y9217153D01*
X16840332Y9200173D01*
X16861635Y9197368D01*
X16867833Y9196552D01*
X16868069Y9196521D01*
X16868063Y9196477D01*
X16923513Y9178461D01*
X16935326Y9168372D01*
X20458474Y5645223D01*
X20486251Y5590706D01*
X20487470Y5575219D01*
X20487470Y5564397D01*
X20468563Y5506206D01*
X20419063Y5470242D01*
X20388470Y5465397D01*
X20328178Y5465397D01*
X20320771Y5462990D01*
X20320769Y5462990D01*
X20305229Y5457941D01*
X20290126Y5454315D01*
X20285597Y5453597D01*
X20266306Y5450542D01*
X20259368Y5447007D01*
X20244813Y5439591D01*
X20230464Y5433648D01*
X20207519Y5426192D01*
X20188004Y5412013D01*
X20174763Y5403898D01*
X20153265Y5392945D01*
X20063556Y5303236D01*
X20063549Y5303221D01*
X20063528Y5303197D01*
X18961692Y4201361D01*
X18961668Y4201340D01*
X18961653Y4201333D01*
X18871944Y4111624D01*
X18860991Y4090126D01*
X18852877Y4076887D01*
X18838697Y4057370D01*
X18832331Y4037776D01*
X18831241Y4034422D01*
X18825297Y4020073D01*
X18814347Y3998583D01*
X18812648Y3987857D01*
X18810572Y3974753D01*
X18806947Y3959654D01*
X18799493Y3936711D01*
X18799493Y3809843D01*
X18799498Y3809828D01*
X18799500Y3809798D01*
X18799500Y3797615D01*
X18780593Y3739424D01*
X18774249Y3731996D01*
X18771847Y3730153D01*
X18675622Y3604750D01*
X18615132Y3458715D01*
X18594500Y3302000D01*
X18595347Y3295566D01*
X18595347Y3295565D01*
X18600903Y3253361D01*
X18589753Y3193201D01*
X18572754Y3170436D01*
X18067814Y2665496D01*
X18013297Y2637719D01*
X17997810Y2636500D01*
X8822190Y2636500D01*
X8763999Y2655407D01*
X8752186Y2665496D01*
X8479412Y2938270D01*
X8451635Y2992787D01*
X8451263Y3021195D01*
X8456819Y3063399D01*
X8456819Y3063400D01*
X8457666Y3069834D01*
X8437034Y3226549D01*
X8431979Y3238754D01*
X8379027Y3366589D01*
X8376544Y3372584D01*
X8280319Y3497987D01*
X8241399Y3527852D01*
X8206743Y3578275D01*
X8202666Y3606393D01*
X8202666Y3787476D01*
X8221573Y3845667D01*
X8231662Y3857480D01*
X8377436Y4003254D01*
X8431953Y4031031D01*
X8460361Y4031403D01*
X8502565Y4025847D01*
X8502566Y4025847D01*
X8509000Y4025000D01*
X8665715Y4045632D01*
X8811750Y4106122D01*
X8937153Y4202347D01*
X9033378Y4327750D01*
X9093868Y4473785D01*
X9114500Y4630500D01*
X9093868Y4787215D01*
X9033378Y4933250D01*
X8937153Y5058653D01*
X8811750Y5154878D01*
X8665715Y5215368D01*
X8509000Y5236000D01*
X8352285Y5215368D01*
X8206250Y5154878D01*
X8080847Y5058653D01*
X7984622Y4933250D01*
X7924132Y4787215D01*
X7903500Y4630500D01*
X7909904Y4581860D01*
X7898754Y4521701D01*
X7881754Y4498935D01*
X7638740Y4255922D01*
X7622445Y4242761D01*
X7612910Y4236605D01*
X7607844Y4230179D01*
X7607842Y4230177D01*
X7592268Y4210422D01*
X7588596Y4206289D01*
X7588614Y4206274D01*
X7585963Y4203145D01*
X7583084Y4200266D01*
X7580715Y4196950D01*
X7580711Y4196946D01*
X7573007Y4186165D01*
X7570223Y4182456D01*
X7540639Y4144929D01*
X7538071Y4137618D01*
X7537423Y4136370D01*
X7532917Y4130064D01*
X7519978Y4086796D01*
X7519231Y4084298D01*
X7517788Y4079858D01*
X7505769Y4045632D01*
X7501960Y4034787D01*
X7501666Y4031393D01*
X7501666Y4029254D01*
X7501574Y4027121D01*
X7501415Y4027128D01*
X7501224Y4024086D01*
X7499470Y4018222D01*
X7499791Y4010048D01*
X7499791Y4010047D01*
X7501590Y3964252D01*
X7501666Y3960366D01*
X7501666Y3606393D01*
X7482759Y3548202D01*
X7462934Y3527852D01*
X7424013Y3497987D01*
X7327788Y3372584D01*
X7325305Y3366589D01*
X7272354Y3238754D01*
X7267298Y3226549D01*
X7246666Y3069834D01*
X5418000Y3069834D01*
X5418000Y3369919D01*
X5417931Y3370224D01*
X5417887Y3371013D01*
X5417897Y3382268D01*
X5417896Y3382271D01*
X5417906Y3393417D01*
X5412679Y3404303D01*
X5405406Y3425131D01*
X5405201Y3426030D01*
X5405201Y3426031D01*
X5402721Y3436900D01*
X5395369Y3446126D01*
X5383544Y3464976D01*
X5383260Y3465567D01*
X5378435Y3475616D01*
X5369731Y3482577D01*
X5369729Y3482579D01*
X5369009Y3483154D01*
X5353420Y3498769D01*
X5345895Y3508212D01*
X5335855Y3513055D01*
X5335852Y3513057D01*
X5335262Y3513341D01*
X5316443Y3525191D01*
X5307222Y3532565D01*
X5296356Y3535064D01*
X5296353Y3535065D01*
X5295457Y3535271D01*
X5274641Y3542581D01*
X5273808Y3542983D01*
X5273805Y3542984D01*
X5263766Y3547826D01*
X5241369Y3547845D01*
X5240575Y3547891D01*
X5240101Y3548000D01*
X5122500Y3548000D01*
X5064309Y3566907D01*
X5028345Y3616407D01*
X5023500Y3647000D01*
X5023500Y3798000D01*
X5013486Y3848344D01*
X5009760Y3867076D01*
X5009759Y3867078D01*
X5007857Y3876641D01*
X4976156Y3924084D01*
X4968729Y3935200D01*
X4963310Y3943310D01*
X4937349Y3960657D01*
X4904977Y3982287D01*
X4896641Y3987857D01*
X4887078Y3989759D01*
X4887076Y3989760D01*
X4861800Y3994787D01*
X4818000Y4003500D01*
X4770282Y4003500D01*
X4712091Y4022407D01*
X4676127Y4071907D01*
X4671968Y4090862D01*
X4670740Y4101239D01*
X4669186Y4114367D01*
X4668860Y4119889D01*
X4668836Y4119887D01*
X4668500Y4123954D01*
X4668500Y4128039D01*
X4667830Y4132065D01*
X4667829Y4132076D01*
X4665656Y4145130D01*
X4664998Y4149749D01*
X4660346Y4189055D01*
X4660346Y4189056D01*
X4659384Y4197182D01*
X4656031Y4204164D01*
X4655605Y4205513D01*
X4654333Y4213153D01*
X4639237Y4241132D01*
X4631648Y4255197D01*
X4629532Y4259351D01*
X4611550Y4296796D01*
X4611549Y4296797D01*
X4608852Y4302414D01*
X4606660Y4305022D01*
X4605149Y4306533D01*
X4603694Y4308120D01*
X4603811Y4308227D01*
X4601808Y4310499D01*
X4598900Y4315888D01*
X4592889Y4321444D01*
X4592888Y4321446D01*
X4559254Y4352537D01*
X4556452Y4355230D01*
X3872254Y5039428D01*
X3859091Y5055729D01*
X3852939Y5065256D01*
X3846513Y5070322D01*
X3846511Y5070324D01*
X3826756Y5085898D01*
X3822623Y5089570D01*
X3822608Y5089552D01*
X3819479Y5092203D01*
X3816600Y5095082D01*
X3813284Y5097451D01*
X3813280Y5097455D01*
X3802499Y5105159D01*
X3798790Y5107943D01*
X3761263Y5137527D01*
X3753952Y5140095D01*
X3752704Y5140743D01*
X3746398Y5145249D01*
X3700620Y5158939D01*
X3696192Y5160378D01*
X3656996Y5174143D01*
X3656995Y5174143D01*
X3651121Y5176206D01*
X3647727Y5176500D01*
X3645588Y5176500D01*
X3643455Y5176592D01*
X3643462Y5176751D01*
X3640420Y5176942D01*
X3634556Y5178696D01*
X3626382Y5178375D01*
X3626381Y5178375D01*
X3580586Y5176576D01*
X3576700Y5176500D01*
X2695559Y5176500D01*
X2637368Y5195407D01*
X2617017Y5215233D01*
X2616914Y5215368D01*
X2587153Y5254153D01*
X2461750Y5350378D01*
X2315715Y5410868D01*
X2269760Y5416918D01*
X2186697Y5427854D01*
X2131473Y5454195D01*
X2102278Y5507966D01*
X2110264Y5568628D01*
X2124004Y5589907D01*
X2147322Y5617500D01*
X2219024Y5702348D01*
X2267235Y5807649D01*
X2278982Y5833307D01*
X2278983Y5833309D01*
X2281791Y5839443D01*
X2283933Y5852962D01*
X2296194Y5930377D01*
X8498880Y5930377D01*
X8500625Y5923866D01*
X8500625Y5923863D01*
X8507092Y5899728D01*
X8537905Y5784735D01*
X8541338Y5778929D01*
X8541339Y5778928D01*
X8553259Y5758773D01*
X8614658Y5654952D01*
X8723485Y5550591D01*
X8729438Y5547399D01*
X8847157Y5484279D01*
X8856368Y5479340D01*
X8862948Y5477869D01*
X8862951Y5477868D01*
X8996931Y5447920D01*
X8996932Y5447920D01*
X9003517Y5446448D01*
X9010256Y5446801D01*
X9010258Y5446801D01*
X9059738Y5449394D01*
X9154090Y5454339D01*
X9296995Y5502432D01*
X9421702Y5587183D01*
X9426056Y5592335D01*
X9426058Y5592337D01*
X9483880Y5660761D01*
X9519024Y5702348D01*
X9567235Y5807649D01*
X9578982Y5833307D01*
X9578983Y5833309D01*
X9581791Y5839443D01*
X9583933Y5852962D01*
X9604811Y5984786D01*
X9605378Y5988366D01*
X9605417Y5992034D01*
X9605462Y5996381D01*
X9605500Y6000000D01*
X9585037Y6149385D01*
X9582360Y6155571D01*
X9582359Y6155575D01*
X9527836Y6281570D01*
X9527834Y6281574D01*
X9525155Y6287764D01*
X9430266Y6404942D01*
X9358212Y6456148D01*
X9312859Y6488379D01*
X9312858Y6488380D01*
X9307361Y6492286D01*
X9301017Y6494570D01*
X9301013Y6494572D01*
X9171843Y6541076D01*
X9171840Y6541077D01*
X9165495Y6543361D01*
X9140504Y6545196D01*
X9021854Y6553910D01*
X9021850Y6553910D01*
X9015120Y6554404D01*
X9008505Y6553070D01*
X9008503Y6553070D01*
X8910660Y6533341D01*
X8867315Y6524601D01*
X8861309Y6521541D01*
X8861307Y6521540D01*
X8811247Y6496033D01*
X8732969Y6456148D01*
X8728006Y6451585D01*
X8728004Y6451583D01*
X8675999Y6403762D01*
X8621980Y6354089D01*
X8571784Y6273132D01*
X8546751Y6232757D01*
X8542525Y6225942D01*
X8540642Y6219460D01*
X8508900Y6110202D01*
X8500459Y6081149D01*
X8500388Y6074402D01*
X8500388Y6074400D01*
X8499881Y6025976D01*
X8498880Y5930377D01*
X2296194Y5930377D01*
X2304811Y5984786D01*
X2305378Y5988366D01*
X2305417Y5992034D01*
X2305462Y5996381D01*
X2305500Y6000000D01*
X2285037Y6149385D01*
X2282360Y6155571D01*
X2282359Y6155575D01*
X2227836Y6281570D01*
X2227834Y6281574D01*
X2225155Y6287764D01*
X2130266Y6404942D01*
X2058212Y6456148D01*
X2012859Y6488379D01*
X2012858Y6488380D01*
X2007361Y6492286D01*
X2001017Y6494570D01*
X2001013Y6494572D01*
X1871843Y6541076D01*
X1871840Y6541077D01*
X1865495Y6543361D01*
X1840504Y6545196D01*
X1721854Y6553910D01*
X1721850Y6553910D01*
X1715120Y6554404D01*
X1708505Y6553070D01*
X1708503Y6553070D01*
X1610660Y6533341D01*
X1567315Y6524601D01*
X1561309Y6521541D01*
X1561307Y6521540D01*
X1511247Y6496033D01*
X1432969Y6456148D01*
X1428006Y6451585D01*
X1428004Y6451583D01*
X1375999Y6403762D01*
X1321980Y6354089D01*
X1271784Y6273132D01*
X1246751Y6232757D01*
X1242525Y6225942D01*
X1240642Y6219460D01*
X1208900Y6110202D01*
X1200459Y6081149D01*
X1200388Y6074402D01*
X1200388Y6074400D01*
X1199881Y6025976D01*
X1198880Y5930377D01*
X500000Y5930377D01*
X500000Y10230377D01*
X1198880Y10230377D01*
X1237905Y10084735D01*
X1314658Y9954952D01*
X1423485Y9850591D01*
X1429438Y9847399D01*
X1502069Y9808455D01*
X1556368Y9779340D01*
X1562948Y9777869D01*
X1562951Y9777868D01*
X1696931Y9747920D01*
X1696932Y9747920D01*
X1703517Y9746448D01*
X1710256Y9746801D01*
X1710258Y9746801D01*
X1759738Y9749394D01*
X1854090Y9754339D01*
X1996995Y9802432D01*
X2121702Y9887183D01*
X2126056Y9892335D01*
X2126058Y9892337D01*
X2187237Y9964733D01*
X2219024Y10002348D01*
X2265917Y10104771D01*
X2278982Y10133307D01*
X2278983Y10133309D01*
X2281791Y10139443D01*
X2296194Y10230377D01*
X2304811Y10284786D01*
X2305378Y10288366D01*
X2305500Y10300000D01*
X2285037Y10449385D01*
X2282360Y10455571D01*
X2282359Y10455575D01*
X2227836Y10581570D01*
X2227834Y10581574D01*
X2225155Y10587764D01*
X2130266Y10704942D01*
X2124767Y10708850D01*
X2012859Y10788379D01*
X2012858Y10788380D01*
X2007361Y10792286D01*
X2001017Y10794570D01*
X2001013Y10794572D01*
X1871843Y10841076D01*
X1871840Y10841077D01*
X1865495Y10843361D01*
X1840504Y10845196D01*
X1721854Y10853910D01*
X1721850Y10853910D01*
X1715120Y10854404D01*
X1708505Y10853070D01*
X1708503Y10853070D01*
X1662803Y10843855D01*
X1567315Y10824601D01*
X1432969Y10756148D01*
X1428006Y10751585D01*
X1428004Y10751583D01*
X1371579Y10699697D01*
X1321980Y10654089D01*
X1242525Y10525942D01*
X1240642Y10519460D01*
X1202373Y10387736D01*
X1200459Y10381149D01*
X1200388Y10374402D01*
X1200388Y10374400D01*
X1200117Y10348500D01*
X1198880Y10230377D01*
X500000Y10230377D01*
X500000Y11049000D01*
X10062500Y11049000D01*
X10083132Y10892285D01*
X10143622Y10746250D01*
X10239847Y10620847D01*
X10245000Y10616893D01*
X10278767Y10590983D01*
X10313423Y10540559D01*
X10317500Y10512441D01*
X10317500Y6017674D01*
X10315282Y5996838D01*
X10314617Y5993748D01*
X10314617Y5993744D01*
X10312895Y5985746D01*
X10313856Y5977626D01*
X10313856Y5977623D01*
X10316814Y5952635D01*
X10317140Y5947111D01*
X10317164Y5947113D01*
X10317500Y5943046D01*
X10317500Y5938961D01*
X10318170Y5934935D01*
X10318171Y5934924D01*
X10320344Y5921870D01*
X10321001Y5917258D01*
X10326616Y5869818D01*
X10329969Y5862836D01*
X10330395Y5861487D01*
X10331667Y5853847D01*
X10335552Y5846647D01*
X10354352Y5811803D01*
X10356468Y5807649D01*
X10362616Y5794847D01*
X10377148Y5764586D01*
X10379340Y5761978D01*
X10380851Y5760467D01*
X10382306Y5758880D01*
X10382189Y5758773D01*
X10384192Y5756501D01*
X10387100Y5751112D01*
X10393111Y5745556D01*
X10393112Y5745554D01*
X10426747Y5714462D01*
X10429549Y5711769D01*
X10945912Y5195407D01*
X11437754Y4703565D01*
X11465531Y4649048D01*
X11465903Y4620640D01*
X11461110Y4584231D01*
X11459500Y4572000D01*
X11480132Y4415285D01*
X11482616Y4409288D01*
X11485221Y4403000D01*
X11540622Y4269250D01*
X11636847Y4143847D01*
X11762250Y4047622D01*
X11798084Y4032779D01*
X11868308Y4003691D01*
X11914834Y3963954D01*
X11929117Y3904459D01*
X11921886Y3874341D01*
X11890105Y3797615D01*
X11881076Y3775817D01*
X11860444Y3619102D01*
X11881076Y3462387D01*
X11941566Y3316352D01*
X12037791Y3190949D01*
X12163194Y3094724D01*
X12309229Y3034234D01*
X12465944Y3013602D01*
X12622659Y3034234D01*
X12768694Y3094724D01*
X12894097Y3190949D01*
X12990322Y3316352D01*
X13050812Y3462387D01*
X13060486Y3535872D01*
X13088635Y3592953D01*
X14020939Y4525257D01*
X14037240Y4538420D01*
X14046767Y4544572D01*
X14051833Y4550998D01*
X14051835Y4551000D01*
X14067409Y4570755D01*
X14071081Y4574888D01*
X14071063Y4574903D01*
X14073714Y4578032D01*
X14076593Y4580911D01*
X14078962Y4584227D01*
X14078966Y4584231D01*
X14086670Y4595012D01*
X14089454Y4598721D01*
X14119038Y4636248D01*
X14121606Y4643559D01*
X14122254Y4644807D01*
X14126760Y4651113D01*
X14140450Y4696891D01*
X14141889Y4701319D01*
X14155654Y4740515D01*
X14155654Y4740516D01*
X14157717Y4746390D01*
X14158011Y4749784D01*
X14158011Y4751923D01*
X14158103Y4754056D01*
X14158262Y4754049D01*
X14158453Y4757091D01*
X14160207Y4762955D01*
X14158978Y4794239D01*
X14175587Y4853127D01*
X14197630Y4876662D01*
X14235664Y4905847D01*
X14331889Y5031250D01*
X14392379Y5177285D01*
X14413011Y5334000D01*
X14392379Y5490715D01*
X14331889Y5636750D01*
X14235664Y5762153D01*
X14110261Y5858378D01*
X13964226Y5918868D01*
X13807511Y5939500D01*
X13650796Y5918868D01*
X13504761Y5858378D01*
X13379358Y5762153D01*
X13283133Y5636750D01*
X13222643Y5490715D01*
X13202011Y5334000D01*
X13222643Y5177285D01*
X13283133Y5031250D01*
X13287084Y5026101D01*
X13339880Y4957295D01*
X13360304Y4899619D01*
X13342926Y4840953D01*
X13331342Y4827024D01*
X12811069Y4306751D01*
X12756552Y4278974D01*
X12696120Y4288545D01*
X12652855Y4331810D01*
X12643284Y4392242D01*
X12646282Y4402867D01*
X12645705Y4403022D01*
X12647384Y4409288D01*
X12649868Y4415285D01*
X12670500Y4572000D01*
X12649868Y4728715D01*
X12589378Y4874750D01*
X12493153Y5000153D01*
X12367750Y5096378D01*
X12221715Y5156868D01*
X12072596Y5176500D01*
X12071434Y5176653D01*
X12065000Y5177500D01*
X12058566Y5176653D01*
X12058565Y5176653D01*
X12016361Y5171097D01*
X11956201Y5182247D01*
X11933436Y5199246D01*
X11047496Y6085186D01*
X11019719Y6139703D01*
X11018500Y6155190D01*
X11018500Y7136400D01*
X11303000Y7136400D01*
X11323632Y6979685D01*
X11384122Y6833650D01*
X11480347Y6708247D01*
X11605750Y6612022D01*
X11751785Y6551532D01*
X11759505Y6550516D01*
X11760341Y6550117D01*
X11764486Y6549006D01*
X11764280Y6548238D01*
X11814728Y6524172D01*
X11843921Y6470401D01*
X11838042Y6414477D01*
X11823643Y6379715D01*
X11816129Y6322640D01*
X11804296Y6232757D01*
X11803011Y6223000D01*
X11823643Y6066285D01*
X11884133Y5920250D01*
X11980358Y5794847D01*
X12105761Y5698622D01*
X12251796Y5638132D01*
X12408511Y5617500D01*
X12565226Y5638132D01*
X12711261Y5698622D01*
X12836664Y5794847D01*
X12932889Y5920250D01*
X12993379Y6066285D01*
X13002176Y6133100D01*
X13028516Y6188324D01*
X13082286Y6217519D01*
X13100328Y6219177D01*
X15737813Y6219177D01*
X15758649Y6216959D01*
X15761739Y6216294D01*
X15761743Y6216294D01*
X15769741Y6214572D01*
X15777861Y6215533D01*
X15777864Y6215533D01*
X15802852Y6218491D01*
X15808376Y6218817D01*
X15808374Y6218841D01*
X15812441Y6219177D01*
X15816526Y6219177D01*
X15820552Y6219847D01*
X15820563Y6219848D01*
X15833617Y6222021D01*
X15838229Y6222678D01*
X15865806Y6225942D01*
X15877542Y6227331D01*
X15877543Y6227331D01*
X15885669Y6228293D01*
X15892651Y6231646D01*
X15894000Y6232072D01*
X15901640Y6233344D01*
X15938713Y6253347D01*
X15943684Y6256029D01*
X15947838Y6258145D01*
X15985283Y6276127D01*
X15985284Y6276128D01*
X15990901Y6278825D01*
X15993509Y6281017D01*
X15995020Y6282528D01*
X15996607Y6283983D01*
X15996714Y6283866D01*
X15998986Y6285869D01*
X16004375Y6288777D01*
X16012737Y6297822D01*
X16066120Y6327719D01*
X16098356Y6328774D01*
X16138516Y6323487D01*
X16144950Y6322640D01*
X16301665Y6343272D01*
X16447700Y6403762D01*
X16573103Y6499987D01*
X16669328Y6625390D01*
X16729818Y6771425D01*
X16750450Y6928140D01*
X16729818Y7084855D01*
X16669328Y7230890D01*
X16573103Y7356293D01*
X16447700Y7452518D01*
X16441705Y7455001D01*
X16437481Y7457440D01*
X16396541Y7502910D01*
X16390146Y7563760D01*
X16399331Y7587685D01*
X16399378Y7587747D01*
X16459868Y7733782D01*
X16480500Y7890497D01*
X16459868Y8047212D01*
X16399378Y8193247D01*
X16303153Y8318650D01*
X16177750Y8414875D01*
X16031715Y8475365D01*
X15875000Y8495997D01*
X15718285Y8475365D01*
X15572250Y8414875D01*
X15446847Y8318650D01*
X15350622Y8193247D01*
X15290132Y8047212D01*
X15269500Y7890497D01*
X15275904Y7841857D01*
X15264754Y7781698D01*
X15247754Y7758932D01*
X14937514Y7448693D01*
X14882998Y7420916D01*
X14867511Y7419697D01*
X12496626Y7419697D01*
X12438435Y7438604D01*
X12418084Y7458430D01*
X12340607Y7559400D01*
X12336653Y7564553D01*
X12211250Y7660778D01*
X12065215Y7721268D01*
X11908500Y7741900D01*
X11751785Y7721268D01*
X11605750Y7660778D01*
X11480347Y7564553D01*
X11384122Y7439150D01*
X11323632Y7293115D01*
X11303000Y7136400D01*
X11018500Y7136400D01*
X11018500Y10512441D01*
X11037407Y10570632D01*
X11057233Y10590983D01*
X11091000Y10616893D01*
X11096153Y10620847D01*
X11192378Y10746250D01*
X11252868Y10892285D01*
X11273500Y11049000D01*
X11252868Y11205715D01*
X11192378Y11351750D01*
X11096153Y11477153D01*
X10970750Y11573378D01*
X10824715Y11633868D01*
X10668000Y11654500D01*
X10511285Y11633868D01*
X10365250Y11573378D01*
X10239847Y11477153D01*
X10143622Y11351750D01*
X10083132Y11205715D01*
X10062500Y11049000D01*
X500000Y11049000D01*
X500000Y12428036D01*
X12565000Y12428036D01*
X12585632Y12271321D01*
X12646122Y12125286D01*
X12742347Y11999883D01*
X12867750Y11903658D01*
X13013785Y11843168D01*
X13170500Y11822536D01*
X13327215Y11843168D01*
X13473250Y11903658D01*
X13598653Y11999883D01*
X13628518Y12038803D01*
X13678941Y12073459D01*
X13707059Y12077536D01*
X14285775Y12077536D01*
X14343966Y12058629D01*
X14355778Y12048540D01*
X14425739Y11978580D01*
X14438905Y11962278D01*
X14445061Y11952744D01*
X14451486Y11947679D01*
X14451487Y11947678D01*
X14471248Y11932100D01*
X14475379Y11928430D01*
X14475394Y11928448D01*
X14478517Y11925802D01*
X14481400Y11922919D01*
X14495492Y11912848D01*
X14499210Y11910056D01*
X14530306Y11885541D01*
X14530313Y11885537D01*
X14536737Y11880473D01*
X14544046Y11877906D01*
X14545299Y11877255D01*
X14551602Y11872751D01*
X14559440Y11870407D01*
X14597370Y11859064D01*
X14601809Y11857621D01*
X14641001Y11843857D01*
X14641010Y11843855D01*
X14646879Y11841794D01*
X14650273Y11841500D01*
X14652412Y11841500D01*
X14654545Y11841408D01*
X14654538Y11841249D01*
X14657579Y11841058D01*
X14663443Y11839304D01*
X14671617Y11839625D01*
X14671618Y11839625D01*
X14717414Y11841424D01*
X14721300Y11841500D01*
X16217500Y11841500D01*
X16275691Y11822593D01*
X16311655Y11773093D01*
X16316500Y11742500D01*
X16316500Y11692000D01*
X16323959Y11654500D01*
X16328558Y11631384D01*
X16332143Y11613359D01*
X16376690Y11546690D01*
X16443359Y11502143D01*
X16452922Y11500241D01*
X16452924Y11500240D01*
X16478200Y11495213D01*
X16522000Y11486500D01*
X16673000Y11486500D01*
X16731191Y11467593D01*
X16767155Y11418093D01*
X16772000Y11387500D01*
X16772000Y11270081D01*
X16772069Y11269776D01*
X16772113Y11268987D01*
X16772103Y11257732D01*
X16772104Y11257729D01*
X16772094Y11246583D01*
X16776919Y11236534D01*
X16777320Y11235700D01*
X16784594Y11214869D01*
X16787279Y11203100D01*
X16794227Y11194381D01*
X16794631Y11193874D01*
X16806456Y11175024D01*
X16811565Y11164384D01*
X16820269Y11157423D01*
X16820271Y11157421D01*
X16820991Y11156846D01*
X16836580Y11141231D01*
X16844105Y11131788D01*
X16854145Y11126945D01*
X16854148Y11126943D01*
X16854738Y11126659D01*
X16873557Y11114809D01*
X16882778Y11107435D01*
X16893644Y11104936D01*
X16893647Y11104935D01*
X16894543Y11104729D01*
X16915359Y11097419D01*
X16916192Y11097017D01*
X16916195Y11097016D01*
X16926234Y11092174D01*
X16948631Y11092155D01*
X16949425Y11092109D01*
X16949899Y11092000D01*
X17593919Y11092000D01*
X17594224Y11092069D01*
X17595013Y11092113D01*
X17606268Y11092103D01*
X17606271Y11092104D01*
X17617417Y11092094D01*
X17628303Y11097321D01*
X17649131Y11104594D01*
X17650030Y11104799D01*
X17650031Y11104799D01*
X17660900Y11107279D01*
X17670126Y11114631D01*
X17688976Y11126456D01*
X17699616Y11131565D01*
X17706577Y11140269D01*
X17706579Y11140271D01*
X17707154Y11140991D01*
X17722769Y11156580D01*
X17732212Y11164105D01*
X17737055Y11174145D01*
X17737057Y11174148D01*
X17737341Y11174738D01*
X17749191Y11193557D01*
X17756565Y11202778D01*
X17759064Y11213644D01*
X17759065Y11213647D01*
X17759271Y11214543D01*
X17766581Y11235359D01*
X17766983Y11236192D01*
X17766984Y11236195D01*
X17771826Y11246234D01*
X17771845Y11268631D01*
X17771891Y11269425D01*
X17772000Y11269899D01*
X17772000Y11387500D01*
X17790907Y11445691D01*
X17840407Y11481655D01*
X17871000Y11486500D01*
X18022000Y11486500D01*
X18065800Y11495213D01*
X18091076Y11500240D01*
X18091078Y11500241D01*
X18100641Y11502143D01*
X18167310Y11546690D01*
X18211857Y11613359D01*
X18215443Y11631384D01*
X18220041Y11654500D01*
X18227500Y11692000D01*
X18227500Y12692000D01*
X18211857Y12770641D01*
X18206441Y12778747D01*
X18206288Y12779116D01*
X18201489Y12840112D01*
X18206288Y12854884D01*
X18206441Y12855253D01*
X18211857Y12863359D01*
X18227500Y12942000D01*
X18227500Y13042500D01*
X18246407Y13100691D01*
X18295907Y13136655D01*
X18326500Y13141500D01*
X18358989Y13141500D01*
X18417180Y13122593D01*
X18453144Y13073093D01*
X18457989Y13042500D01*
X18457989Y10446824D01*
X18455977Y10427916D01*
X18454456Y10423586D01*
X18454162Y10420192D01*
X18454162Y10418049D01*
X18454070Y10415920D01*
X18453911Y10415927D01*
X18453720Y10412885D01*
X18451966Y10407021D01*
X18452287Y10398847D01*
X18452287Y10398846D01*
X18454086Y10353051D01*
X18454162Y10349165D01*
X18454162Y9544012D01*
X18451944Y9523176D01*
X18451279Y9520086D01*
X18451279Y9520082D01*
X18449557Y9512084D01*
X18450518Y9503964D01*
X18450518Y9503961D01*
X18453476Y9478973D01*
X18453802Y9473449D01*
X18453826Y9473451D01*
X18454162Y9469384D01*
X18454162Y9465299D01*
X18454832Y9461273D01*
X18454833Y9461262D01*
X18457006Y9448208D01*
X18457663Y9443596D01*
X18463278Y9396156D01*
X18466631Y9389174D01*
X18467057Y9387825D01*
X18468329Y9380185D01*
X18472214Y9372985D01*
X18491014Y9338141D01*
X18493130Y9333987D01*
X18511112Y9296542D01*
X18513810Y9290924D01*
X18516002Y9288316D01*
X18517513Y9286805D01*
X18518968Y9285218D01*
X18518851Y9285111D01*
X18520854Y9282839D01*
X18523762Y9277450D01*
X18529773Y9271894D01*
X18529774Y9271892D01*
X18563408Y9240801D01*
X18566210Y9238108D01*
X18945475Y8858843D01*
X18958638Y8842542D01*
X18964790Y8833015D01*
X18971216Y8827949D01*
X18971218Y8827947D01*
X18990973Y8812373D01*
X18995106Y8808701D01*
X18995121Y8808719D01*
X18998250Y8806068D01*
X19001129Y8803189D01*
X19004445Y8800820D01*
X19004449Y8800816D01*
X19015230Y8793112D01*
X19018939Y8790328D01*
X19056466Y8760744D01*
X19063777Y8758176D01*
X19065025Y8757528D01*
X19071331Y8753022D01*
X19117109Y8739332D01*
X19121537Y8737893D01*
X19160733Y8724128D01*
X19160734Y8724128D01*
X19166608Y8722065D01*
X19170002Y8721771D01*
X19172141Y8721771D01*
X19174274Y8721679D01*
X19174267Y8721520D01*
X19177309Y8721329D01*
X19183173Y8719575D01*
X19191347Y8719896D01*
X19191348Y8719896D01*
X19212247Y8720717D01*
X19271135Y8704108D01*
X19294675Y8682060D01*
X19323789Y8644118D01*
X19449192Y8547893D01*
X19595227Y8487403D01*
X19751942Y8466771D01*
X19908657Y8487403D01*
X20054692Y8547893D01*
X20180095Y8644118D01*
X20276320Y8769521D01*
X20336810Y8915556D01*
X20357442Y9072271D01*
X20336810Y9228986D01*
X20333032Y9238108D01*
X20321138Y9266823D01*
X20316337Y9327819D01*
X20348307Y9379988D01*
X20404835Y9403403D01*
X20464330Y9389119D01*
X20482606Y9374712D01*
X23212746Y6644572D01*
X23225909Y6628271D01*
X23232061Y6618744D01*
X23238487Y6613678D01*
X23238489Y6613676D01*
X23258244Y6598102D01*
X23262377Y6594430D01*
X23262392Y6594448D01*
X23265521Y6591797D01*
X23268400Y6588918D01*
X23271716Y6586549D01*
X23271720Y6586545D01*
X23282501Y6578841D01*
X23286210Y6576057D01*
X23323737Y6546473D01*
X23331048Y6543905D01*
X23332296Y6543257D01*
X23338602Y6538751D01*
X23384380Y6525061D01*
X23388808Y6523622D01*
X23428004Y6509857D01*
X23428005Y6509857D01*
X23433879Y6507794D01*
X23437273Y6507500D01*
X23439412Y6507500D01*
X23441545Y6507408D01*
X23441538Y6507249D01*
X23444580Y6507058D01*
X23450444Y6505304D01*
X23458618Y6505625D01*
X23460184Y6505687D01*
X23463780Y6505828D01*
X23522667Y6489220D01*
X23546206Y6467173D01*
X23574847Y6429847D01*
X23700250Y6333622D01*
X23794003Y6294788D01*
X23820089Y6283983D01*
X23846285Y6273132D01*
X24003000Y6252500D01*
X24159715Y6273132D01*
X24185912Y6283983D01*
X24211997Y6294788D01*
X24305750Y6333622D01*
X24431153Y6429847D01*
X24527378Y6555250D01*
X24587868Y6701285D01*
X24608500Y6858000D01*
X24587868Y7014715D01*
X24527378Y7160750D01*
X24431153Y7286153D01*
X24305750Y7382378D01*
X24159715Y7442868D01*
X24003000Y7463500D01*
X23846285Y7442868D01*
X23700250Y7382378D01*
X23695101Y7378427D01*
X23636757Y7333658D01*
X23579082Y7313234D01*
X23520416Y7330611D01*
X23506486Y7342196D01*
X20602254Y10246428D01*
X20589091Y10262729D01*
X20582939Y10272256D01*
X20576513Y10277322D01*
X20576511Y10277324D01*
X20556756Y10292898D01*
X20552623Y10296570D01*
X20552608Y10296552D01*
X20549479Y10299203D01*
X20546600Y10302082D01*
X20543284Y10304451D01*
X20543280Y10304455D01*
X20532499Y10312159D01*
X20528790Y10314943D01*
X20491263Y10344527D01*
X20483952Y10347095D01*
X20482704Y10347743D01*
X20476398Y10352249D01*
X20430620Y10365939D01*
X20426192Y10367378D01*
X20386996Y10381143D01*
X20386995Y10381143D01*
X20381121Y10383206D01*
X20377727Y10383500D01*
X20375588Y10383500D01*
X20373455Y10383592D01*
X20373462Y10383751D01*
X20370420Y10383942D01*
X20364556Y10385696D01*
X20356382Y10385375D01*
X20356381Y10385375D01*
X20310586Y10383576D01*
X20306700Y10383500D01*
X20105309Y10383500D01*
X20047118Y10402407D01*
X20026767Y10422233D01*
X19986270Y10475010D01*
X19982316Y10480163D01*
X19856913Y10576388D01*
X19710878Y10636878D01*
X19554163Y10657510D01*
X19397448Y10636878D01*
X19391451Y10634394D01*
X19295875Y10594805D01*
X19234878Y10590004D01*
X19182709Y10621974D01*
X19159294Y10678501D01*
X19158989Y10686269D01*
X19158989Y13206836D01*
X19161207Y13227672D01*
X19161872Y13230763D01*
X19163595Y13238765D01*
X19159675Y13271883D01*
X19159350Y13277395D01*
X19159326Y13277393D01*
X19158989Y13281468D01*
X19158989Y13285550D01*
X19156143Y13302647D01*
X19155489Y13307241D01*
X19154709Y13313838D01*
X19149873Y13354693D01*
X19146520Y13361675D01*
X19146094Y13363024D01*
X19144822Y13370664D01*
X19122137Y13412708D01*
X19120021Y13416862D01*
X19102039Y13454307D01*
X19102038Y13454308D01*
X19099341Y13459925D01*
X19097149Y13462533D01*
X19095638Y13464044D01*
X19094183Y13465631D01*
X19094300Y13465738D01*
X19092297Y13468010D01*
X19089389Y13473399D01*
X19083378Y13478955D01*
X19083377Y13478957D01*
X19049743Y13510048D01*
X19046941Y13512741D01*
X18854254Y13705428D01*
X18841091Y13721729D01*
X18834939Y13731256D01*
X18828513Y13736322D01*
X18828511Y13736324D01*
X18808756Y13751898D01*
X18804623Y13755570D01*
X18804608Y13755552D01*
X18801479Y13758203D01*
X18798600Y13761082D01*
X18795284Y13763451D01*
X18795280Y13763455D01*
X18784499Y13771159D01*
X18780790Y13773943D01*
X18743263Y13803527D01*
X18735952Y13806095D01*
X18734704Y13806743D01*
X18728398Y13811249D01*
X18682620Y13824939D01*
X18678192Y13826378D01*
X18638996Y13840143D01*
X18638995Y13840143D01*
X18633121Y13842206D01*
X18629727Y13842500D01*
X18627588Y13842500D01*
X18625455Y13842592D01*
X18625462Y13842751D01*
X18622420Y13842942D01*
X18616556Y13844696D01*
X18608382Y13844375D01*
X18608381Y13844375D01*
X18562586Y13842576D01*
X18558700Y13842500D01*
X18189934Y13842500D01*
X18131743Y13861407D01*
X18105568Y13889698D01*
X18102067Y13895401D01*
X18085671Y13922104D01*
X18048452Y13966934D01*
X17942297Y14063020D01*
X17917703Y14079609D01*
X17896911Y14093634D01*
X17896905Y14093637D01*
X17893994Y14095601D01*
X17765139Y14158031D01*
X17735729Y14167417D01*
X17712991Y14174674D01*
X17712987Y14174675D01*
X17709631Y14175746D01*
X17706164Y14176329D01*
X17706157Y14176331D01*
X17570310Y14199185D01*
X17570311Y14199185D01*
X17568432Y14199501D01*
X17552129Y14200964D01*
X17538761Y14202163D01*
X17538757Y14202163D01*
X17536853Y14202334D01*
X17528905Y14202431D01*
X17526407Y14202462D01*
X17526403Y14202462D01*
X17524515Y14202485D01*
X17522628Y14202362D01*
X17522622Y14202362D01*
X17494786Y14200550D01*
X17494782Y14200550D01*
X17492868Y14200425D01*
X17490963Y14200152D01*
X17490961Y14200152D01*
X17479426Y14198500D01*
X17465392Y14197500D01*
X17088596Y14197500D01*
X17072172Y14198872D01*
X17071525Y14198981D01*
X17068432Y14199501D01*
X17052129Y14200964D01*
X17038761Y14202163D01*
X17038757Y14202163D01*
X17036853Y14202334D01*
X17028905Y14202431D01*
X17026407Y14202462D01*
X17026403Y14202462D01*
X17024515Y14202485D01*
X17022628Y14202362D01*
X17022622Y14202362D01*
X16994786Y14200550D01*
X16994782Y14200550D01*
X16992868Y14200425D01*
X16990964Y14200152D01*
X16990961Y14200152D01*
X16979426Y14198500D01*
X16851131Y14180127D01*
X16795206Y14163773D01*
X16664864Y14104509D01*
X16615779Y14073118D01*
X16613116Y14070824D01*
X16613110Y14070819D01*
X16530943Y14000019D01*
X16507308Y13979654D01*
X16504985Y13976991D01*
X16501871Y13973422D01*
X16449371Y13941999D01*
X16427267Y13939500D01*
X15649559Y13939500D01*
X15591368Y13958407D01*
X15571017Y13978233D01*
X15545107Y14012000D01*
X15541153Y14017153D01*
X15415750Y14113378D01*
X15269715Y14173868D01*
X15113000Y14194500D01*
X14956285Y14173868D01*
X14810250Y14113378D01*
X14684847Y14017153D01*
X14588622Y13891750D01*
X14552703Y13805035D01*
X14535240Y13762874D01*
X14528132Y13745715D01*
X14507500Y13589000D01*
X14528132Y13432285D01*
X14588622Y13286250D01*
X14684847Y13160847D01*
X14810250Y13064622D01*
X14863657Y13042500D01*
X14941105Y13010420D01*
X14956285Y13004132D01*
X15113000Y12983500D01*
X15269715Y13004132D01*
X15284896Y13010420D01*
X15362343Y13042500D01*
X15415750Y13064622D01*
X15541153Y13160847D01*
X15571018Y13199767D01*
X15621441Y13234423D01*
X15649559Y13238500D01*
X16217500Y13238500D01*
X16275691Y13219593D01*
X16311655Y13170093D01*
X16316500Y13139500D01*
X16316500Y12942000D01*
X16332143Y12863359D01*
X16337559Y12855253D01*
X16337712Y12854884D01*
X16342511Y12793888D01*
X16337712Y12779116D01*
X16337559Y12778747D01*
X16332143Y12770641D01*
X16316500Y12692000D01*
X16316500Y12641500D01*
X16297593Y12583309D01*
X16248093Y12547345D01*
X16217500Y12542500D01*
X14894190Y12542500D01*
X14835999Y12561407D01*
X14824186Y12571496D01*
X14754218Y12641464D01*
X14741055Y12657765D01*
X14734903Y12667292D01*
X14728477Y12672358D01*
X14728475Y12672360D01*
X14708720Y12687934D01*
X14704587Y12691606D01*
X14704572Y12691588D01*
X14701443Y12694239D01*
X14698564Y12697118D01*
X14695248Y12699487D01*
X14695244Y12699491D01*
X14684463Y12707195D01*
X14680754Y12709979D01*
X14643227Y12739563D01*
X14635916Y12742131D01*
X14634668Y12742779D01*
X14628362Y12747285D01*
X14582584Y12760975D01*
X14578156Y12762414D01*
X14538960Y12776179D01*
X14538959Y12776179D01*
X14533085Y12778242D01*
X14529691Y12778536D01*
X14527552Y12778536D01*
X14525419Y12778628D01*
X14525426Y12778787D01*
X14522384Y12778978D01*
X14516520Y12780732D01*
X14508346Y12780411D01*
X14508345Y12780411D01*
X14462550Y12778612D01*
X14458664Y12778536D01*
X13707059Y12778536D01*
X13648868Y12797443D01*
X13628517Y12817269D01*
X13602607Y12851036D01*
X13598653Y12856189D01*
X13473250Y12952414D01*
X13348392Y13004132D01*
X13333212Y13010420D01*
X13327215Y13012904D01*
X13170500Y13033536D01*
X13013785Y13012904D01*
X13007788Y13010420D01*
X12992608Y13004132D01*
X12867750Y12952414D01*
X12742347Y12856189D01*
X12646122Y12730786D01*
X12585632Y12584751D01*
X12565000Y12428036D01*
X500000Y12428036D01*
X500000Y14401000D01*
X518907Y14459191D01*
X568407Y14495155D01*
X599000Y14500000D01*
X802890Y14500000D01*
X861081Y14481093D01*
G37*
G04 #@! TD.AperFunction*
M02*
