G04 #@! TF.GenerationSoftware,KiCad,Pcbnew,(5.99.0-10394-g2e15de97e0)*
G04 #@! TF.CreationDate,2021-08-05T10:27:57+02:00*
G04 #@! TF.ProjectId,TFASPDIMU02A,54464153-5044-4494-9d55-3032412e6b69,rev?*
G04 #@! TF.SameCoordinates,Original*
G04 #@! TF.FileFunction,Copper,L2,Bot*
G04 #@! TF.FilePolarity,Positive*
%FSLAX46Y46*%
G04 Gerber Fmt 4.6, Leading zero omitted, Abs format (unit mm)*
G04 Created by KiCad (PCBNEW (5.99.0-10394-g2e15de97e0)) date 2021-08-05 10:27:57*
%MOMM*%
%LPD*%
G01*
G04 APERTURE LIST*
G04 Aperture macros list*
%AMRoundRect*
0 Rectangle with rounded corners*
0 $1 Rounding radius*
0 $2 $3 $4 $5 $6 $7 $8 $9 X,Y pos of 4 corners*
0 Add a 4 corners polygon primitive as box body*
4,1,4,$2,$3,$4,$5,$6,$7,$8,$9,$2,$3,0*
0 Add four circle primitives for the rounded corners*
1,1,$1+$1,$2,$3*
1,1,$1+$1,$4,$5*
1,1,$1+$1,$6,$7*
1,1,$1+$1,$8,$9*
0 Add four rect primitives between the rounded corners*
20,1,$1+$1,$2,$3,$4,$5,0*
20,1,$1+$1,$4,$5,$6,$7,0*
20,1,$1+$1,$6,$7,$8,$9,0*
20,1,$1+$1,$8,$9,$2,$3,0*%
%AMOutline4P*
0 Free polygon, 4 corners , with rotation*
0 The origin of the aperture is its center*
0 number of corners: always 4*
0 $1 to $8 corner X, Y*
0 $9 Rotation angle, in degrees counterclockwise*
0 create outline with 4 corners*
4,1,4,$1,$2,$3,$4,$5,$6,$7,$8,$1,$2,$9*%
G04 Aperture macros list end*
G04 #@! TA.AperFunction,SMDPad,CuDef*
%ADD10RoundRect,0.140000X-0.140000X-0.170000X0.140000X-0.170000X0.140000X0.170000X-0.140000X0.170000X0*%
G04 #@! TD*
G04 #@! TA.AperFunction,SMDPad,CuDef*
%ADD11RoundRect,0.135000X0.135000X0.185000X-0.135000X0.185000X-0.135000X-0.185000X0.135000X-0.185000X0*%
G04 #@! TD*
G04 #@! TA.AperFunction,SMDPad,CuDef*
%ADD12RoundRect,0.140000X-0.170000X0.140000X-0.170000X-0.140000X0.170000X-0.140000X0.170000X0.140000X0*%
G04 #@! TD*
G04 #@! TA.AperFunction,SMDPad,CuDef*
%ADD13RoundRect,0.140000X0.170000X-0.140000X0.170000X0.140000X-0.170000X0.140000X-0.170000X-0.140000X0*%
G04 #@! TD*
G04 #@! TA.AperFunction,SMDPad,CuDef*
%ADD14RoundRect,0.135000X-0.185000X0.135000X-0.185000X-0.135000X0.185000X-0.135000X0.185000X0.135000X0*%
G04 #@! TD*
G04 #@! TA.AperFunction,SMDPad,CuDef*
%ADD15RoundRect,0.135000X-0.135000X-0.185000X0.135000X-0.185000X0.135000X0.185000X-0.135000X0.185000X0*%
G04 #@! TD*
G04 #@! TA.AperFunction,SMDPad,CuDef*
%ADD16R,0.600000X0.700000*%
G04 #@! TD*
G04 #@! TA.AperFunction,SMDPad,CuDef*
%ADD17R,1.100000X0.400000*%
G04 #@! TD*
G04 #@! TA.AperFunction,SMDPad,CuDef*
%ADD18RoundRect,0.135000X0.185000X-0.135000X0.185000X0.135000X-0.185000X0.135000X-0.185000X-0.135000X0*%
G04 #@! TD*
G04 #@! TA.AperFunction,SMDPad,CuDef*
%ADD19Outline4P,-1.000000X-0.250000X1.000000X-0.250000X1.000000X0.250000X-1.000000X0.250000X180.000000*%
G04 #@! TD*
G04 #@! TA.AperFunction,SMDPad,CuDef*
%ADD20Outline4P,-1.000000X-0.250000X1.000000X-0.250000X1.000000X0.250000X-1.000000X0.250000X90.000000*%
G04 #@! TD*
G04 #@! TA.AperFunction,SMDPad,CuDef*
%ADD21Outline4P,-0.900000X-0.450000X0.900000X-0.450000X0.900000X0.450000X-0.900000X0.450000X180.000000*%
G04 #@! TD*
G04 #@! TA.AperFunction,SMDPad,CuDef*
%ADD22RoundRect,0.150000X-0.700000X0.150000X-0.700000X-0.150000X0.700000X-0.150000X0.700000X0.150000X0*%
G04 #@! TD*
G04 #@! TA.AperFunction,SMDPad,CuDef*
%ADD23RoundRect,0.250000X-1.100000X0.250000X-1.100000X-0.250000X1.100000X-0.250000X1.100000X0.250000X0*%
G04 #@! TD*
G04 #@! TA.AperFunction,SMDPad,CuDef*
%ADD24RoundRect,0.140000X0.140000X0.170000X-0.140000X0.170000X-0.140000X-0.170000X0.140000X-0.170000X0*%
G04 #@! TD*
G04 #@! TA.AperFunction,SMDPad,CuDef*
%ADD25RoundRect,0.150000X0.512500X0.150000X-0.512500X0.150000X-0.512500X-0.150000X0.512500X-0.150000X0*%
G04 #@! TD*
G04 #@! TA.AperFunction,SMDPad,CuDef*
%ADD26RoundRect,0.050000X-0.225000X-0.050000X0.225000X-0.050000X0.225000X0.050000X-0.225000X0.050000X0*%
G04 #@! TD*
G04 #@! TA.AperFunction,SMDPad,CuDef*
%ADD27RoundRect,0.050000X-0.050000X0.225000X-0.050000X-0.225000X0.050000X-0.225000X0.050000X0.225000X0*%
G04 #@! TD*
G04 #@! TA.AperFunction,ViaPad*
%ADD28C,0.800000*%
G04 #@! TD*
G04 #@! TA.AperFunction,Conductor*
%ADD29C,0.200000*%
G04 #@! TD*
G04 #@! TA.AperFunction,Conductor*
%ADD30C,0.400000*%
G04 #@! TD*
G04 #@! TA.AperFunction,Conductor*
%ADD31C,0.300000*%
G04 #@! TD*
G04 #@! TA.AperFunction,Conductor*
%ADD32C,0.500000*%
G04 #@! TD*
G04 APERTURE END LIST*
D10*
X25047000Y1651000D03*
X26007000Y1651000D03*
D11*
X21592000Y10033000D03*
X20572000Y10033000D03*
D12*
X15748000Y6068000D03*
X15748000Y5108000D03*
D13*
X16129000Y9906000D03*
X16129000Y10866000D03*
D14*
X16891000Y8765000D03*
X16891000Y7745000D03*
D10*
X22380000Y11176000D03*
X23340000Y11176000D03*
X10569000Y6096000D03*
X11529000Y6096000D03*
D15*
X17524000Y10033000D03*
X18544000Y10033000D03*
D16*
X24827000Y13208000D03*
X26227000Y13208000D03*
D13*
X18542000Y4092000D03*
X18542000Y5052000D03*
D12*
X22987000Y5179000D03*
X22987000Y4219000D03*
D17*
X14215000Y4531000D03*
X14215000Y3881000D03*
X14215000Y3231000D03*
X14215000Y2581000D03*
X9915000Y2581000D03*
X9915000Y3231000D03*
X9915000Y3881000D03*
X9915000Y4531000D03*
D18*
X1651000Y2792000D03*
X1651000Y3812000D03*
D14*
X19812000Y5209000D03*
X19812000Y4189000D03*
D10*
X22380000Y12573000D03*
X23340000Y12573000D03*
D14*
X21717000Y5209000D03*
X21717000Y4189000D03*
D19*
X8850000Y9150000D03*
X8850000Y8150000D03*
X8850000Y7150000D03*
D20*
X7400000Y5450000D03*
X6400000Y5450000D03*
X5400000Y5450000D03*
X4400000Y5450000D03*
X3400000Y5450000D03*
D19*
X1950000Y7150000D03*
X1950000Y8150000D03*
X1950000Y9150000D03*
D20*
X3400000Y10850000D03*
X4400000Y10850000D03*
X5400000Y10850000D03*
X6400000Y10850000D03*
X7400000Y10850000D03*
D21*
X5400000Y9000000D03*
X5400000Y7300000D03*
D22*
X25328000Y9375000D03*
X25328000Y8125000D03*
X25328000Y6875000D03*
X25328000Y5625000D03*
D23*
X28528000Y3775000D03*
X28528000Y11225000D03*
D24*
X12291000Y12319000D03*
X11331000Y12319000D03*
D10*
X14125000Y12446000D03*
X15085000Y12446000D03*
D11*
X16893000Y2794000D03*
X15873000Y2794000D03*
D10*
X4473000Y3429000D03*
X5433000Y3429000D03*
D12*
X16256000Y13561000D03*
X16256000Y12601000D03*
D18*
X16891000Y5586000D03*
X16891000Y6606000D03*
D14*
X5334000Y2288000D03*
X5334000Y1268000D03*
D17*
X18551000Y6518000D03*
X18551000Y7168000D03*
X18551000Y7818000D03*
X18551000Y8468000D03*
X22851000Y8468000D03*
X22851000Y7818000D03*
X22851000Y7168000D03*
X22851000Y6518000D03*
D18*
X6731000Y2536000D03*
X6731000Y3556000D03*
D25*
X20060500Y13777000D03*
X20060500Y12827000D03*
X20060500Y11877000D03*
X17785500Y11877000D03*
X17785500Y13777000D03*
D11*
X16893000Y3937000D03*
X15873000Y3937000D03*
D25*
X22727500Y2982000D03*
X22727500Y2032000D03*
X22727500Y1082000D03*
X20452500Y1082000D03*
X20452500Y2982000D03*
D12*
X18542000Y2766000D03*
X18542000Y1806000D03*
D26*
X11708000Y8525000D03*
X11708000Y8925000D03*
X11708000Y9325000D03*
X11708000Y9725000D03*
X11708000Y10125000D03*
X11708000Y10525000D03*
D27*
X12208000Y11025000D03*
X12608000Y11025000D03*
X13008000Y11025000D03*
X13408000Y11025000D03*
X13808000Y11025000D03*
X14208000Y11025000D03*
D26*
X14708000Y10525000D03*
X14708000Y10125000D03*
X14708000Y9725000D03*
X14708000Y9325000D03*
X14708000Y8925000D03*
X14708000Y8525000D03*
D27*
X14208000Y8025000D03*
X13808000Y8025000D03*
X13408000Y8025000D03*
X13008000Y8025000D03*
X12608000Y8025000D03*
X12208000Y8025000D03*
D28*
X8890000Y11684000D03*
X27559000Y12700000D03*
X21336000Y11049000D03*
X28829000Y9779000D03*
X1270000Y12700000D03*
X27559000Y13716000D03*
X8382000Y1016000D03*
X27432000Y1397000D03*
X28067000Y5080000D03*
X19858561Y8078471D03*
X5080000Y13843000D03*
X14859000Y1143000D03*
X11303000Y3810000D03*
X29083000Y7366000D03*
X27432000Y2413000D03*
X1016000Y4953000D03*
X29083000Y8636000D03*
X15875000Y8890000D03*
X28702000Y12700000D03*
X8890000Y12700000D03*
X21300000Y7300000D03*
X10541000Y1016000D03*
X1270000Y11684000D03*
X28829000Y2413000D03*
X17526000Y1143000D03*
X29083000Y6096000D03*
X1016000Y1651000D03*
X15113000Y11303000D03*
X24638000Y4191000D03*
X2540000Y12700000D03*
X24384000Y10795000D03*
X26162000Y2921000D03*
X17780000Y3429000D03*
X5080000Y12700000D03*
X27432000Y6985000D03*
X26289000Y11811000D03*
X16256000Y1143000D03*
X9525000Y1016000D03*
X24384000Y11811000D03*
X26289000Y10668000D03*
X3810000Y12700000D03*
X22600000Y9400000D03*
X28702000Y13716000D03*
X14732000Y5715000D03*
X29083000Y5080000D03*
X28829000Y1397000D03*
X24100000Y2100000D03*
X16868069Y9802021D03*
X20887970Y5064889D03*
X19200000Y3302000D03*
X7852166Y3069834D03*
X8509000Y4630500D03*
X19751942Y9072271D03*
X15113000Y13589000D03*
X13170500Y12428036D03*
X20682203Y4086796D03*
X26900000Y8100000D03*
X19554163Y10052010D03*
X24003000Y6858000D03*
X15875000Y7890497D03*
X11908500Y7136400D03*
X16144950Y6928140D03*
X12408511Y6223000D03*
X12465944Y3619102D03*
X13807511Y5334000D03*
X12065000Y4572000D03*
X10668000Y11049000D03*
X2159000Y4826000D03*
X2650500Y3076042D03*
D29*
X14450000Y11811000D02*
X15085000Y12446000D01*
X13808000Y11401368D02*
X14217632Y11811000D01*
X13808000Y11025000D02*
X13808000Y11401368D01*
X14708000Y8525000D02*
X15510000Y8525000D01*
X15510000Y8525000D02*
X15875000Y8890000D01*
D30*
X23976542Y2032000D02*
X23977167Y2031375D01*
X22727500Y2032000D02*
X23976542Y2032000D01*
D31*
X21200000Y7300000D02*
X21300000Y7300000D01*
D29*
X14217632Y11811000D02*
X14450000Y11811000D01*
D31*
X21844000Y12573000D02*
X20640000Y13777000D01*
X24323000Y2982000D02*
X23937000Y2982000D01*
X20640000Y13777000D02*
X20060500Y13777000D01*
D32*
X25328000Y12707000D02*
X24827000Y13208000D01*
D31*
X23937000Y2982000D02*
X22727500Y2982000D01*
X24478000Y1082000D02*
X22727500Y1082000D01*
X22098000Y12573000D02*
X21844000Y12573000D01*
X25047000Y1651000D02*
X24478000Y1082000D01*
X22380000Y11176000D02*
X22380000Y10866000D01*
X23871000Y9375000D02*
X25328000Y9375000D01*
X24826000Y2982000D02*
X25047000Y2761000D01*
X22126000Y12037000D02*
X22380000Y12037000D01*
X24826000Y2982000D02*
X24323000Y2982000D01*
D32*
X25328000Y9375000D02*
X25328000Y12707000D01*
D31*
X22380000Y11839000D02*
X22380000Y11176000D01*
X22380000Y10866000D02*
X23871000Y9375000D01*
X25047000Y2761000D02*
X25047000Y1651000D01*
X22380000Y12573000D02*
X22380000Y12037000D01*
X22098000Y12065000D02*
X22126000Y12037000D01*
X27582000Y9375000D02*
X28321000Y8636000D01*
X28321000Y8636000D02*
X28321000Y6477000D01*
X22380000Y12037000D02*
X22380000Y11839000D01*
X28321000Y6477000D02*
X24826000Y2982000D01*
X22380000Y12573000D02*
X22098000Y12573000D01*
X20060500Y11877000D02*
X22342000Y11877000D01*
X22098000Y12573000D02*
X22098000Y12065000D01*
X25328000Y9375000D02*
X27582000Y9375000D01*
X22342000Y11877000D02*
X22380000Y11839000D01*
X5888000Y2288000D02*
X5334000Y2288000D01*
D30*
X19520000Y2982000D02*
X19200000Y3302000D01*
D31*
X8608500Y4531000D02*
X8509000Y4630500D01*
D30*
X21717000Y5209000D02*
X22957000Y5209000D01*
X21717000Y5209000D02*
X21032081Y5209000D01*
D31*
X5212000Y2288000D02*
X4473000Y3027000D01*
D30*
X18664000Y2766000D02*
X19200000Y3302000D01*
D29*
X14708000Y10525000D02*
X15510000Y10525000D01*
D31*
X6731000Y2536000D02*
X7318332Y2536000D01*
X5334000Y2288000D02*
X5212000Y2288000D01*
X4473000Y3429000D02*
X4473000Y3027000D01*
X9915000Y4531000D02*
X10119000Y4531000D01*
D29*
X15510000Y10525000D02*
X16129000Y9906000D01*
D31*
X10119000Y4531000D02*
X10569000Y4981000D01*
X6731000Y2536000D02*
X6136000Y2536000D01*
D30*
X20452500Y2982000D02*
X19520000Y2982000D01*
X21032081Y5209000D02*
X20887970Y5064889D01*
X18542000Y2766000D02*
X18664000Y2766000D01*
D31*
X22851000Y6518000D02*
X22851000Y5315000D01*
D30*
X22957000Y5209000D02*
X22987000Y5179000D01*
D31*
X10569000Y4981000D02*
X10569000Y6096000D01*
X6136000Y2536000D02*
X5888000Y2288000D01*
D29*
X16129000Y9906000D02*
X17397000Y9906000D01*
X16764090Y9906000D02*
X16868069Y9802021D01*
D31*
X4400000Y5550000D02*
X4400000Y3502000D01*
D29*
X16129000Y9906000D02*
X16764090Y9906000D01*
D31*
X9915000Y4531000D02*
X8608500Y4531000D01*
X7318332Y2536000D02*
X7852166Y3069834D01*
X22851000Y5315000D02*
X22987000Y5179000D01*
D29*
X17397000Y9906000D02*
X17524000Y10033000D01*
D31*
X16893000Y4793000D02*
X16891000Y4795000D01*
X14215000Y4531000D02*
X15171000Y4531000D01*
X18542000Y5052000D02*
X18542000Y6509000D01*
X12291000Y12657813D02*
X12291000Y12319000D01*
X16228000Y13589000D02*
X16256000Y13561000D01*
D29*
X13008000Y6607005D02*
X13108011Y6506994D01*
D31*
X20391729Y9072271D02*
X19751942Y9072271D01*
X15171000Y4531000D02*
X15748000Y5108000D01*
X19418000Y6518000D02*
X19950000Y7050000D01*
X16891000Y4795000D02*
X16891000Y5586000D01*
X18551000Y6518000D02*
X18551000Y5597000D01*
X20701000Y7860956D02*
X20701000Y8763000D01*
X18540000Y5586000D02*
X18551000Y5597000D01*
X16505000Y4795000D02*
X16192000Y5108000D01*
X18551000Y5061000D02*
X18542000Y5052000D01*
X16893000Y5093000D02*
X16893000Y5233000D01*
X19950000Y7050000D02*
X19950000Y7109956D01*
X16893000Y2794000D02*
X16893000Y3937000D01*
D29*
X13008000Y8025000D02*
X13008000Y6607005D01*
D31*
X17397000Y9271000D02*
X19558000Y9271000D01*
X15748000Y5108000D02*
X16192000Y5108000D01*
X16891000Y4795000D02*
X16505000Y4795000D01*
X18048000Y5052000D02*
X18542000Y5052000D01*
X17785500Y13777000D02*
X16472000Y13777000D01*
D29*
X13108011Y6506994D02*
X13108011Y4798989D01*
D31*
X14701547Y13177547D02*
X12810734Y13177547D01*
X16893000Y4793000D02*
X16893000Y5093000D01*
X18551000Y6518000D02*
X19418000Y6518000D01*
X19950000Y7109956D02*
X20701000Y7860956D01*
X12810734Y13177547D02*
X12291000Y12657813D01*
X18551000Y5597000D02*
X18551000Y5061000D01*
X16472000Y13777000D02*
X16256000Y13561000D01*
X16891000Y5586000D02*
X17514000Y5586000D01*
X16891000Y8765000D02*
X17397000Y9271000D01*
X16893000Y3937000D02*
X16893000Y4793000D01*
X15113000Y13589000D02*
X14701547Y13177547D01*
X20701000Y8763000D02*
X20391729Y9072271D01*
X17246000Y5586000D02*
X16891000Y5586000D01*
D29*
X12608000Y11825501D02*
X12291000Y12142501D01*
X13376000Y4531000D02*
X13108011Y4798989D01*
D31*
X15113000Y13589000D02*
X16228000Y13589000D01*
X17514000Y5586000D02*
X18048000Y5052000D01*
X18542000Y6509000D02*
X18551000Y6518000D01*
D29*
X12608000Y11025000D02*
X12608000Y11825501D01*
X14215000Y4531000D02*
X13376000Y4531000D01*
X12291000Y12142501D02*
X12291000Y12319000D01*
D31*
X19558000Y9271000D02*
X19939000Y8890000D01*
D29*
X14125000Y12315287D02*
X13408000Y11598287D01*
X13408000Y11598287D02*
X13408000Y11025000D01*
X14125000Y12446000D02*
X14125000Y12315287D01*
X13008000Y12265536D02*
X13008000Y11025000D01*
X13170500Y12428036D02*
X13008000Y12265536D01*
D31*
X19812000Y4189000D02*
X20579999Y4189000D01*
X20784407Y4189000D02*
X20682203Y4086796D01*
X20579999Y4189000D02*
X20682203Y4086796D01*
X21717000Y4189000D02*
X20784407Y4189000D01*
X25328000Y8125000D02*
X26875000Y8125000D01*
X26875000Y8125000D02*
X26900000Y8100000D01*
X19812000Y10033000D02*
X18544000Y10033000D01*
X25328000Y6875000D02*
X24020000Y6875000D01*
X20572000Y10033000D02*
X19573173Y10033000D01*
X24020000Y6875000D02*
X24003000Y6858000D01*
X19573173Y10033000D02*
X19554163Y10052010D01*
X16020497Y7745000D02*
X16891000Y7745000D01*
D29*
X11908500Y7136400D02*
X12208000Y7435900D01*
D31*
X15875000Y7890497D02*
X16020497Y7745000D01*
X18478000Y7745000D02*
X16891000Y7745000D01*
X18551000Y7818000D02*
X18478000Y7745000D01*
D29*
X12208000Y7435900D02*
X12208000Y8025000D01*
D31*
X17453000Y7168000D02*
X16891000Y6606000D01*
X16799480Y6697520D02*
X16891000Y6606000D01*
D29*
X12408511Y6223000D02*
X12608000Y6422489D01*
D31*
X16144950Y6928140D02*
X16375570Y6697520D01*
X18551000Y7168000D02*
X17453000Y7168000D01*
X16375570Y6697520D02*
X16799480Y6697520D01*
D29*
X12608000Y6422489D02*
X12608000Y8025000D01*
D31*
X3400000Y2442000D02*
X4574000Y1268000D01*
X4574000Y1268000D02*
X5334000Y1268000D01*
X5334000Y1268000D02*
X7110286Y1268000D01*
X7110286Y1268000D02*
X9073286Y3231000D01*
X9073286Y3231000D02*
X9915000Y3231000D01*
X3400000Y5550000D02*
X3400000Y2442000D01*
X9915000Y3881000D02*
X8181000Y3881000D01*
X6400000Y3887000D02*
X6406000Y3881000D01*
X7481000Y3881000D02*
X7156000Y3556000D01*
X6406000Y3881000D02*
X6731000Y3556000D01*
X8181000Y3881000D02*
X7481000Y3881000D01*
X7156000Y3556000D02*
X6731000Y3556000D01*
X6400000Y5550000D02*
X6400000Y3887000D01*
D29*
X13507531Y6939469D02*
X13408000Y7039000D01*
X13507531Y5633980D02*
X13507531Y6939469D01*
X13807511Y5334000D02*
X13507531Y5633980D01*
D31*
X12854046Y3231000D02*
X14215000Y3231000D01*
X14215000Y3231000D02*
X15436000Y3231000D01*
D29*
X13408000Y7039000D02*
X13408000Y8025000D01*
D31*
X12465944Y3619102D02*
X12854046Y3231000D01*
X15436000Y3231000D02*
X15873000Y2794000D01*
D29*
X10668000Y11049000D02*
X12184000Y11049000D01*
D31*
X15817000Y3881000D02*
X15873000Y3937000D01*
X14215000Y3881000D02*
X13264000Y3881000D01*
X13264000Y3881000D02*
X12573000Y4572000D01*
X14215000Y3881000D02*
X15817000Y3881000D01*
D29*
X12184000Y11049000D02*
X12208000Y11025000D01*
D31*
X12573000Y4572000D02*
X12065000Y4572000D01*
X19812000Y5209000D02*
X21153499Y6550499D01*
X21153499Y6550499D02*
X21610455Y6550499D01*
X21610455Y6550499D02*
X22227956Y7168000D01*
X22227956Y7168000D02*
X22851000Y7168000D01*
X22027000Y7818000D02*
X22851000Y7818000D01*
X21592000Y8253000D02*
X22027000Y7818000D01*
X21592000Y10033000D02*
X21592000Y8253000D01*
X2159000Y4826000D02*
X2540000Y5207000D01*
X2502000Y7150000D02*
X2540000Y7112000D01*
X1950000Y7150000D02*
X2502000Y7150000D01*
X2540000Y7112000D02*
X2540000Y5207000D01*
X2366458Y2792000D02*
X2650500Y3076042D01*
X1651000Y2792000D02*
X2366458Y2792000D01*
G04 #@! TA.AperFunction,Conductor*
G36*
X861081Y14481093D02*
G01*
X896636Y14432823D01*
X931244Y14330869D01*
X984971Y14227440D01*
X1044420Y14112997D01*
X1050508Y14101277D01*
X1203128Y13892366D01*
X1385591Y13708945D01*
X1388610Y13706715D01*
X1388616Y13706710D01*
X1585851Y13561031D01*
X1593700Y13555234D01*
X1689857Y13504643D01*
X1819337Y13436519D01*
X1819342Y13436517D01*
X1822664Y13434769D01*
X1826219Y13433542D01*
X1826220Y13433541D01*
X1922785Y13400197D01*
X2067216Y13350325D01*
X2070913Y13349650D01*
X2070920Y13349648D01*
X2282393Y13311027D01*
X2321727Y13303843D01*
X2404595Y13299500D01*
X2565729Y13299500D01*
X2642768Y13305360D01*
X2754221Y13313838D01*
X2754227Y13313839D01*
X2757975Y13314124D01*
X3010014Y13372543D01*
X3250316Y13468414D01*
X3473352Y13599530D01*
X3528898Y13644751D01*
X3657881Y13749760D01*
X3673989Y13762874D01*
X3788789Y13889703D01*
X3845086Y13951899D01*
X3845089Y13951903D01*
X3847609Y13954687D01*
X3959462Y14123998D01*
X3988146Y14167417D01*
X3988146Y14167418D01*
X3990219Y14170555D01*
X4004666Y14201892D01*
X4032990Y14263333D01*
X4098534Y14405510D01*
X4105111Y14428373D01*
X4139370Y14479067D01*
X4200252Y14500000D01*
X10802890Y14500000D01*
X10861081Y14481093D01*
X10896636Y14432823D01*
X10931244Y14330869D01*
X10984971Y14227440D01*
X11044420Y14112997D01*
X11050508Y14101277D01*
X11203128Y13892366D01*
X11385591Y13708945D01*
X11388610Y13706715D01*
X11388616Y13706710D01*
X11585851Y13561031D01*
X11593700Y13555234D01*
X11689857Y13504643D01*
X11819337Y13436519D01*
X11819342Y13436517D01*
X11822664Y13434769D01*
X11826219Y13433542D01*
X11826220Y13433541D01*
X11922785Y13400197D01*
X12067216Y13350325D01*
X12070923Y13349648D01*
X12237179Y13319284D01*
X12291026Y13290230D01*
X12317511Y13235074D01*
X12306518Y13174884D01*
X12289396Y13151891D01*
X12077572Y12940067D01*
X12061271Y12926904D01*
X12051744Y12920752D01*
X12046678Y12914326D01*
X12046676Y12914324D01*
X12031102Y12894569D01*
X12027430Y12890436D01*
X12027448Y12890421D01*
X12024797Y12887292D01*
X12021918Y12884413D01*
X12019549Y12881097D01*
X12019545Y12881093D01*
X12011841Y12870312D01*
X12009057Y12866603D01*
X11979473Y12829076D01*
X11976907Y12821770D01*
X11976254Y12820513D01*
X11971751Y12814211D01*
X11969407Y12806372D01*
X11965809Y12799027D01*
X11964665Y12799587D01*
X11938431Y12759688D01*
X11936418Y12757999D01*
X11928917Y12753668D01*
X11923350Y12747034D01*
X11923348Y12747032D01*
X11901337Y12720800D01*
X11851788Y12661750D01*
X11810749Y12548995D01*
X11810500Y12546149D01*
X11810500Y12120643D01*
X11811250Y12116390D01*
X11822154Y12054552D01*
X11826336Y12030832D01*
X11830666Y12023332D01*
X11830667Y12023330D01*
X11833762Y12017970D01*
X11886332Y11926917D01*
X11978250Y11849788D01*
X12091005Y11808749D01*
X12093851Y11808500D01*
X12159022Y11808500D01*
X12217213Y11789593D01*
X12229026Y11779504D01*
X12278504Y11730026D01*
X12306281Y11675509D01*
X12307500Y11660022D01*
X12307500Y11599500D01*
X12288593Y11541309D01*
X12239093Y11505345D01*
X12208500Y11500500D01*
X12132863Y11500500D01*
X12060224Y11486051D01*
X11977334Y11430666D01*
X11971915Y11422556D01*
X11952500Y11393499D01*
X11904450Y11355619D01*
X11870184Y11349500D01*
X11242926Y11349500D01*
X11184735Y11368407D01*
X11164384Y11388232D01*
X11162516Y11390667D01*
X11096153Y11477153D01*
X10970750Y11573378D01*
X10824715Y11633868D01*
X10668000Y11654500D01*
X10511285Y11633868D01*
X10365250Y11573378D01*
X10239847Y11477153D01*
X10143622Y11351750D01*
X10083132Y11205715D01*
X10062500Y11049000D01*
X10083132Y10892285D01*
X10143622Y10746250D01*
X10239847Y10620847D01*
X10365250Y10524622D01*
X10511285Y10464132D01*
X10668000Y10443500D01*
X10824715Y10464132D01*
X10970750Y10524622D01*
X11073233Y10603260D01*
X11130908Y10623684D01*
X11189574Y10606307D01*
X11226822Y10557765D01*
X11232500Y10524718D01*
X11232500Y10449863D01*
X11236576Y10429371D01*
X11244879Y10387632D01*
X11246949Y10377224D01*
X11252369Y10369113D01*
X11254947Y10362889D01*
X11259749Y10301892D01*
X11254947Y10287111D01*
X11252369Y10280887D01*
X11246949Y10272776D01*
X11245047Y10263213D01*
X11245046Y10263211D01*
X11241694Y10246356D01*
X11232500Y10200137D01*
X11232500Y10049863D01*
X11238336Y10020525D01*
X11244104Y9991529D01*
X11246949Y9977224D01*
X11252369Y9969113D01*
X11254947Y9962889D01*
X11259749Y9901892D01*
X11254947Y9887111D01*
X11252369Y9880887D01*
X11246949Y9872776D01*
X11245047Y9863213D01*
X11245046Y9863211D01*
X11241901Y9847399D01*
X11232500Y9800137D01*
X11232500Y9649863D01*
X11238575Y9619324D01*
X11243653Y9593796D01*
X11246949Y9577224D01*
X11252369Y9569113D01*
X11254947Y9562889D01*
X11259749Y9501892D01*
X11254947Y9487111D01*
X11252369Y9480887D01*
X11246949Y9472776D01*
X11232500Y9400137D01*
X11232500Y9249863D01*
X11246949Y9177224D01*
X11252369Y9169113D01*
X11254947Y9162889D01*
X11259749Y9101892D01*
X11254947Y9087111D01*
X11252369Y9080887D01*
X11246949Y9072776D01*
X11245047Y9063213D01*
X11245046Y9063211D01*
X11244541Y9060670D01*
X11232500Y9000137D01*
X11232500Y8849863D01*
X11233861Y8843022D01*
X11243772Y8793197D01*
X11246949Y8777224D01*
X11252369Y8769113D01*
X11254947Y8762889D01*
X11259749Y8701892D01*
X11254947Y8687111D01*
X11252369Y8680887D01*
X11246949Y8672776D01*
X11245047Y8663213D01*
X11245046Y8663211D01*
X11241298Y8644366D01*
X11232500Y8600137D01*
X11232500Y8449863D01*
X11246949Y8377224D01*
X11302334Y8294334D01*
X11310444Y8288915D01*
X11334475Y8272858D01*
X11385224Y8238949D01*
X11457863Y8224500D01*
X11808500Y8224500D01*
X11866691Y8205593D01*
X11902655Y8156093D01*
X11907500Y8125500D01*
X11907500Y7828589D01*
X11888593Y7770398D01*
X11839093Y7734434D01*
X11821422Y7730436D01*
X11801287Y7727785D01*
X11751785Y7721268D01*
X11605750Y7660778D01*
X11480347Y7564553D01*
X11384122Y7439150D01*
X11323632Y7293115D01*
X11314651Y7224895D01*
X11304443Y7147357D01*
X11303000Y7136400D01*
X11323632Y6979685D01*
X11384122Y6833650D01*
X11480347Y6708247D01*
X11605750Y6612022D01*
X11711610Y6568173D01*
X11742119Y6555536D01*
X11751785Y6551532D01*
X11759505Y6550516D01*
X11760341Y6550117D01*
X11764486Y6549006D01*
X11764280Y6548238D01*
X11814728Y6524172D01*
X11843921Y6470401D01*
X11838042Y6414477D01*
X11829276Y6393313D01*
X11823643Y6379715D01*
X11807055Y6253718D01*
X11804835Y6236851D01*
X11803011Y6223000D01*
X11823643Y6066285D01*
X11884133Y5920250D01*
X11980358Y5794847D01*
X12105761Y5698622D01*
X12251796Y5638132D01*
X12408511Y5617500D01*
X12565226Y5638132D01*
X12670625Y5681790D01*
X12731622Y5686591D01*
X12783791Y5654622D01*
X12807206Y5598094D01*
X12807511Y5590326D01*
X12807511Y5001010D01*
X12788604Y4942819D01*
X12739104Y4906855D01*
X12675709Y4907602D01*
X12639995Y4920144D01*
X12639989Y4920145D01*
X12634121Y4922206D01*
X12630727Y4922500D01*
X12628588Y4922500D01*
X12626455Y4922592D01*
X12626462Y4922751D01*
X12623420Y4922942D01*
X12617556Y4924696D01*
X12609382Y4924375D01*
X12607816Y4924313D01*
X12604220Y4924172D01*
X12545333Y4940780D01*
X12521794Y4962827D01*
X12493153Y5000153D01*
X12367750Y5096378D01*
X12221715Y5156868D01*
X12065000Y5177500D01*
X11908285Y5156868D01*
X11762250Y5096378D01*
X11636847Y5000153D01*
X11540622Y4874750D01*
X11496834Y4769037D01*
X11488283Y4748392D01*
X11480132Y4728715D01*
X11459500Y4572000D01*
X11480132Y4415285D01*
X11540622Y4269250D01*
X11636847Y4143847D01*
X11762250Y4047622D01*
X11815309Y4025644D01*
X11868308Y4003691D01*
X11914834Y3963954D01*
X11929117Y3904459D01*
X11921886Y3874341D01*
X11889413Y3795945D01*
X11881076Y3775817D01*
X11860444Y3619102D01*
X11881076Y3462387D01*
X11941566Y3316352D01*
X12037791Y3190949D01*
X12163194Y3094724D01*
X12261387Y3054051D01*
X12299831Y3038127D01*
X12309229Y3034234D01*
X12465944Y3013602D01*
X12510265Y3019437D01*
X12570426Y3008287D01*
X12590680Y2992405D01*
X12591107Y2991744D01*
X12597534Y2986677D01*
X12597539Y2986672D01*
X12617290Y2971102D01*
X12621423Y2967430D01*
X12621438Y2967448D01*
X12624567Y2964797D01*
X12627446Y2961918D01*
X12630762Y2959549D01*
X12630766Y2959545D01*
X12641547Y2951841D01*
X12645256Y2949057D01*
X12682783Y2919473D01*
X12690094Y2916905D01*
X12691342Y2916257D01*
X12697648Y2911751D01*
X12743426Y2898061D01*
X12747854Y2896622D01*
X12787050Y2882857D01*
X12787051Y2882857D01*
X12792925Y2880794D01*
X12796319Y2880500D01*
X12798458Y2880500D01*
X12800591Y2880408D01*
X12800584Y2880249D01*
X12803626Y2880058D01*
X12809490Y2878304D01*
X12817664Y2878625D01*
X12817665Y2878625D01*
X12863460Y2880424D01*
X12867346Y2880500D01*
X13497425Y2880500D01*
X13552426Y2863816D01*
X13570028Y2852055D01*
X13586359Y2841143D01*
X13665000Y2825500D01*
X14765000Y2825500D01*
X14843641Y2841143D01*
X14859972Y2852055D01*
X14877574Y2863816D01*
X14932575Y2880500D01*
X15249811Y2880500D01*
X15308002Y2861593D01*
X15319814Y2851504D01*
X15373503Y2797816D01*
X15401281Y2743300D01*
X15402500Y2727812D01*
X15402500Y2580644D01*
X15418035Y2492542D01*
X15422365Y2485043D01*
X15422365Y2485042D01*
X15440720Y2453250D01*
X15477162Y2390131D01*
X15567750Y2314118D01*
X15600058Y2302359D01*
X15672775Y2275892D01*
X15672778Y2275891D01*
X15678873Y2273673D01*
X15680850Y2273500D01*
X16036356Y2273500D01*
X16124458Y2289035D01*
X16136848Y2296188D01*
X16219371Y2343833D01*
X16226869Y2348162D01*
X16302882Y2438750D01*
X16302935Y2438895D01*
X16344850Y2476636D01*
X16405700Y2483033D01*
X16458688Y2452441D01*
X16470854Y2435696D01*
X16492830Y2397633D01*
X16492832Y2397630D01*
X16497162Y2390131D01*
X16587750Y2314118D01*
X16620058Y2302359D01*
X16692775Y2275892D01*
X16692778Y2275891D01*
X16698873Y2273673D01*
X16700850Y2273500D01*
X17056356Y2273500D01*
X17144458Y2289035D01*
X17156848Y2296188D01*
X17239371Y2343833D01*
X17246869Y2348162D01*
X17322882Y2438750D01*
X17338442Y2481500D01*
X17361108Y2543775D01*
X17361109Y2543778D01*
X17363327Y2549873D01*
X17363500Y2551850D01*
X17363500Y3007356D01*
X17347965Y3095458D01*
X17330264Y3126118D01*
X17293167Y3190371D01*
X17288838Y3197869D01*
X17278865Y3206238D01*
X17246441Y3258125D01*
X17243500Y3282076D01*
X17243500Y3451114D01*
X17262407Y3509305D01*
X17266662Y3514750D01*
X17306660Y3562418D01*
X17322882Y3581750D01*
X17341339Y3632461D01*
X17361108Y3686775D01*
X17361109Y3686778D01*
X17363327Y3692873D01*
X17363500Y3694850D01*
X17363500Y4150356D01*
X17347965Y4238458D01*
X17341244Y4250100D01*
X17293167Y4333371D01*
X17288838Y4340869D01*
X17278865Y4349238D01*
X17246441Y4401125D01*
X17243500Y4425076D01*
X17243500Y4744330D01*
X17245718Y4765167D01*
X17246383Y4768253D01*
X17246383Y4768257D01*
X17248105Y4776254D01*
X17245405Y4799067D01*
X17245274Y4807424D01*
X17244698Y4814740D01*
X17245404Y4822892D01*
X17243654Y4829939D01*
X17243500Y4833851D01*
X17243500Y5103347D01*
X17262407Y5161538D01*
X17281795Y5178995D01*
X17280731Y5180263D01*
X17287364Y5185829D01*
X17291891Y5188443D01*
X17292612Y5188734D01*
X17292999Y5189082D01*
X17294869Y5190162D01*
X17294871Y5190164D01*
X17295113Y5189745D01*
X17345897Y5210264D01*
X17405265Y5195463D01*
X17422809Y5181509D01*
X17765746Y4838572D01*
X17778909Y4822271D01*
X17785061Y4812744D01*
X17791487Y4807678D01*
X17791489Y4807676D01*
X17811244Y4792102D01*
X17815377Y4788430D01*
X17815392Y4788448D01*
X17818521Y4785797D01*
X17821400Y4782918D01*
X17824716Y4780549D01*
X17824720Y4780545D01*
X17835501Y4772841D01*
X17839210Y4770057D01*
X17876737Y4740473D01*
X17884048Y4737905D01*
X17885296Y4737257D01*
X17891602Y4732751D01*
X17937380Y4719061D01*
X17941808Y4717622D01*
X17981004Y4703857D01*
X17981005Y4703857D01*
X17986879Y4701794D01*
X17990273Y4701500D01*
X17992412Y4701500D01*
X17994545Y4701408D01*
X17994538Y4701249D01*
X17997580Y4701058D01*
X18003444Y4699304D01*
X18011618Y4699625D01*
X18011619Y4699625D01*
X18053780Y4701281D01*
X18112668Y4684672D01*
X18121301Y4678195D01*
X18158082Y4647332D01*
X18199250Y4612788D01*
X18236600Y4599194D01*
X18302727Y4575126D01*
X18312005Y4571749D01*
X18314851Y4571500D01*
X18740357Y4571500D01*
X18793537Y4580877D01*
X18821639Y4585832D01*
X18821640Y4585832D01*
X18830168Y4587336D01*
X18837668Y4591666D01*
X18837670Y4591667D01*
X18926578Y4642999D01*
X18934083Y4647332D01*
X19011212Y4739250D01*
X19045644Y4833851D01*
X19050032Y4845908D01*
X19050032Y4845909D01*
X19052251Y4852005D01*
X19052500Y4854851D01*
X19052500Y5220357D01*
X19036664Y5310168D01*
X19022905Y5334000D01*
X18984135Y5401150D01*
X18976668Y5414083D01*
X18936862Y5447484D01*
X18904441Y5499371D01*
X18901500Y5523321D01*
X18901500Y5539551D01*
X18901942Y5546580D01*
X18903696Y5552444D01*
X18902290Y5588251D01*
X18901576Y5606414D01*
X18901500Y5610300D01*
X18901500Y6013500D01*
X18920407Y6071691D01*
X18969907Y6107655D01*
X19000500Y6112500D01*
X19101000Y6112500D01*
X19179641Y6128143D01*
X19213573Y6150816D01*
X19268575Y6167500D01*
X19369326Y6167500D01*
X19390162Y6165282D01*
X19393252Y6164617D01*
X19393256Y6164617D01*
X19401254Y6162895D01*
X19409374Y6163856D01*
X19409377Y6163856D01*
X19434365Y6166814D01*
X19439889Y6167140D01*
X19439887Y6167164D01*
X19443954Y6167500D01*
X19448039Y6167500D01*
X19452065Y6168170D01*
X19452076Y6168171D01*
X19465130Y6170344D01*
X19469742Y6171001D01*
X19495495Y6174049D01*
X19509055Y6175654D01*
X19509056Y6175654D01*
X19517182Y6176616D01*
X19524164Y6179969D01*
X19525513Y6180395D01*
X19533153Y6181667D01*
X19560375Y6196355D01*
X19575197Y6204352D01*
X19579351Y6206468D01*
X19616796Y6224450D01*
X19616797Y6224451D01*
X19622414Y6227148D01*
X19625022Y6229340D01*
X19626533Y6230851D01*
X19628120Y6232306D01*
X19628227Y6232189D01*
X19630499Y6234192D01*
X19635888Y6237100D01*
X19643039Y6244835D01*
X19672537Y6276746D01*
X19675230Y6279548D01*
X20163428Y6767746D01*
X20179729Y6780909D01*
X20189256Y6787061D01*
X20194322Y6793487D01*
X20194324Y6793489D01*
X20209898Y6813244D01*
X20213570Y6817377D01*
X20213552Y6817392D01*
X20216203Y6820521D01*
X20219082Y6823400D01*
X20221451Y6826716D01*
X20221455Y6826720D01*
X20229159Y6837501D01*
X20231943Y6841210D01*
X20261527Y6878737D01*
X20264093Y6886043D01*
X20264746Y6887300D01*
X20269249Y6893602D01*
X20279116Y6926596D01*
X20303961Y6968235D01*
X20914423Y7578698D01*
X20930723Y7591862D01*
X20940256Y7598017D01*
X20945424Y7604572D01*
X20960900Y7624204D01*
X20964570Y7628335D01*
X20964552Y7628350D01*
X20967198Y7631473D01*
X20970081Y7634356D01*
X20980152Y7648448D01*
X20982944Y7652166D01*
X21007459Y7683262D01*
X21007463Y7683269D01*
X21012527Y7689693D01*
X21015094Y7697002D01*
X21015745Y7698255D01*
X21020249Y7704558D01*
X21033939Y7750336D01*
X21035378Y7754764D01*
X21049143Y7793960D01*
X21049143Y7793961D01*
X21051206Y7799835D01*
X21051500Y7803229D01*
X21051500Y7805368D01*
X21051592Y7807501D01*
X21051751Y7807494D01*
X21051942Y7810536D01*
X21053696Y7816400D01*
X21051576Y7870370D01*
X21051500Y7874256D01*
X21051500Y8157407D01*
X21070407Y8215598D01*
X21119907Y8251562D01*
X21181093Y8251562D01*
X21230593Y8215598D01*
X21248814Y8169043D01*
X21249493Y8163310D01*
X21250616Y8153818D01*
X21253969Y8146836D01*
X21254395Y8145487D01*
X21255667Y8137847D01*
X21259552Y8130647D01*
X21278352Y8095803D01*
X21280468Y8091649D01*
X21298450Y8054204D01*
X21301148Y8048586D01*
X21303340Y8045978D01*
X21304851Y8044467D01*
X21306306Y8042880D01*
X21306189Y8042773D01*
X21308192Y8040501D01*
X21311100Y8035112D01*
X21317111Y8029556D01*
X21317112Y8029554D01*
X21350746Y7998463D01*
X21353548Y7995770D01*
X21744746Y7604572D01*
X21757909Y7588271D01*
X21764061Y7578744D01*
X21770487Y7573678D01*
X21770489Y7573676D01*
X21790244Y7558102D01*
X21794377Y7554430D01*
X21794392Y7554448D01*
X21797521Y7551797D01*
X21800400Y7548918D01*
X21803716Y7546549D01*
X21803720Y7546545D01*
X21814501Y7538841D01*
X21818210Y7536057D01*
X21855737Y7506473D01*
X21863048Y7503905D01*
X21864296Y7503257D01*
X21870602Y7498751D01*
X21876941Y7496855D01*
X21920285Y7454853D01*
X21930806Y7394579D01*
X21902797Y7338523D01*
X21494269Y6929995D01*
X21439752Y6902218D01*
X21424265Y6900999D01*
X21202173Y6900999D01*
X21181337Y6903217D01*
X21178247Y6903882D01*
X21178243Y6903882D01*
X21170245Y6905604D01*
X21162125Y6904643D01*
X21162122Y6904643D01*
X21137134Y6901685D01*
X21131610Y6901359D01*
X21131612Y6901335D01*
X21127545Y6900999D01*
X21123460Y6900999D01*
X21119434Y6900329D01*
X21119423Y6900328D01*
X21106369Y6898155D01*
X21101757Y6897498D01*
X21079309Y6894841D01*
X21062444Y6892845D01*
X21062443Y6892845D01*
X21054317Y6891883D01*
X21047335Y6888530D01*
X21045986Y6888104D01*
X21038346Y6886832D01*
X21031145Y6882947D01*
X21031146Y6882947D01*
X20996302Y6864147D01*
X20992148Y6862031D01*
X20954703Y6844049D01*
X20949085Y6841351D01*
X20946477Y6839159D01*
X20944966Y6837648D01*
X20943379Y6836193D01*
X20943272Y6836310D01*
X20941000Y6834307D01*
X20935611Y6831399D01*
X20930055Y6825388D01*
X20930053Y6825387D01*
X20898962Y6791753D01*
X20896269Y6788951D01*
X19815814Y5708496D01*
X19761297Y5680719D01*
X19745810Y5679500D01*
X19598644Y5679500D01*
X19510542Y5663965D01*
X19503043Y5659635D01*
X19503042Y5659635D01*
X19424598Y5614345D01*
X19408131Y5604838D01*
X19332118Y5514250D01*
X19326703Y5499371D01*
X19295661Y5414083D01*
X19291673Y5403127D01*
X19291500Y5401150D01*
X19291500Y5045644D01*
X19307035Y4957542D01*
X19311365Y4950043D01*
X19311365Y4950042D01*
X19327281Y4922475D01*
X19366162Y4855131D01*
X19456750Y4779118D01*
X19456895Y4779065D01*
X19494636Y4737150D01*
X19501033Y4676300D01*
X19470441Y4623312D01*
X19453696Y4611146D01*
X19415633Y4589170D01*
X19415630Y4589168D01*
X19408131Y4584838D01*
X19332118Y4494250D01*
X19320816Y4463197D01*
X19297031Y4397847D01*
X19291673Y4383127D01*
X19291500Y4381150D01*
X19291500Y4025644D01*
X19292250Y4021391D01*
X19292627Y4017081D01*
X19291163Y4016953D01*
X19283483Y3962263D01*
X19240984Y3918246D01*
X19199933Y3908008D01*
X19200000Y3907500D01*
X19195540Y3906913D01*
X19195539Y3906913D01*
X19043285Y3886868D01*
X19037288Y3884384D01*
X19019742Y3877116D01*
X18897250Y3826378D01*
X18771847Y3730153D01*
X18675622Y3604750D01*
X18615132Y3458715D01*
X18601536Y3355442D01*
X18598526Y3332578D01*
X18572185Y3277353D01*
X18518415Y3248158D01*
X18500373Y3246500D01*
X18343643Y3246500D01*
X18306698Y3239986D01*
X18262361Y3232168D01*
X18262360Y3232168D01*
X18253832Y3230664D01*
X18246332Y3226334D01*
X18246330Y3226333D01*
X18188427Y3192902D01*
X18149917Y3170668D01*
X18072788Y3078750D01*
X18031749Y2965995D01*
X18031500Y2963149D01*
X18031500Y2597643D01*
X18032250Y2593390D01*
X18042569Y2534870D01*
X18047336Y2507832D01*
X18051666Y2500332D01*
X18051667Y2500330D01*
X18082679Y2446616D01*
X18107332Y2403917D01*
X18199250Y2326788D01*
X18257280Y2305667D01*
X18302977Y2289035D01*
X18312005Y2285749D01*
X18314851Y2285500D01*
X18740357Y2285500D01*
X18784962Y2293365D01*
X18821639Y2299832D01*
X18821640Y2299832D01*
X18830168Y2301336D01*
X18837668Y2305666D01*
X18837670Y2305667D01*
X18926578Y2356999D01*
X18934083Y2361332D01*
X19011212Y2453250D01*
X19046088Y2549072D01*
X19050032Y2559908D01*
X19050032Y2559909D01*
X19052251Y2566005D01*
X19052340Y2567028D01*
X19077765Y2613373D01*
X19129991Y2665599D01*
X19184508Y2693376D01*
X19244940Y2683805D01*
X19269998Y2665599D01*
X19281653Y2653944D01*
X19288593Y2650408D01*
X19303149Y2642991D01*
X19316392Y2634876D01*
X19321039Y2631500D01*
X19335907Y2620698D01*
X19343315Y2618291D01*
X19343321Y2618288D01*
X19358848Y2613243D01*
X19373198Y2607299D01*
X19387749Y2599885D01*
X19387753Y2599884D01*
X19394694Y2596347D01*
X19402388Y2595128D01*
X19402389Y2595128D01*
X19418520Y2592573D01*
X19433623Y2588947D01*
X19449157Y2583900D01*
X19449159Y2583900D01*
X19456566Y2581493D01*
X19583434Y2581493D01*
X19583449Y2581498D01*
X19583479Y2581500D01*
X19655631Y2581500D01*
X19713822Y2562593D01*
X19722832Y2555198D01*
X19744822Y2534870D01*
X19752305Y2531562D01*
X19752308Y2531560D01*
X19786689Y2516361D01*
X19851591Y2487669D01*
X19900422Y2481500D01*
X20995039Y2481500D01*
X21080153Y2495667D01*
X21182888Y2551100D01*
X21189439Y2558186D01*
X21234839Y2607299D01*
X21262130Y2636822D01*
X21265438Y2644305D01*
X21265440Y2644308D01*
X21300168Y2722864D01*
X21309331Y2743591D01*
X21315500Y2792422D01*
X21315500Y3162039D01*
X21301333Y3247153D01*
X21245900Y3349888D01*
X21160178Y3429130D01*
X21091445Y3459516D01*
X21045868Y3500338D01*
X21032991Y3560152D01*
X21057730Y3616113D01*
X21071208Y3628604D01*
X21074498Y3631128D01*
X21110356Y3658643D01*
X21192766Y3766041D01*
X21243189Y3800697D01*
X21304354Y3799096D01*
X21334943Y3781612D01*
X21361750Y3759118D01*
X21401746Y3744561D01*
X21466775Y3720892D01*
X21466778Y3720891D01*
X21472873Y3718673D01*
X21474850Y3718500D01*
X21930356Y3718500D01*
X22018458Y3734035D01*
X22056775Y3756157D01*
X22113371Y3788833D01*
X22120869Y3793162D01*
X22196882Y3883750D01*
X22215781Y3935674D01*
X22235108Y3988775D01*
X22235109Y3988778D01*
X22237327Y3994873D01*
X22237500Y3996850D01*
X22237500Y4352356D01*
X22221965Y4440458D01*
X22209877Y4461396D01*
X22167167Y4535371D01*
X22162838Y4542869D01*
X22095713Y4599194D01*
X22078886Y4613314D01*
X22078885Y4613315D01*
X22072250Y4618882D01*
X22072104Y4618935D01*
X22034361Y4660853D01*
X22027967Y4721704D01*
X22058560Y4774691D01*
X22075296Y4786851D01*
X22089825Y4795239D01*
X22139320Y4808500D01*
X22526330Y4808500D01*
X22584521Y4789593D01*
X22589966Y4785338D01*
X22597379Y4779118D01*
X22644250Y4739788D01*
X22686284Y4724489D01*
X22749447Y4701500D01*
X22757005Y4698749D01*
X22759851Y4698500D01*
X23185357Y4698500D01*
X23261421Y4711912D01*
X23266639Y4712832D01*
X23266640Y4712832D01*
X23275168Y4714336D01*
X23282668Y4718666D01*
X23282670Y4718667D01*
X23368554Y4768253D01*
X23379083Y4774332D01*
X23456212Y4866250D01*
X23497251Y4979005D01*
X23497500Y4981851D01*
X23497500Y5347357D01*
X23485994Y5412614D01*
X23483168Y5428639D01*
X23483168Y5428640D01*
X23481664Y5437168D01*
X23476103Y5446801D01*
X23426001Y5533578D01*
X23421668Y5541083D01*
X23329750Y5618212D01*
X23266640Y5641182D01*
X23218425Y5678852D01*
X23201500Y5734212D01*
X23201500Y6013500D01*
X23220407Y6071691D01*
X23269907Y6107655D01*
X23300500Y6112500D01*
X23401000Y6112500D01*
X23444800Y6121213D01*
X23470076Y6126240D01*
X23470078Y6126241D01*
X23479641Y6128143D01*
X23546310Y6172690D01*
X23590857Y6239359D01*
X23592760Y6248924D01*
X23592761Y6248927D01*
X23592974Y6249998D01*
X23593859Y6251579D01*
X23596491Y6257932D01*
X23597243Y6257620D01*
X23622872Y6303381D01*
X23678438Y6328995D01*
X23727957Y6322145D01*
X23810960Y6287764D01*
X23846285Y6273132D01*
X24003000Y6252500D01*
X24159715Y6273132D01*
X24305750Y6333622D01*
X24348425Y6366368D01*
X24383541Y6393313D01*
X24441217Y6413737D01*
X24483837Y6405317D01*
X24539591Y6380669D01*
X24588422Y6374500D01*
X26058039Y6374500D01*
X26143153Y6388667D01*
X26245888Y6444100D01*
X26259860Y6459214D01*
X26274757Y6475329D01*
X26325130Y6529822D01*
X26328438Y6537305D01*
X26328440Y6537308D01*
X26369416Y6629998D01*
X26372331Y6636591D01*
X26378500Y6685422D01*
X26378500Y7055039D01*
X26364333Y7140153D01*
X26308900Y7242888D01*
X26223178Y7322130D01*
X26215695Y7325438D01*
X26215692Y7325440D01*
X26134808Y7361197D01*
X26116409Y7369331D01*
X26067578Y7375500D01*
X24597961Y7375500D01*
X24512847Y7361333D01*
X24477249Y7342125D01*
X24463775Y7334855D01*
X24403585Y7323862D01*
X24356497Y7343439D01*
X24310899Y7378427D01*
X24305750Y7382378D01*
X24159715Y7442868D01*
X24003000Y7463500D01*
X23846285Y7442868D01*
X23840288Y7440384D01*
X23719305Y7390271D01*
X23658308Y7385470D01*
X23606139Y7417440D01*
X23592113Y7440329D01*
X23590857Y7446641D01*
X23585443Y7454744D01*
X23585289Y7455115D01*
X23580489Y7516112D01*
X23585288Y7530884D01*
X23585441Y7531253D01*
X23590857Y7539359D01*
X23606500Y7618000D01*
X23606500Y8018000D01*
X23590857Y8096641D01*
X23585441Y8104747D01*
X23585288Y8105116D01*
X23580489Y8166112D01*
X23585288Y8180884D01*
X23585441Y8181253D01*
X23590857Y8189359D01*
X23606500Y8268000D01*
X23606500Y8314578D01*
X24277500Y8314578D01*
X24277500Y7944961D01*
X24291667Y7859847D01*
X24347100Y7757112D01*
X24353108Y7751559D01*
X24353108Y7751558D01*
X24371632Y7734434D01*
X24432822Y7677870D01*
X24440305Y7674562D01*
X24440308Y7674560D01*
X24495104Y7650336D01*
X24539591Y7630669D01*
X24588422Y7624500D01*
X26058039Y7624500D01*
X26143153Y7638667D01*
X26245888Y7694100D01*
X26255556Y7704558D01*
X26273884Y7724386D01*
X26280294Y7731319D01*
X26333677Y7761216D01*
X26394439Y7754024D01*
X26431532Y7724387D01*
X26471847Y7671847D01*
X26597250Y7575622D01*
X26743285Y7515132D01*
X26900000Y7494500D01*
X27056715Y7515132D01*
X27202750Y7575622D01*
X27328153Y7671847D01*
X27424378Y7797250D01*
X27484868Y7943285D01*
X27505500Y8100000D01*
X27484868Y8256715D01*
X27482167Y8263237D01*
X27459623Y8317661D01*
X27424378Y8402750D01*
X27328153Y8528153D01*
X27202750Y8624378D01*
X27056715Y8684868D01*
X26900000Y8705500D01*
X26743285Y8684868D01*
X26597250Y8624378D01*
X26471847Y8528153D01*
X26461165Y8514231D01*
X26410742Y8479577D01*
X26382624Y8475500D01*
X26366458Y8475500D01*
X26308267Y8494407D01*
X26299256Y8501803D01*
X26286557Y8513542D01*
X26223178Y8572130D01*
X26215695Y8575438D01*
X26215692Y8575440D01*
X26149052Y8604900D01*
X26116409Y8619331D01*
X26067578Y8625500D01*
X24597961Y8625500D01*
X24512847Y8611333D01*
X24410112Y8555900D01*
X24330870Y8470178D01*
X24327562Y8462695D01*
X24327560Y8462692D01*
X24319783Y8445100D01*
X24283669Y8363409D01*
X24277500Y8314578D01*
X23606500Y8314578D01*
X23606500Y8668000D01*
X23594753Y8727056D01*
X23592760Y8737076D01*
X23592759Y8737078D01*
X23590857Y8746641D01*
X23546310Y8813310D01*
X23479641Y8857857D01*
X23470078Y8859759D01*
X23470076Y8859760D01*
X23444800Y8864787D01*
X23401000Y8873500D01*
X22301000Y8873500D01*
X22257200Y8864787D01*
X22231924Y8859760D01*
X22231922Y8859759D01*
X22222359Y8857857D01*
X22155690Y8813310D01*
X22150271Y8805200D01*
X22123815Y8765606D01*
X22075765Y8727727D01*
X22014627Y8725325D01*
X21963753Y8759318D01*
X21942500Y8820608D01*
X21942500Y9547114D01*
X21961407Y9605305D01*
X21965662Y9610750D01*
X21995622Y9646455D01*
X22021882Y9677750D01*
X22040061Y9727696D01*
X22060108Y9782775D01*
X22060109Y9782778D01*
X22062327Y9788873D01*
X22062500Y9790850D01*
X22062500Y10246356D01*
X22046965Y10334458D01*
X22023905Y10374400D01*
X21992167Y10429371D01*
X21987838Y10436869D01*
X21897250Y10512882D01*
X21840231Y10533635D01*
X21792225Y10551108D01*
X21792222Y10551109D01*
X21786127Y10553327D01*
X21784150Y10553500D01*
X21428644Y10553500D01*
X21340542Y10537965D01*
X21333043Y10533635D01*
X21333042Y10533635D01*
X21247274Y10484117D01*
X21238131Y10478838D01*
X21162118Y10388250D01*
X21162065Y10388105D01*
X21120150Y10350364D01*
X21059300Y10343967D01*
X21006312Y10374559D01*
X20994146Y10391304D01*
X20972170Y10429367D01*
X20972167Y10429371D01*
X20967838Y10436869D01*
X20877250Y10512882D01*
X20820231Y10533635D01*
X20772225Y10551108D01*
X20772222Y10551109D01*
X20766127Y10553327D01*
X20764150Y10553500D01*
X20408644Y10553500D01*
X20320542Y10537965D01*
X20313043Y10533635D01*
X20313042Y10533635D01*
X20227274Y10484117D01*
X20218131Y10478838D01*
X20193818Y10449863D01*
X20174775Y10427169D01*
X20122887Y10394746D01*
X20061850Y10399014D01*
X20020395Y10430537D01*
X20017026Y10434928D01*
X19982316Y10480163D01*
X19856913Y10576388D01*
X19710878Y10636878D01*
X19554163Y10657510D01*
X19397448Y10636878D01*
X19251413Y10576388D01*
X19126010Y10480163D01*
X19093884Y10438295D01*
X19043459Y10403640D01*
X18982295Y10405242D01*
X18941931Y10433243D01*
X18939838Y10436869D01*
X18849250Y10512882D01*
X18792231Y10533635D01*
X18744225Y10551108D01*
X18744222Y10551109D01*
X18738127Y10553327D01*
X18736150Y10553500D01*
X18380644Y10553500D01*
X18292542Y10537965D01*
X18285043Y10533635D01*
X18285042Y10533635D01*
X18199274Y10484117D01*
X18190131Y10478838D01*
X18114118Y10388250D01*
X18114065Y10388105D01*
X18072150Y10350364D01*
X18011300Y10343967D01*
X17958312Y10374559D01*
X17946146Y10391304D01*
X17924170Y10429367D01*
X17924167Y10429371D01*
X17919838Y10436869D01*
X17829250Y10512882D01*
X17772231Y10533635D01*
X17724225Y10551108D01*
X17724222Y10551109D01*
X17718127Y10553327D01*
X17716150Y10553500D01*
X17360644Y10553500D01*
X17272542Y10537965D01*
X17265043Y10533635D01*
X17265042Y10533635D01*
X17179274Y10484117D01*
X17170131Y10478838D01*
X17140479Y10443500D01*
X17120398Y10419569D01*
X17068510Y10387146D01*
X17024868Y10387528D01*
X17024784Y10386889D01*
X16885380Y10405242D01*
X16874503Y10406674D01*
X16868069Y10407521D01*
X16861635Y10406674D01*
X16850758Y10405242D01*
X16711354Y10386889D01*
X16573162Y10329648D01*
X16512167Y10324847D01*
X16485775Y10335377D01*
X16478388Y10339642D01*
X16471750Y10345212D01*
X16373013Y10381149D01*
X16365092Y10384032D01*
X16365091Y10384032D01*
X16358995Y10386251D01*
X16356149Y10386500D01*
X16114478Y10386500D01*
X16056287Y10405407D01*
X16044474Y10415497D01*
X15915256Y10544716D01*
X15759331Y10700641D01*
X15757279Y10703019D01*
X15755261Y10707147D01*
X15722971Y10737100D01*
X15720295Y10739677D01*
X15703503Y10756469D01*
X15699744Y10759048D01*
X15697663Y10760777D01*
X15693606Y10764340D01*
X15679948Y10777010D01*
X15679945Y10777012D01*
X15673245Y10783227D01*
X15662564Y10787488D01*
X15643247Y10797803D01*
X15633771Y10804304D01*
X15607869Y10810451D01*
X15594066Y10814817D01*
X15569339Y10824682D01*
X15560996Y10825500D01*
X15556046Y10825500D01*
X15534927Y10827971D01*
X15533817Y10828025D01*
X15524923Y10830136D01*
X15503525Y10827224D01*
X15497500Y10826404D01*
X15484150Y10825500D01*
X14607500Y10825500D01*
X14549309Y10844407D01*
X14513345Y10893907D01*
X14508500Y10924500D01*
X14508500Y11275137D01*
X14494051Y11347776D01*
X14438666Y11430666D01*
X14355776Y11486051D01*
X14283137Y11500500D01*
X14132863Y11500500D01*
X14060224Y11486051D01*
X13977334Y11430666D01*
X13921949Y11347776D01*
X13907500Y11275137D01*
X13907500Y10774863D01*
X13921949Y10702224D01*
X13927366Y10694118D01*
X13931097Y10685109D01*
X13929725Y10684541D01*
X13943383Y10636111D01*
X13922204Y10578708D01*
X13871329Y10544716D01*
X13844459Y10541000D01*
X13771541Y10541000D01*
X13713350Y10559907D01*
X13677386Y10609407D01*
X13677386Y10670593D01*
X13687687Y10691830D01*
X13688635Y10694118D01*
X13694051Y10702224D01*
X13708500Y10774863D01*
X13708500Y11432808D01*
X13727407Y11490999D01*
X13737496Y11502812D01*
X14141188Y11906504D01*
X14195705Y11934281D01*
X14211192Y11935500D01*
X14293357Y11935500D01*
X14330302Y11942014D01*
X14374639Y11949832D01*
X14374640Y11949832D01*
X14383168Y11951336D01*
X14390668Y11955666D01*
X14390670Y11955667D01*
X14479578Y12006999D01*
X14487083Y12011332D01*
X14533440Y12066578D01*
X16922500Y12066578D01*
X16922500Y11696961D01*
X16936667Y11611847D01*
X16992100Y11509112D01*
X16998108Y11503559D01*
X16998108Y11503558D01*
X17007688Y11494702D01*
X17077822Y11429870D01*
X17085305Y11426562D01*
X17085308Y11426560D01*
X17131644Y11406076D01*
X17184591Y11382669D01*
X17233422Y11376500D01*
X18328039Y11376500D01*
X18413153Y11390667D01*
X18515888Y11446100D01*
X18526975Y11458093D01*
X18568313Y11502812D01*
X18595130Y11531822D01*
X18598438Y11539305D01*
X18598440Y11539308D01*
X18630508Y11611847D01*
X18642331Y11638591D01*
X18648500Y11687422D01*
X18648500Y12057039D01*
X18634333Y12142153D01*
X18628429Y12153096D01*
X18592949Y12218851D01*
X18578900Y12244888D01*
X18493178Y12324130D01*
X18485695Y12327438D01*
X18485692Y12327440D01*
X18413293Y12359446D01*
X18386409Y12371331D01*
X18337578Y12377500D01*
X17242961Y12377500D01*
X17157847Y12363333D01*
X17055112Y12307900D01*
X17049559Y12301892D01*
X17049558Y12301892D01*
X17026243Y12276671D01*
X16975870Y12222178D01*
X16972562Y12214695D01*
X16972560Y12214692D01*
X16947010Y12156896D01*
X16928669Y12115409D01*
X16922500Y12066578D01*
X14533440Y12066578D01*
X14564212Y12103250D01*
X14605251Y12216005D01*
X14605500Y12218851D01*
X14605500Y12644357D01*
X14594428Y12707150D01*
X14602943Y12767740D01*
X14645446Y12811753D01*
X14685015Y12820633D01*
X14684801Y12822442D01*
X14717912Y12826361D01*
X14723436Y12826687D01*
X14723434Y12826711D01*
X14727501Y12827047D01*
X14731586Y12827047D01*
X14735612Y12827717D01*
X14735623Y12827718D01*
X14748677Y12829891D01*
X14753289Y12830548D01*
X14779235Y12833619D01*
X14792602Y12835201D01*
X14792603Y12835201D01*
X14800729Y12836163D01*
X14807711Y12839516D01*
X14809060Y12839942D01*
X14816700Y12841214D01*
X14841407Y12854545D01*
X14858744Y12863899D01*
X14862898Y12866015D01*
X14900343Y12883997D01*
X14900344Y12883998D01*
X14905961Y12886695D01*
X14908569Y12888887D01*
X14910080Y12890398D01*
X14911667Y12891853D01*
X14911774Y12891736D01*
X14914046Y12893739D01*
X14919435Y12896647D01*
X14928983Y12906975D01*
X14956086Y12936295D01*
X14958779Y12939097D01*
X14981436Y12961754D01*
X15035953Y12989531D01*
X15064361Y12989903D01*
X15106565Y12984347D01*
X15106566Y12984347D01*
X15113000Y12983500D01*
X15269715Y13004132D01*
X15415750Y13064622D01*
X15541153Y13160847D01*
X15571018Y13199767D01*
X15621441Y13234423D01*
X15649559Y13238500D01*
X15743917Y13238500D01*
X15802108Y13219593D01*
X15817894Y13204871D01*
X15821332Y13198917D01*
X15913250Y13121788D01*
X15971280Y13100667D01*
X16019131Y13083251D01*
X16026005Y13080749D01*
X16028851Y13080500D01*
X16454357Y13080500D01*
X16491302Y13087014D01*
X16535639Y13094832D01*
X16535640Y13094832D01*
X16544168Y13096336D01*
X16551668Y13100666D01*
X16551670Y13100667D01*
X16640578Y13151999D01*
X16648083Y13156332D01*
X16725212Y13248250D01*
X16766251Y13361005D01*
X16769177Y13359940D01*
X16793820Y13401699D01*
X16849950Y13426052D01*
X16859360Y13426500D01*
X16934542Y13426500D01*
X16992733Y13407593D01*
X17001744Y13400197D01*
X17077822Y13329870D01*
X17085305Y13326562D01*
X17085308Y13326560D01*
X17136695Y13303843D01*
X17184591Y13282669D01*
X17233422Y13276500D01*
X18328039Y13276500D01*
X18413153Y13290667D01*
X18515888Y13346100D01*
X18595130Y13431822D01*
X18598438Y13439305D01*
X18598440Y13439308D01*
X18630508Y13511847D01*
X18642331Y13538591D01*
X18648500Y13587422D01*
X18648500Y13957039D01*
X18634333Y14042153D01*
X18578900Y14144888D01*
X18493178Y14224130D01*
X18485695Y14227438D01*
X18485692Y14227440D01*
X18413293Y14259446D01*
X18386409Y14271331D01*
X18337578Y14277500D01*
X17242961Y14277500D01*
X17157847Y14263333D01*
X17055112Y14207900D01*
X17049559Y14201893D01*
X17049558Y14201892D01*
X17010184Y14159298D01*
X16956800Y14129402D01*
X16937487Y14127500D01*
X16520674Y14127500D01*
X16499838Y14129718D01*
X16496748Y14130383D01*
X16496744Y14130383D01*
X16488746Y14132105D01*
X16480626Y14131144D01*
X16480623Y14131144D01*
X16455635Y14128186D01*
X16450111Y14127860D01*
X16450113Y14127836D01*
X16446046Y14127500D01*
X16441961Y14127500D01*
X16437935Y14126830D01*
X16437924Y14126829D01*
X16424870Y14124656D01*
X16420258Y14123999D01*
X16404873Y14122178D01*
X16380945Y14119346D01*
X16380944Y14119346D01*
X16372818Y14118384D01*
X16365836Y14115031D01*
X16364487Y14114605D01*
X16356847Y14113333D01*
X16349646Y14109448D01*
X16349647Y14109448D01*
X16314803Y14090648D01*
X16310649Y14088532D01*
X16273204Y14070550D01*
X16267586Y14067852D01*
X16264978Y14065660D01*
X16263789Y14064471D01*
X16257589Y14060468D01*
X16256244Y14062551D01*
X16211473Y14042138D01*
X16200248Y14041500D01*
X16057643Y14041500D01*
X16053389Y14040750D01*
X16053390Y14040750D01*
X15976361Y14027168D01*
X15976360Y14027168D01*
X15967832Y14025664D01*
X15960332Y14021334D01*
X15960330Y14021333D01*
X15937684Y14008258D01*
X15863917Y13965668D01*
X15860737Y13961878D01*
X15805942Y13939741D01*
X15799038Y13939500D01*
X15649559Y13939500D01*
X15591368Y13958407D01*
X15571017Y13978233D01*
X15545107Y14012000D01*
X15541153Y14017153D01*
X15415750Y14113378D01*
X15269715Y14173868D01*
X15113000Y14194500D01*
X14956285Y14173868D01*
X14810250Y14113378D01*
X14684847Y14017153D01*
X14588622Y13891750D01*
X14586139Y13885755D01*
X14535240Y13762874D01*
X14528132Y13745715D01*
X14521482Y13695200D01*
X14510808Y13614125D01*
X14484467Y13558900D01*
X14430696Y13529705D01*
X14412655Y13528047D01*
X13663958Y13528047D01*
X13605767Y13546954D01*
X13569803Y13596454D01*
X13569803Y13657640D01*
X13601454Y13703821D01*
X13657881Y13749760D01*
X13673989Y13762874D01*
X13788789Y13889703D01*
X13845086Y13951899D01*
X13845089Y13951903D01*
X13847609Y13954687D01*
X13959462Y14123998D01*
X13988146Y14167417D01*
X13988146Y14167418D01*
X13990219Y14170555D01*
X14004666Y14201892D01*
X14032990Y14263333D01*
X14098534Y14405510D01*
X14105111Y14428373D01*
X14139370Y14479067D01*
X14200252Y14500000D01*
X29401000Y14500000D01*
X29459191Y14481093D01*
X29495155Y14431593D01*
X29500000Y14401000D01*
X29500000Y599000D01*
X29481093Y540809D01*
X29431593Y504845D01*
X29401000Y500000D01*
X23544545Y500000D01*
X23486354Y518907D01*
X23450390Y568407D01*
X23450390Y629593D01*
X23471848Y666202D01*
X23477641Y672468D01*
X23502816Y699702D01*
X23556200Y729598D01*
X23575513Y731500D01*
X24429326Y731500D01*
X24450162Y729282D01*
X24453252Y728617D01*
X24453256Y728617D01*
X24461254Y726895D01*
X24469374Y727856D01*
X24469377Y727856D01*
X24494365Y730814D01*
X24499889Y731140D01*
X24499887Y731164D01*
X24503954Y731500D01*
X24508039Y731500D01*
X24512065Y732170D01*
X24512076Y732171D01*
X24525130Y734344D01*
X24529742Y735001D01*
X24555495Y738049D01*
X24569055Y739654D01*
X24569056Y739654D01*
X24577182Y740616D01*
X24584164Y743969D01*
X24585513Y744395D01*
X24593153Y745667D01*
X24610714Y755142D01*
X24635197Y768352D01*
X24639351Y770468D01*
X24676796Y788450D01*
X24676797Y788451D01*
X24682414Y791148D01*
X24685022Y793340D01*
X24686533Y794851D01*
X24688120Y796306D01*
X24688227Y796189D01*
X24690499Y798192D01*
X24695888Y801100D01*
X24703786Y809643D01*
X24732537Y840746D01*
X24735230Y843548D01*
X25003186Y1111504D01*
X25057703Y1139281D01*
X25073190Y1140500D01*
X25215357Y1140500D01*
X25252302Y1147014D01*
X25296639Y1154832D01*
X25296640Y1154832D01*
X25305168Y1156336D01*
X25312668Y1160666D01*
X25312670Y1160667D01*
X25401578Y1211999D01*
X25409083Y1216332D01*
X25486212Y1308250D01*
X25527251Y1421005D01*
X25527500Y1423851D01*
X25527500Y1849357D01*
X25511664Y1939168D01*
X25505842Y1949253D01*
X25476923Y1999340D01*
X25451668Y2043083D01*
X25445034Y2048649D01*
X25445033Y2048651D01*
X25432865Y2058861D01*
X25400441Y2110749D01*
X25397500Y2134700D01*
X25397500Y2712326D01*
X25399718Y2733162D01*
X25400383Y2736252D01*
X25400383Y2736256D01*
X25402105Y2744254D01*
X25400440Y2758327D01*
X25398186Y2777365D01*
X25397860Y2782889D01*
X25397836Y2782887D01*
X25397500Y2786954D01*
X25397500Y2791039D01*
X25396830Y2795065D01*
X25396829Y2795076D01*
X25394656Y2808130D01*
X25393998Y2812749D01*
X25393272Y2818888D01*
X25388384Y2860182D01*
X25385031Y2867164D01*
X25384605Y2868513D01*
X25383333Y2876153D01*
X25361150Y2917266D01*
X25360648Y2918197D01*
X25358540Y2922334D01*
X25357606Y2924278D01*
X25349448Y2984917D01*
X25376837Y3037155D01*
X28534423Y6194742D01*
X28550723Y6207906D01*
X28560256Y6214061D01*
X28580900Y6240248D01*
X28584570Y6244379D01*
X28584552Y6244394D01*
X28587198Y6247517D01*
X28590081Y6250400D01*
X28600152Y6264492D01*
X28602944Y6268210D01*
X28627459Y6299306D01*
X28627463Y6299313D01*
X28632527Y6305737D01*
X28635094Y6313046D01*
X28635745Y6314299D01*
X28640249Y6320602D01*
X28653939Y6366380D01*
X28655378Y6370808D01*
X28669143Y6410004D01*
X28669143Y6410005D01*
X28671206Y6415879D01*
X28671500Y6419273D01*
X28671500Y6421412D01*
X28671592Y6423545D01*
X28671751Y6423538D01*
X28671942Y6426580D01*
X28673696Y6432444D01*
X28672645Y6459214D01*
X28671576Y6486414D01*
X28671500Y6490300D01*
X28671500Y8587324D01*
X28673718Y8608160D01*
X28674383Y8611251D01*
X28676106Y8619253D01*
X28672186Y8652371D01*
X28671861Y8657883D01*
X28671837Y8657881D01*
X28671500Y8661957D01*
X28671500Y8666039D01*
X28668657Y8683119D01*
X28668002Y8687721D01*
X28663346Y8727056D01*
X28663346Y8727057D01*
X28662384Y8735182D01*
X28659031Y8742164D01*
X28658605Y8743513D01*
X28657333Y8751153D01*
X28634648Y8793197D01*
X28632532Y8797351D01*
X28614550Y8834796D01*
X28614549Y8834797D01*
X28611852Y8840414D01*
X28609660Y8843022D01*
X28608149Y8844533D01*
X28606694Y8846120D01*
X28606811Y8846227D01*
X28604808Y8848499D01*
X28601900Y8853888D01*
X28595889Y8859444D01*
X28595888Y8859446D01*
X28562254Y8890537D01*
X28559452Y8893230D01*
X27864254Y9588428D01*
X27851091Y9604729D01*
X27844939Y9614256D01*
X27838513Y9619322D01*
X27838511Y9619324D01*
X27818756Y9634898D01*
X27814623Y9638570D01*
X27814608Y9638552D01*
X27811479Y9641203D01*
X27808600Y9644082D01*
X27805284Y9646451D01*
X27805280Y9646455D01*
X27794499Y9654159D01*
X27790790Y9656943D01*
X27753263Y9686527D01*
X27745952Y9689095D01*
X27744704Y9689743D01*
X27738398Y9694249D01*
X27692620Y9707939D01*
X27688192Y9709378D01*
X27648996Y9723143D01*
X27648995Y9723143D01*
X27643121Y9725206D01*
X27639727Y9725500D01*
X27637588Y9725500D01*
X27635455Y9725592D01*
X27635462Y9725751D01*
X27632420Y9725942D01*
X27626556Y9727696D01*
X27618382Y9727375D01*
X27618381Y9727375D01*
X27572586Y9725576D01*
X27568700Y9725500D01*
X26366458Y9725500D01*
X26308267Y9744407D01*
X26299256Y9751803D01*
X26273021Y9776055D01*
X26223178Y9822130D01*
X26215695Y9825438D01*
X26215692Y9825440D01*
X26143293Y9857446D01*
X26116409Y9869331D01*
X26067578Y9875500D01*
X25877500Y9875500D01*
X25819309Y9894407D01*
X25783345Y9943907D01*
X25778500Y9974500D01*
X25778500Y12675123D01*
X25779186Y12686759D01*
X25781599Y12707150D01*
X25783275Y12721308D01*
X25781946Y12728585D01*
X25781946Y12728588D01*
X25776266Y12759688D01*
X25772659Y12779435D01*
X25772152Y12782482D01*
X25769581Y12799587D01*
X25764967Y12830274D01*
X25764464Y12833619D01*
X25763364Y12840935D01*
X25760239Y12847443D01*
X25758942Y12854545D01*
X25731706Y12906977D01*
X25730317Y12909756D01*
X25707938Y12956358D01*
X25704735Y12963029D01*
X25700632Y12967468D01*
X25699108Y12969729D01*
X25696507Y12974736D01*
X25691475Y12980628D01*
X25653048Y13019055D01*
X25650354Y13021858D01*
X25617822Y13057051D01*
X25612798Y13062486D01*
X25606922Y13065899D01*
X25600037Y13072066D01*
X25361496Y13310608D01*
X25333719Y13365124D01*
X25332500Y13380611D01*
X25332500Y13558000D01*
X25316857Y13636641D01*
X25272310Y13703310D01*
X25205641Y13747857D01*
X25196078Y13749759D01*
X25196076Y13749760D01*
X25170800Y13754787D01*
X25127000Y13763500D01*
X24527000Y13763500D01*
X24483200Y13754787D01*
X24457924Y13749760D01*
X24457922Y13749759D01*
X24448359Y13747857D01*
X24381690Y13703310D01*
X24337143Y13636641D01*
X24321500Y13558000D01*
X24321500Y12858000D01*
X24328420Y12823210D01*
X24333231Y12799027D01*
X24337143Y12779359D01*
X24381690Y12712690D01*
X24448359Y12668143D01*
X24457922Y12666241D01*
X24457924Y12666240D01*
X24480498Y12661750D01*
X24527000Y12652500D01*
X24704390Y12652500D01*
X24762581Y12633593D01*
X24774394Y12623503D01*
X24848504Y12549392D01*
X24876281Y12494875D01*
X24877500Y12479389D01*
X24877500Y9974500D01*
X24858593Y9916309D01*
X24809093Y9880345D01*
X24778500Y9875500D01*
X24597961Y9875500D01*
X24512847Y9861333D01*
X24410112Y9805900D01*
X24404559Y9799893D01*
X24404558Y9799892D01*
X24365184Y9757298D01*
X24311800Y9727402D01*
X24292487Y9725500D01*
X24057190Y9725500D01*
X23998999Y9744407D01*
X23987186Y9754496D01*
X22886228Y10855454D01*
X22858451Y10909971D01*
X22859487Y10943906D01*
X22860251Y10946005D01*
X22860500Y10948851D01*
X22860500Y11374357D01*
X22847850Y11446100D01*
X22846168Y11455639D01*
X22846168Y11455640D01*
X22844664Y11464168D01*
X22840141Y11472003D01*
X22808676Y11526500D01*
X22784668Y11568083D01*
X22778034Y11573649D01*
X22778033Y11573651D01*
X22765865Y11583861D01*
X22733441Y11635749D01*
X22730500Y11659700D01*
X22730500Y11790326D01*
X22732718Y11811162D01*
X22733383Y11814252D01*
X22733383Y11814256D01*
X22735105Y11822254D01*
X22731186Y11855365D01*
X22730500Y11867001D01*
X22730500Y12015534D01*
X22730869Y12024076D01*
X22733698Y12056738D01*
X22733698Y12056739D01*
X22734404Y12064892D01*
X22732431Y12072836D01*
X22731789Y12080989D01*
X22735332Y12081268D01*
X22738570Y12126673D01*
X22754472Y12153096D01*
X22809647Y12218851D01*
X22819212Y12230250D01*
X22860251Y12343005D01*
X22860500Y12345851D01*
X22860500Y12771357D01*
X22844664Y12861168D01*
X22831244Y12884413D01*
X22789001Y12957578D01*
X22784668Y12965083D01*
X22692750Y13042212D01*
X22610726Y13072066D01*
X22586092Y13081032D01*
X22586091Y13081032D01*
X22579995Y13083251D01*
X22577149Y13083500D01*
X22211643Y13083500D01*
X22194629Y13080500D01*
X22130361Y13069168D01*
X22130360Y13069168D01*
X22121832Y13067664D01*
X22114332Y13063334D01*
X22114330Y13063333D01*
X22017917Y13007668D01*
X22016968Y13009311D01*
X21970356Y12990479D01*
X21910989Y13005282D01*
X21893448Y13019234D01*
X20939523Y13973159D01*
X20911871Y14026905D01*
X20910677Y14034079D01*
X20909333Y14042153D01*
X20853900Y14144888D01*
X20768178Y14224130D01*
X20760695Y14227438D01*
X20760692Y14227440D01*
X20688293Y14259446D01*
X20661409Y14271331D01*
X20612578Y14277500D01*
X19517961Y14277500D01*
X19432847Y14263333D01*
X19330112Y14207900D01*
X19250870Y14122178D01*
X19247562Y14114695D01*
X19247560Y14114692D01*
X19228046Y14070550D01*
X19203669Y14015409D01*
X19197500Y13966578D01*
X19197500Y13596961D01*
X19211667Y13511847D01*
X19267100Y13409112D01*
X19352822Y13329870D01*
X19360305Y13326562D01*
X19360308Y13326560D01*
X19411695Y13303843D01*
X19459591Y13282669D01*
X19508422Y13276500D01*
X20603039Y13276500D01*
X20603039Y13274462D01*
X20655129Y13262184D01*
X20673755Y13247563D01*
X21524814Y12396504D01*
X21552591Y12341987D01*
X21543020Y12281555D01*
X21499755Y12238290D01*
X21454810Y12227500D01*
X20911458Y12227500D01*
X20853267Y12246407D01*
X20844256Y12253803D01*
X20835959Y12261473D01*
X20768178Y12324130D01*
X20760695Y12327438D01*
X20760692Y12327440D01*
X20688293Y12359446D01*
X20661409Y12371331D01*
X20612578Y12377500D01*
X19517961Y12377500D01*
X19432847Y12363333D01*
X19330112Y12307900D01*
X19324559Y12301892D01*
X19324558Y12301892D01*
X19301243Y12276671D01*
X19250870Y12222178D01*
X19247562Y12214695D01*
X19247560Y12214692D01*
X19222010Y12156896D01*
X19203669Y12115409D01*
X19197500Y12066578D01*
X19197500Y11696961D01*
X19211667Y11611847D01*
X19267100Y11509112D01*
X19273108Y11503559D01*
X19273108Y11503558D01*
X19282688Y11494702D01*
X19352822Y11429870D01*
X19360305Y11426562D01*
X19360308Y11426560D01*
X19406644Y11406076D01*
X19459591Y11382669D01*
X19508422Y11376500D01*
X20603039Y11376500D01*
X20688153Y11390667D01*
X20790888Y11446100D01*
X20801975Y11458093D01*
X20835816Y11494702D01*
X20889200Y11524598D01*
X20908513Y11526500D01*
X21803980Y11526500D01*
X21862171Y11507593D01*
X21898135Y11458093D01*
X21900534Y11408152D01*
X21899749Y11405995D01*
X21899500Y11403149D01*
X21899500Y10977643D01*
X21915336Y10887832D01*
X21919666Y10880332D01*
X21919667Y10880330D01*
X21942331Y10841076D01*
X21975332Y10783917D01*
X21981970Y10778347D01*
X22051209Y10720248D01*
X22076817Y10687265D01*
X22083775Y10672776D01*
X22089148Y10661586D01*
X22091340Y10658978D01*
X22092851Y10657467D01*
X22094306Y10655880D01*
X22094189Y10655773D01*
X22096192Y10653501D01*
X22099100Y10648112D01*
X22105111Y10642556D01*
X22105112Y10642554D01*
X22138747Y10611462D01*
X22141549Y10608769D01*
X22866929Y9883390D01*
X23588742Y9161577D01*
X23601906Y9145277D01*
X23608061Y9135744D01*
X23614486Y9130679D01*
X23614487Y9130678D01*
X23634248Y9115100D01*
X23638379Y9111430D01*
X23638394Y9111448D01*
X23641517Y9108802D01*
X23644400Y9105919D01*
X23658492Y9095848D01*
X23662210Y9093056D01*
X23693306Y9068541D01*
X23693313Y9068537D01*
X23699737Y9063473D01*
X23707046Y9060906D01*
X23708299Y9060255D01*
X23714602Y9055751D01*
X23722440Y9053407D01*
X23760370Y9042064D01*
X23764809Y9040621D01*
X23804001Y9026857D01*
X23804010Y9026855D01*
X23809879Y9024794D01*
X23813273Y9024500D01*
X23815412Y9024500D01*
X23817545Y9024408D01*
X23817538Y9024249D01*
X23820579Y9024058D01*
X23826443Y9022304D01*
X23834617Y9022625D01*
X23834618Y9022625D01*
X23880414Y9024424D01*
X23884300Y9024500D01*
X24289542Y9024500D01*
X24347733Y9005593D01*
X24356744Y8998197D01*
X24432822Y8927870D01*
X24440305Y8924562D01*
X24440308Y8924560D01*
X24460676Y8915556D01*
X24539591Y8880669D01*
X24588422Y8874500D01*
X26058039Y8874500D01*
X26143153Y8888667D01*
X26245888Y8944100D01*
X26257952Y8957150D01*
X26290816Y8992702D01*
X26344200Y9022598D01*
X26363513Y9024500D01*
X27395810Y9024500D01*
X27454001Y9005593D01*
X27465814Y8995504D01*
X27941504Y8519814D01*
X27969281Y8465297D01*
X27970500Y8449810D01*
X27970500Y6663190D01*
X27951593Y6604999D01*
X27941504Y6593186D01*
X24709814Y3361496D01*
X24655297Y3333719D01*
X24639810Y3332500D01*
X23578458Y3332500D01*
X23520267Y3351407D01*
X23511256Y3358803D01*
X23479248Y3388391D01*
X23435178Y3429130D01*
X23427695Y3432438D01*
X23427692Y3432440D01*
X23369896Y3457990D01*
X23328409Y3476331D01*
X23279578Y3482500D01*
X22184961Y3482500D01*
X22099847Y3468333D01*
X21997112Y3412900D01*
X21991559Y3406892D01*
X21991558Y3406892D01*
X21982380Y3396963D01*
X21917870Y3327178D01*
X21914562Y3319695D01*
X21914560Y3319692D01*
X21889277Y3262500D01*
X21870669Y3220409D01*
X21864500Y3171578D01*
X21864500Y2801961D01*
X21878667Y2716847D01*
X21934100Y2614112D01*
X21940108Y2608559D01*
X21940108Y2608558D01*
X21957400Y2592573D01*
X22019822Y2534870D01*
X22027305Y2531562D01*
X22027308Y2531560D01*
X22061689Y2516361D01*
X22126591Y2487669D01*
X22175422Y2481500D01*
X23270039Y2481500D01*
X23355153Y2495667D01*
X23457888Y2551100D01*
X23464439Y2558186D01*
X23502816Y2599702D01*
X23556200Y2629598D01*
X23575513Y2631500D01*
X24597500Y2631500D01*
X24655691Y2612593D01*
X24691655Y2563093D01*
X24696500Y2532500D01*
X24696500Y2135505D01*
X24677593Y2077314D01*
X24673338Y2071869D01*
X24607788Y1993750D01*
X24566749Y1880995D01*
X24566500Y1878149D01*
X24566500Y1707188D01*
X24547593Y1648997D01*
X24537503Y1637184D01*
X24361814Y1461496D01*
X24307298Y1433719D01*
X24291811Y1432500D01*
X23578458Y1432500D01*
X23520267Y1451407D01*
X23511256Y1458803D01*
X23506920Y1462812D01*
X23435178Y1529130D01*
X23427695Y1532438D01*
X23427692Y1532440D01*
X23353517Y1565231D01*
X23328409Y1576331D01*
X23279578Y1582500D01*
X22184961Y1582500D01*
X22099847Y1568333D01*
X21997112Y1512900D01*
X21917870Y1427178D01*
X21914562Y1419695D01*
X21914560Y1419692D01*
X21905012Y1398093D01*
X21870669Y1320409D01*
X21864500Y1271578D01*
X21864500Y901961D01*
X21878667Y816847D01*
X21934100Y714112D01*
X21965313Y685259D01*
X21979983Y671697D01*
X22009879Y618313D01*
X22002687Y557551D01*
X21961153Y512622D01*
X21912781Y500000D01*
X21269545Y500000D01*
X21211354Y518907D01*
X21175390Y568407D01*
X21175390Y629593D01*
X21196848Y666202D01*
X21202641Y672468D01*
X21262130Y736822D01*
X21265438Y744305D01*
X21265440Y744308D01*
X21297737Y817365D01*
X21309331Y843591D01*
X21315500Y892422D01*
X21315500Y1262039D01*
X21301333Y1347153D01*
X21245900Y1449888D01*
X21160178Y1529130D01*
X21152695Y1532438D01*
X21152692Y1532440D01*
X21078517Y1565231D01*
X21053409Y1576331D01*
X21004578Y1582500D01*
X19909961Y1582500D01*
X19824847Y1568333D01*
X19722112Y1512900D01*
X19642870Y1427178D01*
X19639562Y1419695D01*
X19639560Y1419692D01*
X19630012Y1398093D01*
X19595669Y1320409D01*
X19589500Y1271578D01*
X19589500Y901961D01*
X19603667Y816847D01*
X19659100Y714112D01*
X19690313Y685259D01*
X19704983Y671697D01*
X19734879Y618313D01*
X19727687Y557551D01*
X19686153Y512622D01*
X19637781Y500000D01*
X14197110Y500000D01*
X14138919Y518907D01*
X14103364Y567178D01*
X14101854Y571628D01*
X14068756Y669131D01*
X14002073Y797500D01*
X13951228Y895382D01*
X13951225Y895387D01*
X13949492Y898723D01*
X13947127Y901961D01*
X13884928Y987100D01*
X13796872Y1107634D01*
X13614409Y1291055D01*
X13611390Y1293285D01*
X13611384Y1293290D01*
X13409330Y1442528D01*
X13406300Y1444766D01*
X13239661Y1532440D01*
X13180663Y1563481D01*
X13180658Y1563483D01*
X13177336Y1565231D01*
X13164461Y1569677D01*
X12936343Y1648446D01*
X12936344Y1648446D01*
X12932784Y1649675D01*
X12929087Y1650350D01*
X12929080Y1650352D01*
X12711186Y1690146D01*
X12678273Y1696157D01*
X12595405Y1700500D01*
X12434271Y1700500D01*
X12357232Y1694640D01*
X12245779Y1686162D01*
X12245773Y1686161D01*
X12242025Y1685876D01*
X11989986Y1627457D01*
X11986491Y1626063D01*
X11986489Y1626062D01*
X11967535Y1618500D01*
X11749684Y1531586D01*
X11526648Y1400470D01*
X11523730Y1398094D01*
X11523728Y1398093D01*
X11428308Y1320409D01*
X11326011Y1237126D01*
X11323491Y1234342D01*
X11323489Y1234340D01*
X11154914Y1048101D01*
X11154911Y1048097D01*
X11152391Y1045313D01*
X11093030Y955459D01*
X11013555Y835157D01*
X11009781Y829445D01*
X11008207Y826031D01*
X11008206Y826029D01*
X10996714Y801100D01*
X10901466Y594490D01*
X10900425Y590871D01*
X10894889Y571628D01*
X10860630Y520933D01*
X10799748Y500000D01*
X4197110Y500000D01*
X4138919Y518907D01*
X4103364Y567178D01*
X4101854Y571628D01*
X4068756Y669131D01*
X4002073Y797500D01*
X3951228Y895382D01*
X3951225Y895387D01*
X3949492Y898723D01*
X3947127Y901961D01*
X3884928Y987100D01*
X3796872Y1107634D01*
X3614409Y1291055D01*
X3611390Y1293285D01*
X3611384Y1293290D01*
X3409330Y1442528D01*
X3406300Y1444766D01*
X3239661Y1532440D01*
X3180663Y1563481D01*
X3180658Y1563483D01*
X3177336Y1565231D01*
X3164461Y1569677D01*
X2936343Y1648446D01*
X2936344Y1648446D01*
X2932784Y1649675D01*
X2929087Y1650350D01*
X2929080Y1650352D01*
X2711186Y1690146D01*
X2678273Y1696157D01*
X2595405Y1700500D01*
X2434271Y1700500D01*
X2357232Y1694640D01*
X2245779Y1686162D01*
X2245773Y1686161D01*
X2242025Y1685876D01*
X1989986Y1627457D01*
X1986491Y1626063D01*
X1986489Y1626062D01*
X1967535Y1618500D01*
X1749684Y1531586D01*
X1526648Y1400470D01*
X1523730Y1398094D01*
X1523728Y1398093D01*
X1428308Y1320409D01*
X1326011Y1237126D01*
X1323491Y1234342D01*
X1323489Y1234340D01*
X1154914Y1048101D01*
X1154911Y1048097D01*
X1152391Y1045313D01*
X1093030Y955459D01*
X1013555Y835157D01*
X1009781Y829445D01*
X1008207Y826031D01*
X1008206Y826029D01*
X996714Y801100D01*
X901466Y594490D01*
X900425Y590871D01*
X894889Y571628D01*
X860630Y520933D01*
X799748Y500000D01*
X599000Y500000D01*
X540809Y518907D01*
X504845Y568407D01*
X500000Y599000D01*
X500000Y7400000D01*
X744500Y7400000D01*
X744500Y6900000D01*
X748730Y6878737D01*
X756506Y6839645D01*
X760143Y6821359D01*
X804690Y6754690D01*
X871359Y6710143D01*
X880922Y6708241D01*
X880924Y6708240D01*
X900768Y6704293D01*
X950000Y6694500D01*
X1488395Y6694500D01*
X1546586Y6675593D01*
X1582550Y6626093D01*
X1582550Y6564907D01*
X1546586Y6515407D01*
X1533340Y6507291D01*
X1438985Y6459214D01*
X1438981Y6459211D01*
X1432969Y6456148D01*
X1428006Y6451585D01*
X1428004Y6451583D01*
X1375999Y6403762D01*
X1321980Y6354089D01*
X1242525Y6225942D01*
X1235183Y6200670D01*
X1208160Y6107655D01*
X1200459Y6081149D01*
X1200388Y6074402D01*
X1200388Y6074400D01*
X1200215Y6057850D01*
X1198880Y5930377D01*
X1200625Y5923866D01*
X1200625Y5923863D01*
X1207651Y5897643D01*
X1237905Y5784735D01*
X1241338Y5778929D01*
X1241339Y5778928D01*
X1251260Y5762153D01*
X1314658Y5654952D01*
X1423485Y5550591D01*
X1429438Y5547399D01*
X1547157Y5484279D01*
X1556368Y5479340D01*
X1562948Y5477869D01*
X1562951Y5477868D01*
X1696931Y5447920D01*
X1696932Y5447920D01*
X1703517Y5446448D01*
X1703471Y5446241D01*
X1756518Y5423942D01*
X1788213Y5371607D01*
X1783093Y5310636D01*
X1752098Y5270460D01*
X1730847Y5254153D01*
X1634622Y5128750D01*
X1574132Y4982715D01*
X1553500Y4826000D01*
X1554347Y4819566D01*
X1555641Y4809737D01*
X1574132Y4669285D01*
X1634622Y4523250D01*
X1730847Y4397847D01*
X1856250Y4301622D01*
X2002285Y4241132D01*
X2131263Y4224152D01*
X2144690Y4222384D01*
X2159000Y4220500D01*
X2173311Y4222384D01*
X2186737Y4224152D01*
X2315715Y4241132D01*
X2461750Y4301622D01*
X2587153Y4397847D01*
X2683378Y4523250D01*
X2743868Y4669285D01*
X2747347Y4695711D01*
X2773688Y4750936D01*
X2827459Y4780131D01*
X2888120Y4772145D01*
X2932503Y4730028D01*
X2944500Y4682789D01*
X2944500Y4450000D01*
X2951432Y4415153D01*
X2957860Y4382838D01*
X2960143Y4371359D01*
X3004690Y4304690D01*
X3012800Y4299271D01*
X3019693Y4292378D01*
X3016946Y4289631D01*
X3043384Y4256089D01*
X3049500Y4221832D01*
X3049500Y3708716D01*
X3030593Y3650525D01*
X2981093Y3614561D01*
X2919907Y3614561D01*
X2912614Y3617252D01*
X2898646Y3623038D01*
X2851395Y3642610D01*
X2813212Y3658426D01*
X2807215Y3660910D01*
X2650500Y3681542D01*
X2493785Y3660910D01*
X2487788Y3658426D01*
X2462502Y3647952D01*
X2347750Y3600420D01*
X2222347Y3504195D01*
X2126122Y3378792D01*
X2095367Y3304542D01*
X2090206Y3292083D01*
X2050469Y3245558D01*
X1990975Y3231274D01*
X1964883Y3236939D01*
X1901228Y3260107D01*
X1901224Y3260108D01*
X1895127Y3262327D01*
X1893150Y3262500D01*
X1437644Y3262500D01*
X1349542Y3246965D01*
X1342043Y3242635D01*
X1342042Y3242635D01*
X1296342Y3216250D01*
X1247131Y3187838D01*
X1171118Y3097250D01*
X1156561Y3057254D01*
X1136828Y3003037D01*
X1130673Y2986127D01*
X1130500Y2984150D01*
X1130500Y2628644D01*
X1146035Y2540542D01*
X1150365Y2533043D01*
X1150365Y2533042D01*
X1196900Y2452441D01*
X1205162Y2438131D01*
X1295750Y2362118D01*
X1326448Y2350945D01*
X1400775Y2323892D01*
X1400778Y2323891D01*
X1406873Y2321673D01*
X1408850Y2321500D01*
X1864356Y2321500D01*
X1952458Y2337035D01*
X1962475Y2342818D01*
X2047371Y2391833D01*
X2054869Y2396162D01*
X2063238Y2406135D01*
X2115125Y2438559D01*
X2139076Y2441500D01*
X2317784Y2441500D01*
X2338620Y2439282D01*
X2341710Y2438617D01*
X2341714Y2438617D01*
X2349712Y2436895D01*
X2357832Y2437856D01*
X2357835Y2437856D01*
X2382823Y2440814D01*
X2388347Y2441140D01*
X2388345Y2441164D01*
X2392412Y2441500D01*
X2396497Y2441500D01*
X2400523Y2442170D01*
X2400534Y2442171D01*
X2413588Y2444344D01*
X2418200Y2445001D01*
X2443953Y2448049D01*
X2457513Y2449654D01*
X2457514Y2449654D01*
X2465640Y2450616D01*
X2472622Y2453969D01*
X2473971Y2454395D01*
X2481611Y2455667D01*
X2506563Y2469130D01*
X2508715Y2470291D01*
X2568648Y2481318D01*
X2582769Y2479459D01*
X2650500Y2470542D01*
X2807215Y2491174D01*
X2827446Y2499554D01*
X2909300Y2533459D01*
X2970297Y2538260D01*
X3022466Y2506290D01*
X3045500Y2453633D01*
X3046522Y2445002D01*
X3047278Y2438617D01*
X3048814Y2425637D01*
X3049140Y2420111D01*
X3049164Y2420113D01*
X3049500Y2416046D01*
X3049500Y2411961D01*
X3050170Y2407935D01*
X3050171Y2407924D01*
X3052344Y2394870D01*
X3053002Y2390251D01*
X3056938Y2356999D01*
X3058616Y2342818D01*
X3061969Y2335836D01*
X3062395Y2334487D01*
X3063667Y2326847D01*
X3067552Y2319647D01*
X3086352Y2284803D01*
X3088468Y2280649D01*
X3106164Y2243800D01*
X3109148Y2237586D01*
X3111340Y2234978D01*
X3112851Y2233467D01*
X3114306Y2231880D01*
X3114189Y2231773D01*
X3116192Y2229501D01*
X3119100Y2224112D01*
X3125111Y2218556D01*
X3125112Y2218554D01*
X3158746Y2187463D01*
X3161548Y2184770D01*
X4291746Y1054572D01*
X4304909Y1038271D01*
X4311061Y1028744D01*
X4317487Y1023678D01*
X4317489Y1023676D01*
X4337244Y1008102D01*
X4341377Y1004430D01*
X4341392Y1004448D01*
X4344521Y1001797D01*
X4347400Y998918D01*
X4350716Y996549D01*
X4350720Y996545D01*
X4361501Y988841D01*
X4365210Y986057D01*
X4402737Y956473D01*
X4410043Y953907D01*
X4411300Y953254D01*
X4417602Y948751D01*
X4463427Y935047D01*
X4467791Y933628D01*
X4512879Y917794D01*
X4516273Y917500D01*
X4518413Y917500D01*
X4520545Y917408D01*
X4520538Y917249D01*
X4523577Y917058D01*
X4529444Y915303D01*
X4537618Y915624D01*
X4537619Y915624D01*
X4583439Y917424D01*
X4587325Y917500D01*
X4848114Y917500D01*
X4906305Y898593D01*
X4911750Y894338D01*
X4917708Y889339D01*
X4978750Y838118D01*
X5002579Y829445D01*
X5083775Y799892D01*
X5083778Y799891D01*
X5089873Y797673D01*
X5091850Y797500D01*
X5547356Y797500D01*
X5635458Y813035D01*
X5673775Y835157D01*
X5730371Y867833D01*
X5737869Y872162D01*
X5746238Y882135D01*
X5798125Y914559D01*
X5822076Y917500D01*
X7061612Y917500D01*
X7082448Y915282D01*
X7085538Y914617D01*
X7085542Y914617D01*
X7093540Y912895D01*
X7101660Y913856D01*
X7101663Y913856D01*
X7126651Y916814D01*
X7132175Y917140D01*
X7132173Y917164D01*
X7136240Y917500D01*
X7140325Y917500D01*
X7144351Y918170D01*
X7144362Y918171D01*
X7157416Y920344D01*
X7162028Y921001D01*
X7187781Y924049D01*
X7201341Y925654D01*
X7201342Y925654D01*
X7209468Y926616D01*
X7216450Y929969D01*
X7217799Y930395D01*
X7225439Y931667D01*
X7257102Y948751D01*
X7267483Y954352D01*
X7271637Y956468D01*
X7309082Y974450D01*
X7309083Y974451D01*
X7314700Y977148D01*
X7317308Y979340D01*
X7318819Y980851D01*
X7320406Y982306D01*
X7320513Y982189D01*
X7322785Y984192D01*
X7328174Y987100D01*
X7347589Y1008102D01*
X7364823Y1026746D01*
X7367516Y1029548D01*
X8990496Y2652528D01*
X9045013Y2680305D01*
X9105445Y2670734D01*
X9148710Y2627469D01*
X9159500Y2582524D01*
X9159500Y2381000D01*
X9166032Y2348162D01*
X9171697Y2319685D01*
X9175143Y2302359D01*
X9219690Y2235690D01*
X9286359Y2191143D01*
X9295922Y2189241D01*
X9295924Y2189240D01*
X9321200Y2184213D01*
X9365000Y2175500D01*
X10465000Y2175500D01*
X10508800Y2184213D01*
X10534076Y2189240D01*
X10534078Y2189241D01*
X10543641Y2191143D01*
X10610310Y2235690D01*
X10654857Y2302359D01*
X10658304Y2319685D01*
X10663968Y2348162D01*
X10670500Y2381000D01*
X10670500Y2781000D01*
X10654857Y2859641D01*
X10649441Y2867747D01*
X10649288Y2868116D01*
X10644489Y2929112D01*
X10649288Y2943884D01*
X10649441Y2944253D01*
X10654857Y2952359D01*
X10670500Y3031000D01*
X10670500Y3431000D01*
X10654857Y3509641D01*
X10649441Y3517747D01*
X10649288Y3518116D01*
X10644489Y3579112D01*
X10649288Y3593884D01*
X10649441Y3594253D01*
X10654857Y3602359D01*
X10670500Y3681000D01*
X10670500Y4081000D01*
X10654857Y4159641D01*
X10649441Y4167747D01*
X10649288Y4168116D01*
X10644489Y4229112D01*
X10649288Y4243884D01*
X10649441Y4244253D01*
X10654857Y4252359D01*
X10670500Y4331000D01*
X10670500Y4545810D01*
X10689407Y4604001D01*
X10699496Y4615814D01*
X10782428Y4698746D01*
X10798729Y4711909D01*
X10808256Y4718061D01*
X10813322Y4724487D01*
X10813324Y4724489D01*
X10828898Y4744244D01*
X10832570Y4748377D01*
X10832552Y4748392D01*
X10835203Y4751521D01*
X10838082Y4754400D01*
X10840451Y4757716D01*
X10840455Y4757720D01*
X10848159Y4768501D01*
X10850943Y4772210D01*
X10880527Y4809737D01*
X10883095Y4817048D01*
X10883743Y4818296D01*
X10888249Y4824602D01*
X10901939Y4870380D01*
X10903378Y4874808D01*
X10917143Y4914004D01*
X10917143Y4914005D01*
X10919206Y4919879D01*
X10919500Y4923273D01*
X10919500Y4925412D01*
X10919592Y4927545D01*
X10919751Y4927538D01*
X10919942Y4930580D01*
X10921696Y4936444D01*
X10919576Y4990414D01*
X10919500Y4994300D01*
X10919500Y5611495D01*
X10938407Y5669686D01*
X10942662Y5675131D01*
X10992237Y5734212D01*
X11008212Y5753250D01*
X11042009Y5846108D01*
X11047032Y5859908D01*
X11047032Y5859909D01*
X11049251Y5866005D01*
X11049500Y5868851D01*
X11049500Y6294357D01*
X11040061Y6347889D01*
X11035168Y6375639D01*
X11035168Y6375640D01*
X11033664Y6384168D01*
X11028823Y6392554D01*
X10978001Y6480578D01*
X10973668Y6488083D01*
X10881750Y6565212D01*
X10804891Y6593186D01*
X10775092Y6604032D01*
X10775091Y6604032D01*
X10768995Y6606251D01*
X10766149Y6606500D01*
X10400643Y6606500D01*
X10367914Y6600729D01*
X10319361Y6592168D01*
X10319360Y6592168D01*
X10310832Y6590664D01*
X10303332Y6586334D01*
X10303330Y6586333D01*
X10247356Y6554016D01*
X10206917Y6530668D01*
X10129788Y6438750D01*
X10108320Y6379766D01*
X10094946Y6343020D01*
X10088749Y6325995D01*
X10088500Y6323149D01*
X10088500Y5897643D01*
X10089250Y5893390D01*
X10102476Y5818383D01*
X10104336Y5807832D01*
X10108666Y5800332D01*
X10108667Y5800330D01*
X10121024Y5778928D01*
X10164332Y5703917D01*
X10170966Y5698351D01*
X10170967Y5698349D01*
X10183135Y5688139D01*
X10215559Y5636251D01*
X10218500Y5612300D01*
X10218500Y5167190D01*
X10199593Y5108999D01*
X10189504Y5097186D01*
X10057814Y4965496D01*
X10003297Y4937719D01*
X9987810Y4936500D01*
X9365000Y4936500D01*
X9286359Y4920857D01*
X9278252Y4915440D01*
X9252426Y4898184D01*
X9197425Y4881500D01*
X9119436Y4881500D01*
X9061245Y4900407D01*
X9034831Y4929742D01*
X9033378Y4933250D01*
X8937153Y5058653D01*
X8811750Y5154878D01*
X8665715Y5215368D01*
X8509000Y5236000D01*
X8352285Y5215368D01*
X8206250Y5154878D01*
X8080847Y5058653D01*
X8035959Y5000153D01*
X8033042Y4996352D01*
X7982618Y4961696D01*
X7921453Y4963297D01*
X7872912Y5000545D01*
X7855500Y5056619D01*
X7855500Y5930377D01*
X8498880Y5930377D01*
X8500625Y5923866D01*
X8500625Y5923863D01*
X8507651Y5897643D01*
X8537905Y5784735D01*
X8541338Y5778929D01*
X8541339Y5778928D01*
X8551260Y5762153D01*
X8614658Y5654952D01*
X8723485Y5550591D01*
X8729438Y5547399D01*
X8847157Y5484279D01*
X8856368Y5479340D01*
X8862948Y5477869D01*
X8862951Y5477868D01*
X8996931Y5447920D01*
X8996932Y5447920D01*
X9003517Y5446448D01*
X9010256Y5446801D01*
X9010258Y5446801D01*
X9059738Y5449394D01*
X9154090Y5454339D01*
X9296995Y5502432D01*
X9421702Y5587183D01*
X9426056Y5592335D01*
X9426058Y5592337D01*
X9475022Y5650279D01*
X9519024Y5702348D01*
X9566880Y5806874D01*
X9578982Y5833307D01*
X9578983Y5833309D01*
X9581791Y5839443D01*
X9584165Y5854427D01*
X9604811Y5984786D01*
X9605378Y5988366D01*
X9605500Y6000000D01*
X9585037Y6149385D01*
X9582360Y6155571D01*
X9582359Y6155575D01*
X9527836Y6281570D01*
X9527834Y6281574D01*
X9525155Y6287764D01*
X9430266Y6404942D01*
X9398003Y6427870D01*
X9312859Y6488379D01*
X9312858Y6488380D01*
X9307361Y6492286D01*
X9301017Y6494570D01*
X9301013Y6494572D01*
X9171843Y6541076D01*
X9171840Y6541077D01*
X9165495Y6543361D01*
X9140504Y6545196D01*
X9021854Y6553910D01*
X9021850Y6553910D01*
X9015120Y6554404D01*
X9008505Y6553070D01*
X9008503Y6553070D01*
X8910660Y6533341D01*
X8867315Y6524601D01*
X8861309Y6521541D01*
X8861307Y6521540D01*
X8812095Y6496465D01*
X8732969Y6456148D01*
X8728006Y6451585D01*
X8728004Y6451583D01*
X8675999Y6403762D01*
X8621980Y6354089D01*
X8542525Y6225942D01*
X8535183Y6200670D01*
X8508160Y6107655D01*
X8500459Y6081149D01*
X8500388Y6074402D01*
X8500388Y6074400D01*
X8500215Y6057850D01*
X8498880Y5930377D01*
X7855500Y5930377D01*
X7855500Y6450000D01*
X7844104Y6507291D01*
X7841760Y6519076D01*
X7841759Y6519078D01*
X7839857Y6528641D01*
X7795310Y6595310D01*
X7780810Y6604999D01*
X7736751Y6634438D01*
X7728641Y6639857D01*
X7719078Y6641759D01*
X7719076Y6641760D01*
X7687699Y6648001D01*
X7650000Y6655500D01*
X7150000Y6655500D01*
X7112301Y6648001D01*
X7080924Y6641760D01*
X7080922Y6641759D01*
X7071359Y6639857D01*
X7063249Y6634438D01*
X7019191Y6604999D01*
X7004690Y6595310D01*
X6999271Y6587200D01*
X6982315Y6561824D01*
X6934265Y6523945D01*
X6873127Y6521543D01*
X6822253Y6555536D01*
X6817685Y6561824D01*
X6800729Y6587200D01*
X6795310Y6595310D01*
X6780810Y6604999D01*
X6736751Y6634438D01*
X6728641Y6639857D01*
X6719078Y6641759D01*
X6719076Y6641760D01*
X6687699Y6648001D01*
X6650000Y6655500D01*
X6150000Y6655500D01*
X6112301Y6648001D01*
X6080924Y6641760D01*
X6080922Y6641759D01*
X6071359Y6639857D01*
X6063249Y6634438D01*
X6019191Y6604999D01*
X6004690Y6595310D01*
X5960143Y6528641D01*
X5958241Y6519078D01*
X5958240Y6519076D01*
X5955896Y6507291D01*
X5944500Y6450000D01*
X5944500Y4450000D01*
X5951432Y4415153D01*
X5957860Y4382838D01*
X5960143Y4371359D01*
X6004690Y4304690D01*
X6012800Y4299271D01*
X6019693Y4292378D01*
X6016946Y4289631D01*
X6043384Y4256089D01*
X6049500Y4221832D01*
X6049500Y3935674D01*
X6047282Y3914838D01*
X6046617Y3911748D01*
X6046617Y3911744D01*
X6044895Y3903746D01*
X6045856Y3895626D01*
X6045856Y3895623D01*
X6048814Y3870635D01*
X6049140Y3865111D01*
X6049164Y3865113D01*
X6049500Y3861046D01*
X6049500Y3856961D01*
X6050170Y3852935D01*
X6050171Y3852924D01*
X6052344Y3839870D01*
X6053001Y3835258D01*
X6058616Y3787818D01*
X6061969Y3780836D01*
X6062395Y3779487D01*
X6063667Y3771847D01*
X6067552Y3764647D01*
X6086352Y3729803D01*
X6088468Y3725649D01*
X6103292Y3694780D01*
X6109148Y3682586D01*
X6111340Y3679978D01*
X6112851Y3678467D01*
X6114306Y3676880D01*
X6114189Y3676773D01*
X6116192Y3674501D01*
X6119100Y3669112D01*
X6125111Y3663556D01*
X6125112Y3663554D01*
X6158748Y3632461D01*
X6161550Y3629768D01*
X6181504Y3609814D01*
X6209281Y3555297D01*
X6210500Y3539810D01*
X6210500Y3392644D01*
X6226035Y3304542D01*
X6230365Y3297043D01*
X6230365Y3297042D01*
X6276658Y3216860D01*
X6285162Y3202131D01*
X6375750Y3126118D01*
X6375895Y3126065D01*
X6413636Y3084150D01*
X6420033Y3023300D01*
X6389441Y2970312D01*
X6372696Y2958146D01*
X6334633Y2936170D01*
X6334630Y2936168D01*
X6327131Y2931838D01*
X6318763Y2921865D01*
X6266875Y2889441D01*
X6242924Y2886500D01*
X6184675Y2886500D01*
X6163839Y2888718D01*
X6162166Y2889078D01*
X6152746Y2891106D01*
X6119629Y2887186D01*
X6114116Y2886861D01*
X6114118Y2886837D01*
X6110043Y2886500D01*
X6105961Y2886500D01*
X6088864Y2883654D01*
X6084285Y2883002D01*
X6061024Y2880249D01*
X6044944Y2878346D01*
X6044943Y2878346D01*
X6036818Y2877384D01*
X6029836Y2874031D01*
X6028487Y2873605D01*
X6020847Y2872333D01*
X6012461Y2867808D01*
X5978803Y2849648D01*
X5974649Y2847532D01*
X5941465Y2831596D01*
X5931586Y2826852D01*
X5928978Y2824660D01*
X5927467Y2823149D01*
X5925880Y2821694D01*
X5925773Y2821811D01*
X5923501Y2819808D01*
X5918112Y2816900D01*
X5912556Y2810889D01*
X5912554Y2810888D01*
X5881463Y2777254D01*
X5878770Y2774452D01*
X5825688Y2721370D01*
X5771171Y2693593D01*
X5710739Y2703164D01*
X5703405Y2708017D01*
X5703386Y2707984D01*
X5695885Y2712314D01*
X5689250Y2717882D01*
X5619414Y2743300D01*
X5584225Y2756108D01*
X5584222Y2756109D01*
X5578127Y2758327D01*
X5576150Y2758500D01*
X5278190Y2758500D01*
X5219999Y2777407D01*
X5208186Y2787496D01*
X4956067Y3039615D01*
X4928290Y3094132D01*
X4933042Y3143479D01*
X4951031Y3192902D01*
X4951033Y3192911D01*
X4953251Y3199005D01*
X4953500Y3201851D01*
X4953500Y3627357D01*
X4937664Y3717168D01*
X4932768Y3725649D01*
X4882001Y3813578D01*
X4877668Y3821083D01*
X4785864Y3898117D01*
X4753441Y3950004D01*
X4750500Y3973954D01*
X4750500Y4221832D01*
X4769407Y4280023D01*
X4781263Y4291422D01*
X4780307Y4292378D01*
X4787200Y4299271D01*
X4795310Y4304690D01*
X4839857Y4371359D01*
X4842141Y4382838D01*
X4848568Y4415153D01*
X4855500Y4450000D01*
X4855500Y6450000D01*
X4844104Y6507291D01*
X4841760Y6519076D01*
X4841759Y6519078D01*
X4839857Y6528641D01*
X4795310Y6595310D01*
X4780810Y6604999D01*
X4736751Y6634438D01*
X4728641Y6639857D01*
X4719078Y6641759D01*
X4719076Y6641760D01*
X4687699Y6648001D01*
X4650000Y6655500D01*
X4150000Y6655500D01*
X4112301Y6648001D01*
X4080924Y6641760D01*
X4080922Y6641759D01*
X4071359Y6639857D01*
X4063249Y6634438D01*
X4019191Y6604999D01*
X4004690Y6595310D01*
X3999271Y6587200D01*
X3982315Y6561824D01*
X3934265Y6523945D01*
X3873127Y6521543D01*
X3822253Y6555536D01*
X3817685Y6561824D01*
X3800729Y6587200D01*
X3795310Y6595310D01*
X3780810Y6604999D01*
X3736751Y6634438D01*
X3728641Y6639857D01*
X3719078Y6641759D01*
X3719076Y6641760D01*
X3687699Y6648001D01*
X3650000Y6655500D01*
X3214249Y6655500D01*
X3156058Y6674407D01*
X3120094Y6723907D01*
X3120094Y6785093D01*
X3131935Y6809503D01*
X3134438Y6813249D01*
X3139857Y6821359D01*
X3143495Y6839645D01*
X3151270Y6878737D01*
X3155500Y6900000D01*
X3155500Y7400000D01*
X3144537Y7455116D01*
X3141760Y7469076D01*
X3141759Y7469078D01*
X3139857Y7478641D01*
X3095310Y7545310D01*
X3028641Y7589857D01*
X3019078Y7591759D01*
X3019076Y7591760D01*
X2992098Y7597126D01*
X2950000Y7605500D01*
X950000Y7605500D01*
X907902Y7597126D01*
X880924Y7591760D01*
X880922Y7591759D01*
X871359Y7589857D01*
X804690Y7545310D01*
X760143Y7478641D01*
X758241Y7469078D01*
X758240Y7469076D01*
X755463Y7455116D01*
X744500Y7400000D01*
X500000Y7400000D01*
X500000Y10230377D01*
X1198880Y10230377D01*
X1200625Y10223866D01*
X1200625Y10223863D01*
X1217041Y10162598D01*
X1237905Y10084735D01*
X1314658Y9954952D01*
X1423485Y9850591D01*
X1429438Y9847399D01*
X1549962Y9782775D01*
X1556368Y9779340D01*
X1562948Y9777869D01*
X1562951Y9777868D01*
X1696931Y9747920D01*
X1696932Y9747920D01*
X1703517Y9746448D01*
X1710256Y9746801D01*
X1710258Y9746801D01*
X1759738Y9749394D01*
X1854090Y9754339D01*
X1996995Y9802432D01*
X2121702Y9887183D01*
X2126056Y9892335D01*
X2126058Y9892337D01*
X2164722Y9938090D01*
X2219024Y10002348D01*
X2259728Y10091253D01*
X2278982Y10133307D01*
X2278983Y10133309D01*
X2281791Y10139443D01*
X2292159Y10204900D01*
X2304811Y10284786D01*
X2305378Y10288366D01*
X2305500Y10300000D01*
X2285037Y10449385D01*
X2282360Y10455571D01*
X2282359Y10455575D01*
X2227836Y10581570D01*
X2227834Y10581574D01*
X2225155Y10587764D01*
X2130266Y10704942D01*
X2081389Y10739677D01*
X2012859Y10788379D01*
X2012858Y10788380D01*
X2007361Y10792286D01*
X2001017Y10794570D01*
X2001013Y10794572D01*
X1871843Y10841076D01*
X1871840Y10841077D01*
X1865495Y10843361D01*
X1840504Y10845196D01*
X1721854Y10853910D01*
X1721850Y10853910D01*
X1715120Y10854404D01*
X1708505Y10853070D01*
X1708503Y10853070D01*
X1662803Y10843855D01*
X1567315Y10824601D01*
X1561309Y10821541D01*
X1561307Y10821540D01*
X1539536Y10810447D01*
X1432969Y10756148D01*
X1428006Y10751585D01*
X1428004Y10751583D01*
X1374327Y10702224D01*
X1321980Y10654089D01*
X1242525Y10525942D01*
X1230374Y10484117D01*
X1202373Y10387736D01*
X1200459Y10381149D01*
X1200388Y10374402D01*
X1200388Y10374400D01*
X1199980Y10335377D01*
X1198880Y10230377D01*
X500000Y10230377D01*
X500000Y11850000D01*
X2944500Y11850000D01*
X2944500Y9850000D01*
X2951149Y9816574D01*
X2954419Y9800137D01*
X2960143Y9771359D01*
X3004690Y9704690D01*
X3071359Y9660143D01*
X3080922Y9658241D01*
X3080924Y9658240D01*
X3101442Y9654159D01*
X3150000Y9644500D01*
X3650000Y9644500D01*
X3698558Y9654159D01*
X3719076Y9658240D01*
X3719078Y9658241D01*
X3728641Y9660143D01*
X3795310Y9704690D01*
X3807640Y9723143D01*
X3817685Y9738176D01*
X3865735Y9776055D01*
X3926873Y9778457D01*
X3977747Y9744464D01*
X3982315Y9738176D01*
X3992360Y9723143D01*
X4004690Y9704690D01*
X4071359Y9660143D01*
X4080922Y9658241D01*
X4080924Y9658240D01*
X4101442Y9654159D01*
X4150000Y9644500D01*
X4650000Y9644500D01*
X4698558Y9654159D01*
X4719076Y9658240D01*
X4719078Y9658241D01*
X4728641Y9660143D01*
X4795310Y9704690D01*
X4807640Y9723143D01*
X4817685Y9738176D01*
X4865735Y9776055D01*
X4926873Y9778457D01*
X4977747Y9744464D01*
X4982315Y9738176D01*
X4992360Y9723143D01*
X5004690Y9704690D01*
X5071359Y9660143D01*
X5080922Y9658241D01*
X5080924Y9658240D01*
X5101442Y9654159D01*
X5150000Y9644500D01*
X5650000Y9644500D01*
X5698558Y9654159D01*
X5719076Y9658240D01*
X5719078Y9658241D01*
X5728641Y9660143D01*
X5795310Y9704690D01*
X5807640Y9723143D01*
X5817685Y9738176D01*
X5865735Y9776055D01*
X5926873Y9778457D01*
X5977747Y9744464D01*
X5982315Y9738176D01*
X5992360Y9723143D01*
X6004690Y9704690D01*
X6071359Y9660143D01*
X6080922Y9658241D01*
X6080924Y9658240D01*
X6101442Y9654159D01*
X6150000Y9644500D01*
X6650000Y9644500D01*
X6698558Y9654159D01*
X6719076Y9658240D01*
X6719078Y9658241D01*
X6728641Y9660143D01*
X6795310Y9704690D01*
X6807640Y9723143D01*
X6817685Y9738176D01*
X6865735Y9776055D01*
X6926873Y9778457D01*
X6977747Y9744464D01*
X6982315Y9738176D01*
X6992360Y9723143D01*
X7004690Y9704690D01*
X7071359Y9660143D01*
X7080922Y9658241D01*
X7080924Y9658240D01*
X7101442Y9654159D01*
X7150000Y9644500D01*
X7650000Y9644500D01*
X7698558Y9654159D01*
X7719076Y9658240D01*
X7719078Y9658241D01*
X7728641Y9660143D01*
X7795310Y9704690D01*
X7839857Y9771359D01*
X7845582Y9800137D01*
X7848851Y9816574D01*
X7855500Y9850000D01*
X7855500Y11850000D01*
X7846787Y11893800D01*
X7841760Y11919076D01*
X7841759Y11919078D01*
X7839857Y11928641D01*
X7795310Y11995310D01*
X7771332Y12011332D01*
X7736751Y12034438D01*
X7728641Y12039857D01*
X7719078Y12041759D01*
X7719076Y12041760D01*
X7693800Y12046787D01*
X7650000Y12055500D01*
X7150000Y12055500D01*
X7106200Y12046787D01*
X7080924Y12041760D01*
X7080922Y12041759D01*
X7071359Y12039857D01*
X7063249Y12034438D01*
X7028669Y12011332D01*
X7004690Y11995310D01*
X6999271Y11987200D01*
X6982315Y11961824D01*
X6934265Y11923945D01*
X6873127Y11921543D01*
X6822253Y11955536D01*
X6817685Y11961824D01*
X6800729Y11987200D01*
X6795310Y11995310D01*
X6771332Y12011332D01*
X6736751Y12034438D01*
X6728641Y12039857D01*
X6719078Y12041759D01*
X6719076Y12041760D01*
X6693800Y12046787D01*
X6650000Y12055500D01*
X6150000Y12055500D01*
X6106200Y12046787D01*
X6080924Y12041760D01*
X6080922Y12041759D01*
X6071359Y12039857D01*
X6063249Y12034438D01*
X6028669Y12011332D01*
X6004690Y11995310D01*
X5999271Y11987200D01*
X5982315Y11961824D01*
X5934265Y11923945D01*
X5873127Y11921543D01*
X5822253Y11955536D01*
X5817685Y11961824D01*
X5800729Y11987200D01*
X5795310Y11995310D01*
X5771332Y12011332D01*
X5736751Y12034438D01*
X5728641Y12039857D01*
X5719078Y12041759D01*
X5719076Y12041760D01*
X5693800Y12046787D01*
X5650000Y12055500D01*
X5150000Y12055500D01*
X5106200Y12046787D01*
X5080924Y12041760D01*
X5080922Y12041759D01*
X5071359Y12039857D01*
X5063249Y12034438D01*
X5028669Y12011332D01*
X5004690Y11995310D01*
X4999271Y11987200D01*
X4982315Y11961824D01*
X4934265Y11923945D01*
X4873127Y11921543D01*
X4822253Y11955536D01*
X4817685Y11961824D01*
X4800729Y11987200D01*
X4795310Y11995310D01*
X4771332Y12011332D01*
X4736751Y12034438D01*
X4728641Y12039857D01*
X4719078Y12041759D01*
X4719076Y12041760D01*
X4693800Y12046787D01*
X4650000Y12055500D01*
X4150000Y12055500D01*
X4106200Y12046787D01*
X4080924Y12041760D01*
X4080922Y12041759D01*
X4071359Y12039857D01*
X4063249Y12034438D01*
X4028669Y12011332D01*
X4004690Y11995310D01*
X3999271Y11987200D01*
X3982315Y11961824D01*
X3934265Y11923945D01*
X3873127Y11921543D01*
X3822253Y11955536D01*
X3817685Y11961824D01*
X3800729Y11987200D01*
X3795310Y11995310D01*
X3771332Y12011332D01*
X3736751Y12034438D01*
X3728641Y12039857D01*
X3719078Y12041759D01*
X3719076Y12041760D01*
X3693800Y12046787D01*
X3650000Y12055500D01*
X3150000Y12055500D01*
X3106200Y12046787D01*
X3080924Y12041760D01*
X3080922Y12041759D01*
X3071359Y12039857D01*
X3063249Y12034438D01*
X3028669Y12011332D01*
X3004690Y11995310D01*
X2960143Y11928641D01*
X2958241Y11919078D01*
X2958240Y11919076D01*
X2953213Y11893800D01*
X2944500Y11850000D01*
X500000Y11850000D01*
X500000Y14401000D01*
X518907Y14459191D01*
X568407Y14495155D01*
X599000Y14500000D01*
X802890Y14500000D01*
X861081Y14481093D01*
G37*
G04 #@! TD.AperFunction*
G04 #@! TA.AperFunction,Conductor*
G36*
X15402712Y10205593D02*
G01*
X15414525Y10195504D01*
X15589504Y10020525D01*
X15617281Y9966008D01*
X15618500Y9950521D01*
X15618500Y9737643D01*
X15634336Y9647832D01*
X15638666Y9640332D01*
X15638667Y9640330D01*
X15670487Y9585217D01*
X15694332Y9543917D01*
X15786250Y9466788D01*
X15899005Y9425749D01*
X15901851Y9425500D01*
X16327357Y9425500D01*
X16332437Y9426396D01*
X16332760Y9426350D01*
X16335921Y9426627D01*
X16335985Y9425898D01*
X16393026Y9417885D01*
X16428176Y9389168D01*
X16439916Y9373868D01*
X16445069Y9369914D01*
X16501066Y9326946D01*
X16535722Y9276522D01*
X16534121Y9215357D01*
X16500544Y9171600D01*
X16501268Y9170738D01*
X16497377Y9167473D01*
X16496873Y9166816D01*
X16495748Y9166106D01*
X16494629Y9165167D01*
X16487131Y9160838D01*
X16411118Y9070250D01*
X16370673Y8959127D01*
X16370500Y8957150D01*
X16370500Y8601644D01*
X16386035Y8513542D01*
X16390365Y8506043D01*
X16390366Y8506039D01*
X16405123Y8480479D01*
X16417844Y8420631D01*
X16392957Y8364735D01*
X16339968Y8334143D01*
X16279118Y8340539D01*
X16259125Y8352434D01*
X16177750Y8414875D01*
X16049771Y8467886D01*
X16037712Y8472881D01*
X16031715Y8475365D01*
X15898615Y8492888D01*
X15881434Y8495150D01*
X15875000Y8495997D01*
X15868566Y8495150D01*
X15851385Y8492888D01*
X15718285Y8475365D01*
X15712288Y8472881D01*
X15700229Y8467886D01*
X15572250Y8414875D01*
X15446847Y8318650D01*
X15350622Y8193247D01*
X15290132Y8047212D01*
X15269500Y7890497D01*
X15290132Y7733782D01*
X15350622Y7587747D01*
X15446847Y7462344D01*
X15572250Y7366119D01*
X15578245Y7363636D01*
X15582469Y7361197D01*
X15623409Y7315727D01*
X15629804Y7254877D01*
X15620619Y7230952D01*
X15620572Y7230890D01*
X15560082Y7084855D01*
X15539450Y6928140D01*
X15560082Y6771425D01*
X15620572Y6625390D01*
X15716797Y6499987D01*
X15842200Y6403762D01*
X15932477Y6366368D01*
X15979187Y6347020D01*
X15988235Y6343272D01*
X16144950Y6322640D01*
X16151384Y6323487D01*
X16295234Y6342425D01*
X16295236Y6342426D01*
X16301665Y6343272D01*
X16301767Y6343314D01*
X16329696Y6345218D01*
X16331014Y6344824D01*
X16339191Y6345145D01*
X16346821Y6344181D01*
X16402182Y6318127D01*
X16420145Y6295462D01*
X16445162Y6252131D01*
X16535750Y6176118D01*
X16535895Y6176065D01*
X16573636Y6134150D01*
X16580033Y6073300D01*
X16549441Y6020312D01*
X16532696Y6008146D01*
X16494633Y5986170D01*
X16494630Y5986168D01*
X16487131Y5981838D01*
X16411118Y5891250D01*
X16399711Y5859908D01*
X16376031Y5794847D01*
X16370673Y5780127D01*
X16370500Y5778150D01*
X16370500Y5554720D01*
X16351593Y5496529D01*
X16302093Y5460565D01*
X16253478Y5458081D01*
X16253121Y5458206D01*
X16249727Y5458500D01*
X16247588Y5458500D01*
X16245455Y5458592D01*
X16245462Y5458751D01*
X16242420Y5458942D01*
X16236556Y5460696D01*
X16228382Y5460375D01*
X16220260Y5461401D01*
X16220634Y5464361D01*
X16175097Y5477204D01*
X16166463Y5483681D01*
X16097384Y5541645D01*
X16090750Y5547212D01*
X15977995Y5588251D01*
X15975149Y5588500D01*
X15549643Y5588500D01*
X15520663Y5583390D01*
X15468361Y5574168D01*
X15468360Y5574168D01*
X15459832Y5572664D01*
X15452332Y5568334D01*
X15452330Y5568333D01*
X15402479Y5539551D01*
X15355917Y5512668D01*
X15278788Y5420750D01*
X15237749Y5307995D01*
X15237500Y5305149D01*
X15237500Y5134190D01*
X15218593Y5075999D01*
X15208504Y5064186D01*
X15054814Y4910496D01*
X15000297Y4882719D01*
X14984810Y4881500D01*
X14932575Y4881500D01*
X14877574Y4898184D01*
X14851748Y4915440D01*
X14843641Y4920857D01*
X14765000Y4936500D01*
X14440806Y4936500D01*
X14382615Y4955407D01*
X14346651Y5004907D01*
X14346651Y5066093D01*
X14349342Y5073386D01*
X14350425Y5075999D01*
X14386232Y5162444D01*
X14389895Y5171288D01*
X14392379Y5177285D01*
X14413011Y5334000D01*
X14392379Y5490715D01*
X14386001Y5506114D01*
X14357811Y5574168D01*
X14331889Y5636750D01*
X14235664Y5762153D01*
X14110261Y5858378D01*
X13964226Y5918868D01*
X13894108Y5928099D01*
X13838884Y5954440D01*
X13809689Y6008211D01*
X13808031Y6026252D01*
X13808031Y6887361D01*
X13808261Y6890493D01*
X13809754Y6894841D01*
X13808101Y6938870D01*
X13808031Y6942584D01*
X13808031Y6966315D01*
X13807196Y6970799D01*
X13806949Y6973473D01*
X13806600Y6978858D01*
X13805900Y6997498D01*
X13805900Y6997499D01*
X13805557Y7006631D01*
X13801017Y7017199D01*
X13794653Y7038145D01*
X13794222Y7040461D01*
X13794222Y7040462D01*
X13792548Y7049448D01*
X13787751Y7057230D01*
X13787750Y7057233D01*
X13778583Y7072105D01*
X13771899Y7084972D01*
X13769373Y7090852D01*
X13761397Y7109417D01*
X13756076Y7115895D01*
X13752573Y7119398D01*
X13739391Y7136074D01*
X13738644Y7136898D01*
X13733847Y7144680D01*
X13732386Y7145791D01*
X13709079Y7197654D01*
X13708500Y7208344D01*
X13708500Y8275137D01*
X13694051Y8347776D01*
X13688634Y8355883D01*
X13684903Y8364891D01*
X13686275Y8365459D01*
X13672617Y8413889D01*
X13693796Y8471292D01*
X13744671Y8505284D01*
X13771541Y8509000D01*
X13844459Y8509000D01*
X13902650Y8490093D01*
X13938614Y8440593D01*
X13938614Y8379407D01*
X13928313Y8358170D01*
X13927366Y8355883D01*
X13921949Y8347776D01*
X13907500Y8275137D01*
X13907500Y7774863D01*
X13921949Y7702224D01*
X13927366Y7694117D01*
X13967813Y7633584D01*
X13977334Y7619334D01*
X14060224Y7563949D01*
X14132863Y7549500D01*
X14283137Y7549500D01*
X14355776Y7563949D01*
X14438666Y7619334D01*
X14448188Y7633584D01*
X14488634Y7694117D01*
X14494051Y7702224D01*
X14508500Y7774863D01*
X14508500Y8275137D01*
X14494051Y8347776D01*
X14438666Y8430666D01*
X14430556Y8436085D01*
X14430555Y8436086D01*
X14419932Y8443184D01*
X14382051Y8491233D01*
X14379649Y8552371D01*
X14413641Y8603246D01*
X14474932Y8624500D01*
X14958137Y8624500D01*
X15030776Y8638949D01*
X15081402Y8672776D01*
X15105556Y8688915D01*
X15113666Y8694334D01*
X15169051Y8777224D01*
X15183500Y8849863D01*
X15183500Y9000137D01*
X15171459Y9060670D01*
X15170954Y9063211D01*
X15170953Y9063213D01*
X15169051Y9072776D01*
X15163631Y9080887D01*
X15161053Y9087111D01*
X15156251Y9148108D01*
X15161053Y9162889D01*
X15163631Y9169113D01*
X15169051Y9177224D01*
X15183500Y9249863D01*
X15183500Y9400137D01*
X15169051Y9472776D01*
X15163631Y9480887D01*
X15161053Y9487111D01*
X15156251Y9548108D01*
X15161053Y9562889D01*
X15163631Y9569113D01*
X15169051Y9577224D01*
X15172348Y9593796D01*
X15177425Y9619324D01*
X15183500Y9649863D01*
X15183500Y9800137D01*
X15174099Y9847399D01*
X15170954Y9863211D01*
X15170953Y9863213D01*
X15169051Y9872776D01*
X15163631Y9880887D01*
X15161053Y9887111D01*
X15156251Y9948108D01*
X15161053Y9962889D01*
X15163631Y9969113D01*
X15169051Y9977224D01*
X15171897Y9991529D01*
X15177664Y10020525D01*
X15183500Y10049863D01*
X15183500Y10125500D01*
X15202407Y10183691D01*
X15251907Y10219655D01*
X15282500Y10224500D01*
X15344521Y10224500D01*
X15402712Y10205593D01*
G37*
G04 #@! TD.AperFunction*
G04 #@! TA.AperFunction,Conductor*
G36*
X19157067Y8901593D02*
G01*
X19190340Y8859386D01*
X19198199Y8840414D01*
X19227564Y8769521D01*
X19323789Y8644118D01*
X19449192Y8547893D01*
X19530454Y8514233D01*
X19586983Y8490818D01*
X19595227Y8487403D01*
X19705532Y8472881D01*
X19743473Y8467886D01*
X19751942Y8466771D01*
X19760412Y8467886D01*
X19798352Y8472881D01*
X19908657Y8487403D01*
X19916902Y8490818D01*
X19960796Y8509000D01*
X20054692Y8547893D01*
X20071964Y8561147D01*
X20096502Y8574930D01*
X20119964Y8584007D01*
X20135887Y8597391D01*
X20168528Y8624829D01*
X20187799Y8641027D01*
X20244508Y8663997D01*
X20303889Y8649246D01*
X20343259Y8602410D01*
X20350500Y8565244D01*
X20350500Y8047146D01*
X20331593Y7988955D01*
X20321504Y7977142D01*
X19736572Y7392210D01*
X19720271Y7379047D01*
X19710744Y7372895D01*
X19705678Y7366469D01*
X19705676Y7366467D01*
X19690102Y7346712D01*
X19686430Y7342579D01*
X19686448Y7342564D01*
X19683797Y7339435D01*
X19680918Y7336556D01*
X19678549Y7333240D01*
X19678545Y7333236D01*
X19670841Y7322455D01*
X19668057Y7318746D01*
X19638473Y7281219D01*
X19635905Y7273908D01*
X19635257Y7272660D01*
X19630751Y7266354D01*
X19628409Y7258521D01*
X19628407Y7258518D01*
X19620884Y7233360D01*
X19596038Y7191720D01*
X19475504Y7071186D01*
X19420987Y7043409D01*
X19360555Y7052980D01*
X19317290Y7096245D01*
X19306500Y7141190D01*
X19306500Y7368000D01*
X19290857Y7446641D01*
X19285441Y7454747D01*
X19285288Y7455116D01*
X19280489Y7516112D01*
X19285288Y7530884D01*
X19285441Y7531253D01*
X19290857Y7539359D01*
X19306500Y7618000D01*
X19306500Y8018000D01*
X19290857Y8096641D01*
X19246310Y8163310D01*
X19179641Y8207857D01*
X19170078Y8209759D01*
X19170076Y8209760D01*
X19144800Y8214787D01*
X19101000Y8223500D01*
X18001000Y8223500D01*
X17957200Y8214787D01*
X17931924Y8209760D01*
X17931922Y8209759D01*
X17922359Y8207857D01*
X17855690Y8163310D01*
X17850271Y8155200D01*
X17839779Y8139498D01*
X17791729Y8101619D01*
X17757464Y8095500D01*
X17376886Y8095500D01*
X17318695Y8114407D01*
X17313250Y8118662D01*
X17290386Y8137847D01*
X17246250Y8174882D01*
X17246105Y8174935D01*
X17208364Y8216850D01*
X17201967Y8277700D01*
X17232559Y8330688D01*
X17249304Y8342854D01*
X17287367Y8364830D01*
X17287370Y8364832D01*
X17294869Y8369162D01*
X17370882Y8459750D01*
X17388807Y8509000D01*
X17409108Y8564775D01*
X17409109Y8564778D01*
X17411327Y8570873D01*
X17411500Y8572850D01*
X17411500Y8748810D01*
X17430407Y8807001D01*
X17440496Y8818814D01*
X17513186Y8891504D01*
X17567703Y8919281D01*
X17583190Y8920500D01*
X19098876Y8920500D01*
X19157067Y8901593D01*
G37*
G04 #@! TD.AperFunction*
M02*
