G04 #@! TF.GenerationSoftware,KiCad,Pcbnew,5.99.0-unknown-c5e195bdff~131~ubuntu18.04.1*
G04 #@! TF.CreationDate,2021-08-10T19:15:15+02:00*
G04 #@! TF.ProjectId,TFASPDIMU02A,54464153-5044-4494-9d55-3032412e6b69,rev?*
G04 #@! TF.SameCoordinates,Original*
G04 #@! TF.FileFunction,Soldermask,Bot*
G04 #@! TF.FilePolarity,Negative*
%FSLAX46Y46*%
G04 Gerber Fmt 4.6, Leading zero omitted, Abs format (unit mm)*
G04 Created by KiCad (PCBNEW 5.99.0-unknown-c5e195bdff~131~ubuntu18.04.1) date 2021-08-10 19:15:15*
%MOMM*%
%LPD*%
G01*
G04 APERTURE LIST*
G04 Aperture macros list*
%AMRoundRect*
0 Rectangle with rounded corners*
0 $1 Rounding radius*
0 $2 $3 $4 $5 $6 $7 $8 $9 X,Y pos of 4 corners*
0 Add a 4 corners polygon primitive as box body*
4,1,4,$2,$3,$4,$5,$6,$7,$8,$9,$2,$3,0*
0 Add four circle primitives for the rounded corners*
1,1,$1+$1,$2,$3*
1,1,$1+$1,$4,$5*
1,1,$1+$1,$6,$7*
1,1,$1+$1,$8,$9*
0 Add four rect primitives between the rounded corners*
20,1,$1+$1,$2,$3,$4,$5,0*
20,1,$1+$1,$4,$5,$6,$7,0*
20,1,$1+$1,$6,$7,$8,$9,0*
20,1,$1+$1,$8,$9,$2,$3,0*%
%AMFreePoly0*
4,1,21,1.086777,0.430194,1.156366,0.374698,1.194986,0.294504,1.200000,0.250000,1.200000,-0.250000,1.180194,-0.336777,1.124698,-0.406366,1.044504,-0.444986,1.000000,-0.450000,-1.000000,-0.450000,-1.086777,-0.430194,-1.156366,-0.374698,-1.194986,-0.294504,-1.200000,-0.250000,-1.200000,0.250000,-1.180194,0.336777,-1.124698,0.406366,-1.044504,0.444986,-1.000000,0.450000,1.000000,0.450000,
1.086777,0.430194,1.086777,0.430194,$1*%
%AMFreePoly1*
4,1,21,0.986777,0.630194,1.056366,0.574698,1.094986,0.494504,1.100000,0.450000,1.100000,-0.450000,1.080194,-0.536777,1.024698,-0.606366,0.944504,-0.644986,0.900000,-0.650000,-0.900000,-0.650000,-0.986777,-0.630194,-1.056366,-0.574698,-1.094986,-0.494504,-1.100000,-0.450000,-1.100000,0.450000,-1.080194,0.536777,-1.024698,0.606366,-0.944504,0.644986,-0.900000,0.650000,0.900000,0.650000,
0.986777,0.630194,0.986777,0.630194,$1*%
G04 Aperture macros list end*
%ADD10C,3.000000*%
%ADD11RoundRect,0.340000X-0.140000X-0.170000X0.140000X-0.170000X0.140000X0.170000X-0.140000X0.170000X0*%
%ADD12RoundRect,0.335000X0.135000X0.185000X-0.135000X0.185000X-0.135000X-0.185000X0.135000X-0.185000X0*%
%ADD13RoundRect,0.340000X-0.170000X0.140000X-0.170000X-0.140000X0.170000X-0.140000X0.170000X0.140000X0*%
%ADD14RoundRect,0.340000X0.170000X-0.140000X0.170000X0.140000X-0.170000X0.140000X-0.170000X-0.140000X0*%
%ADD15RoundRect,0.335000X-0.185000X0.135000X-0.185000X-0.135000X0.185000X-0.135000X0.185000X0.135000X0*%
%ADD16RoundRect,0.335000X-0.135000X-0.185000X0.135000X-0.185000X0.135000X0.185000X-0.135000X0.185000X0*%
%ADD17RoundRect,0.200000X0.300000X0.350000X-0.300000X0.350000X-0.300000X-0.350000X0.300000X-0.350000X0*%
%ADD18RoundRect,0.200000X0.550000X0.200000X-0.550000X0.200000X-0.550000X-0.200000X0.550000X-0.200000X0*%
%ADD19RoundRect,0.335000X0.185000X-0.135000X0.185000X0.135000X-0.185000X0.135000X-0.185000X-0.135000X0*%
%ADD20FreePoly0,180.000000*%
%ADD21FreePoly0,90.000000*%
%ADD22FreePoly1,180.000000*%
%ADD23RoundRect,0.350000X-0.700000X0.150000X-0.700000X-0.150000X0.700000X-0.150000X0.700000X0.150000X0*%
%ADD24RoundRect,0.450000X-1.100000X0.250000X-1.100000X-0.250000X1.100000X-0.250000X1.100000X0.250000X0*%
%ADD25RoundRect,0.340000X0.140000X0.170000X-0.140000X0.170000X-0.140000X-0.170000X0.140000X-0.170000X0*%
%ADD26RoundRect,0.200000X-0.550000X-0.200000X0.550000X-0.200000X0.550000X0.200000X-0.550000X0.200000X0*%
%ADD27RoundRect,0.350000X0.512500X0.150000X-0.512500X0.150000X-0.512500X-0.150000X0.512500X-0.150000X0*%
%ADD28RoundRect,0.250000X-0.225000X-0.050000X0.225000X-0.050000X0.225000X0.050000X-0.225000X0.050000X0*%
%ADD29RoundRect,0.250000X-0.050000X0.225000X-0.050000X-0.225000X0.050000X-0.225000X0.050000X0.225000X0*%
G04 APERTURE END LIST*
D10*
X2500000Y15000000D03*
X2500000Y0D03*
X12500000Y0D03*
X12500000Y15000000D03*
D11*
X25047000Y1651000D03*
X26007000Y1651000D03*
D12*
X21592000Y10033000D03*
X20572000Y10033000D03*
D13*
X15748000Y6068000D03*
X15748000Y5108000D03*
D14*
X16129000Y9906000D03*
X16129000Y10866000D03*
D15*
X16891000Y8765000D03*
X16891000Y7745000D03*
D11*
X22380000Y11176000D03*
X23340000Y11176000D03*
X10569000Y6096000D03*
X11529000Y6096000D03*
D16*
X17524000Y10033000D03*
X18544000Y10033000D03*
D17*
X24827000Y13208000D03*
X26227000Y13208000D03*
D14*
X18542000Y4092000D03*
X18542000Y5052000D03*
D13*
X22987000Y5179000D03*
X22987000Y4219000D03*
D18*
X14215000Y4531000D03*
X14215000Y3881000D03*
X14215000Y3231000D03*
X14215000Y2581000D03*
X9915000Y2581000D03*
X9915000Y3231000D03*
X9915000Y3881000D03*
X9915000Y4531000D03*
D19*
X1651000Y2792000D03*
X1651000Y3812000D03*
D15*
X19812000Y5209000D03*
X19812000Y4189000D03*
D11*
X22380000Y12573000D03*
X23340000Y12573000D03*
D15*
X21717000Y5209000D03*
X21717000Y4189000D03*
D20*
X8850000Y9150000D03*
X8850000Y8150000D03*
X8850000Y7150000D03*
D21*
X7400000Y5450000D03*
X6400000Y5450000D03*
X5400000Y5450000D03*
X4400000Y5450000D03*
X3400000Y5450000D03*
D20*
X1950000Y7150000D03*
X1950000Y8150000D03*
X1950000Y9150000D03*
D21*
X3400000Y10850000D03*
X4400000Y10850000D03*
X5400000Y10850000D03*
X6400000Y10850000D03*
X7400000Y10850000D03*
D22*
X5400000Y9000000D03*
X5400000Y7300000D03*
D23*
X25328000Y9375000D03*
X25328000Y8125000D03*
X25328000Y6875000D03*
X25328000Y5625000D03*
D24*
X28528000Y3775000D03*
X28528000Y11225000D03*
D25*
X12291000Y12319000D03*
X11331000Y12319000D03*
D11*
X14125000Y12446000D03*
X15085000Y12446000D03*
D12*
X16893000Y2794000D03*
X15873000Y2794000D03*
D11*
X4473000Y3429000D03*
X5433000Y3429000D03*
D13*
X16256000Y13561000D03*
X16256000Y12601000D03*
D19*
X16891000Y5586000D03*
X16891000Y6606000D03*
D15*
X5334000Y2288000D03*
X5334000Y1268000D03*
D26*
X18551000Y6518000D03*
X18551000Y7168000D03*
X18551000Y7818000D03*
X18551000Y8468000D03*
X22851000Y8468000D03*
X22851000Y7818000D03*
X22851000Y7168000D03*
X22851000Y6518000D03*
D19*
X6731000Y2536000D03*
X6731000Y3556000D03*
D27*
X20060500Y13777000D03*
X20060500Y12827000D03*
X20060500Y11877000D03*
X17785500Y11877000D03*
X17785500Y13777000D03*
D12*
X16893000Y3937000D03*
X15873000Y3937000D03*
D27*
X22727500Y2982000D03*
X22727500Y2032000D03*
X22727500Y1082000D03*
X20452500Y1082000D03*
X20452500Y2982000D03*
D13*
X18542000Y2766000D03*
X18542000Y1806000D03*
D28*
X11708000Y8525000D03*
X11708000Y8925000D03*
X11708000Y9325000D03*
X11708000Y9725000D03*
X11708000Y10125000D03*
X11708000Y10525000D03*
D29*
X12208000Y11025000D03*
X12608000Y11025000D03*
X13008000Y11025000D03*
X13408000Y11025000D03*
X13808000Y11025000D03*
X14208000Y11025000D03*
D28*
X14708000Y10525000D03*
X14708000Y10125000D03*
X14708000Y9725000D03*
X14708000Y9325000D03*
X14708000Y8925000D03*
X14708000Y8525000D03*
D29*
X14208000Y8025000D03*
X13808000Y8025000D03*
X13408000Y8025000D03*
X13008000Y8025000D03*
X12608000Y8025000D03*
X12208000Y8025000D03*
M02*
