M48
; DRILL file {KiCad (5.99.0-10394-g2e15de97e0)} date Thu Aug  5 10:27:59 2021
; FORMAT={3:3/ absolute / metric / suppress leading zeros}
; #@! TF.CreationDate,2021-08-05T10:27:59+02:00
; #@! TF.GenerationSoftware,Kicad,Pcbnew,(5.99.0-10394-g2e15de97e0)
; #@! TF.FileFunction,Plated,1,2,PTH
FMAT,2
METRIC,TZ
; #@! TA.AperFunction,Plated,PTH,ViaDrill
T1C0.400
%
G90
G05
T1
X1016Y4953
X1016Y1651
X1270Y12700
X1270Y11684
X2159Y4826
X2540Y12700
X2651Y3076
X3810Y12700
X5080Y13843
X5080Y12700
X7852Y3070
X8382Y1016
X8509Y4631
X8890Y12700
X8890Y11684
X9525Y1016
X10541Y1016
X10668Y11049
X11303Y3810
X11909Y7136
X12065Y4572
X12409Y6223
X12466Y3619
X13170Y12428
X13808Y5334
X14732Y5715
X14859Y1143
X15113Y13589
X15113Y11303
X15875Y8890
X15875Y7890
X16145Y6928
X16256Y1143
X16868Y9802
X17526Y1143
X17780Y3429
X19200Y3302
X19554Y10052
X19752Y9072
X19859Y8078
X20682Y4087
X20888Y5065
X21300Y7300
X21336Y11049
X22600Y9400
X24003Y6858
X24100Y2100
X24384Y11811
X24384Y10795
X24638Y4191
X26162Y2921
X26289Y11811
X26289Y10668
X26900Y8100
X27432Y6985
X27432Y2413
X27432Y1397
X27559Y13716
X27559Y12700
X28067Y5080
X28702Y13716
X28702Y12700
X28829Y9779
X28829Y2413
X28829Y1397
X29083Y8636
X29083Y7366
X29083Y6096
X29083Y5080
T0
M30
