  0
SECTION
  2
HEADER
  9
$ANGBASE
  50
0.0
  9
$ANGDIR
  70
1
  9
$MEASUREMENT
  70
0
  0
ENDSEC
  0
SECTION
  2
TABLES
  0
TABLE
  2
LTYPE
  70
4
  0
LTYPE
  5
40F
  2
CONTINUOUS
  70
0
  3
Solid line
  72
65
  73
0
  40
0.0
  0
LTYPE
  5
410
  2
DASHDOT
 70
0
  3
Dash Dot ____ _ ____ _
 72
65
 73
4
 40
2.0
 49
1.25
 49
-0.25
 49
0.25
 49
-0.25
  0
LTYPE
  5
411
  2
DASHED
 70
0
  3
Dashed __ __ __ __ __
 72
65
 73
2
 40
0.75
 49
0.5
 49
-0.25
  0
LTYPE
  5
43B
  2
DOTTED
 70
0
  3
Dotted .  .  .  .
 72
65
 73
2
 40
0.2
 49
0.0
 49
-0.2
  0
ENDTAB
  0
TABLE
  2
STYLE
  70
4
  0
STYLE
  2
KICAD
  70
0
  40
0
  41
1
  42
1
  50
0
  71
0
  3
isocp.shx
  0
STYLE
  2
KICADB
  70
0
  40
0
  41
1
  42
1
  50
0
  71
0
  3
isocp.shx
  0
STYLE
  2
KICADI
  70
0
  40
0
  41
1
  42
1
  50
15
  71
0
  3
isocp.shx
  0
STYLE
  2
KICADBI
  70
0
  40
0
  41
1
  42
1
  50
15
  71
0
  3
isocp.shx
  0
ENDTAB
  0
TABLE
  2
LAYER
  70
1
  0
LAYER
  2
BLACK
  70
0
  62
7
  6
CONTINUOUS
  0
ENDTAB
  0
ENDSEC
  0
SECTION
  2
ENTITIES
0
LINE
8
BLACK
6
CONTINUOUS
10
5.2906842519685036
20
-3.8798149999999998
11
5.2909148818897638
21
-3.8803717716535431
0
LINE
8
BLACK
6
CONTINUOUS
10
5.2909148818897638
20
-3.8803717716535431
11
5.2906842519685036
21
-3.8809285433070864
0
LINE
8
BLACK
6
CONTINUOUS
10
5.2906842519685036
20
-3.8809285433070864
11
5.2877925590551182
21
-3.8838202362204726
0
LINE
8
BLACK
6
CONTINUOUS
10
5.2877925590551182
20
-3.8838202362204726
11
5.2907574015748029
21
-3.8877733464566928
0
LINE
8
BLACK
6
CONTINUOUS
10
5.2907574015748029
20
-3.8877733464566928
11
5.2909069685039372
21
-3.888357125984252
0
LINE
8
BLACK
6
CONTINUOUS
10
5.2909069685039372
20
-3.888357125984252
11
5.290599921259842
21
-3.8888757086614172
0
LINE
8
BLACK
6
CONTINUOUS
10
5.290599921259842
20
-3.8888757086614172
11
5.2900161023622045
21
-3.8890252362204722
0
LINE
8
BLACK
6
CONTINUOUS
10
5.2900161023622045
20
-3.8890252362204722
11
5.2894975590551176
21
-3.8887182283464568
0
LINE
8
BLACK
6
CONTINUOUS
10
5.2894975590551176
20
-3.8887182283464568
11
5.2866676771653545
21
-3.8849450787401576
0
LINE
8
BLACK
6
CONTINUOUS
10
5.2866676771653545
20
-3.8849450787401576
11
5.2864154724409449
21
-3.8851973228346455
0
LINE
8
BLACK
6
CONTINUOUS
10
5.2864154724409449
20
-3.8851973228346455
11
5.2864154724409449
21
-3.8882457874015746
0
LINE
8
BLACK
6
CONTINUOUS
10
5.2864154724409449
20
-3.8882457874015746
11
5.2861848425196847
21
-3.8888025590551178
0
LINE
8
BLACK
6
CONTINUOUS
10
5.2861848425196847
20
-3.8888025590551178
11
5.2856280708661414
21
-3.8890331889763781
0
LINE
8
BLACK
6
CONTINUOUS
10
5.2856280708661414
20
-3.8890331889763781
11
5.2850712992125981
21
-3.8888025590551178
0
LINE
8
BLACK
6
CONTINUOUS
10
5.2850712992125981
20
-3.8888025590551178
11
5.2848406692913388
21
-3.8882457874015746
0
LINE
8
BLACK
6
CONTINUOUS
10
5.2848406692913388
20
-3.8882457874015746
11
5.2848406692913388
21
-3.8803717716535431
0
LINE
8
BLACK
6
CONTINUOUS
10
5.2848406692913388
20
-3.8803717716535431
11
5.2850712992125981
21
-3.8798149999999998
0
LINE
8
BLACK
6
CONTINUOUS
10
5.2850712992125981
20
-3.8798149999999998
11
5.2856280708661414
21
-3.87958437007874
0
LINE
8
BLACK
6
CONTINUOUS
10
5.2856280708661414
20
-3.87958437007874
11
5.2861848425196847
21
-3.8798149999999998
0
LINE
8
BLACK
6
CONTINUOUS
10
5.2861848425196847
20
-3.8798149999999998
11
5.2864154724409449
21
-3.8803717716535431
0
LINE
8
BLACK
6
CONTINUOUS
10
5.2864154724409449
20
-3.8803717716535431
11
5.2864154724409449
21
-3.8829702362204723
0
LINE
8
BLACK
6
CONTINUOUS
10
5.2864154724409449
20
-3.8829702362204723
11
5.289570708661417
21
-3.8798149999999998
0
LINE
8
BLACK
6
CONTINUOUS
10
5.289570708661417
20
-3.8798149999999998
11
5.2901274803149603
21
-3.87958437007874
0
LINE
8
BLACK
6
CONTINUOUS
10
5.2901274803149603
20
-3.87958437007874
11
5.2906842519685036
21
-3.8798149999999998
0
LINE
8
BLACK
6
CONTINUOUS
10
5.2978083858267713
20
-3.8798149999999998
11
5.2980390157480315
21
-3.8803717716535431
0
LINE
8
BLACK
6
CONTINUOUS
10
5.2980390157480315
20
-3.8803717716535431
11
5.2978083858267713
21
-3.8809285433070864
0
LINE
8
BLACK
6
CONTINUOUS
10
5.2978083858267713
20
-3.8809285433070864
11
5.297251614173228
21
-3.8811591732283466
0
LINE
8
BLACK
6
CONTINUOUS
10
5.297251614173228
20
-3.8811591732283466
11
5.2942894881889764
21
-3.8811591732283466
0
LINE
8
BLACK
6
CONTINUOUS
10
5.2942894881889764
20
-3.8811591732283466
11
5.2942894881889764
21
-3.8833338976377951
0
LINE
8
BLACK
6
CONTINUOUS
10
5.2942894881889764
20
-3.8833338976377951
11
5.2961267322834642
21
-3.8833338976377951
0
LINE
8
BLACK
6
CONTINUOUS
10
5.2961267322834642
20
-3.8833338976377951
11
5.2966835039370075
21
-3.8835645275590549
0
LINE
8
BLACK
6
CONTINUOUS
10
5.2966835039370075
20
-3.8835645275590549
11
5.2969141338582677
21
-3.8841212992125982
0
LINE
8
BLACK
6
CONTINUOUS
10
5.2969141338582677
20
-3.8841212992125982
11
5.2966835039370075
21
-3.8846780708661415
0
LINE
8
BLACK
6
CONTINUOUS
10
5.2966835039370075
20
-3.8846780708661415
11
5.2961267322834642
21
-3.8849087007874017
0
LINE
8
BLACK
6
CONTINUOUS
10
5.2961267322834642
20
-3.8849087007874017
11
5.2942894881889764
21
-3.8849087007874017
0
LINE
8
BLACK
6
CONTINUOUS
10
5.2942894881889764
20
-3.8849087007874017
11
5.2942894881889764
21
-3.8874583858267715
0
LINE
8
BLACK
6
CONTINUOUS
10
5.2942894881889764
20
-3.8874583858267715
11
5.297251614173228
21
-3.8874583858267715
0
LINE
8
BLACK
6
CONTINUOUS
10
5.297251614173228
20
-3.8874583858267715
11
5.2978083858267713
21
-3.8876890157480313
0
LINE
8
BLACK
6
CONTINUOUS
10
5.2978083858267713
20
-3.8876890157480313
11
5.2980390157480315
21
-3.8882457874015746
0
LINE
8
BLACK
6
CONTINUOUS
10
5.2980390157480315
20
-3.8882457874015746
11
5.2978083858267713
21
-3.8888025590551178
0
LINE
8
BLACK
6
CONTINUOUS
10
5.2978083858267713
20
-3.8888025590551178
11
5.297251614173228
21
-3.8890331889763781
0
LINE
8
BLACK
6
CONTINUOUS
10
5.297251614173228
20
-3.8890331889763781
11
5.2935020866141729
21
-3.8890331889763781
0
LINE
8
BLACK
6
CONTINUOUS
10
5.2935020866141729
20
-3.8890331889763781
11
5.2929453149606296
21
-3.8888025590551178
0
LINE
8
BLACK
6
CONTINUOUS
10
5.2929453149606296
20
-3.8888025590551178
11
5.2927146850393703
21
-3.8882457874015746
0
LINE
8
BLACK
6
CONTINUOUS
10
5.2927146850393703
20
-3.8882457874015746
11
5.2927146850393703
21
-3.8803717716535431
0
LINE
8
BLACK
6
CONTINUOUS
10
5.2927146850393703
20
-3.8803717716535431
11
5.2929453149606296
21
-3.8798149999999998
0
LINE
8
BLACK
6
CONTINUOUS
10
5.2929453149606296
20
-3.8798149999999998
11
5.2935020866141729
21
-3.87958437007874
0
LINE
8
BLACK
6
CONTINUOUS
10
5.2935020866141729
20
-3.87958437007874
11
5.297251614173228
21
-3.87958437007874
0
LINE
8
BLACK
6
CONTINUOUS
10
5.297251614173228
20
-3.87958437007874
11
5.2978083858267713
21
-3.8798149999999998
0
LINE
8
BLACK
6
CONTINUOUS
10
5.3049324803149602
20
-3.8798149999999998
11
5.3051631102362204
21
-3.8803717716535431
0
LINE
8
BLACK
6
CONTINUOUS
10
5.3051631102362204
20
-3.8803717716535431
11
5.3049324803149602
21
-3.8809285433070864
0
LINE
8
BLACK
6
CONTINUOUS
10
5.3049324803149602
20
-3.8809285433070864
11
5.3043757086614169
21
-3.8811591732283466
0
LINE
8
BLACK
6
CONTINUOUS
10
5.3043757086614169
20
-3.8811591732283466
11
5.3014135826771653
21
-3.8811591732283466
0
LINE
8
BLACK
6
CONTINUOUS
10
5.3014135826771653
20
-3.8811591732283466
11
5.3014135826771653
21
-3.8833338976377951
0
LINE
8
BLACK
6
CONTINUOUS
10
5.3014135826771653
20
-3.8833338976377951
11
5.3032508267716532
21
-3.8833338976377951
0
LINE
8
BLACK
6
CONTINUOUS
10
5.3032508267716532
20
-3.8833338976377951
11
5.3038075984251964
21
-3.8835645275590549
0
LINE
8
BLACK
6
CONTINUOUS
10
5.3038075984251964
20
-3.8835645275590549
11
5.3040382283464567
21
-3.8841212992125982
0
LINE
8
BLACK
6
CONTINUOUS
10
5.3040382283464567
20
-3.8841212992125982
11
5.3038075984251964
21
-3.8846780708661415
0
LINE
8
BLACK
6
CONTINUOUS
10
5.3038075984251964
20
-3.8846780708661415
11
5.3032508267716532
21
-3.8849087007874017
0
LINE
8
BLACK
6
CONTINUOUS
10
5.3032508267716532
20
-3.8849087007874017
11
5.3014135826771653
21
-3.8849087007874017
0
LINE
8
BLACK
6
CONTINUOUS
10
5.3014135826771653
20
-3.8849087007874017
11
5.3014135826771653
21
-3.8874583858267715
0
LINE
8
BLACK
6
CONTINUOUS
10
5.3014135826771653
20
-3.8874583858267715
11
5.3043757086614169
21
-3.8874583858267715
0
LINE
8
BLACK
6
CONTINUOUS
10
5.3043757086614169
20
-3.8874583858267715
11
5.3049324803149602
21
-3.8876890157480313
0
LINE
8
BLACK
6
CONTINUOUS
10
5.3049324803149602
20
-3.8876890157480313
11
5.3051631102362204
21
-3.8882457874015746
0
LINE
8
BLACK
6
CONTINUOUS
10
5.3051631102362204
20
-3.8882457874015746
11
5.3049324803149602
21
-3.8888025590551178
0
LINE
8
BLACK
6
CONTINUOUS
10
5.3049324803149602
20
-3.8888025590551178
11
5.3043757086614169
21
-3.8890331889763781
0
LINE
8
BLACK
6
CONTINUOUS
10
5.3043757086614169
20
-3.8890331889763781
11
5.3006261811023618
21
-3.8890331889763781
0
LINE
8
BLACK
6
CONTINUOUS
10
5.3006261811023618
20
-3.8890331889763781
11
5.3000694094488185
21
-3.8888025590551178
0
LINE
8
BLACK
6
CONTINUOUS
10
5.3000694094488185
20
-3.8888025590551178
11
5.2998387795275592
21
-3.8882457874015746
0
LINE
8
BLACK
6
CONTINUOUS
10
5.2998387795275592
20
-3.8882457874015746
11
5.2998387795275592
21
-3.8803717716535431
0
LINE
8
BLACK
6
CONTINUOUS
10
5.2998387795275592
20
-3.8803717716535431
11
5.3000694094488185
21
-3.8798149999999998
0
LINE
8
BLACK
6
CONTINUOUS
10
5.3000694094488185
20
-3.8798149999999998
11
5.3006261811023618
21
-3.87958437007874
0
LINE
8
BLACK
6
CONTINUOUS
10
5.3006261811023618
20
-3.87958437007874
11
5.3043757086614169
21
-3.87958437007874
0
LINE
8
BLACK
6
CONTINUOUS
10
5.3043757086614169
20
-3.87958437007874
11
5.3049324803149602
21
-3.8798149999999998
0
LINE
8
BLACK
6
CONTINUOUS
10
5.3109191732283465
20
-3.8796544881889763
11
5.3111020078740152
21
-3.8796674803149607
0
LINE
8
BLACK
6
CONTINUOUS
10
5.3111020078740152
20
-3.8796674803149607
11
5.3118519291338577
21
-3.8800424409448819
0
LINE
8
BLACK
6
CONTINUOUS
10
5.3118519291338577
20
-3.8800424409448819
11
5.3119368503937006
21
-3.8801403937007874
0
LINE
8
BLACK
6
CONTINUOUS
10
5.3119368503937006
20
-3.8801403937007874
11
5.3120566141732279
21
-3.8801899999999998
0
LINE
8
BLACK
6
CONTINUOUS
10
5.3120566141732279
20
-3.8801899999999998
11
5.3124315354330705
21
-3.8805649212598423
0
LINE
8
BLACK
6
CONTINUOUS
10
5.3124315354330705
20
-3.8805649212598423
11
5.3124811023622049
21
-3.8806846456692914
0
LINE
8
BLACK
6
CONTINUOUS
10
5.3124811023622049
20
-3.8806846456692914
11
5.3125790157480317
21
-3.8807695669291338
0
LINE
8
BLACK
6
CONTINUOUS
10
5.3125790157480317
20
-3.8807695669291338
11
5.3129539370078742
21
-3.8815194488188975
0
LINE
8
BLACK
6
CONTINUOUS
10
5.3129539370078742
20
-3.8815194488188975
11
5.3129668897637794
21
-3.8817022047244092
0
LINE
8
BLACK
6
CONTINUOUS
10
5.3129668897637794
20
-3.8817022047244092
11
5.3130370866141732
21
-3.8818716141732281
0
LINE
8
BLACK
6
CONTINUOUS
10
5.3130370866141732
20
-3.8818716141732281
11
5.3130370866141732
21
-3.8829964566929132
0
LINE
8
BLACK
6
CONTINUOUS
10
5.3130370866141732
20
-3.8829964566929132
11
5.3129668897637794
21
-3.8831658267716533
0
LINE
8
BLACK
6
CONTINUOUS
10
5.3129668897637794
20
-3.8831658267716533
11
5.3129539370078742
21
-3.8833486220472442
0
LINE
8
BLACK
6
CONTINUOUS
10
5.3129539370078742
20
-3.8833486220472442
11
5.3125790157480317
21
-3.884098503937008
0
LINE
8
BLACK
6
CONTINUOUS
10
5.3125790157480317
20
-3.884098503937008
11
5.3124810629921262
21
-3.8841833858267716
0
LINE
8
BLACK
6
CONTINUOUS
10
5.3124810629921262
20
-3.8841833858267716
11
5.3124314960629917
21
-3.884303149606299
0
LINE
8
BLACK
6
CONTINUOUS
10
5.3124314960629917
20
-3.884303149606299
11
5.3120565748031492
21
-3.8846780708661415
0
LINE
8
BLACK
6
CONTINUOUS
10
5.3120565748031492
20
-3.8846780708661415
11
5.3119368503937006
21
-3.8847276377952755
0
LINE
8
BLACK
6
CONTINUOUS
10
5.3119368503937006
20
-3.8847276377952755
11
5.3118519291338577
21
-3.884825590551181
0
LINE
8
BLACK
6
CONTINUOUS
10
5.3118519291338577
20
-3.884825590551181
11
5.3111020078740152
21
-3.8852005511811023
0
LINE
8
BLACK
6
CONTINUOUS
10
5.3111020078740152
20
-3.8852005511811023
11
5.3109191732283465
21
-3.8852135039370079
0
LINE
8
BLACK
6
CONTINUOUS
10
5.3109191732283465
20
-3.8852135039370079
11
5.3107498818897634
21
-3.885283661417323
0
LINE
8
BLACK
6
CONTINUOUS
10
5.3107498818897634
20
-3.885283661417323
11
5.3085376771653543
21
-3.885283661417323
0
LINE
8
BLACK
6
CONTINUOUS
10
5.3085376771653543
20
-3.885283661417323
11
5.3085376771653543
21
-3.8882457874015746
0
LINE
8
BLACK
6
CONTINUOUS
10
5.3085376771653543
20
-3.8882457874015746
11
5.3083070472440941
21
-3.8888025590551178
0
LINE
8
BLACK
6
CONTINUOUS
10
5.3083070472440941
20
-3.8888025590551178
11
5.3077502755905508
21
-3.8890331889763781
0
LINE
8
BLACK
6
CONTINUOUS
10
5.3077502755905508
20
-3.8890331889763781
11
5.3071935039370075
21
-3.8888025590551178
0
LINE
8
BLACK
6
CONTINUOUS
10
5.3071935039370075
20
-3.8888025590551178
11
5.3069628740157482
21
-3.8882457874015746
0
LINE
8
BLACK
6
CONTINUOUS
10
5.3069628740157482
20
-3.8882457874015746
11
5.3069628740157482
21
-3.8803717716535431
0
LINE
8
BLACK
6
CONTINUOUS
10
5.3069628740157482
20
-3.8803717716535431
11
5.3071935039370075
21
-3.8798149999999998
0
LINE
8
BLACK
6
CONTINUOUS
10
5.3071935039370075
20
-3.8798149999999998
11
5.3077502755905508
21
-3.87958437007874
0
LINE
8
BLACK
6
CONTINUOUS
10
5.3077502755905508
20
-3.87958437007874
11
5.3107498818897634
21
-3.87958437007874
0
LINE
8
BLACK
6
CONTINUOUS
10
5.3107498818897634
20
-3.87958437007874
11
5.3109191732283465
21
-3.8796544881889763
0
LINE
8
BLACK
6
CONTINUOUS
10
5.3085376771653543
20
-3.8837088582677164
11
5.3105639763779529
21
-3.8837088582677164
0
LINE
8
BLACK
6
CONTINUOUS
10
5.3105639763779529
20
-3.8837088582677164
11
5.3110333858267715
21
-3.8834741338582677
0
LINE
8
BLACK
6
CONTINUOUS
10
5.3110333858267715
20
-3.8834741338582677
11
5.3112275590551183
21
-3.8832800000000001
0
LINE
8
BLACK
6
CONTINUOUS
10
5.3112275590551183
20
-3.8832800000000001
11
5.3114622834645671
21
-3.8828105511811022
0
LINE
8
BLACK
6
CONTINUOUS
10
5.3114622834645671
20
-3.8828105511811022
11
5.3114622834645671
21
-3.8820575196850391
0
LINE
8
BLACK
6
CONTINUOUS
10
5.3114622834645671
20
-3.8820575196850391
11
5.3112275196850396
21
-3.8815880314960629
0
LINE
8
BLACK
6
CONTINUOUS
10
5.3112275196850396
20
-3.8815880314960629
11
5.3110333464566928
21
-3.8813938188976378
0
LINE
8
BLACK
6
CONTINUOUS
10
5.3110333464566928
20
-3.8813938188976378
11
5.3105639763779529
21
-3.8811591732283466
0
LINE
8
BLACK
6
CONTINUOUS
10
5.3105639763779529
20
-3.8811591732283466
11
5.3085376771653543
21
-3.8811591732283466
0
LINE
8
BLACK
6
CONTINUOUS
10
5.3085376771653543
20
-3.8811591732283466
11
5.3085376771653543
21
-3.8837088582677164
0
LINE
8
BLACK
6
CONTINUOUS
10
5.318793188976378
20
-3.8796544881889763
11
5.3189760236220467
21
-3.8796674803149607
0
LINE
8
BLACK
6
CONTINUOUS
10
5.3189760236220467
20
-3.8796674803149607
11
5.3197259448818892
21
-3.8800424409448819
0
LINE
8
BLACK
6
CONTINUOUS
10
5.3197259448818892
20
-3.8800424409448819
11
5.3198108267716533
21
-3.8801403149606299
0
LINE
8
BLACK
6
CONTINUOUS
10
5.3198108267716533
20
-3.8801403149606299
11
5.3199306299212594
21
-3.8801899606299211
0
LINE
8
BLACK
6
CONTINUOUS
10
5.3199306299212594
20
-3.8801899606299211
11
5.3206804724409444
21
-3.8809398818897636
0
LINE
8
BLACK
6
CONTINUOUS
10
5.3206804724409444
20
-3.8809398818897636
11
5.3207614566929129
21
-3.8811354724409446
0
LINE
8
BLACK
6
CONTINUOUS
10
5.3207614566929129
20
-3.8811354724409446
11
5.3208875984251964
21
-3.8813056692913386
0
LINE
8
BLACK
6
CONTINUOUS
10
5.3208875984251964
20
-3.8813056692913386
11
5.3212625590551177
21
-3.8828054724409449
0
LINE
8
BLACK
6
CONTINUOUS
10
5.3212625590551177
20
-3.8828054724409449
11
5.3212478346456695
21
-3.882904212598425
0
LINE
8
BLACK
6
CONTINUOUS
10
5.3212478346456695
20
-3.882904212598425
11
5.3212860629921259
21
-3.8829964566929132
0
LINE
8
BLACK
6
CONTINUOUS
10
5.3212860629921259
20
-3.8829964566929132
11
5.3212860629921259
21
-3.8856211417322832
0
LINE
8
BLACK
6
CONTINUOUS
10
5.3212860629921259
20
-3.8856211417322832
11
5.3212478346456695
21
-3.8857133464566926
0
LINE
8
BLACK
6
CONTINUOUS
10
5.3212478346456695
20
-3.8857133464566926
11
5.3212625590551177
21
-3.885812125984252
0
LINE
8
BLACK
6
CONTINUOUS
10
5.3212625590551177
20
-3.885812125984252
11
5.3208875984251964
21
-3.8873119291338583
0
LINE
8
BLACK
6
CONTINUOUS
10
5.3208875984251964
20
-3.8873119291338583
11
5.3207614566929129
21
-3.887482086614173
0
LINE
8
BLACK
6
CONTINUOUS
10
5.3207614566929129
20
-3.887482086614173
11
5.3206804724409444
21
-3.8876777165354328
0
LINE
8
BLACK
6
CONTINUOUS
10
5.3206804724409444
20
-3.8876777165354328
11
5.3199306299212594
21
-3.8884276377952753
0
LINE
8
BLACK
6
CONTINUOUS
10
5.3199306299212594
20
-3.8884276377952753
11
5.3198108267716533
21
-3.8884772440944881
0
LINE
8
BLACK
6
CONTINUOUS
10
5.3198108267716533
20
-3.8884772440944881
11
5.3197259448818892
21
-3.8885751574803149
0
LINE
8
BLACK
6
CONTINUOUS
10
5.3197259448818892
20
-3.8885751574803149
11
5.3189760236220467
21
-3.8889500787401574
0
LINE
8
BLACK
6
CONTINUOUS
10
5.3189760236220467
20
-3.8889500787401574
11
5.318793188976378
21
-3.888963031496063
0
LINE
8
BLACK
6
CONTINUOUS
10
5.318793188976378
20
-3.888963031496063
11
5.3186238976377949
21
-3.8890331889763781
0
LINE
8
BLACK
6
CONTINUOUS
10
5.3186238976377949
20
-3.8890331889763781
11
5.3171240944881886
21
-3.8890331889763781
0
LINE
8
BLACK
6
CONTINUOUS
10
5.3171240944881886
20
-3.8890331889763781
11
5.3169547637795276
21
-3.888963031496063
0
LINE
8
BLACK
6
CONTINUOUS
10
5.3169547637795276
20
-3.888963031496063
11
5.3167720078740155
21
-3.8889500787401574
0
LINE
8
BLACK
6
CONTINUOUS
10
5.3167720078740155
20
-3.8889500787401574
11
5.3160220472440942
21
-3.8885751574803149
0
LINE
8
BLACK
6
CONTINUOUS
10
5.3160220472440942
20
-3.8885751574803149
11
5.3159371259842523
21
-3.8884772440944881
0
LINE
8
BLACK
6
CONTINUOUS
10
5.3159371259842523
20
-3.8884772440944881
11
5.315817362204724
21
-3.8884276377952753
0
LINE
8
BLACK
6
CONTINUOUS
10
5.315817362204724
20
-3.8884276377952753
11
5.3150674803149602
21
-3.8876777165354328
0
LINE
8
BLACK
6
CONTINUOUS
10
5.3150674803149602
20
-3.8876777165354328
11
5.3149864173228343
21
-3.8874819685039368
0
LINE
8
BLACK
6
CONTINUOUS
10
5.3149864173228343
20
-3.8874819685039368
11
5.314860393700787
21
-3.8873118897637795
0
LINE
8
BLACK
6
CONTINUOUS
10
5.314860393700787
20
-3.8873118897637795
11
5.3144854330708657
21
-3.885812125984252
0
LINE
8
BLACK
6
CONTINUOUS
10
5.3144854330708657
20
-3.885812125984252
11
5.314500118110236
21
-3.8857133464566926
0
LINE
8
BLACK
6
CONTINUOUS
10
5.314500118110236
20
-3.8857133464566926
11
5.3144619291338584
21
-3.8856211417322832
0
LINE
8
BLACK
6
CONTINUOUS
10
5.3144619291338584
20
-3.8856211417322832
11
5.3144619291338584
21
-3.8829964566929132
0
LINE
8
BLACK
6
CONTINUOUS
10
5.3144619291338584
20
-3.8829964566929132
11
5.314500118110236
21
-3.882904212598425
0
LINE
8
BLACK
6
CONTINUOUS
10
5.314500118110236
20
-3.882904212598425
11
5.3144854330708657
21
-3.8828054724409449
0
LINE
8
BLACK
6
CONTINUOUS
10
5.3144854330708657
20
-3.8828054724409449
11
5.314860393700787
21
-3.8813057086614173
0
LINE
8
BLACK
6
CONTINUOUS
10
5.314860393700787
20
-3.8813057086614173
11
5.3149864173228343
21
-3.8811355905511808
0
LINE
8
BLACK
6
CONTINUOUS
10
5.3149864173228343
20
-3.8811355905511808
11
5.3150674803149602
21
-3.8809398818897636
0
LINE
8
BLACK
6
CONTINUOUS
10
5.3150674803149602
20
-3.8809398818897636
11
5.315817362204724
21
-3.8801899606299211
0
LINE
8
BLACK
6
CONTINUOUS
10
5.315817362204724
20
-3.8801899606299211
11
5.3159371259842523
21
-3.8801403149606299
0
LINE
8
BLACK
6
CONTINUOUS
10
5.3159371259842523
20
-3.8801403149606299
11
5.3160220472440942
21
-3.8800424409448819
0
LINE
8
BLACK
6
CONTINUOUS
10
5.3160220472440942
20
-3.8800424409448819
11
5.316771929133858
21
-3.8796675196850394
0
LINE
8
BLACK
6
CONTINUOUS
10
5.316771929133858
20
-3.8796675196850394
11
5.3169546850393701
21
-3.879654527559055
0
LINE
8
BLACK
6
CONTINUOUS
10
5.3169546850393701
20
-3.879654527559055
11
5.3171240944881886
21
-3.87958437007874
0
LINE
8
BLACK
6
CONTINUOUS
10
5.3171240944881886
20
-3.87958437007874
11
5.3186238976377949
21
-3.87958437007874
0
LINE
8
BLACK
6
CONTINUOUS
10
5.3186238976377949
20
-3.87958437007874
11
5.318793188976378
21
-3.8796544881889763
0
LINE
8
BLACK
6
CONTINUOUS
10
5.3168405511811025
20
-3.8813938582677165
11
5.3163352755905509
21
-3.8818992125984253
0
LINE
8
BLACK
6
CONTINUOUS
10
5.3163352755905509
20
-3.8818992125984253
11
5.3160367322834645
21
-3.8830934251968503
0
LINE
8
BLACK
6
CONTINUOUS
10
5.3160367322834645
20
-3.8830934251968503
11
5.3160367322834645
21
-3.8855241338582678
0
LINE
8
BLACK
6
CONTINUOUS
10
5.3160367322834645
20
-3.8855241338582678
11
5.3163352755905509
21
-3.8867183464566928
0
LINE
8
BLACK
6
CONTINUOUS
10
5.3163352755905509
20
-3.8867183464566928
11
5.3168405511811025
21
-3.8872236614173228
0
LINE
8
BLACK
6
CONTINUOUS
10
5.3168405511811025
20
-3.8872236614173228
11
5.31731
21
-3.8874583858267715
0
LINE
8
BLACK
6
CONTINUOUS
10
5.31731
20
-3.8874583858267715
11
5.3184380314960631
21
-3.8874583858267715
0
LINE
8
BLACK
6
CONTINUOUS
10
5.3184380314960631
20
-3.8874583858267715
11
5.3189073228346455
21
-3.8872237401574803
0
LINE
8
BLACK
6
CONTINUOUS
10
5.3189073228346455
20
-3.8872237401574803
11
5.3194126771653538
21
-3.8867183464566928
0
LINE
8
BLACK
6
CONTINUOUS
10
5.3194126771653538
20
-3.8867183464566928
11
5.3197112598425198
21
-3.8855241732283465
0
LINE
8
BLACK
6
CONTINUOUS
10
5.3197112598425198
20
-3.8855241732283465
11
5.3197112598425198
21
-3.8830933858267715
0
LINE
8
BLACK
6
CONTINUOUS
10
5.3197112598425198
20
-3.8830933858267715
11
5.3194126771653538
21
-3.8818992125984253
0
LINE
8
BLACK
6
CONTINUOUS
10
5.3194126771653538
20
-3.8818992125984253
11
5.3189072834645668
21
-3.8813938188976378
0
LINE
8
BLACK
6
CONTINUOUS
10
5.3189072834645668
20
-3.8813938188976378
11
5.3184379921259843
21
-3.8811591732283466
0
LINE
8
BLACK
6
CONTINUOUS
10
5.3184379921259843
20
-3.8811591732283466
11
5.31731
21
-3.8811591732283466
0
LINE
8
BLACK
6
CONTINUOUS
10
5.31731
20
-3.8811591732283466
11
5.3168405511811025
21
-3.8813938582677165
0
LINE
8
BLACK
6
CONTINUOUS
10
5.3289294488188972
20
-3.8798149999999998
11
5.3291600787401574
21
-3.8803717716535431
0
LINE
8
BLACK
6
CONTINUOUS
10
5.3291600787401574
20
-3.8803717716535431
11
5.3291600787401574
21
-3.8867459842519683
0
LINE
8
BLACK
6
CONTINUOUS
10
5.3291600787401574
20
-3.8867459842519683
11
5.3290898818897636
21
-3.8869153543307084
0
LINE
8
BLACK
6
CONTINUOUS
10
5.3290898818897636
20
-3.8869153543307084
11
5.3290769291338584
21
-3.8870981496062993
0
LINE
8
BLACK
6
CONTINUOUS
10
5.3290769291338584
20
-3.8870981496062993
11
5.3287020078740159
21
-3.8878480314960631
0
LINE
8
BLACK
6
CONTINUOUS
10
5.3287020078740159
20
-3.8878480314960631
11
5.3286040944881892
21
-3.8879329133858267
0
LINE
8
BLACK
6
CONTINUOUS
10
5.3286040944881892
20
-3.8879329133858267
11
5.3285545275590547
21
-3.8880526771653541
0
LINE
8
BLACK
6
CONTINUOUS
10
5.3285545275590547
20
-3.8880526771653541
11
5.3281796062992122
21
-3.8884275984251966
0
LINE
8
BLACK
6
CONTINUOUS
10
5.3281796062992122
20
-3.8884275984251966
11
5.3280598425196848
21
-3.8884771653543306
0
LINE
8
BLACK
6
CONTINUOUS
10
5.3280598425196848
20
-3.8884771653543306
11
5.327974921259842
21
-3.8885751574803149
0
LINE
8
BLACK
6
CONTINUOUS
10
5.327974921259842
20
-3.8885751574803149
11
5.3272250000000003
21
-3.8889500787401574
0
LINE
8
BLACK
6
CONTINUOUS
10
5.3272250000000003
20
-3.8889500787401574
11
5.3270421653543307
21
-3.888963031496063
0
LINE
8
BLACK
6
CONTINUOUS
10
5.3270421653543307
20
-3.888963031496063
11
5.3268728740157476
21
-3.8890331889763781
0
LINE
8
BLACK
6
CONTINUOUS
10
5.3268728740157476
20
-3.8890331889763781
11
5.3253730708661413
21
-3.8890331889763781
0
LINE
8
BLACK
6
CONTINUOUS
10
5.3253730708661413
20
-3.8890331889763781
11
5.3252037401574803
21
-3.888963031496063
0
LINE
8
BLACK
6
CONTINUOUS
10
5.3252037401574803
20
-3.888963031496063
11
5.3250209842519682
21
-3.8889500787401574
0
LINE
8
BLACK
6
CONTINUOUS
10
5.3250209842519682
20
-3.8889500787401574
11
5.324271023622047
21
-3.8885751574803149
0
LINE
8
BLACK
6
CONTINUOUS
10
5.324271023622047
20
-3.8885751574803149
11
5.3241860629921263
21
-3.8884772047244094
0
LINE
8
BLACK
6
CONTINUOUS
10
5.3241860629921263
20
-3.8884772047244094
11
5.3240663779527555
21
-3.8884276377952753
0
LINE
8
BLACK
6
CONTINUOUS
10
5.3240663779527555
20
-3.8884276377952753
11
5.3236914173228342
21
-3.8880526771653541
0
LINE
8
BLACK
6
CONTINUOUS
10
5.3236914173228342
20
-3.8880526771653541
11
5.3236418110236219
21
-3.8879329527559054
0
LINE
8
BLACK
6
CONTINUOUS
10
5.3236418110236219
20
-3.8879329527559054
11
5.3235438976377951
21
-3.8878480314960631
0
LINE
8
BLACK
6
CONTINUOUS
10
5.3235438976377951
20
-3.8878480314960631
11
5.3231689763779526
21
-3.8870981102362205
0
LINE
8
BLACK
6
CONTINUOUS
10
5.3231689763779526
20
-3.8870981102362205
11
5.3231559842519687
21
-3.8869152755905509
0
LINE
8
BLACK
6
CONTINUOUS
10
5.3231559842519687
20
-3.8869152755905509
11
5.3230858661417324
21
-3.8867459842519683
0
LINE
8
BLACK
6
CONTINUOUS
10
5.3230858661417324
20
-3.8867459842519683
11
5.3230858661417324
21
-3.8803717716535431
0
LINE
8
BLACK
6
CONTINUOUS
10
5.3230858661417324
20
-3.8803717716535431
11
5.3233164960629917
21
-3.8798149999999998
0
LINE
8
BLACK
6
CONTINUOUS
10
5.3233164960629917
20
-3.8798149999999998
11
5.323873267716535
21
-3.87958437007874
0
LINE
8
BLACK
6
CONTINUOUS
10
5.323873267716535
20
-3.87958437007874
11
5.3244300393700783
21
-3.8798149999999998
0
LINE
8
BLACK
6
CONTINUOUS
10
5.3244300393700783
20
-3.8798149999999998
11
5.3246606692913385
21
-3.8803717716535431
0
LINE
8
BLACK
6
CONTINUOUS
10
5.3246606692913385
20
-3.8803717716535431
11
5.3246606692913385
21
-3.8865600787401573
0
LINE
8
BLACK
6
CONTINUOUS
10
5.3246606692913385
20
-3.8865600787401573
11
5.3248953149606297
21
-3.8870294881889764
0
LINE
8
BLACK
6
CONTINUOUS
10
5.3248953149606297
20
-3.8870294881889764
11
5.3250894881889765
21
-3.8872236614173228
0
LINE
8
BLACK
6
CONTINUOUS
10
5.3250894881889765
20
-3.8872236614173228
11
5.3255589763779527
21
-3.8874583858267715
0
LINE
8
BLACK
6
CONTINUOUS
10
5.3255589763779527
20
-3.8874583858267715
11
5.3266870078740158
21
-3.8874583858267715
0
LINE
8
BLACK
6
CONTINUOUS
10
5.3266870078740158
20
-3.8874583858267715
11
5.327156338582677
21
-3.8872237007874015
0
LINE
8
BLACK
6
CONTINUOUS
10
5.327156338582677
20
-3.8872237007874015
11
5.3273505118110238
21
-3.8870295275590552
0
LINE
8
BLACK
6
CONTINUOUS
10
5.3273505118110238
20
-3.8870295275590552
11
5.3275852755905513
21
-3.8865600787401573
0
LINE
8
BLACK
6
CONTINUOUS
10
5.3275852755905513
20
-3.8865600787401573
11
5.3275852755905513
21
-3.8803717716535431
0
LINE
8
BLACK
6
CONTINUOUS
10
5.3275852755905513
20
-3.8803717716535431
11
5.3278159055118106
21
-3.8798149999999998
0
LINE
8
BLACK
6
CONTINUOUS
10
5.3278159055118106
20
-3.8798149999999998
11
5.3283726771653539
21
-3.87958437007874
0
LINE
8
BLACK
6
CONTINUOUS
10
5.3283726771653539
20
-3.87958437007874
11
5.3289294488188972
21
-3.8798149999999998
0
LINE
8
BLACK
6
CONTINUOUS
10
5.3360535826771649
20
-3.8798149999999998
11
5.3362842125984251
21
-3.8803717716535431
0
LINE
8
BLACK
6
CONTINUOUS
10
5.3362842125984251
20
-3.8803717716535431
11
5.3360535826771649
21
-3.8809285433070864
0
LINE
8
BLACK
6
CONTINUOUS
10
5.3360535826771649
20
-3.8809285433070864
11
5.3354968110236216
21
-3.8811591732283466
0
LINE
8
BLACK
6
CONTINUOUS
10
5.3354968110236216
20
-3.8811591732283466
11
5.3340344881889763
21
-3.8811591732283466
0
LINE
8
BLACK
6
CONTINUOUS
10
5.3340344881889763
20
-3.8811591732283466
11
5.3340344881889763
21
-3.8882457874015746
0
LINE
8
BLACK
6
CONTINUOUS
10
5.3340344881889763
20
-3.8882457874015746
11
5.3338038582677161
21
-3.8888025590551178
0
LINE
8
BLACK
6
CONTINUOUS
10
5.3338038582677161
20
-3.8888025590551178
11
5.3332470866141728
21
-3.8890331889763781
0
LINE
8
BLACK
6
CONTINUOUS
10
5.3332470866141728
20
-3.8890331889763781
11
5.3326903149606295
21
-3.8888025590551178
0
LINE
8
BLACK
6
CONTINUOUS
10
5.3326903149606295
20
-3.8888025590551178
11
5.3324596850393702
21
-3.8882457874015746
0
LINE
8
BLACK
6
CONTINUOUS
10
5.3324596850393702
20
-3.8882457874015746
11
5.3324596850393702
21
-3.8811591732283466
0
LINE
8
BLACK
6
CONTINUOUS
10
5.3324596850393702
20
-3.8811591732283466
11
5.330997362204724
21
-3.8811591732283466
0
LINE
8
BLACK
6
CONTINUOUS
10
5.330997362204724
20
-3.8811591732283466
11
5.3304405905511807
21
-3.8809285433070864
0
LINE
8
BLACK
6
CONTINUOUS
10
5.3304405905511807
20
-3.8809285433070864
11
5.3302099606299214
21
-3.8803717716535431
0
LINE
8
BLACK
6
CONTINUOUS
10
5.3302099606299214
20
-3.8803717716535431
11
5.3304405905511807
21
-3.8798149999999998
0
LINE
8
BLACK
6
CONTINUOUS
10
5.3304405905511807
20
-3.8798149999999998
11
5.330997362204724
21
-3.87958437007874
0
LINE
8
BLACK
6
CONTINUOUS
10
5.330997362204724
20
-3.87958437007874
11
5.3354968110236216
21
-3.87958437007874
0
LINE
8
BLACK
6
CONTINUOUS
10
5.3354968110236216
20
-3.87958437007874
11
5.3360535826771649
21
-3.8798149999999998
0
LINE
8
BLACK
6
CONTINUOUS
10
5.3195430708661418
20
-3.8665311417322834
11
5.3197259055118105
21
-3.8665441338582678
0
LINE
8
BLACK
6
CONTINUOUS
10
5.3197259055118105
20
-3.8665441338582678
11
5.320475826771653
21
-3.866919094488189
0
LINE
8
BLACK
6
CONTINUOUS
10
5.320475826771653
20
-3.866919094488189
11
5.3205607480314958
21
-3.8670170078740158
0
LINE
8
BLACK
6
CONTINUOUS
10
5.3205607480314958
20
-3.8670170078740158
11
5.3206804724409444
21
-3.8670666141732282
0
LINE
8
BLACK
6
CONTINUOUS
10
5.3206804724409444
20
-3.8670666141732282
11
5.3210554330708657
21
-3.8674415748031494
0
LINE
8
BLACK
6
CONTINUOUS
10
5.3210554330708657
20
-3.8674415748031494
11
5.3211050000000002
21
-3.8675612598425197
0
LINE
8
BLACK
6
CONTINUOUS
10
5.3211050000000002
20
-3.8675612598425197
11
5.321202913385827
21
-3.8676461811023621
0
LINE
8
BLACK
6
CONTINUOUS
10
5.321202913385827
20
-3.8676461811023621
11
5.3215778740157482
21
-3.8683960629921259
0
LINE
8
BLACK
6
CONTINUOUS
10
5.3215778740157482
20
-3.8683960629921259
11
5.3215908267716534
21
-3.8685788188976376
0
LINE
8
BLACK
6
CONTINUOUS
10
5.3215908267716534
20
-3.8685788188976376
11
5.3216610236220472
21
-3.8687482283464565
0
LINE
8
BLACK
6
CONTINUOUS
10
5.3216610236220472
20
-3.8687482283464565
11
5.3216610236220472
21
-3.8709979527559053
0
LINE
8
BLACK
6
CONTINUOUS
10
5.3216610236220472
20
-3.8709979527559053
11
5.3215908267716534
21
-3.8711673228346455
0
LINE
8
BLACK
6
CONTINUOUS
10
5.3215908267716534
20
-3.8711673228346455
11
5.3215778740157482
21
-3.8713501181102363
0
LINE
8
BLACK
6
CONTINUOUS
10
5.3215778740157482
20
-3.8713501181102363
11
5.3212029527559057
21
-3.8721000000000001
0
LINE
8
BLACK
6
CONTINUOUS
10
5.3212029527559057
20
-3.8721000000000001
11
5.3211050000000002
21
-3.8721848818897637
0
LINE
8
BLACK
6
CONTINUOUS
10
5.3211050000000002
20
-3.8721848818897637
11
5.3210554330708657
21
-3.8723046456692911
0
LINE
8
BLACK
6
CONTINUOUS
10
5.3210554330708657
20
-3.8723046456692911
11
5.3206804724409444
21
-3.8726796062992124
0
LINE
8
BLACK
6
CONTINUOUS
10
5.3206804724409444
20
-3.8726796062992124
11
5.3205607480314958
21
-3.8727291732283464
0
LINE
8
BLACK
6
CONTINUOUS
10
5.3205607480314958
20
-3.8727291732283464
11
5.320475826771653
21
-3.8728271259842519
0
LINE
8
BLACK
6
CONTINUOUS
10
5.320475826771653
20
-3.8728271259842519
11
5.3197259055118105
21
-3.8732020472440944
0
LINE
8
BLACK
6
CONTINUOUS
10
5.3197259055118105
20
-3.8732020472440944
11
5.3195430708661418
21
-3.8732150000000001
0
LINE
8
BLACK
6
CONTINUOUS
10
5.3195430708661418
20
-3.8732150000000001
11
5.3193737795275586
21
-3.8732851574803147
0
LINE
8
BLACK
6
CONTINUOUS
10
5.3193737795275586
20
-3.8732851574803147
11
5.3179114960629921
21
-3.8732851574803147
0
LINE
8
BLACK
6
CONTINUOUS
10
5.3179114960629921
20
-3.8732851574803147
11
5.3179114960629921
21
-3.8751224409448817
0
LINE
8
BLACK
6
CONTINUOUS
10
5.3179114960629921
20
-3.8751224409448817
11
5.3176808661417319
21
-3.875679212598425
0
LINE
8
BLACK
6
CONTINUOUS
10
5.3176808661417319
20
-3.875679212598425
11
5.3171240944881886
21
-3.8759098425196847
0
LINE
8
BLACK
6
CONTINUOUS
10
5.3171240944881886
20
-3.8759098425196847
11
5.3165673228346453
21
-3.875679212598425
0
LINE
8
BLACK
6
CONTINUOUS
10
5.3165673228346453
20
-3.875679212598425
11
5.316336692913386
21
-3.8751224409448817
0
LINE
8
BLACK
6
CONTINUOUS
10
5.316336692913386
20
-3.8751224409448817
11
5.316336692913386
21
-3.8672484251968502
0
LINE
8
BLACK
6
CONTINUOUS
10
5.316336692913386
20
-3.8672484251968502
11
5.3165673228346453
21
-3.8666916535433069
0
LINE
8
BLACK
6
CONTINUOUS
10
5.3165673228346453
20
-3.8666916535433069
11
5.3171240944881886
21
-3.8664610236220471
0
LINE
8
BLACK
6
CONTINUOUS
10
5.3171240944881886
20
-3.8664610236220471
11
5.3174325590551179
21
-3.8665887795275591
0
LINE
8
BLACK
6
CONTINUOUS
10
5.3174325590551179
20
-3.8665887795275591
11
5.3175218110236218
21
-3.8665441732283465
0
LINE
8
BLACK
6
CONTINUOUS
10
5.3175218110236218
20
-3.8665441732283465
11
5.3177045669291338
21
-3.8665311811023622
0
LINE
8
BLACK
6
CONTINUOUS
10
5.3177045669291338
20
-3.8665311811023622
11
5.3178739763779523
21
-3.8664610236220471
0
LINE
8
BLACK
6
CONTINUOUS
10
5.3178739763779523
20
-3.8664610236220471
11
5.3193737795275586
21
-3.8664610236220471
0
LINE
8
BLACK
6
CONTINUOUS
10
5.3193737795275586
20
-3.8664610236220471
11
5.3195430708661418
21
-3.8665311417322834
0
LINE
8
BLACK
6
CONTINUOUS
10
5.3179114960629921
20
-3.8681099999999997
11
5.3179114960629921
21
-3.8716361417322833
0
LINE
8
BLACK
6
CONTINUOUS
10
5.3179114960629921
20
-3.8716361417322833
11
5.3180598818897638
21
-3.8717103543307085
0
LINE
8
BLACK
6
CONTINUOUS
10
5.3180598818897638
20
-3.8717103543307085
11
5.3191879133858269
21
-3.8717103543307085
0
LINE
8
BLACK
6
CONTINUOUS
10
5.3191879133858269
20
-3.8717103543307085
11
5.3196572834645668
21
-3.8714756692913386
0
LINE
8
BLACK
6
CONTINUOUS
10
5.3196572834645668
20
-3.8714756692913386
11
5.3198514960629923
21
-3.8712814960629922
0
LINE
8
BLACK
6
CONTINUOUS
10
5.3198514960629923
20
-3.8712814960629922
11
5.3200862204724411
21
-3.8708120472440943
0
LINE
8
BLACK
6
CONTINUOUS
10
5.3200862204724411
20
-3.8708120472440943
11
5.3200862204724411
21
-3.8689341338582675
0
LINE
8
BLACK
6
CONTINUOUS
10
5.3200862204724411
20
-3.8689341338582675
11
5.3198515354330711
21
-3.8684647637795275
0
LINE
8
BLACK
6
CONTINUOUS
10
5.3198515354330711
20
-3.8684647637795275
11
5.3196572834645668
21
-3.8682705118110237
0
LINE
8
BLACK
6
CONTINUOUS
10
5.3196572834645668
20
-3.8682705118110237
11
5.3191878740157481
21
-3.8680358267716533
0
LINE
8
BLACK
6
CONTINUOUS
10
5.3191878740157481
20
-3.8680358267716533
11
5.3180598818897638
21
-3.8680358267716533
0
LINE
8
BLACK
6
CONTINUOUS
10
5.3180598818897638
20
-3.8680358267716533
11
5.3179114960629921
21
-3.8681099999999997
0
LINE
8
BLACK
6
CONTINUOUS
10
5.3266671653543307
20
-3.8665311417322834
11
5.3268500000000003
21
-3.8665441338582678
0
LINE
8
BLACK
6
CONTINUOUS
10
5.3268500000000003
20
-3.8665441338582678
11
5.3275999212598428
21
-3.866919094488189
0
LINE
8
BLACK
6
CONTINUOUS
10
5.3275999212598428
20
-3.866919094488189
11
5.3276848425196848
21
-3.8670170078740158
0
LINE
8
BLACK
6
CONTINUOUS
10
5.3276848425196848
20
-3.8670170078740158
11
5.3278045669291334
21
-3.8670666141732282
0
LINE
8
BLACK
6
CONTINUOUS
10
5.3278045669291334
20
-3.8670666141732282
11
5.3281795275590547
21
-3.8674415748031494
0
LINE
8
BLACK
6
CONTINUOUS
10
5.3281795275590547
20
-3.8674415748031494
11
5.3282290944881892
21
-3.8675612598425197
0
LINE
8
BLACK
6
CONTINUOUS
10
5.3282290944881892
20
-3.8675612598425197
11
5.3283270078740159
21
-3.8676461811023621
0
LINE
8
BLACK
6
CONTINUOUS
10
5.3283270078740159
20
-3.8676461811023621
11
5.3287019685039372
21
-3.8683960629921259
0
LINE
8
BLACK
6
CONTINUOUS
10
5.3287019685039372
20
-3.8683960629921259
11
5.3287149212598424
21
-3.8685788188976376
0
LINE
8
BLACK
6
CONTINUOUS
10
5.3287149212598424
20
-3.8685788188976376
11
5.3287851181102361
21
-3.8687482283464565
0
LINE
8
BLACK
6
CONTINUOUS
10
5.3287851181102361
20
-3.8687482283464565
11
5.3287851181102361
21
-3.8709979527559053
0
LINE
8
BLACK
6
CONTINUOUS
10
5.3287851181102361
20
-3.8709979527559053
11
5.3287149212598424
21
-3.8711673228346455
0
LINE
8
BLACK
6
CONTINUOUS
10
5.3287149212598424
20
-3.8711673228346455
11
5.3287019685039372
21
-3.8713501181102363
0
LINE
8
BLACK
6
CONTINUOUS
10
5.3287019685039372
20
-3.8713501181102363
11
5.3283270472440947
21
-3.8721000000000001
0
LINE
8
BLACK
6
CONTINUOUS
10
5.3283270472440947
20
-3.8721000000000001
11
5.3282290944881892
21
-3.8721848818897637
0
LINE
8
BLACK
6
CONTINUOUS
10
5.3282290944881892
20
-3.8721848818897637
11
5.3281795275590547
21
-3.8723046456692911
0
LINE
8
BLACK
6
CONTINUOUS
10
5.3281795275590547
20
-3.8723046456692911
11
5.3278045669291334
21
-3.8726796062992124
0
LINE
8
BLACK
6
CONTINUOUS
10
5.3278045669291334
20
-3.8726796062992124
11
5.3276848425196848
21
-3.8727291732283464
0
LINE
8
BLACK
6
CONTINUOUS
10
5.3276848425196848
20
-3.8727291732283464
11
5.3275999212598428
21
-3.8728271259842519
0
LINE
8
BLACK
6
CONTINUOUS
10
5.3275999212598428
20
-3.8728271259842519
11
5.3268500000000003
21
-3.8732020472440944
0
LINE
8
BLACK
6
CONTINUOUS
10
5.3268500000000003
20
-3.8732020472440944
11
5.3266671653543307
21
-3.8732150000000001
0
LINE
8
BLACK
6
CONTINUOUS
10
5.3266671653543307
20
-3.8732150000000001
11
5.3264978740157476
21
-3.8732851574803147
0
LINE
8
BLACK
6
CONTINUOUS
10
5.3264978740157476
20
-3.8732851574803147
11
5.325035590551181
21
-3.8732851574803147
0
LINE
8
BLACK
6
CONTINUOUS
10
5.325035590551181
20
-3.8732851574803147
11
5.325035590551181
21
-3.8751224409448817
0
LINE
8
BLACK
6
CONTINUOUS
10
5.325035590551181
20
-3.8751224409448817
11
5.3248049606299208
21
-3.875679212598425
0
LINE
8
BLACK
6
CONTINUOUS
10
5.3248049606299208
20
-3.875679212598425
11
5.3242481889763775
21
-3.8759098425196847
0
LINE
8
BLACK
6
CONTINUOUS
10
5.3242481889763775
20
-3.8759098425196847
11
5.3236914173228342
21
-3.875679212598425
0
LINE
8
BLACK
6
CONTINUOUS
10
5.3236914173228342
20
-3.875679212598425
11
5.3234607874015749
21
-3.8751224409448817
0
LINE
8
BLACK
6
CONTINUOUS
10
5.3234607874015749
20
-3.8751224409448817
11
5.3234607874015749
21
-3.8672484251968502
0
LINE
8
BLACK
6
CONTINUOUS
10
5.3234607874015749
20
-3.8672484251968502
11
5.3236914173228342
21
-3.8666916535433069
0
LINE
8
BLACK
6
CONTINUOUS
10
5.3236914173228342
20
-3.8666916535433069
11
5.3242481889763775
21
-3.8664610236220471
0
LINE
8
BLACK
6
CONTINUOUS
10
5.3242481889763775
20
-3.8664610236220471
11
5.3245566535433069
21
-3.8665887795275591
0
LINE
8
BLACK
6
CONTINUOUS
10
5.3245566535433069
20
-3.8665887795275591
11
5.3246459055118107
21
-3.8665441732283465
0
LINE
8
BLACK
6
CONTINUOUS
10
5.3246459055118107
20
-3.8665441732283465
11
5.3248286614173228
21
-3.8665311811023622
0
LINE
8
BLACK
6
CONTINUOUS
10
5.3248286614173228
20
-3.8665311811023622
11
5.3249980708661413
21
-3.8664610236220471
0
LINE
8
BLACK
6
CONTINUOUS
10
5.3249980708661413
20
-3.8664610236220471
11
5.3264978740157476
21
-3.8664610236220471
0
LINE
8
BLACK
6
CONTINUOUS
10
5.3264978740157476
20
-3.8664610236220471
11
5.3266671653543307
21
-3.8665311417322834
0
LINE
8
BLACK
6
CONTINUOUS
10
5.325035590551181
20
-3.8681099999999997
11
5.325035590551181
21
-3.8716361417322833
0
LINE
8
BLACK
6
CONTINUOUS
10
5.325035590551181
20
-3.8716361417322833
11
5.3251839763779527
21
-3.8717103543307085
0
LINE
8
BLACK
6
CONTINUOUS
10
5.3251839763779527
20
-3.8717103543307085
11
5.3263120078740158
21
-3.8717103543307085
0
LINE
8
BLACK
6
CONTINUOUS
10
5.3263120078740158
20
-3.8717103543307085
11
5.3267813779527557
21
-3.8714756692913386
0
LINE
8
BLACK
6
CONTINUOUS
10
5.3267813779527557
20
-3.8714756692913386
11
5.3269755905511813
21
-3.8712814960629922
0
LINE
8
BLACK
6
CONTINUOUS
10
5.3269755905511813
20
-3.8712814960629922
11
5.32721031496063
21
-3.8708120472440943
0
LINE
8
BLACK
6
CONTINUOUS
10
5.32721031496063
20
-3.8708120472440943
11
5.32721031496063
21
-3.8689341338582675
0
LINE
8
BLACK
6
CONTINUOUS
10
5.32721031496063
20
-3.8689341338582675
11
5.3269756299212601
21
-3.8684647637795275
0
LINE
8
BLACK
6
CONTINUOUS
10
5.3269756299212601
20
-3.8684647637795275
11
5.3267813779527557
21
-3.8682705118110237
0
LINE
8
BLACK
6
CONTINUOUS
10
5.3267813779527557
20
-3.8682705118110237
11
5.3263119685039371
21
-3.8680358267716533
0
LINE
8
BLACK
6
CONTINUOUS
10
5.3263119685039371
20
-3.8680358267716533
11
5.3251839763779527
21
-3.8680358267716533
0
LINE
8
BLACK
6
CONTINUOUS
10
5.3251839763779527
20
-3.8680358267716533
11
5.325035590551181
21
-3.8681099999999997
0
LINE
8
BLACK
6
CONTINUOUS
10
5.2858098425196847
20
-3.8640669685039368
11
5.2860404724409449
21
-3.8646237401574801
0
LINE
8
BLACK
6
CONTINUOUS
10
5.2860404724409449
20
-3.8646237401574801
11
5.2860404724409449
21
-3.8724977559055116
0
LINE
8
BLACK
6
CONTINUOUS
10
5.2860404724409449
20
-3.8724977559055116
11
5.2859990551181104
21
-3.8725976377952755
0
LINE
8
BLACK
6
CONTINUOUS
10
5.2859990551181104
20
-3.8725976377952755
11
5.2860127165354331
21
-3.8727049212598423
0
LINE
8
BLACK
6
CONTINUOUS
10
5.2860127165354331
20
-3.8727049212598423
11
5.2858878740157476
21
-3.8728661023622046
0
LINE
8
BLACK
6
CONTINUOUS
10
5.2858878740157476
20
-3.8728661023622046
11
5.2858098425196847
21
-3.8730545275590549
0
LINE
8
BLACK
6
CONTINUOUS
10
5.2858098425196847
20
-3.8730545275590549
11
5.2857099212598424
21
-3.8730958661417323
0
LINE
8
BLACK
6
CONTINUOUS
10
5.2857099212598424
20
-3.8730958661417323
11
5.2856437401574805
21
-3.8731814173228347
0
LINE
8
BLACK
6
CONTINUOUS
10
5.2856437401574805
20
-3.8731814173228347
11
5.2854414173228346
21
-3.8732071259842518
0
LINE
8
BLACK
6
CONTINUOUS
10
5.2854414173228346
20
-3.8732071259842518
11
5.2852530708661414
21
-3.8732851574803147
0
LINE
8
BLACK
6
CONTINUOUS
10
5.2852530708661414
20
-3.8732851574803147
11
5.2851531496062991
21
-3.8732437401574802
0
LINE
8
BLACK
6
CONTINUOUS
10
5.2851531496062991
20
-3.8732437401574802
11
5.2850459055118106
21
-3.8732574015748029
0
LINE
8
BLACK
6
CONTINUOUS
10
5.2850459055118106
20
-3.8732574015748029
11
5.28488468503937
21
-3.8731325590551182
0
LINE
8
BLACK
6
CONTINUOUS
10
5.28488468503937
20
-3.8731325590551182
11
5.2846962992125981
21
-3.8730545275590549
0
LINE
8
BLACK
6
CONTINUOUS
10
5.2846962992125981
20
-3.8730545275590549
11
5.2846549212598424
21
-3.8729546062992126
0
LINE
8
BLACK
6
CONTINUOUS
10
5.2846549212598424
20
-3.8729546062992126
11
5.2845694094488191
21
-3.8728884251968503
0
LINE
8
BLACK
6
CONTINUOUS
10
5.2845694094488191
20
-3.8728884251968503
11
5.281541062992126
21
-3.867588779527559
0
LINE
8
BLACK
6
CONTINUOUS
10
5.281541062992126
20
-3.867588779527559
11
5.281541062992126
21
-3.8724977559055116
0
LINE
8
BLACK
6
CONTINUOUS
10
5.281541062992126
20
-3.8724977559055116
11
5.2813104330708658
21
-3.8730545275590549
0
LINE
8
BLACK
6
CONTINUOUS
10
5.2813104330708658
20
-3.8730545275590549
11
5.2807536614173225
21
-3.8732851574803147
0
LINE
8
BLACK
6
CONTINUOUS
10
5.2807536614173225
20
-3.8732851574803147
11
5.2801968897637792
21
-3.8730545275590549
0
LINE
8
BLACK
6
CONTINUOUS
10
5.2801968897637792
20
-3.8730545275590549
11
5.2799662598425199
21
-3.8724977559055116
0
LINE
8
BLACK
6
CONTINUOUS
10
5.2799662598425199
20
-3.8724977559055116
11
5.2799662598425199
21
-3.8646237401574801
0
LINE
8
BLACK
6
CONTINUOUS
10
5.2799662598425199
20
-3.8646237401574801
11
5.2800076377952756
21
-3.8645238188976379
0
LINE
8
BLACK
6
CONTINUOUS
10
5.2800076377952756
20
-3.8645238188976379
11
5.2799940157480316
21
-3.8644165748031494
0
LINE
8
BLACK
6
CONTINUOUS
10
5.2799940157480316
20
-3.8644165748031494
11
5.2801188188976376
21
-3.8642553543307088
0
LINE
8
BLACK
6
CONTINUOUS
10
5.2801188188976376
20
-3.8642553543307088
11
5.2801968897637792
21
-3.8640669685039368
0
LINE
8
BLACK
6
CONTINUOUS
10
5.2801968897637792
20
-3.8640669685039368
11
5.2802967716535436
21
-3.8640255905511811
0
LINE
8
BLACK
6
CONTINUOUS
10
5.2802967716535436
20
-3.8640255905511811
11
5.2803629921259843
21
-3.8639400787401574
0
LINE
8
BLACK
6
CONTINUOUS
10
5.2803629921259843
20
-3.8639400787401574
11
5.2805652755905514
21
-3.8639143307086612
0
LINE
8
BLACK
6
CONTINUOUS
10
5.2805652755905514
20
-3.8639143307086612
11
5.2807536614173225
21
-3.8638363385826771
0
LINE
8
BLACK
6
CONTINUOUS
10
5.2807536614173225
20
-3.8638363385826771
11
5.2808535433070869
21
-3.8638777165354328
0
LINE
8
BLACK
6
CONTINUOUS
10
5.2808535433070869
20
-3.8638777165354328
11
5.2809608267716532
21
-3.8638640944881888
0
LINE
8
BLACK
6
CONTINUOUS
10
5.2809608267716532
20
-3.8638640944881888
11
5.281122007874016
21
-3.8639888976377952
0
LINE
8
BLACK
6
CONTINUOUS
10
5.281122007874016
20
-3.8639888976377952
11
5.2813104330708658
21
-3.8640669685039368
0
LINE
8
BLACK
6
CONTINUOUS
10
5.2813104330708658
20
-3.8640669685039368
11
5.2813517716535427
21
-3.8641668503937008
0
LINE
8
BLACK
6
CONTINUOUS
10
5.2813517716535427
20
-3.8641668503937008
11
5.2814373228346456
21
-3.8642330708661414
0
LINE
8
BLACK
6
CONTINUOUS
10
5.2814373228346456
20
-3.8642330708661414
11
5.2844656692913388
21
-3.8695326771653544
0
LINE
8
BLACK
6
CONTINUOUS
10
5.2844656692913388
20
-3.8695326771653544
11
5.2844656692913388
21
-3.8646237401574801
0
LINE
8
BLACK
6
CONTINUOUS
10
5.2844656692913388
20
-3.8646237401574801
11
5.2846962992125981
21
-3.8640669685039368
0
LINE
8
BLACK
6
CONTINUOUS
10
5.2846962992125981
20
-3.8640669685039368
11
5.2852530708661414
21
-3.8638363385826771
0
LINE
8
BLACK
6
CONTINUOUS
10
5.2852530708661414
20
-3.8638363385826771
11
5.2858098425196847
21
-3.8640669685039368
0
LINE
8
BLACK
6
CONTINUOUS
10
5.2914216141732284
20
-3.8665311417322834
11
5.2916044488188971
21
-3.8665441338582678
0
LINE
8
BLACK
6
CONTINUOUS
10
5.2916044488188971
20
-3.8665441338582678
11
5.2923543700787397
21
-3.866919094488189
0
LINE
8
BLACK
6
CONTINUOUS
10
5.2923543700787397
20
-3.866919094488189
11
5.2924392913385825
21
-3.8670170078740158
0
LINE
8
BLACK
6
CONTINUOUS
10
5.2924392913385825
20
-3.8670170078740158
11
5.2925590157480311
21
-3.8670666141732282
0
LINE
8
BLACK
6
CONTINUOUS
10
5.2925590157480311
20
-3.8670666141732282
11
5.2929339763779524
21
-3.8674415748031494
0
LINE
8
BLACK
6
CONTINUOUS
10
5.2929339763779524
20
-3.8674415748031494
11
5.2929835433070869
21
-3.8675612598425197
0
LINE
8
BLACK
6
CONTINUOUS
10
5.2929835433070869
20
-3.8675612598425197
11
5.2930814566929136
21
-3.8676461811023621
0
LINE
8
BLACK
6
CONTINUOUS
10
5.2930814566929136
20
-3.8676461811023621
11
5.2934564173228349
21
-3.8683960629921259
0
LINE
8
BLACK
6
CONTINUOUS
10
5.2934564173228349
20
-3.8683960629921259
11
5.2934693700787401
21
-3.8685788188976376
0
LINE
8
BLACK
6
CONTINUOUS
10
5.2934693700787401
20
-3.8685788188976376
11
5.2935395669291339
21
-3.8687482283464565
0
LINE
8
BLACK
6
CONTINUOUS
10
5.2935395669291339
20
-3.8687482283464565
11
5.2935395669291339
21
-3.8709979527559053
0
LINE
8
BLACK
6
CONTINUOUS
10
5.2935395669291339
20
-3.8709979527559053
11
5.2934693700787401
21
-3.8711673228346455
0
LINE
8
BLACK
6
CONTINUOUS
10
5.2934693700787401
20
-3.8711673228346455
11
5.2934564173228349
21
-3.8713501181102363
0
LINE
8
BLACK
6
CONTINUOUS
10
5.2934564173228349
20
-3.8713501181102363
11
5.2930814960629924
21
-3.8721000000000001
0
LINE
8
BLACK
6
CONTINUOUS
10
5.2930814960629924
20
-3.8721000000000001
11
5.2929835433070869
21
-3.8721848818897637
0
LINE
8
BLACK
6
CONTINUOUS
10
5.2929835433070869
20
-3.8721848818897637
11
5.2929339763779524
21
-3.8723046456692911
0
LINE
8
BLACK
6
CONTINUOUS
10
5.2929339763779524
20
-3.8723046456692911
11
5.2925590157480311
21
-3.8726796062992124
0
LINE
8
BLACK
6
CONTINUOUS
10
5.2925590157480311
20
-3.8726796062992124
11
5.2924392913385825
21
-3.8727291732283464
0
LINE
8
BLACK
6
CONTINUOUS
10
5.2924392913385825
20
-3.8727291732283464
11
5.2923543700787397
21
-3.8728271259842519
0
LINE
8
BLACK
6
CONTINUOUS
10
5.2923543700787397
20
-3.8728271259842519
11
5.2916044488188971
21
-3.8732020472440944
0
LINE
8
BLACK
6
CONTINUOUS
10
5.2916044488188971
20
-3.8732020472440944
11
5.2914216141732284
21
-3.8732150000000001
0
LINE
8
BLACK
6
CONTINUOUS
10
5.2914216141732284
20
-3.8732150000000001
11
5.2912523228346453
21
-3.8732851574803147
0
LINE
8
BLACK
6
CONTINUOUS
10
5.2912523228346453
20
-3.8732851574803147
11
5.2901274803149603
21
-3.8732851574803147
0
LINE
8
BLACK
6
CONTINUOUS
10
5.2901274803149603
20
-3.8732851574803147
11
5.2899581496062993
21
-3.8732150000000001
0
LINE
8
BLACK
6
CONTINUOUS
10
5.2899581496062993
20
-3.8732150000000001
11
5.2897753937007872
21
-3.8732020472440944
0
LINE
8
BLACK
6
CONTINUOUS
10
5.2897753937007872
20
-3.8732020472440944
11
5.2890254330708659
21
-3.8728271259842519
0
LINE
8
BLACK
6
CONTINUOUS
10
5.2890254330708659
20
-3.8728271259842519
11
5.2889404724409443
21
-3.8727291338582677
0
LINE
8
BLACK
6
CONTINUOUS
10
5.2889404724409443
20
-3.8727291338582677
11
5.2888207480314957
21
-3.8726795669291336
0
LINE
8
BLACK
6
CONTINUOUS
10
5.2888207480314957
20
-3.8726795669291336
11
5.2884458267716532
21
-3.8723046062992124
0
LINE
8
BLACK
6
CONTINUOUS
10
5.2884458267716532
20
-3.8723046062992124
11
5.2883962204724408
21
-3.8721848818897637
0
LINE
8
BLACK
6
CONTINUOUS
10
5.2883962204724408
20
-3.8721848818897637
11
5.2882983464566928
21
-3.8721000000000001
0
LINE
8
BLACK
6
CONTINUOUS
10
5.2882983464566928
20
-3.8721000000000001
11
5.2879233858267716
21
-3.8713500787401576
0
LINE
8
BLACK
6
CONTINUOUS
10
5.2879233858267716
20
-3.8713500787401576
11
5.2879103937007876
21
-3.871167244094488
0
LINE
8
BLACK
6
CONTINUOUS
10
5.2879103937007876
20
-3.871167244094488
11
5.2878402755905514
21
-3.8709979527559053
0
LINE
8
BLACK
6
CONTINUOUS
10
5.2878402755905514
20
-3.8709979527559053
11
5.2878402755905514
21
-3.8687482283464565
0
LINE
8
BLACK
6
CONTINUOUS
10
5.2878402755905514
20
-3.8687482283464565
11
5.2879103937007876
21
-3.8685788582677163
0
LINE
8
BLACK
6
CONTINUOUS
10
5.2879103937007876
20
-3.8685788582677163
11
5.2879234251968503
21
-3.8683960629921259
0
LINE
8
BLACK
6
CONTINUOUS
10
5.2879234251968503
20
-3.8683960629921259
11
5.2882983464566928
21
-3.8676462204724409
0
LINE
8
BLACK
6
CONTINUOUS
10
5.2882983464566928
20
-3.8676462204724409
11
5.2883962204724408
21
-3.8675612992125985
0
LINE
8
BLACK
6
CONTINUOUS
10
5.2883962204724408
20
-3.8675612992125985
11
5.2884458267716532
21
-3.8674416141732282
0
LINE
8
BLACK
6
CONTINUOUS
10
5.2884458267716532
20
-3.8674416141732282
11
5.2888207480314957
21
-3.8670666535433069
0
LINE
8
BLACK
6
CONTINUOUS
10
5.2888207480314957
20
-3.8670666535433069
11
5.2889404724409443
21
-3.8670170078740158
0
LINE
8
BLACK
6
CONTINUOUS
10
5.2889404724409443
20
-3.8670170078740158
11
5.2890254330708659
21
-3.866919094488189
0
LINE
8
BLACK
6
CONTINUOUS
10
5.2890254330708659
20
-3.866919094488189
11
5.2897753149606297
21
-3.8665441732283465
0
LINE
8
BLACK
6
CONTINUOUS
10
5.2897753149606297
20
-3.8665441732283465
11
5.2899580708661418
21
-3.8665311811023622
0
LINE
8
BLACK
6
CONTINUOUS
10
5.2899580708661418
20
-3.8665311811023622
11
5.2901274803149603
21
-3.8664610236220471
0
LINE
8
BLACK
6
CONTINUOUS
10
5.2901274803149603
20
-3.8664610236220471
11
5.2912523228346453
21
-3.8664610236220471
0
LINE
8
BLACK
6
CONTINUOUS
10
5.2912523228346453
20
-3.8664610236220471
11
5.2914216141732284
21
-3.8665311417322834
0
LINE
8
BLACK
6
CONTINUOUS
10
5.2898440157480318
20
-3.8682705118110237
11
5.2896497244094487
21
-3.8684647637795275
0
LINE
8
BLACK
6
CONTINUOUS
10
5.2896497244094487
20
-3.8684647637795275
11
5.2894150787401575
21
-3.8689340944881887
0
LINE
8
BLACK
6
CONTINUOUS
10
5.2894150787401575
20
-3.8689340944881887
11
5.2894150787401575
21
-3.8708120472440943
0
LINE
8
BLACK
6
CONTINUOUS
10
5.2894150787401575
20
-3.8708120472440943
11
5.2896497637795274
21
-3.8712814566929135
0
LINE
8
BLACK
6
CONTINUOUS
10
5.2896497637795274
20
-3.8712814566929135
11
5.289843976377953
21
-3.8714756692913386
0
LINE
8
BLACK
6
CONTINUOUS
10
5.289843976377953
20
-3.8714756692913386
11
5.2903133858267717
21
-3.8717103543307085
0
LINE
8
BLACK
6
CONTINUOUS
10
5.2903133858267717
20
-3.8717103543307085
11
5.2910664566929135
21
-3.8717103543307085
0
LINE
8
BLACK
6
CONTINUOUS
10
5.2910664566929135
20
-3.8717103543307085
11
5.2915358267716535
21
-3.8714756692913386
0
LINE
8
BLACK
6
CONTINUOUS
10
5.2915358267716535
20
-3.8714756692913386
11
5.291730039370079
21
-3.8712814960629922
0
LINE
8
BLACK
6
CONTINUOUS
10
5.291730039370079
20
-3.8712814960629922
11
5.2919647637795277
21
-3.8708120472440943
0
LINE
8
BLACK
6
CONTINUOUS
10
5.2919647637795277
20
-3.8708120472440943
11
5.2919647637795277
21
-3.8689341338582675
0
LINE
8
BLACK
6
CONTINUOUS
10
5.2919647637795277
20
-3.8689341338582675
11
5.2917300787401578
21
-3.8684647637795275
0
LINE
8
BLACK
6
CONTINUOUS
10
5.2917300787401578
20
-3.8684647637795275
11
5.2915358267716535
21
-3.8682705118110237
0
LINE
8
BLACK
6
CONTINUOUS
10
5.2915358267716535
20
-3.8682705118110237
11
5.2910664173228348
21
-3.8680358267716533
0
LINE
8
BLACK
6
CONTINUOUS
10
5.2910664173228348
20
-3.8680358267716533
11
5.2903133858267717
21
-3.8680358267716533
0
LINE
8
BLACK
6
CONTINUOUS
10
5.2903133858267717
20
-3.8680358267716533
11
5.2898440157480318
21
-3.8682705118110237
0
LINE
8
BLACK
6
CONTINUOUS
10
5.3052452755905515
20
-3.8638859055118111
11
5.3053746062992122
21
-3.8638767322834644
0
LINE
8
BLACK
6
CONTINUOUS
10
5.3053746062992122
20
-3.8638767322834644
11
5.3064994488188972
21
-3.8642517322834644
0
LINE
8
BLACK
6
CONTINUOUS
10
5.3064994488188972
20
-3.8642517322834644
11
5.306637874015748
21
-3.8643717716535431
0
LINE
8
BLACK
6
CONTINUOUS
10
5.306637874015748
20
-3.8643717716535431
11
5.306807204724409
21
-3.8644419291338581
0
LINE
8
BLACK
6
CONTINUOUS
10
5.306807204724409
20
-3.8644419291338581
11
5.3071821653543303
21
-3.8648168897637794
0
LINE
8
BLACK
6
CONTINUOUS
10
5.3071821653543303
20
-3.8648168897637794
11
5.3074127952755905
21
-3.8653736614173226
0
LINE
8
BLACK
6
CONTINUOUS
10
5.3074127952755905
20
-3.8653736614173226
11
5.3071821653543303
21
-3.8659304330708659
0
LINE
8
BLACK
6
CONTINUOUS
10
5.3071821653543303
20
-3.8659304330708659
11
5.306625393700787
21
-3.8661610629921257
0
LINE
8
BLACK
6
CONTINUOUS
10
5.306625393700787
20
-3.8661610629921257
11
5.3060686220472437
21
-3.8659304330708659
0
LINE
8
BLACK
6
CONTINUOUS
10
5.3060686220472437
20
-3.8659304330708659
11
5.3058251181102358
21
-3.865686929133858
0
LINE
8
BLACK
6
CONTINUOUS
10
5.3058251181102358
20
-3.865686929133858
11
5.3049977559055117
21
-3.8654111417322832
0
LINE
8
BLACK
6
CONTINUOUS
10
5.3049977559055117
20
-3.8654111417322832
11
5.3045033858267718
21
-3.8654111417322832
0
LINE
8
BLACK
6
CONTINUOUS
10
5.3045033858267718
20
-3.8654111417322832
11
5.3036761023622043
21
-3.865686929133858
0
LINE
8
BLACK
6
CONTINUOUS
10
5.3036761023622043
20
-3.865686929133858
11
5.3031480708661416
21
-3.8662149606299212
0
LINE
8
BLACK
6
CONTINUOUS
10
5.3031480708661416
20
-3.8662149606299212
11
5.3028688976377953
21
-3.8667733070866142
0
LINE
8
BLACK
6
CONTINUOUS
10
5.3028688976377953
20
-3.8667733070866142
11
5.3025384251968504
21
-3.8680953149606299
0
LINE
8
BLACK
6
CONTINUOUS
10
5.3025384251968504
20
-3.8680953149606299
11
5.3025384251968504
21
-3.8690261811023623
0
LINE
8
BLACK
6
CONTINUOUS
10
5.3025384251968504
20
-3.8690261811023623
11
5.3028688976377953
21
-3.8703481496062992
0
LINE
8
BLACK
6
CONTINUOUS
10
5.3028688976377953
20
-3.8703481496062992
11
5.3031480314960628
21
-3.8709064960629922
0
LINE
8
BLACK
6
CONTINUOUS
10
5.3031480314960628
20
-3.8709064960629922
11
5.3036761023622043
21
-3.8714345669291337
0
LINE
8
BLACK
6
CONTINUOUS
10
5.3036761023622043
20
-3.8714345669291337
11
5.3045034645669293
21
-3.8717103543307085
0
LINE
8
BLACK
6
CONTINUOUS
10
5.3045034645669293
20
-3.8717103543307085
11
5.3049977952755905
21
-3.8717103543307085
0
LINE
8
BLACK
6
CONTINUOUS
10
5.3049977952755905
20
-3.8717103543307085
11
5.3058251181102358
21
-3.8714345669291337
0
LINE
8
BLACK
6
CONTINUOUS
10
5.3058251181102358
20
-3.8714345669291337
11
5.3060686220472437
21
-3.8711911023622045
0
LINE
8
BLACK
6
CONTINUOUS
10
5.3060686220472437
20
-3.8711911023622045
11
5.306625393700787
21
-3.8709604724409448
0
LINE
8
BLACK
6
CONTINUOUS
10
5.306625393700787
20
-3.8709604724409448
11
5.3071821653543303
21
-3.8711911023622045
0
LINE
8
BLACK
6
CONTINUOUS
10
5.3071821653543303
20
-3.8711911023622045
11
5.3074127952755905
21
-3.8717478740157478
0
LINE
8
BLACK
6
CONTINUOUS
10
5.3074127952755905
20
-3.8717478740157478
11
5.3071821653543303
21
-3.8723046456692911
0
LINE
8
BLACK
6
CONTINUOUS
10
5.3071821653543303
20
-3.8723046456692911
11
5.306807204724409
21
-3.8726796062992124
0
LINE
8
BLACK
6
CONTINUOUS
10
5.306807204724409
20
-3.8726796062992124
11
5.306637874015748
21
-3.8727497244094486
0
LINE
8
BLACK
6
CONTINUOUS
10
5.306637874015748
20
-3.8727497244094486
11
5.3064994094488185
21
-3.8728698425196848
0
LINE
8
BLACK
6
CONTINUOUS
10
5.3064994094488185
20
-3.8728698425196848
11
5.3053745669291335
21
-3.8732447637795273
0
LINE
8
BLACK
6
CONTINUOUS
10
5.3053745669291335
20
-3.8732447637795273
11
5.3052452755905515
21
-3.8732355511811023
0
LINE
8
BLACK
6
CONTINUOUS
10
5.3052452755905515
20
-3.8732355511811023
11
5.3051255905511807
21
-3.8732851574803147
0
LINE
8
BLACK
6
CONTINUOUS
10
5.3051255905511807
20
-3.8732851574803147
11
5.3043756692913382
21
-3.8732851574803147
0
LINE
8
BLACK
6
CONTINUOUS
10
5.3043756692913382
20
-3.8732851574803147
11
5.3042559448818896
21
-3.8732355511811023
0
LINE
8
BLACK
6
CONTINUOUS
10
5.3042559448818896
20
-3.8732355511811023
11
5.3041266929133855
21
-3.8732447637795273
0
LINE
8
BLACK
6
CONTINUOUS
10
5.3041266929133855
20
-3.8732447637795273
11
5.3030018503937004
21
-3.8728698425196848
0
LINE
8
BLACK
6
CONTINUOUS
10
5.3030018503937004
20
-3.8728698425196848
11
5.302863346456693
21
-3.8727497244094486
0
LINE
8
BLACK
6
CONTINUOUS
10
5.302863346456693
20
-3.8727497244094486
11
5.3026940551181099
21
-3.8726796062992124
0
LINE
8
BLACK
6
CONTINUOUS
10
5.3026940551181099
20
-3.8726796062992124
11
5.3019441338582673
21
-3.8719296850393699
0
LINE
8
BLACK
6
CONTINUOUS
10
5.3019441338582673
20
-3.8719296850393699
11
5.301894527559055
21
-3.8718099606299212
0
LINE
8
BLACK
6
CONTINUOUS
10
5.301894527559055
20
-3.8718099606299212
11
5.3017966141732282
21
-3.8717250393700788
0
LINE
8
BLACK
6
CONTINUOUS
10
5.3017966141732282
20
-3.8717250393700788
11
5.3014216929133857
21
-3.8709751181102363
0
LINE
8
BLACK
6
CONTINUOUS
10
5.3014216929133857
20
-3.8709751181102363
11
5.3014153149606296
21
-3.8708858267716533
0
LINE
8
BLACK
6
CONTINUOUS
10
5.3014153149606296
20
-3.8708858267716533
11
5.3013620866141729
21
-3.870813937007874
0
LINE
8
BLACK
6
CONTINUOUS
10
5.3013620866141729
20
-3.870813937007874
11
5.3009871259842516
21
-3.8693141732283465
0
LINE
8
BLACK
6
CONTINUOUS
10
5.3009871259842516
20
-3.8693141732283465
11
5.3010018110236219
21
-3.8692153937007872
0
LINE
8
BLACK
6
CONTINUOUS
10
5.3010018110236219
20
-3.8692153937007872
11
5.3009636220472443
21
-3.8691231889763777
0
LINE
8
BLACK
6
CONTINUOUS
10
5.3009636220472443
20
-3.8691231889763777
11
5.3009636220472443
21
-3.8679983464566927
0
LINE
8
BLACK
6
CONTINUOUS
10
5.3009636220472443
20
-3.8679983464566927
11
5.3010018110236219
21
-3.8679061023622046
0
LINE
8
BLACK
6
CONTINUOUS
10
5.3010018110236219
20
-3.8679061023622046
11
5.3009871259842516
21
-3.8678073622047244
0
LINE
8
BLACK
6
CONTINUOUS
10
5.3009871259842516
20
-3.8678073622047244
11
5.3013620866141729
21
-3.8663075590551181
0
LINE
8
BLACK
6
CONTINUOUS
10
5.3013620866141729
20
-3.8663075590551181
11
5.3014153149606296
21
-3.8662356299212597
0
LINE
8
BLACK
6
CONTINUOUS
10
5.3014153149606296
20
-3.8662356299212597
11
5.3014216929133857
21
-3.8661463779527558
0
LINE
8
BLACK
6
CONTINUOUS
10
5.3014216929133857
20
-3.8661463779527558
11
5.3017966141732282
21
-3.8653964960629921
0
LINE
8
BLACK
6
CONTINUOUS
10
5.3017966141732282
20
-3.8653964960629921
11
5.301894527559055
21
-3.8653115354330709
0
LINE
8
BLACK
6
CONTINUOUS
10
5.301894527559055
20
-3.8653115354330709
11
5.3019441338582673
21
-3.8651918503937006
0
LINE
8
BLACK
6
CONTINUOUS
10
5.3019441338582673
20
-3.8651918503937006
11
5.3026940551181099
21
-3.8644419291338581
0
LINE
8
BLACK
6
CONTINUOUS
10
5.3026940551181099
20
-3.8644419291338581
11
5.3028633070866142
21
-3.8643717716535431
0
LINE
8
BLACK
6
CONTINUOUS
10
5.3028633070866142
20
-3.8643717716535431
11
5.3030018110236217
21
-3.8642516929133857
0
LINE
8
BLACK
6
CONTINUOUS
10
5.3030018110236217
20
-3.8642516929133857
11
5.3041266929133855
21
-3.8638767322834644
0
LINE
8
BLACK
6
CONTINUOUS
10
5.3041266929133855
20
-3.8638767322834644
11
5.3042559448818896
21
-3.8638859055118111
0
LINE
8
BLACK
6
CONTINUOUS
10
5.3042559448818896
20
-3.8638859055118111
11
5.3043756692913382
21
-3.8638363385826771
0
LINE
8
BLACK
6
CONTINUOUS
10
5.3043756692913382
20
-3.8638363385826771
11
5.3051255905511807
21
-3.8638363385826771
0
LINE
8
BLACK
6
CONTINUOUS
10
5.3051255905511807
20
-3.8638363385826771
11
5.3052452755905515
21
-3.8638859055118111
0
LINE
8
BLACK
6
CONTINUOUS
10
5.3124189763779528
20
-3.8665311417322834
11
5.3126018110236215
21
-3.8665441338582678
0
LINE
8
BLACK
6
CONTINUOUS
10
5.3126018110236215
20
-3.8665441338582678
11
5.313351732283464
21
-3.866919094488189
0
LINE
8
BLACK
6
CONTINUOUS
10
5.313351732283464
20
-3.866919094488189
11
5.3134366535433069
21
-3.8670170078740158
0
LINE
8
BLACK
6
CONTINUOUS
10
5.3134366535433069
20
-3.8670170078740158
11
5.3135563779527555
21
-3.8670666141732282
0
LINE
8
BLACK
6
CONTINUOUS
10
5.3135563779527555
20
-3.8670666141732282
11
5.3139313385826767
21
-3.8674415748031494
0
LINE
8
BLACK
6
CONTINUOUS
10
5.3139313385826767
20
-3.8674415748031494
11
5.3139809055118112
21
-3.8675612598425197
0
LINE
8
BLACK
6
CONTINUOUS
10
5.3139809055118112
20
-3.8675612598425197
11
5.314078818897638
21
-3.8676461811023621
0
LINE
8
BLACK
6
CONTINUOUS
10
5.314078818897638
20
-3.8676461811023621
11
5.3144537795275593
21
-3.8683960629921259
0
LINE
8
BLACK
6
CONTINUOUS
10
5.3144537795275593
20
-3.8683960629921259
11
5.3144667322834644
21
-3.8685788188976376
0
LINE
8
BLACK
6
CONTINUOUS
10
5.3144667322834644
20
-3.8685788188976376
11
5.3145369291338582
21
-3.8687482283464565
0
LINE
8
BLACK
6
CONTINUOUS
10
5.3145369291338582
20
-3.8687482283464565
11
5.3145369291338582
21
-3.8709979527559053
0
LINE
8
BLACK
6
CONTINUOUS
10
5.3145369291338582
20
-3.8709979527559053
11
5.3144667322834644
21
-3.8711673228346455
0
LINE
8
BLACK
6
CONTINUOUS
10
5.3144667322834644
20
-3.8711673228346455
11
5.3144537795275593
21
-3.8713501181102363
0
LINE
8
BLACK
6
CONTINUOUS
10
5.3144537795275593
20
-3.8713501181102363
11
5.3140788582677168
21
-3.8721000000000001
0
LINE
8
BLACK
6
CONTINUOUS
10
5.3140788582677168
20
-3.8721000000000001
11
5.3139809055118112
21
-3.8721848818897637
0
LINE
8
BLACK
6
CONTINUOUS
10
5.3139809055118112
20
-3.8721848818897637
11
5.3139313385826767
21
-3.8723046456692911
0
LINE
8
BLACK
6
CONTINUOUS
10
5.3139313385826767
20
-3.8723046456692911
11
5.3135563779527555
21
-3.8726796062992124
0
LINE
8
BLACK
6
CONTINUOUS
10
5.3135563779527555
20
-3.8726796062992124
11
5.3134366535433069
21
-3.8727291732283464
0
LINE
8
BLACK
6
CONTINUOUS
10
5.3134366535433069
20
-3.8727291732283464
11
5.313351732283464
21
-3.8728271259842519
0
LINE
8
BLACK
6
CONTINUOUS
10
5.313351732283464
20
-3.8728271259842519
11
5.3126018110236215
21
-3.8732020472440944
0
LINE
8
BLACK
6
CONTINUOUS
10
5.3126018110236215
20
-3.8732020472440944
11
5.3124189763779528
21
-3.8732150000000001
0
LINE
8
BLACK
6
CONTINUOUS
10
5.3124189763779528
20
-3.8732150000000001
11
5.3122496850393697
21
-3.8732851574803147
0
LINE
8
BLACK
6
CONTINUOUS
10
5.3122496850393697
20
-3.8732851574803147
11
5.3111248425196846
21
-3.8732851574803147
0
LINE
8
BLACK
6
CONTINUOUS
10
5.3111248425196846
20
-3.8732851574803147
11
5.3109555118110237
21
-3.8732150000000001
0
LINE
8
BLACK
6
CONTINUOUS
10
5.3109555118110237
20
-3.8732150000000001
11
5.3107727559055116
21
-3.8732020472440944
0
LINE
8
BLACK
6
CONTINUOUS
10
5.3107727559055116
20
-3.8732020472440944
11
5.3100227952755903
21
-3.8728271259842519
0
LINE
8
BLACK
6
CONTINUOUS
10
5.3100227952755903
20
-3.8728271259842519
11
5.3099378346456696
21
-3.8727291338582677
0
LINE
8
BLACK
6
CONTINUOUS
10
5.3099378346456696
20
-3.8727291338582677
11
5.3098181102362201
21
-3.8726795669291336
0
LINE
8
BLACK
6
CONTINUOUS
10
5.3098181102362201
20
-3.8726795669291336
11
5.3094431889763776
21
-3.8723046062992124
0
LINE
8
BLACK
6
CONTINUOUS
10
5.3094431889763776
20
-3.8723046062992124
11
5.3093935826771652
21
-3.8721848818897637
0
LINE
8
BLACK
6
CONTINUOUS
10
5.3093935826771652
20
-3.8721848818897637
11
5.3092957086614172
21
-3.8721000000000001
0
LINE
8
BLACK
6
CONTINUOUS
10
5.3092957086614172
20
-3.8721000000000001
11
5.3089207480314959
21
-3.8713500787401576
0
LINE
8
BLACK
6
CONTINUOUS
10
5.3089207480314959
20
-3.8713500787401576
11
5.308907755905512
21
-3.871167244094488
0
LINE
8
BLACK
6
CONTINUOUS
10
5.308907755905512
20
-3.871167244094488
11
5.3088376377952757
21
-3.8709979527559053
0
LINE
8
BLACK
6
CONTINUOUS
10
5.3088376377952757
20
-3.8709979527559053
11
5.3088376377952757
21
-3.8687482283464565
0
LINE
8
BLACK
6
CONTINUOUS
10
5.3088376377952757
20
-3.8687482283464565
11
5.308907755905512
21
-3.8685788582677163
0
LINE
8
BLACK
6
CONTINUOUS
10
5.308907755905512
20
-3.8685788582677163
11
5.3089207874015747
21
-3.8683960629921259
0
LINE
8
BLACK
6
CONTINUOUS
10
5.3089207874015747
20
-3.8683960629921259
11
5.3092957086614172
21
-3.8676462204724409
0
LINE
8
BLACK
6
CONTINUOUS
10
5.3092957086614172
20
-3.8676462204724409
11
5.3093935826771652
21
-3.8675612992125985
0
LINE
8
BLACK
6
CONTINUOUS
10
5.3093935826771652
20
-3.8675612992125985
11
5.3094431889763776
21
-3.8674416141732282
0
LINE
8
BLACK
6
CONTINUOUS
10
5.3094431889763776
20
-3.8674416141732282
11
5.3098181102362201
21
-3.8670666535433069
0
LINE
8
BLACK
6
CONTINUOUS
10
5.3098181102362201
20
-3.8670666535433069
11
5.3099378346456696
21
-3.8670170078740158
0
LINE
8
BLACK
6
CONTINUOUS
10
5.3099378346456696
20
-3.8670170078740158
11
5.3100227952755903
21
-3.866919094488189
0
LINE
8
BLACK
6
CONTINUOUS
10
5.3100227952755903
20
-3.866919094488189
11
5.3107726771653541
21
-3.8665441732283465
0
LINE
8
BLACK
6
CONTINUOUS
10
5.3107726771653541
20
-3.8665441732283465
11
5.3109554330708661
21
-3.8665311811023622
0
LINE
8
BLACK
6
CONTINUOUS
10
5.3109554330708661
20
-3.8665311811023622
11
5.3111248425196846
21
-3.8664610236220471
0
LINE
8
BLACK
6
CONTINUOUS
10
5.3111248425196846
20
-3.8664610236220471
11
5.3122496850393697
21
-3.8664610236220471
0
LINE
8
BLACK
6
CONTINUOUS
10
5.3122496850393697
20
-3.8664610236220471
11
5.3124189763779528
21
-3.8665311417322834
0
LINE
8
BLACK
6
CONTINUOUS
10
5.3108413779527561
20
-3.8682705118110237
11
5.3106470866141731
21
-3.8684647637795275
0
LINE
8
BLACK
6
CONTINUOUS
10
5.3106470866141731
20
-3.8684647637795275
11
5.3104124409448819
21
-3.8689340944881887
0
LINE
8
BLACK
6
CONTINUOUS
10
5.3104124409448819
20
-3.8689340944881887
11
5.3104124409448819
21
-3.8708120472440943
0
LINE
8
BLACK
6
CONTINUOUS
10
5.3104124409448819
20
-3.8708120472440943
11
5.3106471259842518
21
-3.8712814566929135
0
LINE
8
BLACK
6
CONTINUOUS
10
5.3106471259842518
20
-3.8712814566929135
11
5.3108413385826774
21
-3.8714756692913386
0
LINE
8
BLACK
6
CONTINUOUS
10
5.3108413385826774
20
-3.8714756692913386
11
5.3113107480314961
21
-3.8717103543307085
0
LINE
8
BLACK
6
CONTINUOUS
10
5.3113107480314961
20
-3.8717103543307085
11
5.3120638188976379
21
-3.8717103543307085
0
LINE
8
BLACK
6
CONTINUOUS
10
5.3120638188976379
20
-3.8717103543307085
11
5.3125331889763778
21
-3.8714756692913386
0
LINE
8
BLACK
6
CONTINUOUS
10
5.3125331889763778
20
-3.8714756692913386
11
5.3127274015748034
21
-3.8712814960629922
0
LINE
8
BLACK
6
CONTINUOUS
10
5.3127274015748034
20
-3.8712814960629922
11
5.3129621259842521
21
-3.8708120472440943
0
LINE
8
BLACK
6
CONTINUOUS
10
5.3129621259842521
20
-3.8708120472440943
11
5.3129621259842521
21
-3.8689341338582675
0
LINE
8
BLACK
6
CONTINUOUS
10
5.3129621259842521
20
-3.8689341338582675
11
5.3127274409448821
21
-3.8684647637795275
0
LINE
8
BLACK
6
CONTINUOUS
10
5.3127274409448821
20
-3.8684647637795275
11
5.3125331889763778
21
-3.8682705118110237
0
LINE
8
BLACK
6
CONTINUOUS
10
5.3125331889763778
20
-3.8682705118110237
11
5.3120637795275591
21
-3.8680358267716533
0
LINE
8
BLACK
6
CONTINUOUS
10
5.3120637795275591
20
-3.8680358267716533
11
5.3113107480314961
21
-3.8680358267716533
0
LINE
8
BLACK
6
CONTINUOUS
10
5.3113107480314961
20
-3.8680358267716533
11
5.3108413779527561
21
-3.8682705118110237
0
LINE
8
BLACK
6
CONTINUOUS
10
5.3337912598425197
20
-3.8665311417322834
11
5.3339740944881893
21
-3.8665441338582678
0
LINE
8
BLACK
6
CONTINUOUS
10
5.3339740944881893
20
-3.8665441338582678
11
5.3347240157480318
21
-3.866919094488189
0
LINE
8
BLACK
6
CONTINUOUS
10
5.3347240157480318
20
-3.866919094488189
11
5.3348875590551179
21
-3.8671076377952756
0
LINE
8
BLACK
6
CONTINUOUS
10
5.3348875590551179
20
-3.8671076377952756
11
5.3350761417322836
21
-3.8672712204724409
0
LINE
8
BLACK
6
CONTINUOUS
10
5.3350761417322836
20
-3.8672712204724409
11
5.3354511023622049
21
-3.8680211023622046
0
LINE
8
BLACK
6
CONTINUOUS
10
5.3354511023622049
20
-3.8680211023622046
11
5.3354640551181101
21
-3.8682038582677163
0
LINE
8
BLACK
6
CONTINUOUS
10
5.3354640551181101
20
-3.8682038582677163
11
5.3355342519685038
21
-3.8683732677165352
0
LINE
8
BLACK
6
CONTINUOUS
10
5.3355342519685038
20
-3.8683732677165352
11
5.3355342519685038
21
-3.8691231889763777
0
LINE
8
BLACK
6
CONTINUOUS
10
5.3355342519685038
20
-3.8691231889763777
11
5.335446456692913
21
-3.8693350393700787
0
LINE
8
BLACK
6
CONTINUOUS
10
5.335446456692913
20
-3.8693350393700787
11
5.3354020078740154
21
-3.8695599606299211
0
LINE
8
BLACK
6
CONTINUOUS
10
5.3354020078740154
20
-3.8695599606299211
11
5.3353346062992122
21
-3.8696050393700787
0
LINE
8
BLACK
6
CONTINUOUS
10
5.3353346062992122
20
-3.8696050393700787
11
5.3353036220472436
21
-3.869679960629921
0
LINE
8
BLACK
6
CONTINUOUS
10
5.3353036220472436
20
-3.869679960629921
11
5.3350918110236218
21
-3.8697676771653544
0
LINE
8
BLACK
6
CONTINUOUS
10
5.3350918110236218
20
-3.8697676771653544
11
5.3349012598425194
21
-3.8698953149606297
0
LINE
8
BLACK
6
CONTINUOUS
10
5.3349012598425194
20
-3.8698953149606297
11
5.3317847244094487
21
-3.8705186220472441
0
LINE
8
BLACK
6
CONTINUOUS
10
5.3317847244094487
20
-3.8705186220472441
11
5.3317847244094487
21
-3.8711870078740156
0
LINE
8
BLACK
6
CONTINUOUS
10
5.3317847244094487
20
-3.8711870078740156
11
5.3319591338582679
21
-3.871535905511811
0
LINE
8
BLACK
6
CONTINUOUS
10
5.3319591338582679
20
-3.871535905511811
11
5.3323080708661417
21
-3.8717103543307085
0
LINE
8
BLACK
6
CONTINUOUS
10
5.3323080708661417
20
-3.8717103543307085
11
5.3334361023622048
21
-3.8717103543307085
0
LINE
8
BLACK
6
CONTINUOUS
10
5.3334361023622048
20
-3.8717103543307085
11
5.334019803149606
21
-3.8714185433070867
0
LINE
8
BLACK
6
CONTINUOUS
10
5.334019803149606
20
-3.8714185433070867
11
5.3346209055118106
21
-3.8713758661417321
0
LINE
8
BLACK
6
CONTINUOUS
10
5.3346209055118106
20
-3.8713758661417321
11
5.3350761811023624
21
-3.8717707086614173
0
LINE
8
BLACK
6
CONTINUOUS
10
5.3350761811023624
20
-3.8717707086614173
11
5.335118858267716
21
-3.8723718503937006
0
LINE
8
BLACK
6
CONTINUOUS
10
5.335118858267716
20
-3.8723718503937006
11
5.3347240157480318
21
-3.8728271259842519
0
LINE
8
BLACK
6
CONTINUOUS
10
5.3347240157480318
20
-3.8728271259842519
11
5.3339740944881893
21
-3.8732020472440944
0
LINE
8
BLACK
6
CONTINUOUS
10
5.3339740944881893
20
-3.8732020472440944
11
5.3337912598425197
21
-3.8732150000000001
0
LINE
8
BLACK
6
CONTINUOUS
10
5.3337912598425197
20
-3.8732150000000001
11
5.3336219685039366
21
-3.8732851574803147
0
LINE
8
BLACK
6
CONTINUOUS
10
5.3336219685039366
20
-3.8732851574803147
11
5.3321221653543303
21
-3.8732851574803147
0
LINE
8
BLACK
6
CONTINUOUS
10
5.3321221653543303
20
-3.8732851574803147
11
5.3319528346456693
21
-3.8732150000000001
0
LINE
8
BLACK
6
CONTINUOUS
10
5.3319528346456693
20
-3.8732150000000001
11
5.3317700393700784
21
-3.8732020472440944
0
LINE
8
BLACK
6
CONTINUOUS
10
5.3317700393700784
20
-3.8732020472440944
11
5.3310201574803147
21
-3.8728271259842519
0
LINE
8
BLACK
6
CONTINUOUS
10
5.3310201574803147
20
-3.8728271259842519
11
5.3308565748031498
21
-3.8726385039370079
0
LINE
8
BLACK
6
CONTINUOUS
10
5.3308565748031498
20
-3.8726385039370079
11
5.3306679921259841
21
-3.8724749606299214
0
LINE
8
BLACK
6
CONTINUOUS
10
5.3306679921259841
20
-3.8724749606299214
11
5.3302930314960628
21
-3.8717250393700788
0
LINE
8
BLACK
6
CONTINUOUS
10
5.3302930314960628
20
-3.8717250393700788
11
5.3302800393700789
21
-3.8715422047244092
0
LINE
8
BLACK
6
CONTINUOUS
10
5.3302800393700789
20
-3.8715422047244092
11
5.3302099212598426
21
-3.8713729133858266
0
LINE
8
BLACK
6
CONTINUOUS
10
5.3302099212598426
20
-3.8713729133858266
11
5.3302099212598426
21
-3.8683732677165352
0
LINE
8
BLACK
6
CONTINUOUS
10
5.3302099212598426
20
-3.8683732677165352
11
5.3302800393700789
21
-3.868203897637795
0
LINE
8
BLACK
6
CONTINUOUS
10
5.3302800393700789
20
-3.868203897637795
11
5.3302930708661416
21
-3.8680211023622046
0
LINE
8
BLACK
6
CONTINUOUS
10
5.3302930708661416
20
-3.8680211023622046
11
5.3306679921259841
21
-3.8672712598425196
0
LINE
8
BLACK
6
CONTINUOUS
10
5.3306679921259841
20
-3.8672712598425196
11
5.3308564960629923
21
-3.8671077559055118
0
LINE
8
BLACK
6
CONTINUOUS
10
5.3308564960629923
20
-3.8671077559055118
11
5.3310201181102359
21
-3.8669191338582678
0
LINE
8
BLACK
6
CONTINUOUS
10
5.3310201181102359
20
-3.8669191338582678
11
5.3317699999999997
21
-3.8665441732283465
0
LINE
8
BLACK
6
CONTINUOUS
10
5.3317699999999997
20
-3.8665441732283465
11
5.3319527559055118
21
-3.8665311811023622
0
LINE
8
BLACK
6
CONTINUOUS
10
5.3319527559055118
20
-3.8665311811023622
11
5.3321221653543303
21
-3.8664610236220471
0
LINE
8
BLACK
6
CONTINUOUS
10
5.3321221653543303
20
-3.8664610236220471
11
5.3336219685039366
21
-3.8664610236220471
0
LINE
8
BLACK
6
CONTINUOUS
10
5.3336219685039366
20
-3.8664610236220471
11
5.3337912598425197
21
-3.8665311417322834
0
LINE
8
BLACK
6
CONTINUOUS
10
5.3319591338582679
20
-3.8682102755905512
11
5.3317847244094487
21
-3.8685591338582674
0
LINE
8
BLACK
6
CONTINUOUS
10
5.3317847244094487
20
-3.8685591338582674
11
5.3317847244094487
21
-3.8689125984251969
0
LINE
8
BLACK
6
CONTINUOUS
10
5.3317847244094487
20
-3.8689125984251969
11
5.3339223622047243
21
-3.8684850393700785
0
LINE
8
BLACK
6
CONTINUOUS
10
5.3339223622047243
20
-3.8684850393700785
11
5.3337849999999998
21
-3.8682102755905512
0
LINE
8
BLACK
6
CONTINUOUS
10
5.3337849999999998
20
-3.8682102755905512
11
5.333436062992126
21
-3.8680358267716533
0
LINE
8
BLACK
6
CONTINUOUS
10
5.333436062992126
20
-3.8680358267716533
11
5.3323080708661417
21
-3.8680358267716533
0
LINE
8
BLACK
6
CONTINUOUS
10
5.3323080708661417
20
-3.8680358267716533
11
5.3319591338582679
21
-3.8682102755905512
0
LINE
8
BLACK
6
CONTINUOUS
10
5.3409279133858263
20
-3.8666916535433069
11
5.3411585433070865
21
-3.8672484251968502
0
LINE
8
BLACK
6
CONTINUOUS
10
5.3411585433070865
20
-3.8672484251968502
11
5.3409279133858263
21
-3.8678051968503935
0
LINE
8
BLACK
6
CONTINUOUS
10
5.3409279133858263
20
-3.8678051968503935
11
5.340371141732283
21
-3.8680358267716533
0
LINE
8
BLACK
6
CONTINUOUS
10
5.340371141732283
20
-3.8680358267716533
11
5.3398071653543306
21
-3.8680358267716533
0
LINE
8
BLACK
6
CONTINUOUS
10
5.3398071653543306
20
-3.8680358267716533
11
5.3393377165354332
21
-3.8682705511811024
0
LINE
8
BLACK
6
CONTINUOUS
10
5.3393377165354332
20
-3.8682705511811024
11
5.3391435433070864
21
-3.86846468503937
0
LINE
8
BLACK
6
CONTINUOUS
10
5.3391435433070864
20
-3.86846468503937
11
5.3389088582677164
21
-3.8689340944881887
0
LINE
8
BLACK
6
CONTINUOUS
10
5.3389088582677164
20
-3.8689340944881887
11
5.3389088582677164
21
-3.8724977559055116
0
LINE
8
BLACK
6
CONTINUOUS
10
5.3389088582677164
20
-3.8724977559055116
11
5.3386782283464562
21
-3.8730545275590549
0
LINE
8
BLACK
6
CONTINUOUS
10
5.3386782283464562
20
-3.8730545275590549
11
5.3381214566929129
21
-3.8732851574803147
0
LINE
8
BLACK
6
CONTINUOUS
10
5.3381214566929129
20
-3.8732851574803147
11
5.3375646850393696
21
-3.8730545275590549
0
LINE
8
BLACK
6
CONTINUOUS
10
5.3375646850393696
20
-3.8730545275590549
11
5.3373340551181103
21
-3.8724977559055116
0
LINE
8
BLACK
6
CONTINUOUS
10
5.3373340551181103
20
-3.8724977559055116
11
5.3373340551181103
21
-3.8672484251968502
0
LINE
8
BLACK
6
CONTINUOUS
10
5.3373340551181103
20
-3.8672484251968502
11
5.3375646850393696
21
-3.8666916535433069
0
LINE
8
BLACK
6
CONTINUOUS
10
5.3375646850393696
20
-3.8666916535433069
11
5.3381214566929129
21
-3.8664610236220471
0
LINE
8
BLACK
6
CONTINUOUS
10
5.3381214566929129
20
-3.8664610236220471
11
5.3386782283464562
21
-3.8666916535433069
0
LINE
8
BLACK
6
CONTINUOUS
10
5.3386782283464562
20
-3.8666916535433069
11
5.3387289763779524
21
-3.8668141732283465
0
LINE
8
BLACK
6
CONTINUOUS
10
5.3387289763779524
20
-3.8668141732283465
11
5.3392690944881886
21
-3.8665441732283465
0
LINE
8
BLACK
6
CONTINUOUS
10
5.3392690944881886
20
-3.8665441732283465
11
5.3394518503937007
21
-3.8665311811023622
0
LINE
8
BLACK
6
CONTINUOUS
10
5.3394518503937007
20
-3.8665311811023622
11
5.3396212598425192
21
-3.8664610236220471
0
LINE
8
BLACK
6
CONTINUOUS
10
5.3396212598425192
20
-3.8664610236220471
11
5.340371141732283
21
-3.8664610236220471
0
LINE
8
BLACK
6
CONTINUOUS
10
5.340371141732283
20
-3.8664610236220471
11
5.3409279133858263
21
-3.8666916535433069
0
LINE
8
BLACK
6
CONTINUOUS
10
5.3118364566929133
20
-3.8531318503937007
11
5.3118664173228343
21
-3.8537337401574803
0
LINE
8
BLACK
6
CONTINUOUS
10
5.3118664173228343
20
-3.8537337401574803
11
5.3099916535433067
21
-3.8589830708661417
0
LINE
8
BLACK
6
CONTINUOUS
10
5.3099916535433067
20
-3.8589830708661417
11
5.3099809842519683
21
-3.8589948425196852
0
LINE
8
BLACK
6
CONTINUOUS
10
5.3099809842519683
20
-3.8589948425196852
11
5.3099811811023621
21
-3.8590106692913384
0
LINE
8
BLACK
6
CONTINUOUS
10
5.3099811811023621
20
-3.8590106692913384
11
5.3092312598425195
21
-3.860885433070866
0
LINE
8
BLACK
6
CONTINUOUS
10
5.3092312598425195
20
-3.860885433070866
11
5.3091187007874012
21
-3.8610007480314961
0
LINE
8
BLACK
6
CONTINUOUS
10
5.3091187007874012
20
-3.8610007480314961
11
5.3090570078740154
21
-3.8611497637795273
0
LINE
8
BLACK
6
CONTINUOUS
10
5.3090570078740154
20
-3.8611497637795273
11
5.3086820866141728
21
-3.8615246850393699
0
LINE
8
BLACK
6
CONTINUOUS
10
5.3086820866141728
20
-3.8615246850393699
11
5.3085623228346455
21
-3.8615742519685039
0
LINE
8
BLACK
6
CONTINUOUS
10
5.3085623228346455
20
-3.8615742519685039
11
5.3084774015748026
21
-3.8616722440944882
0
LINE
8
BLACK
6
CONTINUOUS
10
5.3084774015748026
20
-3.8616722440944882
11
5.3077274803149601
21
-3.8620472047244094
0
LINE
8
BLACK
6
CONTINUOUS
10
5.3077274803149601
20
-3.8620472047244094
11
5.3071263779527555
21
-3.8620898818897635
0
LINE
8
BLACK
6
CONTINUOUS
10
5.3071263779527555
20
-3.8620898818897635
11
5.3066710629921259
21
-3.8616950393700789
0
LINE
8
BLACK
6
CONTINUOUS
10
5.3066710629921259
20
-3.8616950393700789
11
5.3066283858267713
21
-3.8610939370078738
0
LINE
8
BLACK
6
CONTINUOUS
10
5.3066283858267713
20
-3.8610939370078738
11
5.3070232283464565
21
-3.8606386220472442
0
LINE
8
BLACK
6
CONTINUOUS
10
5.3070232283464565
20
-3.8606386220472442
11
5.3076588188976377
21
-3.8603208267716536
0
LINE
8
BLACK
6
CONTINUOUS
10
5.3076588188976377
20
-3.8603208267716536
11
5.3078291338582675
21
-3.860150472440945
0
LINE
8
BLACK
6
CONTINUOUS
10
5.3078291338582675
20
-3.860150472440945
11
5.3084083464566927
21
-3.8587024015748033
0
LINE
8
BLACK
6
CONTINUOUS
10
5.3084083464566927
20
-3.8587024015748033
11
5.3066338188976374
21
-3.8537337401574803
0
LINE
8
BLACK
6
CONTINUOUS
10
5.3066338188976374
20
-3.8537337401574803
11
5.3066637401574805
21
-3.8531318110236219
0
LINE
8
BLACK
6
CONTINUOUS
10
5.3066637401574805
20
-3.8531318110236219
11
5.3071105118110236
21
-3.8527273622047242
0
LINE
8
BLACK
6
CONTINUOUS
10
5.3071105118110236
20
-3.8527273622047242
11
5.3077124409448819
21
-3.8527572834645669
0
LINE
8
BLACK
6
CONTINUOUS
10
5.3077124409448819
20
-3.8527572834645669
11
5.3081168897637792
21
-3.8532040551181099
0
LINE
8
BLACK
6
CONTINUOUS
10
5.3081168897637792
20
-3.8532040551181099
11
5.3092501181102358
21
-3.8563770866141733
0
LINE
8
BLACK
6
CONTINUOUS
10
5.3092501181102358
20
-3.8563770866141733
11
5.3103833464566925
21
-3.8532040944881887
0
LINE
8
BLACK
6
CONTINUOUS
10
5.3103833464566925
20
-3.8532040944881887
11
5.3107877952755906
21
-3.8527573228346457
0
LINE
8
BLACK
6
CONTINUOUS
10
5.3107877952755906
20
-3.8527573228346457
11
5.311389724409449
21
-3.8527273622047242
0
LINE
8
BLACK
6
CONTINUOUS
10
5.311389724409449
20
-3.8527273622047242
11
5.3118364566929133
21
-3.8531318503937007
0
LINE
8
BLACK
6
CONTINUOUS
10
5.2714994881889758
20
-3.850106377952756
11
5.2716288188976375
21
-3.8500972047244093
0
LINE
8
BLACK
6
CONTINUOUS
10
5.2716288188976375
20
-3.8500972047244093
11
5.2727536614173225
21
-3.8504722047244093
0
LINE
8
BLACK
6
CONTINUOUS
10
5.2727536614173225
20
-3.8504722047244093
11
5.2728920866141733
21
-3.850592244094488
0
LINE
8
BLACK
6
CONTINUOUS
10
5.2728920866141733
20
-3.850592244094488
11
5.2730614173228343
21
-3.850662401574803
0
LINE
8
BLACK
6
CONTINUOUS
10
5.2730614173228343
20
-3.850662401574803
11
5.2738113385826768
21
-3.8514123228346455
0
LINE
8
BLACK
6
CONTINUOUS
10
5.2738113385826768
20
-3.8514123228346455
11
5.2738609055118113
21
-3.8515320078740158
0
LINE
8
BLACK
6
CONTINUOUS
10
5.2738609055118113
20
-3.8515320078740158
11
5.2739588582677168
21
-3.851616968503937
0
LINE
8
BLACK
6
CONTINUOUS
10
5.2739588582677168
20
-3.851616968503937
11
5.2743337795275593
21
-3.8523668503937007
0
LINE
8
BLACK
6
CONTINUOUS
10
5.2743337795275593
20
-3.8523668503937007
11
5.2743400787401571
21
-3.8524560629921258
0
LINE
8
BLACK
6
CONTINUOUS
10
5.2743400787401571
20
-3.8524560629921258
11
5.2743933858267713
21
-3.8525279921259843
0
LINE
8
BLACK
6
CONTINUOUS
10
5.2743933858267713
20
-3.8525279921259843
11
5.2747683464566926
21
-3.8540278346456693
0
LINE
8
BLACK
6
CONTINUOUS
10
5.2747683464566926
20
-3.8540278346456693
11
5.2747536220472444
21
-3.8541265748031495
0
LINE
8
BLACK
6
CONTINUOUS
10
5.2747536220472444
20
-3.8541265748031495
11
5.2747918503937008
21
-3.8542188188976376
0
LINE
8
BLACK
6
CONTINUOUS
10
5.2747918503937008
20
-3.8542188188976376
11
5.2747918503937008
21
-3.8553436614173227
0
LINE
8
BLACK
6
CONTINUOUS
10
5.2747918503937008
20
-3.8553436614173227
11
5.2747536220472444
21
-3.8554358661417321
0
LINE
8
BLACK
6
CONTINUOUS
10
5.2747536220472444
20
-3.8554358661417321
11
5.2747683464566926
21
-3.8555346456692914
0
LINE
8
BLACK
6
CONTINUOUS
10
5.2747683464566926
20
-3.8555346456692914
11
5.2743933858267713
21
-3.8570344488188977
0
LINE
8
BLACK
6
CONTINUOUS
10
5.2743933858267713
20
-3.8570344488188977
11
5.2743400787401571
21
-3.8571063385826769
0
LINE
8
BLACK
6
CONTINUOUS
10
5.2743400787401571
20
-3.8571063385826769
11
5.2743337795275593
21
-3.8571955511811025
0
LINE
8
BLACK
6
CONTINUOUS
10
5.2743337795275593
20
-3.8571955511811025
11
5.2739588582677168
21
-3.8579455118110237
0
LINE
8
BLACK
6
CONTINUOUS
10
5.2739588582677168
20
-3.8579455118110237
11
5.2738609055118113
21
-3.8580304330708661
0
LINE
8
BLACK
6
CONTINUOUS
10
5.2738609055118113
20
-3.8580304330708661
11
5.2738113385826768
21
-3.8581501574803148
0
LINE
8
BLACK
6
CONTINUOUS
10
5.2738113385826768
20
-3.8581501574803148
11
5.2730614173228343
21
-3.8589000787401573
0
LINE
8
BLACK
6
CONTINUOUS
10
5.2730614173228343
20
-3.8589000787401573
11
5.2728920866141733
21
-3.8589701968503936
0
LINE
8
BLACK
6
CONTINUOUS
10
5.2728920866141733
20
-3.8589701968503936
11
5.2727536220472437
21
-3.8590903149606297
0
LINE
8
BLACK
6
CONTINUOUS
10
5.2727536220472437
20
-3.8590903149606297
11
5.2716287795275587
21
-3.8594652362204722
0
LINE
8
BLACK
6
CONTINUOUS
10
5.2716287795275587
20
-3.8594652362204722
11
5.2714994881889758
21
-3.8594560236220472
0
LINE
8
BLACK
6
CONTINUOUS
10
5.2714994881889758
20
-3.8594560236220472
11
5.271379803149606
21
-3.8595056299212596
0
LINE
8
BLACK
6
CONTINUOUS
10
5.271379803149606
20
-3.8595056299212596
11
5.2695050393700784
21
-3.8595056299212596
0
LINE
8
BLACK
6
CONTINUOUS
10
5.2695050393700784
20
-3.8595056299212596
11
5.2689482677165351
21
-3.8592749999999998
0
LINE
8
BLACK
6
CONTINUOUS
10
5.2689482677165351
20
-3.8592749999999998
11
5.2687176377952758
21
-3.8587182283464565
0
LINE
8
BLACK
6
CONTINUOUS
10
5.2687176377952758
20
-3.8587182283464565
11
5.2687176377952758
21
-3.850844212598425
0
LINE
8
BLACK
6
CONTINUOUS
10
5.2687176377952758
20
-3.850844212598425
11
5.2689482677165351
21
-3.8502874409448817
0
LINE
8
BLACK
6
CONTINUOUS
10
5.2689482677165351
20
-3.8502874409448817
11
5.2695050393700784
21
-3.850056811023622
0
LINE
8
BLACK
6
CONTINUOUS
10
5.2695050393700784
20
-3.850056811023622
11
5.271379803149606
21
-3.850056811023622
0
LINE
8
BLACK
6
CONTINUOUS
10
5.271379803149606
20
-3.850056811023622
11
5.2714994881889758
21
-3.850106377952756
0
LINE
8
BLACK
6
CONTINUOUS
10
5.2702924409448819
20
-3.8579308267716534
11
5.2712520078740157
21
-3.8579308267716534
0
LINE
8
BLACK
6
CONTINUOUS
10
5.2712520078740157
20
-3.8579308267716534
11
5.2720793307086611
21
-3.8576550393700786
0
LINE
8
BLACK
6
CONTINUOUS
10
5.2720793307086611
20
-3.8576550393700786
11
5.2726073622047247
21
-3.8571270078740159
0
LINE
8
BLACK
6
CONTINUOUS
10
5.2726073622047247
20
-3.8571270078740159
11
5.272886535433071
21
-3.8565686220472442
0
LINE
8
BLACK
6
CONTINUOUS
10
5.272886535433071
20
-3.8565686220472442
11
5.2732170472440947
21
-3.855246692913386
0
LINE
8
BLACK
6
CONTINUOUS
10
5.2732170472440947
20
-3.855246692913386
11
5.2732170472440947
21
-3.854315748031496
0
LINE
8
BLACK
6
CONTINUOUS
10
5.2732170472440947
20
-3.854315748031496
11
5.272886535433071
21
-3.8529937795275591
0
LINE
8
BLACK
6
CONTINUOUS
10
5.272886535433071
20
-3.8529937795275591
11
5.2726073622047247
21
-3.8524354330708661
0
LINE
8
BLACK
6
CONTINUOUS
10
5.2726073622047247
20
-3.8524354330708661
11
5.2720793307086611
21
-3.8519074015748029
0
LINE
8
BLACK
6
CONTINUOUS
10
5.2720793307086611
20
-3.8519074015748029
11
5.271251968503937
21
-3.8516316141732281
0
LINE
8
BLACK
6
CONTINUOUS
10
5.271251968503937
20
-3.8516316141732281
11
5.2702924409448819
21
-3.8516316141732281
0
LINE
8
BLACK
6
CONTINUOUS
10
5.2702924409448819
20
-3.8516316141732281
11
5.2702924409448819
21
-3.8579308267716534
0
LINE
8
BLACK
6
CONTINUOUS
10
5.2779358267716532
20
-3.8529121259842518
11
5.2781664566929134
21
-3.8534688976377951
0
LINE
8
BLACK
6
CONTINUOUS
10
5.2781664566929134
20
-3.8534688976377951
11
5.2781664566929134
21
-3.8587182283464565
0
LINE
8
BLACK
6
CONTINUOUS
10
5.2781664566929134
20
-3.8587182283464565
11
5.2779358267716532
21
-3.8592749999999998
0
LINE
8
BLACK
6
CONTINUOUS
10
5.2779358267716532
20
-3.8592749999999998
11
5.2773790551181099
21
-3.8595056299212596
0
LINE
8
BLACK
6
CONTINUOUS
10
5.2773790551181099
20
-3.8595056299212596
11
5.2768222834645666
21
-3.8592749999999998
0
LINE
8
BLACK
6
CONTINUOUS
10
5.2768222834645666
20
-3.8592749999999998
11
5.2765916535433073
21
-3.8587182283464565
0
LINE
8
BLACK
6
CONTINUOUS
10
5.2765916535433073
20
-3.8587182283464565
11
5.2765916535433073
21
-3.8534688976377951
0
LINE
8
BLACK
6
CONTINUOUS
10
5.2765916535433073
20
-3.8534688976377951
11
5.2768222834645666
21
-3.8529121259842518
0
LINE
8
BLACK
6
CONTINUOUS
10
5.2768222834645666
20
-3.8529121259842518
11
5.2773790551181099
21
-3.852681496062992
0
LINE
8
BLACK
6
CONTINUOUS
10
5.2773790551181099
20
-3.852681496062992
11
5.2779358267716532
21
-3.8529121259842518
0
LINE
8
BLACK
6
CONTINUOUS
10
5.2839350393700784
20
-3.8529121259842518
11
5.2841656692913386
21
-3.8534688976377951
0
LINE
8
BLACK
6
CONTINUOUS
10
5.2841656692913386
20
-3.8534688976377951
11
5.2839350393700784
21
-3.8540256692913384
0
LINE
8
BLACK
6
CONTINUOUS
10
5.2839350393700784
20
-3.8540256692913384
11
5.2833782677165351
21
-3.8542562992125982
0
LINE
8
BLACK
6
CONTINUOUS
10
5.2833782677165351
20
-3.8542562992125982
11
5.2828142913385827
21
-3.8542562992125982
0
LINE
8
BLACK
6
CONTINUOUS
10
5.2828142913385827
20
-3.8542562992125982
11
5.2823448425196853
21
-3.8544910236220473
0
LINE
8
BLACK
6
CONTINUOUS
10
5.2823448425196853
20
-3.8544910236220473
11
5.2821506692913385
21
-3.8546851574803149
0
LINE
8
BLACK
6
CONTINUOUS
10
5.2821506692913385
20
-3.8546851574803149
11
5.2819159842519685
21
-3.8551545669291336
0
LINE
8
BLACK
6
CONTINUOUS
10
5.2819159842519685
20
-3.8551545669291336
11
5.2819159842519685
21
-3.8587182283464565
0
LINE
8
BLACK
6
CONTINUOUS
10
5.2819159842519685
20
-3.8587182283464565
11
5.2816853543307083
21
-3.8592749999999998
0
LINE
8
BLACK
6
CONTINUOUS
10
5.2816853543307083
20
-3.8592749999999998
11
5.281128582677165
21
-3.8595056299212596
0
LINE
8
BLACK
6
CONTINUOUS
10
5.281128582677165
20
-3.8595056299212596
11
5.2805718110236217
21
-3.8592749999999998
0
LINE
8
BLACK
6
CONTINUOUS
10
5.2805718110236217
20
-3.8592749999999998
11
5.2803411811023624
21
-3.8587182283464565
0
LINE
8
BLACK
6
CONTINUOUS
10
5.2803411811023624
20
-3.8587182283464565
11
5.2803411811023624
21
-3.8534688976377951
0
LINE
8
BLACK
6
CONTINUOUS
10
5.2803411811023624
20
-3.8534688976377951
11
5.2805718110236217
21
-3.8529121259842518
0
LINE
8
BLACK
6
CONTINUOUS
10
5.2805718110236217
20
-3.8529121259842518
11
5.281128582677165
21
-3.852681496062992
0
LINE
8
BLACK
6
CONTINUOUS
10
5.281128582677165
20
-3.852681496062992
11
5.2816853543307083
21
-3.8529121259842518
0
LINE
8
BLACK
6
CONTINUOUS
10
5.2816853543307083
20
-3.8529121259842518
11
5.2817361023622045
21
-3.8530346456692914
0
LINE
8
BLACK
6
CONTINUOUS
10
5.2817361023622045
20
-3.8530346456692914
11
5.2822762204724407
21
-3.8527646456692914
0
LINE
8
BLACK
6
CONTINUOUS
10
5.2822762204724407
20
-3.8527646456692914
11
5.2824589763779528
21
-3.8527516535433071
0
LINE
8
BLACK
6
CONTINUOUS
10
5.2824589763779528
20
-3.8527516535433071
11
5.2826283858267713
21
-3.852681496062992
0
LINE
8
BLACK
6
CONTINUOUS
10
5.2826283858267713
20
-3.852681496062992
11
5.2833782677165351
21
-3.852681496062992
0
LINE
8
BLACK
6
CONTINUOUS
10
5.2833782677165351
20
-3.852681496062992
11
5.2839350393700784
21
-3.8529121259842518
0
LINE
8
BLACK
6
CONTINUOUS
10
5.2884219685039371
20
-3.8527516141732283
11
5.2886048031496058
21
-3.8527646062992127
0
LINE
8
BLACK
6
CONTINUOUS
10
5.2886048031496058
20
-3.8527646062992127
11
5.2893547244094483
21
-3.853139566929134
0
LINE
8
BLACK
6
CONTINUOUS
10
5.2893547244094483
20
-3.853139566929134
11
5.2895182677165353
21
-3.8533281102362205
0
LINE
8
BLACK
6
CONTINUOUS
10
5.2895182677165353
20
-3.8533281102362205
11
5.289706850393701
21
-3.8534916929133858
0
LINE
8
BLACK
6
CONTINUOUS
10
5.289706850393701
20
-3.8534916929133858
11
5.2900818110236223
21
-3.8542415748031496
0
LINE
8
BLACK
6
CONTINUOUS
10
5.2900818110236223
20
-3.8542415748031496
11
5.2900947637795275
21
-3.8544243307086612
0
LINE
8
BLACK
6
CONTINUOUS
10
5.2900947637795275
20
-3.8544243307086612
11
5.2901649606299213
21
-3.8545937401574801
0
LINE
8
BLACK
6
CONTINUOUS
10
5.2901649606299213
20
-3.8545937401574801
11
5.2901649606299213
21
-3.8553436614173227
0
LINE
8
BLACK
6
CONTINUOUS
10
5.2901649606299213
20
-3.8553436614173227
11
5.2900771653543304
21
-3.8555555118110236
0
LINE
8
BLACK
6
CONTINUOUS
10
5.2900771653543304
20
-3.8555555118110236
11
5.2900327165354328
21
-3.855780433070866
0
LINE
8
BLACK
6
CONTINUOUS
10
5.2900327165354328
20
-3.855780433070866
11
5.2899653149606296
21
-3.8558255118110236
0
LINE
8
BLACK
6
CONTINUOUS
10
5.2899653149606296
20
-3.8558255118110236
11
5.289934330708661
21
-3.8559004330708659
0
LINE
8
BLACK
6
CONTINUOUS
10
5.289934330708661
20
-3.8559004330708659
11
5.2897225196850393
21
-3.8559881496062993
0
LINE
8
BLACK
6
CONTINUOUS
10
5.2897225196850393
20
-3.8559881496062993
11
5.2895319685039368
21
-3.8561157874015746
0
LINE
8
BLACK
6
CONTINUOUS
10
5.2895319685039368
20
-3.8561157874015746
11
5.2864154330708661
21
-3.856739094488189
0
LINE
8
BLACK
6
CONTINUOUS
10
5.2864154330708661
20
-3.856739094488189
11
5.2864154330708661
21
-3.8574074803149605
0
LINE
8
BLACK
6
CONTINUOUS
10
5.2864154330708661
20
-3.8574074803149605
11
5.2865898425196853
21
-3.8577563779527559
0
LINE
8
BLACK
6
CONTINUOUS
10
5.2865898425196853
20
-3.8577563779527559
11
5.2869387795275591
21
-3.8579308267716534
0
LINE
8
BLACK
6
CONTINUOUS
10
5.2869387795275591
20
-3.8579308267716534
11
5.2880668110236222
21
-3.8579308267716534
0
LINE
8
BLACK
6
CONTINUOUS
10
5.2880668110236222
20
-3.8579308267716534
11
5.2886505118110234
21
-3.8576390157480316
0
LINE
8
BLACK
6
CONTINUOUS
10
5.2886505118110234
20
-3.8576390157480316
11
5.289251614173228
21
-3.857596338582677
0
LINE
8
BLACK
6
CONTINUOUS
10
5.289251614173228
20
-3.857596338582677
11
5.2897068897637798
21
-3.8579911811023622
0
LINE
8
BLACK
6
CONTINUOUS
10
5.2897068897637798
20
-3.8579911811023622
11
5.2897495669291335
21
-3.8585923228346455
0
LINE
8
BLACK
6
CONTINUOUS
10
5.2897495669291335
20
-3.8585923228346455
11
5.2893547244094483
21
-3.8590475984251968
0
LINE
8
BLACK
6
CONTINUOUS
10
5.2893547244094483
20
-3.8590475984251968
11
5.2886048031496058
21
-3.8594225196850394
0
LINE
8
BLACK
6
CONTINUOUS
10
5.2886048031496058
20
-3.8594225196850394
11
5.2884219685039371
21
-3.859435472440945
0
LINE
8
BLACK
6
CONTINUOUS
10
5.2884219685039371
20
-3.859435472440945
11
5.288252677165354
21
-3.8595056299212596
0
LINE
8
BLACK
6
CONTINUOUS
10
5.288252677165354
20
-3.8595056299212596
11
5.2867528740157477
21
-3.8595056299212596
0
LINE
8
BLACK
6
CONTINUOUS
10
5.2867528740157477
20
-3.8595056299212596
11
5.2865835433070867
21
-3.859435472440945
0
LINE
8
BLACK
6
CONTINUOUS
10
5.2865835433070867
20
-3.859435472440945
11
5.2864007480314958
21
-3.8594225196850394
0
LINE
8
BLACK
6
CONTINUOUS
10
5.2864007480314958
20
-3.8594225196850394
11
5.2856508661417321
21
-3.8590475984251968
0
LINE
8
BLACK
6
CONTINUOUS
10
5.2856508661417321
20
-3.8590475984251968
11
5.2854872834645672
21
-3.8588589763779528
0
LINE
8
BLACK
6
CONTINUOUS
10
5.2854872834645672
20
-3.8588589763779528
11
5.2852987007874015
21
-3.8586954330708663
0
LINE
8
BLACK
6
CONTINUOUS
10
5.2852987007874015
20
-3.8586954330708663
11
5.2849237401574802
21
-3.8579455118110237
0
LINE
8
BLACK
6
CONTINUOUS
10
5.2849237401574802
20
-3.8579455118110237
11
5.2849107480314963
21
-3.8577626771653541
0
LINE
8
BLACK
6
CONTINUOUS
10
5.2849107480314963
20
-3.8577626771653541
11
5.28484062992126
21
-3.8575933858267715
0
LINE
8
BLACK
6
CONTINUOUS
10
5.28484062992126
20
-3.8575933858267715
11
5.28484062992126
21
-3.8545937401574801
0
LINE
8
BLACK
6
CONTINUOUS
10
5.28484062992126
20
-3.8545937401574801
11
5.2849107480314963
21
-3.8544243700787399
0
LINE
8
BLACK
6
CONTINUOUS
10
5.2849107480314963
20
-3.8544243700787399
11
5.284923779527559
21
-3.8542415748031496
0
LINE
8
BLACK
6
CONTINUOUS
10
5.284923779527559
20
-3.8542415748031496
11
5.2852987007874015
21
-3.8534917322834645
0
LINE
8
BLACK
6
CONTINUOUS
10
5.2852987007874015
20
-3.8534917322834645
11
5.2854872047244097
21
-3.8533282283464567
0
LINE
8
BLACK
6
CONTINUOUS
10
5.2854872047244097
20
-3.8533282283464567
11
5.2856508267716533
21
-3.8531396062992127
0
LINE
8
BLACK
6
CONTINUOUS
10
5.2856508267716533
20
-3.8531396062992127
11
5.2864007086614171
21
-3.8527646456692914
0
LINE
8
BLACK
6
CONTINUOUS
10
5.2864007086614171
20
-3.8527646456692914
11
5.2865834645669292
21
-3.8527516535433071
0
LINE
8
BLACK
6
CONTINUOUS
10
5.2865834645669292
20
-3.8527516535433071
11
5.2867528740157477
21
-3.852681496062992
0
LINE
8
BLACK
6
CONTINUOUS
10
5.2867528740157477
20
-3.852681496062992
11
5.288252677165354
21
-3.852681496062992
0
LINE
8
BLACK
6
CONTINUOUS
10
5.288252677165354
20
-3.852681496062992
11
5.2884219685039371
21
-3.8527516141732283
0
LINE
8
BLACK
6
CONTINUOUS
10
5.2865898425196853
20
-3.8544307480314961
11
5.2864154330708661
21
-3.8547796062992123
0
LINE
8
BLACK
6
CONTINUOUS
10
5.2864154330708661
20
-3.8547796062992123
11
5.2864154330708661
21
-3.8551330708661418
0
LINE
8
BLACK
6
CONTINUOUS
10
5.2864154330708661
20
-3.8551330708661418
11
5.2885530708661417
21
-3.8547055118110234
0
LINE
8
BLACK
6
CONTINUOUS
10
5.2885530708661417
20
-3.8547055118110234
11
5.2884157086614172
21
-3.8544307480314961
0
LINE
8
BLACK
6
CONTINUOUS
10
5.2884157086614172
20
-3.8544307480314961
11
5.2880667716535434
21
-3.8542562992125982
0
LINE
8
BLACK
6
CONTINUOUS
10
5.2880667716535434
20
-3.8542562992125982
11
5.2869387795275591
21
-3.8542562992125982
0
LINE
8
BLACK
6
CONTINUOUS
10
5.2869387795275591
20
-3.8542562992125982
11
5.2865898425196853
21
-3.8544307480314961
0
LINE
8
BLACK
6
CONTINUOUS
10
5.2955461023622048
20
-3.8527516141732283
11
5.2957289370078735
21
-3.8527646062992127
0
LINE
8
BLACK
6
CONTINUOUS
10
5.2957289370078735
20
-3.8527646062992127
11
5.296478858267716
21
-3.853139566929134
0
LINE
8
BLACK
6
CONTINUOUS
10
5.296478858267716
20
-3.853139566929134
11
5.2968737007874012
21
-3.8535948425196849
0
LINE
8
BLACK
6
CONTINUOUS
10
5.2968737007874012
20
-3.8535948425196849
11
5.2968309842519687
21
-3.8541959842519686
0
LINE
8
BLACK
6
CONTINUOUS
10
5.2968309842519687
20
-3.8541959842519686
11
5.2963757086614169
21
-3.8545908267716533
0
LINE
8
BLACK
6
CONTINUOUS
10
5.2963757086614169
20
-3.8545908267716533
11
5.2957745669291336
21
-3.8545481102362205
0
LINE
8
BLACK
6
CONTINUOUS
10
5.2957745669291336
20
-3.8545481102362205
11
5.2951909055118112
21
-3.8542562992125982
0
LINE
8
BLACK
6
CONTINUOUS
10
5.2951909055118112
20
-3.8542562992125982
11
5.2940629133858268
21
-3.8542562992125982
0
LINE
8
BLACK
6
CONTINUOUS
10
5.2940629133858268
20
-3.8542562992125982
11
5.2935935433070869
21
-3.8544909842519686
0
LINE
8
BLACK
6
CONTINUOUS
10
5.2935935433070869
20
-3.8544909842519686
11
5.2933992519685038
21
-3.8546852362204724
0
LINE
8
BLACK
6
CONTINUOUS
10
5.2933992519685038
20
-3.8546852362204724
11
5.2931646062992126
21
-3.8551545669291336
0
LINE
8
BLACK
6
CONTINUOUS
10
5.2931646062992126
20
-3.8551545669291336
11
5.2931646062992126
21
-3.8570325196850392
0
LINE
8
BLACK
6
CONTINUOUS
10
5.2931646062992126
20
-3.8570325196850392
11
5.2933992913385826
21
-3.8575019291338584
0
LINE
8
BLACK
6
CONTINUOUS
10
5.2933992913385826
20
-3.8575019291338584
11
5.2935935039370081
21
-3.8576961417322835
0
LINE
8
BLACK
6
CONTINUOUS
10
5.2935935039370081
20
-3.8576961417322835
11
5.2940629133858268
21
-3.8579308267716534
0
LINE
8
BLACK
6
CONTINUOUS
10
5.2940629133858268
20
-3.8579308267716534
11
5.2951909448818899
21
-3.8579308267716534
0
LINE
8
BLACK
6
CONTINUOUS
10
5.2951909448818899
20
-3.8579308267716534
11
5.2957746456692911
21
-3.8576390157480316
0
LINE
8
BLACK
6
CONTINUOUS
10
5.2957746456692911
20
-3.8576390157480316
11
5.2963757480314957
21
-3.857596338582677
0
LINE
8
BLACK
6
CONTINUOUS
10
5.2963757480314957
20
-3.857596338582677
11
5.2968310236220475
21
-3.8579911811023622
0
LINE
8
BLACK
6
CONTINUOUS
10
5.2968310236220475
20
-3.8579911811023622
11
5.2968737007874012
21
-3.8585923228346455
0
LINE
8
BLACK
6
CONTINUOUS
10
5.2968737007874012
20
-3.8585923228346455
11
5.296478858267716
21
-3.8590475984251968
0
LINE
8
BLACK
6
CONTINUOUS
10
5.296478858267716
20
-3.8590475984251968
11
5.2957289370078735
21
-3.8594225196850394
0
LINE
8
BLACK
6
CONTINUOUS
10
5.2957289370078735
20
-3.8594225196850394
11
5.2955461023622048
21
-3.859435472440945
0
LINE
8
BLACK
6
CONTINUOUS
10
5.2955461023622048
20
-3.859435472440945
11
5.2953768110236217
21
-3.8595056299212596
0
LINE
8
BLACK
6
CONTINUOUS
10
5.2953768110236217
20
-3.8595056299212596
11
5.2938770078740154
21
-3.8595056299212596
0
LINE
8
BLACK
6
CONTINUOUS
10
5.2938770078740154
20
-3.8595056299212596
11
5.2937076771653544
21
-3.859435472440945
0
LINE
8
BLACK
6
CONTINUOUS
10
5.2937076771653544
20
-3.859435472440945
11
5.2935249212598423
21
-3.8594225196850394
0
LINE
8
BLACK
6
CONTINUOUS
10
5.2935249212598423
20
-3.8594225196850394
11
5.292774960629921
21
-3.8590475984251968
0
LINE
8
BLACK
6
CONTINUOUS
10
5.292774960629921
20
-3.8590475984251968
11
5.2926899999999995
21
-3.8589496062992126
0
LINE
8
BLACK
6
CONTINUOUS
10
5.2926899999999995
20
-3.8589496062992126
11
5.2925702755905508
21
-3.8589000393700785
0
LINE
8
BLACK
6
CONTINUOUS
10
5.2925702755905508
20
-3.8589000393700785
11
5.2921953543307083
21
-3.8585250787401573
0
LINE
8
BLACK
6
CONTINUOUS
10
5.2921953543307083
20
-3.8585250787401573
11
5.292145748031496
21
-3.8584053543307086
0
LINE
8
BLACK
6
CONTINUOUS
10
5.292145748031496
20
-3.8584053543307086
11
5.2920478740157479
21
-3.858320472440945
0
LINE
8
BLACK
6
CONTINUOUS
10
5.2920478740157479
20
-3.858320472440945
11
5.2916729133858267
21
-3.8575705511811025
0
LINE
8
BLACK
6
CONTINUOUS
10
5.2916729133858267
20
-3.8575705511811025
11
5.2916599212598427
21
-3.8573877165354329
0
LINE
8
BLACK
6
CONTINUOUS
10
5.2916599212598427
20
-3.8573877165354329
11
5.2915898031496065
21
-3.8572184251968502
0
LINE
8
BLACK
6
CONTINUOUS
10
5.2915898031496065
20
-3.8572184251968502
11
5.2915898031496065
21
-3.8549687007874014
0
LINE
8
BLACK
6
CONTINUOUS
10
5.2915898031496065
20
-3.8549687007874014
11
5.2916599212598427
21
-3.8547993307086612
0
LINE
8
BLACK
6
CONTINUOUS
10
5.2916599212598427
20
-3.8547993307086612
11
5.2916729527559054
21
-3.8546165354330708
0
LINE
8
BLACK
6
CONTINUOUS
10
5.2916729527559054
20
-3.8546165354330708
11
5.2920478740157479
21
-3.8538666929133858
0
LINE
8
BLACK
6
CONTINUOUS
10
5.2920478740157479
20
-3.8538666929133858
11
5.292145748031496
21
-3.8537817716535434
0
LINE
8
BLACK
6
CONTINUOUS
10
5.292145748031496
20
-3.8537817716535434
11
5.2921953543307083
21
-3.8536620866141731
0
LINE
8
BLACK
6
CONTINUOUS
10
5.2921953543307083
20
-3.8536620866141731
11
5.2925702755905508
21
-3.8532871259842518
0
LINE
8
BLACK
6
CONTINUOUS
10
5.2925702755905508
20
-3.8532871259842518
11
5.2926899999999995
21
-3.8532374803149607
0
LINE
8
BLACK
6
CONTINUOUS
10
5.2926899999999995
20
-3.8532374803149607
11
5.292774960629921
21
-3.853139566929134
0
LINE
8
BLACK
6
CONTINUOUS
10
5.292774960629921
20
-3.853139566929134
11
5.2935248425196848
21
-3.8527646456692914
0
LINE
8
BLACK
6
CONTINUOUS
10
5.2935248425196848
20
-3.8527646456692914
11
5.2937075984251969
21
-3.8527516535433071
0
LINE
8
BLACK
6
CONTINUOUS
10
5.2937075984251969
20
-3.8527516535433071
11
5.2938770078740154
21
-3.852681496062992
0
LINE
8
BLACK
6
CONTINUOUS
10
5.2938770078740154
20
-3.852681496062992
11
5.2953768110236217
21
-3.852681496062992
0
LINE
8
BLACK
6
CONTINUOUS
10
5.2953768110236217
20
-3.852681496062992
11
5.2955461023622048
21
-3.8527516141732283
0
LINE
8
BLACK
6
CONTINUOUS
10
5.3000581102362201
20
-3.8502874409448817
11
5.3002887401574803
21
-3.850844212598425
0
LINE
8
BLACK
6
CONTINUOUS
10
5.3002887401574803
20
-3.850844212598425
11
5.3002887401574803
21
-3.852681496062992
0
LINE
8
BLACK
6
CONTINUOUS
10
5.3002887401574803
20
-3.852681496062992
11
5.3013761023622044
21
-3.852681496062992
0
LINE
8
BLACK
6
CONTINUOUS
10
5.3013761023622044
20
-3.852681496062992
11
5.3019328740157476
21
-3.8529121259842518
0
LINE
8
BLACK
6
CONTINUOUS
10
5.3019328740157476
20
-3.8529121259842518
11
5.3021635039370079
21
-3.8534688976377951
0
LINE
8
BLACK
6
CONTINUOUS
10
5.3021635039370079
20
-3.8534688976377951
11
5.3019328740157476
21
-3.8540256692913384
0
LINE
8
BLACK
6
CONTINUOUS
10
5.3019328740157476
20
-3.8540256692913384
11
5.3013761023622044
21
-3.8542562992125982
0
LINE
8
BLACK
6
CONTINUOUS
10
5.3013761023622044
20
-3.8542562992125982
11
5.3002887401574803
21
-3.8542562992125982
0
LINE
8
BLACK
6
CONTINUOUS
10
5.3002887401574803
20
-3.8542562992125982
11
5.3002887401574803
21
-3.8574074803149605
0
LINE
8
BLACK
6
CONTINUOUS
10
5.3002887401574803
20
-3.8574074803149605
11
5.3004631496062995
21
-3.8577563779527559
0
LINE
8
BLACK
6
CONTINUOUS
10
5.3004631496062995
20
-3.8577563779527559
11
5.3008120866141732
21
-3.8579308267716534
0
LINE
8
BLACK
6
CONTINUOUS
10
5.3008120866141732
20
-3.8579308267716534
11
5.3013761023622044
21
-3.8579308267716534
0
LINE
8
BLACK
6
CONTINUOUS
10
5.3013761023622044
20
-3.8579308267716534
11
5.3019328740157476
21
-3.8581614566929132
0
LINE
8
BLACK
6
CONTINUOUS
10
5.3019328740157476
20
-3.8581614566929132
11
5.3021635039370079
21
-3.8587182283464565
0
LINE
8
BLACK
6
CONTINUOUS
10
5.3021635039370079
20
-3.8587182283464565
11
5.3019328740157476
21
-3.8592749999999998
0
LINE
8
BLACK
6
CONTINUOUS
10
5.3019328740157476
20
-3.8592749999999998
11
5.3013761023622044
21
-3.8595056299212596
0
LINE
8
BLACK
6
CONTINUOUS
10
5.3013761023622044
20
-3.8595056299212596
11
5.3006261811023618
21
-3.8595056299212596
0
LINE
8
BLACK
6
CONTINUOUS
10
5.3006261811023618
20
-3.8595056299212596
11
5.3004568503937008
21
-3.859435472440945
0
LINE
8
BLACK
6
CONTINUOUS
10
5.3004568503937008
20
-3.859435472440945
11
5.3002740944881888
21
-3.8594225196850394
0
LINE
8
BLACK
6
CONTINUOUS
10
5.3002740944881888
20
-3.8594225196850394
11
5.2995241338582675
21
-3.8590475984251968
0
LINE
8
BLACK
6
CONTINUOUS
10
5.2995241338582675
20
-3.8590475984251968
11
5.2993605511811026
21
-3.8588589763779528
0
LINE
8
BLACK
6
CONTINUOUS
10
5.2993605511811026
20
-3.8588589763779528
11
5.2991719685039369
21
-3.8586954330708663
0
LINE
8
BLACK
6
CONTINUOUS
10
5.2991719685039369
20
-3.8586954330708663
11
5.2987970472440944
21
-3.8579455118110237
0
LINE
8
BLACK
6
CONTINUOUS
10
5.2987970472440944
20
-3.8579455118110237
11
5.2987840551181105
21
-3.8577626771653541
0
LINE
8
BLACK
6
CONTINUOUS
10
5.2987840551181105
20
-3.8577626771653541
11
5.2987139370078742
21
-3.8575933858267715
0
LINE
8
BLACK
6
CONTINUOUS
10
5.2987139370078742
20
-3.8575933858267715
11
5.2987139370078742
21
-3.8542562992125982
0
LINE
8
BLACK
6
CONTINUOUS
10
5.2987139370078742
20
-3.8542562992125982
11
5.298376456692913
21
-3.8542562992125982
0
LINE
8
BLACK
6
CONTINUOUS
10
5.298376456692913
20
-3.8542562992125982
11
5.2978196850393697
21
-3.8540256692913384
0
LINE
8
BLACK
6
CONTINUOUS
10
5.2978196850393697
20
-3.8540256692913384
11
5.2975890551181104
21
-3.8534688976377951
0
LINE
8
BLACK
6
CONTINUOUS
10
5.2975890551181104
20
-3.8534688976377951
11
5.2978196850393697
21
-3.8529121259842518
0
LINE
8
BLACK
6
CONTINUOUS
10
5.2978196850393697
20
-3.8529121259842518
11
5.298376456692913
21
-3.852681496062992
0
LINE
8
BLACK
6
CONTINUOUS
10
5.298376456692913
20
-3.852681496062992
11
5.2987139370078742
21
-3.852681496062992
0
LINE
8
BLACK
6
CONTINUOUS
10
5.2987139370078742
20
-3.852681496062992
11
5.2987139370078742
21
-3.850844212598425
0
LINE
8
BLACK
6
CONTINUOUS
10
5.2987139370078742
20
-3.850844212598425
11
5.2989445669291335
21
-3.8502874409448817
0
LINE
8
BLACK
6
CONTINUOUS
10
5.2989445669291335
20
-3.8502874409448817
11
5.2995013385826768
21
-3.850056811023622
0
LINE
8
BLACK
6
CONTINUOUS
10
5.2995013385826768
20
-3.850056811023622
11
5.3000581102362201
21
-3.8502874409448817
0
LINE
8
BLACK
6
CONTINUOUS
10
5.3229177165354331
20
-3.8501269291338582
11
5.3231005511811018
21
-3.8501399212598426
0
LINE
8
BLACK
6
CONTINUOUS
10
5.3231005511811018
20
-3.8501399212598426
11
5.3238504724409443
21
-3.8505148818897639
0
LINE
8
BLACK
6
CONTINUOUS
10
5.3238504724409443
20
-3.8505148818897639
11
5.3239353937007872
21
-3.8506127952755906
0
LINE
8
BLACK
6
CONTINUOUS
10
5.3239353937007872
20
-3.8506127952755906
11
5.3240551181102358
21
-3.850662401574803
0
LINE
8
BLACK
6
CONTINUOUS
10
5.3240551181102358
20
-3.850662401574803
11
5.3244300787401571
21
-3.8510373622047243
0
LINE
8
BLACK
6
CONTINUOUS
10
5.3244300787401571
20
-3.8510373622047243
11
5.3244796456692915
21
-3.8511570472440946
0
LINE
8
BLACK
6
CONTINUOUS
10
5.3244796456692915
20
-3.8511570472440946
11
5.3245775984251971
21
-3.8512420078740157
0
LINE
8
BLACK
6
CONTINUOUS
10
5.3245775984251971
20
-3.8512420078740157
11
5.3249525196850396
21
-3.851991968503937
0
LINE
8
BLACK
6
CONTINUOUS
10
5.3249525196850396
20
-3.851991968503937
11
5.3249654724409448
21
-3.8521747244094486
0
LINE
8
BLACK
6
CONTINUOUS
10
5.3249654724409448
20
-3.8521747244094486
11
5.3250356299212598
21
-3.8523440551181101
0
LINE
8
BLACK
6
CONTINUOUS
10
5.3250356299212598
20
-3.8523440551181101
11
5.3250356299212598
21
-3.8530939370078738
0
LINE
8
BLACK
6
CONTINUOUS
10
5.3250356299212598
20
-3.8530939370078738
11
5.3249654724409448
21
-3.8532632283464565
0
LINE
8
BLACK
6
CONTINUOUS
10
5.3249654724409448
20
-3.8532632283464565
11
5.3249525196850396
21
-3.8534460236220474
0
LINE
8
BLACK
6
CONTINUOUS
10
5.3249525196850396
20
-3.8534460236220474
11
5.3245775984251971
21
-3.8541959842519686
0
LINE
8
BLACK
6
CONTINUOUS
10
5.3245775984251971
20
-3.8541959842519686
11
5.3244796456692915
21
-3.854280905511811
0
LINE
8
BLACK
6
CONTINUOUS
10
5.3244796456692915
20
-3.854280905511811
11
5.3244300787401571
21
-3.8544006299212596
0
LINE
8
BLACK
6
CONTINUOUS
10
5.3244300787401571
20
-3.8544006299212596
11
5.3244220472440942
21
-3.8544086220472442
0
LINE
8
BLACK
6
CONTINUOUS
10
5.3244220472440942
20
-3.8544086220472442
11
5.3244301181102358
21
-3.8544119685039369
0
LINE
8
BLACK
6
CONTINUOUS
10
5.3244301181102358
20
-3.8544119685039369
11
5.3248050393700783
21
-3.8547868897637794
0
LINE
8
BLACK
6
CONTINUOUS
10
5.3248050393700783
20
-3.8547868897637794
11
5.3248546062992128
21
-3.8549066141732284
0
LINE
8
BLACK
6
CONTINUOUS
10
5.3248546062992128
20
-3.8549066141732284
11
5.3249525196850396
21
-3.8549915354330708
0
LINE
8
BLACK
6
CONTINUOUS
10
5.3249525196850396
20
-3.8549915354330708
11
5.3253274409448821
21
-3.8557414173228346
0
LINE
8
BLACK
6
CONTINUOUS
10
5.3253274409448821
20
-3.8557414173228346
11
5.3253403937007873
21
-3.8559241732283462
0
LINE
8
BLACK
6
CONTINUOUS
10
5.3253403937007873
20
-3.8559241732283462
11
5.325410590551181
21
-3.8560935826771652
0
LINE
8
BLACK
6
CONTINUOUS
10
5.325410590551181
20
-3.8560935826771652
11
5.325410590551181
21
-3.8572184251968502
0
LINE
8
BLACK
6
CONTINUOUS
10
5.325410590551181
20
-3.8572184251968502
11
5.3253403937007873
21
-3.8573877952755904
0
LINE
8
BLACK
6
CONTINUOUS
10
5.3253403937007873
20
-3.8573877952755904
11
5.3253274409448821
21
-3.8575705905511812
0
LINE
8
BLACK
6
CONTINUOUS
10
5.3253274409448821
20
-3.8575705905511812
11
5.3249525196850396
21
-3.858320472440945
0
LINE
8
BLACK
6
CONTINUOUS
10
5.3249525196850396
20
-3.858320472440945
11
5.3248546062992128
21
-3.8584053543307086
0
LINE
8
BLACK
6
CONTINUOUS
10
5.3248546062992128
20
-3.8584053543307086
11
5.3248050393700783
21
-3.858525118110236
0
LINE
8
BLACK
6
CONTINUOUS
10
5.3248050393700783
20
-3.858525118110236
11
5.3244301181102358
21
-3.8589000393700785
0
LINE
8
BLACK
6
CONTINUOUS
10
5.3244301181102358
20
-3.8589000393700785
11
5.3243103543307084
21
-3.8589496062992126
0
LINE
8
BLACK
6
CONTINUOUS
10
5.3243103543307084
20
-3.8589496062992126
11
5.3242254330708656
21
-3.8590475984251968
0
LINE
8
BLACK
6
CONTINUOUS
10
5.3242254330708656
20
-3.8590475984251968
11
5.3234755118110231
21
-3.8594225196850394
0
LINE
8
BLACK
6
CONTINUOUS
10
5.3234755118110231
20
-3.8594225196850394
11
5.3232926771653544
21
-3.859435472440945
0
LINE
8
BLACK
6
CONTINUOUS
10
5.3232926771653544
20
-3.859435472440945
11
5.3231233858267712
21
-3.8595056299212596
0
LINE
8
BLACK
6
CONTINUOUS
10
5.3231233858267712
20
-3.8595056299212596
11
5.3201237795275587
21
-3.8595056299212596
0
LINE
8
BLACK
6
CONTINUOUS
10
5.3201237795275587
20
-3.8595056299212596
11
5.3195670078740154
21
-3.8592749999999998
0
LINE
8
BLACK
6
CONTINUOUS
10
5.3195670078740154
20
-3.8592749999999998
11
5.319336377952756
21
-3.8587182283464565
0
LINE
8
BLACK
6
CONTINUOUS
10
5.319336377952756
20
-3.8587182283464565
11
5.319336377952756
21
-3.850844212598425
0
LINE
8
BLACK
6
CONTINUOUS
10
5.319336377952756
20
-3.850844212598425
11
5.3195670078740154
21
-3.8502874409448817
0
LINE
8
BLACK
6
CONTINUOUS
10
5.3195670078740154
20
-3.8502874409448817
11
5.3201237795275587
21
-3.850056811023622
0
LINE
8
BLACK
6
CONTINUOUS
10
5.3201237795275587
20
-3.850056811023622
11
5.32274842519685
21
-3.850056811023622
0
LINE
8
BLACK
6
CONTINUOUS
10
5.32274842519685
20
-3.850056811023622
11
5.3229177165354331
21
-3.8501269291338582
0
LINE
8
BLACK
6
CONTINUOUS
10
5.3209111811023622
20
-3.8579308267716534
11
5.3229375196850395
21
-3.8579308267716534
0
LINE
8
BLACK
6
CONTINUOUS
10
5.3229375196850395
20
-3.8579308267716534
11
5.3234068503937007
21
-3.8576961417322835
0
LINE
8
BLACK
6
CONTINUOUS
10
5.3234068503937007
20
-3.8576961417322835
11
5.3236010236220475
21
-3.8575019685039371
0
LINE
8
BLACK
6
CONTINUOUS
10
5.3236010236220475
20
-3.8575019685039371
11
5.3238357874015749
21
-3.8570325196850392
0
LINE
8
BLACK
6
CONTINUOUS
10
5.3238357874015749
20
-3.8570325196850392
11
5.3238357874015749
21
-3.8562794881889761
0
LINE
8
BLACK
6
CONTINUOUS
10
5.3238357874015749
20
-3.8562794881889761
11
5.3236010236220475
21
-3.85581
0
LINE
8
BLACK
6
CONTINUOUS
10
5.3236010236220475
20
-3.85581
11
5.3234479527559051
21
-3.8556568897637793
0
LINE
8
BLACK
6
CONTINUOUS
10
5.3234479527559051
20
-3.8556568897637793
11
5.322620590551181
21
-3.8553811417322832
0
LINE
8
BLACK
6
CONTINUOUS
10
5.322620590551181
20
-3.8553811417322832
11
5.3209111811023622
21
-3.8553811417322832
0
LINE
8
BLACK
6
CONTINUOUS
10
5.3209111811023622
20
-3.8553811417322832
11
5.3209111811023622
21
-3.8579308267716534
0
LINE
8
BLACK
6
CONTINUOUS
10
5.3209111811023622
20
-3.8538063385826771
11
5.3225625590551182
21
-3.8538063385826771
0
LINE
8
BLACK
6
CONTINUOUS
10
5.3225625590551182
20
-3.8538063385826771
11
5.3230319291338581
21
-3.8535716535433071
0
LINE
8
BLACK
6
CONTINUOUS
10
5.3230319291338581
20
-3.8535716535433071
11
5.3232261023622049
21
-3.8533774803149607
0
LINE
8
BLACK
6
CONTINUOUS
10
5.3232261023622049
20
-3.8533774803149607
11
5.3234608267716537
21
-3.8529080314960629
0
LINE
8
BLACK
6
CONTINUOUS
10
5.3234608267716537
20
-3.8529080314960629
11
5.3234608267716537
21
-3.8525299212598423
0
LINE
8
BLACK
6
CONTINUOUS
10
5.3234608267716537
20
-3.8525299212598423
11
5.3232261023622049
21
-3.8520604724409448
0
LINE
8
BLACK
6
CONTINUOUS
10
5.3232261023622049
20
-3.8520604724409448
11
5.3230319291338581
21
-3.8518662992125985
0
LINE
8
BLACK
6
CONTINUOUS
10
5.3230319291338581
20
-3.8518662992125985
11
5.3225625196850395
21
-3.8516316141732281
0
LINE
8
BLACK
6
CONTINUOUS
10
5.3225625196850395
20
-3.8516316141732281
11
5.3209111811023622
21
-3.8516316141732281
0
LINE
8
BLACK
6
CONTINUOUS
10
5.3209111811023622
20
-3.8516316141732281
11
5.3209111811023622
21
-3.8538063385826771
0
LINE
8
BLACK
6
CONTINUOUS
10
5.3304167716535433
20
-3.8527516141732283
11
5.330599606299212
21
-3.8527646062992127
0
LINE
8
BLACK
6
CONTINUOUS
10
5.330599606299212
20
-3.8527646062992127
11
5.3313495275590546
21
-3.853139566929134
0
LINE
8
BLACK
6
CONTINUOUS
10
5.3313495275590546
20
-3.853139566929134
11
5.3315130708661416
21
-3.8533281102362205
0
LINE
8
BLACK
6
CONTINUOUS
10
5.3315130708661416
20
-3.8533281102362205
11
5.3317016535433073
21
-3.8534916929133858
0
LINE
8
BLACK
6
CONTINUOUS
10
5.3317016535433073
20
-3.8534916929133858
11
5.3320766141732285
21
-3.8542415748031496
0
LINE
8
BLACK
6
CONTINUOUS
10
5.3320766141732285
20
-3.8542415748031496
11
5.3320895669291337
21
-3.8544243307086612
0
LINE
8
BLACK
6
CONTINUOUS
10
5.3320895669291337
20
-3.8544243307086612
11
5.3321597637795275
21
-3.8545937401574801
0
LINE
8
BLACK
6
CONTINUOUS
10
5.3321597637795275
20
-3.8545937401574801
11
5.3321597637795275
21
-3.8553436614173227
0
LINE
8
BLACK
6
CONTINUOUS
10
5.3321597637795275
20
-3.8553436614173227
11
5.3320719685039366
21
-3.8555555118110236
0
LINE
8
BLACK
6
CONTINUOUS
10
5.3320719685039366
20
-3.8555555118110236
11
5.3320275196850391
21
-3.855780433070866
0
LINE
8
BLACK
6
CONTINUOUS
10
5.3320275196850391
20
-3.855780433070866
11
5.3319601181102358
21
-3.8558255118110236
0
LINE
8
BLACK
6
CONTINUOUS
10
5.3319601181102358
20
-3.8558255118110236
11
5.3319291338582673
21
-3.8559004330708659
0
LINE
8
BLACK
6
CONTINUOUS
10
5.3319291338582673
20
-3.8559004330708659
11
5.3317173228346455
21
-3.8559881496062993
0
LINE
8
BLACK
6
CONTINUOUS
10
5.3317173228346455
20
-3.8559881496062993
11
5.3315267716535431
21
-3.8561157874015746
0
LINE
8
BLACK
6
CONTINUOUS
10
5.3315267716535431
20
-3.8561157874015746
11
5.3284102362204724
21
-3.856739094488189
0
LINE
8
BLACK
6
CONTINUOUS
10
5.3284102362204724
20
-3.856739094488189
11
5.3284102362204724
21
-3.8574074803149605
0
LINE
8
BLACK
6
CONTINUOUS
10
5.3284102362204724
20
-3.8574074803149605
11
5.3285846456692916
21
-3.8577563779527559
0
LINE
8
BLACK
6
CONTINUOUS
10
5.3285846456692916
20
-3.8577563779527559
11
5.3289335826771653
21
-3.8579308267716534
0
LINE
8
BLACK
6
CONTINUOUS
10
5.3289335826771653
20
-3.8579308267716534
11
5.3300616141732284
21
-3.8579308267716534
0
LINE
8
BLACK
6
CONTINUOUS
10
5.3300616141732284
20
-3.8579308267716534
11
5.3306453149606297
21
-3.8576390157480316
0
LINE
8
BLACK
6
CONTINUOUS
10
5.3306453149606297
20
-3.8576390157480316
11
5.3312464173228342
21
-3.857596338582677
0
LINE
8
BLACK
6
CONTINUOUS
10
5.3312464173228342
20
-3.857596338582677
11
5.331701692913386
21
-3.8579911811023622
0
LINE
8
BLACK
6
CONTINUOUS
10
5.331701692913386
20
-3.8579911811023622
11
5.3317443700787397
21
-3.8585923228346455
0
LINE
8
BLACK
6
CONTINUOUS
10
5.3317443700787397
20
-3.8585923228346455
11
5.3313495275590546
21
-3.8590475984251968
0
LINE
8
BLACK
6
CONTINUOUS
10
5.3313495275590546
20
-3.8590475984251968
11
5.330599606299212
21
-3.8594225196850394
0
LINE
8
BLACK
6
CONTINUOUS
10
5.330599606299212
20
-3.8594225196850394
11
5.3304167716535433
21
-3.859435472440945
0
LINE
8
BLACK
6
CONTINUOUS
10
5.3304167716535433
20
-3.859435472440945
11
5.3302474803149602
21
-3.8595056299212596
0
LINE
8
BLACK
6
CONTINUOUS
10
5.3302474803149602
20
-3.8595056299212596
11
5.3287476771653539
21
-3.8595056299212596
0
LINE
8
BLACK
6
CONTINUOUS
10
5.3287476771653539
20
-3.8595056299212596
11
5.3285783464566929
21
-3.859435472440945
0
LINE
8
BLACK
6
CONTINUOUS
10
5.3285783464566929
20
-3.859435472440945
11
5.3283955511811021
21
-3.8594225196850394
0
LINE
8
BLACK
6
CONTINUOUS
10
5.3283955511811021
20
-3.8594225196850394
11
5.3276456692913383
21
-3.8590475984251968
0
LINE
8
BLACK
6
CONTINUOUS
10
5.3276456692913383
20
-3.8590475984251968
11
5.3274820866141734
21
-3.8588589763779528
0
LINE
8
BLACK
6
CONTINUOUS
10
5.3274820866141734
20
-3.8588589763779528
11
5.3272935039370077
21
-3.8586954330708663
0
LINE
8
BLACK
6
CONTINUOUS
10
5.3272935039370077
20
-3.8586954330708663
11
5.3269185433070865
21
-3.8579455118110237
0
LINE
8
BLACK
6
CONTINUOUS
10
5.3269185433070865
20
-3.8579455118110237
11
5.3269055511811025
21
-3.8577626771653541
0
LINE
8
BLACK
6
CONTINUOUS
10
5.3269055511811025
20
-3.8577626771653541
11
5.3268354330708663
21
-3.8575933858267715
0
LINE
8
BLACK
6
CONTINUOUS
10
5.3268354330708663
20
-3.8575933858267715
11
5.3268354330708663
21
-3.8545937401574801
0
LINE
8
BLACK
6
CONTINUOUS
10
5.3268354330708663
20
-3.8545937401574801
11
5.3269055511811025
21
-3.8544243700787399
0
LINE
8
BLACK
6
CONTINUOUS
10
5.3269055511811025
20
-3.8544243700787399
11
5.3269185826771652
21
-3.8542415748031496
0
LINE
8
BLACK
6
CONTINUOUS
10
5.3269185826771652
20
-3.8542415748031496
11
5.3272935039370077
21
-3.8534917322834645
0
LINE
8
BLACK
6
CONTINUOUS
10
5.3272935039370077
20
-3.8534917322834645
11
5.3274820078740159
21
-3.8533282283464567
0
LINE
8
BLACK
6
CONTINUOUS
10
5.3274820078740159
20
-3.8533282283464567
11
5.3276456299212596
21
-3.8531396062992127
0
LINE
8
BLACK
6
CONTINUOUS
10
5.3276456299212596
20
-3.8531396062992127
11
5.3283955118110233
21
-3.8527646456692914
0
LINE
8
BLACK
6
CONTINUOUS
10
5.3283955118110233
20
-3.8527646456692914
11
5.3285782677165354
21
-3.8527516535433071
0
LINE
8
BLACK
6
CONTINUOUS
10
5.3285782677165354
20
-3.8527516535433071
11
5.3287476771653539
21
-3.852681496062992
0
LINE
8
BLACK
6
CONTINUOUS
10
5.3287476771653539
20
-3.852681496062992
11
5.3302474803149602
21
-3.852681496062992
0
LINE
8
BLACK
6
CONTINUOUS
10
5.3302474803149602
20
-3.852681496062992
11
5.3304167716535433
21
-3.8527516141732283
0
LINE
8
BLACK
6
CONTINUOUS
10
5.3285846456692916
20
-3.8544307480314961
11
5.3284102362204724
21
-3.8547796062992123
0
LINE
8
BLACK
6
CONTINUOUS
10
5.3284102362204724
20
-3.8547796062992123
11
5.3284102362204724
21
-3.8551330708661418
0
LINE
8
BLACK
6
CONTINUOUS
10
5.3284102362204724
20
-3.8551330708661418
11
5.3305478740157479
21
-3.8547055118110234
0
LINE
8
BLACK
6
CONTINUOUS
10
5.3305478740157479
20
-3.8547055118110234
11
5.3304105118110234
21
-3.8544307480314961
0
LINE
8
BLACK
6
CONTINUOUS
10
5.3304105118110234
20
-3.8544307480314961
11
5.3300615748031497
21
-3.8542562992125982
0
LINE
8
BLACK
6
CONTINUOUS
10
5.3300615748031497
20
-3.8542562992125982
11
5.3289335826771653
21
-3.8542562992125982
0
LINE
8
BLACK
6
CONTINUOUS
10
5.3289335826771653
20
-3.8542562992125982
11
5.3285846456692916
21
-3.8544307480314961
0
LINE
8
BLACK
6
CONTINUOUS
10
5.3412904330708662
20
-3.8527516141732283
11
5.3414732677165357
21
-3.8527646062992127
0
LINE
8
BLACK
6
CONTINUOUS
10
5.3414732677165357
20
-3.8527646062992127
11
5.3422231889763783
21
-3.853139566929134
0
LINE
8
BLACK
6
CONTINUOUS
10
5.3422231889763783
20
-3.853139566929134
11
5.3423081102362202
21
-3.8532374803149607
0
LINE
8
BLACK
6
CONTINUOUS
10
5.3423081102362202
20
-3.8532374803149607
11
5.3424278346456688
21
-3.8532870866141731
0
LINE
8
BLACK
6
CONTINUOUS
10
5.3424278346456688
20
-3.8532870866141731
11
5.3428027952755901
21
-3.8536620472440943
0
LINE
8
BLACK
6
CONTINUOUS
10
5.3428027952755901
20
-3.8536620472440943
11
5.3428523622047246
21
-3.8537817322834647
0
LINE
8
BLACK
6
CONTINUOUS
10
5.3428523622047246
20
-3.8537817322834647
11
5.3429502755905514
21
-3.853866653543307
0
LINE
8
BLACK
6
CONTINUOUS
10
5.3429502755905514
20
-3.853866653543307
11
5.3433252362204726
21
-3.8546165354330708
0
LINE
8
BLACK
6
CONTINUOUS
10
5.3433252362204726
20
-3.8546165354330708
11
5.3433381889763778
21
-3.8547992913385825
0
LINE
8
BLACK
6
CONTINUOUS
10
5.3433381889763778
20
-3.8547992913385825
11
5.3434083858267716
21
-3.8549687007874014
0
LINE
8
BLACK
6
CONTINUOUS
10
5.3434083858267716
20
-3.8549687007874014
11
5.3434083858267716
21
-3.8572184251968502
0
LINE
8
BLACK
6
CONTINUOUS
10
5.3434083858267716
20
-3.8572184251968502
11
5.3433381889763778
21
-3.8573877952755904
0
LINE
8
BLACK
6
CONTINUOUS
10
5.3433381889763778
20
-3.8573877952755904
11
5.3433252362204726
21
-3.8575705905511812
0
LINE
8
BLACK
6
CONTINUOUS
10
5.3433252362204726
20
-3.8575705905511812
11
5.3429503149606301
21
-3.858320472440945
0
LINE
8
BLACK
6
CONTINUOUS
10
5.3429503149606301
20
-3.858320472440945
11
5.3428523622047246
21
-3.8584053543307086
0
LINE
8
BLACK
6
CONTINUOUS
10
5.3428523622047246
20
-3.8584053543307086
11
5.3428027952755901
21
-3.858525118110236
0
LINE
8
BLACK
6
CONTINUOUS
10
5.3428027952755901
20
-3.858525118110236
11
5.3424278346456688
21
-3.8589000787401573
0
LINE
8
BLACK
6
CONTINUOUS
10
5.3424278346456688
20
-3.8589000787401573
11
5.3423081102362202
21
-3.8589496456692913
0
LINE
8
BLACK
6
CONTINUOUS
10
5.3423081102362202
20
-3.8589496456692913
11
5.3422231889763783
21
-3.8590475984251968
0
LINE
8
BLACK
6
CONTINUOUS
10
5.3422231889763783
20
-3.8590475984251968
11
5.3414732677165357
21
-3.8594225196850394
0
LINE
8
BLACK
6
CONTINUOUS
10
5.3414732677165357
20
-3.8594225196850394
11
5.3412904330708662
21
-3.859435472440945
0
LINE
8
BLACK
6
CONTINUOUS
10
5.3412904330708662
20
-3.859435472440945
11
5.341121141732283
21
-3.8595056299212596
0
LINE
8
BLACK
6
CONTINUOUS
10
5.341121141732283
20
-3.8595056299212596
11
5.339996299212598
21
-3.8595056299212596
0
LINE
8
BLACK
6
CONTINUOUS
10
5.339996299212598
20
-3.8595056299212596
11
5.339826968503937
21
-3.859435472440945
0
LINE
8
BLACK
6
CONTINUOUS
10
5.339826968503937
20
-3.859435472440945
11
5.3396442125984249
21
-3.8594225196850394
0
LINE
8
BLACK
6
CONTINUOUS
10
5.3396442125984249
20
-3.8594225196850394
11
5.3388942519685036
21
-3.8590475984251968
0
LINE
8
BLACK
6
CONTINUOUS
10
5.3388942519685036
20
-3.8590475984251968
11
5.338809291338583
21
-3.8589496062992126
0
LINE
8
BLACK
6
CONTINUOUS
10
5.338809291338583
20
-3.8589496062992126
11
5.3386895669291334
21
-3.8589000393700785
0
LINE
8
BLACK
6
CONTINUOUS
10
5.3386895669291334
20
-3.8589000393700785
11
5.3383146456692909
21
-3.8585250787401573
0
LINE
8
BLACK
6
CONTINUOUS
10
5.3383146456692909
20
-3.8585250787401573
11
5.3382650393700786
21
-3.8584053543307086
0
LINE
8
BLACK
6
CONTINUOUS
10
5.3382650393700786
20
-3.8584053543307086
11
5.3381671653543306
21
-3.858320472440945
0
LINE
8
BLACK
6
CONTINUOUS
10
5.3381671653543306
20
-3.858320472440945
11
5.3377922047244093
21
-3.8575705511811025
0
LINE
8
BLACK
6
CONTINUOUS
10
5.3377922047244093
20
-3.8575705511811025
11
5.3377792125984254
21
-3.8573877165354329
0
LINE
8
BLACK
6
CONTINUOUS
10
5.3377792125984254
20
-3.8573877165354329
11
5.3377090944881891
21
-3.8572184251968502
0
LINE
8
BLACK
6
CONTINUOUS
10
5.3377090944881891
20
-3.8572184251968502
11
5.3377090944881891
21
-3.8549687007874014
0
LINE
8
BLACK
6
CONTINUOUS
10
5.3377090944881891
20
-3.8549687007874014
11
5.3377792125984254
21
-3.8547993307086612
0
LINE
8
BLACK
6
CONTINUOUS
10
5.3377792125984254
20
-3.8547993307086612
11
5.337792244094488
21
-3.8546165354330708
0
LINE
8
BLACK
6
CONTINUOUS
10
5.337792244094488
20
-3.8546165354330708
11
5.3381671653543306
21
-3.8538666929133858
0
LINE
8
BLACK
6
CONTINUOUS
10
5.3381671653543306
20
-3.8538666929133858
11
5.3382650393700786
21
-3.8537817716535434
0
LINE
8
BLACK
6
CONTINUOUS
10
5.3382650393700786
20
-3.8537817716535434
11
5.3383146456692909
21
-3.8536620866141731
0
LINE
8
BLACK
6
CONTINUOUS
10
5.3383146456692909
20
-3.8536620866141731
11
5.3386895669291334
21
-3.8532871259842518
0
LINE
8
BLACK
6
CONTINUOUS
10
5.3386895669291334
20
-3.8532871259842518
11
5.338809291338583
21
-3.8532374803149607
0
LINE
8
BLACK
6
CONTINUOUS
10
5.338809291338583
20
-3.8532374803149607
11
5.3388942519685036
21
-3.853139566929134
0
LINE
8
BLACK
6
CONTINUOUS
10
5.3388942519685036
20
-3.853139566929134
11
5.3396441338582674
21
-3.8527646456692914
0
LINE
8
BLACK
6
CONTINUOUS
10
5.3396441338582674
20
-3.8527646456692914
11
5.3398268897637795
21
-3.8527516535433071
0
LINE
8
BLACK
6
CONTINUOUS
10
5.3398268897637795
20
-3.8527516535433071
11
5.339996299212598
21
-3.852681496062992
0
LINE
8
BLACK
6
CONTINUOUS
10
5.339996299212598
20
-3.852681496062992
11
5.341121141732283
21
-3.852681496062992
0
LINE
8
BLACK
6
CONTINUOUS
10
5.341121141732283
20
-3.852681496062992
11
5.3412904330708662
21
-3.8527516141732283
0
LINE
8
BLACK
6
CONTINUOUS
10
5.3397128346456695
20
-3.8544909842519686
11
5.3395185433070864
21
-3.8546852362204724
0
LINE
8
BLACK
6
CONTINUOUS
10
5.3395185433070864
20
-3.8546852362204724
11
5.3392838976377952
21
-3.8551545669291336
0
LINE
8
BLACK
6
CONTINUOUS
10
5.3392838976377952
20
-3.8551545669291336
11
5.3392838976377952
21
-3.8570325196850392
0
LINE
8
BLACK
6
CONTINUOUS
10
5.3392838976377952
20
-3.8570325196850392
11
5.3395185826771652
21
-3.8575019291338584
0
LINE
8
BLACK
6
CONTINUOUS
10
5.3395185826771652
20
-3.8575019291338584
11
5.3397127952755907
21
-3.8576961417322835
0
LINE
8
BLACK
6
CONTINUOUS
10
5.3397127952755907
20
-3.8576961417322835
11
5.3401822047244094
21
-3.8579308267716534
0
LINE
8
BLACK
6
CONTINUOUS
10
5.3401822047244094
20
-3.8579308267716534
11
5.3409352755905513
21
-3.8579308267716534
0
LINE
8
BLACK
6
CONTINUOUS
10
5.3409352755905513
20
-3.8579308267716534
11
5.3414046456692912
21
-3.8576961417322835
0
LINE
8
BLACK
6
CONTINUOUS
10
5.3414046456692912
20
-3.8576961417322835
11
5.3415988582677167
21
-3.8575019685039371
0
LINE
8
BLACK
6
CONTINUOUS
10
5.3415988582677167
20
-3.8575019685039371
11
5.3418335826771655
21
-3.8570325196850392
0
LINE
8
BLACK
6
CONTINUOUS
10
5.3418335826771655
20
-3.8570325196850392
11
5.3418335826771655
21
-3.8551546062992124
0
LINE
8
BLACK
6
CONTINUOUS
10
5.3418335826771655
20
-3.8551546062992124
11
5.3415988976377955
21
-3.8546852362204724
0
LINE
8
BLACK
6
CONTINUOUS
10
5.3415988976377955
20
-3.8546852362204724
11
5.3414046456692912
21
-3.8544909842519686
0
LINE
8
BLACK
6
CONTINUOUS
10
5.3414046456692912
20
-3.8544909842519686
11
5.3409352362204725
21
-3.8542562992125982
0
LINE
8
BLACK
6
CONTINUOUS
10
5.3409352362204725
20
-3.8542562992125982
11
5.3401822047244094
21
-3.8542562992125982
0
LINE
8
BLACK
6
CONTINUOUS
10
5.3401822047244094
20
-3.8542562992125982
11
5.3397128346456695
21
-3.8544909842519686
0
LINE
8
BLACK
6
CONTINUOUS
10
5.3519331889763775
20
-3.8530865354330706
11
5.3520019685039371
21
-3.8536852362204725
0
LINE
8
BLACK
6
CONTINUOUS
10
5.3520019685039371
20
-3.8536852362204725
11
5.3505021653543308
21
-3.8589345275590552
0
LINE
8
BLACK
6
CONTINUOUS
10
5.3505021653543308
20
-3.8589345275590552
11
5.3504694488188971
21
-3.8589757086614171
0
LINE
8
BLACK
6
CONTINUOUS
10
5.3504694488188971
20
-3.8589757086614171
11
5.3504688188976379
21
-3.8590283858267718
0
LINE
8
BLACK
6
CONTINUOUS
10
5.3504688188976379
20
-3.8590283858267718
11
5.3502860629921258
21
-3.8592066929133857
0
LINE
8
BLACK
6
CONTINUOUS
10
5.3502860629921258
20
-3.8592066929133857
11
5.3501274803149608
21
-3.8594065354330707
0
LINE
8
BLACK
6
CONTINUOUS
10
5.3501274803149608
20
-3.8594065354330707
11
5.3500751968503932
21
-3.8594125196850393
0
LINE
8
BLACK
6
CONTINUOUS
10
5.3500751968503932
20
-3.8594125196850393
11
5.3500375196850394
21
-3.8594493307086615
0
LINE
8
BLACK
6
CONTINUOUS
10
5.3500375196850394
20
-3.8594493307086615
11
5.349782086614173
21
-3.8594461811023622
0
LINE
8
BLACK
6
CONTINUOUS
10
5.349782086614173
20
-3.8594461811023622
11
5.3495287795275592
21
-3.8594753149606298
0
LINE
8
BLACK
6
CONTINUOUS
10
5.3495287795275592
20
-3.8594753149606298
11
5.3494875590551176
21
-3.8594425984251965
0
LINE
8
BLACK
6
CONTINUOUS
10
5.3494875590551176
20
-3.8594425984251965
11
5.3494349212598422
21
-3.8594419685039369
0
LINE
8
BLACK
6
CONTINUOUS
10
5.3494349212598422
20
-3.8594419685039369
11
5.3492566141732283
21
-3.8592592913385828
0
LINE
8
BLACK
6
CONTINUOUS
10
5.3492566141732283
20
-3.8592592913385828
11
5.3490567716535429
21
-3.8591006299212598
0
LINE
8
BLACK
6
CONTINUOUS
10
5.3490567716535429
20
-3.8591006299212598
11
5.3490507480314964
21
-3.8590483070866139
0
LINE
8
BLACK
6
CONTINUOUS
10
5.3490507480314964
20
-3.8590483070866139
11
5.3490140157480317
21
-3.8590106692913384
0
LINE
8
BLACK
6
CONTINUOUS
10
5.3490140157480317
20
-3.8590106692913384
11
5.348245236220472
21
-3.857088779527559
0
LINE
8
BLACK
6
CONTINUOUS
10
5.348245236220472
20
-3.857088779527559
11
5.3474765354330707
21
-3.8590106692913384
0
LINE
8
BLACK
6
CONTINUOUS
10
5.3474765354330707
20
-3.8590106692913384
11
5.3474397244094485
21
-3.8590483464566927
0
LINE
8
BLACK
6
CONTINUOUS
10
5.3474397244094485
20
-3.8590483464566927
11
5.3474337401574799
21
-3.859100590551181
0
LINE
8
BLACK
6
CONTINUOUS
10
5.3474337401574799
20
-3.859100590551181
11
5.3472340157480316
21
-3.8592591338582678
0
LINE
8
BLACK
6
CONTINUOUS
10
5.3472340157480316
20
-3.8592591338582678
11
5.3470555905511814
21
-3.8594419685039369
0
LINE
8
BLACK
6
CONTINUOUS
10
5.3470555905511814
20
-3.8594419685039369
11
5.3470029133858263
21
-3.8594425984251965
0
LINE
8
BLACK
6
CONTINUOUS
10
5.3470029133858263
20
-3.8594425984251965
11
5.3469617322834644
21
-3.8594753149606298
0
LINE
8
BLACK
6
CONTINUOUS
10
5.3469617322834644
20
-3.8594753149606298
11
5.3467083858267719
21
-3.8594461811023622
0
LINE
8
BLACK
6
CONTINUOUS
10
5.3467083858267719
20
-3.8594461811023622
11
5.3464529921259842
21
-3.8594493307086615
0
LINE
8
BLACK
6
CONTINUOUS
10
5.3464529921259842
20
-3.8594493307086615
11
5.3464152755905507
21
-3.8594125196850393
0
LINE
8
BLACK
6
CONTINUOUS
10
5.3464152755905507
20
-3.8594125196850393
11
5.3463630314960628
21
-3.8594065354330707
0
LINE
8
BLACK
6
CONTINUOUS
10
5.3463630314960628
20
-3.8594065354330707
11
5.3462043307086615
21
-3.8592066535433069
0
LINE
8
BLACK
6
CONTINUOUS
10
5.3462043307086615
20
-3.8592066535433069
11
5.3460216929133857
21
-3.8590283858267718
0
LINE
8
BLACK
6
CONTINUOUS
10
5.3460216929133857
20
-3.8590283858267718
11
5.3460210236220469
21
-3.8589757480314959
0
LINE
8
BLACK
6
CONTINUOUS
10
5.3460210236220469
20
-3.8589757480314959
11
5.3459883070866141
21
-3.8589345275590552
0
LINE
8
BLACK
6
CONTINUOUS
10
5.3459883070866141
20
-3.8589345275590552
11
5.3444885433070866
21
-3.8536851968503938
0
LINE
8
BLACK
6
CONTINUOUS
10
5.3444885433070866
20
-3.8536851968503938
11
5.3445573228346452
21
-3.8530864960629922
0
LINE
8
BLACK
6
CONTINUOUS
10
5.3445573228346452
20
-3.8530864960629922
11
5.3450293307086616
21
-3.8527118110236218
0
LINE
8
BLACK
6
CONTINUOUS
10
5.3450293307086616
20
-3.8527118110236218
11
5.3456280314960631
21
-3.8527805905511809
0
LINE
8
BLACK
6
CONTINUOUS
10
5.3456280314960631
20
-3.8527805905511809
11
5.3460027165354331
21
-3.8532525984251969
0
LINE
8
BLACK
6
CONTINUOUS
10
5.3460027165354331
20
-3.8532525984251969
11
5.3468697244094487
21
-3.8562872047244094
0
LINE
8
BLACK
6
CONTINUOUS
10
5.3468697244094487
20
-3.8562872047244094
11
5.3475141338582679
21
-3.8546762992125982
0
LINE
8
BLACK
6
CONTINUOUS
10
5.3475141338582679
20
-3.8546762992125982
11
5.347521338582677
21
-3.8546688582677167
0
LINE
8
BLACK
6
CONTINUOUS
10
5.347521338582677
20
-3.8546688582677167
11
5.347521496062992
21
-3.8546585433070866
0
LINE
8
BLACK
6
CONTINUOUS
10
5.347521496062992
20
-3.8546585433070866
11
5.347731181102362
21
-3.8544538582677164
0
LINE
8
BLACK
6
CONTINUOUS
10
5.347731181102362
20
-3.8544538582677164
11
5.3479350787401572
21
-3.8542449999999997
0
LINE
8
BLACK
6
CONTINUOUS
10
5.3479350787401572
20
-3.8542449999999997
11
5.3479453543307089
21
-3.8542448425196851
0
LINE
8
BLACK
6
CONTINUOUS
10
5.3479453543307089
20
-3.8542448425196851
11
5.3479527952755905
21
-3.8542376377952756
0
LINE
8
BLACK
6
CONTINUOUS
10
5.3479527952755905
20
-3.8542376377952756
11
5.3482459842519683
21
-3.854241181102362
0
LINE
8
BLACK
6
CONTINUOUS
10
5.3482459842519683
20
-3.854241181102362
11
5.3485376771653543
21
-3.8542376377952756
0
LINE
8
BLACK
6
CONTINUOUS
10
5.3485376771653543
20
-3.8542376377952756
11
5.3485450393700784
21
-3.8542448031496064
0
LINE
8
BLACK
6
CONTINUOUS
10
5.3485450393700784
20
-3.8542448031496064
11
5.3485553937007877
21
-3.8542449606299214
0
LINE
8
BLACK
6
CONTINUOUS
10
5.3485553937007877
20
-3.8542449606299214
11
5.3487596456692916
21
-3.8544542519685039
0
LINE
8
BLACK
6
CONTINUOUS
10
5.3487596456692916
20
-3.8544542519685039
11
5.3489689763779529
21
-3.8546585433070866
0
LINE
8
BLACK
6
CONTINUOUS
10
5.3489689763779529
20
-3.8546585433070866
11
5.3489690944881891
21
-3.8546688582677167
0
LINE
8
BLACK
6
CONTINUOUS
10
5.3489690944881891
20
-3.8546688582677167
11
5.3489762992125982
21
-3.8546762598425195
0
LINE
8
BLACK
6
CONTINUOUS
10
5.3489762992125982
20
-3.8546762598425195
11
5.3496207086614174
21
-3.8562872440944882
0
LINE
8
BLACK
6
CONTINUOUS
10
5.3496207086614174
20
-3.8562872440944882
11
5.3504877559055117
21
-3.8532525984251969
0
LINE
8
BLACK
6
CONTINUOUS
10
5.3504877559055117
20
-3.8532525984251969
11
5.3508624803149605
21
-3.8527805905511809
0
LINE
8
BLACK
6
CONTINUOUS
10
5.3508624803149605
20
-3.8527805905511809
11
5.351461181102362
21
-3.8527118110236218
0
LINE
8
BLACK
6
CONTINUOUS
10
5.351461181102362
20
-3.8527118110236218
11
5.3519331889763775
21
-3.8530865354330706
0
LINE
8
BLACK
6
CONTINUOUS
10
5.3045575590551177
20
-3.8502874409448817
11
5.3047881889763779
21
-3.850844212598425
0
LINE
8
BLACK
6
CONTINUOUS
10
5.3047881889763779
20
-3.850844212598425
11
5.3047881889763779
21
-3.8574074803149605
0
LINE
8
BLACK
6
CONTINUOUS
10
5.3047881889763779
20
-3.8574074803149605
11
5.3049625984251971
21
-3.8577563779527559
0
LINE
8
BLACK
6
CONTINUOUS
10
5.3049625984251971
20
-3.8577563779527559
11
5.3054777559055113
21
-3.8580139370078741
0
LINE
8
BLACK
6
CONTINUOUS
10
5.3054777559055113
20
-3.8580139370078741
11
5.3058725984251964
21
-3.858469212598425
0
LINE
8
BLACK
6
CONTINUOUS
10
5.3058725984251964
20
-3.858469212598425
11
5.3058299212598428
21
-3.8590703543307088
0
LINE
8
BLACK
6
CONTINUOUS
10
5.3058299212598428
20
-3.8590703543307088
11
5.305374645669291
21
-3.8594651968503935
0
LINE
8
BLACK
6
CONTINUOUS
10
5.305374645669291
20
-3.8594651968503935
11
5.3047735433070864
21
-3.8594225196850394
0
LINE
8
BLACK
6
CONTINUOUS
10
5.3047735433070864
20
-3.8594225196850394
11
5.3040235826771651
21
-3.8590475984251968
0
LINE
8
BLACK
6
CONTINUOUS
10
5.3040235826771651
20
-3.8590475984251968
11
5.3038600000000002
21
-3.8588589763779528
0
LINE
8
BLACK
6
CONTINUOUS
10
5.3038600000000002
20
-3.8588589763779528
11
5.3036714173228345
21
-3.8586954330708663
0
LINE
8
BLACK
6
CONTINUOUS
10
5.3036714173228345
20
-3.8586954330708663
11
5.303296496062992
21
-3.8579455118110237
0
LINE
8
BLACK
6
CONTINUOUS
10
5.303296496062992
20
-3.8579455118110237
11
5.3032835039370081
21
-3.8577626771653541
0
LINE
8
BLACK
6
CONTINUOUS
10
5.3032835039370081
20
-3.8577626771653541
11
5.3032133858267718
21
-3.8575933858267715
0
LINE
8
BLACK
6
CONTINUOUS
10
5.3032133858267718
20
-3.8575933858267715
11
5.3032133858267718
21
-3.850844212598425
0
LINE
8
BLACK
6
CONTINUOUS
10
5.3032133858267718
20
-3.850844212598425
11
5.3034440157480311
21
-3.8502874409448817
0
LINE
8
BLACK
6
CONTINUOUS
10
5.3034440157480311
20
-3.8502874409448817
11
5.3040007874015744
21
-3.850056811023622
0
LINE
8
BLACK
6
CONTINUOUS
10
5.3040007874015744
20
-3.850056811023622
11
5.3045575590551177
21
-3.8502874409448817
0
LINE
8
BLACK
6
CONTINUOUS
10
5.3353037401574799
20
-3.8502874409448817
11
5.3355343700787401
21
-3.850844212598425
0
LINE
8
BLACK
6
CONTINUOUS
10
5.3355343700787401
20
-3.850844212598425
11
5.3355343700787401
21
-3.8574074803149605
0
LINE
8
BLACK
6
CONTINUOUS
10
5.3355343700787401
20
-3.8574074803149605
11
5.3357087795275593
21
-3.8577563779527559
0
LINE
8
BLACK
6
CONTINUOUS
10
5.3357087795275593
20
-3.8577563779527559
11
5.3362239370078735
21
-3.8580139370078741
0
LINE
8
BLACK
6
CONTINUOUS
10
5.3362239370078735
20
-3.8580139370078741
11
5.3366187795275586
21
-3.858469212598425
0
LINE
8
BLACK
6
CONTINUOUS
10
5.3366187795275586
20
-3.858469212598425
11
5.3365761023622049
21
-3.8590703543307088
0
LINE
8
BLACK
6
CONTINUOUS
10
5.3365761023622049
20
-3.8590703543307088
11
5.3361208267716531
21
-3.8594651968503935
0
LINE
8
BLACK
6
CONTINUOUS
10
5.3361208267716531
20
-3.8594651968503935
11
5.3355197244094485
21
-3.8594225196850394
0
LINE
8
BLACK
6
CONTINUOUS
10
5.3355197244094485
20
-3.8594225196850394
11
5.3347697637795273
21
-3.8590475984251968
0
LINE
8
BLACK
6
CONTINUOUS
10
5.3347697637795273
20
-3.8590475984251968
11
5.3346061811023624
21
-3.8588589763779528
0
LINE
8
BLACK
6
CONTINUOUS
10
5.3346061811023624
20
-3.8588589763779528
11
5.3344175984251967
21
-3.8586954330708663
0
LINE
8
BLACK
6
CONTINUOUS
10
5.3344175984251967
20
-3.8586954330708663
11
5.3340426771653542
21
-3.8579455118110237
0
LINE
8
BLACK
6
CONTINUOUS
10
5.3340426771653542
20
-3.8579455118110237
11
5.3340296850393702
21
-3.8577626771653541
0
LINE
8
BLACK
6
CONTINUOUS
10
5.3340296850393702
20
-3.8577626771653541
11
5.333959566929134
21
-3.8575933858267715
0
LINE
8
BLACK
6
CONTINUOUS
10
5.333959566929134
20
-3.8575933858267715
11
5.333959566929134
21
-3.850844212598425
0
LINE
8
BLACK
6
CONTINUOUS
10
5.333959566929134
20
-3.850844212598425
11
5.3341901968503933
21
-3.8502874409448817
0
LINE
8
BLACK
6
CONTINUOUS
10
5.3341901968503933
20
-3.8502874409448817
11
5.3347469685039366
21
-3.850056811023622
0
LINE
8
BLACK
6
CONTINUOUS
10
5.3347469685039366
20
-3.850056811023622
11
5.3353037401574799
21
-3.8502874409448817
0
LINE
8
BLACK
6
CONTINUOUS
10
5.2775796850393704
20
-3.8501399212598426
11
5.2779358267716532
21
-3.8502874409448817
0
LINE
8
BLACK
6
CONTINUOUS
10
5.2779358267716532
20
-3.8502874409448817
11
5.2779358661417319
21
-3.8502874803149605
0
LINE
8
BLACK
6
CONTINUOUS
10
5.2779358661417319
20
-3.8502874803149605
11
5.2783107874015744
21
-3.850662401574803
0
LINE
8
BLACK
6
CONTINUOUS
10
5.2783107874015744
20
-3.850662401574803
11
5.2784049606299215
21
-3.8508898425196851
0
LINE
8
BLACK
6
CONTINUOUS
10
5.2784049606299215
20
-3.8508898425196851
11
5.2785413779527559
21
-3.8512191338582675
0
LINE
8
BLACK
6
CONTINUOUS
10
5.2785413779527559
20
-3.8512191338582675
11
5.2785413385826772
21
-3.8512191732283463
0
LINE
8
BLACK
6
CONTINUOUS
10
5.2785413385826772
20
-3.8512191732283463
11
5.2785413779527559
21
-3.851219212598425
0
LINE
8
BLACK
6
CONTINUOUS
10
5.2785413779527559
20
-3.851219212598425
11
5.2785224803149609
21
-3.8512648031496064
0
LINE
8
BLACK
6
CONTINUOUS
10
5.2785224803149609
20
-3.8512648031496064
11
5.2783107874015744
21
-3.8517759448818896
0
LINE
8
BLACK
6
CONTINUOUS
10
5.2783107874015744
20
-3.8517759448818896
11
5.2779358661417319
21
-3.8521508661417321
0
LINE
8
BLACK
6
CONTINUOUS
10
5.2779358661417319
20
-3.8521508661417321
11
5.2779358267716532
21
-3.8521508661417321
0
LINE
8
BLACK
6
CONTINUOUS
10
5.2779358267716532
20
-3.8521508661417321
11
5.2779358267716532
21
-3.8521509055118108
0
LINE
8
BLACK
6
CONTINUOUS
10
5.2779358267716532
20
-3.8521509055118108
11
5.2776097244094489
21
-3.8522859842519686
0
LINE
8
BLACK
6
CONTINUOUS
10
5.2776097244094489
20
-3.8522859842519686
11
5.2773790944881886
21
-3.8523815354330706
0
LINE
8
BLACK
6
CONTINUOUS
10
5.2773790944881886
20
-3.8523815354330706
11
5.2773790551181099
21
-3.8523814960629919
0
LINE
8
BLACK
6
CONTINUOUS
10
5.2773790551181099
20
-3.8523814960629919
11
5.2773790551181099
21
-3.8523815354330706
0
LINE
8
BLACK
6
CONTINUOUS
10
5.2773790551181099
20
-3.8523815354330706
11
5.2771484645669293
21
-3.8522859842519686
0
LINE
8
BLACK
6
CONTINUOUS
10
5.2771484645669293
20
-3.8522859842519686
11
5.2768223228346454
21
-3.8521509448818896
0
LINE
8
BLACK
6
CONTINUOUS
10
5.2768223228346454
20
-3.8521509448818896
11
5.2768222834645666
21
-3.8521509055118108
0
LINE
8
BLACK
6
CONTINUOUS
10
5.2768222834645666
20
-3.8521509055118108
11
5.2764473228346453
21
-3.8517759448818896
0
LINE
8
BLACK
6
CONTINUOUS
10
5.2764473228346453
20
-3.8517759448818896
11
5.276216692913386
21
-3.8512191732283463
0
LINE
8
BLACK
6
CONTINUOUS
10
5.276216692913386
20
-3.8512191732283463
11
5.2764473228346453
21
-3.850662401574803
0
LINE
8
BLACK
6
CONTINUOUS
10
5.2764473228346453
20
-3.850662401574803
11
5.2768222834645666
21
-3.8502874409448817
0
LINE
8
BLACK
6
CONTINUOUS
10
5.2768222834645666
20
-3.8502874409448817
11
5.2768222834645666
21
-3.850287401574803
0
LINE
8
BLACK
6
CONTINUOUS
10
5.2768222834645666
20
-3.850287401574803
11
5.2768223228346454
21
-3.850287401574803
0
LINE
8
BLACK
6
CONTINUOUS
10
5.2768223228346454
20
-3.850287401574803
11
5.2772814566929132
21
-3.8500972440944881
0
LINE
8
BLACK
6
CONTINUOUS
10
5.2772814566929132
20
-3.8500972440944881
11
5.2773790551181099
21
-3.850056811023622
0
LINE
8
BLACK
6
CONTINUOUS
10
5.2773790551181099
20
-3.850056811023622
11
5.2773790944881886
21
-3.850056811023622
0
LINE
8
BLACK
6
CONTINUOUS
10
5.2773790944881886
20
-3.850056811023622
11
5.2775796850393704
21
-3.8501399212598426
0
LINE
8
BLACK
6
CONTINUOUS
10
5.3071696456692914
20
-3.8409405905511811
11
5.3073524803149601
21
-3.8409535826771655
0
LINE
8
BLACK
6
CONTINUOUS
10
5.3073524803149601
20
-3.8409535826771655
11
5.3081024015748026
21
-3.8413285433070867
0
LINE
8
BLACK
6
CONTINUOUS
10
5.3081024015748026
20
-3.8413285433070867
11
5.3081873228346454
21
-3.8414264566929135
0
LINE
8
BLACK
6
CONTINUOUS
10
5.3081873228346454
20
-3.8414264566929135
11
5.3083070472440941
21
-3.8414760629921259
0
LINE
8
BLACK
6
CONTINUOUS
10
5.3083070472440941
20
-3.8414760629921259
11
5.3086820078740153
21
-3.8418510236220471
0
LINE
8
BLACK
6
CONTINUOUS
10
5.3086820078740153
20
-3.8418510236220471
11
5.3087315748031498
21
-3.8419707086614174
0
LINE
8
BLACK
6
CONTINUOUS
10
5.3087315748031498
20
-3.8419707086614174
11
5.3088294881889766
21
-3.8420556299212598
0
LINE
8
BLACK
6
CONTINUOUS
10
5.3088294881889766
20
-3.8420556299212598
11
5.3092044488188979
21
-3.8428055118110236
0
LINE
8
BLACK
6
CONTINUOUS
10
5.3092044488188979
20
-3.8428055118110236
11
5.309217401574803
21
-3.8429882677165352
0
LINE
8
BLACK
6
CONTINUOUS
10
5.309217401574803
20
-3.8429882677165352
11
5.3092875984251968
21
-3.8431576771653542
0
LINE
8
BLACK
6
CONTINUOUS
10
5.3092875984251968
20
-3.8431576771653542
11
5.3092875984251968
21
-3.845407401574803
0
LINE
8
BLACK
6
CONTINUOUS
10
5.3092875984251968
20
-3.845407401574803
11
5.309217401574803
21
-3.8455767716535432
0
LINE
8
BLACK
6
CONTINUOUS
10
5.309217401574803
20
-3.8455767716535432
11
5.3092044488188979
21
-3.8457595669291336
0
LINE
8
BLACK
6
CONTINUOUS
10
5.3092044488188979
20
-3.8457595669291336
11
5.3088295275590554
21
-3.8465094488188973
0
LINE
8
BLACK
6
CONTINUOUS
10
5.3088295275590554
20
-3.8465094488188973
11
5.3087315748031498
21
-3.8465943307086614
0
LINE
8
BLACK
6
CONTINUOUS
10
5.3087315748031498
20
-3.8465943307086614
11
5.3086820078740153
21
-3.8467140944881888
0
LINE
8
BLACK
6
CONTINUOUS
10
5.3086820078740153
20
-3.8467140944881888
11
5.3083070472440941
21
-3.8470890551181101
0
LINE
8
BLACK
6
CONTINUOUS
10
5.3083070472440941
20
-3.8470890551181101
11
5.3081873228346454
21
-3.8471386220472441
0
LINE
8
BLACK
6
CONTINUOUS
10
5.3081873228346454
20
-3.8471386220472441
11
5.3081024015748026
21
-3.8472365748031496
0
LINE
8
BLACK
6
CONTINUOUS
10
5.3081024015748026
20
-3.8472365748031496
11
5.3073524803149601
21
-3.8476114960629921
0
LINE
8
BLACK
6
CONTINUOUS
10
5.3073524803149601
20
-3.8476114960629921
11
5.3071696456692914
21
-3.8476244488188978
0
LINE
8
BLACK
6
CONTINUOUS
10
5.3071696456692914
20
-3.8476244488188978
11
5.3070003543307083
21
-3.8476946062992123
0
LINE
8
BLACK
6
CONTINUOUS
10
5.3070003543307083
20
-3.8476946062992123
11
5.3055380708661417
21
-3.8476946062992123
0
LINE
8
BLACK
6
CONTINUOUS
10
5.3055380708661417
20
-3.8476946062992123
11
5.3055380708661417
21
-3.8495318897637794
0
LINE
8
BLACK
6
CONTINUOUS
10
5.3055380708661417
20
-3.8495318897637794
11
5.3053074409448815
21
-3.8500886614173226
0
LINE
8
BLACK
6
CONTINUOUS
10
5.3053074409448815
20
-3.8500886614173226
11
5.3047506692913382
21
-3.8503192913385824
0
LINE
8
BLACK
6
CONTINUOUS
10
5.3047506692913382
20
-3.8503192913385824
11
5.3041938976377949
21
-3.8500886614173226
0
LINE
8
BLACK
6
CONTINUOUS
10
5.3041938976377949
20
-3.8500886614173226
11
5.3039632677165356
21
-3.8495318897637794
0
LINE
8
BLACK
6
CONTINUOUS
10
5.3039632677165356
20
-3.8495318897637794
11
5.3039632677165356
21
-3.8416578740157479
0
LINE
8
BLACK
6
CONTINUOUS
10
5.3039632677165356
20
-3.8416578740157479
11
5.3041938976377949
21
-3.8411011023622046
0
LINE
8
BLACK
6
CONTINUOUS
10
5.3041938976377949
20
-3.8411011023622046
11
5.3047506692913382
21
-3.8408704724409448
0
LINE
8
BLACK
6
CONTINUOUS
10
5.3047506692913382
20
-3.8408704724409448
11
5.3050591338582676
21
-3.8409982283464568
0
LINE
8
BLACK
6
CONTINUOUS
10
5.3050591338582676
20
-3.8409982283464568
11
5.3051483858267714
21
-3.8409536220472442
0
LINE
8
BLACK
6
CONTINUOUS
10
5.3051483858267714
20
-3.8409536220472442
11
5.3053311417322835
21
-3.8409406299212598
0
LINE
8
BLACK
6
CONTINUOUS
10
5.3053311417322835
20
-3.8409406299212598
11
5.305500551181102
21
-3.8408704724409448
0
LINE
8
BLACK
6
CONTINUOUS
10
5.305500551181102
20
-3.8408704724409448
11
5.3070003543307083
21
-3.8408704724409448
0
LINE
8
BLACK
6
CONTINUOUS
10
5.3070003543307083
20
-3.8408704724409448
11
5.3071696456692914
21
-3.8409405905511811
0
LINE
8
BLACK
6
CONTINUOUS
10
5.3055380708661417
20
-3.8425194488188974
11
5.3055380708661417
21
-3.846045590551181
0
LINE
8
BLACK
6
CONTINUOUS
10
5.3055380708661417
20
-3.846045590551181
11
5.3056864566929134
21
-3.8461198031496062
0
LINE
8
BLACK
6
CONTINUOUS
10
5.3056864566929134
20
-3.8461198031496062
11
5.3068144881889765
21
-3.8461198031496062
0
LINE
8
BLACK
6
CONTINUOUS
10
5.3068144881889765
20
-3.8461198031496062
11
5.3072838582677164
21
-3.8458851181102363
0
LINE
8
BLACK
6
CONTINUOUS
10
5.3072838582677164
20
-3.8458851181102363
11
5.307478070866142
21
-3.8456909448818899
0
LINE
8
BLACK
6
CONTINUOUS
10
5.307478070866142
20
-3.8456909448818899
11
5.3077127952755907
21
-3.845221496062992
0
LINE
8
BLACK
6
CONTINUOUS
10
5.3077127952755907
20
-3.845221496062992
11
5.3077127952755907
21
-3.8433435826771651
0
LINE
8
BLACK
6
CONTINUOUS
10
5.3077127952755907
20
-3.8433435826771651
11
5.3074781102362207
21
-3.8428742125984252
0
LINE
8
BLACK
6
CONTINUOUS
10
5.3074781102362207
20
-3.8428742125984252
11
5.3072838582677164
21
-3.8426799606299213
0
LINE
8
BLACK
6
CONTINUOUS
10
5.3072838582677164
20
-3.8426799606299213
11
5.3068144488188977
21
-3.8424452755905509
0
LINE
8
BLACK
6
CONTINUOUS
10
5.3068144488188977
20
-3.8424452755905509
11
5.3056864566929134
21
-3.8424452755905509
0
LINE
8
BLACK
6
CONTINUOUS
10
5.3056864566929134
20
-3.8424452755905509
11
5.3055380708661417
21
-3.8425194488188974
0
LINE
8
BLACK
6
CONTINUOUS
10
5.2823731496062987
20
-3.8382953543307088
11
5.2825024803149603
21
-3.8382861811023621
0
LINE
8
BLACK
6
CONTINUOUS
10
5.2825024803149603
20
-3.8382861811023621
11
5.2836273228346453
21
-3.8386611811023621
0
LINE
8
BLACK
6
CONTINUOUS
10
5.2836273228346453
20
-3.8386611811023621
11
5.2837657480314961
21
-3.8387812204724407
0
LINE
8
BLACK
6
CONTINUOUS
10
5.2837657480314961
20
-3.8387812204724407
11
5.2839350787401571
21
-3.8388513779527558
0
LINE
8
BLACK
6
CONTINUOUS
10
5.2839350787401571
20
-3.8388513779527558
11
5.2843100393700784
21
-3.839226338582677
0
LINE
8
BLACK
6
CONTINUOUS
10
5.2843100393700784
20
-3.839226338582677
11
5.2845406692913386
21
-3.8397831102362203
0
LINE
8
BLACK
6
CONTINUOUS
10
5.2845406692913386
20
-3.8397831102362203
11
5.2843100393700784
21
-3.8403398818897636
0
LINE
8
BLACK
6
CONTINUOUS
10
5.2843100393700784
20
-3.8403398818897636
11
5.2837532677165351
21
-3.8405705118110234
0
LINE
8
BLACK
6
CONTINUOUS
10
5.2837532677165351
20
-3.8405705118110234
11
5.2831964960629918
21
-3.8403398818897636
0
LINE
8
BLACK
6
CONTINUOUS
10
5.2831964960629918
20
-3.8403398818897636
11
5.2829529921259839
21
-3.8400963779527557
0
LINE
8
BLACK
6
CONTINUOUS
10
5.2829529921259839
20
-3.8400963779527557
11
5.2821256299212598
21
-3.8398205905511809
0
LINE
8
BLACK
6
CONTINUOUS
10
5.2821256299212598
20
-3.8398205905511809
11
5.2816312598425199
21
-3.8398205905511809
0
LINE
8
BLACK
6
CONTINUOUS
10
5.2816312598425199
20
-3.8398205905511809
11
5.2808039763779524
21
-3.8400963779527557
0
LINE
8
BLACK
6
CONTINUOUS
10
5.2808039763779524
20
-3.8400963779527557
11
5.2802759448818897
21
-3.8406244094488189
0
LINE
8
BLACK
6
CONTINUOUS
10
5.2802759448818897
20
-3.8406244094488189
11
5.2799967716535434
21
-3.8411827559055118
0
LINE
8
BLACK
6
CONTINUOUS
10
5.2799967716535434
20
-3.8411827559055118
11
5.2796662992125984
21
-3.8425047637795275
0
LINE
8
BLACK
6
CONTINUOUS
10
5.2796662992125984
20
-3.8425047637795275
11
5.2796662992125984
21
-3.8434356299212595
0
LINE
8
BLACK
6
CONTINUOUS
10
5.2796662992125984
20
-3.8434356299212595
11
5.2799967716535434
21
-3.8447575984251969
0
LINE
8
BLACK
6
CONTINUOUS
10
5.2799967716535434
20
-3.8447575984251969
11
5.2802759055118109
21
-3.8453159448818899
0
LINE
8
BLACK
6
CONTINUOUS
10
5.2802759055118109
20
-3.8453159448818899
11
5.2808039763779524
21
-3.8458440157480314
0
LINE
8
BLACK
6
CONTINUOUS
10
5.2808039763779524
20
-3.8458440157480314
11
5.2816313385826774
21
-3.8461198031496062
0
LINE
8
BLACK
6
CONTINUOUS
10
5.2816313385826774
20
-3.8461198031496062
11
5.2821256692913385
21
-3.8461198031496062
0
LINE
8
BLACK
6
CONTINUOUS
10
5.2821256692913385
20
-3.8461198031496062
11
5.2829529921259839
21
-3.8458440157480314
0
LINE
8
BLACK
6
CONTINUOUS
10
5.2829529921259839
20
-3.8458440157480314
11
5.2831964960629918
21
-3.8456005511811022
0
LINE
8
BLACK
6
CONTINUOUS
10
5.2831964960629918
20
-3.8456005511811022
11
5.2837532677165351
21
-3.8453699212598424
0
LINE
8
BLACK
6
CONTINUOUS
10
5.2837532677165351
20
-3.8453699212598424
11
5.2843100393700784
21
-3.8456005511811022
0
LINE
8
BLACK
6
CONTINUOUS
10
5.2843100393700784
20
-3.8456005511811022
11
5.2845406692913386
21
-3.8461573228346455
0
LINE
8
BLACK
6
CONTINUOUS
10
5.2845406692913386
20
-3.8461573228346455
11
5.2843100393700784
21
-3.8467140944881888
0
LINE
8
BLACK
6
CONTINUOUS
10
5.2843100393700784
20
-3.8467140944881888
11
5.2839350787401571
21
-3.8470890551181101
0
LINE
8
BLACK
6
CONTINUOUS
10
5.2839350787401571
20
-3.8470890551181101
11
5.2837657480314961
21
-3.8471591732283463
0
LINE
8
BLACK
6
CONTINUOUS
10
5.2837657480314961
20
-3.8471591732283463
11
5.2836272834645666
21
-3.8472792913385825
0
LINE
8
BLACK
6
CONTINUOUS
10
5.2836272834645666
20
-3.8472792913385825
11
5.2825024409448815
21
-3.847654212598425
0
LINE
8
BLACK
6
CONTINUOUS
10
5.2825024409448815
20
-3.847654212598425
11
5.2823731496062987
21
-3.847645
0
LINE
8
BLACK
6
CONTINUOUS
10
5.2823731496062987
20
-3.847645
11
5.2822534645669288
21
-3.8476946062992123
0
LINE
8
BLACK
6
CONTINUOUS
10
5.2822534645669288
20
-3.8476946062992123
11
5.2815035433070863
21
-3.8476946062992123
0
LINE
8
BLACK
6
CONTINUOUS
10
5.2815035433070863
20
-3.8476946062992123
11
5.2813838188976376
21
-3.847645
0
LINE
8
BLACK
6
CONTINUOUS
10
5.2813838188976376
20
-3.847645
11
5.2812545669291335
21
-3.847654212598425
0
LINE
8
BLACK
6
CONTINUOUS
10
5.2812545669291335
20
-3.847654212598425
11
5.2801297244094485
21
-3.8472792913385825
0
LINE
8
BLACK
6
CONTINUOUS
10
5.2801297244094485
20
-3.8472792913385825
11
5.2799912204724411
21
-3.8471591732283463
0
LINE
8
BLACK
6
CONTINUOUS
10
5.2799912204724411
20
-3.8471591732283463
11
5.2798219291338579
21
-3.8470890551181101
0
LINE
8
BLACK
6
CONTINUOUS
10
5.2798219291338579
20
-3.8470890551181101
11
5.2790720078740154
21
-3.8463391338582675
0
LINE
8
BLACK
6
CONTINUOUS
10
5.2790720078740154
20
-3.8463391338582675
11
5.2790224015748031
21
-3.8462194094488189
0
LINE
8
BLACK
6
CONTINUOUS
10
5.2790224015748031
20
-3.8462194094488189
11
5.2789244881889763
21
-3.8461344881889761
0
LINE
8
BLACK
6
CONTINUOUS
10
5.2789244881889763
20
-3.8461344881889761
11
5.2785495669291338
21
-3.8453845669291336
0
LINE
8
BLACK
6
CONTINUOUS
10
5.2785495669291338
20
-3.8453845669291336
11
5.2785431889763776
21
-3.845295275590551
0
LINE
8
BLACK
6
CONTINUOUS
10
5.2785431889763776
20
-3.845295275590551
11
5.2784899606299209
21
-3.8452233858267717
0
LINE
8
BLACK
6
CONTINUOUS
10
5.2784899606299209
20
-3.8452233858267717
11
5.2781149999999997
21
-3.8437236220472442
0
LINE
8
BLACK
6
CONTINUOUS
10
5.2781149999999997
20
-3.8437236220472442
11
5.27812968503937
21
-3.8436248425196848
0
LINE
8
BLACK
6
CONTINUOUS
10
5.27812968503937
20
-3.8436248425196848
11
5.2780914960629923
21
-3.8435326377952754
0
LINE
8
BLACK
6
CONTINUOUS
10
5.2780914960629923
20
-3.8435326377952754
11
5.2780914960629923
21
-3.8424077952755904
0
LINE
8
BLACK
6
CONTINUOUS
10
5.2780914960629923
20
-3.8424077952755904
11
5.27812968503937
21
-3.8423155511811022
0
LINE
8
BLACK
6
CONTINUOUS
10
5.27812968503937
20
-3.8423155511811022
11
5.2781149999999997
21
-3.8422168110236221
0
LINE
8
BLACK
6
CONTINUOUS
10
5.2781149999999997
20
-3.8422168110236221
11
5.2784899606299209
21
-3.8407170078740158
0
LINE
8
BLACK
6
CONTINUOUS
10
5.2784899606299209
20
-3.8407170078740158
11
5.2785431889763776
21
-3.8406450787401574
0
LINE
8
BLACK
6
CONTINUOUS
10
5.2785431889763776
20
-3.8406450787401574
11
5.2785495669291338
21
-3.8405558267716535
0
LINE
8
BLACK
6
CONTINUOUS
10
5.2785495669291338
20
-3.8405558267716535
11
5.2789244881889763
21
-3.8398059448818898
0
LINE
8
BLACK
6
CONTINUOUS
10
5.2789244881889763
20
-3.8398059448818898
11
5.2790224015748031
21
-3.8397209842519686
0
LINE
8
BLACK
6
CONTINUOUS
10
5.2790224015748031
20
-3.8397209842519686
11
5.2790720078740154
21
-3.8396012992125983
0
LINE
8
BLACK
6
CONTINUOUS
10
5.2790720078740154
20
-3.8396012992125983
11
5.2798219291338579
21
-3.8388513779527558
0
LINE
8
BLACK
6
CONTINUOUS
10
5.2798219291338579
20
-3.8388513779527558
11
5.2799911811023623
21
-3.8387812204724407
0
LINE
8
BLACK
6
CONTINUOUS
10
5.2799911811023623
20
-3.8387812204724407
11
5.2801296850393697
21
-3.8386611417322833
0
LINE
8
BLACK
6
CONTINUOUS
10
5.2801296850393697
20
-3.8386611417322833
11
5.2812545669291335
21
-3.8382861811023621
0
LINE
8
BLACK
6
CONTINUOUS
10
5.2812545669291335
20
-3.8382861811023621
11
5.2813838188976376
21
-3.8382953543307088
0
LINE
8
BLACK
6
CONTINUOUS
10
5.2813838188976376
20
-3.8382953543307088
11
5.2815035433070863
21
-3.8382457874015747
0
LINE
8
BLACK
6
CONTINUOUS
10
5.2815035433070863
20
-3.8382457874015747
11
5.2822534645669288
21
-3.8382457874015747
0
LINE
8
BLACK
6
CONTINUOUS
10
5.2822534645669288
20
-3.8382457874015747
11
5.2823731496062987
21
-3.8382953543307088
0
LINE
8
BLACK
6
CONTINUOUS
10
5.2895468503937009
20
-3.8409405905511811
11
5.2897296850393696
21
-3.8409535826771655
0
LINE
8
BLACK
6
CONTINUOUS
10
5.2897296850393696
20
-3.8409535826771655
11
5.2904796062992121
21
-3.8413285433070867
0
LINE
8
BLACK
6
CONTINUOUS
10
5.2904796062992121
20
-3.8413285433070867
11
5.2905645275590549
21
-3.8414264566929135
0
LINE
8
BLACK
6
CONTINUOUS
10
5.2905645275590549
20
-3.8414264566929135
11
5.2906842519685036
21
-3.8414760629921259
0
LINE
8
BLACK
6
CONTINUOUS
10
5.2906842519685036
20
-3.8414760629921259
11
5.2910592125984248
21
-3.8418510236220471
0
LINE
8
BLACK
6
CONTINUOUS
10
5.2910592125984248
20
-3.8418510236220471
11
5.2911087795275593
21
-3.8419707086614174
0
LINE
8
BLACK
6
CONTINUOUS
10
5.2911087795275593
20
-3.8419707086614174
11
5.2912066929133861
21
-3.8420556299212598
0
LINE
8
BLACK
6
CONTINUOUS
10
5.2912066929133861
20
-3.8420556299212598
11
5.2915816535433073
21
-3.8428055118110236
0
LINE
8
BLACK
6
CONTINUOUS
10
5.2915816535433073
20
-3.8428055118110236
11
5.2915946062992125
21
-3.8429882677165352
0
LINE
8
BLACK
6
CONTINUOUS
10
5.2915946062992125
20
-3.8429882677165352
11
5.2916648031496063
21
-3.8431576771653542
0
LINE
8
BLACK
6
CONTINUOUS
10
5.2916648031496063
20
-3.8431576771653542
11
5.2916648031496063
21
-3.845407401574803
0
LINE
8
BLACK
6
CONTINUOUS
10
5.2916648031496063
20
-3.845407401574803
11
5.2915946062992125
21
-3.8455767716535432
0
LINE
8
BLACK
6
CONTINUOUS
10
5.2915946062992125
20
-3.8455767716535432
11
5.2915816535433073
21
-3.8457595669291336
0
LINE
8
BLACK
6
CONTINUOUS
10
5.2915816535433073
20
-3.8457595669291336
11
5.2912067322834648
21
-3.8465094488188973
0
LINE
8
BLACK
6
CONTINUOUS
10
5.2912067322834648
20
-3.8465094488188973
11
5.2911087795275593
21
-3.8465943307086614
0
LINE
8
BLACK
6
CONTINUOUS
10
5.2911087795275593
20
-3.8465943307086614
11
5.2910592125984248
21
-3.8467140944881888
0
LINE
8
BLACK
6
CONTINUOUS
10
5.2910592125984248
20
-3.8467140944881888
11
5.2906842519685036
21
-3.8470890551181101
0
LINE
8
BLACK
6
CONTINUOUS
10
5.2906842519685036
20
-3.8470890551181101
11
5.2905645275590549
21
-3.8471386220472441
0
LINE
8
BLACK
6
CONTINUOUS
10
5.2905645275590549
20
-3.8471386220472441
11
5.2904796062992121
21
-3.8472365748031496
0
LINE
8
BLACK
6
CONTINUOUS
10
5.2904796062992121
20
-3.8472365748031496
11
5.2897296850393696
21
-3.8476114960629921
0
LINE
8
BLACK
6
CONTINUOUS
10
5.2897296850393696
20
-3.8476114960629921
11
5.2895468503937009
21
-3.8476244488188978
0
LINE
8
BLACK
6
CONTINUOUS
10
5.2895468503937009
20
-3.8476244488188978
11
5.2893775590551178
21
-3.8476946062992123
0
LINE
8
BLACK
6
CONTINUOUS
10
5.2893775590551178
20
-3.8476946062992123
11
5.2882527165354327
21
-3.8476946062992123
0
LINE
8
BLACK
6
CONTINUOUS
10
5.2882527165354327
20
-3.8476946062992123
11
5.2880833858267717
21
-3.8476244488188978
0
LINE
8
BLACK
6
CONTINUOUS
10
5.2880833858267717
20
-3.8476244488188978
11
5.2879006299212596
21
-3.8476114960629921
0
LINE
8
BLACK
6
CONTINUOUS
10
5.2879006299212596
20
-3.8476114960629921
11
5.2871506692913384
21
-3.8472365748031496
0
LINE
8
BLACK
6
CONTINUOUS
10
5.2871506692913384
20
-3.8472365748031496
11
5.2870657086614168
21
-3.8471385826771654
0
LINE
8
BLACK
6
CONTINUOUS
10
5.2870657086614168
20
-3.8471385826771654
11
5.2869459842519682
21
-3.8470890157480313
0
LINE
8
BLACK
6
CONTINUOUS
10
5.2869459842519682
20
-3.8470890157480313
11
5.2865710629921256
21
-3.84671405511811
0
LINE
8
BLACK
6
CONTINUOUS
10
5.2865710629921256
20
-3.84671405511811
11
5.2865214566929133
21
-3.8465943307086614
0
LINE
8
BLACK
6
CONTINUOUS
10
5.2865214566929133
20
-3.8465943307086614
11
5.2864235826771653
21
-3.8465094488188973
0
LINE
8
BLACK
6
CONTINUOUS
10
5.2864235826771653
20
-3.8465094488188973
11
5.286048622047244
21
-3.8457595275590548
0
LINE
8
BLACK
6
CONTINUOUS
10
5.286048622047244
20
-3.8457595275590548
11
5.2860356299212601
21
-3.8455766929133857
0
LINE
8
BLACK
6
CONTINUOUS
10
5.2860356299212601
20
-3.8455766929133857
11
5.2859655118110238
21
-3.845407401574803
0
LINE
8
BLACK
6
CONTINUOUS
10
5.2859655118110238
20
-3.845407401574803
11
5.2859655118110238
21
-3.8431576771653542
0
LINE
8
BLACK
6
CONTINUOUS
10
5.2859655118110238
20
-3.8431576771653542
11
5.2860356299212601
21
-3.842988307086614
0
LINE
8
BLACK
6
CONTINUOUS
10
5.2860356299212601
20
-3.842988307086614
11
5.2860486614173228
21
-3.8428055118110236
0
LINE
8
BLACK
6
CONTINUOUS
10
5.2860486614173228
20
-3.8428055118110236
11
5.2864235826771653
21
-3.8420556692913386
0
LINE
8
BLACK
6
CONTINUOUS
10
5.2864235826771653
20
-3.8420556692913386
11
5.2865214566929133
21
-3.8419707480314962
0
LINE
8
BLACK
6
CONTINUOUS
10
5.2865214566929133
20
-3.8419707480314962
11
5.2865710629921256
21
-3.8418510629921259
0
LINE
8
BLACK
6
CONTINUOUS
10
5.2865710629921256
20
-3.8418510629921259
11
5.2869459842519682
21
-3.8414761023622046
0
LINE
8
BLACK
6
CONTINUOUS
10
5.2869459842519682
20
-3.8414761023622046
11
5.2870657086614168
21
-3.8414264566929135
0
LINE
8
BLACK
6
CONTINUOUS
10
5.2870657086614168
20
-3.8414264566929135
11
5.2871506692913384
21
-3.8413285433070867
0
LINE
8
BLACK
6
CONTINUOUS
10
5.2871506692913384
20
-3.8413285433070867
11
5.2879005511811021
21
-3.8409536220472442
0
LINE
8
BLACK
6
CONTINUOUS
10
5.2879005511811021
20
-3.8409536220472442
11
5.2880833070866142
21
-3.8409406299212598
0
LINE
8
BLACK
6
CONTINUOUS
10
5.2880833070866142
20
-3.8409406299212598
11
5.2882527165354327
21
-3.8408704724409448
0
LINE
8
BLACK
6
CONTINUOUS
10
5.2882527165354327
20
-3.8408704724409448
11
5.2893775590551178
21
-3.8408704724409448
0
LINE
8
BLACK
6
CONTINUOUS
10
5.2893775590551178
20
-3.8408704724409448
11
5.2895468503937009
21
-3.8409405905511811
0
LINE
8
BLACK
6
CONTINUOUS
10
5.2879692519685042
20
-3.8426799606299213
11
5.2877749606299211
21
-3.8428742125984252
0
LINE
8
BLACK
6
CONTINUOUS
10
5.2877749606299211
20
-3.8428742125984252
11
5.2875403149606299
21
-3.8433435433070864
0
LINE
8
BLACK
6
CONTINUOUS
10
5.2875403149606299
20
-3.8433435433070864
11
5.2875403149606299
21
-3.845221496062992
0
LINE
8
BLACK
6
CONTINUOUS
10
5.2875403149606299
20
-3.845221496062992
11
5.2877749999999999
21
-3.8456909055118111
0
LINE
8
BLACK
6
CONTINUOUS
10
5.2877749999999999
20
-3.8456909055118111
11
5.2879692125984255
21
-3.8458851181102363
0
LINE
8
BLACK
6
CONTINUOUS
10
5.2879692125984255
20
-3.8458851181102363
11
5.2884386220472441
21
-3.8461198031496062
0
LINE
8
BLACK
6
CONTINUOUS
10
5.2884386220472441
20
-3.8461198031496062
11
5.289191692913386
21
-3.8461198031496062
0
LINE
8
BLACK
6
CONTINUOUS
10
5.289191692913386
20
-3.8461198031496062
11
5.2896610629921259
21
-3.8458851181102363
0
LINE
8
BLACK
6
CONTINUOUS
10
5.2896610629921259
20
-3.8458851181102363
11
5.2898552755905515
21
-3.8456909448818899
0
LINE
8
BLACK
6
CONTINUOUS
10
5.2898552755905515
20
-3.8456909448818899
11
5.2900900000000002
21
-3.845221496062992
0
LINE
8
BLACK
6
CONTINUOUS
10
5.2900900000000002
20
-3.845221496062992
11
5.2900900000000002
21
-3.8433435826771651
0
LINE
8
BLACK
6
CONTINUOUS
10
5.2900900000000002
20
-3.8433435826771651
11
5.2898553149606302
21
-3.8428742125984252
0
LINE
8
BLACK
6
CONTINUOUS
10
5.2898553149606302
20
-3.8428742125984252
11
5.2896610629921259
21
-3.8426799606299213
0
LINE
8
BLACK
6
CONTINUOUS
10
5.2896610629921259
20
-3.8426799606299213
11
5.2891916535433072
21
-3.8424452755905509
0
LINE
8
BLACK
6
CONTINUOUS
10
5.2891916535433072
20
-3.8424452755905509
11
5.2884386220472441
21
-3.8424452755905509
0
LINE
8
BLACK
6
CONTINUOUS
10
5.2884386220472441
20
-3.8424452755905509
11
5.2879692519685042
21
-3.8426799606299213
0
LINE
8
BLACK
6
CONTINUOUS
10
5.2966709448818898
20
-3.8409405905511811
11
5.2968537795275585
21
-3.8409535826771655
0
LINE
8
BLACK
6
CONTINUOUS
10
5.2968537795275585
20
-3.8409535826771655
11
5.2976037007874011
21
-3.8413285433070867
0
LINE
8
BLACK
6
CONTINUOUS
10
5.2976037007874011
20
-3.8413285433070867
11
5.2976264960629917
21
-3.8413548425196851
0
LINE
8
BLACK
6
CONTINUOUS
10
5.2976264960629917
20
-3.8413548425196851
11
5.2976493307086612
21
-3.8413285826771655
0
LINE
8
BLACK
6
CONTINUOUS
10
5.2976493307086612
20
-3.8413285826771655
11
5.2983992125984249
21
-3.8409536220472442
0
LINE
8
BLACK
6
CONTINUOUS
10
5.2983992125984249
20
-3.8409536220472442
11
5.298581968503937
21
-3.8409406299212598
0
LINE
8
BLACK
6
CONTINUOUS
10
5.298581968503937
20
-3.8409406299212598
11
5.2987513779527555
21
-3.8408704724409448
0
LINE
8
BLACK
6
CONTINUOUS
10
5.2987513779527555
20
-3.8408704724409448
11
5.2998762598425193
21
-3.8408704724409448
0
LINE
8
BLACK
6
CONTINUOUS
10
5.2998762598425193
20
-3.8408704724409448
11
5.3000455905511812
21
-3.8409405905511811
0
LINE
8
BLACK
6
CONTINUOUS
10
5.3000455905511812
20
-3.8409405905511811
11
5.3002284251968499
21
-3.8409536220472442
0
LINE
8
BLACK
6
CONTINUOUS
10
5.3002284251968499
20
-3.8409536220472442
11
5.3009782677165349
21
-3.8413285433070867
0
LINE
8
BLACK
6
CONTINUOUS
10
5.3009782677165349
20
-3.8413285433070867
11
5.3011417322834644
21
-3.8415170472440945
0
LINE
8
BLACK
6
CONTINUOUS
10
5.3011417322834644
20
-3.8415170472440945
11
5.3013303937007876
21
-3.8416806692913386
0
LINE
8
BLACK
6
CONTINUOUS
10
5.3013303937007876
20
-3.8416806692913386
11
5.3017053543307089
21
-3.8424305511811023
0
LINE
8
BLACK
6
CONTINUOUS
10
5.3017053543307089
20
-3.8424305511811023
11
5.3017183070866141
21
-3.842613307086614
0
LINE
8
BLACK
6
CONTINUOUS
10
5.3017183070866141
20
-3.842613307086614
11
5.3017885039370078
21
-3.8427827165354329
0
LINE
8
BLACK
6
CONTINUOUS
10
5.3017885039370078
20
-3.8427827165354329
11
5.3017885039370078
21
-3.8469072047244093
0
LINE
8
BLACK
6
CONTINUOUS
10
5.3017885039370078
20
-3.8469072047244093
11
5.3015578740157476
21
-3.8474639763779526
0
LINE
8
BLACK
6
CONTINUOUS
10
5.3015578740157476
20
-3.8474639763779526
11
5.3010011023622043
21
-3.8476946062992123
0
LINE
8
BLACK
6
CONTINUOUS
10
5.3010011023622043
20
-3.8476946062992123
11
5.3004443307086611
21
-3.8474639763779526
0
LINE
8
BLACK
6
CONTINUOUS
10
5.3004443307086611
20
-3.8474639763779526
11
5.3002137007874017
21
-3.8469072047244093
0
LINE
8
BLACK
6
CONTINUOUS
10
5.3002137007874017
20
-3.8469072047244093
11
5.3002137007874017
21
-3.8429686220472439
0
LINE
8
BLACK
6
CONTINUOUS
10
5.3002137007874017
20
-3.8429686220472439
11
5.300039212598425
21
-3.8426196850393701
0
LINE
8
BLACK
6
CONTINUOUS
10
5.300039212598425
20
-3.8426196850393701
11
5.2996903937007875
21
-3.8424452755905509
0
LINE
8
BLACK
6
CONTINUOUS
10
5.2996903937007875
20
-3.8424452755905509
11
5.2989372834645669
21
-3.8424452755905509
0
LINE
8
BLACK
6
CONTINUOUS
10
5.2989372834645669
20
-3.8424452755905509
11
5.2985883464566932
21
-3.8426197244094489
0
LINE
8
BLACK
6
CONTINUOUS
10
5.2985883464566932
20
-3.8426197244094489
11
5.298413937007874
21
-3.8429685826771651
0
LINE
8
BLACK
6
CONTINUOUS
10
5.298413937007874
20
-3.8429685826771651
11
5.298413937007874
21
-3.8469072047244093
0
LINE
8
BLACK
6
CONTINUOUS
10
5.298413937007874
20
-3.8469072047244093
11
5.2981833070866138
21
-3.8474639763779526
0
LINE
8
BLACK
6
CONTINUOUS
10
5.2981833070866138
20
-3.8474639763779526
11
5.2976265354330705
21
-3.8476946062992123
0
LINE
8
BLACK
6
CONTINUOUS
10
5.2976265354330705
20
-3.8476946062992123
11
5.2970697637795272
21
-3.8474639763779526
0
LINE
8
BLACK
6
CONTINUOUS
10
5.2970697637795272
20
-3.8474639763779526
11
5.2968391338582679
21
-3.8469072047244093
0
LINE
8
BLACK
6
CONTINUOUS
10
5.2968391338582679
20
-3.8469072047244093
11
5.2968391338582679
21
-3.8429686220472439
0
LINE
8
BLACK
6
CONTINUOUS
10
5.2968391338582679
20
-3.8429686220472439
11
5.2966646850393699
21
-3.8426197244094489
0
LINE
8
BLACK
6
CONTINUOUS
10
5.2966646850393699
20
-3.8426197244094489
11
5.2963157480314962
21
-3.8424452755905509
0
LINE
8
BLACK
6
CONTINUOUS
10
5.2963157480314962
20
-3.8424452755905509
11
5.2955627165354331
21
-3.8424452755905509
0
LINE
8
BLACK
6
CONTINUOUS
10
5.2955627165354331
20
-3.8424452755905509
11
5.2950933464566932
21
-3.8426799606299213
0
LINE
8
BLACK
6
CONTINUOUS
10
5.2950933464566932
20
-3.8426799606299213
11
5.2950393700787401
21
-3.8427339370078739
0
LINE
8
BLACK
6
CONTINUOUS
10
5.2950393700787401
20
-3.8427339370078739
11
5.2950393700787401
21
-3.8469072047244093
0
LINE
8
BLACK
6
CONTINUOUS
10
5.2950393700787401
20
-3.8469072047244093
11
5.2948087401574799
21
-3.8474639763779526
0
LINE
8
BLACK
6
CONTINUOUS
10
5.2948087401574799
20
-3.8474639763779526
11
5.2942519685039366
21
-3.8476946062992123
0
LINE
8
BLACK
6
CONTINUOUS
10
5.2942519685039366
20
-3.8476946062992123
11
5.2936951968503934
21
-3.8474639763779526
0
LINE
8
BLACK
6
CONTINUOUS
10
5.2936951968503934
20
-3.8474639763779526
11
5.293464566929134
21
-3.8469072047244093
0
LINE
8
BLACK
6
CONTINUOUS
10
5.293464566929134
20
-3.8469072047244093
11
5.293464566929134
21
-3.8416578740157479
0
LINE
8
BLACK
6
CONTINUOUS
10
5.293464566929134
20
-3.8416578740157479
11
5.2936951968503934
21
-3.8411011023622046
0
LINE
8
BLACK
6
CONTINUOUS
10
5.2936951968503934
20
-3.8411011023622046
11
5.2942519685039366
21
-3.8408704724409448
0
LINE
8
BLACK
6
CONTINUOUS
10
5.2942519685039366
20
-3.8408704724409448
11
5.294765472440945
21
-3.8410831889763779
0
LINE
8
BLACK
6
CONTINUOUS
10
5.294765472440945
20
-3.8410831889763779
11
5.2950246456692911
21
-3.8409536220472442
0
LINE
8
BLACK
6
CONTINUOUS
10
5.2950246456692911
20
-3.8409536220472442
11
5.2952074015748032
21
-3.8409406299212598
0
LINE
8
BLACK
6
CONTINUOUS
10
5.2952074015748032
20
-3.8409406299212598
11
5.2953768110236217
21
-3.8408704724409448
0
LINE
8
BLACK
6
CONTINUOUS
10
5.2953768110236217
20
-3.8408704724409448
11
5.2965016535433067
21
-3.8408704724409448
0
LINE
8
BLACK
6
CONTINUOUS
10
5.2965016535433067
20
-3.8408704724409448
11
5.2966709448818898
21
-3.8409405905511811
0
LINE
8
BLACK
6
CONTINUOUS
10
5.3142937401574804
20
-3.8409405905511811
11
5.3144765748031491
21
-3.8409535826771655
0
LINE
8
BLACK
6
CONTINUOUS
10
5.3144765748031491
20
-3.8409535826771655
11
5.3152264960629916
21
-3.8413285433070867
0
LINE
8
BLACK
6
CONTINUOUS
10
5.3152264960629916
20
-3.8413285433070867
11
5.3153114173228344
21
-3.8414264566929135
0
LINE
8
BLACK
6
CONTINUOUS
10
5.3153114173228344
20
-3.8414264566929135
11
5.315431141732283
21
-3.8414760629921259
0
LINE
8
BLACK
6
CONTINUOUS
10
5.315431141732283
20
-3.8414760629921259
11
5.3158061023622043
21
-3.8418510236220471
0
LINE
8
BLACK
6
CONTINUOUS
10
5.3158061023622043
20
-3.8418510236220471
11
5.3158556692913388
21
-3.8419707086614174
0
LINE
8
BLACK
6
CONTINUOUS
10
5.3158556692913388
20
-3.8419707086614174
11
5.3159535826771656
21
-3.8420556299212598
0
LINE
8
BLACK
6
CONTINUOUS
10
5.3159535826771656
20
-3.8420556299212598
11
5.3163285433070868
21
-3.8428055118110236
0
LINE
8
BLACK
6
CONTINUOUS
10
5.3163285433070868
20
-3.8428055118110236
11
5.316341496062992
21
-3.8429882677165352
0
LINE
8
BLACK
6
CONTINUOUS
10
5.316341496062992
20
-3.8429882677165352
11
5.3164116929133858
21
-3.8431576771653542
0
LINE
8
BLACK
6
CONTINUOUS
10
5.3164116929133858
20
-3.8431576771653542
11
5.3164116929133858
21
-3.845407401574803
0
LINE
8
BLACK
6
CONTINUOUS
10
5.3164116929133858
20
-3.845407401574803
11
5.316341496062992
21
-3.8455767716535432
0
LINE
8
BLACK
6
CONTINUOUS
10
5.316341496062992
20
-3.8455767716535432
11
5.3163285433070868
21
-3.8457595669291336
0
LINE
8
BLACK
6
CONTINUOUS
10
5.3163285433070868
20
-3.8457595669291336
11
5.3159536220472443
21
-3.8465094488188973
0
LINE
8
BLACK
6
CONTINUOUS
10
5.3159536220472443
20
-3.8465094488188973
11
5.3158556692913388
21
-3.8465943307086614
0
LINE
8
BLACK
6
CONTINUOUS
10
5.3158556692913388
20
-3.8465943307086614
11
5.3158061023622043
21
-3.8467140944881888
0
LINE
8
BLACK
6
CONTINUOUS
10
5.3158061023622043
20
-3.8467140944881888
11
5.315431141732283
21
-3.8470890551181101
0
LINE
8
BLACK
6
CONTINUOUS
10
5.315431141732283
20
-3.8470890551181101
11
5.3153114173228344
21
-3.8471386220472441
0
LINE
8
BLACK
6
CONTINUOUS
10
5.3153114173228344
20
-3.8471386220472441
11
5.3152264960629916
21
-3.8472365748031496
0
LINE
8
BLACK
6
CONTINUOUS
10
5.3152264960629916
20
-3.8472365748031496
11
5.3144765748031491
21
-3.8476114960629921
0
LINE
8
BLACK
6
CONTINUOUS
10
5.3144765748031491
20
-3.8476114960629921
11
5.3142937401574804
21
-3.8476244488188978
0
LINE
8
BLACK
6
CONTINUOUS
10
5.3142937401574804
20
-3.8476244488188978
11
5.3141244488188972
21
-3.8476946062992123
0
LINE
8
BLACK
6
CONTINUOUS
10
5.3141244488188972
20
-3.8476946062992123
11
5.3129996062992122
21
-3.8476946062992123
0
LINE
8
BLACK
6
CONTINUOUS
10
5.3129996062992122
20
-3.8476946062992123
11
5.3128302755905512
21
-3.8476244488188978
0
LINE
8
BLACK
6
CONTINUOUS
10
5.3128302755905512
20
-3.8476244488188978
11
5.3126475196850391
21
-3.8476114960629921
0
LINE
8
BLACK
6
CONTINUOUS
10
5.3126475196850391
20
-3.8476114960629921
11
5.3118975590551178
21
-3.8472365748031496
0
LINE
8
BLACK
6
CONTINUOUS
10
5.3118975590551178
20
-3.8472365748031496
11
5.3118125984251972
21
-3.8471385826771654
0
LINE
8
BLACK
6
CONTINUOUS
10
5.3118125984251972
20
-3.8471385826771654
11
5.3116928740157476
21
-3.8470890157480313
0
LINE
8
BLACK
6
CONTINUOUS
10
5.3116928740157476
20
-3.8470890157480313
11
5.3113179527559051
21
-3.84671405511811
0
LINE
8
BLACK
6
CONTINUOUS
10
5.3113179527559051
20
-3.84671405511811
11
5.3112683464566928
21
-3.8465943307086614
0
LINE
8
BLACK
6
CONTINUOUS
10
5.3112683464566928
20
-3.8465943307086614
11
5.3111704724409448
21
-3.8465094488188973
0
LINE
8
BLACK
6
CONTINUOUS
10
5.3111704724409448
20
-3.8465094488188973
11
5.3107955118110235
21
-3.8457595275590548
0
LINE
8
BLACK
6
CONTINUOUS
10
5.3107955118110235
20
-3.8457595275590548
11
5.3107825196850396
21
-3.8455766929133857
0
LINE
8
BLACK
6
CONTINUOUS
10
5.3107825196850396
20
-3.8455766929133857
11
5.3107124015748033
21
-3.845407401574803
0
LINE
8
BLACK
6
CONTINUOUS
10
5.3107124015748033
20
-3.845407401574803
11
5.3107124015748033
21
-3.8431576771653542
0
LINE
8
BLACK
6
CONTINUOUS
10
5.3107124015748033
20
-3.8431576771653542
11
5.3107825196850396
21
-3.842988307086614
0
LINE
8
BLACK
6
CONTINUOUS
10
5.3107825196850396
20
-3.842988307086614
11
5.3107955511811022
21
-3.8428055118110236
0
LINE
8
BLACK
6
CONTINUOUS
10
5.3107955511811022
20
-3.8428055118110236
11
5.3111704724409448
21
-3.8420556692913386
0
LINE
8
BLACK
6
CONTINUOUS
10
5.3111704724409448
20
-3.8420556692913386
11
5.3112683464566928
21
-3.8419707480314962
0
LINE
8
BLACK
6
CONTINUOUS
10
5.3112683464566928
20
-3.8419707480314962
11
5.3113179527559051
21
-3.8418510629921259
0
LINE
8
BLACK
6
CONTINUOUS
10
5.3113179527559051
20
-3.8418510629921259
11
5.3116928740157476
21
-3.8414761023622046
0
LINE
8
BLACK
6
CONTINUOUS
10
5.3116928740157476
20
-3.8414761023622046
11
5.3118125984251972
21
-3.8414264566929135
0
LINE
8
BLACK
6
CONTINUOUS
10
5.3118125984251972
20
-3.8414264566929135
11
5.3118975590551178
21
-3.8413285433070867
0
LINE
8
BLACK
6
CONTINUOUS
10
5.3118975590551178
20
-3.8413285433070867
11
5.3126474409448816
21
-3.8409536220472442
0
LINE
8
BLACK
6
CONTINUOUS
10
5.3126474409448816
20
-3.8409536220472442
11
5.3128301968503937
21
-3.8409406299212598
0
LINE
8
BLACK
6
CONTINUOUS
10
5.3128301968503937
20
-3.8409406299212598
11
5.3129996062992122
21
-3.8408704724409448
0
LINE
8
BLACK
6
CONTINUOUS
10
5.3129996062992122
20
-3.8408704724409448
11
5.3141244488188972
21
-3.8408704724409448
0
LINE
8
BLACK
6
CONTINUOUS
10
5.3141244488188972
20
-3.8408704724409448
11
5.3142937401574804
21
-3.8409405905511811
0
LINE
8
BLACK
6
CONTINUOUS
10
5.3127161417322837
20
-3.8426799606299213
11
5.3125218503937006
21
-3.8428742125984252
0
LINE
8
BLACK
6
CONTINUOUS
10
5.3125218503937006
20
-3.8428742125984252
11
5.3122872047244094
21
-3.8433435433070864
0
LINE
8
BLACK
6
CONTINUOUS
10
5.3122872047244094
20
-3.8433435433070864
11
5.3122872047244094
21
-3.845221496062992
0
LINE
8
BLACK
6
CONTINUOUS
10
5.3122872047244094
20
-3.845221496062992
11
5.3125218897637794
21
-3.8456909055118111
0
LINE
8
BLACK
6
CONTINUOUS
10
5.3125218897637794
20
-3.8456909055118111
11
5.3127161023622049
21
-3.8458851181102363
0
LINE
8
BLACK
6
CONTINUOUS
10
5.3127161023622049
20
-3.8458851181102363
11
5.3131855118110236
21
-3.8461198031496062
0
LINE
8
BLACK
6
CONTINUOUS
10
5.3131855118110236
20
-3.8461198031496062
11
5.3139385826771655
21
-3.8461198031496062
0
LINE
8
BLACK
6
CONTINUOUS
10
5.3139385826771655
20
-3.8461198031496062
11
5.3144079527559054
21
-3.8458851181102363
0
LINE
8
BLACK
6
CONTINUOUS
10
5.3144079527559054
20
-3.8458851181102363
11
5.3146021653543309
21
-3.8456909448818899
0
LINE
8
BLACK
6
CONTINUOUS
10
5.3146021653543309
20
-3.8456909448818899
11
5.3148368897637797
21
-3.845221496062992
0
LINE
8
BLACK
6
CONTINUOUS
10
5.3148368897637797
20
-3.845221496062992
11
5.3148368897637797
21
-3.8433435826771651
0
LINE
8
BLACK
6
CONTINUOUS
10
5.3148368897637797
20
-3.8433435826771651
11
5.3146022047244097
21
-3.8428742125984252
0
LINE
8
BLACK
6
CONTINUOUS
10
5.3146022047244097
20
-3.8428742125984252
11
5.3144079527559054
21
-3.8426799606299213
0
LINE
8
BLACK
6
CONTINUOUS
10
5.3144079527559054
20
-3.8426799606299213
11
5.3139385433070867
21
-3.8424452755905509
0
LINE
8
BLACK
6
CONTINUOUS
10
5.3139385433070867
20
-3.8424452755905509
11
5.3131855118110236
21
-3.8424452755905509
0
LINE
8
BLACK
6
CONTINUOUS
10
5.3131855118110236
20
-3.8424452755905509
11
5.3127161417322837
21
-3.8426799606299213
0
LINE
8
BLACK
6
CONTINUOUS
10
5.3214178346456693
20
-3.8409405905511811
11
5.3216006692913389
21
-3.8409535826771655
0
LINE
8
BLACK
6
CONTINUOUS
10
5.3216006692913389
20
-3.8409535826771655
11
5.3223505905511805
21
-3.8413285433070867
0
LINE
8
BLACK
6
CONTINUOUS
10
5.3223505905511805
20
-3.8413285433070867
11
5.3225141338582675
21
-3.8415170866141732
0
LINE
8
BLACK
6
CONTINUOUS
10
5.3225141338582675
20
-3.8415170866141732
11
5.3227027165354333
21
-3.8416806692913386
0
LINE
8
BLACK
6
CONTINUOUS
10
5.3227027165354333
20
-3.8416806692913386
11
5.3230776771653545
21
-3.8424305511811023
0
LINE
8
BLACK
6
CONTINUOUS
10
5.3230776771653545
20
-3.8424305511811023
11
5.3230906299212597
21
-3.842613307086614
0
LINE
8
BLACK
6
CONTINUOUS
10
5.3230906299212597
20
-3.842613307086614
11
5.3231608267716535
21
-3.8427827165354329
0
LINE
8
BLACK
6
CONTINUOUS
10
5.3231608267716535
20
-3.8427827165354329
11
5.3231608267716535
21
-3.8469072047244093
0
LINE
8
BLACK
6
CONTINUOUS
10
5.3231608267716535
20
-3.8469072047244093
11
5.3229301968503933
21
-3.8474639763779526
0
LINE
8
BLACK
6
CONTINUOUS
10
5.3229301968503933
20
-3.8474639763779526
11
5.32237342519685
21
-3.8476946062992123
0
LINE
8
BLACK
6
CONTINUOUS
10
5.32237342519685
20
-3.8476946062992123
11
5.3218166535433067
21
-3.8474639763779526
0
LINE
8
BLACK
6
CONTINUOUS
10
5.3218166535433067
20
-3.8474639763779526
11
5.3215860236220474
21
-3.8469072047244093
0
LINE
8
BLACK
6
CONTINUOUS
10
5.3215860236220474
20
-3.8469072047244093
11
5.3215860236220474
21
-3.8429686220472439
0
LINE
8
BLACK
6
CONTINUOUS
10
5.3215860236220474
20
-3.8429686220472439
11
5.3214115748031494
21
-3.8426197244094489
0
LINE
8
BLACK
6
CONTINUOUS
10
5.3214115748031494
20
-3.8426197244094489
11
5.3210626377952757
21
-3.8424452755905509
0
LINE
8
BLACK
6
CONTINUOUS
10
5.3210626377952757
20
-3.8424452755905509
11
5.3203096062992126
21
-3.8424452755905509
0
LINE
8
BLACK
6
CONTINUOUS
10
5.3203096062992126
20
-3.8424452755905509
11
5.3198402362204726
21
-3.8426799606299213
0
LINE
8
BLACK
6
CONTINUOUS
10
5.3198402362204726
20
-3.8426799606299213
11
5.3197862598425196
21
-3.8427339370078739
0
LINE
8
BLACK
6
CONTINUOUS
10
5.3197862598425196
20
-3.8427339370078739
11
5.3197862598425196
21
-3.8469072047244093
0
LINE
8
BLACK
6
CONTINUOUS
10
5.3197862598425196
20
-3.8469072047244093
11
5.3195556299212594
21
-3.8474639763779526
0
LINE
8
BLACK
6
CONTINUOUS
10
5.3195556299212594
20
-3.8474639763779526
11
5.3189988582677161
21
-3.8476946062992123
0
LINE
8
BLACK
6
CONTINUOUS
10
5.3189988582677161
20
-3.8476946062992123
11
5.3184420866141728
21
-3.8474639763779526
0
LINE
8
BLACK
6
CONTINUOUS
10
5.3184420866141728
20
-3.8474639763779526
11
5.3182114566929135
21
-3.8469072047244093
0
LINE
8
BLACK
6
CONTINUOUS
10
5.3182114566929135
20
-3.8469072047244093
11
5.3182114566929135
21
-3.8416578740157479
0
LINE
8
BLACK
6
CONTINUOUS
10
5.3182114566929135
20
-3.8416578740157479
11
5.3184420866141728
21
-3.8411011023622046
0
LINE
8
BLACK
6
CONTINUOUS
10
5.3184420866141728
20
-3.8411011023622046
11
5.3189988582677161
21
-3.8408704724409448
0
LINE
8
BLACK
6
CONTINUOUS
10
5.3189988582677161
20
-3.8408704724409448
11
5.3195123622047245
21
-3.8410831889763779
0
LINE
8
BLACK
6
CONTINUOUS
10
5.3195123622047245
20
-3.8410831889763779
11
5.3197715354330706
21
-3.8409536220472442
0
LINE
8
BLACK
6
CONTINUOUS
10
5.3197715354330706
20
-3.8409536220472442
11
5.3199542913385827
21
-3.8409406299212598
0
LINE
8
BLACK
6
CONTINUOUS
10
5.3199542913385827
20
-3.8409406299212598
11
5.3201237007874012
21
-3.8408704724409448
0
LINE
8
BLACK
6
CONTINUOUS
10
5.3201237007874012
20
-3.8408704724409448
11
5.3212485433070862
21
-3.8408704724409448
0
LINE
8
BLACK
6
CONTINUOUS
10
5.3212485433070862
20
-3.8408704724409448
11
5.3214178346456693
21
-3.8409405905511811
0
LINE
8
BLACK
6
CONTINUOUS
10
5.3285419291338583
20
-3.8409405905511811
11
5.3287247637795279
21
-3.8409535826771655
0
LINE
8
BLACK
6
CONTINUOUS
10
5.3287247637795279
20
-3.8409535826771655
11
5.3294746850393704
21
-3.8413285433070867
0
LINE
8
BLACK
6
CONTINUOUS
10
5.3294746850393704
20
-3.8413285433070867
11
5.3296382283464565
21
-3.8415170866141732
0
LINE
8
BLACK
6
CONTINUOUS
10
5.3296382283464565
20
-3.8415170866141732
11
5.3298268110236222
21
-3.8416806692913386
0
LINE
8
BLACK
6
CONTINUOUS
10
5.3298268110236222
20
-3.8416806692913386
11
5.3302017716535435
21
-3.8424305511811023
0
LINE
8
BLACK
6
CONTINUOUS
10
5.3302017716535435
20
-3.8424305511811023
11
5.3302147244094487
21
-3.842613307086614
0
LINE
8
BLACK
6
CONTINUOUS
10
5.3302147244094487
20
-3.842613307086614
11
5.3302849212598424
21
-3.8427827165354329
0
LINE
8
BLACK
6
CONTINUOUS
10
5.3302849212598424
20
-3.8427827165354329
11
5.3302849212598424
21
-3.8435326377952754
0
LINE
8
BLACK
6
CONTINUOUS
10
5.3302849212598424
20
-3.8435326377952754
11
5.3301971259842515
21
-3.8437444881889764
0
LINE
8
BLACK
6
CONTINUOUS
10
5.3301971259842515
20
-3.8437444881889764
11
5.330152677165354
21
-3.8439694094488188
0
LINE
8
BLACK
6
CONTINUOUS
10
5.330152677165354
20
-3.8439694094488188
11
5.3300852755905508
21
-3.8440144881889764
0
LINE
8
BLACK
6
CONTINUOUS
10
5.3300852755905508
20
-3.8440144881889764
11
5.3300542913385822
21
-3.8440894094488187
0
LINE
8
BLACK
6
CONTINUOUS
10
5.3300542913385822
20
-3.8440894094488187
11
5.3298424803149604
21
-3.8441771259842521
0
LINE
8
BLACK
6
CONTINUOUS
10
5.3298424803149604
20
-3.8441771259842521
11
5.329651929133858
21
-3.8443047637795273
0
LINE
8
BLACK
6
CONTINUOUS
10
5.329651929133858
20
-3.8443047637795273
11
5.3265353937007873
21
-3.8449280708661417
0
LINE
8
BLACK
6
CONTINUOUS
10
5.3265353937007873
20
-3.8449280708661417
11
5.3265353937007873
21
-3.8455964566929133
0
LINE
8
BLACK
6
CONTINUOUS
10
5.3265353937007873
20
-3.8455964566929133
11
5.3267098031496065
21
-3.8459453543307087
0
LINE
8
BLACK
6
CONTINUOUS
10
5.3267098031496065
20
-3.8459453543307087
11
5.3270587401574803
21
-3.8461198031496062
0
LINE
8
BLACK
6
CONTINUOUS
10
5.3270587401574803
20
-3.8461198031496062
11
5.3281867716535434
21
-3.8461198031496062
0
LINE
8
BLACK
6
CONTINUOUS
10
5.3281867716535434
20
-3.8461198031496062
11
5.3287704724409446
21
-3.8458279921259844
0
LINE
8
BLACK
6
CONTINUOUS
10
5.3287704724409446
20
-3.8458279921259844
11
5.3293715748031492
21
-3.8457853149606298
0
LINE
8
BLACK
6
CONTINUOUS
10
5.3293715748031492
20
-3.8457853149606298
11
5.329826850393701
21
-3.8461801574803149
0
LINE
8
BLACK
6
CONTINUOUS
10
5.329826850393701
20
-3.8461801574803149
11
5.3298695275590546
21
-3.8467812992125983
0
LINE
8
BLACK
6
CONTINUOUS
10
5.3298695275590546
20
-3.8467812992125983
11
5.3294746850393704
21
-3.8472365748031496
0
LINE
8
BLACK
6
CONTINUOUS
10
5.3294746850393704
20
-3.8472365748031496
11
5.3287247637795279
21
-3.8476114960629921
0
LINE
8
BLACK
6
CONTINUOUS
10
5.3287247637795279
20
-3.8476114960629921
11
5.3285419291338583
21
-3.8476244488188978
0
LINE
8
BLACK
6
CONTINUOUS
10
5.3285419291338583
20
-3.8476244488188978
11
5.3283726377952751
21
-3.8476946062992123
0
LINE
8
BLACK
6
CONTINUOUS
10
5.3283726377952751
20
-3.8476946062992123
11
5.3268728346456689
21
-3.8476946062992123
0
LINE
8
BLACK
6
CONTINUOUS
10
5.3268728346456689
20
-3.8476946062992123
11
5.3267035039370079
21
-3.8476244488188978
0
LINE
8
BLACK
6
CONTINUOUS
10
5.3267035039370079
20
-3.8476244488188978
11
5.326520708661417
21
-3.8476114960629921
0
LINE
8
BLACK
6
CONTINUOUS
10
5.326520708661417
20
-3.8476114960629921
11
5.3257708267716533
21
-3.8472365748031496
0
LINE
8
BLACK
6
CONTINUOUS
10
5.3257708267716533
20
-3.8472365748031496
11
5.3256072440944884
21
-3.8470479527559056
0
LINE
8
BLACK
6
CONTINUOUS
10
5.3256072440944884
20
-3.8470479527559056
11
5.3254186614173227
21
-3.8468844094488186
0
LINE
8
BLACK
6
CONTINUOUS
10
5.3254186614173227
20
-3.8468844094488186
11
5.3250437007874014
21
-3.8461344881889761
0
LINE
8
BLACK
6
CONTINUOUS
10
5.3250437007874014
20
-3.8461344881889761
11
5.3250307086614175
21
-3.8459516535433069
0
LINE
8
BLACK
6
CONTINUOUS
10
5.3250307086614175
20
-3.8459516535433069
11
5.3249605905511812
21
-3.8457823622047242
0
LINE
8
BLACK
6
CONTINUOUS
10
5.3249605905511812
20
-3.8457823622047242
11
5.3249605905511812
21
-3.8427827165354329
0
LINE
8
BLACK
6
CONTINUOUS
10
5.3249605905511812
20
-3.8427827165354329
11
5.3250307086614175
21
-3.8426133464566927
0
LINE
8
BLACK
6
CONTINUOUS
10
5.3250307086614175
20
-3.8426133464566927
11
5.3250437401574802
21
-3.8424305511811023
0
LINE
8
BLACK
6
CONTINUOUS
10
5.3250437401574802
20
-3.8424305511811023
11
5.3254186614173227
21
-3.8416807086614173
0
LINE
8
BLACK
6
CONTINUOUS
10
5.3254186614173227
20
-3.8416807086614173
11
5.3256071653543309
21
-3.8415172047244095
0
LINE
8
BLACK
6
CONTINUOUS
10
5.3256071653543309
20
-3.8415172047244095
11
5.3257707874015745
21
-3.8413285826771655
0
LINE
8
BLACK
6
CONTINUOUS
10
5.3257707874015745
20
-3.8413285826771655
11
5.3265206692913383
21
-3.8409536220472442
0
LINE
8
BLACK
6
CONTINUOUS
10
5.3265206692913383
20
-3.8409536220472442
11
5.3267034251968504
21
-3.8409406299212598
0
LINE
8
BLACK
6
CONTINUOUS
10
5.3267034251968504
20
-3.8409406299212598
11
5.3268728346456689
21
-3.8408704724409448
0
LINE
8
BLACK
6
CONTINUOUS
10
5.3268728346456689
20
-3.8408704724409448
11
5.3283726377952751
21
-3.8408704724409448
0
LINE
8
BLACK
6
CONTINUOUS
10
5.3283726377952751
20
-3.8408704724409448
11
5.3285419291338583
21
-3.8409405905511811
0
LINE
8
BLACK
6
CONTINUOUS
10
5.3267098031496065
20
-3.8426197244094489
11
5.3265353937007873
21
-3.8429685826771651
0
LINE
8
BLACK
6
CONTINUOUS
10
5.3265353937007873
20
-3.8429685826771651
11
5.3265353937007873
21
-3.8433220472440945
0
LINE
8
BLACK
6
CONTINUOUS
10
5.3265353937007873
20
-3.8433220472440945
11
5.3286730314960629
21
-3.8428944881889762
0
LINE
8
BLACK
6
CONTINUOUS
10
5.3286730314960629
20
-3.8428944881889762
11
5.3285356692913384
21
-3.8426197244094489
0
LINE
8
BLACK
6
CONTINUOUS
10
5.3285356692913384
20
-3.8426197244094489
11
5.3281867322834646
21
-3.8424452755905509
0
LINE
8
BLACK
6
CONTINUOUS
10
5.3281867322834646
20
-3.8424452755905509
11
5.3270587401574803
21
-3.8424452755905509
0
LINE
8
BLACK
6
CONTINUOUS
10
5.3270587401574803
20
-3.8424452755905509
11
5.3267098031496065
21
-3.8426197244094489
0
LINE
8
BLACK
6
CONTINUOUS
10
5.3352911023622047
20
-3.8409405905511811
11
5.3354739370078743
21
-3.8409535826771655
0
LINE
8
BLACK
6
CONTINUOUS
10
5.3354739370078743
20
-3.8409535826771655
11
5.3362238582677168
21
-3.8413285433070867
0
LINE
8
BLACK
6
CONTINUOUS
10
5.3362238582677168
20
-3.8413285433070867
11
5.336387401574803
21
-3.8415170866141732
0
LINE
8
BLACK
6
CONTINUOUS
10
5.336387401574803
20
-3.8415170866141732
11
5.3365759842519687
21
-3.8416806692913386
0
LINE
8
BLACK
6
CONTINUOUS
10
5.3365759842519687
20
-3.8416806692913386
11
5.3369509448818899
21
-3.8424305511811023
0
LINE
8
BLACK
6
CONTINUOUS
10
5.3369509448818899
20
-3.8424305511811023
11
5.3369638976377951
21
-3.842613307086614
0
LINE
8
BLACK
6
CONTINUOUS
10
5.3369638976377951
20
-3.842613307086614
11
5.3370340944881889
21
-3.8427827165354329
0
LINE
8
BLACK
6
CONTINUOUS
10
5.3370340944881889
20
-3.8427827165354329
11
5.3370340944881889
21
-3.8469072047244093
0
LINE
8
BLACK
6
CONTINUOUS
10
5.3370340944881889
20
-3.8469072047244093
11
5.3368034645669287
21
-3.8474639763779526
0
LINE
8
BLACK
6
CONTINUOUS
10
5.3368034645669287
20
-3.8474639763779526
11
5.3362466929133854
21
-3.8476946062992123
0
LINE
8
BLACK
6
CONTINUOUS
10
5.3362466929133854
20
-3.8476946062992123
11
5.3356899212598421
21
-3.8474639763779526
0
LINE
8
BLACK
6
CONTINUOUS
10
5.3356899212598421
20
-3.8474639763779526
11
5.3354592913385828
21
-3.8469072047244093
0
LINE
8
BLACK
6
CONTINUOUS
10
5.3354592913385828
20
-3.8469072047244093
11
5.3354592913385828
21
-3.8429686220472439
0
LINE
8
BLACK
6
CONTINUOUS
10
5.3354592913385828
20
-3.8429686220472439
11
5.3352848425196848
21
-3.8426197244094489
0
LINE
8
BLACK
6
CONTINUOUS
10
5.3352848425196848
20
-3.8426197244094489
11
5.3349359055118111
21
-3.8424452755905509
0
LINE
8
BLACK
6
CONTINUOUS
10
5.3349359055118111
20
-3.8424452755905509
11
5.334182874015748
21
-3.8424452755905509
0
LINE
8
BLACK
6
CONTINUOUS
10
5.334182874015748
20
-3.8424452755905509
11
5.333713503937008
21
-3.8426799606299213
0
LINE
8
BLACK
6
CONTINUOUS
10
5.333713503937008
20
-3.8426799606299213
11
5.333659527559055
21
-3.8427339370078739
0
LINE
8
BLACK
6
CONTINUOUS
10
5.333659527559055
20
-3.8427339370078739
11
5.333659527559055
21
-3.8469072047244093
0
LINE
8
BLACK
6
CONTINUOUS
10
5.333659527559055
20
-3.8469072047244093
11
5.3334288976377948
21
-3.8474639763779526
0
LINE
8
BLACK
6
CONTINUOUS
10
5.3334288976377948
20
-3.8474639763779526
11
5.3328721259842515
21
-3.8476946062992123
0
LINE
8
BLACK
6
CONTINUOUS
10
5.3328721259842515
20
-3.8476946062992123
11
5.3323153543307082
21
-3.8474639763779526
0
LINE
8
BLACK
6
CONTINUOUS
10
5.3323153543307082
20
-3.8474639763779526
11
5.3320847244094489
21
-3.8469072047244093
0
LINE
8
BLACK
6
CONTINUOUS
10
5.3320847244094489
20
-3.8469072047244093
11
5.3320847244094489
21
-3.8416578740157479
0
LINE
8
BLACK
6
CONTINUOUS
10
5.3320847244094489
20
-3.8416578740157479
11
5.3323153543307082
21
-3.8411011023622046
0
LINE
8
BLACK
6
CONTINUOUS
10
5.3323153543307082
20
-3.8411011023622046
11
5.3328721259842515
21
-3.8408704724409448
0
LINE
8
BLACK
6
CONTINUOUS
10
5.3328721259842515
20
-3.8408704724409448
11
5.3333856299212599
21
-3.8410831889763779
0
LINE
8
BLACK
6
CONTINUOUS
10
5.3333856299212599
20
-3.8410831889763779
11
5.333644803149606
21
-3.8409536220472442
0
LINE
8
BLACK
6
CONTINUOUS
10
5.333644803149606
20
-3.8409536220472442
11
5.3338275590551181
21
-3.8409406299212598
0
LINE
8
BLACK
6
CONTINUOUS
10
5.3338275590551181
20
-3.8409406299212598
11
5.3339969685039366
21
-3.8408704724409448
0
LINE
8
BLACK
6
CONTINUOUS
10
5.3339969685039366
20
-3.8408704724409448
11
5.3351218110236216
21
-3.8408704724409448
0
LINE
8
BLACK
6
CONTINUOUS
10
5.3351218110236216
20
-3.8408704724409448
11
5.3352911023622047
21
-3.8409405905511811
0
LINE
8
BLACK
6
CONTINUOUS
10
5.3405529921259838
20
-3.8384764173228345
11
5.340783622047244
21
-3.8390331889763778
0
LINE
8
BLACK
6
CONTINUOUS
10
5.340783622047244
20
-3.8390331889763778
11
5.340783622047244
21
-3.8408704724409448
0
LINE
8
BLACK
6
CONTINUOUS
10
5.340783622047244
20
-3.8408704724409448
11
5.341870984251968
21
-3.8408704724409448
0
LINE
8
BLACK
6
CONTINUOUS
10
5.341870984251968
20
-3.8408704724409448
11
5.3424277559055113
21
-3.8411011023622046
0
LINE
8
BLACK
6
CONTINUOUS
10
5.3424277559055113
20
-3.8411011023622046
11
5.3426583858267715
21
-3.8416578740157479
0
LINE
8
BLACK
6
CONTINUOUS
10
5.3426583858267715
20
-3.8416578740157479
11
5.3424277559055113
21
-3.8422146456692912
0
LINE
8
BLACK
6
CONTINUOUS
10
5.3424277559055113
20
-3.8422146456692912
11
5.341870984251968
21
-3.8424452755905509
0
LINE
8
BLACK
6
CONTINUOUS
10
5.341870984251968
20
-3.8424452755905509
11
5.340783622047244
21
-3.8424452755905509
0
LINE
8
BLACK
6
CONTINUOUS
10
5.340783622047244
20
-3.8424452755905509
11
5.340783622047244
21
-3.8455964566929133
0
LINE
8
BLACK
6
CONTINUOUS
10
5.340783622047244
20
-3.8455964566929133
11
5.3409580314960632
21
-3.8459453543307087
0
LINE
8
BLACK
6
CONTINUOUS
10
5.3409580314960632
20
-3.8459453543307087
11
5.3413069685039369
21
-3.8461198031496062
0
LINE
8
BLACK
6
CONTINUOUS
10
5.3413069685039369
20
-3.8461198031496062
11
5.341870984251968
21
-3.8461198031496062
0
LINE
8
BLACK
6
CONTINUOUS
10
5.341870984251968
20
-3.8461198031496062
11
5.3424277559055113
21
-3.846350433070866
0
LINE
8
BLACK
6
CONTINUOUS
10
5.3424277559055113
20
-3.846350433070866
11
5.3426583858267715
21
-3.8469072047244093
0
LINE
8
BLACK
6
CONTINUOUS
10
5.3426583858267715
20
-3.8469072047244093
11
5.3424277559055113
21
-3.8474639763779526
0
LINE
8
BLACK
6
CONTINUOUS
10
5.3424277559055113
20
-3.8474639763779526
11
5.341870984251968
21
-3.8476946062992123
0
LINE
8
BLACK
6
CONTINUOUS
10
5.341870984251968
20
-3.8476946062992123
11
5.3411210629921255
21
-3.8476946062992123
0
LINE
8
BLACK
6
CONTINUOUS
10
5.3411210629921255
20
-3.8476946062992123
11
5.3409517322834645
21
-3.8476244488188978
0
LINE
8
BLACK
6
CONTINUOUS
10
5.3409517322834645
20
-3.8476244488188978
11
5.3407689763779524
21
-3.8476114960629921
0
LINE
8
BLACK
6
CONTINUOUS
10
5.3407689763779524
20
-3.8476114960629921
11
5.3400190157480312
21
-3.8472365748031496
0
LINE
8
BLACK
6
CONTINUOUS
10
5.3400190157480312
20
-3.8472365748031496
11
5.3398554330708663
21
-3.8470479527559056
0
LINE
8
BLACK
6
CONTINUOUS
10
5.3398554330708663
20
-3.8470479527559056
11
5.3396668503937006
21
-3.8468844094488186
0
LINE
8
BLACK
6
CONTINUOUS
10
5.3396668503937006
20
-3.8468844094488186
11
5.3392919291338581
21
-3.8461344881889761
0
LINE
8
BLACK
6
CONTINUOUS
10
5.3392919291338581
20
-3.8461344881889761
11
5.3392789370078741
21
-3.8459516535433069
0
LINE
8
BLACK
6
CONTINUOUS
10
5.3392789370078741
20
-3.8459516535433069
11
5.3392088188976379
21
-3.8457823622047242
0
LINE
8
BLACK
6
CONTINUOUS
10
5.3392088188976379
20
-3.8457823622047242
11
5.3392088188976379
21
-3.8424452755905509
0
LINE
8
BLACK
6
CONTINUOUS
10
5.3392088188976379
20
-3.8424452755905509
11
5.3388713385826767
21
-3.8424452755905509
0
LINE
8
BLACK
6
CONTINUOUS
10
5.3388713385826767
20
-3.8424452755905509
11
5.3383145669291334
21
-3.8422146456692912
0
LINE
8
BLACK
6
CONTINUOUS
10
5.3383145669291334
20
-3.8422146456692912
11
5.3380839370078741
21
-3.8416578740157479
0
LINE
8
BLACK
6
CONTINUOUS
10
5.3380839370078741
20
-3.8416578740157479
11
5.3383145669291334
21
-3.8411011023622046
0
LINE
8
BLACK
6
CONTINUOUS
10
5.3383145669291334
20
-3.8411011023622046
11
5.3388713385826767
21
-3.8408704724409448
0
LINE
8
BLACK
6
CONTINUOUS
10
5.3388713385826767
20
-3.8408704724409448
11
5.3392088188976379
21
-3.8408704724409448
0
LINE
8
BLACK
6
CONTINUOUS
10
5.3392088188976379
20
-3.8408704724409448
11
5.3392088188976379
21
-3.8390331889763778
0
LINE
8
BLACK
6
CONTINUOUS
10
5.3392088188976379
20
-3.8390331889763778
11
5.3394394488188972
21
-3.8384764173228345
0
LINE
8
BLACK
6
CONTINUOUS
10
5.3394394488188972
20
-3.8384764173228345
11
5.3399962204724405
21
-3.8382457874015747
0
LINE
8
BLACK
6
CONTINUOUS
10
5.3399962204724405
20
-3.8382457874015747
11
5.3405529921259838
21
-3.8384764173228345
  0
ENDSEC
  0
EOF
