  0
SECTION
  2
HEADER
  9
$ANGBASE
  50
0.0
  9
$ANGDIR
  70
1
  9
$MEASUREMENT
  70
0
  0
ENDSEC
  0
SECTION
  2
TABLES
  0
TABLE
  2
LTYPE
  70
4
  0
LTYPE
  5
40F
  2
CONTINUOUS
  70
0
  3
Solid line
  72
65
  73
0
  40
0.0
  0
LTYPE
  5
410
  2
DASHDOT
 70
0
  3
Dash Dot ____ _ ____ _
 72
65
 73
4
 40
2.0
 49
1.25
 49
-0.25
 49
0.25
 49
-0.25
  0
LTYPE
  5
411
  2
DASHED
 70
0
  3
Dashed __ __ __ __ __
 72
65
 73
2
 40
0.75
 49
0.5
 49
-0.25
  0
LTYPE
  5
43B
  2
DOTTED
 70
0
  3
Dotted .  .  .  .
 72
65
 73
2
 40
0.2
 49
0.0
 49
-0.2
  0
ENDTAB
  0
TABLE
  2
STYLE
  70
4
  0
STYLE
  2
KICAD
  70
0
  40
0
  41
1
  42
1
  50
0
  71
0
  3
isocp.shx
  0
STYLE
  2
KICADB
  70
0
  40
0
  41
1
  42
1
  50
0
  71
0
  3
isocp.shx
  0
STYLE
  2
KICADI
  70
0
  40
0
  41
1
  42
1
  50
15
  71
0
  3
isocp.shx
  0
STYLE
  2
KICADBI
  70
0
  40
0
  41
1
  42
1
  50
15
  71
0
  3
isocp.shx
  0
ENDTAB
  0
TABLE
  2
LAYER
  70
1
  0
LAYER
  2
BLACK
  70
0
  62
7
  6
CONTINUOUS
  0
ENDTAB
  0
ENDSEC
  0
SECTION
  2
ENTITIES
0
LINE
8
BLACK
6
CONTINUOUS
10
4.9029223622047242
20
-4.1827519685039372
11
4.912147362204724
21
-4.1859188976377952
0
LINE
8
BLACK
6
CONTINUOUS
10
4.912147362204724
20
-4.1859188976377952
11
4.9207252755905513
21
-4.1905610236220472
0
LINE
8
BLACK
6
CONTINUOUS
10
4.9207252755905513
20
-4.1905610236220472
11
4.9284221259842518
21
-4.1965517322834645
0
LINE
8
BLACK
6
CONTINUOUS
10
4.9284221259842518
20
-4.1965517322834645
11
4.9350279921259839
21
-4.2037275984251972
0
LINE
8
BLACK
6
CONTINUOUS
10
4.9350279921259839
20
-4.2037275984251972
11
4.9403626377952756
21
-4.2118928740157475
0
LINE
8
BLACK
6
CONTINUOUS
10
4.9403626377952756
20
-4.2118928740157475
11
4.9442805511811025
21
-4.2208248425196846
0
LINE
8
BLACK
6
CONTINUOUS
10
4.9442805511811025
20
-4.2208248425196846
11
4.9466748818897637
21
-4.2302798425196846
0
LINE
8
BLACK
6
CONTINUOUS
10
4.9466748818897637
20
-4.2302798425196846
11
4.9474803149606297
21
-4.2400000000000002
0
LINE
8
BLACK
6
CONTINUOUS
10
4.9474803149606297
20
-4.2400000000000002
11
4.9466748818897637
21
-4.249720157480315
0
LINE
8
BLACK
6
CONTINUOUS
10
4.9466748818897637
20
-4.249720157480315
11
4.9442805511811025
21
-4.2591751574803149
0
LINE
8
BLACK
6
CONTINUOUS
10
4.9442805511811025
20
-4.2591751574803149
11
4.9403626377952756
21
-4.268107125984252
0
LINE
8
BLACK
6
CONTINUOUS
10
4.9403626377952756
20
-4.268107125984252
11
4.9350279921259839
21
-4.2762724015748033
0
LINE
8
BLACK
6
CONTINUOUS
10
4.9350279921259839
20
-4.2762724015748033
11
4.9284221259842518
21
-4.2834482677165351
0
LINE
8
BLACK
6
CONTINUOUS
10
4.9284221259842518
20
-4.2834482677165351
11
4.9207252755905513
21
-4.2894389763779524
0
LINE
8
BLACK
6
CONTINUOUS
10
4.9207252755905513
20
-4.2894389763779524
11
4.912147362204724
21
-4.2940811023622043
0
LINE
8
BLACK
6
CONTINUOUS
10
4.912147362204724
20
-4.2940811023622043
11
4.9029223622047242
21
-4.2972480314960633
0
LINE
8
BLACK
6
CONTINUOUS
10
4.9029223622047242
20
-4.2972480314960633
11
4.893301929133858
21
-4.2988534251968504
0
LINE
8
BLACK
6
CONTINUOUS
10
4.893301929133858
20
-4.2988534251968504
11
4.8835484645669291
21
-4.2988534251968504
0
LINE
8
BLACK
6
CONTINUOUS
10
4.8835484645669291
20
-4.2988534251968504
11
4.8739280314960629
21
-4.2972480314960633
0
LINE
8
BLACK
6
CONTINUOUS
10
4.8739280314960629
20
-4.2972480314960633
11
4.8647030314960631
21
-4.2940811023622043
0
LINE
8
BLACK
6
CONTINUOUS
10
4.8647030314960631
20
-4.2940811023622043
11
4.8561251181102358
21
-4.2894389763779524
0
LINE
8
BLACK
6
CONTINUOUS
10
4.8561251181102358
20
-4.2894389763779524
11
4.8484282677165353
21
-4.2834482677165351
0
LINE
8
BLACK
6
CONTINUOUS
10
4.8484282677165353
20
-4.2834482677165351
11
4.8418224015748033
21
-4.2762724015748033
0
LINE
8
BLACK
6
CONTINUOUS
10
4.8418224015748033
20
-4.2762724015748033
11
4.8364877559055115
21
-4.268107125984252
0
LINE
8
BLACK
6
CONTINUOUS
10
4.8364877559055115
20
-4.268107125984252
11
4.8325698425196846
21
-4.2591751574803149
0
LINE
8
BLACK
6
CONTINUOUS
10
4.8325698425196846
20
-4.2591751574803149
11
4.8301755118110234
21
-4.249720157480315
0
LINE
8
BLACK
6
CONTINUOUS
10
4.8301755118110234
20
-4.249720157480315
11
4.8293700787401574
21
-4.2400000000000002
0
LINE
8
BLACK
6
CONTINUOUS
10
4.8293700787401574
20
-4.2400000000000002
11
4.8301755118110234
21
-4.2302798425196846
0
LINE
8
BLACK
6
CONTINUOUS
10
4.8301755118110234
20
-4.2302798425196846
11
4.8325698425196846
21
-4.2208248425196846
0
LINE
8
BLACK
6
CONTINUOUS
10
4.8325698425196846
20
-4.2208248425196846
11
4.8364877559055115
21
-4.2118928740157475
0
LINE
8
BLACK
6
CONTINUOUS
10
4.8364877559055115
20
-4.2118928740157475
11
4.8418224015748033
21
-4.2037275984251972
0
LINE
8
BLACK
6
CONTINUOUS
10
4.8418224015748033
20
-4.2037275984251972
11
4.8484282677165353
21
-4.1965517322834645
0
LINE
8
BLACK
6
CONTINUOUS
10
4.8484282677165353
20
-4.1965517322834645
11
4.8561251181102358
21
-4.1905610236220472
0
LINE
8
BLACK
6
CONTINUOUS
10
4.8561251181102358
20
-4.1905610236220472
11
4.8647030314960631
21
-4.1859188976377952
0
LINE
8
BLACK
6
CONTINUOUS
10
4.8647030314960631
20
-4.1859188976377952
11
4.8739280314960629
21
-4.1827519685039372
0
LINE
8
BLACK
6
CONTINUOUS
10
4.8739280314960629
20
-4.1827519685039372
11
4.8835484645669291
21
-4.1811465748031491
0
LINE
8
BLACK
6
CONTINUOUS
10
4.8835484645669291
20
-4.1811465748031491
11
4.893301929133858
21
-4.1811465748031491
0
LINE
8
BLACK
6
CONTINUOUS
10
4.893301929133858
20
-4.1811465748031491
11
4.9029223622047242
21
-4.1827519685039372
0
LINE
8
BLACK
6
CONTINUOUS
10
5.2966231496062992
20
-4.1827519685039372
11
5.305848149606299
21
-4.1859188976377952
0
LINE
8
BLACK
6
CONTINUOUS
10
5.305848149606299
20
-4.1859188976377952
11
5.3144260629921263
21
-4.1905610236220472
0
LINE
8
BLACK
6
CONTINUOUS
10
5.3144260629921263
20
-4.1905610236220472
11
5.3221229133858268
21
-4.1965517322834645
0
LINE
8
BLACK
6
CONTINUOUS
10
5.3221229133858268
20
-4.1965517322834645
11
5.3287287795275589
21
-4.2037275984251972
0
LINE
8
BLACK
6
CONTINUOUS
10
5.3287287795275589
20
-4.2037275984251972
11
5.3340634251968506
21
-4.2118928740157475
0
LINE
8
BLACK
6
CONTINUOUS
10
5.3340634251968506
20
-4.2118928740157475
11
5.3379813385826766
21
-4.2208248425196846
0
LINE
8
BLACK
6
CONTINUOUS
10
5.3379813385826766
20
-4.2208248425196846
11
5.3403756692913387
21
-4.2302798425196846
0
LINE
8
BLACK
6
CONTINUOUS
10
5.3403756692913387
20
-4.2302798425196846
11
5.3411811023622047
21
-4.2400000000000002
0
LINE
8
BLACK
6
CONTINUOUS
10
5.3411811023622047
20
-4.2400000000000002
11
5.3403756692913387
21
-4.249720157480315
0
LINE
8
BLACK
6
CONTINUOUS
10
5.3403756692913387
20
-4.249720157480315
11
5.3379813385826766
21
-4.2591751574803149
0
LINE
8
BLACK
6
CONTINUOUS
10
5.3379813385826766
20
-4.2591751574803149
11
5.3340634251968506
21
-4.268107125984252
0
LINE
8
BLACK
6
CONTINUOUS
10
5.3340634251968506
20
-4.268107125984252
11
5.3287287795275589
21
-4.2762724015748033
0
LINE
8
BLACK
6
CONTINUOUS
10
5.3287287795275589
20
-4.2762724015748033
11
5.3221229133858268
21
-4.2834482677165351
0
LINE
8
BLACK
6
CONTINUOUS
10
5.3221229133858268
20
-4.2834482677165351
11
5.3144260629921263
21
-4.2894389763779524
0
LINE
8
BLACK
6
CONTINUOUS
10
5.3144260629921263
20
-4.2894389763779524
11
5.305848149606299
21
-4.2940811023622043
0
LINE
8
BLACK
6
CONTINUOUS
10
5.305848149606299
20
-4.2940811023622043
11
5.2966231496062992
21
-4.2972480314960633
0
LINE
8
BLACK
6
CONTINUOUS
10
5.2966231496062992
20
-4.2972480314960633
11
5.287002716535433
21
-4.2988534251968504
0
LINE
8
BLACK
6
CONTINUOUS
10
5.287002716535433
20
-4.2988534251968504
11
5.2772492519685041
21
-4.2988534251968504
0
LINE
8
BLACK
6
CONTINUOUS
10
5.2772492519685041
20
-4.2988534251968504
11
5.2676288188976379
21
-4.2972480314960633
0
LINE
8
BLACK
6
CONTINUOUS
10
5.2676288188976379
20
-4.2972480314960633
11
5.2584038188976381
21
-4.2940811023622043
0
LINE
8
BLACK
6
CONTINUOUS
10
5.2584038188976381
20
-4.2940811023622043
11
5.2498259055118108
21
-4.2894389763779524
0
LINE
8
BLACK
6
CONTINUOUS
10
5.2498259055118108
20
-4.2894389763779524
11
5.2421290551181103
21
-4.2834482677165351
0
LINE
8
BLACK
6
CONTINUOUS
10
5.2421290551181103
20
-4.2834482677165351
11
5.2355231889763783
21
-4.2762724015748033
0
LINE
8
BLACK
6
CONTINUOUS
10
5.2355231889763783
20
-4.2762724015748033
11
5.2301885433070865
21
-4.268107125984252
0
LINE
8
BLACK
6
CONTINUOUS
10
5.2301885433070865
20
-4.268107125984252
11
5.2262706299212596
21
-4.2591751574803149
0
LINE
8
BLACK
6
CONTINUOUS
10
5.2262706299212596
20
-4.2591751574803149
11
5.2238762992125984
21
-4.249720157480315
0
LINE
8
BLACK
6
CONTINUOUS
10
5.2238762992125984
20
-4.249720157480315
11
5.2230708661417324
21
-4.2400000000000002
0
LINE
8
BLACK
6
CONTINUOUS
10
5.2230708661417324
20
-4.2400000000000002
11
5.2238762992125984
21
-4.2302798425196846
0
LINE
8
BLACK
6
CONTINUOUS
10
5.2238762992125984
20
-4.2302798425196846
11
5.2262706299212596
21
-4.2208248425196846
0
LINE
8
BLACK
6
CONTINUOUS
10
5.2262706299212596
20
-4.2208248425196846
11
5.2301885433070865
21
-4.2118928740157475
0
LINE
8
BLACK
6
CONTINUOUS
10
5.2301885433070865
20
-4.2118928740157475
11
5.2355231889763783
21
-4.2037275984251972
0
LINE
8
BLACK
6
CONTINUOUS
10
5.2355231889763783
20
-4.2037275984251972
11
5.2421290551181103
21
-4.1965517322834645
0
LINE
8
BLACK
6
CONTINUOUS
10
5.2421290551181103
20
-4.1965517322834645
11
5.2498259055118108
21
-4.1905610236220472
0
LINE
8
BLACK
6
CONTINUOUS
10
5.2498259055118108
20
-4.1905610236220472
11
5.2584038188976381
21
-4.1859188976377952
0
LINE
8
BLACK
6
CONTINUOUS
10
5.2584038188976381
20
-4.1859188976377952
11
5.2676288188976379
21
-4.1827519685039372
0
LINE
8
BLACK
6
CONTINUOUS
10
5.2676288188976379
20
-4.1827519685039372
11
5.2772492519685041
21
-4.1811465748031491
0
LINE
8
BLACK
6
CONTINUOUS
10
5.2772492519685041
20
-4.1811465748031491
11
5.287002716535433
21
-4.1811465748031491
0
LINE
8
BLACK
6
CONTINUOUS
10
5.287002716535433
20
-4.1811465748031491
11
5.2966231496062992
21
-4.1827519685039372
0
LINE
8
BLACK
6
CONTINUOUS
10
4.9334857086614168
20
-4.0831977952755905
11
4.9353937007874018
21
-4.0844726771653539
0
LINE
8
BLACK
6
CONTINUOUS
10
4.9353937007874018
20
-4.0844726771653539
11
4.9373016929133859
21
-4.0831977952755905
0
LINE
8
BLACK
6
CONTINUOUS
10
4.9373016929133859
20
-4.0831977952755905
11
4.9403149606299213
21
-4.0825984251968501
0
LINE
8
BLACK
6
CONTINUOUS
10
4.9403149606299213
20
-4.0825984251968501
11
4.9796850393700787
21
-4.0825984251968501
0
LINE
8
BLACK
6
CONTINUOUS
10
4.9796850393700787
20
-4.0825984251968501
11
4.982698307086614
21
-4.0831977952755905
0
LINE
8
BLACK
6
CONTINUOUS
10
4.982698307086614
20
-4.0831977952755905
11
4.9846062992125981
21
-4.0844726771653539
0
LINE
8
BLACK
6
CONTINUOUS
10
4.9846062992125981
20
-4.0844726771653539
11
4.9865142913385823
21
-4.0831977952755905
0
LINE
8
BLACK
6
CONTINUOUS
10
4.9865142913385823
20
-4.0831977952755905
11
4.9895275590551176
21
-4.0825984251968501
0
LINE
8
BLACK
6
CONTINUOUS
10
4.9895275590551176
20
-4.0825984251968501
11
5.0111811023622046
21
-4.0825984251968501
0
LINE
8
BLACK
6
CONTINUOUS
10
5.0111811023622046
20
-4.0825984251968501
11
5.0121883464566928
21
-4.0827987795275593
0
LINE
8
BLACK
6
CONTINUOUS
10
5.0121883464566928
20
-4.0827987795275593
11
5.0139825590551181
21
-4.0827987795275593
0
LINE
8
BLACK
6
CONTINUOUS
10
5.0139825590551181
20
-4.0827987795275593
11
5.0162009448818896
21
-4.0831177165354333
0
LINE
8
BLACK
6
CONTINUOUS
10
5.0162009448818896
20
-4.0831177165354333
11
5.0215769685039371
21
-4.0846962598425192
0
LINE
8
BLACK
6
CONTINUOUS
10
5.0215769685039371
20
-4.0846962598425192
11
5.0236156299212595
21
-4.0856273228346458
0
LINE
8
BLACK
6
CONTINUOUS
10
5.0236156299212595
20
-4.0856273228346458
11
5.0283290944881891
21
-4.0886564960629919
0
LINE
8
BLACK
6
CONTINUOUS
10
5.0283290944881891
20
-4.0886564960629919
11
5.0300228346456688
21
-4.0901241338582679
0
LINE
8
BLACK
6
CONTINUOUS
10
5.0300228346456688
20
-4.0901241338582679
11
5.0336920078740155
21
-4.0943585826771649
0
LINE
8
BLACK
6
CONTINUOUS
10
5.0336920078740155
20
-4.0943585826771649
11
5.0349037007874013
21
-4.0962440157480318
0
LINE
8
BLACK
6
CONTINUOUS
10
5.0349037007874013
20
-4.0962440157480318
11
5.0372312204724405
21
-4.1013406299212596
0
LINE
8
BLACK
6
CONTINUOUS
10
5.0372312204724405
20
-4.1013406299212596
11
5.037862598425197
21
-4.1034909448818899
0
LINE
8
BLACK
6
CONTINUOUS
10
5.037862598425197
20
-4.1034909448818899
11
5.0386600000000001
21
-4.1090368503937009
0
LINE
8
BLACK
6
CONTINUOUS
10
5.0386600000000001
20
-4.1090368503937009
11
5.0387401574803148
21
-4.1101574803149603
0
LINE
8
BLACK
6
CONTINUOUS
10
5.0387401574803148
20
-4.1101574803149603
11
5.0387401574803148
21
-4.129842519685039
0
LINE
8
BLACK
6
CONTINUOUS
10
5.0387401574803148
20
-4.129842519685039
11
5.0386600000000001
21
-4.1309631496062993
0
LINE
8
BLACK
6
CONTINUOUS
10
5.0386600000000001
20
-4.1309631496062993
11
5.037862598425197
21
-4.1365090551181103
0
LINE
8
BLACK
6
CONTINUOUS
10
5.037862598425197
20
-4.1365090551181103
11
5.0372312204724405
21
-4.1386593700787397
0
LINE
8
BLACK
6
CONTINUOUS
10
5.0372312204724405
20
-4.1386593700787397
11
5.0349037007874013
21
-4.1437559842519684
0
LINE
8
BLACK
6
CONTINUOUS
10
5.0349037007874013
20
-4.1437559842519684
11
5.0336920078740155
21
-4.1456414173228344
0
LINE
8
BLACK
6
CONTINUOUS
10
5.0336920078740155
20
-4.1456414173228344
11
5.0300228346456688
21
-4.1498758661417323
0
LINE
8
BLACK
6
CONTINUOUS
10
5.0300228346456688
20
-4.1498758661417323
11
5.0283290944881891
21
-4.1513435039370075
0
LINE
8
BLACK
6
CONTINUOUS
10
5.0283290944881891
20
-4.1513435039370075
11
5.0236156299212595
21
-4.1543726771653544
0
LINE
8
BLACK
6
CONTINUOUS
10
5.0236156299212595
20
-4.1543726771653544
11
5.0215769685039371
21
-4.1553037401574802
0
LINE
8
BLACK
6
CONTINUOUS
10
5.0215769685039371
20
-4.1553037401574802
11
5.0162009448818896
21
-4.1568822834645669
0
LINE
8
BLACK
6
CONTINUOUS
10
5.0162009448818896
20
-4.1568822834645669
11
5.0139825590551181
21
-4.1572012204724409
0
LINE
8
BLACK
6
CONTINUOUS
10
5.0139825590551181
20
-4.1572012204724409
11
5.0121883464566928
21
-4.1572012204724409
0
LINE
8
BLACK
6
CONTINUOUS
10
5.0121883464566928
20
-4.1572012204724409
11
5.0111811023622046
21
-4.1574015748031492
0
LINE
8
BLACK
6
CONTINUOUS
10
5.0111811023622046
20
-4.1574015748031492
11
4.9895275590551176
21
-4.1574015748031492
0
LINE
8
BLACK
6
CONTINUOUS
10
4.9895275590551176
20
-4.1574015748031492
11
4.9865142913385823
21
-4.1568022047244098
0
LINE
8
BLACK
6
CONTINUOUS
10
4.9865142913385823
20
-4.1568022047244098
11
4.9846062992125981
21
-4.1555272834645667
0
LINE
8
BLACK
6
CONTINUOUS
10
4.9846062992125981
20
-4.1555272834645667
11
4.982698307086614
21
-4.1568022047244098
0
LINE
8
BLACK
6
CONTINUOUS
10
4.982698307086614
20
-4.1568022047244098
11
4.9796850393700787
21
-4.1574015748031492
0
LINE
8
BLACK
6
CONTINUOUS
10
4.9796850393700787
20
-4.1574015748031492
11
4.9403149606299213
21
-4.1574015748031492
0
LINE
8
BLACK
6
CONTINUOUS
10
4.9403149606299213
20
-4.1574015748031492
11
4.9373016929133859
21
-4.1568022047244098
0
LINE
8
BLACK
6
CONTINUOUS
10
4.9373016929133859
20
-4.1568022047244098
11
4.9353937007874018
21
-4.1555272834645667
0
LINE
8
BLACK
6
CONTINUOUS
10
4.9353937007874018
20
-4.1555272834645667
11
4.9334857086614168
21
-4.1568022047244098
0
LINE
8
BLACK
6
CONTINUOUS
10
4.9334857086614168
20
-4.1568022047244098
11
4.9304724409448815
21
-4.1574015748031492
0
LINE
8
BLACK
6
CONTINUOUS
10
4.9304724409448815
20
-4.1574015748031492
11
4.9088188976377953
21
-4.1574015748031492
0
LINE
8
BLACK
6
CONTINUOUS
10
4.9088188976377953
20
-4.1574015748031492
11
4.9078116535433072
21
-4.1572012204724409
0
LINE
8
BLACK
6
CONTINUOUS
10
4.9078116535433072
20
-4.1572012204724409
11
4.9060174409448818
21
-4.1572012204724409
0
LINE
8
BLACK
6
CONTINUOUS
10
4.9060174409448818
20
-4.1572012204724409
11
4.9037990551181103
21
-4.1568822834645669
0
LINE
8
BLACK
6
CONTINUOUS
10
4.9037990551181103
20
-4.1568822834645669
11
4.8984230314960628
21
-4.1553037401574802
0
LINE
8
BLACK
6
CONTINUOUS
10
4.8984230314960628
20
-4.1553037401574802
11
4.8963843700787404
21
-4.1543726771653544
0
LINE
8
BLACK
6
CONTINUOUS
10
4.8963843700787404
20
-4.1543726771653544
11
4.8916709055118108
21
-4.1513435039370075
0
LINE
8
BLACK
6
CONTINUOUS
10
4.8916709055118108
20
-4.1513435039370075
11
4.8899771653543302
21
-4.1498758661417323
0
LINE
8
BLACK
6
CONTINUOUS
10
4.8899771653543302
20
-4.1498758661417323
11
4.8863079921259844
21
-4.1456414173228344
0
LINE
8
BLACK
6
CONTINUOUS
10
4.8863079921259844
20
-4.1456414173228344
11
4.8850962992125986
21
-4.1437559842519684
0
LINE
8
BLACK
6
CONTINUOUS
10
4.8850962992125986
20
-4.1437559842519684
11
4.8827687795275585
21
-4.1386593700787397
0
LINE
8
BLACK
6
CONTINUOUS
10
4.8827687795275585
20
-4.1386593700787397
11
4.8821374015748029
21
-4.1365090551181103
0
LINE
8
BLACK
6
CONTINUOUS
10
4.8821374015748029
20
-4.1365090551181103
11
4.8813399999999998
21
-4.1309631496062993
0
LINE
8
BLACK
6
CONTINUOUS
10
4.8813399999999998
20
-4.1309631496062993
11
4.8812598425196851
21
-4.129842519685039
0
LINE
8
BLACK
6
CONTINUOUS
10
4.8812598425196851
20
-4.129842519685039
11
4.8812598425196851
21
-4.1101574803149603
0
LINE
8
BLACK
6
CONTINUOUS
10
4.8812598425196851
20
-4.1101574803149603
11
4.8813399999999998
21
-4.1090368503937009
0
LINE
8
BLACK
6
CONTINUOUS
10
4.8813399999999998
20
-4.1090368503937009
11
4.8821374015748029
21
-4.1034909448818899
0
LINE
8
BLACK
6
CONTINUOUS
10
4.8821374015748029
20
-4.1034909448818899
11
4.8827687795275585
21
-4.1013406299212596
0
LINE
8
BLACK
6
CONTINUOUS
10
4.8827687795275585
20
-4.1013406299212596
11
4.8850962992125986
21
-4.0962440157480318
0
LINE
8
BLACK
6
CONTINUOUS
10
4.8850962992125986
20
-4.0962440157480318
11
4.8863079921259844
21
-4.0943585826771649
0
LINE
8
BLACK
6
CONTINUOUS
10
4.8863079921259844
20
-4.0943585826771649
11
4.8899771653543302
21
-4.0901241338582679
0
LINE
8
BLACK
6
CONTINUOUS
10
4.8899771653543302
20
-4.0901241338582679
11
4.8916709055118108
21
-4.0886564960629919
0
LINE
8
BLACK
6
CONTINUOUS
10
4.8916709055118108
20
-4.0886564960629919
11
4.8963843700787404
21
-4.0856273228346458
0
LINE
8
BLACK
6
CONTINUOUS
10
4.8963843700787404
20
-4.0856273228346458
11
4.8984230314960628
21
-4.0846962598425192
0
LINE
8
BLACK
6
CONTINUOUS
10
4.8984230314960628
20
-4.0846962598425192
11
4.9037990551181103
21
-4.0831177165354333
0
LINE
8
BLACK
6
CONTINUOUS
10
4.9037990551181103
20
-4.0831177165354333
11
4.9060174409448818
21
-4.0827987795275593
0
LINE
8
BLACK
6
CONTINUOUS
10
4.9060174409448818
20
-4.0827987795275593
11
4.9078116535433072
21
-4.0827987795275593
0
LINE
8
BLACK
6
CONTINUOUS
10
4.9078116535433072
20
-4.0827987795275593
11
4.9088188976377953
21
-4.0825984251968501
0
LINE
8
BLACK
6
CONTINUOUS
10
4.9088188976377953
20
-4.0825984251968501
11
4.9304724409448815
21
-4.0825984251968501
0
LINE
8
BLACK
6
CONTINUOUS
10
4.9304724409448815
20
-4.0825984251968501
11
4.9334857086614168
21
-4.0831977952755905
0
LINE
8
BLACK
6
CONTINUOUS
10
5.4809631496062989
20
-3.6813400000000001
11
5.4865090551181099
21
-3.6821374015748032
0
LINE
8
BLACK
6
CONTINUOUS
10
5.4865090551181099
20
-3.6821374015748032
11
5.4886593700787403
21
-3.6827687795275588
0
LINE
8
BLACK
6
CONTINUOUS
10
5.4886593700787403
20
-3.6827687795275588
11
5.4937559842519681
21
-3.6850962992125984
0
LINE
8
BLACK
6
CONTINUOUS
10
5.4937559842519681
20
-3.6850962992125984
11
5.495641417322835
21
-3.6863079921259843
0
LINE
8
BLACK
6
CONTINUOUS
10
5.495641417322835
20
-3.6863079921259843
11
5.499875866141732
21
-3.6899771653543305
0
LINE
8
BLACK
6
CONTINUOUS
10
5.499875866141732
20
-3.6899771653543305
11
5.501343503937008
21
-3.6916709055118111
0
LINE
8
BLACK
6
CONTINUOUS
10
5.501343503937008
20
-3.6916709055118111
11
5.5043726771653541
21
-3.6963843700787402
0
LINE
8
BLACK
6
CONTINUOUS
10
5.5043726771653541
20
-3.6963843700787402
11
5.5053037401574798
21
-3.6984230314960631
0
LINE
8
BLACK
6
CONTINUOUS
10
5.5053037401574798
20
-3.6984230314960631
11
5.5068822834645665
21
-3.7037990551181101
0
LINE
8
BLACK
6
CONTINUOUS
10
5.5068822834645665
20
-3.7037990551181101
11
5.5072012204724405
21
-3.7060174409448816
0
LINE
8
BLACK
6
CONTINUOUS
10
5.5072012204724405
20
-3.7060174409448816
11
5.5072012204724405
21
-3.7078116141732282
0
LINE
8
BLACK
6
CONTINUOUS
10
5.5072012204724405
20
-3.7078116141732282
11
5.5074015748031497
21
-3.7088188976377952
0
LINE
8
BLACK
6
CONTINUOUS
10
5.5074015748031497
20
-3.7088188976377952
11
5.5074015748031497
21
-3.7304724409448817
0
LINE
8
BLACK
6
CONTINUOUS
10
5.5074015748031497
20
-3.7304724409448817
11
5.5068022047244094
21
-3.733485708661417
0
LINE
8
BLACK
6
CONTINUOUS
10
5.5068022047244094
20
-3.733485708661417
11
5.5055272834645672
21
-3.7353937007874016
0
LINE
8
BLACK
6
CONTINUOUS
10
5.5055272834645672
20
-3.7353937007874016
11
5.5068022047244094
21
-3.7373016929133858
0
LINE
8
BLACK
6
CONTINUOUS
10
5.5068022047244094
20
-3.7373016929133858
11
5.5074015748031497
21
-3.7403149606299211
0
LINE
8
BLACK
6
CONTINUOUS
10
5.5074015748031497
20
-3.7403149606299211
11
5.5074015748031497
21
-3.7796850393700785
0
LINE
8
BLACK
6
CONTINUOUS
10
5.5074015748031497
20
-3.7796850393700785
11
5.5068022047244094
21
-3.7826983070866143
0
LINE
8
BLACK
6
CONTINUOUS
10
5.5068022047244094
20
-3.7826983070866143
11
5.5055272834645672
21
-3.7846062992125984
0
LINE
8
BLACK
6
CONTINUOUS
10
5.5055272834645672
20
-3.7846062992125984
11
5.5068022047244094
21
-3.7865142913385825
0
LINE
8
BLACK
6
CONTINUOUS
10
5.5068022047244094
20
-3.7865142913385825
11
5.5074015748031497
21
-3.7895275590551178
0
LINE
8
BLACK
6
CONTINUOUS
10
5.5074015748031497
20
-3.7895275590551178
11
5.5074015748031497
21
-3.8111811023622044
0
LINE
8
BLACK
6
CONTINUOUS
10
5.5074015748031497
20
-3.8111811023622044
11
5.5072012204724405
21
-3.812188346456693
0
LINE
8
BLACK
6
CONTINUOUS
10
5.5072012204724405
20
-3.812188346456693
11
5.5072012204724405
21
-3.813982559055118
0
LINE
8
BLACK
6
CONTINUOUS
10
5.5072012204724405
20
-3.813982559055118
11
5.5068822834645665
21
-3.8162009448818899
0
LINE
8
BLACK
6
CONTINUOUS
10
5.5068822834645665
20
-3.8162009448818899
11
5.5053037401574798
21
-3.8215769685039369
0
LINE
8
BLACK
6
CONTINUOUS
10
5.5053037401574798
20
-3.8215769685039369
11
5.5043726771653541
21
-3.8236156299212598
0
LINE
8
BLACK
6
CONTINUOUS
10
5.5043726771653541
20
-3.8236156299212598
11
5.501343503937008
21
-3.8283290944881889
0
LINE
8
BLACK
6
CONTINUOUS
10
5.501343503937008
20
-3.8283290944881889
11
5.499875866141732
21
-3.8300228346456691
0
LINE
8
BLACK
6
CONTINUOUS
10
5.499875866141732
20
-3.8300228346456691
11
5.495641417322835
21
-3.8336920078740158
0
LINE
8
BLACK
6
CONTINUOUS
10
5.495641417322835
20
-3.8336920078740158
11
5.4937559842519681
21
-3.8349037007874016
0
LINE
8
BLACK
6
CONTINUOUS
10
5.4937559842519681
20
-3.8349037007874016
11
5.4886593700787403
21
-3.8372312204724408
0
LINE
8
BLACK
6
CONTINUOUS
10
5.4886593700787403
20
-3.8372312204724408
11
5.4865090551181099
21
-3.8378625984251968
0
LINE
8
BLACK
6
CONTINUOUS
10
5.4865090551181099
20
-3.8378625984251968
11
5.4809631496062989
21
-3.83866
0
LINE
8
BLACK
6
CONTINUOUS
10
5.4809631496062989
20
-3.83866
11
5.4798425196850395
21
-3.8387401574803151
0
LINE
8
BLACK
6
CONTINUOUS
10
5.4798425196850395
20
-3.8387401574803151
11
5.4601574803149608
21
-3.8387401574803151
0
LINE
8
BLACK
6
CONTINUOUS
10
5.4601574803149608
20
-3.8387401574803151
11
5.4590368503937006
21
-3.83866
0
LINE
8
BLACK
6
CONTINUOUS
10
5.4590368503937006
20
-3.83866
11
5.4534909448818896
21
-3.8378625984251968
0
LINE
8
BLACK
6
CONTINUOUS
10
5.4534909448818896
20
-3.8378625984251968
11
5.4513406299212601
21
-3.8372312204724408
0
LINE
8
BLACK
6
CONTINUOUS
10
5.4513406299212601
20
-3.8372312204724408
11
5.4462440157480314
21
-3.8349037007874016
0
LINE
8
BLACK
6
CONTINUOUS
10
5.4462440157480314
20
-3.8349037007874016
11
5.4443585826771654
21
-3.8336920078740158
0
LINE
8
BLACK
6
CONTINUOUS
10
5.4443585826771654
20
-3.8336920078740158
11
5.4401241338582675
21
-3.8300228346456691
0
LINE
8
BLACK
6
CONTINUOUS
10
5.4401241338582675
20
-3.8300228346456691
11
5.4386564960629924
21
-3.8283290944881889
0
LINE
8
BLACK
6
CONTINUOUS
10
5.4386564960629924
20
-3.8283290944881889
11
5.4356273228346454
21
-3.8236156299212598
0
LINE
8
BLACK
6
CONTINUOUS
10
5.4356273228346454
20
-3.8236156299212598
11
5.4346962598425197
21
-3.8215769685039369
0
LINE
8
BLACK
6
CONTINUOUS
10
5.4346962598425197
20
-3.8215769685039369
11
5.433117716535433
21
-3.8162009448818899
0
LINE
8
BLACK
6
CONTINUOUS
10
5.433117716535433
20
-3.8162009448818899
11
5.432798779527559
21
-3.813982559055118
0
LINE
8
BLACK
6
CONTINUOUS
10
5.432798779527559
20
-3.813982559055118
11
5.432798779527559
21
-3.812188346456693
0
LINE
8
BLACK
6
CONTINUOUS
10
5.432798779527559
20
-3.812188346456693
11
5.4325984251968507
21
-3.8111811023622044
0
LINE
8
BLACK
6
CONTINUOUS
10
5.4325984251968507
20
-3.8111811023622044
11
5.4325984251968507
21
-3.7895275590551178
0
LINE
8
BLACK
6
CONTINUOUS
10
5.4325984251968507
20
-3.7895275590551178
11
5.4331977952755901
21
-3.7865142913385825
0
LINE
8
BLACK
6
CONTINUOUS
10
5.4331977952755901
20
-3.7865142913385825
11
5.4344726771653544
21
-3.7846062992125984
0
LINE
8
BLACK
6
CONTINUOUS
10
5.4344726771653544
20
-3.7846062992125984
11
5.4331977952755901
21
-3.7826983070866143
0
LINE
8
BLACK
6
CONTINUOUS
10
5.4331977952755901
20
-3.7826983070866143
11
5.4325984251968507
21
-3.7796850393700785
0
LINE
8
BLACK
6
CONTINUOUS
10
5.4325984251968507
20
-3.7796850393700785
11
5.4325984251968507
21
-3.7403149606299211
0
LINE
8
BLACK
6
CONTINUOUS
10
5.4325984251968507
20
-3.7403149606299211
11
5.4331977952755901
21
-3.7373016929133858
0
LINE
8
BLACK
6
CONTINUOUS
10
5.4331977952755901
20
-3.7373016929133858
11
5.4344726771653544
21
-3.7353937007874016
0
LINE
8
BLACK
6
CONTINUOUS
10
5.4344726771653544
20
-3.7353937007874016
11
5.4331977952755901
21
-3.733485708661417
0
LINE
8
BLACK
6
CONTINUOUS
10
5.4331977952755901
20
-3.733485708661417
11
5.4325984251968507
21
-3.7304724409448817
0
LINE
8
BLACK
6
CONTINUOUS
10
5.4325984251968507
20
-3.7304724409448817
11
5.4325984251968507
21
-3.7088188976377952
0
LINE
8
BLACK
6
CONTINUOUS
10
5.4325984251968507
20
-3.7088188976377952
11
5.432798779527559
21
-3.7078116141732282
0
LINE
8
BLACK
6
CONTINUOUS
10
5.432798779527559
20
-3.7078116141732282
11
5.432798779527559
21
-3.7060174409448816
0
LINE
8
BLACK
6
CONTINUOUS
10
5.432798779527559
20
-3.7060174409448816
11
5.433117716535433
21
-3.7037990551181101
0
LINE
8
BLACK
6
CONTINUOUS
10
5.433117716535433
20
-3.7037990551181101
11
5.4346962598425197
21
-3.6984230314960631
0
LINE
8
BLACK
6
CONTINUOUS
10
5.4346962598425197
20
-3.6984230314960631
11
5.4356273228346454
21
-3.6963843700787402
0
LINE
8
BLACK
6
CONTINUOUS
10
5.4356273228346454
20
-3.6963843700787402
11
5.4386564960629924
21
-3.6916709055118111
0
LINE
8
BLACK
6
CONTINUOUS
10
5.4386564960629924
20
-3.6916709055118111
11
5.4401241338582675
21
-3.6899771653543305
0
LINE
8
BLACK
6
CONTINUOUS
10
5.4401241338582675
20
-3.6899771653543305
11
5.4443585826771654
21
-3.6863079921259843
0
LINE
8
BLACK
6
CONTINUOUS
10
5.4443585826771654
20
-3.6863079921259843
11
5.4462440157480314
21
-3.6850962992125984
0
LINE
8
BLACK
6
CONTINUOUS
10
5.4462440157480314
20
-3.6850962992125984
11
5.4513406299212601
21
-3.6827687795275588
0
LINE
8
BLACK
6
CONTINUOUS
10
5.4513406299212601
20
-3.6827687795275588
11
5.4534909448818896
21
-3.6821374015748032
0
LINE
8
BLACK
6
CONTINUOUS
10
5.4534909448818896
20
-3.6821374015748032
11
5.4590368503937006
21
-3.6813400000000001
0
LINE
8
BLACK
6
CONTINUOUS
10
5.4590368503937006
20
-3.6813400000000001
11
5.4601574803149608
21
-3.681259842519685
0
LINE
8
BLACK
6
CONTINUOUS
10
5.4601574803149608
20
-3.681259842519685
11
5.4798425196850395
21
-3.681259842519685
0
LINE
8
BLACK
6
CONTINUOUS
10
5.4798425196850395
20
-3.681259842519685
11
5.4809631496062989
21
-3.6813400000000001
0
LINE
8
BLACK
6
CONTINUOUS
10
4.9029223622047242
20
-3.5922007874015747
11
4.912147362204724
21
-3.5953677165354332
0
LINE
8
BLACK
6
CONTINUOUS
10
4.912147362204724
20
-3.5953677165354332
11
4.9207252755905513
21
-3.6000098425196851
0
LINE
8
BLACK
6
CONTINUOUS
10
4.9207252755905513
20
-3.6000098425196851
11
4.9284221259842518
21
-3.6060005511811024
0
LINE
8
BLACK
6
CONTINUOUS
10
4.9284221259842518
20
-3.6060005511811024
11
4.9350279921259839
21
-3.6131764173228347
0
LINE
8
BLACK
6
CONTINUOUS
10
4.9350279921259839
20
-3.6131764173228347
11
4.9403626377952756
21
-3.6213416929133859
0
LINE
8
BLACK
6
CONTINUOUS
10
4.9403626377952756
20
-3.6213416929133859
11
4.9442805511811025
21
-3.6302736614173226
0
LINE
8
BLACK
6
CONTINUOUS
10
4.9442805511811025
20
-3.6302736614173226
11
4.9466748818897637
21
-3.6397286614173225
0
LINE
8
BLACK
6
CONTINUOUS
10
4.9466748818897637
20
-3.6397286614173225
11
4.9474803149606297
21
-3.6494488188976377
0
LINE
8
BLACK
6
CONTINUOUS
10
4.9474803149606297
20
-3.6494488188976377
11
4.9466748818897637
21
-3.6591689763779525
0
LINE
8
BLACK
6
CONTINUOUS
10
4.9466748818897637
20
-3.6591689763779525
11
4.9442805511811025
21
-3.6686239763779525
0
LINE
8
BLACK
6
CONTINUOUS
10
4.9442805511811025
20
-3.6686239763779525
11
4.9403626377952756
21
-3.6775559448818895
0
LINE
8
BLACK
6
CONTINUOUS
10
4.9403626377952756
20
-3.6775559448818895
11
4.9350279921259839
21
-3.6857212204724408
0
LINE
8
BLACK
6
CONTINUOUS
10
4.9350279921259839
20
-3.6857212204724408
11
4.9284221259842518
21
-3.692897086614173
0
LINE
8
BLACK
6
CONTINUOUS
10
4.9284221259842518
20
-3.692897086614173
11
4.9207252755905513
21
-3.6988877952755903
0
LINE
8
BLACK
6
CONTINUOUS
10
4.9207252755905513
20
-3.6988877952755903
11
4.912147362204724
21
-3.7035299212598423
0
LINE
8
BLACK
6
CONTINUOUS
10
4.912147362204724
20
-3.7035299212598423
11
4.9029223622047242
21
-3.7066968503937008
0
LINE
8
BLACK
6
CONTINUOUS
10
4.9029223622047242
20
-3.7066968503937008
11
4.893301929133858
21
-3.7083022440944879
0
LINE
8
BLACK
6
CONTINUOUS
10
4.893301929133858
20
-3.7083022440944879
11
4.8835484645669291
21
-3.7083022440944879
0
LINE
8
BLACK
6
CONTINUOUS
10
4.8835484645669291
20
-3.7083022440944879
11
4.8739280314960629
21
-3.7066968503937008
0
LINE
8
BLACK
6
CONTINUOUS
10
4.8739280314960629
20
-3.7066968503937008
11
4.8647030314960631
21
-3.7035299212598423
0
LINE
8
BLACK
6
CONTINUOUS
10
4.8647030314960631
20
-3.7035299212598423
11
4.8561251181102358
21
-3.6988877952755903
0
LINE
8
BLACK
6
CONTINUOUS
10
4.8561251181102358
20
-3.6988877952755903
11
4.8484282677165353
21
-3.692897086614173
0
LINE
8
BLACK
6
CONTINUOUS
10
4.8484282677165353
20
-3.692897086614173
11
4.8418224015748033
21
-3.6857212204724408
0
LINE
8
BLACK
6
CONTINUOUS
10
4.8418224015748033
20
-3.6857212204724408
11
4.8364877559055115
21
-3.6775559448818895
0
LINE
8
BLACK
6
CONTINUOUS
10
4.8364877559055115
20
-3.6775559448818895
11
4.8325698425196846
21
-3.6686239763779525
0
LINE
8
BLACK
6
CONTINUOUS
10
4.8325698425196846
20
-3.6686239763779525
11
4.8301755118110234
21
-3.6591689763779525
0
LINE
8
BLACK
6
CONTINUOUS
10
4.8301755118110234
20
-3.6591689763779525
11
4.8293700787401574
21
-3.6494488188976377
0
LINE
8
BLACK
6
CONTINUOUS
10
4.8293700787401574
20
-3.6494488188976377
11
4.8301755118110234
21
-3.6397286614173225
0
LINE
8
BLACK
6
CONTINUOUS
10
4.8301755118110234
20
-3.6397286614173225
11
4.8325698425196846
21
-3.6302736614173226
0
LINE
8
BLACK
6
CONTINUOUS
10
4.8325698425196846
20
-3.6302736614173226
11
4.8364877559055115
21
-3.6213416929133859
0
LINE
8
BLACK
6
CONTINUOUS
10
4.8364877559055115
20
-3.6213416929133859
11
4.8418224015748033
21
-3.6131764173228347
0
LINE
8
BLACK
6
CONTINUOUS
10
4.8418224015748033
20
-3.6131764173228347
11
4.8484282677165353
21
-3.6060005511811024
0
LINE
8
BLACK
6
CONTINUOUS
10
4.8484282677165353
20
-3.6060005511811024
11
4.8561251181102358
21
-3.6000098425196851
0
LINE
8
BLACK
6
CONTINUOUS
10
4.8561251181102358
20
-3.6000098425196851
11
4.8647030314960631
21
-3.5953677165354332
0
LINE
8
BLACK
6
CONTINUOUS
10
4.8647030314960631
20
-3.5953677165354332
11
4.8739280314960629
21
-3.5922007874015747
0
LINE
8
BLACK
6
CONTINUOUS
10
4.8739280314960629
20
-3.5922007874015747
11
4.8835484645669291
21
-3.5905953937007875
0
LINE
8
BLACK
6
CONTINUOUS
10
4.8835484645669291
20
-3.5905953937007875
11
4.893301929133858
21
-3.5905953937007875
0
LINE
8
BLACK
6
CONTINUOUS
10
4.893301929133858
20
-3.5905953937007875
11
4.9029223622047242
21
-3.5922007874015747
0
LINE
8
BLACK
6
CONTINUOUS
10
5.2966231496062992
20
-3.5922007874015747
11
5.305848149606299
21
-3.5953677165354332
0
LINE
8
BLACK
6
CONTINUOUS
10
5.305848149606299
20
-3.5953677165354332
11
5.3144260629921263
21
-3.6000098425196851
0
LINE
8
BLACK
6
CONTINUOUS
10
5.3144260629921263
20
-3.6000098425196851
11
5.3221229133858268
21
-3.6060005511811024
0
LINE
8
BLACK
6
CONTINUOUS
10
5.3221229133858268
20
-3.6060005511811024
11
5.3287287795275589
21
-3.6131764173228347
0
LINE
8
BLACK
6
CONTINUOUS
10
5.3287287795275589
20
-3.6131764173228347
11
5.3340634251968506
21
-3.6213416929133859
0
LINE
8
BLACK
6
CONTINUOUS
10
5.3340634251968506
20
-3.6213416929133859
11
5.3379813385826766
21
-3.6302736614173226
0
LINE
8
BLACK
6
CONTINUOUS
10
5.3379813385826766
20
-3.6302736614173226
11
5.3403756692913387
21
-3.6397286614173225
0
LINE
8
BLACK
6
CONTINUOUS
10
5.3403756692913387
20
-3.6397286614173225
11
5.3411811023622047
21
-3.6494488188976377
0
LINE
8
BLACK
6
CONTINUOUS
10
5.3411811023622047
20
-3.6494488188976377
11
5.3403756692913387
21
-3.6591689763779525
0
LINE
8
BLACK
6
CONTINUOUS
10
5.3403756692913387
20
-3.6591689763779525
11
5.3379813385826766
21
-3.6686239763779525
0
LINE
8
BLACK
6
CONTINUOUS
10
5.3379813385826766
20
-3.6686239763779525
11
5.3340634251968506
21
-3.6775559448818895
0
LINE
8
BLACK
6
CONTINUOUS
10
5.3340634251968506
20
-3.6775559448818895
11
5.3287287795275589
21
-3.6857212204724408
0
LINE
8
BLACK
6
CONTINUOUS
10
5.3287287795275589
20
-3.6857212204724408
11
5.3221229133858268
21
-3.692897086614173
0
LINE
8
BLACK
6
CONTINUOUS
10
5.3221229133858268
20
-3.692897086614173
11
5.3144260629921263
21
-3.6988877952755903
0
LINE
8
BLACK
6
CONTINUOUS
10
5.3144260629921263
20
-3.6988877952755903
11
5.305848149606299
21
-3.7035299212598423
0
LINE
8
BLACK
6
CONTINUOUS
10
5.305848149606299
20
-3.7035299212598423
11
5.2966231496062992
21
-3.7066968503937008
0
LINE
8
BLACK
6
CONTINUOUS
10
5.2966231496062992
20
-3.7066968503937008
11
5.287002716535433
21
-3.7083022440944879
0
LINE
8
BLACK
6
CONTINUOUS
10
5.287002716535433
20
-3.7083022440944879
11
5.2772492519685041
21
-3.7083022440944879
0
LINE
8
BLACK
6
CONTINUOUS
10
5.2772492519685041
20
-3.7083022440944879
11
5.2676288188976379
21
-3.7066968503937008
0
LINE
8
BLACK
6
CONTINUOUS
10
5.2676288188976379
20
-3.7066968503937008
11
5.2584038188976381
21
-3.7035299212598423
0
LINE
8
BLACK
6
CONTINUOUS
10
5.2584038188976381
20
-3.7035299212598423
11
5.2498259055118108
21
-3.6988877952755903
0
LINE
8
BLACK
6
CONTINUOUS
10
5.2498259055118108
20
-3.6988877952755903
11
5.2421290551181103
21
-3.692897086614173
0
LINE
8
BLACK
6
CONTINUOUS
10
5.2421290551181103
20
-3.692897086614173
11
5.2355231889763783
21
-3.6857212204724408
0
LINE
8
BLACK
6
CONTINUOUS
10
5.2355231889763783
20
-3.6857212204724408
11
5.2301885433070865
21
-3.6775559448818895
0
LINE
8
BLACK
6
CONTINUOUS
10
5.2301885433070865
20
-3.6775559448818895
11
5.2262706299212596
21
-3.6686239763779525
0
LINE
8
BLACK
6
CONTINUOUS
10
5.2262706299212596
20
-3.6686239763779525
11
5.2238762992125984
21
-3.6591689763779525
0
LINE
8
BLACK
6
CONTINUOUS
10
5.2238762992125984
20
-3.6591689763779525
11
5.2230708661417324
21
-3.6494488188976377
0
LINE
8
BLACK
6
CONTINUOUS
10
5.2230708661417324
20
-3.6494488188976377
11
5.2238762992125984
21
-3.6397286614173225
0
LINE
8
BLACK
6
CONTINUOUS
10
5.2238762992125984
20
-3.6397286614173225
11
5.2262706299212596
21
-3.6302736614173226
0
LINE
8
BLACK
6
CONTINUOUS
10
5.2262706299212596
20
-3.6302736614173226
11
5.2301885433070865
21
-3.6213416929133859
0
LINE
8
BLACK
6
CONTINUOUS
10
5.2301885433070865
20
-3.6213416929133859
11
5.2355231889763783
21
-3.6131764173228347
0
LINE
8
BLACK
6
CONTINUOUS
10
5.2355231889763783
20
-3.6131764173228347
11
5.2421290551181103
21
-3.6060005511811024
0
LINE
8
BLACK
6
CONTINUOUS
10
5.2421290551181103
20
-3.6060005511811024
11
5.2498259055118108
21
-3.6000098425196851
0
LINE
8
BLACK
6
CONTINUOUS
10
5.2498259055118108
20
-3.6000098425196851
11
5.2584038188976381
21
-3.5953677165354332
0
LINE
8
BLACK
6
CONTINUOUS
10
5.2584038188976381
20
-3.5953677165354332
11
5.2676288188976379
21
-3.5922007874015747
0
LINE
8
BLACK
6
CONTINUOUS
10
5.2676288188976379
20
-3.5922007874015747
11
5.2772492519685041
21
-3.5905953937007875
0
LINE
8
BLACK
6
CONTINUOUS
10
5.2772492519685041
20
-3.5905953937007875
11
5.287002716535433
21
-3.5905953937007875
0
LINE
8
BLACK
6
CONTINUOUS
10
5.287002716535433
20
-3.5905953937007875
11
5.2966231496062992
21
-3.5922007874015747
  0
ENDSEC
  0
EOF
