  0
SECTION
  2
HEADER
  9
$ANGBASE
  50
0.0
  9
$ANGDIR
  70
1
  9
$MEASUREMENT
  70
0
  0
ENDSEC
  0
SECTION
  2
TABLES
  0
TABLE
  2
LTYPE
  70
4
  0
LTYPE
  5
40F
  2
CONTINUOUS
  70
0
  3
Solid line
  72
65
  73
0
  40
0.0
  0
LTYPE
  5
410
  2
DASHDOT
 70
0
  3
Dash Dot ____ _ ____ _
 72
65
 73
4
 40
2.0
 49
1.25
 49
-0.25
 49
0.25
 49
-0.25
  0
LTYPE
  5
411
  2
DASHED
 70
0
  3
Dashed __ __ __ __ __
 72
65
 73
2
 40
0.75
 49
0.5
 49
-0.25
  0
LTYPE
  5
43B
  2
DOTTED
 70
0
  3
Dotted .  .  .  .
 72
65
 73
2
 40
0.2
 49
0.0
 49
-0.2
  0
ENDTAB
  0
TABLE
  2
STYLE
  70
4
  0
STYLE
  2
KICAD
  70
0
  40
0
  41
1
  42
1
  50
0
  71
0
  3
isocp.shx
  0
STYLE
  2
KICADB
  70
0
  40
0
  41
1
  42
1
  50
0
  71
0
  3
isocp.shx
  0
STYLE
  2
KICADI
  70
0
  40
0
  41
1
  42
1
  50
15
  71
0
  3
isocp.shx
  0
STYLE
  2
KICADBI
  70
0
  40
0
  41
1
  42
1
  50
15
  71
0
  3
isocp.shx
  0
ENDTAB
  0
TABLE
  2
LAYER
  70
1
  0
LAYER
  2
BLACK
  70
0
  62
7
  6
CONTINUOUS
  0
ENDTAB
  0
ENDSEC
  0
SECTION
  2
ENTITIES
0
LINE
8
BLACK
6
CONTINUOUS
10
4.9029223622047242
20
-4.1827519685039372
11
4.912147362204724
21
-4.1859188976377952
0
LINE
8
BLACK
6
CONTINUOUS
10
4.912147362204724
20
-4.1859188976377952
11
4.9207252755905513
21
-4.1905610236220472
0
LINE
8
BLACK
6
CONTINUOUS
10
4.9207252755905513
20
-4.1905610236220472
11
4.9284221259842518
21
-4.1965517322834645
0
LINE
8
BLACK
6
CONTINUOUS
10
4.9284221259842518
20
-4.1965517322834645
11
4.9350279921259839
21
-4.2037275984251972
0
LINE
8
BLACK
6
CONTINUOUS
10
4.9350279921259839
20
-4.2037275984251972
11
4.9403626377952756
21
-4.2118928740157475
0
LINE
8
BLACK
6
CONTINUOUS
10
4.9403626377952756
20
-4.2118928740157475
11
4.9442805511811025
21
-4.2208248425196846
0
LINE
8
BLACK
6
CONTINUOUS
10
4.9442805511811025
20
-4.2208248425196846
11
4.9466748818897637
21
-4.2302798425196846
0
LINE
8
BLACK
6
CONTINUOUS
10
4.9466748818897637
20
-4.2302798425196846
11
4.9474803149606297
21
-4.2400000000000002
0
LINE
8
BLACK
6
CONTINUOUS
10
4.9474803149606297
20
-4.2400000000000002
11
4.9466748818897637
21
-4.249720157480315
0
LINE
8
BLACK
6
CONTINUOUS
10
4.9466748818897637
20
-4.249720157480315
11
4.9442805511811025
21
-4.2591751574803149
0
LINE
8
BLACK
6
CONTINUOUS
10
4.9442805511811025
20
-4.2591751574803149
11
4.9403626377952756
21
-4.268107125984252
0
LINE
8
BLACK
6
CONTINUOUS
10
4.9403626377952756
20
-4.268107125984252
11
4.9350279921259839
21
-4.2762724015748033
0
LINE
8
BLACK
6
CONTINUOUS
10
4.9350279921259839
20
-4.2762724015748033
11
4.9284221259842518
21
-4.2834482677165351
0
LINE
8
BLACK
6
CONTINUOUS
10
4.9284221259842518
20
-4.2834482677165351
11
4.9207252755905513
21
-4.2894389763779524
0
LINE
8
BLACK
6
CONTINUOUS
10
4.9207252755905513
20
-4.2894389763779524
11
4.912147362204724
21
-4.2940811023622043
0
LINE
8
BLACK
6
CONTINUOUS
10
4.912147362204724
20
-4.2940811023622043
11
4.9029223622047242
21
-4.2972480314960633
0
LINE
8
BLACK
6
CONTINUOUS
10
4.9029223622047242
20
-4.2972480314960633
11
4.893301929133858
21
-4.2988534251968504
0
LINE
8
BLACK
6
CONTINUOUS
10
4.893301929133858
20
-4.2988534251968504
11
4.8835484645669291
21
-4.2988534251968504
0
LINE
8
BLACK
6
CONTINUOUS
10
4.8835484645669291
20
-4.2988534251968504
11
4.8739280314960629
21
-4.2972480314960633
0
LINE
8
BLACK
6
CONTINUOUS
10
4.8739280314960629
20
-4.2972480314960633
11
4.8647030314960631
21
-4.2940811023622043
0
LINE
8
BLACK
6
CONTINUOUS
10
4.8647030314960631
20
-4.2940811023622043
11
4.8561251181102358
21
-4.2894389763779524
0
LINE
8
BLACK
6
CONTINUOUS
10
4.8561251181102358
20
-4.2894389763779524
11
4.8484282677165353
21
-4.2834482677165351
0
LINE
8
BLACK
6
CONTINUOUS
10
4.8484282677165353
20
-4.2834482677165351
11
4.8418224015748033
21
-4.2762724015748033
0
LINE
8
BLACK
6
CONTINUOUS
10
4.8418224015748033
20
-4.2762724015748033
11
4.8364877559055115
21
-4.268107125984252
0
LINE
8
BLACK
6
CONTINUOUS
10
4.8364877559055115
20
-4.268107125984252
11
4.8325698425196846
21
-4.2591751574803149
0
LINE
8
BLACK
6
CONTINUOUS
10
4.8325698425196846
20
-4.2591751574803149
11
4.8301755118110234
21
-4.249720157480315
0
LINE
8
BLACK
6
CONTINUOUS
10
4.8301755118110234
20
-4.249720157480315
11
4.8293700787401574
21
-4.2400000000000002
0
LINE
8
BLACK
6
CONTINUOUS
10
4.8293700787401574
20
-4.2400000000000002
11
4.8301755118110234
21
-4.2302798425196846
0
LINE
8
BLACK
6
CONTINUOUS
10
4.8301755118110234
20
-4.2302798425196846
11
4.8325698425196846
21
-4.2208248425196846
0
LINE
8
BLACK
6
CONTINUOUS
10
4.8325698425196846
20
-4.2208248425196846
11
4.8364877559055115
21
-4.2118928740157475
0
LINE
8
BLACK
6
CONTINUOUS
10
4.8364877559055115
20
-4.2118928740157475
11
4.8418224015748033
21
-4.2037275984251972
0
LINE
8
BLACK
6
CONTINUOUS
10
4.8418224015748033
20
-4.2037275984251972
11
4.8484282677165353
21
-4.1965517322834645
0
LINE
8
BLACK
6
CONTINUOUS
10
4.8484282677165353
20
-4.1965517322834645
11
4.8561251181102358
21
-4.1905610236220472
0
LINE
8
BLACK
6
CONTINUOUS
10
4.8561251181102358
20
-4.1905610236220472
11
4.8647030314960631
21
-4.1859188976377952
0
LINE
8
BLACK
6
CONTINUOUS
10
4.8647030314960631
20
-4.1859188976377952
11
4.8739280314960629
21
-4.1827519685039372
0
LINE
8
BLACK
6
CONTINUOUS
10
4.8739280314960629
20
-4.1827519685039372
11
4.8835484645669291
21
-4.1811465748031491
0
LINE
8
BLACK
6
CONTINUOUS
10
4.8835484645669291
20
-4.1811465748031491
11
4.893301929133858
21
-4.1811465748031491
0
LINE
8
BLACK
6
CONTINUOUS
10
4.893301929133858
20
-4.1811465748031491
11
4.9029223622047242
21
-4.1827519685039372
0
LINE
8
BLACK
6
CONTINUOUS
10
5.2966231496062992
20
-4.1827519685039372
11
5.305848149606299
21
-4.1859188976377952
0
LINE
8
BLACK
6
CONTINUOUS
10
5.305848149606299
20
-4.1859188976377952
11
5.3144260629921263
21
-4.1905610236220472
0
LINE
8
BLACK
6
CONTINUOUS
10
5.3144260629921263
20
-4.1905610236220472
11
5.3221229133858268
21
-4.1965517322834645
0
LINE
8
BLACK
6
CONTINUOUS
10
5.3221229133858268
20
-4.1965517322834645
11
5.3287287795275589
21
-4.2037275984251972
0
LINE
8
BLACK
6
CONTINUOUS
10
5.3287287795275589
20
-4.2037275984251972
11
5.3340634251968506
21
-4.2118928740157475
0
LINE
8
BLACK
6
CONTINUOUS
10
5.3340634251968506
20
-4.2118928740157475
11
5.3379813385826766
21
-4.2208248425196846
0
LINE
8
BLACK
6
CONTINUOUS
10
5.3379813385826766
20
-4.2208248425196846
11
5.3403756692913387
21
-4.2302798425196846
0
LINE
8
BLACK
6
CONTINUOUS
10
5.3403756692913387
20
-4.2302798425196846
11
5.3411811023622047
21
-4.2400000000000002
0
LINE
8
BLACK
6
CONTINUOUS
10
5.3411811023622047
20
-4.2400000000000002
11
5.3403756692913387
21
-4.249720157480315
0
LINE
8
BLACK
6
CONTINUOUS
10
5.3403756692913387
20
-4.249720157480315
11
5.3379813385826766
21
-4.2591751574803149
0
LINE
8
BLACK
6
CONTINUOUS
10
5.3379813385826766
20
-4.2591751574803149
11
5.3340634251968506
21
-4.268107125984252
0
LINE
8
BLACK
6
CONTINUOUS
10
5.3340634251968506
20
-4.268107125984252
11
5.3287287795275589
21
-4.2762724015748033
0
LINE
8
BLACK
6
CONTINUOUS
10
5.3287287795275589
20
-4.2762724015748033
11
5.3221229133858268
21
-4.2834482677165351
0
LINE
8
BLACK
6
CONTINUOUS
10
5.3221229133858268
20
-4.2834482677165351
11
5.3144260629921263
21
-4.2894389763779524
0
LINE
8
BLACK
6
CONTINUOUS
10
5.3144260629921263
20
-4.2894389763779524
11
5.305848149606299
21
-4.2940811023622043
0
LINE
8
BLACK
6
CONTINUOUS
10
5.305848149606299
20
-4.2940811023622043
11
5.2966231496062992
21
-4.2972480314960633
0
LINE
8
BLACK
6
CONTINUOUS
10
5.2966231496062992
20
-4.2972480314960633
11
5.287002716535433
21
-4.2988534251968504
0
LINE
8
BLACK
6
CONTINUOUS
10
5.287002716535433
20
-4.2988534251968504
11
5.2772492519685041
21
-4.2988534251968504
0
LINE
8
BLACK
6
CONTINUOUS
10
5.2772492519685041
20
-4.2988534251968504
11
5.2676288188976379
21
-4.2972480314960633
0
LINE
8
BLACK
6
CONTINUOUS
10
5.2676288188976379
20
-4.2972480314960633
11
5.2584038188976381
21
-4.2940811023622043
0
LINE
8
BLACK
6
CONTINUOUS
10
5.2584038188976381
20
-4.2940811023622043
11
5.2498259055118108
21
-4.2894389763779524
0
LINE
8
BLACK
6
CONTINUOUS
10
5.2498259055118108
20
-4.2894389763779524
11
5.2421290551181103
21
-4.2834482677165351
0
LINE
8
BLACK
6
CONTINUOUS
10
5.2421290551181103
20
-4.2834482677165351
11
5.2355231889763783
21
-4.2762724015748033
0
LINE
8
BLACK
6
CONTINUOUS
10
5.2355231889763783
20
-4.2762724015748033
11
5.2301885433070865
21
-4.268107125984252
0
LINE
8
BLACK
6
CONTINUOUS
10
5.2301885433070865
20
-4.268107125984252
11
5.2262706299212596
21
-4.2591751574803149
0
LINE
8
BLACK
6
CONTINUOUS
10
5.2262706299212596
20
-4.2591751574803149
11
5.2238762992125984
21
-4.249720157480315
0
LINE
8
BLACK
6
CONTINUOUS
10
5.2238762992125984
20
-4.249720157480315
11
5.2230708661417324
21
-4.2400000000000002
0
LINE
8
BLACK
6
CONTINUOUS
10
5.2230708661417324
20
-4.2400000000000002
11
5.2238762992125984
21
-4.2302798425196846
0
LINE
8
BLACK
6
CONTINUOUS
10
5.2238762992125984
20
-4.2302798425196846
11
5.2262706299212596
21
-4.2208248425196846
0
LINE
8
BLACK
6
CONTINUOUS
10
5.2262706299212596
20
-4.2208248425196846
11
5.2301885433070865
21
-4.2118928740157475
0
LINE
8
BLACK
6
CONTINUOUS
10
5.2301885433070865
20
-4.2118928740157475
11
5.2355231889763783
21
-4.2037275984251972
0
LINE
8
BLACK
6
CONTINUOUS
10
5.2355231889763783
20
-4.2037275984251972
11
5.2421290551181103
21
-4.1965517322834645
0
LINE
8
BLACK
6
CONTINUOUS
10
5.2421290551181103
20
-4.1965517322834645
11
5.2498259055118108
21
-4.1905610236220472
0
LINE
8
BLACK
6
CONTINUOUS
10
5.2498259055118108
20
-4.1905610236220472
11
5.2584038188976381
21
-4.1859188976377952
0
LINE
8
BLACK
6
CONTINUOUS
10
5.2584038188976381
20
-4.1859188976377952
11
5.2676288188976379
21
-4.1827519685039372
0
LINE
8
BLACK
6
CONTINUOUS
10
5.2676288188976379
20
-4.1827519685039372
11
5.2772492519685041
21
-4.1811465748031491
0
LINE
8
BLACK
6
CONTINUOUS
10
5.2772492519685041
20
-4.1811465748031491
11
5.287002716535433
21
-4.1811465748031491
0
LINE
8
BLACK
6
CONTINUOUS
10
5.287002716535433
20
-4.1811465748031491
11
5.2966231496062992
21
-4.1827519685039372
0
LINE
8
BLACK
6
CONTINUOUS
10
4.9318643700787401
20
-4.0890805118110238
11
4.9324409448818898
21
-4.0904724409448816
0
LINE
8
BLACK
6
CONTINUOUS
10
4.9324409448818898
20
-4.0904724409448816
11
4.9324409448818898
21
-4.1495275590551177
0
LINE
8
BLACK
6
CONTINUOUS
10
4.9324409448818898
20
-4.1495275590551177
11
4.9318643700787401
21
-4.1509194881889764
0
LINE
8
BLACK
6
CONTINUOUS
10
4.9318643700787401
20
-4.1509194881889764
11
4.9304724409448815
21
-4.151496062992126
0
LINE
8
BLACK
6
CONTINUOUS
10
4.9304724409448815
20
-4.151496062992126
11
4.9088188976377953
21
-4.151496062992126
0
LINE
8
BLACK
6
CONTINUOUS
10
4.9088188976377953
20
-4.151496062992126
11
4.9083351968503939
21
-4.1512957086614168
0
LINE
8
BLACK
6
CONTINUOUS
10
4.9083351968503939
20
-4.1512957086614168
11
4.9060174409448818
21
-4.1512957086614168
0
LINE
8
BLACK
6
CONTINUOUS
10
4.9060174409448818
20
-4.1512957086614168
11
4.905462834645669
21
-4.1512159842519685
0
LINE
8
BLACK
6
CONTINUOUS
10
4.905462834645669
20
-4.1512159842519685
11
4.9000868110236215
21
-4.1496374409448817
0
LINE
8
BLACK
6
CONTINUOUS
10
4.9000868110236215
20
-4.1496374409448817
11
4.899577165354331
21
-4.1494046850393698
0
LINE
8
BLACK
6
CONTINUOUS
10
4.899577165354331
20
-4.1494046850393698
11
4.8948637007874014
21
-4.1463755118110237
0
LINE
8
BLACK
6
CONTINUOUS
10
4.8948637007874014
20
-4.1463755118110237
11
4.8944402755905507
21
-4.1460085826771653
0
LINE
8
BLACK
6
CONTINUOUS
10
4.8944402755905507
20
-4.1460085826771653
11
4.8907711023622049
21
-4.1417741338582674
0
LINE
8
BLACK
6
CONTINUOUS
10
4.8907711023622049
20
-4.1417741338582674
11
4.8904681496062992
21
-4.1413027952755908
0
LINE
8
BLACK
6
CONTINUOUS
10
4.8904681496062992
20
-4.1413027952755908
11
4.88814062992126
21
-4.136206181102362
0
LINE
8
BLACK
6
CONTINUOUS
10
4.88814062992126
20
-4.136206181102362
11
4.8879827952755903
21
-4.1356685826771651
0
LINE
8
BLACK
6
CONTINUOUS
10
4.8879827952755903
20
-4.1356685826771651
11
4.8871853937007872
21
-4.1301226771653541
0
LINE
8
BLACK
6
CONTINUOUS
10
4.8871853937007872
20
-4.1301226771653541
11
4.8871653543307083
21
-4.129842519685039
0
LINE
8
BLACK
6
CONTINUOUS
10
4.8871653543307083
20
-4.129842519685039
11
4.8871653543307083
21
-4.1101574803149603
0
LINE
8
BLACK
6
CONTINUOUS
10
4.8871653543307083
20
-4.1101574803149603
11
4.8871853937007872
21
-4.1098773228346452
0
LINE
8
BLACK
6
CONTINUOUS
10
4.8871853937007872
20
-4.1098773228346452
11
4.8879827952755903
21
-4.1043314173228342
0
LINE
8
BLACK
6
CONTINUOUS
10
4.8879827952755903
20
-4.1043314173228342
11
4.88814062992126
21
-4.1037938188976373
0
LINE
8
BLACK
6
CONTINUOUS
10
4.88814062992126
20
-4.1037938188976373
11
4.8904681496062992
21
-4.0986972047244095
0
LINE
8
BLACK
6
CONTINUOUS
10
4.8904681496062992
20
-4.0986972047244095
11
4.8907711023622049
21
-4.0982258661417319
0
LINE
8
BLACK
6
CONTINUOUS
10
4.8907711023622049
20
-4.0982258661417319
11
4.8944402755905507
21
-4.0939914173228349
0
LINE
8
BLACK
6
CONTINUOUS
10
4.8944402755905507
20
-4.0939914173228349
11
4.8948637007874014
21
-4.0936244881889765
0
LINE
8
BLACK
6
CONTINUOUS
10
4.8948637007874014
20
-4.0936244881889765
11
4.899577165354331
21
-4.0905953149606296
0
LINE
8
BLACK
6
CONTINUOUS
10
4.899577165354331
20
-4.0905953149606296
11
4.9000868110236215
21
-4.0903625590551176
0
LINE
8
BLACK
6
CONTINUOUS
10
4.9000868110236215
20
-4.0903625590551176
11
4.905462834645669
21
-4.0887840157480317
0
LINE
8
BLACK
6
CONTINUOUS
10
4.905462834645669
20
-4.0887840157480317
11
4.9060174409448818
21
-4.0887042913385825
0
LINE
8
BLACK
6
CONTINUOUS
10
4.9060174409448818
20
-4.0887042913385825
11
4.9083351968503939
21
-4.0887042913385825
0
LINE
8
BLACK
6
CONTINUOUS
10
4.9083351968503939
20
-4.0887042913385825
11
4.9088188976377953
21
-4.0885039370078742
0
LINE
8
BLACK
6
CONTINUOUS
10
4.9088188976377953
20
-4.0885039370078742
11
4.9304724409448815
21
-4.0885039370078742
0
LINE
8
BLACK
6
CONTINUOUS
10
4.9304724409448815
20
-4.0885039370078742
11
4.9318643700787401
21
-4.0890805118110238
0
LINE
8
BLACK
6
CONTINUOUS
10
4.980438346456693
20
-4.0886537795275588
11
4.9810769685039373
21
-4.0890805118110238
0
LINE
8
BLACK
6
CONTINUOUS
10
4.9810769685039373
20
-4.0890805118110238
11
4.9815037007874015
21
-4.0897191338582672
0
LINE
8
BLACK
6
CONTINUOUS
10
4.9815037007874015
20
-4.0897191338582672
11
4.9816535433070861
21
-4.0904724409448816
0
LINE
8
BLACK
6
CONTINUOUS
10
4.9816535433070861
20
-4.0904724409448816
11
4.9816535433070861
21
-4.1495275590551177
0
LINE
8
BLACK
6
CONTINUOUS
10
4.9816535433070861
20
-4.1495275590551177
11
4.9815037007874015
21
-4.1502808661417321
0
LINE
8
BLACK
6
CONTINUOUS
10
4.9815037007874015
20
-4.1502808661417321
11
4.9810769685039373
21
-4.1509194881889764
0
LINE
8
BLACK
6
CONTINUOUS
10
4.9810769685039373
20
-4.1509194881889764
11
4.980438346456693
21
-4.1513462204724405
0
LINE
8
BLACK
6
CONTINUOUS
10
4.980438346456693
20
-4.1513462204724405
11
4.9796850393700787
21
-4.151496062992126
0
LINE
8
BLACK
6
CONTINUOUS
10
4.9796850393700787
20
-4.151496062992126
11
4.9403149606299213
21
-4.151496062992126
0
LINE
8
BLACK
6
CONTINUOUS
10
4.9403149606299213
20
-4.151496062992126
11
4.9395616535433069
21
-4.1513462204724405
0
LINE
8
BLACK
6
CONTINUOUS
10
4.9395616535433069
20
-4.1513462204724405
11
4.9389230314960626
21
-4.1509194881889764
0
LINE
8
BLACK
6
CONTINUOUS
10
4.9389230314960626
20
-4.1509194881889764
11
4.9384962992125985
21
-4.1502808661417321
0
LINE
8
BLACK
6
CONTINUOUS
10
4.9384962992125985
20
-4.1502808661417321
11
4.9383464566929129
21
-4.1495275590551177
0
LINE
8
BLACK
6
CONTINUOUS
10
4.9383464566929129
20
-4.1495275590551177
11
4.9383464566929129
21
-4.0904724409448816
0
LINE
8
BLACK
6
CONTINUOUS
10
4.9383464566929129
20
-4.0904724409448816
11
4.9384962992125985
21
-4.0897191338582672
0
LINE
8
BLACK
6
CONTINUOUS
10
4.9384962992125985
20
-4.0897191338582672
11
4.9389230314960626
21
-4.0890805118110238
0
LINE
8
BLACK
6
CONTINUOUS
10
4.9389230314960626
20
-4.0890805118110238
11
4.9395616535433069
21
-4.0886537795275588
0
LINE
8
BLACK
6
CONTINUOUS
10
4.9395616535433069
20
-4.0886537795275588
11
4.9403149606299213
21
-4.0885039370078742
0
LINE
8
BLACK
6
CONTINUOUS
10
4.9403149606299213
20
-4.0885039370078742
11
4.9796850393700787
21
-4.0885039370078742
0
LINE
8
BLACK
6
CONTINUOUS
10
4.9796850393700787
20
-4.0885039370078742
11
4.980438346456693
21
-4.0886537795275588
0
LINE
8
BLACK
6
CONTINUOUS
10
5.0116648031496061
20
-4.0887042913385825
11
5.0139825590551181
21
-4.0887042913385825
0
LINE
8
BLACK
6
CONTINUOUS
10
5.0139825590551181
20
-4.0887042913385825
11
5.0145371653543309
21
-4.0887840157480317
0
LINE
8
BLACK
6
CONTINUOUS
10
5.0145371653543309
20
-4.0887840157480317
11
5.0199131889763775
21
-4.0903625590551176
0
LINE
8
BLACK
6
CONTINUOUS
10
5.0199131889763775
20
-4.0903625590551176
11
5.020422834645669
21
-4.0905953149606296
0
LINE
8
BLACK
6
CONTINUOUS
10
5.020422834645669
20
-4.0905953149606296
11
5.0251362992125985
21
-4.0936244881889765
0
LINE
8
BLACK
6
CONTINUOUS
10
5.0251362992125985
20
-4.0936244881889765
11
5.0255597244094483
21
-4.0939914173228349
0
LINE
8
BLACK
6
CONTINUOUS
10
5.0255597244094483
20
-4.0939914173228349
11
5.029228897637795
21
-4.0982258661417319
0
LINE
8
BLACK
6
CONTINUOUS
10
5.029228897637795
20
-4.0982258661417319
11
5.0295318503937008
21
-4.0986972047244095
0
LINE
8
BLACK
6
CONTINUOUS
10
5.0295318503937008
20
-4.0986972047244095
11
5.03185937007874
21
-4.1037938188976373
0
LINE
8
BLACK
6
CONTINUOUS
10
5.03185937007874
20
-4.1037938188976373
11
5.0320172047244096
21
-4.1043314173228342
0
LINE
8
BLACK
6
CONTINUOUS
10
5.0320172047244096
20
-4.1043314173228342
11
5.0328146062992127
21
-4.1098773228346452
0
LINE
8
BLACK
6
CONTINUOUS
10
5.0328146062992127
20
-4.1098773228346452
11
5.0328346456692916
21
-4.1101574803149603
0
LINE
8
BLACK
6
CONTINUOUS
10
5.0328346456692916
20
-4.1101574803149603
11
5.0328346456692916
21
-4.129842519685039
0
LINE
8
BLACK
6
CONTINUOUS
10
5.0328346456692916
20
-4.129842519685039
11
5.0328146062992127
21
-4.1301226771653541
0
LINE
8
BLACK
6
CONTINUOUS
10
5.0328146062992127
20
-4.1301226771653541
11
5.0320172047244096
21
-4.1356685826771651
0
LINE
8
BLACK
6
CONTINUOUS
10
5.0320172047244096
20
-4.1356685826771651
11
5.03185937007874
21
-4.136206181102362
0
LINE
8
BLACK
6
CONTINUOUS
10
5.03185937007874
20
-4.136206181102362
11
5.0295318503937008
21
-4.1413027952755908
0
LINE
8
BLACK
6
CONTINUOUS
10
5.0295318503937008
20
-4.1413027952755908
11
5.029228897637795
21
-4.1417741338582674
0
LINE
8
BLACK
6
CONTINUOUS
10
5.029228897637795
20
-4.1417741338582674
11
5.0255597244094483
21
-4.1460085826771653
0
LINE
8
BLACK
6
CONTINUOUS
10
5.0255597244094483
20
-4.1460085826771653
11
5.0251362992125985
21
-4.1463755118110237
0
LINE
8
BLACK
6
CONTINUOUS
10
5.0251362992125985
20
-4.1463755118110237
11
5.020422834645669
21
-4.1494046850393698
0
LINE
8
BLACK
6
CONTINUOUS
10
5.020422834645669
20
-4.1494046850393698
11
5.0199131889763775
21
-4.1496374409448817
0
LINE
8
BLACK
6
CONTINUOUS
10
5.0199131889763775
20
-4.1496374409448817
11
5.0145371653543309
21
-4.1512159842519685
0
LINE
8
BLACK
6
CONTINUOUS
10
5.0145371653543309
20
-4.1512159842519685
11
5.0139825590551181
21
-4.1512957086614168
0
LINE
8
BLACK
6
CONTINUOUS
10
5.0139825590551181
20
-4.1512957086614168
11
5.0116648031496061
21
-4.1512957086614168
0
LINE
8
BLACK
6
CONTINUOUS
10
5.0116648031496061
20
-4.1512957086614168
11
5.0111811023622046
21
-4.151496062992126
0
LINE
8
BLACK
6
CONTINUOUS
10
5.0111811023622046
20
-4.151496062992126
11
4.9895275590551176
21
-4.151496062992126
0
LINE
8
BLACK
6
CONTINUOUS
10
4.9895275590551176
20
-4.151496062992126
11
4.9881356299212598
21
-4.1509194881889764
0
LINE
8
BLACK
6
CONTINUOUS
10
4.9881356299212598
20
-4.1509194881889764
11
4.9875590551181102
21
-4.1495275590551177
0
LINE
8
BLACK
6
CONTINUOUS
10
4.9875590551181102
20
-4.1495275590551177
11
4.9875590551181102
21
-4.0904724409448816
0
LINE
8
BLACK
6
CONTINUOUS
10
4.9875590551181102
20
-4.0904724409448816
11
4.9881356299212598
21
-4.0890805118110238
0
LINE
8
BLACK
6
CONTINUOUS
10
4.9881356299212598
20
-4.0890805118110238
11
4.9895275590551176
21
-4.0885039370078742
0
LINE
8
BLACK
6
CONTINUOUS
10
4.9895275590551176
20
-4.0885039370078742
11
5.0111811023622046
21
-4.0885039370078742
0
LINE
8
BLACK
6
CONTINUOUS
10
5.0111811023622046
20
-4.0885039370078742
11
5.0116648031496061
21
-4.0887042913385825
0
LINE
8
BLACK
6
CONTINUOUS
10
5.500919488188976
20
-3.7881356299212596
11
5.5014960629921257
21
-3.7895275590551178
0
LINE
8
BLACK
6
CONTINUOUS
10
5.5014960629921257
20
-3.7895275590551178
11
5.5014960629921257
21
-3.8111811023622044
0
LINE
8
BLACK
6
CONTINUOUS
10
5.5014960629921257
20
-3.8111811023622044
11
5.5012957086614174
21
-3.8116647637795276
0
LINE
8
BLACK
6
CONTINUOUS
10
5.5012957086614174
20
-3.8116647637795276
11
5.5012957086614174
21
-3.813982559055118
0
LINE
8
BLACK
6
CONTINUOUS
10
5.5012957086614174
20
-3.813982559055118
11
5.5012159842519681
21
-3.8145371653543307
0
LINE
8
BLACK
6
CONTINUOUS
10
5.5012159842519681
20
-3.8145371653543307
11
5.4996374409448814
21
-3.8199131889763778
0
LINE
8
BLACK
6
CONTINUOUS
10
5.4996374409448814
20
-3.8199131889763778
11
5.4994046850393703
21
-3.8204228346456692
0
LINE
8
BLACK
6
CONTINUOUS
10
5.4994046850393703
20
-3.8204228346456692
11
5.4963755118110234
21
-3.8251362992125983
0
LINE
8
BLACK
6
CONTINUOUS
10
5.4963755118110234
20
-3.8251362992125983
11
5.496008582677165
21
-3.8255597244094486
0
LINE
8
BLACK
6
CONTINUOUS
10
5.496008582677165
20
-3.8255597244094486
11
5.491774133858268
21
-3.8292288976377953
0
LINE
8
BLACK
6
CONTINUOUS
10
5.491774133858268
20
-3.8292288976377953
11
5.4913027952755904
21
-3.8295318503937006
0
LINE
8
BLACK
6
CONTINUOUS
10
5.4913027952755904
20
-3.8295318503937006
11
5.4862061811023617
21
-3.8318593700787402
0
LINE
8
BLACK
6
CONTINUOUS
10
5.4862061811023617
20
-3.8318593700787402
11
5.4856685826771656
21
-3.8320172047244094
0
LINE
8
BLACK
6
CONTINUOUS
10
5.4856685826771656
20
-3.8320172047244094
11
5.4801226771653546
21
-3.8328146062992126
0
LINE
8
BLACK
6
CONTINUOUS
10
5.4801226771653546
20
-3.8328146062992126
11
5.4798425196850395
21
-3.8328346456692914
0
LINE
8
BLACK
6
CONTINUOUS
10
5.4798425196850395
20
-3.8328346456692914
11
5.4601574803149608
21
-3.8328346456692914
0
LINE
8
BLACK
6
CONTINUOUS
10
5.4601574803149608
20
-3.8328346456692914
11
5.4598773228346458
21
-3.8328146062992126
0
LINE
8
BLACK
6
CONTINUOUS
10
5.4598773228346458
20
-3.8328146062992126
11
5.4543314173228348
21
-3.8320172047244094
0
LINE
8
BLACK
6
CONTINUOUS
10
5.4543314173228348
20
-3.8320172047244094
11
5.4537938188976378
21
-3.8318593700787402
0
LINE
8
BLACK
6
CONTINUOUS
10
5.4537938188976378
20
-3.8318593700787402
11
5.4486972047244091
21
-3.8295318503937006
0
LINE
8
BLACK
6
CONTINUOUS
10
5.4486972047244091
20
-3.8295318503937006
11
5.4482258661417324
21
-3.8292288976377953
0
LINE
8
BLACK
6
CONTINUOUS
10
5.4482258661417324
20
-3.8292288976377953
11
5.4439914173228345
21
-3.8255597244094486
0
LINE
8
BLACK
6
CONTINUOUS
10
5.4439914173228345
20
-3.8255597244094486
11
5.4436244881889762
21
-3.8251362992125983
0
LINE
8
BLACK
6
CONTINUOUS
10
5.4436244881889762
20
-3.8251362992125983
11
5.4405953149606301
21
-3.8204228346456692
0
LINE
8
BLACK
6
CONTINUOUS
10
5.4405953149606301
20
-3.8204228346456692
11
5.4403625590551181
21
-3.8199131889763778
0
LINE
8
BLACK
6
CONTINUOUS
10
5.4403625590551181
20
-3.8199131889763778
11
5.4387840157480314
21
-3.8145371653543307
0
LINE
8
BLACK
6
CONTINUOUS
10
5.4387840157480314
20
-3.8145371653543307
11
5.4387042913385821
21
-3.813982559055118
0
LINE
8
BLACK
6
CONTINUOUS
10
5.4387042913385821
20
-3.813982559055118
11
5.4387042913385821
21
-3.8116647637795276
0
LINE
8
BLACK
6
CONTINUOUS
10
5.4387042913385821
20
-3.8116647637795276
11
5.4385039370078738
21
-3.8111811023622044
0
LINE
8
BLACK
6
CONTINUOUS
10
5.4385039370078738
20
-3.8111811023622044
11
5.4385039370078738
21
-3.7895275590551178
0
LINE
8
BLACK
6
CONTINUOUS
10
5.4385039370078738
20
-3.7895275590551178
11
5.4390805118110235
21
-3.7881356299212596
0
LINE
8
BLACK
6
CONTINUOUS
10
5.4390805118110235
20
-3.7881356299212596
11
5.4404724409448821
21
-3.78755905511811
0
LINE
8
BLACK
6
CONTINUOUS
10
5.4404724409448821
20
-3.78755905511811
11
5.4995275590551183
21
-3.78755905511811
0
LINE
8
BLACK
6
CONTINUOUS
10
5.4995275590551183
20
-3.78755905511811
11
5.500919488188976
21
-3.7881356299212596
0
LINE
8
BLACK
6
CONTINUOUS
10
5.5002808661417317
20
-3.7384962992125983
11
5.500919488188976
21
-3.7389230314960629
0
LINE
8
BLACK
6
CONTINUOUS
10
5.500919488188976
20
-3.7389230314960629
11
5.501346220472441
21
-3.7395616535433072
0
LINE
8
BLACK
6
CONTINUOUS
10
5.501346220472441
20
-3.7395616535433072
11
5.5014960629921257
21
-3.7403149606299211
0
LINE
8
BLACK
6
CONTINUOUS
10
5.5014960629921257
20
-3.7403149606299211
11
5.5014960629921257
21
-3.7796850393700785
0
LINE
8
BLACK
6
CONTINUOUS
10
5.5014960629921257
20
-3.7796850393700785
11
5.501346220472441
21
-3.7804383464566929
0
LINE
8
BLACK
6
CONTINUOUS
10
5.501346220472441
20
-3.7804383464566929
11
5.500919488188976
21
-3.7810769685039367
0
LINE
8
BLACK
6
CONTINUOUS
10
5.500919488188976
20
-3.7810769685039367
11
5.5002808661417317
21
-3.7815037007874013
0
LINE
8
BLACK
6
CONTINUOUS
10
5.5002808661417317
20
-3.7815037007874013
11
5.4995275590551183
21
-3.7816535433070864
0
LINE
8
BLACK
6
CONTINUOUS
10
5.4995275590551183
20
-3.7816535433070864
11
5.4404724409448821
21
-3.7816535433070864
0
LINE
8
BLACK
6
CONTINUOUS
10
5.4404724409448821
20
-3.7816535433070864
11
5.4397191338582678
21
-3.7815037007874013
0
LINE
8
BLACK
6
CONTINUOUS
10
5.4397191338582678
20
-3.7815037007874013
11
5.4390805118110235
21
-3.7810769685039367
0
LINE
8
BLACK
6
CONTINUOUS
10
5.4390805118110235
20
-3.7810769685039367
11
5.4386537795275594
21
-3.7804383464566929
0
LINE
8
BLACK
6
CONTINUOUS
10
5.4386537795275594
20
-3.7804383464566929
11
5.4385039370078738
21
-3.7796850393700785
0
LINE
8
BLACK
6
CONTINUOUS
10
5.4385039370078738
20
-3.7796850393700785
11
5.4385039370078738
21
-3.7403149606299211
0
LINE
8
BLACK
6
CONTINUOUS
10
5.4385039370078738
20
-3.7403149606299211
11
5.4386537795275594
21
-3.7395616535433072
0
LINE
8
BLACK
6
CONTINUOUS
10
5.4386537795275594
20
-3.7395616535433072
11
5.4390805118110235
21
-3.7389230314960629
0
LINE
8
BLACK
6
CONTINUOUS
10
5.4390805118110235
20
-3.7389230314960629
11
5.4397191338582678
21
-3.7384962992125983
0
LINE
8
BLACK
6
CONTINUOUS
10
5.4397191338582678
20
-3.7384962992125983
11
5.4404724409448821
21
-3.7383464566929132
0
LINE
8
BLACK
6
CONTINUOUS
10
5.4404724409448821
20
-3.7383464566929132
11
5.4995275590551183
21
-3.7383464566929132
0
LINE
8
BLACK
6
CONTINUOUS
10
5.4995275590551183
20
-3.7383464566929132
11
5.5002808661417317
21
-3.7384962992125983
0
LINE
8
BLACK
6
CONTINUOUS
10
5.4801226771653546
20
-3.6871853937007875
11
5.4856685826771656
21
-3.6879827952755906
0
LINE
8
BLACK
6
CONTINUOUS
10
5.4856685826771656
20
-3.6879827952755906
11
5.4862061811023617
21
-3.6881406299212598
0
LINE
8
BLACK
6
CONTINUOUS
10
5.4862061811023617
20
-3.6881406299212598
11
5.4913027952755904
21
-3.690468149606299
0
LINE
8
BLACK
6
CONTINUOUS
10
5.4913027952755904
20
-3.690468149606299
11
5.491774133858268
21
-3.6907711023622047
0
LINE
8
BLACK
6
CONTINUOUS
10
5.491774133858268
20
-3.6907711023622047
11
5.496008582677165
21
-3.694440275590551
0
LINE
8
BLACK
6
CONTINUOUS
10
5.496008582677165
20
-3.694440275590551
11
5.4963755118110234
21
-3.6948637007874017
0
LINE
8
BLACK
6
CONTINUOUS
10
5.4963755118110234
20
-3.6948637007874017
11
5.4994046850393703
21
-3.6995771653543308
0
LINE
8
BLACK
6
CONTINUOUS
10
5.4994046850393703
20
-3.6995771653543308
11
5.4996374409448814
21
-3.7000868110236218
0
LINE
8
BLACK
6
CONTINUOUS
10
5.4996374409448814
20
-3.7000868110236218
11
5.5012159842519681
21
-3.7054628346456693
0
LINE
8
BLACK
6
CONTINUOUS
10
5.5012159842519681
20
-3.7054628346456693
11
5.5012957086614174
21
-3.7060174409448816
0
LINE
8
BLACK
6
CONTINUOUS
10
5.5012957086614174
20
-3.7060174409448816
11
5.5012957086614174
21
-3.7083351968503937
0
LINE
8
BLACK
6
CONTINUOUS
10
5.5012957086614174
20
-3.7083351968503937
11
5.5014960629921257
21
-3.7088188976377952
0
LINE
8
BLACK
6
CONTINUOUS
10
5.5014960629921257
20
-3.7088188976377952
11
5.5014960629921257
21
-3.7304724409448817
0
LINE
8
BLACK
6
CONTINUOUS
10
5.5014960629921257
20
-3.7304724409448817
11
5.500919488188976
21
-3.7318643700787399
0
LINE
8
BLACK
6
CONTINUOUS
10
5.500919488188976
20
-3.7318643700787399
11
5.4995275590551183
21
-3.7324409448818896
0
LINE
8
BLACK
6
CONTINUOUS
10
5.4995275590551183
20
-3.7324409448818896
11
5.4404724409448821
21
-3.7324409448818896
0
LINE
8
BLACK
6
CONTINUOUS
10
5.4404724409448821
20
-3.7324409448818896
11
5.4390805118110235
21
-3.7318643700787399
0
LINE
8
BLACK
6
CONTINUOUS
10
5.4390805118110235
20
-3.7318643700787399
11
5.4385039370078738
21
-3.7304724409448817
0
LINE
8
BLACK
6
CONTINUOUS
10
5.4385039370078738
20
-3.7304724409448817
11
5.4385039370078738
21
-3.7088188976377952
0
LINE
8
BLACK
6
CONTINUOUS
10
5.4385039370078738
20
-3.7088188976377952
11
5.4387042913385821
21
-3.7083351968503937
0
LINE
8
BLACK
6
CONTINUOUS
10
5.4387042913385821
20
-3.7083351968503937
11
5.4387042913385821
21
-3.7060174409448816
0
LINE
8
BLACK
6
CONTINUOUS
10
5.4387042913385821
20
-3.7060174409448816
11
5.4387840157480314
21
-3.7054628346456693
0
LINE
8
BLACK
6
CONTINUOUS
10
5.4387840157480314
20
-3.7054628346456693
11
5.4403625590551181
21
-3.7000868110236218
0
LINE
8
BLACK
6
CONTINUOUS
10
5.4403625590551181
20
-3.7000868110236218
11
5.4405953149606301
21
-3.6995771653543308
0
LINE
8
BLACK
6
CONTINUOUS
10
5.4405953149606301
20
-3.6995771653543308
11
5.4436244881889762
21
-3.6948637007874017
0
LINE
8
BLACK
6
CONTINUOUS
10
5.4436244881889762
20
-3.6948637007874017
11
5.4439914173228345
21
-3.694440275590551
0
LINE
8
BLACK
6
CONTINUOUS
10
5.4439914173228345
20
-3.694440275590551
11
5.4482258661417324
21
-3.6907711023622047
0
LINE
8
BLACK
6
CONTINUOUS
10
5.4482258661417324
20
-3.6907711023622047
11
5.4486972047244091
21
-3.690468149606299
0
LINE
8
BLACK
6
CONTINUOUS
10
5.4486972047244091
20
-3.690468149606299
11
5.4537938188976378
21
-3.6881406299212598
0
LINE
8
BLACK
6
CONTINUOUS
10
5.4537938188976378
20
-3.6881406299212598
11
5.4543314173228348
21
-3.6879827952755906
0
LINE
8
BLACK
6
CONTINUOUS
10
5.4543314173228348
20
-3.6879827952755906
11
5.4598773228346458
21
-3.6871853937007875
0
LINE
8
BLACK
6
CONTINUOUS
10
5.4598773228346458
20
-3.6871853937007875
11
5.4601574803149608
21
-3.6871653543307086
0
LINE
8
BLACK
6
CONTINUOUS
10
5.4601574803149608
20
-3.6871653543307086
11
5.4798425196850395
21
-3.6871653543307086
0
LINE
8
BLACK
6
CONTINUOUS
10
5.4798425196850395
20
-3.6871653543307086
11
5.4801226771653546
21
-3.6871853937007875
0
LINE
8
BLACK
6
CONTINUOUS
10
4.9029223622047242
20
-3.5922007874015747
11
4.912147362204724
21
-3.5953677165354332
0
LINE
8
BLACK
6
CONTINUOUS
10
4.912147362204724
20
-3.5953677165354332
11
4.9207252755905513
21
-3.6000098425196851
0
LINE
8
BLACK
6
CONTINUOUS
10
4.9207252755905513
20
-3.6000098425196851
11
4.9284221259842518
21
-3.6060005511811024
0
LINE
8
BLACK
6
CONTINUOUS
10
4.9284221259842518
20
-3.6060005511811024
11
4.9350279921259839
21
-3.6131764173228347
0
LINE
8
BLACK
6
CONTINUOUS
10
4.9350279921259839
20
-3.6131764173228347
11
4.9403626377952756
21
-3.6213416929133859
0
LINE
8
BLACK
6
CONTINUOUS
10
4.9403626377952756
20
-3.6213416929133859
11
4.9442805511811025
21
-3.6302736614173226
0
LINE
8
BLACK
6
CONTINUOUS
10
4.9442805511811025
20
-3.6302736614173226
11
4.9466748818897637
21
-3.6397286614173225
0
LINE
8
BLACK
6
CONTINUOUS
10
4.9466748818897637
20
-3.6397286614173225
11
4.9474803149606297
21
-3.6494488188976377
0
LINE
8
BLACK
6
CONTINUOUS
10
4.9474803149606297
20
-3.6494488188976377
11
4.9466748818897637
21
-3.6591689763779525
0
LINE
8
BLACK
6
CONTINUOUS
10
4.9466748818897637
20
-3.6591689763779525
11
4.9442805511811025
21
-3.6686239763779525
0
LINE
8
BLACK
6
CONTINUOUS
10
4.9442805511811025
20
-3.6686239763779525
11
4.9403626377952756
21
-3.6775559448818895
0
LINE
8
BLACK
6
CONTINUOUS
10
4.9403626377952756
20
-3.6775559448818895
11
4.9350279921259839
21
-3.6857212204724408
0
LINE
8
BLACK
6
CONTINUOUS
10
4.9350279921259839
20
-3.6857212204724408
11
4.9284221259842518
21
-3.692897086614173
0
LINE
8
BLACK
6
CONTINUOUS
10
4.9284221259842518
20
-3.692897086614173
11
4.9207252755905513
21
-3.6988877952755903
0
LINE
8
BLACK
6
CONTINUOUS
10
4.9207252755905513
20
-3.6988877952755903
11
4.912147362204724
21
-3.7035299212598423
0
LINE
8
BLACK
6
CONTINUOUS
10
4.912147362204724
20
-3.7035299212598423
11
4.9029223622047242
21
-3.7066968503937008
0
LINE
8
BLACK
6
CONTINUOUS
10
4.9029223622047242
20
-3.7066968503937008
11
4.893301929133858
21
-3.7083022440944879
0
LINE
8
BLACK
6
CONTINUOUS
10
4.893301929133858
20
-3.7083022440944879
11
4.8835484645669291
21
-3.7083022440944879
0
LINE
8
BLACK
6
CONTINUOUS
10
4.8835484645669291
20
-3.7083022440944879
11
4.8739280314960629
21
-3.7066968503937008
0
LINE
8
BLACK
6
CONTINUOUS
10
4.8739280314960629
20
-3.7066968503937008
11
4.8647030314960631
21
-3.7035299212598423
0
LINE
8
BLACK
6
CONTINUOUS
10
4.8647030314960631
20
-3.7035299212598423
11
4.8561251181102358
21
-3.6988877952755903
0
LINE
8
BLACK
6
CONTINUOUS
10
4.8561251181102358
20
-3.6988877952755903
11
4.8484282677165353
21
-3.692897086614173
0
LINE
8
BLACK
6
CONTINUOUS
10
4.8484282677165353
20
-3.692897086614173
11
4.8418224015748033
21
-3.6857212204724408
0
LINE
8
BLACK
6
CONTINUOUS
10
4.8418224015748033
20
-3.6857212204724408
11
4.8364877559055115
21
-3.6775559448818895
0
LINE
8
BLACK
6
CONTINUOUS
10
4.8364877559055115
20
-3.6775559448818895
11
4.8325698425196846
21
-3.6686239763779525
0
LINE
8
BLACK
6
CONTINUOUS
10
4.8325698425196846
20
-3.6686239763779525
11
4.8301755118110234
21
-3.6591689763779525
0
LINE
8
BLACK
6
CONTINUOUS
10
4.8301755118110234
20
-3.6591689763779525
11
4.8293700787401574
21
-3.6494488188976377
0
LINE
8
BLACK
6
CONTINUOUS
10
4.8293700787401574
20
-3.6494488188976377
11
4.8301755118110234
21
-3.6397286614173225
0
LINE
8
BLACK
6
CONTINUOUS
10
4.8301755118110234
20
-3.6397286614173225
11
4.8325698425196846
21
-3.6302736614173226
0
LINE
8
BLACK
6
CONTINUOUS
10
4.8325698425196846
20
-3.6302736614173226
11
4.8364877559055115
21
-3.6213416929133859
0
LINE
8
BLACK
6
CONTINUOUS
10
4.8364877559055115
20
-3.6213416929133859
11
4.8418224015748033
21
-3.6131764173228347
0
LINE
8
BLACK
6
CONTINUOUS
10
4.8418224015748033
20
-3.6131764173228347
11
4.8484282677165353
21
-3.6060005511811024
0
LINE
8
BLACK
6
CONTINUOUS
10
4.8484282677165353
20
-3.6060005511811024
11
4.8561251181102358
21
-3.6000098425196851
0
LINE
8
BLACK
6
CONTINUOUS
10
4.8561251181102358
20
-3.6000098425196851
11
4.8647030314960631
21
-3.5953677165354332
0
LINE
8
BLACK
6
CONTINUOUS
10
4.8647030314960631
20
-3.5953677165354332
11
4.8739280314960629
21
-3.5922007874015747
0
LINE
8
BLACK
6
CONTINUOUS
10
4.8739280314960629
20
-3.5922007874015747
11
4.8835484645669291
21
-3.5905953937007875
0
LINE
8
BLACK
6
CONTINUOUS
10
4.8835484645669291
20
-3.5905953937007875
11
4.893301929133858
21
-3.5905953937007875
0
LINE
8
BLACK
6
CONTINUOUS
10
4.893301929133858
20
-3.5905953937007875
11
4.9029223622047242
21
-3.5922007874015747
0
LINE
8
BLACK
6
CONTINUOUS
10
5.2966231496062992
20
-3.5922007874015747
11
5.305848149606299
21
-3.5953677165354332
0
LINE
8
BLACK
6
CONTINUOUS
10
5.305848149606299
20
-3.5953677165354332
11
5.3144260629921263
21
-3.6000098425196851
0
LINE
8
BLACK
6
CONTINUOUS
10
5.3144260629921263
20
-3.6000098425196851
11
5.3221229133858268
21
-3.6060005511811024
0
LINE
8
BLACK
6
CONTINUOUS
10
5.3221229133858268
20
-3.6060005511811024
11
5.3287287795275589
21
-3.6131764173228347
0
LINE
8
BLACK
6
CONTINUOUS
10
5.3287287795275589
20
-3.6131764173228347
11
5.3340634251968506
21
-3.6213416929133859
0
LINE
8
BLACK
6
CONTINUOUS
10
5.3340634251968506
20
-3.6213416929133859
11
5.3379813385826766
21
-3.6302736614173226
0
LINE
8
BLACK
6
CONTINUOUS
10
5.3379813385826766
20
-3.6302736614173226
11
5.3403756692913387
21
-3.6397286614173225
0
LINE
8
BLACK
6
CONTINUOUS
10
5.3403756692913387
20
-3.6397286614173225
11
5.3411811023622047
21
-3.6494488188976377
0
LINE
8
BLACK
6
CONTINUOUS
10
5.3411811023622047
20
-3.6494488188976377
11
5.3403756692913387
21
-3.6591689763779525
0
LINE
8
BLACK
6
CONTINUOUS
10
5.3403756692913387
20
-3.6591689763779525
11
5.3379813385826766
21
-3.6686239763779525
0
LINE
8
BLACK
6
CONTINUOUS
10
5.3379813385826766
20
-3.6686239763779525
11
5.3340634251968506
21
-3.6775559448818895
0
LINE
8
BLACK
6
CONTINUOUS
10
5.3340634251968506
20
-3.6775559448818895
11
5.3287287795275589
21
-3.6857212204724408
0
LINE
8
BLACK
6
CONTINUOUS
10
5.3287287795275589
20
-3.6857212204724408
11
5.3221229133858268
21
-3.692897086614173
0
LINE
8
BLACK
6
CONTINUOUS
10
5.3221229133858268
20
-3.692897086614173
11
5.3144260629921263
21
-3.6988877952755903
0
LINE
8
BLACK
6
CONTINUOUS
10
5.3144260629921263
20
-3.6988877952755903
11
5.305848149606299
21
-3.7035299212598423
0
LINE
8
BLACK
6
CONTINUOUS
10
5.305848149606299
20
-3.7035299212598423
11
5.2966231496062992
21
-3.7066968503937008
0
LINE
8
BLACK
6
CONTINUOUS
10
5.2966231496062992
20
-3.7066968503937008
11
5.287002716535433
21
-3.7083022440944879
0
LINE
8
BLACK
6
CONTINUOUS
10
5.287002716535433
20
-3.7083022440944879
11
5.2772492519685041
21
-3.7083022440944879
0
LINE
8
BLACK
6
CONTINUOUS
10
5.2772492519685041
20
-3.7083022440944879
11
5.2676288188976379
21
-3.7066968503937008
0
LINE
8
BLACK
6
CONTINUOUS
10
5.2676288188976379
20
-3.7066968503937008
11
5.2584038188976381
21
-3.7035299212598423
0
LINE
8
BLACK
6
CONTINUOUS
10
5.2584038188976381
20
-3.7035299212598423
11
5.2498259055118108
21
-3.6988877952755903
0
LINE
8
BLACK
6
CONTINUOUS
10
5.2498259055118108
20
-3.6988877952755903
11
5.2421290551181103
21
-3.692897086614173
0
LINE
8
BLACK
6
CONTINUOUS
10
5.2421290551181103
20
-3.692897086614173
11
5.2355231889763783
21
-3.6857212204724408
0
LINE
8
BLACK
6
CONTINUOUS
10
5.2355231889763783
20
-3.6857212204724408
11
5.2301885433070865
21
-3.6775559448818895
0
LINE
8
BLACK
6
CONTINUOUS
10
5.2301885433070865
20
-3.6775559448818895
11
5.2262706299212596
21
-3.6686239763779525
0
LINE
8
BLACK
6
CONTINUOUS
10
5.2262706299212596
20
-3.6686239763779525
11
5.2238762992125984
21
-3.6591689763779525
0
LINE
8
BLACK
6
CONTINUOUS
10
5.2238762992125984
20
-3.6591689763779525
11
5.2230708661417324
21
-3.6494488188976377
0
LINE
8
BLACK
6
CONTINUOUS
10
5.2230708661417324
20
-3.6494488188976377
11
5.2238762992125984
21
-3.6397286614173225
0
LINE
8
BLACK
6
CONTINUOUS
10
5.2238762992125984
20
-3.6397286614173225
11
5.2262706299212596
21
-3.6302736614173226
0
LINE
8
BLACK
6
CONTINUOUS
10
5.2262706299212596
20
-3.6302736614173226
11
5.2301885433070865
21
-3.6213416929133859
0
LINE
8
BLACK
6
CONTINUOUS
10
5.2301885433070865
20
-3.6213416929133859
11
5.2355231889763783
21
-3.6131764173228347
0
LINE
8
BLACK
6
CONTINUOUS
10
5.2355231889763783
20
-3.6131764173228347
11
5.2421290551181103
21
-3.6060005511811024
0
LINE
8
BLACK
6
CONTINUOUS
10
5.2421290551181103
20
-3.6060005511811024
11
5.2498259055118108
21
-3.6000098425196851
0
LINE
8
BLACK
6
CONTINUOUS
10
5.2498259055118108
20
-3.6000098425196851
11
5.2584038188976381
21
-3.5953677165354332
0
LINE
8
BLACK
6
CONTINUOUS
10
5.2584038188976381
20
-3.5953677165354332
11
5.2676288188976379
21
-3.5922007874015747
0
LINE
8
BLACK
6
CONTINUOUS
10
5.2676288188976379
20
-3.5922007874015747
11
5.2772492519685041
21
-3.5905953937007875
0
LINE
8
BLACK
6
CONTINUOUS
10
5.2772492519685041
20
-3.5905953937007875
11
5.287002716535433
21
-3.5905953937007875
0
LINE
8
BLACK
6
CONTINUOUS
10
5.287002716535433
20
-3.5905953937007875
11
5.2966231496062992
21
-3.5922007874015747
  0
ENDSEC
  0
EOF
