  0
SECTION
  2
HEADER
  9
$ANGBASE
  50
0.0
  9
$ANGDIR
  70
1
  9
$MEASUREMENT
  70
0
  0
ENDSEC
  0
SECTION
  2
TABLES
  0
TABLE
  2
LTYPE
  70
4
  0
LTYPE
  5
40F
  2
CONTINUOUS
  70
0
  3
Solid line
  72
65
  73
0
  40
0.0
  0
LTYPE
  5
410
  2
DASHDOT
 70
0
  3
Dash Dot ____ _ ____ _
 72
65
 73
4
 40
2.0
 49
1.25
 49
-0.25
 49
0.25
 49
-0.25
  0
LTYPE
  5
411
  2
DASHED
 70
0
  3
Dashed __ __ __ __ __
 72
65
 73
2
 40
0.75
 49
0.5
 49
-0.25
  0
LTYPE
  5
43B
  2
DOTTED
 70
0
  3
Dotted .  .  .  .
 72
65
 73
2
 40
0.2
 49
0.0
 49
-0.2
  0
ENDTAB
  0
TABLE
  2
STYLE
  70
4
  0
STYLE
  2
KICAD
  70
0
  40
0
  41
1
  42
1
  50
0
  71
0
  3
isocp.shx
  0
STYLE
  2
KICADB
  70
0
  40
0
  41
1
  42
1
  50
0
  71
0
  3
isocp.shx
  0
STYLE
  2
KICADI
  70
0
  40
0
  41
1
  42
1
  50
15
  71
0
  3
isocp.shx
  0
STYLE
  2
KICADBI
  70
0
  40
0
  41
1
  42
1
  50
15
  71
0
  3
isocp.shx
  0
ENDTAB
  0
TABLE
  2
LAYER
  70
1
  0
LAYER
  2
BLACK
  70
0
  62
7
  6
CONTINUOUS
  0
ENDTAB
  0
ENDSEC
  0
SECTION
  2
ENTITIES
0
LINE
8
BLACK
6
CONTINUOUS
10
5.050551181102362
20
-4.0698031496062992
11
5.0512471653543303
21
-4.0700914173228346
0
LINE
8
BLACK
6
CONTINUOUS
10
5.0512471653543303
20
-4.0700914173228346
11
5.0515354330708657
21
-4.0707874015748029
0
LINE
8
BLACK
6
CONTINUOUS
10
5.0515354330708657
20
-4.0707874015748029
11
5.0515354330708657
21
-4.1692125984251964
0
LINE
8
BLACK
6
CONTINUOUS
10
5.0515354330708657
20
-4.1692125984251964
11
5.0512471653543303
21
-4.1699085826771656
0
LINE
8
BLACK
6
CONTINUOUS
10
5.0512471653543303
20
-4.1699085826771656
11
5.050551181102362
21
-4.170196850393701
0
LINE
8
BLACK
6
CONTINUOUS
10
5.050551181102362
20
-4.170196850393701
11
4.8694488188976379
21
-4.170196850393701
0
LINE
8
BLACK
6
CONTINUOUS
10
4.8694488188976379
20
-4.170196850393701
11
4.8687528346456688
21
-4.1699085826771656
0
LINE
8
BLACK
6
CONTINUOUS
10
4.8687528346456688
20
-4.1699085826771656
11
4.8684645669291333
21
-4.1692125984251964
0
LINE
8
BLACK
6
CONTINUOUS
10
4.8684645669291333
20
-4.1692125984251964
11
4.8684645669291333
21
-4.0707874015748029
0
LINE
8
BLACK
6
CONTINUOUS
10
4.8684645669291333
20
-4.0707874015748029
11
4.8687528346456688
21
-4.0700914173228346
0
LINE
8
BLACK
6
CONTINUOUS
10
4.8687528346456688
20
-4.0700914173228346
11
4.8694488188976379
21
-4.0698031496062992
0
LINE
8
BLACK
6
CONTINUOUS
10
4.8694488188976379
20
-4.0698031496062992
11
5.050551181102362
21
-4.0698031496062992
0
LINE
8
BLACK
6
CONTINUOUS
10
4.8704330708661416
20
-4.0717716535433066
11
4.8704330708661416
21
-4.1682283464566927
0
LINE
8
BLACK
6
CONTINUOUS
10
4.8704330708661416
20
-4.1682283464566927
11
5.0495669291338583
21
-4.1682283464566927
0
LINE
8
BLACK
6
CONTINUOUS
10
5.0495669291338583
20
-4.1682283464566927
11
5.0495669291338583
21
-4.0717716535433066
0
LINE
8
BLACK
6
CONTINUOUS
10
5.0495669291338583
20
-4.0717716535433066
11
4.8704330708661416
21
-4.0717716535433066
0
LINE
8
BLACK
6
CONTINUOUS
10
5.519212598425197
20
-3.6684645669291336
11
5.5199085826771652
21
-3.668752834645669
0
LINE
8
BLACK
6
CONTINUOUS
10
5.5199085826771652
20
-3.668752834645669
11
5.5201968503937007
21
-3.6694488188976377
0
LINE
8
BLACK
6
CONTINUOUS
10
5.5201968503937007
20
-3.6694488188976377
11
5.5201968503937007
21
-3.8505511811023623
0
LINE
8
BLACK
6
CONTINUOUS
10
5.5201968503937007
20
-3.8505511811023623
11
5.5199085826771652
21
-3.8512471653543305
0
LINE
8
BLACK
6
CONTINUOUS
10
5.5199085826771652
20
-3.8512471653543305
11
5.519212598425197
21
-3.851535433070866
0
LINE
8
BLACK
6
CONTINUOUS
10
5.519212598425197
20
-3.851535433070866
11
5.4207874015748034
21
-3.851535433070866
0
LINE
8
BLACK
6
CONTINUOUS
10
5.4207874015748034
20
-3.851535433070866
11
5.4200914173228343
21
-3.8512471653543305
0
LINE
8
BLACK
6
CONTINUOUS
10
5.4200914173228343
20
-3.8512471653543305
11
5.4198031496062988
21
-3.8505511811023623
0
LINE
8
BLACK
6
CONTINUOUS
10
5.4198031496062988
20
-3.8505511811023623
11
5.4198031496062988
21
-3.6694488188976377
0
LINE
8
BLACK
6
CONTINUOUS
10
5.4198031496062988
20
-3.6694488188976377
11
5.4200914173228343
21
-3.668752834645669
0
LINE
8
BLACK
6
CONTINUOUS
10
5.4200914173228343
20
-3.668752834645669
11
5.4207874015748034
21
-3.6684645669291336
0
LINE
8
BLACK
6
CONTINUOUS
10
5.4207874015748034
20
-3.6684645669291336
11
5.519212598425197
21
-3.6684645669291336
0
LINE
8
BLACK
6
CONTINUOUS
10
5.4217716535433071
20
-3.6704330708661415
11
5.4217716535433071
21
-3.8495669291338581
0
LINE
8
BLACK
6
CONTINUOUS
10
5.4217716535433071
20
-3.8495669291338581
11
5.5182283464566924
21
-3.8495669291338581
0
LINE
8
BLACK
6
CONTINUOUS
10
5.5182283464566924
20
-3.8495669291338581
11
5.5182283464566924
21
-3.6704330708661415
0
LINE
8
BLACK
6
CONTINUOUS
10
5.5182283464566924
20
-3.6704330708661415
11
5.4217716535433071
21
-3.6704330708661415
  0
ENDSEC
  0
EOF
