  0
SECTION
  2
HEADER
  9
$ANGBASE
  50
0.0
  9
$ANGDIR
  70
1
  9
$MEASUREMENT
  70
0
  0
ENDSEC
  0
SECTION
  2
TABLES
  0
TABLE
  2
LTYPE
  70
4
  0
LTYPE
  5
40F
  2
CONTINUOUS
  70
0
  3
Solid line
  72
65
  73
0
  40
0.0
  0
LTYPE
  5
410
  2
DASHDOT
 70
0
  3
Dash Dot ____ _ ____ _
 72
65
 73
4
 40
2.0
 49
1.25
 49
-0.25
 49
0.25
 49
-0.25
  0
LTYPE
  5
411
  2
DASHED
 70
0
  3
Dashed __ __ __ __ __
 72
65
 73
2
 40
0.75
 49
0.5
 49
-0.25
  0
LTYPE
  5
43B
  2
DOTTED
 70
0
  3
Dotted .  .  .  .
 72
65
 73
2
 40
0.2
 49
0.0
 49
-0.2
  0
ENDTAB
  0
TABLE
  2
STYLE
  70
4
  0
STYLE
  2
KICAD
  70
0
  40
0
  41
1
  42
1
  50
0
  71
0
  3
isocp.shx
  0
STYLE
  2
KICADB
  70
0
  40
0
  41
1
  42
1
  50
0
  71
0
  3
isocp.shx
  0
STYLE
  2
KICADI
  70
0
  40
0
  41
1
  42
1
  50
15
  71
0
  3
isocp.shx
  0
STYLE
  2
KICADBI
  70
0
  40
0
  41
1
  42
1
  50
15
  71
0
  3
isocp.shx
  0
ENDTAB
  0
TABLE
  2
LAYER
  70
1
  0
LAYER
  2
BLACK
  70
0
  62
7
  6
CONTINUOUS
  0
ENDTAB
  0
ENDSEC
  0
SECTION
  2
ENTITIES
0
LINE
8
BLACK
6
CONTINUOUS
10
5.6399999999999997
20
-4.2190551181102363
11
5.6714960629921256
21
-4.2190551181102363
0
LINE
8
BLACK
6
CONTINUOUS
10
5.6714960629921256
20
-4.2190551181102363
11
5.6731663779527555
21
-4.219747007874016
0
LINE
8
BLACK
6
CONTINUOUS
10
5.6731663779527555
20
-4.219747007874016
11
5.6738582677165352
21
-4.2214173228346459
0
LINE
8
BLACK
6
CONTINUOUS
10
5.6738582677165352
20
-4.2214173228346459
11
5.6731663779527555
21
-4.2230876377952757
0
LINE
8
BLACK
6
CONTINUOUS
10
5.6731663779527555
20
-4.2230876377952757
11
5.6714960629921256
21
-4.2237795275590546
0
LINE
8
BLACK
6
CONTINUOUS
10
5.6714960629921256
20
-4.2237795275590546
11
5.6399999999999997
21
-4.2237795275590546
0
LINE
8
BLACK
6
CONTINUOUS
10
5.6399999999999997
20
-4.2237795275590546
11
5.6085039370078738
21
-4.2237795275590546
0
LINE
8
BLACK
6
CONTINUOUS
10
5.6085039370078738
20
-4.2237795275590546
11
5.6068336220472439
21
-4.2230876377952757
0
LINE
8
BLACK
6
CONTINUOUS
10
5.6068336220472439
20
-4.2230876377952757
11
5.6061417322834641
21
-4.2214173228346459
0
LINE
8
BLACK
6
CONTINUOUS
10
5.6061417322834641
20
-4.2214173228346459
11
5.6068336220472439
21
-4.219747007874016
0
LINE
8
BLACK
6
CONTINUOUS
10
5.6068336220472439
20
-4.219747007874016
11
5.6085039370078738
21
-4.2190551181102363
0
LINE
8
BLACK
6
CONTINUOUS
10
5.6085039370078738
20
-4.2190551181102363
11
5.6399999999999997
21
-4.2190551181102363
0
LINE
8
BLACK
6
CONTINUOUS
10
5.7384970866141733
20
-4.1720841732283462
11
5.7391889763779522
21
-4.1737544881889761
0
LINE
8
BLACK
6
CONTINUOUS
10
5.7391889763779522
20
-4.1737544881889761
11
5.7391889763779522
21
-4.1822455118110238
0
LINE
8
BLACK
6
CONTINUOUS
10
5.7391889763779522
20
-4.1822455118110238
11
5.7384970866141733
21
-4.1839158267716536
0
LINE
8
BLACK
6
CONTINUOUS
10
5.7384970866141733
20
-4.1839158267716536
11
5.7368267716535435
21
-4.1846077165354334
0
LINE
8
BLACK
6
CONTINUOUS
10
5.7368267716535435
20
-4.1846077165354334
11
5.7351564566929136
21
-4.1839158267716536
0
LINE
8
BLACK
6
CONTINUOUS
10
5.7351564566929136
20
-4.1839158267716536
11
5.7344645669291339
21
-4.1822455118110238
0
LINE
8
BLACK
6
CONTINUOUS
10
5.7344645669291339
20
-4.1822455118110238
11
5.7344645669291339
21
-4.1737544881889761
0
LINE
8
BLACK
6
CONTINUOUS
10
5.7344645669291339
20
-4.1737544881889761
11
5.7351564566929136
21
-4.1720841732283462
0
LINE
8
BLACK
6
CONTINUOUS
10
5.7351564566929136
20
-4.1720841732283462
11
5.7368267716535435
21
-4.1713922834645665
0
LINE
8
BLACK
6
CONTINUOUS
10
5.7368267716535435
20
-4.1713922834645665
11
5.7384970866141733
21
-4.1720841732283462
0
LINE
8
BLACK
6
CONTINUOUS
10
5.7668435433070862
20
-4.1720841732283462
11
5.7675354330708659
21
-4.1737544881889761
0
LINE
8
BLACK
6
CONTINUOUS
10
5.7675354330708659
20
-4.1737544881889761
11
5.7675354330708659
21
-4.1822455118110238
0
LINE
8
BLACK
6
CONTINUOUS
10
5.7675354330708659
20
-4.1822455118110238
11
5.7668435433070862
21
-4.1839158267716536
0
LINE
8
BLACK
6
CONTINUOUS
10
5.7668435433070862
20
-4.1839158267716536
11
5.7651732283464563
21
-4.1846077165354334
0
LINE
8
BLACK
6
CONTINUOUS
10
5.7651732283464563
20
-4.1846077165354334
11
5.7635029133858264
21
-4.1839158267716536
0
LINE
8
BLACK
6
CONTINUOUS
10
5.7635029133858264
20
-4.1839158267716536
11
5.7628110236220467
21
-4.1822455118110238
0
LINE
8
BLACK
6
CONTINUOUS
10
5.7628110236220467
20
-4.1822455118110238
11
5.7628110236220467
21
-4.1737544881889761
0
LINE
8
BLACK
6
CONTINUOUS
10
5.7628110236220467
20
-4.1737544881889761
11
5.7635029133858264
21
-4.1720841732283462
0
LINE
8
BLACK
6
CONTINUOUS
10
5.7635029133858264
20
-4.1720841732283462
11
5.7651732283464563
21
-4.1713922834645665
0
LINE
8
BLACK
6
CONTINUOUS
10
5.7651732283464563
20
-4.1713922834645665
11
5.7668435433070862
21
-4.1720841732283462
0
LINE
8
BLACK
6
CONTINUOUS
10
5.7824970866141729
20
-4.1720841732283462
11
5.7831889763779527
21
-4.1737544881889761
0
LINE
8
BLACK
6
CONTINUOUS
10
5.7831889763779527
20
-4.1737544881889761
11
5.7831889763779527
21
-4.1822455118110238
0
LINE
8
BLACK
6
CONTINUOUS
10
5.7831889763779527
20
-4.1822455118110238
11
5.7824970866141729
21
-4.1839158267716536
0
LINE
8
BLACK
6
CONTINUOUS
10
5.7824970866141729
20
-4.1839158267716536
11
5.7808267716535431
21
-4.1846077165354334
0
LINE
8
BLACK
6
CONTINUOUS
10
5.7808267716535431
20
-4.1846077165354334
11
5.7791564566929132
21
-4.1839158267716536
0
LINE
8
BLACK
6
CONTINUOUS
10
5.7791564566929132
20
-4.1839158267716536
11
5.7784645669291335
21
-4.1822455118110238
0
LINE
8
BLACK
6
CONTINUOUS
10
5.7784645669291335
20
-4.1822455118110238
11
5.7784645669291335
21
-4.1737544881889761
0
LINE
8
BLACK
6
CONTINUOUS
10
5.7784645669291335
20
-4.1737544881889761
11
5.7791564566929132
21
-4.1720841732283462
0
LINE
8
BLACK
6
CONTINUOUS
10
5.7791564566929132
20
-4.1720841732283462
11
5.7808267716535431
21
-4.1713922834645665
0
LINE
8
BLACK
6
CONTINUOUS
10
5.7808267716535431
20
-4.1713922834645665
11
5.7824970866141729
21
-4.1720841732283462
0
LINE
8
BLACK
6
CONTINUOUS
10
5.8108435433070866
20
-4.1720841732283462
11
5.8115354330708664
21
-4.1737544881889761
0
LINE
8
BLACK
6
CONTINUOUS
10
5.8115354330708664
20
-4.1737544881889761
11
5.8115354330708664
21
-4.1822455118110238
0
LINE
8
BLACK
6
CONTINUOUS
10
5.8115354330708664
20
-4.1822455118110238
11
5.8108435433070866
21
-4.1839158267716536
0
LINE
8
BLACK
6
CONTINUOUS
10
5.8108435433070866
20
-4.1839158267716536
11
5.8091732283464568
21
-4.1846077165354334
0
LINE
8
BLACK
6
CONTINUOUS
10
5.8091732283464568
20
-4.1846077165354334
11
5.8075029133858269
21
-4.1839158267716536
0
LINE
8
BLACK
6
CONTINUOUS
10
5.8075029133858269
20
-4.1839158267716536
11
5.8068110236220472
21
-4.1822455118110238
0
LINE
8
BLACK
6
CONTINUOUS
10
5.8068110236220472
20
-4.1822455118110238
11
5.8068110236220472
21
-4.1737544881889761
0
LINE
8
BLACK
6
CONTINUOUS
10
5.8068110236220472
20
-4.1737544881889761
11
5.8075029133858269
21
-4.1720841732283462
0
LINE
8
BLACK
6
CONTINUOUS
10
5.8075029133858269
20
-4.1720841732283462
11
5.8091732283464568
21
-4.1713922834645665
0
LINE
8
BLACK
6
CONTINUOUS
10
5.8091732283464568
20
-4.1713922834645665
11
5.8108435433070866
21
-4.1720841732283462
0
LINE
8
BLACK
6
CONTINUOUS
10
4.9867096850393704
20
-4.1622808267716538
11
4.9874015748031493
21
-4.1639511417322836
0
LINE
8
BLACK
6
CONTINUOUS
10
4.9874015748031493
20
-4.1639511417322836
11
4.9874015748031493
21
-4.1760488582677162
0
LINE
8
BLACK
6
CONTINUOUS
10
4.9874015748031493
20
-4.1760488582677162
11
4.9867096850393704
21
-4.1777191732283461
0
LINE
8
BLACK
6
CONTINUOUS
10
4.9867096850393704
20
-4.1777191732283461
11
4.9850393700787397
21
-4.1784110629921258
0
LINE
8
BLACK
6
CONTINUOUS
10
4.9850393700787397
20
-4.1784110629921258
11
4.9833690551181098
21
-4.1777191732283461
0
LINE
8
BLACK
6
CONTINUOUS
10
4.9833690551181098
20
-4.1777191732283461
11
4.9826771653543309
21
-4.1760488582677162
0
LINE
8
BLACK
6
CONTINUOUS
10
4.9826771653543309
20
-4.1760488582677162
11
4.9826771653543309
21
-4.1639511417322836
0
LINE
8
BLACK
6
CONTINUOUS
10
4.9826771653543309
20
-4.1639511417322836
11
4.9833690551181098
21
-4.1622808267716538
0
LINE
8
BLACK
6
CONTINUOUS
10
4.9833690551181098
20
-4.1622808267716538
11
4.9850393700787397
21
-4.161588937007874
0
LINE
8
BLACK
6
CONTINUOUS
10
4.9850393700787397
20
-4.161588937007874
11
4.9867096850393704
21
-4.1622808267716538
0
LINE
8
BLACK
6
CONTINUOUS
10
5.0166309448818893
20
-4.1622808267716538
11
5.0173228346456691
21
-4.1639511417322836
0
LINE
8
BLACK
6
CONTINUOUS
10
5.0173228346456691
20
-4.1639511417322836
11
5.0173228346456691
21
-4.1760488582677162
0
LINE
8
BLACK
6
CONTINUOUS
10
5.0173228346456691
20
-4.1760488582677162
11
5.0166309448818893
21
-4.1777191732283461
0
LINE
8
BLACK
6
CONTINUOUS
10
5.0166309448818893
20
-4.1777191732283461
11
5.0149606299212595
21
-4.1784110629921258
0
LINE
8
BLACK
6
CONTINUOUS
10
5.0149606299212595
20
-4.1784110629921258
11
5.0132903149606296
21
-4.1777191732283461
0
LINE
8
BLACK
6
CONTINUOUS
10
5.0132903149606296
20
-4.1777191732283461
11
5.0125984251968498
21
-4.1760488582677162
0
LINE
8
BLACK
6
CONTINUOUS
10
5.0125984251968498
20
-4.1760488582677162
11
5.0125984251968498
21
-4.1639511417322836
0
LINE
8
BLACK
6
CONTINUOUS
10
5.0125984251968498
20
-4.1639511417322836
11
5.0132903149606296
21
-4.1622808267716538
0
LINE
8
BLACK
6
CONTINUOUS
10
5.0132903149606296
20
-4.1622808267716538
11
5.0149606299212595
21
-4.161588937007874
0
LINE
8
BLACK
6
CONTINUOUS
10
5.0149606299212595
20
-4.161588937007874
11
5.0166309448818893
21
-4.1622808267716538
0
LINE
8
BLACK
6
CONTINUOUS
10
5.3312383070866138
20
-4.1551886220472438
11
5.3319291338582673
21
-4.1570866141732283
0
LINE
8
BLACK
6
CONTINUOUS
10
5.3319291338582673
20
-4.1570866141732283
11
5.3319291338582673
21
-4.1639763779527561
0
LINE
8
BLACK
6
CONTINUOUS
10
5.3319291338582673
20
-4.1639763779527561
11
5.3318614960629924
21
-4.164359881889764
0
LINE
8
BLACK
6
CONTINUOUS
10
5.3318614960629924
20
-4.164359881889764
11
5.3318842913385822
21
-4.1644891338582672
0
LINE
8
BLACK
6
CONTINUOUS
10
5.3318842913385822
20
-4.1644891338582672
11
5.3318186614173229
21
-4.1646027165354331
0
LINE
8
BLACK
6
CONTINUOUS
10
5.3318186614173229
20
-4.1646027165354331
11
5.3317510629921259
21
-4.1649862992125986
0
LINE
8
BLACK
6
CONTINUOUS
10
5.3317510629921259
20
-4.1649862992125986
11
5.3312579133858264
21
-4.1655739763779529
0
LINE
8
BLACK
6
CONTINUOUS
10
5.3312579133858264
20
-4.1655739763779529
11
5.3308743700787398
21
-4.1662383070866138
0
LINE
8
BLACK
6
CONTINUOUS
10
5.3308743700787398
20
-4.1662383070866138
11
5.3306240157480316
21
-4.166329409448819
0
LINE
8
BLACK
6
CONTINUOUS
10
5.3306240157480316
20
-4.166329409448819
11
5.3304527559055117
21
-4.1665335433070867
0
LINE
8
BLACK
6
CONTINUOUS
10
5.3304527559055117
20
-4.1665335433070867
11
5.3296971653543306
21
-4.166666771653543
0
LINE
8
BLACK
6
CONTINUOUS
10
5.3296971653543306
20
-4.166666771653543
11
5.3289763779527561
21
-4.1669291338582672
0
LINE
8
BLACK
6
CONTINUOUS
10
5.3289763779527561
20
-4.1669291338582672
11
5.2010236220472441
21
-4.1669291338582672
0
LINE
8
BLACK
6
CONTINUOUS
10
5.2010236220472441
20
-4.1669291338582672
11
5.2006400787401574
21
-4.1668614960629924
0
LINE
8
BLACK
6
CONTINUOUS
10
5.2006400787401574
20
-4.1668614960629924
11
5.2005108661417321
21
-4.1668842913385822
0
LINE
8
BLACK
6
CONTINUOUS
10
5.2005108661417321
20
-4.1668842913385822
11
5.2003972440944883
21
-4.1668186614173228
0
LINE
8
BLACK
6
CONTINUOUS
10
5.2003972440944883
20
-4.1668186614173228
11
5.2000137007874017
21
-4.1667510629921258
0
LINE
8
BLACK
6
CONTINUOUS
10
5.2000137007874017
20
-4.1667510629921258
11
5.1994259842519686
21
-4.1662579133858264
0
LINE
8
BLACK
6
CONTINUOUS
10
5.1994259842519686
20
-4.1662579133858264
11
5.1987616929133855
21
-4.1658743700787397
0
LINE
8
BLACK
6
CONTINUOUS
10
5.1987616929133855
20
-4.1658743700787397
11
5.1986705511811024
21
-4.1656240157480315
0
LINE
8
BLACK
6
CONTINUOUS
10
5.1986705511811024
20
-4.1656240157480315
11
5.1984664566929135
21
-4.1654527559055117
0
LINE
8
BLACK
6
CONTINUOUS
10
5.1984664566929135
20
-4.1654527559055117
11
5.1983331889763775
21
-4.1646971653543305
0
LINE
8
BLACK
6
CONTINUOUS
10
5.1983331889763775
20
-4.1646971653543305
11
5.1980708661417321
21
-4.1639763779527561
0
LINE
8
BLACK
6
CONTINUOUS
10
5.1980708661417321
20
-4.1639763779527561
11
5.1980708661417321
21
-4.1570866141732283
0
LINE
8
BLACK
6
CONTINUOUS
10
5.1980708661417321
20
-4.1570866141732283
11
5.1982489370078735
21
-4.1560766929133859
0
LINE
8
BLACK
6
CONTINUOUS
10
5.1982489370078735
20
-4.1560766929133859
11
5.1995472440944877
21
-4.1545294488188977
0
LINE
8
BLACK
6
CONTINUOUS
10
5.1995472440944877
20
-4.1545294488188977
11
5.2015363779527561
21
-4.1541787007874014
0
LINE
8
BLACK
6
CONTINUOUS
10
5.2015363779527561
20
-4.1541787007874014
11
5.2032855511811018
21
-4.1551886220472438
0
LINE
8
BLACK
6
CONTINUOUS
10
5.2032855511811018
20
-4.1551886220472438
11
5.2039763779527561
21
-4.1570866141732283
0
LINE
8
BLACK
6
CONTINUOUS
10
5.2039763779527561
20
-4.1570866141732283
11
5.2039763779527561
21
-4.1610236220472441
0
LINE
8
BLACK
6
CONTINUOUS
10
5.2039763779527561
20
-4.1610236220472441
11
5.3260236220472441
21
-4.1610236220472441
0
LINE
8
BLACK
6
CONTINUOUS
10
5.3260236220472441
20
-4.1610236220472441
11
5.3260236220472441
21
-4.1570866141732283
0
LINE
8
BLACK
6
CONTINUOUS
10
5.3260236220472441
20
-4.1570866141732283
11
5.3262016929133855
21
-4.1560766929133859
0
LINE
8
BLACK
6
CONTINUOUS
10
5.3262016929133855
20
-4.1560766929133859
11
5.3274999999999997
21
-4.1545294488188977
0
LINE
8
BLACK
6
CONTINUOUS
10
5.3274999999999997
20
-4.1545294488188977
11
5.3294891338582673
21
-4.1541787007874014
0
LINE
8
BLACK
6
CONTINUOUS
10
5.3294891338582673
20
-4.1541787007874014
11
5.3312383070866138
21
-4.1551886220472438
0
LINE
8
BLACK
6
CONTINUOUS
10
5.5074970866141735
20
-4.1440841732283467
11
5.5081889763779524
21
-4.1457544881889765
0
LINE
8
BLACK
6
CONTINUOUS
10
5.5081889763779524
20
-4.1457544881889765
11
5.5081889763779524
21
-4.1542455118110233
0
LINE
8
BLACK
6
CONTINUOUS
10
5.5081889763779524
20
-4.1542455118110233
11
5.5074970866141735
21
-4.1559158267716532
0
LINE
8
BLACK
6
CONTINUOUS
10
5.5074970866141735
20
-4.1559158267716532
11
5.5058267716535436
21
-4.1566077165354329
0
LINE
8
BLACK
6
CONTINUOUS
10
5.5058267716535436
20
-4.1566077165354329
11
5.5041564566929129
21
-4.1559158267716532
0
LINE
8
BLACK
6
CONTINUOUS
10
5.5041564566929129
20
-4.1559158267716532
11
5.503464566929134
21
-4.1542455118110233
0
LINE
8
BLACK
6
CONTINUOUS
10
5.503464566929134
20
-4.1542455118110233
11
5.503464566929134
21
-4.1457544881889765
0
LINE
8
BLACK
6
CONTINUOUS
10
5.503464566929134
20
-4.1457544881889765
11
5.5041564566929129
21
-4.1440841732283467
0
LINE
8
BLACK
6
CONTINUOUS
10
5.5041564566929129
20
-4.1440841732283467
11
5.5058267716535436
21
-4.1433922834645669
0
LINE
8
BLACK
6
CONTINUOUS
10
5.5058267716535436
20
-4.1433922834645669
11
5.5074970866141735
21
-4.1440841732283467
0
LINE
8
BLACK
6
CONTINUOUS
10
5.5358435433070863
20
-4.1440841732283467
11
5.536535433070866
21
-4.1457544881889765
0
LINE
8
BLACK
6
CONTINUOUS
10
5.536535433070866
20
-4.1457544881889765
11
5.536535433070866
21
-4.1542455118110233
0
LINE
8
BLACK
6
CONTINUOUS
10
5.536535433070866
20
-4.1542455118110233
11
5.5358435433070863
21
-4.1559158267716532
0
LINE
8
BLACK
6
CONTINUOUS
10
5.5358435433070863
20
-4.1559158267716532
11
5.5341732283464564
21
-4.1566077165354329
0
LINE
8
BLACK
6
CONTINUOUS
10
5.5341732283464564
20
-4.1566077165354329
11
5.5325029133858266
21
-4.1559158267716532
0
LINE
8
BLACK
6
CONTINUOUS
10
5.5325029133858266
20
-4.1559158267716532
11
5.5318110236220468
21
-4.1542455118110233
0
LINE
8
BLACK
6
CONTINUOUS
10
5.5318110236220468
20
-4.1542455118110233
11
5.5318110236220468
21
-4.1457544881889765
0
LINE
8
BLACK
6
CONTINUOUS
10
5.5318110236220468
20
-4.1457544881889765
11
5.5325029133858266
21
-4.1440841732283467
0
LINE
8
BLACK
6
CONTINUOUS
10
5.5325029133858266
20
-4.1440841732283467
11
5.5341732283464564
21
-4.1433922834645669
0
LINE
8
BLACK
6
CONTINUOUS
10
5.5341732283464564
20
-4.1433922834645669
11
5.5358435433070863
21
-4.1440841732283467
0
LINE
8
BLACK
6
CONTINUOUS
10
5.4427191732283466
20
-4.1432903149606295
11
5.4434110629921255
21
-4.1449606299212594
0
LINE
8
BLACK
6
CONTINUOUS
10
5.4434110629921255
20
-4.1449606299212594
11
5.4427191732283466
21
-4.1466309448818901
0
LINE
8
BLACK
6
CONTINUOUS
10
5.4427191732283466
20
-4.1466309448818901
11
5.4410488582677168
21
-4.147322834645669
0
LINE
8
BLACK
6
CONTINUOUS
10
5.4410488582677168
20
-4.147322834645669
11
5.4289511417322833
21
-4.147322834645669
0
LINE
8
BLACK
6
CONTINUOUS
10
5.4289511417322833
20
-4.147322834645669
11
5.4272808267716535
21
-4.1466309448818901
0
LINE
8
BLACK
6
CONTINUOUS
10
5.4272808267716535
20
-4.1466309448818901
11
5.4265889370078737
21
-4.1449606299212594
0
LINE
8
BLACK
6
CONTINUOUS
10
5.4265889370078737
20
-4.1449606299212594
11
5.4272808267716535
21
-4.1432903149606295
0
LINE
8
BLACK
6
CONTINUOUS
10
5.4272808267716535
20
-4.1432903149606295
11
5.4289511417322833
21
-4.1425984251968506
0
LINE
8
BLACK
6
CONTINUOUS
10
5.4289511417322833
20
-4.1425984251968506
11
5.4410488582677168
21
-4.1425984251968506
0
LINE
8
BLACK
6
CONTINUOUS
10
5.4410488582677168
20
-4.1425984251968506
11
5.4427191732283466
21
-4.1432903149606295
0
LINE
8
BLACK
6
CONTINUOUS
10
5.0417096850393701
20
-4.1123595669291335
11
5.0424015748031499
21
-4.1140298818897634
0
LINE
8
BLACK
6
CONTINUOUS
10
5.0424015748031499
20
-4.1140298818897634
11
5.0424015748031499
21
-4.1261275984251968
0
LINE
8
BLACK
6
CONTINUOUS
10
5.0424015748031499
20
-4.1261275984251968
11
5.0417096850393701
21
-4.1277979133858267
0
LINE
8
BLACK
6
CONTINUOUS
10
5.0417096850393701
20
-4.1277979133858267
11
5.0400393700787403
21
-4.1284898031496065
0
LINE
8
BLACK
6
CONTINUOUS
10
5.0400393700787403
20
-4.1284898031496065
11
5.0383690551181104
21
-4.1277979133858267
0
LINE
8
BLACK
6
CONTINUOUS
10
5.0383690551181104
20
-4.1277979133858267
11
5.0376771653543306
21
-4.1261275984251968
0
LINE
8
BLACK
6
CONTINUOUS
10
5.0376771653543306
20
-4.1261275984251968
11
5.0376771653543306
21
-4.1140298818897634
0
LINE
8
BLACK
6
CONTINUOUS
10
5.0376771653543306
20
-4.1140298818897634
11
5.0383690551181104
21
-4.1123595669291335
0
LINE
8
BLACK
6
CONTINUOUS
10
5.0383690551181104
20
-4.1123595669291335
11
5.0400393700787403
21
-4.1116676771653546
0
LINE
8
BLACK
6
CONTINUOUS
10
5.0400393700787403
20
-4.1116676771653546
11
5.0417096850393701
21
-4.1123595669291335
0
LINE
8
BLACK
6
CONTINUOUS
10
5.0716309448818899
20
-4.1123595669291335
11
5.0723228346456688
21
-4.1140298818897634
0
LINE
8
BLACK
6
CONTINUOUS
10
5.0723228346456688
20
-4.1140298818897634
11
5.0723228346456688
21
-4.1261275984251968
0
LINE
8
BLACK
6
CONTINUOUS
10
5.0723228346456688
20
-4.1261275984251968
11
5.0716309448818899
21
-4.1277979133858267
0
LINE
8
BLACK
6
CONTINUOUS
10
5.0716309448818899
20
-4.1277979133858267
11
5.0699606299212601
21
-4.1284898031496065
0
LINE
8
BLACK
6
CONTINUOUS
10
5.0699606299212601
20
-4.1284898031496065
11
5.0682903149606302
21
-4.1277979133858267
0
LINE
8
BLACK
6
CONTINUOUS
10
5.0682903149606302
20
-4.1277979133858267
11
5.0675984251968504
21
-4.1261275984251968
0
LINE
8
BLACK
6
CONTINUOUS
10
5.0675984251968504
20
-4.1261275984251968
11
5.0675984251968504
21
-4.1140298818897634
0
LINE
8
BLACK
6
CONTINUOUS
10
5.0675984251968504
20
-4.1140298818897634
11
5.0682903149606302
21
-4.1123595669291335
0
LINE
8
BLACK
6
CONTINUOUS
10
5.0682903149606302
20
-4.1123595669291335
11
5.0699606299212601
21
-4.1116676771653546
0
LINE
8
BLACK
6
CONTINUOUS
10
5.0699606299212601
20
-4.1116676771653546
11
5.0716309448818899
21
-4.1123595669291335
0
LINE
8
BLACK
6
CONTINUOUS
10
4.9909158267716531
20
-4.1175029133858265
11
4.9916077165354329
21
-4.1191732283464564
0
LINE
8
BLACK
6
CONTINUOUS
10
4.9916077165354329
20
-4.1191732283464564
11
4.9909158267716531
21
-4.1208435433070862
0
LINE
8
BLACK
6
CONTINUOUS
10
4.9909158267716531
20
-4.1208435433070862
11
4.9892455118110233
21
-4.121535433070866
0
LINE
8
BLACK
6
CONTINUOUS
10
4.9892455118110233
20
-4.121535433070866
11
4.9807544881889765
21
-4.121535433070866
0
LINE
8
BLACK
6
CONTINUOUS
10
4.9807544881889765
20
-4.121535433070866
11
4.9790841732283466
21
-4.1208435433070862
0
LINE
8
BLACK
6
CONTINUOUS
10
4.9790841732283466
20
-4.1208435433070862
11
4.9783922834645669
21
-4.1191732283464564
0
LINE
8
BLACK
6
CONTINUOUS
10
4.9783922834645669
20
-4.1191732283464564
11
4.9790841732283466
21
-4.1175029133858265
0
LINE
8
BLACK
6
CONTINUOUS
10
4.9790841732283466
20
-4.1175029133858265
11
4.9807544881889765
21
-4.1168110236220468
0
LINE
8
BLACK
6
CONTINUOUS
10
4.9807544881889765
20
-4.1168110236220468
11
4.9892455118110233
21
-4.1168110236220468
0
LINE
8
BLACK
6
CONTINUOUS
10
4.9892455118110233
20
-4.1168110236220468
11
4.9909158267716531
21
-4.1175029133858265
0
LINE
8
BLACK
6
CONTINUOUS
10
4.8417096850393699
20
-4.1022808267716533
11
4.8424015748031497
21
-4.1039511417322831
0
LINE
8
BLACK
6
CONTINUOUS
10
4.8424015748031497
20
-4.1039511417322831
11
4.8424015748031497
21
-4.1160488582677166
0
LINE
8
BLACK
6
CONTINUOUS
10
4.8424015748031497
20
-4.1160488582677166
11
4.8417096850393699
21
-4.1177191732283465
0
LINE
8
BLACK
6
CONTINUOUS
10
4.8417096850393699
20
-4.1177191732283465
11
4.8400393700787401
21
-4.1184110629921262
0
LINE
8
BLACK
6
CONTINUOUS
10
4.8400393700787401
20
-4.1184110629921262
11
4.8383690551181102
21
-4.1177191732283465
0
LINE
8
BLACK
6
CONTINUOUS
10
4.8383690551181102
20
-4.1177191732283465
11
4.8376771653543305
21
-4.1160488582677166
0
LINE
8
BLACK
6
CONTINUOUS
10
4.8376771653543305
20
-4.1160488582677166
11
4.8376771653543305
21
-4.1039511417322831
0
LINE
8
BLACK
6
CONTINUOUS
10
4.8376771653543305
20
-4.1039511417322831
11
4.8383690551181102
21
-4.1022808267716533
0
LINE
8
BLACK
6
CONTINUOUS
10
4.8383690551181102
20
-4.1022808267716533
11
4.8400393700787401
21
-4.1015889370078735
0
LINE
8
BLACK
6
CONTINUOUS
10
4.8400393700787401
20
-4.1015889370078735
11
4.8417096850393699
21
-4.1022808267716533
0
LINE
8
BLACK
6
CONTINUOUS
10
4.8716309448818897
20
-4.1022808267716533
11
4.8723228346456695
21
-4.1039511417322831
0
LINE
8
BLACK
6
CONTINUOUS
10
4.8723228346456695
20
-4.1039511417322831
11
4.8723228346456695
21
-4.1160488582677166
0
LINE
8
BLACK
6
CONTINUOUS
10
4.8723228346456695
20
-4.1160488582677166
11
4.8716309448818897
21
-4.1177191732283465
0
LINE
8
BLACK
6
CONTINUOUS
10
4.8716309448818897
20
-4.1177191732283465
11
4.8699606299212599
21
-4.1184110629921262
0
LINE
8
BLACK
6
CONTINUOUS
10
4.8699606299212599
20
-4.1184110629921262
11
4.86829031496063
21
-4.1177191732283465
0
LINE
8
BLACK
6
CONTINUOUS
10
4.86829031496063
20
-4.1177191732283465
11
4.8675984251968503
21
-4.1160488582677166
0
LINE
8
BLACK
6
CONTINUOUS
10
4.8675984251968503
20
-4.1160488582677166
11
4.8675984251968503
21
-4.1039511417322831
0
LINE
8
BLACK
6
CONTINUOUS
10
4.8675984251968503
20
-4.1039511417322831
11
4.86829031496063
21
-4.1022808267716533
0
LINE
8
BLACK
6
CONTINUOUS
10
4.86829031496063
20
-4.1022808267716533
11
4.8699606299212599
21
-4.1015889370078735
0
LINE
8
BLACK
6
CONTINUOUS
10
4.8699606299212599
20
-4.1015889370078735
11
4.8716309448818897
21
-4.1022808267716533
0
LINE
8
BLACK
6
CONTINUOUS
10
5.4427191732283466
20
-4.1133690551181106
11
5.4434110629921255
21
-4.1150393700787404
0
LINE
8
BLACK
6
CONTINUOUS
10
5.4434110629921255
20
-4.1150393700787404
11
5.4427191732283466
21
-4.1167096850393703
0
LINE
8
BLACK
6
CONTINUOUS
10
5.4427191732283466
20
-4.1167096850393703
11
5.4410488582677168
21
-4.1174015748031492
0
LINE
8
BLACK
6
CONTINUOUS
10
5.4410488582677168
20
-4.1174015748031492
11
5.4289511417322833
21
-4.1174015748031492
0
LINE
8
BLACK
6
CONTINUOUS
10
5.4289511417322833
20
-4.1174015748031492
11
5.4272808267716535
21
-4.1167096850393703
0
LINE
8
BLACK
6
CONTINUOUS
10
5.4272808267716535
20
-4.1167096850393703
11
5.4265889370078737
21
-4.1150393700787404
0
LINE
8
BLACK
6
CONTINUOUS
10
5.4265889370078737
20
-4.1150393700787404
11
5.4272808267716535
21
-4.1133690551181106
0
LINE
8
BLACK
6
CONTINUOUS
10
5.4272808267716535
20
-4.1133690551181106
11
5.4289511417322833
21
-4.1126771653543308
0
LINE
8
BLACK
6
CONTINUOUS
10
5.4289511417322833
20
-4.1126771653543308
11
5.4410488582677168
21
-4.1126771653543308
0
LINE
8
BLACK
6
CONTINUOUS
10
5.4410488582677168
20
-4.1126771653543308
11
5.4427191732283466
21
-4.1133690551181106
0
LINE
8
BLACK
6
CONTINUOUS
10
5.7873396062992128
20
-4.0389202362204726
11
5.7880314960629917
21
-4.0405905511811024
0
LINE
8
BLACK
6
CONTINUOUS
10
5.7880314960629917
20
-4.0405905511811024
11
5.7880314960629917
21
-4.1090944881889762
0
LINE
8
BLACK
6
CONTINUOUS
10
5.7880314960629917
20
-4.1090944881889762
11
5.8427559055118108
21
-4.1090944881889762
0
LINE
8
BLACK
6
CONTINUOUS
10
5.8427559055118108
20
-4.1090944881889762
11
5.8444262204724406
21
-4.1097863779527559
0
LINE
8
BLACK
6
CONTINUOUS
10
5.8444262204724406
20
-4.1097863779527559
11
5.8451181102362204
21
-4.1114566929133858
0
LINE
8
BLACK
6
CONTINUOUS
10
5.8451181102362204
20
-4.1114566929133858
11
5.8444262204724406
21
-4.1131270078740156
0
LINE
8
BLACK
6
CONTINUOUS
10
5.8444262204724406
20
-4.1131270078740156
11
5.8427559055118108
21
-4.1138188976377954
0
LINE
8
BLACK
6
CONTINUOUS
10
5.8427559055118108
20
-4.1138188976377954
11
5.785669291338583
21
-4.1138188976377954
0
LINE
8
BLACK
6
CONTINUOUS
10
5.785669291338583
20
-4.1138188976377954
11
5.7839989763779522
21
-4.1131270078740156
0
LINE
8
BLACK
6
CONTINUOUS
10
5.7839989763779522
20
-4.1131270078740156
11
5.7833070866141734
21
-4.1114566929133858
0
LINE
8
BLACK
6
CONTINUOUS
10
5.7833070866141734
20
-4.1114566929133858
11
5.7833070866141734
21
-4.0405905511811024
0
LINE
8
BLACK
6
CONTINUOUS
10
5.7833070866141734
20
-4.0405905511811024
11
5.7839989763779522
21
-4.0389202362204726
0
LINE
8
BLACK
6
CONTINUOUS
10
5.7839989763779522
20
-4.0389202362204726
11
5.785669291338583
21
-4.0382283464566928
0
LINE
8
BLACK
6
CONTINUOUS
10
5.785669291338583
20
-4.0382283464566928
11
5.7873396062992128
21
-4.0389202362204726
0
LINE
8
BLACK
6
CONTINUOUS
10
5.747535984251968
20
-4.0793779527559053
11
5.7486488188976379
21
-4.081063503937008
0
LINE
8
BLACK
6
CONTINUOUS
10
5.7486488188976379
20
-4.081063503937008
11
5.7484179133858264
21
-4.083070039370079
0
LINE
8
BLACK
6
CONTINUOUS
10
5.7484179133858264
20
-4.083070039370079
11
5.7465431496062989
21
-4.0868195669291341
0
LINE
8
BLACK
6
CONTINUOUS
10
5.7465431496062989
20
-4.0868195669291341
11
5.7460172047244091
21
-4.0875286220472438
0
LINE
8
BLACK
6
CONTINUOUS
10
5.7460172047244091
20
-4.0875286220472438
11
5.7459900393700787
21
-4.0875869685039365
0
LINE
8
BLACK
6
CONTINUOUS
10
5.7459900393700787
20
-4.0875869685039365
11
5.7435316535433065
21
-4.0900453543307087
0
LINE
8
BLACK
6
CONTINUOUS
10
5.7435316535433065
20
-4.0900453543307087
11
5.7709456299212594
21
-4.0900453543307087
0
LINE
8
BLACK
6
CONTINUOUS
10
5.7709456299212594
20
-4.0900453543307087
11
5.7709456299212594
21
-4.0817495275590554
0
LINE
8
BLACK
6
CONTINUOUS
10
5.7709456299212594
20
-4.0817495275590554
11
5.7711237007874017
21
-4.0807396062992121
0
LINE
8
BLACK
6
CONTINUOUS
10
5.7711237007874017
20
-4.0807396062992121
11
5.7724220078740158
21
-4.0791923622047239
0
LINE
8
BLACK
6
CONTINUOUS
10
5.7724220078740158
20
-4.0791923622047239
11
5.7744111417322834
21
-4.0788416141732284
0
LINE
8
BLACK
6
CONTINUOUS
10
5.7744111417322834
20
-4.0788416141732284
11
5.77616031496063
21
-4.0798515354330709
0
LINE
8
BLACK
6
CONTINUOUS
10
5.77616031496063
20
-4.0798515354330709
11
5.7768511417322834
21
-4.0817495275590554
0
LINE
8
BLACK
6
CONTINUOUS
10
5.7768511417322834
20
-4.0817495275590554
11
5.7768511417322834
21
-4.1042466929133861
0
LINE
8
BLACK
6
CONTINUOUS
10
5.7768511417322834
20
-4.1042466929133861
11
5.776673070866142
21
-4.1052566141732285
0
LINE
8
BLACK
6
CONTINUOUS
10
5.776673070866142
20
-4.1052566141732285
11
5.7753747637795279
21
-4.1068038582677167
0
LINE
8
BLACK
6
CONTINUOUS
10
5.7753747637795279
20
-4.1068038582677167
11
5.7733856299212594
21
-4.1071546062992121
0
LINE
8
BLACK
6
CONTINUOUS
10
5.7733856299212594
20
-4.1071546062992121
11
5.7716364566929137
21
-4.1061446850393697
0
LINE
8
BLACK
6
CONTINUOUS
10
5.7716364566929137
20
-4.1061446850393697
11
5.7709456299212594
21
-4.1042466929133861
0
LINE
8
BLACK
6
CONTINUOUS
10
5.7709456299212594
20
-4.1042466929133861
11
5.7709456299212594
21
-4.0959508661417319
0
LINE
8
BLACK
6
CONTINUOUS
10
5.7709456299212594
20
-4.0959508661417319
11
5.734528307086614
21
-4.0959508661417319
0
LINE
8
BLACK
6
CONTINUOUS
10
5.734528307086614
20
-4.0959508661417319
11
5.7335183858267715
21
-4.0957727952755905
0
LINE
8
BLACK
6
CONTINUOUS
10
5.7335183858267715
20
-4.0957727952755905
11
5.7333883070866136
21
-4.0956636614173227
0
LINE
8
BLACK
6
CONTINUOUS
10
5.7333883070866136
20
-4.0956636614173227
11
5.7332195669291339
21
-4.0956450000000002
0
LINE
8
BLACK
6
CONTINUOUS
10
5.7332195669291339
20
-4.0956450000000002
11
5.7326276377952752
21
-4.0950253543307085
0
LINE
8
BLACK
6
CONTINUOUS
10
5.7326276377952752
20
-4.0950253543307085
11
5.7319711417322834
21
-4.0944744881889763
0
LINE
8
BLACK
6
CONTINUOUS
10
5.7319711417322834
20
-4.0944744881889763
11
5.7319416535433065
21
-4.0943072440944883
0
LINE
8
BLACK
6
CONTINUOUS
10
5.7319416535433065
20
-4.0943072440944883
11
5.7318243700787397
21
-4.0941844881889766
0
LINE
8
BLACK
6
CONTINUOUS
10
5.7318243700787397
20
-4.0941844881889766
11
5.731769212598425
21
-4.0933293307086611
0
LINE
8
BLACK
6
CONTINUOUS
10
5.731769212598425
20
-4.0933293307086611
11
5.731620393700787
21
-4.0924853543307087
0
LINE
8
BLACK
6
CONTINUOUS
10
5.731620393700787
20
-4.0924853543307087
11
5.7317052755905511
21
-4.092338267716535
0
LINE
8
BLACK
6
CONTINUOUS
10
5.7317052755905511
20
-4.092338267716535
11
5.7316943700787402
21
-4.0921688976377952
0
LINE
8
BLACK
6
CONTINUOUS
10
5.7316943700787402
20
-4.0921688976377952
11
5.7322018110236215
21
-4.0914782677165356
0
LINE
8
BLACK
6
CONTINUOUS
10
5.7322018110236215
20
-4.0914782677165356
11
5.7326303149606295
21
-4.0907361811023621
0
LINE
8
BLACK
6
CONTINUOUS
10
5.7326303149606295
20
-4.0907361811023621
11
5.7327898031496058
21
-4.0906781102362206
0
LINE
8
BLACK
6
CONTINUOUS
10
5.7327898031496058
20
-4.0906781102362206
11
5.7328903937007869
21
-4.0905412598425199
0
LINE
8
BLACK
6
CONTINUOUS
10
5.7328903937007869
20
-4.0905412598425199
11
5.7382714173228342
21
-4.0869538976377955
0
LINE
8
BLACK
6
CONTINUOUS
10
5.7382714173228342
20
-4.0869538976377955
11
5.741475393700787
21
-4.0837499606299215
0
LINE
8
BLACK
6
CONTINUOUS
10
5.741475393700787
20
-4.0837499606299215
11
5.7431358661417322
21
-4.080429015748031
0
LINE
8
BLACK
6
CONTINUOUS
10
5.7431358661417322
20
-4.080429015748031
11
5.7437467716535435
21
-4.0796053543307087
0
LINE
8
BLACK
6
CONTINUOUS
10
5.7437467716535435
20
-4.0796053543307087
11
5.7455999606299208
21
-4.0788020866141732
0
LINE
8
BLACK
6
CONTINUOUS
10
5.7455999606299208
20
-4.0788020866141732
11
5.747535984251968
21
-4.0793779527559053
0
LINE
8
BLACK
6
CONTINUOUS
10
5.7013069291338585
20
-4.0854772834645665
11
5.7020192913385825
21
-4.0856486614173226
0
LINE
8
BLACK
6
CONTINUOUS
10
5.7020192913385825
20
-4.0856486614173226
11
5.7021207086614174
21
-4.0858143700787402
0
LINE
8
BLACK
6
CONTINUOUS
10
5.7021207086614174
20
-4.0858143700787402
11
5.7023002362204727
21
-4.0858887401574799
0
LINE
8
BLACK
6
CONTINUOUS
10
5.7023002362204727
20
-4.0858887401574799
11
5.7025806299212594
21
-4.0865657086614169
0
LINE
8
BLACK
6
CONTINUOUS
10
5.7025806299212594
20
-4.0865657086614169
11
5.7029631889763781
21
-4.0871906299212597
0
LINE
8
BLACK
6
CONTINUOUS
10
5.7029631889763781
20
-4.0871906299212597
11
5.702917716535433
21
-4.0873794881889767
0
LINE
8
BLACK
6
CONTINUOUS
10
5.702917716535433
20
-4.0873794881889767
11
5.7029921259842515
21
-4.0875590551181098
0
LINE
8
BLACK
6
CONTINUOUS
10
5.7029921259842515
20
-4.0875590551181098
11
5.7027116535433073
21
-4.0882360629921255
0
LINE
8
BLACK
6
CONTINUOUS
10
5.7027116535433073
20
-4.0882360629921255
11
5.70254031496063
21
-4.0889484251968504
0
LINE
8
BLACK
6
CONTINUOUS
10
5.70254031496063
20
-4.0889484251968504
11
5.6930914960629924
21
-4.1019405511811025
0
LINE
8
BLACK
6
CONTINUOUS
10
5.6930914960629924
20
-4.1019405511811025
11
5.692768307086614
21
-4.1021383858267715
0
LINE
8
BLACK
6
CONTINUOUS
10
5.692768307086614
20
-4.1021383858267715
11
5.6925704724409449
21
-4.1024615748031499
0
LINE
8
BLACK
6
CONTINUOUS
10
5.6925704724409449
20
-4.1024615748031499
11
5.6920265748031493
21
-4.1025924015748032
0
LINE
8
BLACK
6
CONTINUOUS
10
5.6920265748031493
20
-4.1025924015748032
11
5.6915495275590553
21
-4.1028844488188971
0
LINE
8
BLACK
6
CONTINUOUS
10
5.6915495275590553
20
-4.1028844488188971
11
5.6911811023622043
21
-4.1027957874015746
0
LINE
8
BLACK
6
CONTINUOUS
10
5.6911811023622043
20
-4.1027957874015746
11
5.6908126771653542
21
-4.1028844488188971
0
LINE
8
BLACK
6
CONTINUOUS
10
5.6908126771653542
20
-4.1028844488188971
11
5.6903355905511805
21
-4.1025924015748032
0
LINE
8
BLACK
6
CONTINUOUS
10
5.6903355905511805
20
-4.1025924015748032
11
5.6897917322834646
21
-4.1024615748031499
0
LINE
8
BLACK
6
CONTINUOUS
10
5.6897917322834646
20
-4.1024615748031499
11
5.6895938582677168
21
-4.1021383858267715
0
LINE
8
BLACK
6
CONTINUOUS
10
5.6895938582677168
20
-4.1021383858267715
11
5.6892707086614172
21
-4.1019405511811025
0
LINE
8
BLACK
6
CONTINUOUS
10
5.6892707086614172
20
-4.1019405511811025
11
5.6798218897637796
21
-4.0889484251968504
0
LINE
8
BLACK
6
CONTINUOUS
10
5.6798218897637796
20
-4.0889484251968504
11
5.6796505118110234
21
-4.0882360629921255
0
LINE
8
BLACK
6
CONTINUOUS
10
5.6796505118110234
20
-4.0882360629921255
11
5.6793700787401571
21
-4.0875590551181098
0
LINE
8
BLACK
6
CONTINUOUS
10
5.6793700787401571
20
-4.0875590551181098
11
5.6794444488188978
21
-4.0873794881889767
0
LINE
8
BLACK
6
CONTINUOUS
10
5.6794444488188978
20
-4.0873794881889767
11
5.6793990157480314
21
-4.0871906299212597
0
LINE
8
BLACK
6
CONTINUOUS
10
5.6793990157480314
20
-4.0871906299212597
11
5.6797815354330705
21
-4.0865657086614169
0
LINE
8
BLACK
6
CONTINUOUS
10
5.6797815354330705
20
-4.0865657086614169
11
5.6800619685039369
21
-4.0858887401574799
0
LINE
8
BLACK
6
CONTINUOUS
10
5.6800619685039369
20
-4.0858887401574799
11
5.6802414566929134
21
-4.0858143700787402
0
LINE
8
BLACK
6
CONTINUOUS
10
5.6802414566929134
20
-4.0858143700787402
11
5.680342913385827
21
-4.0856486614173226
0
LINE
8
BLACK
6
CONTINUOUS
10
5.680342913385827
20
-4.0856486614173226
11
5.6810552362204723
21
-4.0854772834645665
0
LINE
8
BLACK
6
CONTINUOUS
10
5.6810552362204723
20
-4.0854772834645665
11
5.6817322834645667
21
-4.0851968503937011
0
LINE
8
BLACK
6
CONTINUOUS
10
5.6817322834645667
20
-4.0851968503937011
11
5.7006299212598428
21
-4.0851968503937011
0
LINE
8
BLACK
6
CONTINUOUS
10
5.7006299212598428
20
-4.0851968503937011
11
5.7013069291338585
21
-4.0854772834645665
0
LINE
8
BLACK
6
CONTINUOUS
10
5.4427191732283466
20
-4.0982903149606296
11
5.4434110629921255
21
-4.0999606299212594
0
LINE
8
BLACK
6
CONTINUOUS
10
5.4434110629921255
20
-4.0999606299212594
11
5.4427191732283466
21
-4.1016309448818893
0
LINE
8
BLACK
6
CONTINUOUS
10
5.4427191732283466
20
-4.1016309448818893
11
5.4410488582677168
21
-4.102322834645669
0
LINE
8
BLACK
6
CONTINUOUS
10
5.4410488582677168
20
-4.102322834645669
11
5.4289511417322833
21
-4.102322834645669
0
LINE
8
BLACK
6
CONTINUOUS
10
5.4289511417322833
20
-4.102322834645669
11
5.4272808267716535
21
-4.1016309448818893
0
LINE
8
BLACK
6
CONTINUOUS
10
5.4272808267716535
20
-4.1016309448818893
11
5.4265889370078737
21
-4.0999606299212594
0
LINE
8
BLACK
6
CONTINUOUS
10
5.4265889370078737
20
-4.0999606299212594
11
5.4272808267716535
21
-4.0982903149606296
0
LINE
8
BLACK
6
CONTINUOUS
10
5.4272808267716535
20
-4.0982903149606296
11
5.4289511417322833
21
-4.0975984251968507
0
LINE
8
BLACK
6
CONTINUOUS
10
5.4289511417322833
20
-4.0975984251968507
11
5.4410488582677168
21
-4.0975984251968507
0
LINE
8
BLACK
6
CONTINUOUS
10
5.4410488582677168
20
-4.0975984251968507
11
5.4427191732283466
21
-4.0982903149606296
0
LINE
8
BLACK
6
CONTINUOUS
10
5.6399999999999997
20
-4.0962204724409448
11
5.6714960629921256
21
-4.0962204724409448
0
LINE
8
BLACK
6
CONTINUOUS
10
5.6714960629921256
20
-4.0962204724409448
11
5.6731663779527555
21
-4.0969123622047245
0
LINE
8
BLACK
6
CONTINUOUS
10
5.6731663779527555
20
-4.0969123622047245
11
5.6738582677165352
21
-4.0985826771653544
0
LINE
8
BLACK
6
CONTINUOUS
10
5.6738582677165352
20
-4.0985826771653544
11
5.6731663779527555
21
-4.1002529921259843
0
LINE
8
BLACK
6
CONTINUOUS
10
5.6731663779527555
20
-4.1002529921259843
11
5.6714960629921256
21
-4.100944881889764
0
LINE
8
BLACK
6
CONTINUOUS
10
5.6714960629921256
20
-4.100944881889764
11
5.6399999999999997
21
-4.100944881889764
0
LINE
8
BLACK
6
CONTINUOUS
10
5.6399999999999997
20
-4.100944881889764
11
5.6085039370078738
21
-4.100944881889764
0
LINE
8
BLACK
6
CONTINUOUS
10
5.6085039370078738
20
-4.100944881889764
11
5.6068336220472439
21
-4.1002529921259843
0
LINE
8
BLACK
6
CONTINUOUS
10
5.6068336220472439
20
-4.1002529921259843
11
5.6061417322834641
21
-4.0985826771653544
0
LINE
8
BLACK
6
CONTINUOUS
10
5.6061417322834641
20
-4.0985826771653544
11
5.6068336220472439
21
-4.0969123622047245
0
LINE
8
BLACK
6
CONTINUOUS
10
5.6068336220472439
20
-4.0969123622047245
11
5.6085039370078738
21
-4.0962204724409448
0
LINE
8
BLACK
6
CONTINUOUS
10
5.6085039370078738
20
-4.0962204724409448
11
5.6399999999999997
21
-4.0962204724409448
0
LINE
8
BLACK
6
CONTINUOUS
10
4.9909158267716531
20
-4.0891564566929137
11
4.9916077165354329
21
-4.0908267716535436
0
LINE
8
BLACK
6
CONTINUOUS
10
4.9916077165354329
20
-4.0908267716535436
11
4.9909158267716531
21
-4.0924970866141734
0
LINE
8
BLACK
6
CONTINUOUS
10
4.9909158267716531
20
-4.0924970866141734
11
4.9892455118110233
21
-4.0931889763779523
0
LINE
8
BLACK
6
CONTINUOUS
10
4.9892455118110233
20
-4.0931889763779523
11
4.9807544881889765
21
-4.0931889763779523
0
LINE
8
BLACK
6
CONTINUOUS
10
4.9807544881889765
20
-4.0931889763779523
11
4.9790841732283466
21
-4.0924970866141734
0
LINE
8
BLACK
6
CONTINUOUS
10
4.9790841732283466
20
-4.0924970866141734
11
4.9783922834645669
21
-4.0908267716535436
0
LINE
8
BLACK
6
CONTINUOUS
10
4.9783922834645669
20
-4.0908267716535436
11
4.9790841732283466
21
-4.0891564566929137
0
LINE
8
BLACK
6
CONTINUOUS
10
4.9790841732283466
20
-4.0891564566929137
11
4.9807544881889765
21
-4.088464566929134
0
LINE
8
BLACK
6
CONTINUOUS
10
4.9807544881889765
20
-4.088464566929134
11
4.9892455118110233
21
-4.088464566929134
0
LINE
8
BLACK
6
CONTINUOUS
10
4.9892455118110233
20
-4.088464566929134
11
4.9909158267716531
21
-4.0891564566929137
0
LINE
8
BLACK
6
CONTINUOUS
10
5.4427191732283466
20
-4.0683690551181098
11
5.4434110629921255
21
-4.0700393700787405
0
LINE
8
BLACK
6
CONTINUOUS
10
5.4434110629921255
20
-4.0700393700787405
11
5.4427191732283466
21
-4.0717096850393704
0
LINE
8
BLACK
6
CONTINUOUS
10
5.4427191732283466
20
-4.0717096850393704
11
5.4410488582677168
21
-4.0724015748031492
0
LINE
8
BLACK
6
CONTINUOUS
10
5.4410488582677168
20
-4.0724015748031492
11
5.4289511417322833
21
-4.0724015748031492
0
LINE
8
BLACK
6
CONTINUOUS
10
5.4289511417322833
20
-4.0724015748031492
11
5.4272808267716535
21
-4.0717096850393704
0
LINE
8
BLACK
6
CONTINUOUS
10
5.4272808267716535
20
-4.0717096850393704
11
5.4265889370078737
21
-4.0700393700787405
0
LINE
8
BLACK
6
CONTINUOUS
10
5.4265889370078737
20
-4.0700393700787405
11
5.4272808267716535
21
-4.0683690551181098
0
LINE
8
BLACK
6
CONTINUOUS
10
5.4272808267716535
20
-4.0683690551181098
11
5.4289511417322833
21
-4.0676771653543309
0
LINE
8
BLACK
6
CONTINUOUS
10
5.4289511417322833
20
-4.0676771653543309
11
5.4410488582677168
21
-4.0676771653543309
0
LINE
8
BLACK
6
CONTINUOUS
10
5.4410488582677168
20
-4.0676771653543309
11
5.4427191732283466
21
-4.0683690551181098
0
LINE
8
BLACK
6
CONTINUOUS
10
5.77616031496063
20
-4.0479805118110237
11
5.7768511417322834
21
-4.0498785039370082
0
LINE
8
BLACK
6
CONTINUOUS
10
5.7768511417322834
20
-4.0498785039370082
11
5.7768511417322834
21
-4.0536280314960633
0
LINE
8
BLACK
6
CONTINUOUS
10
5.7768511417322834
20
-4.0536280314960633
11
5.7766978346456694
21
-4.0544974015748032
0
LINE
8
BLACK
6
CONTINUOUS
10
5.7766978346456694
20
-4.0544974015748032
11
5.7766996062992124
21
-4.0545618110236221
0
LINE
8
BLACK
6
CONTINUOUS
10
5.7766996062992124
20
-4.0545618110236221
11
5.7748248425196849
21
-4.060186062992126
0
LINE
8
BLACK
6
CONTINUOUS
10
5.7748248425196849
20
-4.060186062992126
11
5.7743365354330711
21
-4.0610878346456696
0
LINE
8
BLACK
6
CONTINUOUS
10
5.7743365354330711
20
-4.0610878346456696
11
5.7741861417322831
21
-4.061180196850394
0
LINE
8
BLACK
6
CONTINUOUS
10
5.7741861417322831
20
-4.061180196850394
11
5.7741115354330708
21
-4.061340236220472
0
LINE
8
BLACK
6
CONTINUOUS
10
5.7741115354330708
20
-4.061340236220472
11
5.7703619685039369
21
-4.0650897637795271
0
LINE
8
BLACK
6
CONTINUOUS
10
5.7703619685039369
20
-4.0650897637795271
11
5.769521929133858
21
-4.065677992125984
0
LINE
8
BLACK
6
CONTINUOUS
10
5.769521929133858
20
-4.065677992125984
11
5.7693459842519683
21
-4.0656933464566931
0
LINE
8
BLACK
6
CONTINUOUS
10
5.7693459842519683
20
-4.0656933464566931
11
5.76920779527559
21
-4.0658030708661412
0
LINE
8
BLACK
6
CONTINUOUS
10
5.76920779527559
20
-4.0658030708661412
11
5.7635835039370074
21
-4.0676778346456688
0
LINE
8
BLACK
6
CONTINUOUS
10
5.7635835039370074
20
-4.0676778346456688
11
5.7627103149606294
21
-4.0678072834645667
0
LINE
8
BLACK
6
CONTINUOUS
10
5.7627103149606294
20
-4.0678072834645667
11
5.7626497637795273
21
-4.0678293700787398
0
LINE
8
BLACK
6
CONTINUOUS
10
5.7626497637795273
20
-4.0678293700787398
11
5.734528307086614
21
-4.0678293700787398
0
LINE
8
BLACK
6
CONTINUOUS
10
5.734528307086614
20
-4.0678293700787398
11
5.7335183858267715
21
-4.0676512992125984
0
LINE
8
BLACK
6
CONTINUOUS
10
5.7335183858267715
20
-4.0676512992125984
11
5.7319711417322834
21
-4.0663529921259842
0
LINE
8
BLACK
6
CONTINUOUS
10
5.7319711417322834
20
-4.0663529921259842
11
5.731620393700787
21
-4.0643638582677166
0
LINE
8
BLACK
6
CONTINUOUS
10
5.731620393700787
20
-4.0643638582677166
11
5.7326303149606295
21
-4.0626146850393701
0
LINE
8
BLACK
6
CONTINUOUS
10
5.7326303149606295
20
-4.0626146850393701
11
5.734528307086614
21
-4.0619238582677166
0
LINE
8
BLACK
6
CONTINUOUS
10
5.734528307086614
20
-4.0619238582677166
11
5.7621706299212594
21
-4.0619238582677166
0
LINE
8
BLACK
6
CONTINUOUS
10
5.7621706299212594
20
-4.0619238582677166
11
5.7666790157480312
21
-4.0604210236220473
0
LINE
8
BLACK
6
CONTINUOUS
10
5.7666790157480312
20
-4.0604210236220473
11
5.7694428346456688
21
-4.0576572440944885
0
LINE
8
BLACK
6
CONTINUOUS
10
5.7694428346456688
20
-4.0576572440944885
11
5.7709456299212594
21
-4.0531488976377954
0
LINE
8
BLACK
6
CONTINUOUS
10
5.7709456299212594
20
-4.0531488976377954
11
5.7709456299212594
21
-4.0498785039370082
0
LINE
8
BLACK
6
CONTINUOUS
10
5.7709456299212594
20
-4.0498785039370082
11
5.7711237007874017
21
-4.0488685826771649
0
LINE
8
BLACK
6
CONTINUOUS
10
5.7711237007874017
20
-4.0488685826771649
11
5.7724220078740158
21
-4.0473213385826767
0
LINE
8
BLACK
6
CONTINUOUS
10
5.7724220078740158
20
-4.0473213385826767
11
5.7744111417322834
21
-4.0469705905511812
0
LINE
8
BLACK
6
CONTINUOUS
10
5.7744111417322834
20
-4.0469705905511812
11
5.77616031496063
21
-4.0479805118110237
0
LINE
8
BLACK
6
CONTINUOUS
10
5.5074970866141735
20
-4.0540841732283468
11
5.5081889763779524
21
-4.0557544881889767
0
LINE
8
BLACK
6
CONTINUOUS
10
5.5081889763779524
20
-4.0557544881889767
11
5.5081889763779524
21
-4.0642455118110234
0
LINE
8
BLACK
6
CONTINUOUS
10
5.5081889763779524
20
-4.0642455118110234
11
5.5074970866141735
21
-4.0659158267716533
0
LINE
8
BLACK
6
CONTINUOUS
10
5.5074970866141735
20
-4.0659158267716533
11
5.5058267716535436
21
-4.0666077165354331
0
LINE
8
BLACK
6
CONTINUOUS
10
5.5058267716535436
20
-4.0666077165354331
11
5.5041564566929129
21
-4.0659158267716533
0
LINE
8
BLACK
6
CONTINUOUS
10
5.5041564566929129
20
-4.0659158267716533
11
5.503464566929134
21
-4.0642455118110234
0
LINE
8
BLACK
6
CONTINUOUS
10
5.503464566929134
20
-4.0642455118110234
11
5.503464566929134
21
-4.0557544881889767
0
LINE
8
BLACK
6
CONTINUOUS
10
5.503464566929134
20
-4.0557544881889767
11
5.5041564566929129
21
-4.0540841732283468
0
LINE
8
BLACK
6
CONTINUOUS
10
5.5041564566929129
20
-4.0540841732283468
11
5.5058267716535436
21
-4.053392283464567
0
LINE
8
BLACK
6
CONTINUOUS
10
5.5058267716535436
20
-4.053392283464567
11
5.5074970866141735
21
-4.0540841732283468
0
LINE
8
BLACK
6
CONTINUOUS
10
5.5358435433070863
20
-4.0540841732283468
11
5.536535433070866
21
-4.0557544881889767
0
LINE
8
BLACK
6
CONTINUOUS
10
5.536535433070866
20
-4.0557544881889767
11
5.536535433070866
21
-4.0642455118110234
0
LINE
8
BLACK
6
CONTINUOUS
10
5.536535433070866
20
-4.0642455118110234
11
5.5358435433070863
21
-4.0659158267716533
0
LINE
8
BLACK
6
CONTINUOUS
10
5.5358435433070863
20
-4.0659158267716533
11
5.5341732283464564
21
-4.0666077165354331
0
LINE
8
BLACK
6
CONTINUOUS
10
5.5341732283464564
20
-4.0666077165354331
11
5.5325029133858266
21
-4.0659158267716533
0
LINE
8
BLACK
6
CONTINUOUS
10
5.5325029133858266
20
-4.0659158267716533
11
5.5318110236220468
21
-4.0642455118110234
0
LINE
8
BLACK
6
CONTINUOUS
10
5.5318110236220468
20
-4.0642455118110234
11
5.5318110236220468
21
-4.0557544881889767
0
LINE
8
BLACK
6
CONTINUOUS
10
5.5318110236220468
20
-4.0557544881889767
11
5.5325029133858266
21
-4.0540841732283468
0
LINE
8
BLACK
6
CONTINUOUS
10
5.5325029133858266
20
-4.0540841732283468
11
5.5341732283464564
21
-4.053392283464567
0
LINE
8
BLACK
6
CONTINUOUS
10
5.5341732283464564
20
-4.053392283464567
11
5.5358435433070863
21
-4.0540841732283468
0
LINE
8
BLACK
6
CONTINUOUS
10
5.9554498425196849
20
-3.8263218110236221
11
5.9561417322834647
21
-3.827992125984252
0
LINE
8
BLACK
6
CONTINUOUS
10
5.9561417322834647
20
-3.827992125984252
11
5.9561417322834647
21
-4.061456692913386
0
LINE
8
BLACK
6
CONTINUOUS
10
5.9561417322834647
20
-4.061456692913386
11
5.9554498425196849
21
-4.0631270078740158
0
LINE
8
BLACK
6
CONTINUOUS
10
5.9554498425196849
20
-4.0631270078740158
11
5.953779527559055
21
-4.0638188976377956
0
LINE
8
BLACK
6
CONTINUOUS
10
5.953779527559055
20
-4.0638188976377956
11
5.9521092125984252
21
-4.0631270078740158
0
LINE
8
BLACK
6
CONTINUOUS
10
5.9521092125984252
20
-4.0631270078740158
11
5.9514173228346454
21
-4.061456692913386
0
LINE
8
BLACK
6
CONTINUOUS
10
5.9514173228346454
20
-4.061456692913386
11
5.9514173228346454
21
-3.827992125984252
0
LINE
8
BLACK
6
CONTINUOUS
10
5.9514173228346454
20
-3.827992125984252
11
5.9521092125984252
21
-3.8263218110236221
0
LINE
8
BLACK
6
CONTINUOUS
10
5.9521092125984252
20
-3.8263218110236221
11
5.953779527559055
21
-3.8256299212598424
0
LINE
8
BLACK
6
CONTINUOUS
10
5.953779527559055
20
-3.8256299212598424
11
5.9554498425196849
21
-3.8263218110236221
0
LINE
8
BLACK
6
CONTINUOUS
10
5.5567096850393698
20
-4.0472808267716536
11
5.5574015748031496
21
-4.0489511417322834
0
LINE
8
BLACK
6
CONTINUOUS
10
5.5574015748031496
20
-4.0489511417322834
11
5.5574015748031496
21
-4.061048858267716
0
LINE
8
BLACK
6
CONTINUOUS
10
5.5574015748031496
20
-4.061048858267716
11
5.5567096850393698
21
-4.0627191732283467
0
LINE
8
BLACK
6
CONTINUOUS
10
5.5567096850393698
20
-4.0627191732283467
11
5.5550393700787399
21
-4.0634110629921256
0
LINE
8
BLACK
6
CONTINUOUS
10
5.5550393700787399
20
-4.0634110629921256
11
5.5533690551181101
21
-4.0627191732283467
0
LINE
8
BLACK
6
CONTINUOUS
10
5.5533690551181101
20
-4.0627191732283467
11
5.5526771653543303
21
-4.061048858267716
0
LINE
8
BLACK
6
CONTINUOUS
10
5.5526771653543303
20
-4.061048858267716
11
5.5526771653543303
21
-4.0489511417322834
0
LINE
8
BLACK
6
CONTINUOUS
10
5.5526771653543303
20
-4.0489511417322834
11
5.5533690551181101
21
-4.0472808267716536
0
LINE
8
BLACK
6
CONTINUOUS
10
5.5533690551181101
20
-4.0472808267716536
11
5.5550393700787399
21
-4.0465889370078738
0
LINE
8
BLACK
6
CONTINUOUS
10
5.5550393700787399
20
-4.0465889370078738
11
5.5567096850393698
21
-4.0472808267716536
0
LINE
8
BLACK
6
CONTINUOUS
10
5.5866309448818896
20
-4.0472808267716536
11
5.5873228346456694
21
-4.0489511417322834
0
LINE
8
BLACK
6
CONTINUOUS
10
5.5873228346456694
20
-4.0489511417322834
11
5.5873228346456694
21
-4.061048858267716
0
LINE
8
BLACK
6
CONTINUOUS
10
5.5873228346456694
20
-4.061048858267716
11
5.5866309448818896
21
-4.0627191732283467
0
LINE
8
BLACK
6
CONTINUOUS
10
5.5866309448818896
20
-4.0627191732283467
11
5.5849606299212597
21
-4.0634110629921256
0
LINE
8
BLACK
6
CONTINUOUS
10
5.5849606299212597
20
-4.0634110629921256
11
5.5832903149606299
21
-4.0627191732283467
0
LINE
8
BLACK
6
CONTINUOUS
10
5.5832903149606299
20
-4.0627191732283467
11
5.5825984251968501
21
-4.061048858267716
0
LINE
8
BLACK
6
CONTINUOUS
10
5.5825984251968501
20
-4.061048858267716
11
5.5825984251968501
21
-4.0489511417322834
0
LINE
8
BLACK
6
CONTINUOUS
10
5.5825984251968501
20
-4.0489511417322834
11
5.5832903149606299
21
-4.0472808267716536
0
LINE
8
BLACK
6
CONTINUOUS
10
5.5832903149606299
20
-4.0472808267716536
11
5.5849606299212597
21
-4.0465889370078738
0
LINE
8
BLACK
6
CONTINUOUS
10
5.5849606299212597
20
-4.0465889370078738
11
5.5866309448818896
21
-4.0472808267716536
0
LINE
8
BLACK
6
CONTINUOUS
10
5.63170968503937
20
-4.0472808267716536
11
5.6324015748031497
21
-4.0489511417322834
0
LINE
8
BLACK
6
CONTINUOUS
10
5.6324015748031497
20
-4.0489511417322834
11
5.6324015748031497
21
-4.061048858267716
0
LINE
8
BLACK
6
CONTINUOUS
10
5.6324015748031497
20
-4.061048858267716
11
5.63170968503937
21
-4.0627191732283467
0
LINE
8
BLACK
6
CONTINUOUS
10
5.63170968503937
20
-4.0627191732283467
11
5.6300393700787401
21
-4.0634110629921256
0
LINE
8
BLACK
6
CONTINUOUS
10
5.6300393700787401
20
-4.0634110629921256
11
5.6283690551181103
21
-4.0627191732283467
0
LINE
8
BLACK
6
CONTINUOUS
10
5.6283690551181103
20
-4.0627191732283467
11
5.6276771653543305
21
-4.061048858267716
0
LINE
8
BLACK
6
CONTINUOUS
10
5.6276771653543305
20
-4.061048858267716
11
5.6276771653543305
21
-4.0489511417322834
0
LINE
8
BLACK
6
CONTINUOUS
10
5.6276771653543305
20
-4.0489511417322834
11
5.6283690551181103
21
-4.0472808267716536
0
LINE
8
BLACK
6
CONTINUOUS
10
5.6283690551181103
20
-4.0472808267716536
11
5.6300393700787401
21
-4.0465889370078738
0
LINE
8
BLACK
6
CONTINUOUS
10
5.6300393700787401
20
-4.0465889370078738
11
5.63170968503937
21
-4.0472808267716536
0
LINE
8
BLACK
6
CONTINUOUS
10
5.6616309448818898
20
-4.0472808267716536
11
5.6623228346456695
21
-4.0489511417322834
0
LINE
8
BLACK
6
CONTINUOUS
10
5.6623228346456695
20
-4.0489511417322834
11
5.6623228346456695
21
-4.061048858267716
0
LINE
8
BLACK
6
CONTINUOUS
10
5.6623228346456695
20
-4.061048858267716
11
5.6616309448818898
21
-4.0627191732283467
0
LINE
8
BLACK
6
CONTINUOUS
10
5.6616309448818898
20
-4.0627191732283467
11
5.6599606299212599
21
-4.0634110629921256
0
LINE
8
BLACK
6
CONTINUOUS
10
5.6599606299212599
20
-4.0634110629921256
11
5.6582903149606301
21
-4.0627191732283467
0
LINE
8
BLACK
6
CONTINUOUS
10
5.6582903149606301
20
-4.0627191732283467
11
5.6575984251968503
21
-4.061048858267716
0
LINE
8
BLACK
6
CONTINUOUS
10
5.6575984251968503
20
-4.061048858267716
11
5.6575984251968503
21
-4.0489511417322834
0
LINE
8
BLACK
6
CONTINUOUS
10
5.6575984251968503
20
-4.0489511417322834
11
5.6582903149606301
21
-4.0472808267716536
0
LINE
8
BLACK
6
CONTINUOUS
10
5.6582903149606301
20
-4.0472808267716536
11
5.6599606299212599
21
-4.0465889370078738
0
LINE
8
BLACK
6
CONTINUOUS
10
5.6599606299212599
20
-4.0465889370078738
11
5.6616309448818898
21
-4.0472808267716536
0
LINE
8
BLACK
6
CONTINUOUS
10
5.6774970866141734
20
-4.0470841732283462
11
5.6781889763779523
21
-4.0487544881889761
0
LINE
8
BLACK
6
CONTINUOUS
10
5.6781889763779523
20
-4.0487544881889761
11
5.6781889763779523
21
-4.0572455118110238
0
LINE
8
BLACK
6
CONTINUOUS
10
5.6781889763779523
20
-4.0572455118110238
11
5.6774970866141734
21
-4.0589158267716536
0
LINE
8
BLACK
6
CONTINUOUS
10
5.6774970866141734
20
-4.0589158267716536
11
5.6758267716535435
21
-4.0596077165354334
0
LINE
8
BLACK
6
CONTINUOUS
10
5.6758267716535435
20
-4.0596077165354334
11
5.6741564566929137
21
-4.0589158267716536
0
LINE
8
BLACK
6
CONTINUOUS
10
5.6741564566929137
20
-4.0589158267716536
11
5.6734645669291339
21
-4.0572455118110238
0
LINE
8
BLACK
6
CONTINUOUS
10
5.6734645669291339
20
-4.0572455118110238
11
5.6734645669291339
21
-4.0487544881889761
0
LINE
8
BLACK
6
CONTINUOUS
10
5.6734645669291339
20
-4.0487544881889761
11
5.6741564566929137
21
-4.0470841732283462
0
LINE
8
BLACK
6
CONTINUOUS
10
5.6741564566929137
20
-4.0470841732283462
11
5.6758267716535435
21
-4.0463922834645665
0
LINE
8
BLACK
6
CONTINUOUS
10
5.6758267716535435
20
-4.0463922834645665
11
5.6774970866141734
21
-4.0470841732283462
0
LINE
8
BLACK
6
CONTINUOUS
10
5.7058435433070862
20
-4.0470841732283462
11
5.706535433070866
21
-4.0487544881889761
0
LINE
8
BLACK
6
CONTINUOUS
10
5.706535433070866
20
-4.0487544881889761
11
5.706535433070866
21
-4.0572455118110238
0
LINE
8
BLACK
6
CONTINUOUS
10
5.706535433070866
20
-4.0572455118110238
11
5.7058435433070862
21
-4.0589158267716536
0
LINE
8
BLACK
6
CONTINUOUS
10
5.7058435433070862
20
-4.0589158267716536
11
5.7041732283464563
21
-4.0596077165354334
0
LINE
8
BLACK
6
CONTINUOUS
10
5.7041732283464563
20
-4.0596077165354334
11
5.7025029133858265
21
-4.0589158267716536
0
LINE
8
BLACK
6
CONTINUOUS
10
5.7025029133858265
20
-4.0589158267716536
11
5.7018110236220467
21
-4.0572455118110238
0
LINE
8
BLACK
6
CONTINUOUS
10
5.7018110236220467
20
-4.0572455118110238
11
5.7018110236220467
21
-4.0487544881889761
0
LINE
8
BLACK
6
CONTINUOUS
10
5.7018110236220467
20
-4.0487544881889761
11
5.7025029133858265
21
-4.0470841732283462
0
LINE
8
BLACK
6
CONTINUOUS
10
5.7025029133858265
20
-4.0470841732283462
11
5.7041732283464563
21
-4.0463922834645665
0
LINE
8
BLACK
6
CONTINUOUS
10
5.7041732283464563
20
-4.0463922834645665
11
5.7058435433070862
21
-4.0470841732283462
0
LINE
8
BLACK
6
CONTINUOUS
10
5.3293598818897641
20
-4.033138464566929
11
5.3294891338582673
21
-4.0331157086614171
0
LINE
8
BLACK
6
CONTINUOUS
10
5.3294891338582673
20
-4.0331157086614171
11
5.3296027165354332
21
-4.0331812992125986
0
LINE
8
BLACK
6
CONTINUOUS
10
5.3296027165354332
20
-4.0331812992125986
11
5.3299862992125986
21
-4.0332489370078743
0
LINE
8
BLACK
6
CONTINUOUS
10
5.3299862992125986
20
-4.0332489370078743
11
5.3305739763779529
21
-4.0337420472440941
0
LINE
8
BLACK
6
CONTINUOUS
10
5.3305739763779529
20
-4.0337420472440941
11
5.3312383070866138
21
-4.0341256299212596
0
LINE
8
BLACK
6
CONTINUOUS
10
5.3312383070866138
20
-4.0341256299212596
11
5.3313294094488191
21
-4.0343759448818899
0
LINE
8
BLACK
6
CONTINUOUS
10
5.3313294094488191
20
-4.0343759448818899
11
5.3315335433070867
21
-4.0345472440944885
0
LINE
8
BLACK
6
CONTINUOUS
10
5.3315335433070867
20
-4.0345472440944885
11
5.3316667716535431
21
-4.0353027952755909
0
LINE
8
BLACK
6
CONTINUOUS
10
5.3316667716535431
20
-4.0353027952755909
11
5.3319291338582673
21
-4.0360236220472441
0
LINE
8
BLACK
6
CONTINUOUS
10
5.3319291338582673
20
-4.0360236220472441
11
5.3319291338582673
21
-4.0429133858267718
0
LINE
8
BLACK
6
CONTINUOUS
10
5.3319291338582673
20
-4.0429133858267718
11
5.3317510629921259
21
-4.0439233070866143
0
LINE
8
BLACK
6
CONTINUOUS
10
5.3317510629921259
20
-4.0439233070866143
11
5.3304527559055117
21
-4.0454705511811024
0
LINE
8
BLACK
6
CONTINUOUS
10
5.3304527559055117
20
-4.0454705511811024
11
5.3284636220472441
21
-4.0458212992125979
0
LINE
8
BLACK
6
CONTINUOUS
10
5.3284636220472441
20
-4.0458212992125979
11
5.3267144488188976
21
-4.0448113779527555
0
LINE
8
BLACK
6
CONTINUOUS
10
5.3267144488188976
20
-4.0448113779527555
11
5.3260236220472441
21
-4.0429133858267718
0
LINE
8
BLACK
6
CONTINUOUS
10
5.3260236220472441
20
-4.0429133858267718
11
5.3260236220472441
21
-4.0389763779527561
0
LINE
8
BLACK
6
CONTINUOUS
10
5.3260236220472441
20
-4.0389763779527561
11
5.2039763779527561
21
-4.0389763779527561
0
LINE
8
BLACK
6
CONTINUOUS
10
5.2039763779527561
20
-4.0389763779527561
11
5.2039763779527561
21
-4.0429133858267718
0
LINE
8
BLACK
6
CONTINUOUS
10
5.2039763779527561
20
-4.0429133858267718
11
5.2037983070866138
21
-4.0439233070866143
0
LINE
8
BLACK
6
CONTINUOUS
10
5.2037983070866138
20
-4.0439233070866143
11
5.2024999999999997
21
-4.0454705511811024
0
LINE
8
BLACK
6
CONTINUOUS
10
5.2024999999999997
20
-4.0454705511811024
11
5.2005108661417321
21
-4.0458212992125979
0
LINE
8
BLACK
6
CONTINUOUS
10
5.2005108661417321
20
-4.0458212992125979
11
5.1987616929133855
21
-4.0448113779527555
0
LINE
8
BLACK
6
CONTINUOUS
10
5.1987616929133855
20
-4.0448113779527555
11
5.1980708661417321
21
-4.0429133858267718
0
LINE
8
BLACK
6
CONTINUOUS
10
5.1980708661417321
20
-4.0429133858267718
11
5.1980708661417321
21
-4.0360236220472441
0
LINE
8
BLACK
6
CONTINUOUS
10
5.1980708661417321
20
-4.0360236220472441
11
5.1981384645669291
21
-4.0356400787401574
0
LINE
8
BLACK
6
CONTINUOUS
10
5.1981384645669291
20
-4.0356400787401574
11
5.1981157086614171
21
-4.035510866141732
0
LINE
8
BLACK
6
CONTINUOUS
10
5.1981157086614171
20
-4.035510866141732
11
5.1981812992125986
21
-4.0353972440944883
0
LINE
8
BLACK
6
CONTINUOUS
10
5.1981812992125986
20
-4.0353972440944883
11
5.1982489370078735
21
-4.0350137007874016
0
LINE
8
BLACK
6
CONTINUOUS
10
5.1982489370078735
20
-4.0350137007874016
11
5.1987420472440942
21
-4.0344259842519685
0
LINE
8
BLACK
6
CONTINUOUS
10
5.1987420472440942
20
-4.0344259842519685
11
5.1991256299212596
21
-4.0337616929133855
0
LINE
8
BLACK
6
CONTINUOUS
10
5.1991256299212596
20
-4.0337616929133855
11
5.1993759448818899
21
-4.0336705511811024
0
LINE
8
BLACK
6
CONTINUOUS
10
5.1993759448818899
20
-4.0336705511811024
11
5.1995472440944877
21
-4.0334664566929135
0
LINE
8
BLACK
6
CONTINUOUS
10
5.1995472440944877
20
-4.0334664566929135
11
5.20030279527559
21
-4.0333331889763775
0
LINE
8
BLACK
6
CONTINUOUS
10
5.20030279527559
20
-4.0333331889763775
11
5.2010236220472441
21
-4.033070866141732
0
LINE
8
BLACK
6
CONTINUOUS
10
5.2010236220472441
20
-4.033070866141732
11
5.3289763779527561
21
-4.033070866141732
0
LINE
8
BLACK
6
CONTINUOUS
10
5.3289763779527561
20
-4.033070866141732
11
5.3293598818897641
21
-4.033138464566929
0
LINE
8
BLACK
6
CONTINUOUS
10
5.3578029921259844
20
-4.0278394881889765
11
5.3585153543307085
21
-4.0280108661417318
0
LINE
8
BLACK
6
CONTINUOUS
10
5.3585153543307085
20
-4.0280108661417318
11
5.3586167716535433
21
-4.0281765748031493
0
LINE
8
BLACK
6
CONTINUOUS
10
5.3586167716535433
20
-4.0281765748031493
11
5.3587962992125986
21
-4.02825094488189
0
LINE
8
BLACK
6
CONTINUOUS
10
5.3587962992125986
20
-4.02825094488189
11
5.3590766929133853
21
-4.0289279133858269
0
LINE
8
BLACK
6
CONTINUOUS
10
5.3590766929133853
20
-4.0289279133858269
11
5.359459251968504
21
-4.0295528346456688
0
LINE
8
BLACK
6
CONTINUOUS
10
5.359459251968504
20
-4.0295528346456688
11
5.3594137795275589
21
-4.0297416929133858
0
LINE
8
BLACK
6
CONTINUOUS
10
5.3594137795275589
20
-4.0297416929133858
11
5.3594881889763775
21
-4.0299212598425198
0
LINE
8
BLACK
6
CONTINUOUS
10
5.3594881889763775
20
-4.0299212598425198
11
5.3592077165354333
21
-4.0305982677165355
0
LINE
8
BLACK
6
CONTINUOUS
10
5.3592077165354333
20
-4.0305982677165355
11
5.3590363779527559
21
-4.0313106299212595
0
LINE
8
BLACK
6
CONTINUOUS
10
5.3590363779527559
20
-4.0313106299212595
11
5.3495875590551183
21
-4.0443027559055116
0
LINE
8
BLACK
6
CONTINUOUS
10
5.3495875590551183
20
-4.0443027559055116
11
5.3492643700787399
21
-4.0445005905511806
0
LINE
8
BLACK
6
CONTINUOUS
10
5.3492643700787399
20
-4.0445005905511806
11
5.3490665354330709
21
-4.044823779527559
0
LINE
8
BLACK
6
CONTINUOUS
10
5.3490665354330709
20
-4.044823779527559
11
5.3485226377952753
21
-4.0449546062992123
0
LINE
8
BLACK
6
CONTINUOUS
10
5.3485226377952753
20
-4.0449546062992123
11
5.3480455905511812
21
-4.0452466535433071
0
LINE
8
BLACK
6
CONTINUOUS
10
5.3480455905511812
20
-4.0452466535433071
11
5.3476771653543302
21
-4.0451579921259846
0
LINE
8
BLACK
6
CONTINUOUS
10
5.3476771653543302
20
-4.0451579921259846
11
5.3473087401574801
21
-4.0452466535433071
0
LINE
8
BLACK
6
CONTINUOUS
10
5.3473087401574801
20
-4.0452466535433071
11
5.3468316535433074
21
-4.0449546062992123
0
LINE
8
BLACK
6
CONTINUOUS
10
5.3468316535433074
20
-4.0449546062992123
11
5.3462877952755905
21
-4.044823779527559
0
LINE
8
BLACK
6
CONTINUOUS
10
5.3462877952755905
20
-4.044823779527559
11
5.3460899212598427
21
-4.0445005905511806
0
LINE
8
BLACK
6
CONTINUOUS
10
5.3460899212598427
20
-4.0445005905511806
11
5.3457667716535431
21
-4.0443027559055116
0
LINE
8
BLACK
6
CONTINUOUS
10
5.3457667716535431
20
-4.0443027559055116
11
5.3363179527559055
21
-4.0313106299212595
0
LINE
8
BLACK
6
CONTINUOUS
10
5.3363179527559055
20
-4.0313106299212595
11
5.3361465748031494
21
-4.0305982677165355
0
LINE
8
BLACK
6
CONTINUOUS
10
5.3361465748031494
20
-4.0305982677165355
11
5.335866141732283
21
-4.0299212598425198
0
LINE
8
BLACK
6
CONTINUOUS
10
5.335866141732283
20
-4.0299212598425198
11
5.3359405118110237
21
-4.0297416929133858
0
LINE
8
BLACK
6
CONTINUOUS
10
5.3359405118110237
20
-4.0297416929133858
11
5.3358950787401573
21
-4.0295528346456688
0
LINE
8
BLACK
6
CONTINUOUS
10
5.3358950787401573
20
-4.0295528346456688
11
5.3362775984251964
21
-4.0289279133858269
0
LINE
8
BLACK
6
CONTINUOUS
10
5.3362775984251964
20
-4.0289279133858269
11
5.3365580314960628
21
-4.02825094488189
0
LINE
8
BLACK
6
CONTINUOUS
10
5.3365580314960628
20
-4.02825094488189
11
5.3367375196850393
21
-4.0281765748031493
0
LINE
8
BLACK
6
CONTINUOUS
10
5.3367375196850393
20
-4.0281765748031493
11
5.3368389763779529
21
-4.0280108661417318
0
LINE
8
BLACK
6
CONTINUOUS
10
5.3368389763779529
20
-4.0280108661417318
11
5.3375512992125982
21
-4.0278394881889765
0
LINE
8
BLACK
6
CONTINUOUS
10
5.3375512992125982
20
-4.0278394881889765
11
5.3382283464566926
21
-4.0275590551181102
0
LINE
8
BLACK
6
CONTINUOUS
10
5.3382283464566926
20
-4.0275590551181102
11
5.3571259842519687
21
-4.0275590551181102
0
LINE
8
BLACK
6
CONTINUOUS
10
5.3571259842519687
20
-4.0275590551181102
11
5.3578029921259844
21
-4.0278394881889765
0
LINE
8
BLACK
6
CONTINUOUS
10
4.8375375196850392
20
-3.9723539763779527
11
4.8382283464566926
21
-3.9742519685039368
0
LINE
8
BLACK
6
CONTINUOUS
10
4.8382283464566926
20
-3.9742519685039368
11
4.8382283464566926
21
-4.0244488188976373
0
LINE
8
BLACK
6
CONTINUOUS
10
4.8382283464566926
20
-4.0244488188976373
11
4.9081102362204723
21
-4.0244488188976373
0
LINE
8
BLACK
6
CONTINUOUS
10
4.9081102362204723
20
-4.0244488188976373
11
4.9091201574803147
21
-4.0246268897637796
0
LINE
8
BLACK
6
CONTINUOUS
10
4.9091201574803147
20
-4.0246268897637796
11
4.9106674015748029
21
-4.0259251968503937
0
LINE
8
BLACK
6
CONTINUOUS
10
4.9106674015748029
20
-4.0259251968503937
11
4.9110181496062992
21
-4.0279143307086613
0
LINE
8
BLACK
6
CONTINUOUS
10
4.9110181496062992
20
-4.0279143307086613
11
4.9100082283464568
21
-4.0296635039370079
0
LINE
8
BLACK
6
CONTINUOUS
10
4.9100082283464568
20
-4.0296635039370079
11
4.9081102362204723
21
-4.0303543307086613
0
LINE
8
BLACK
6
CONTINUOUS
10
4.9081102362204723
20
-4.0303543307086613
11
4.8352755905511806
21
-4.0303543307086613
0
LINE
8
BLACK
6
CONTINUOUS
10
4.8352755905511806
20
-4.0303543307086613
11
4.8348920472440939
21
-4.0302866929133856
0
LINE
8
BLACK
6
CONTINUOUS
10
4.8348920472440939
20
-4.0302866929133856
11
4.8347628346456695
21
-4.0303094881889763
0
LINE
8
BLACK
6
CONTINUOUS
10
4.8347628346456695
20
-4.0303094881889763
11
4.8346492125984248
21
-4.030243858267716
0
LINE
8
BLACK
6
CONTINUOUS
10
4.8346492125984248
20
-4.030243858267716
11
4.8342656692913382
21
-4.0301762598425199
0
LINE
8
BLACK
6
CONTINUOUS
10
4.8342656692913382
20
-4.0301762598425199
11
4.8336779527559051
21
-4.0296831102362205
0
LINE
8
BLACK
6
CONTINUOUS
10
4.8336779527559051
20
-4.0296831102362205
11
4.8330136614173229
21
-4.0292995669291338
0
LINE
8
BLACK
6
CONTINUOUS
10
4.8330136614173229
20
-4.0292995669291338
11
4.8329225196850389
21
-4.0290492125984247
0
LINE
8
BLACK
6
CONTINUOUS
10
4.8329225196850389
20
-4.0290492125984247
11
4.83271842519685
21
-4.0288779527559058
0
LINE
8
BLACK
6
CONTINUOUS
10
4.83271842519685
20
-4.0288779527559058
11
4.8325851574803149
21
-4.0281223622047246
0
LINE
8
BLACK
6
CONTINUOUS
10
4.8325851574803149
20
-4.0281223622047246
11
4.8323228346456695
21
-4.0274015748031493
0
LINE
8
BLACK
6
CONTINUOUS
10
4.8323228346456695
20
-4.0274015748031493
11
4.8323228346456695
21
-3.9742519685039368
0
LINE
8
BLACK
6
CONTINUOUS
10
4.8323228346456695
20
-3.9742519685039368
11
4.8325009055118109
21
-3.9732420472440944
0
LINE
8
BLACK
6
CONTINUOUS
10
4.8325009055118109
20
-3.9732420472440944
11
4.833799212598425
21
-3.9716948031496062
0
LINE
8
BLACK
6
CONTINUOUS
10
4.833799212598425
20
-3.9716948031496062
11
4.8357883464566926
21
-3.9713440551181103
0
LINE
8
BLACK
6
CONTINUOUS
10
4.8357883464566926
20
-3.9713440551181103
11
4.8375375196850392
21
-3.9723539763779527
0
LINE
8
BLACK
6
CONTINUOUS
10
5.1721831889763781
20
-3.9723539763779527
11
5.1728740157480315
21
-3.9742519685039368
0
LINE
8
BLACK
6
CONTINUOUS
10
5.1728740157480315
20
-3.9742519685039368
11
5.1728740157480315
21
-4.0274015748031493
0
LINE
8
BLACK
6
CONTINUOUS
10
5.1728740157480315
20
-4.0274015748031493
11
5.1728063779527558
21
-4.0277850787401572
0
LINE
8
BLACK
6
CONTINUOUS
10
5.1728063779527558
20
-4.0277850787401572
11
5.1728291732283465
21
-4.0279143307086613
0
LINE
8
BLACK
6
CONTINUOUS
10
5.1728291732283465
20
-4.0279143307086613
11
5.1727635433070862
21
-4.0280279133858263
0
LINE
8
BLACK
6
CONTINUOUS
10
5.1727635433070862
20
-4.0280279133858263
11
5.1726959448818892
21
-4.0284114960629918
0
LINE
8
BLACK
6
CONTINUOUS
10
5.1726959448818892
20
-4.0284114960629918
11
5.1722027952755907
21
-4.0289991732283461
0
LINE
8
BLACK
6
CONTINUOUS
10
5.1722027952755907
20
-4.0289991732283461
11
5.171819251968504
21
-4.0296635039370079
0
LINE
8
BLACK
6
CONTINUOUS
10
5.171819251968504
20
-4.0296635039370079
11
5.1715688976377949
21
-4.0297546062992122
0
LINE
8
BLACK
6
CONTINUOUS
10
5.1715688976377949
20
-4.0297546062992122
11
5.1713976377952751
21
-4.0299587401574799
0
LINE
8
BLACK
6
CONTINUOUS
10
5.1713976377952751
20
-4.0299587401574799
11
5.1706420472440939
21
-4.0300919685039371
0
LINE
8
BLACK
6
CONTINUOUS
10
5.1706420472440939
20
-4.0300919685039371
11
5.1699212598425195
21
-4.0303543307086613
0
LINE
8
BLACK
6
CONTINUOUS
10
5.1699212598425195
20
-4.0303543307086613
11
5.0970866141732278
21
-4.0303543307086613
0
LINE
8
BLACK
6
CONTINUOUS
10
5.0970866141732278
20
-4.0303543307086613
11
5.0960766929133854
21
-4.0301762598425199
0
LINE
8
BLACK
6
CONTINUOUS
10
5.0960766929133854
20
-4.0301762598425199
11
5.0945294488188972
21
-4.0288779527559058
0
LINE
8
BLACK
6
CONTINUOUS
10
5.0945294488188972
20
-4.0288779527559058
11
5.0941787007874018
21
-4.0268888188976373
0
LINE
8
BLACK
6
CONTINUOUS
10
5.0941787007874018
20
-4.0268888188976373
11
5.0951886220472442
21
-4.0251396456692916
0
LINE
8
BLACK
6
CONTINUOUS
10
5.0951886220472442
20
-4.0251396456692916
11
5.0970866141732278
21
-4.0244488188976373
0
LINE
8
BLACK
6
CONTINUOUS
10
5.0970866141732278
20
-4.0244488188976373
11
5.1669685039370075
21
-4.0244488188976373
0
LINE
8
BLACK
6
CONTINUOUS
10
5.1669685039370075
20
-4.0244488188976373
11
5.1669685039370075
21
-3.9742519685039368
0
LINE
8
BLACK
6
CONTINUOUS
10
5.1669685039370075
20
-3.9742519685039368
11
5.1671465748031498
21
-3.9732420472440944
0
LINE
8
BLACK
6
CONTINUOUS
10
5.1671465748031498
20
-3.9732420472440944
11
5.1684448818897639
21
-3.9716948031496062
0
LINE
8
BLACK
6
CONTINUOUS
10
5.1684448818897639
20
-3.9716948031496062
11
5.1704340157480315
21
-3.9713440551181103
0
LINE
8
BLACK
6
CONTINUOUS
10
5.1704340157480315
20
-3.9713440551181103
11
5.1721831889763781
21
-3.9723539763779527
0
LINE
8
BLACK
6
CONTINUOUS
10
5.3974970866141732
20
-4.0140841732283468
11
5.3981889763779529
21
-4.0157544881889766
0
LINE
8
BLACK
6
CONTINUOUS
10
5.3981889763779529
20
-4.0157544881889766
11
5.3981889763779529
21
-4.0242455118110234
0
LINE
8
BLACK
6
CONTINUOUS
10
5.3981889763779529
20
-4.0242455118110234
11
5.3974970866141732
21
-4.0259158267716533
0
LINE
8
BLACK
6
CONTINUOUS
10
5.3974970866141732
20
-4.0259158267716533
11
5.3958267716535433
21
-4.026607716535433
0
LINE
8
BLACK
6
CONTINUOUS
10
5.3958267716535433
20
-4.026607716535433
11
5.3941564566929134
21
-4.0259158267716533
0
LINE
8
BLACK
6
CONTINUOUS
10
5.3941564566929134
20
-4.0259158267716533
11
5.3934645669291337
21
-4.0242455118110234
0
LINE
8
BLACK
6
CONTINUOUS
10
5.3934645669291337
20
-4.0242455118110234
11
5.3934645669291337
21
-4.0157544881889766
0
LINE
8
BLACK
6
CONTINUOUS
10
5.3934645669291337
20
-4.0157544881889766
11
5.3941564566929134
21
-4.0140841732283468
0
LINE
8
BLACK
6
CONTINUOUS
10
5.3941564566929134
20
-4.0140841732283468
11
5.3958267716535433
21
-4.013392283464567
0
LINE
8
BLACK
6
CONTINUOUS
10
5.3958267716535433
20
-4.013392283464567
11
5.3974970866141732
21
-4.0140841732283468
0
LINE
8
BLACK
6
CONTINUOUS
10
5.4258435433070868
20
-4.0140841732283468
11
5.4265354330708657
21
-4.0157544881889766
0
LINE
8
BLACK
6
CONTINUOUS
10
5.4265354330708657
20
-4.0157544881889766
11
5.4265354330708657
21
-4.0242455118110234
0
LINE
8
BLACK
6
CONTINUOUS
10
5.4265354330708657
20
-4.0242455118110234
11
5.4258435433070868
21
-4.0259158267716533
0
LINE
8
BLACK
6
CONTINUOUS
10
5.4258435433070868
20
-4.0259158267716533
11
5.424173228346457
21
-4.026607716535433
0
LINE
8
BLACK
6
CONTINUOUS
10
5.424173228346457
20
-4.026607716535433
11
5.4225029133858262
21
-4.0259158267716533
0
LINE
8
BLACK
6
CONTINUOUS
10
5.4225029133858262
20
-4.0259158267716533
11
5.4218110236220474
21
-4.0242455118110234
0
LINE
8
BLACK
6
CONTINUOUS
10
5.4218110236220474
20
-4.0242455118110234
11
5.4218110236220474
21
-4.0157544881889766
0
LINE
8
BLACK
6
CONTINUOUS
10
5.4218110236220474
20
-4.0157544881889766
11
5.4225029133858262
21
-4.0140841732283468
0
LINE
8
BLACK
6
CONTINUOUS
10
5.4225029133858262
20
-4.0140841732283468
11
5.424173228346457
21
-4.013392283464567
0
LINE
8
BLACK
6
CONTINUOUS
10
5.424173228346457
20
-4.013392283464567
11
5.4258435433070868
21
-4.0140841732283468
0
LINE
8
BLACK
6
CONTINUOUS
10
5.523168307086614
20
-4.0000453543307088
11
5.5237122047244096
21
-4.0001762204724409
0
LINE
8
BLACK
6
CONTINUOUS
10
5.5237122047244096
20
-4.0001762204724409
11
5.5239100393700786
21
-4.0004993700787397
0
LINE
8
BLACK
6
CONTINUOUS
10
5.5239100393700786
20
-4.0004993700787397
11
5.5242332283464561
21
-4.0006972440944883
0
LINE
8
BLACK
6
CONTINUOUS
10
5.5242332283464561
20
-4.0006972440944883
11
5.5336820472440946
21
-4.0136893700787404
0
LINE
8
BLACK
6
CONTINUOUS
10
5.5336820472440946
20
-4.0136893700787404
11
5.5338533858267711
21
-4.0144016929133857
0
LINE
8
BLACK
6
CONTINUOUS
10
5.5338533858267711
20
-4.0144016929133857
11
5.5341338582677162
21
-4.0150787401574801
0
LINE
8
BLACK
6
CONTINUOUS
10
5.5341338582677162
20
-4.0150787401574801
11
5.5340594488188977
21
-4.0152582677165354
0
LINE
8
BLACK
6
CONTINUOUS
10
5.5340594488188977
20
-4.0152582677165354
11
5.5341049212598428
21
-4.0154471653543302
0
LINE
8
BLACK
6
CONTINUOUS
10
5.5341049212598428
20
-4.0154471653543302
11
5.533722362204724
21
-4.0160720472440943
0
LINE
8
BLACK
6
CONTINUOUS
10
5.533722362204724
20
-4.0160720472440943
11
5.5334419685039373
21
-4.01674905511811
0
LINE
8
BLACK
6
CONTINUOUS
10
5.5334419685039373
20
-4.01674905511811
11
5.5332624409448821
21
-4.0168233858267719
0
LINE
8
BLACK
6
CONTINUOUS
10
5.5332624409448821
20
-4.0168233858267719
11
5.5331610236220472
21
-4.0169891338582673
0
LINE
8
BLACK
6
CONTINUOUS
10
5.5331610236220472
20
-4.0169891338582673
11
5.5324486614173223
21
-4.0171604724409447
0
LINE
8
BLACK
6
CONTINUOUS
10
5.5324486614173223
20
-4.0171604724409447
11
5.5317716535433066
21
-4.0174409448818897
0
LINE
8
BLACK
6
CONTINUOUS
10
5.5317716535433066
20
-4.0174409448818897
11
5.5128740157480314
21
-4.0174409448818897
0
LINE
8
BLACK
6
CONTINUOUS
10
5.5128740157480314
20
-4.0174409448818897
11
5.5121969685039369
21
-4.0171604724409447
0
LINE
8
BLACK
6
CONTINUOUS
10
5.5121969685039369
20
-4.0171604724409447
11
5.5114846456692916
21
-4.0169891338582673
0
LINE
8
BLACK
6
CONTINUOUS
10
5.5114846456692916
20
-4.0169891338582673
11
5.511383188976378
21
-4.0168233858267719
0
LINE
8
BLACK
6
CONTINUOUS
10
5.511383188976378
20
-4.0168233858267719
11
5.5112037007874015
21
-4.01674905511811
0
LINE
8
BLACK
6
CONTINUOUS
10
5.5112037007874015
20
-4.01674905511811
11
5.5109232677165352
21
-4.0160720472440943
0
LINE
8
BLACK
6
CONTINUOUS
10
5.5109232677165352
20
-4.0160720472440943
11
5.5105407480314961
21
-4.0154471653543302
0
LINE
8
BLACK
6
CONTINUOUS
10
5.5105407480314961
20
-4.0154471653543302
11
5.5105861811023624
21
-4.0152582677165354
0
LINE
8
BLACK
6
CONTINUOUS
10
5.5105861811023624
20
-4.0152582677165354
11
5.5105118110236218
21
-4.0150787401574801
0
LINE
8
BLACK
6
CONTINUOUS
10
5.5105118110236218
20
-4.0150787401574801
11
5.5107922440944881
21
-4.0144016929133857
0
LINE
8
BLACK
6
CONTINUOUS
10
5.5107922440944881
20
-4.0144016929133857
11
5.5109636220472442
21
-4.0136893700787404
0
LINE
8
BLACK
6
CONTINUOUS
10
5.5109636220472442
20
-4.0136893700787404
11
5.5204124409448818
21
-4.0006972440944883
0
LINE
8
BLACK
6
CONTINUOUS
10
5.5204124409448818
20
-4.0006972440944883
11
5.5207355905511806
21
-4.0004993700787397
0
LINE
8
BLACK
6
CONTINUOUS
10
5.5207355905511806
20
-4.0004993700787397
11
5.5209334645669292
21
-4.0001762204724409
0
LINE
8
BLACK
6
CONTINUOUS
10
5.5209334645669292
20
-4.0001762204724409
11
5.5214773228346452
21
-4.0000453543307088
0
LINE
8
BLACK
6
CONTINUOUS
10
5.5214773228346452
20
-4.0000453543307088
11
5.5219544094488189
21
-3.9997533464566928
0
LINE
8
BLACK
6
CONTINUOUS
10
5.5219544094488189
20
-3.9997533464566928
11
5.522322834645669
21
-3.999841968503937
0
LINE
8
BLACK
6
CONTINUOUS
10
5.522322834645669
20
-3.999841968503937
11
5.52269125984252
21
-3.9997533464566928
0
LINE
8
BLACK
6
CONTINUOUS
10
5.52269125984252
20
-3.9997533464566928
11
5.523168307086614
21
-4.0000453543307088
0
LINE
8
BLACK
6
CONTINUOUS
10
5.2309158267716533
20
-4.012502913385827
11
5.2316077165354331
21
-4.0141732283464568
0
LINE
8
BLACK
6
CONTINUOUS
10
5.2316077165354331
20
-4.0141732283464568
11
5.2309158267716533
21
-4.0158435433070867
0
LINE
8
BLACK
6
CONTINUOUS
10
5.2309158267716533
20
-4.0158435433070867
11
5.2292455118110235
21
-4.0165354330708665
0
LINE
8
BLACK
6
CONTINUOUS
10
5.2292455118110235
20
-4.0165354330708665
11
5.2207544881889767
21
-4.0165354330708665
0
LINE
8
BLACK
6
CONTINUOUS
10
5.2207544881889767
20
-4.0165354330708665
11
5.2190841732283459
21
-4.0158435433070867
0
LINE
8
BLACK
6
CONTINUOUS
10
5.2190841732283459
20
-4.0158435433070867
11
5.2183922834645671
21
-4.0141732283464568
0
LINE
8
BLACK
6
CONTINUOUS
10
5.2183922834645671
20
-4.0141732283464568
11
5.2190841732283459
21
-4.012502913385827
0
LINE
8
BLACK
6
CONTINUOUS
10
5.2190841732283459
20
-4.012502913385827
11
5.2207544881889767
21
-4.0118110236220472
0
LINE
8
BLACK
6
CONTINUOUS
10
5.2207544881889767
20
-4.0118110236220472
11
5.2292455118110235
21
-4.0118110236220472
0
LINE
8
BLACK
6
CONTINUOUS
10
5.2292455118110235
20
-4.0118110236220472
11
5.2309158267716533
21
-4.012502913385827
0
LINE
8
BLACK
6
CONTINUOUS
10
5.6712383070866137
20
-4.0001886220472436
11
5.671929133858268
21
-4.0020866141732281
0
LINE
8
BLACK
6
CONTINUOUS
10
5.671929133858268
20
-4.0020866141732281
11
5.671929133858268
21
-4.0089763779527559
0
LINE
8
BLACK
6
CONTINUOUS
10
5.671929133858268
20
-4.0089763779527559
11
5.6718614960629923
21
-4.0093598818897638
0
LINE
8
BLACK
6
CONTINUOUS
10
5.6718614960629923
20
-4.0093598818897638
11
5.671884291338583
21
-4.0094891338582679
0
LINE
8
BLACK
6
CONTINUOUS
10
5.671884291338583
20
-4.0094891338582679
11
5.6718186614173227
21
-4.0096027165354329
0
LINE
8
BLACK
6
CONTINUOUS
10
5.6718186614173227
20
-4.0096027165354329
11
5.6717510629921257
21
-4.0099862992125983
0
LINE
8
BLACK
6
CONTINUOUS
10
5.6717510629921257
20
-4.0099862992125983
11
5.6712579133858263
21
-4.0105739763779527
0
LINE
8
BLACK
6
CONTINUOUS
10
5.6712579133858263
20
-4.0105739763779527
11
5.6708743700787396
21
-4.0112383070866144
0
LINE
8
BLACK
6
CONTINUOUS
10
5.6708743700787396
20
-4.0112383070866144
11
5.6706240157480314
21
-4.0113294094488188
0
LINE
8
BLACK
6
CONTINUOUS
10
5.6706240157480314
20
-4.0113294094488188
11
5.6704527559055116
21
-4.0115335433070864
0
LINE
8
BLACK
6
CONTINUOUS
10
5.6704527559055116
20
-4.0115335433070864
11
5.6696971653543304
21
-4.0116667716535428
0
LINE
8
BLACK
6
CONTINUOUS
10
5.6696971653543304
20
-4.0116667716535428
11
5.668976377952756
21
-4.0119291338582679
0
LINE
8
BLACK
6
CONTINUOUS
10
5.668976377952756
20
-4.0119291338582679
11
5.541023622047244
21
-4.0119291338582679
0
LINE
8
BLACK
6
CONTINUOUS
10
5.541023622047244
20
-4.0119291338582679
11
5.5406400787401573
21
-4.0118614960629921
0
LINE
8
BLACK
6
CONTINUOUS
10
5.5406400787401573
20
-4.0118614960629921
11
5.5405108661417319
21
-4.0118842913385828
0
LINE
8
BLACK
6
CONTINUOUS
10
5.5405108661417319
20
-4.0118842913385828
11
5.5403972440944882
21
-4.0118186614173226
0
LINE
8
BLACK
6
CONTINUOUS
10
5.5403972440944882
20
-4.0118186614173226
11
5.5400137007874015
21
-4.0117510629921256
0
LINE
8
BLACK
6
CONTINUOUS
10
5.5400137007874015
20
-4.0117510629921256
11
5.5394259842519684
21
-4.011257913385827
0
LINE
8
BLACK
6
CONTINUOUS
10
5.5394259842519684
20
-4.011257913385827
11
5.5387616929133854
21
-4.0108743700787404
0
LINE
8
BLACK
6
CONTINUOUS
10
5.5387616929133854
20
-4.0108743700787404
11
5.5386705511811023
21
-4.0106240157480313
0
LINE
8
BLACK
6
CONTINUOUS
10
5.5386705511811023
20
-4.0106240157480313
11
5.5384664566929134
21
-4.0104527559055114
0
LINE
8
BLACK
6
CONTINUOUS
10
5.5384664566929134
20
-4.0104527559055114
11
5.5383331889763774
21
-4.0096971653543303
0
LINE
8
BLACK
6
CONTINUOUS
10
5.5383331889763774
20
-4.0096971653543303
11
5.5380708661417319
21
-4.0089763779527559
0
LINE
8
BLACK
6
CONTINUOUS
10
5.5380708661417319
20
-4.0089763779527559
11
5.5380708661417319
21
-4.0020866141732281
0
LINE
8
BLACK
6
CONTINUOUS
10
5.5380708661417319
20
-4.0020866141732281
11
5.5382489370078742
21
-4.0010766929133856
0
LINE
8
BLACK
6
CONTINUOUS
10
5.5382489370078742
20
-4.0010766929133856
11
5.5395472440944884
21
-3.9995294488188975
0
LINE
8
BLACK
6
CONTINUOUS
10
5.5395472440944884
20
-3.9995294488188975
11
5.541536377952756
21
-3.9991787007874016
0
LINE
8
BLACK
6
CONTINUOUS
10
5.541536377952756
20
-3.9991787007874016
11
5.5432855511811026
21
-4.0001886220472436
0
LINE
8
BLACK
6
CONTINUOUS
10
5.5432855511811026
20
-4.0001886220472436
11
5.543976377952756
21
-4.0020866141732281
0
LINE
8
BLACK
6
CONTINUOUS
10
5.543976377952756
20
-4.0020866141732281
11
5.543976377952756
21
-4.0060236220472438
0
LINE
8
BLACK
6
CONTINUOUS
10
5.543976377952756
20
-4.0060236220472438
11
5.666023622047244
21
-4.0060236220472438
0
LINE
8
BLACK
6
CONTINUOUS
10
5.666023622047244
20
-4.0060236220472438
11
5.666023622047244
21
-4.0020866141732281
0
LINE
8
BLACK
6
CONTINUOUS
10
5.666023622047244
20
-4.0020866141732281
11
5.6662016929133854
21
-4.0010766929133856
0
LINE
8
BLACK
6
CONTINUOUS
10
5.6662016929133854
20
-4.0010766929133856
11
5.6674999999999995
21
-3.9995294488188975
0
LINE
8
BLACK
6
CONTINUOUS
10
5.6674999999999995
20
-3.9995294488188975
11
5.669489133858268
21
-3.9991787007874016
0
LINE
8
BLACK
6
CONTINUOUS
10
5.669489133858268
20
-3.9991787007874016
11
5.6712383070866137
21
-4.0001886220472436
0
LINE
8
BLACK
6
CONTINUOUS
10
5.4417096850393696
20
-3.9922808267716534
11
5.4424015748031493
21
-3.9939511417322833
0
LINE
8
BLACK
6
CONTINUOUS
10
5.4424015748031493
20
-3.9939511417322833
11
5.4424015748031493
21
-4.0060488582677163
0
LINE
8
BLACK
6
CONTINUOUS
10
5.4424015748031493
20
-4.0060488582677163
11
5.4417096850393696
21
-4.0077191732283461
0
LINE
8
BLACK
6
CONTINUOUS
10
5.4417096850393696
20
-4.0077191732283461
11
5.4400393700787397
21
-4.0084110629921259
0
LINE
8
BLACK
6
CONTINUOUS
10
5.4400393700787397
20
-4.0084110629921259
11
5.4383690551181099
21
-4.0077191732283461
0
LINE
8
BLACK
6
CONTINUOUS
10
5.4383690551181099
20
-4.0077191732283461
11
5.437677165354331
21
-4.0060488582677163
0
LINE
8
BLACK
6
CONTINUOUS
10
5.437677165354331
20
-4.0060488582677163
11
5.437677165354331
21
-3.9939511417322833
0
LINE
8
BLACK
6
CONTINUOUS
10
5.437677165354331
20
-3.9939511417322833
11
5.4383690551181099
21
-3.9922808267716534
0
LINE
8
BLACK
6
CONTINUOUS
10
5.4383690551181099
20
-3.9922808267716534
11
5.4400393700787397
21
-3.9915889370078741
0
LINE
8
BLACK
6
CONTINUOUS
10
5.4400393700787397
20
-3.9915889370078741
11
5.4417096850393696
21
-3.9922808267716534
0
LINE
8
BLACK
6
CONTINUOUS
10
5.4716309448818894
20
-3.9922808267716534
11
5.4723228346456692
21
-3.9939511417322833
0
LINE
8
BLACK
6
CONTINUOUS
10
5.4723228346456692
20
-3.9939511417322833
11
5.4723228346456692
21
-4.0060488582677163
0
LINE
8
BLACK
6
CONTINUOUS
10
5.4723228346456692
20
-4.0060488582677163
11
5.4716309448818894
21
-4.0077191732283461
0
LINE
8
BLACK
6
CONTINUOUS
10
5.4716309448818894
20
-4.0077191732283461
11
5.4699606299212595
21
-4.0084110629921259
0
LINE
8
BLACK
6
CONTINUOUS
10
5.4699606299212595
20
-4.0084110629921259
11
5.4682903149606297
21
-4.0077191732283461
0
LINE
8
BLACK
6
CONTINUOUS
10
5.4682903149606297
20
-4.0077191732283461
11
5.4675984251968499
21
-4.0060488582677163
0
LINE
8
BLACK
6
CONTINUOUS
10
5.4675984251968499
20
-4.0060488582677163
11
5.4675984251968499
21
-3.9939511417322833
0
LINE
8
BLACK
6
CONTINUOUS
10
5.4675984251968499
20
-3.9939511417322833
11
5.4682903149606297
21
-3.9922808267716534
0
LINE
8
BLACK
6
CONTINUOUS
10
5.4682903149606297
20
-3.9922808267716534
11
5.4699606299212595
21
-3.9915889370078741
0
LINE
8
BLACK
6
CONTINUOUS
10
5.4699606299212595
20
-3.9915889370078741
11
5.4716309448818894
21
-3.9922808267716534
0
LINE
8
BLACK
6
CONTINUOUS
10
5.2309158267716533
20
-3.9841564566929133
11
5.2316077165354331
21
-3.9858267716535432
0
LINE
8
BLACK
6
CONTINUOUS
10
5.2316077165354331
20
-3.9858267716535432
11
5.2309158267716533
21
-3.987497086614173
0
LINE
8
BLACK
6
CONTINUOUS
10
5.2309158267716533
20
-3.987497086614173
11
5.2292455118110235
21
-3.9881889763779528
0
LINE
8
BLACK
6
CONTINUOUS
10
5.2292455118110235
20
-3.9881889763779528
11
5.2207544881889767
21
-3.9881889763779528
0
LINE
8
BLACK
6
CONTINUOUS
10
5.2207544881889767
20
-3.9881889763779528
11
5.2190841732283459
21
-3.987497086614173
0
LINE
8
BLACK
6
CONTINUOUS
10
5.2190841732283459
20
-3.987497086614173
11
5.2183922834645671
21
-3.9858267716535432
0
LINE
8
BLACK
6
CONTINUOUS
10
5.2183922834645671
20
-3.9858267716535432
11
5.2190841732283459
21
-3.9841564566929133
0
LINE
8
BLACK
6
CONTINUOUS
10
5.2190841732283459
20
-3.9841564566929133
11
5.2207544881889767
21
-3.983464566929134
0
LINE
8
BLACK
6
CONTINUOUS
10
5.2207544881889767
20
-3.983464566929134
11
5.2292455118110235
21
-3.983464566929134
0
LINE
8
BLACK
6
CONTINUOUS
10
5.2292455118110235
20
-3.983464566929134
11
5.2309158267716533
21
-3.9841564566929133
0
LINE
8
BLACK
6
CONTINUOUS
10
5.2478533464566928
20
-3.9259508661417324
11
5.2483972440944884
21
-3.9260817322834645
0
LINE
8
BLACK
6
CONTINUOUS
10
5.2483972440944884
20
-3.9260817322834645
11
5.2485950787401574
21
-3.9264048818897637
0
LINE
8
BLACK
6
CONTINUOUS
10
5.2485950787401574
20
-3.9264048818897637
11
5.2489182677165349
21
-3.9266027559055119
0
LINE
8
BLACK
6
CONTINUOUS
10
5.2489182677165349
20
-3.9266027559055119
11
5.2583670866141734
21
-3.9395948818897635
0
LINE
8
BLACK
6
CONTINUOUS
10
5.2583670866141734
20
-3.9395948818897635
11
5.2585384251968499
21
-3.9403072047244092
0
LINE
8
BLACK
6
CONTINUOUS
10
5.2585384251968499
20
-3.9403072047244092
11
5.258818897637795
21
-3.9409842519685037
0
LINE
8
BLACK
6
CONTINUOUS
10
5.258818897637795
20
-3.9409842519685037
11
5.2587444881889764
21
-3.9411637795275589
0
LINE
8
BLACK
6
CONTINUOUS
10
5.2587444881889764
20
-3.9411637795275589
11
5.2587899606299215
21
-3.9413526771653542
0
LINE
8
BLACK
6
CONTINUOUS
10
5.2587899606299215
20
-3.9413526771653542
11
5.2584074015748028
21
-3.9419775590551178
0
LINE
8
BLACK
6
CONTINUOUS
10
5.2584074015748028
20
-3.9419775590551178
11
5.2581270078740152
21
-3.942654566929134
0
LINE
8
BLACK
6
CONTINUOUS
10
5.2581270078740152
20
-3.942654566929134
11
5.2579474803149608
21
-3.942728897637795
0
LINE
8
BLACK
6
CONTINUOUS
10
5.2579474803149608
20
-3.942728897637795
11
5.257846062992126
21
-3.9428946456692913
0
LINE
8
BLACK
6
CONTINUOUS
10
5.257846062992126
20
-3.9428946456692913
11
5.2571337007874011
21
-3.9430659842519682
0
LINE
8
BLACK
6
CONTINUOUS
10
5.2571337007874011
20
-3.9430659842519682
11
5.2564566929133854
21
-3.9433464566929133
0
LINE
8
BLACK
6
CONTINUOUS
10
5.2564566929133854
20
-3.9433464566929133
11
5.2375590551181102
21
-3.9433464566929133
0
LINE
8
BLACK
6
CONTINUOUS
10
5.2375590551181102
20
-3.9433464566929133
11
5.2368820078740157
21
-3.9430659842519682
0
LINE
8
BLACK
6
CONTINUOUS
10
5.2368820078740157
20
-3.9430659842519682
11
5.2361696850393695
21
-3.9428946456692913
0
LINE
8
BLACK
6
CONTINUOUS
10
5.2361696850393695
20
-3.9428946456692913
11
5.2360682283464568
21
-3.942728897637795
0
LINE
8
BLACK
6
CONTINUOUS
10
5.2360682283464568
20
-3.942728897637795
11
5.2358887401574803
21
-3.942654566929134
0
LINE
8
BLACK
6
CONTINUOUS
10
5.2358887401574803
20
-3.942654566929134
11
5.235608307086614
21
-3.9419775590551178
0
LINE
8
BLACK
6
CONTINUOUS
10
5.235608307086614
20
-3.9419775590551178
11
5.2352257874015748
21
-3.9413526771653542
0
LINE
8
BLACK
6
CONTINUOUS
10
5.2352257874015748
20
-3.9413526771653542
11
5.2352712204724412
21
-3.9411637795275589
0
LINE
8
BLACK
6
CONTINUOUS
10
5.2352712204724412
20
-3.9411637795275589
11
5.2351968503937005
21
-3.9409842519685037
0
LINE
8
BLACK
6
CONTINUOUS
10
5.2351968503937005
20
-3.9409842519685037
11
5.2354772834645669
21
-3.9403072047244092
0
LINE
8
BLACK
6
CONTINUOUS
10
5.2354772834645669
20
-3.9403072047244092
11
5.235648661417323
21
-3.9395948818897635
0
LINE
8
BLACK
6
CONTINUOUS
10
5.235648661417323
20
-3.9395948818897635
11
5.2450974803149606
21
-3.9266027559055119
0
LINE
8
BLACK
6
CONTINUOUS
10
5.2450974803149606
20
-3.9266027559055119
11
5.2454206299212593
21
-3.9264048818897637
0
LINE
8
BLACK
6
CONTINUOUS
10
5.2454206299212593
20
-3.9264048818897637
11
5.245618503937008
21
-3.9260817322834645
0
LINE
8
BLACK
6
CONTINUOUS
10
5.245618503937008
20
-3.9260817322834645
11
5.246162362204724
21
-3.9259508661417324
0
LINE
8
BLACK
6
CONTINUOUS
10
5.246162362204724
20
-3.9259508661417324
11
5.2466394488188977
21
-3.9256588582677163
0
LINE
8
BLACK
6
CONTINUOUS
10
5.2466394488188977
20
-3.9256588582677163
11
5.2470078740157478
21
-3.9257474803149606
0
LINE
8
BLACK
6
CONTINUOUS
10
5.2470078740157478
20
-3.9257474803149606
11
5.2473762992125987
21
-3.9256588582677163
0
LINE
8
BLACK
6
CONTINUOUS
10
5.2473762992125987
20
-3.9256588582677163
11
5.2478533464566928
21
-3.9259508661417324
0
LINE
8
BLACK
6
CONTINUOUS
10
5.3746624409448813
20
-3.9164792913385824
11
5.3753543307086611
21
-3.9181496062992127
0
LINE
8
BLACK
6
CONTINUOUS
10
5.3753543307086611
20
-3.9181496062992127
11
5.3753543307086611
21
-3.9279921259842521
0
LINE
8
BLACK
6
CONTINUOUS
10
5.3753543307086611
20
-3.9279921259842521
11
5.3746624409448813
21
-3.9296624409448819
0
LINE
8
BLACK
6
CONTINUOUS
10
5.3746624409448813
20
-3.9296624409448819
11
5.3729921259842515
21
-3.9303543307086612
0
LINE
8
BLACK
6
CONTINUOUS
10
5.3729921259842515
20
-3.9303543307086612
11
5.3631496062992126
21
-3.9303543307086612
0
LINE
8
BLACK
6
CONTINUOUS
10
5.3631496062992126
20
-3.9303543307086612
11
5.3614792913385827
21
-3.9296624409448819
0
LINE
8
BLACK
6
CONTINUOUS
10
5.3614792913385827
20
-3.9296624409448819
11
5.3607874015748029
21
-3.9279921259842521
0
LINE
8
BLACK
6
CONTINUOUS
10
5.3607874015748029
20
-3.9279921259842521
11
5.3614792913385827
21
-3.9263218110236218
0
LINE
8
BLACK
6
CONTINUOUS
10
5.3614792913385827
20
-3.9263218110236218
11
5.3631496062992126
21
-3.9256299212598424
0
LINE
8
BLACK
6
CONTINUOUS
10
5.3631496062992126
20
-3.9256299212598424
11
5.3706299212598427
21
-3.9256299212598424
0
LINE
8
BLACK
6
CONTINUOUS
10
5.3706299212598427
20
-3.9256299212598424
11
5.3706299212598427
21
-3.9181496062992127
0
LINE
8
BLACK
6
CONTINUOUS
10
5.3706299212598427
20
-3.9181496062992127
11
5.3713218110236216
21
-3.9164792913385824
0
LINE
8
BLACK
6
CONTINUOUS
10
5.3713218110236216
20
-3.9164792913385824
11
5.3729921259842515
21
-3.9157874015748031
0
LINE
8
BLACK
6
CONTINUOUS
10
5.3729921259842515
20
-3.9157874015748031
11
5.3746624409448813
21
-3.9164792913385824
0
LINE
8
BLACK
6
CONTINUOUS
10
5.4417096850393696
20
-3.9072808267716534
11
5.4424015748031493
21
-3.9089511417322833
0
LINE
8
BLACK
6
CONTINUOUS
10
5.4424015748031493
20
-3.9089511417322833
11
5.4424015748031493
21
-3.9210488582677163
0
LINE
8
BLACK
6
CONTINUOUS
10
5.4424015748031493
20
-3.9210488582677163
11
5.4417096850393696
21
-3.9227191732283462
0
LINE
8
BLACK
6
CONTINUOUS
10
5.4417096850393696
20
-3.9227191732283462
11
5.4400393700787397
21
-3.9234110629921259
0
LINE
8
BLACK
6
CONTINUOUS
10
5.4400393700787397
20
-3.9234110629921259
11
5.4383690551181099
21
-3.9227191732283462
0
LINE
8
BLACK
6
CONTINUOUS
10
5.4383690551181099
20
-3.9227191732283462
11
5.437677165354331
21
-3.9210488582677163
0
LINE
8
BLACK
6
CONTINUOUS
10
5.437677165354331
20
-3.9210488582677163
11
5.437677165354331
21
-3.9089511417322833
0
LINE
8
BLACK
6
CONTINUOUS
10
5.437677165354331
20
-3.9089511417322833
11
5.4383690551181099
21
-3.9072808267716534
0
LINE
8
BLACK
6
CONTINUOUS
10
5.4383690551181099
20
-3.9072808267716534
11
5.4400393700787397
21
-3.9065889370078741
0
LINE
8
BLACK
6
CONTINUOUS
10
5.4400393700787397
20
-3.9065889370078741
11
5.4417096850393696
21
-3.9072808267716534
0
LINE
8
BLACK
6
CONTINUOUS
10
5.4716309448818894
20
-3.9072808267716534
11
5.4723228346456692
21
-3.9089511417322833
0
LINE
8
BLACK
6
CONTINUOUS
10
5.4723228346456692
20
-3.9089511417322833
11
5.4723228346456692
21
-3.9210488582677163
0
LINE
8
BLACK
6
CONTINUOUS
10
5.4723228346456692
20
-3.9210488582677163
11
5.4716309448818894
21
-3.9227191732283462
0
LINE
8
BLACK
6
CONTINUOUS
10
5.4716309448818894
20
-3.9227191732283462
11
5.4699606299212595
21
-3.9234110629921259
0
LINE
8
BLACK
6
CONTINUOUS
10
5.4699606299212595
20
-3.9234110629921259
11
5.4682903149606297
21
-3.9227191732283462
0
LINE
8
BLACK
6
CONTINUOUS
10
5.4682903149606297
20
-3.9227191732283462
11
5.4675984251968499
21
-3.9210488582677163
0
LINE
8
BLACK
6
CONTINUOUS
10
5.4675984251968499
20
-3.9210488582677163
11
5.4675984251968499
21
-3.9089511417322833
0
LINE
8
BLACK
6
CONTINUOUS
10
5.4675984251968499
20
-3.9089511417322833
11
5.4682903149606297
21
-3.9072808267716534
0
LINE
8
BLACK
6
CONTINUOUS
10
5.4682903149606297
20
-3.9072808267716534
11
5.4699606299212595
21
-3.9065889370078741
0
LINE
8
BLACK
6
CONTINUOUS
10
5.4699606299212595
20
-3.9065889370078741
11
5.4716309448818894
21
-3.9072808267716534
0
LINE
8
BLACK
6
CONTINUOUS
10
5.6693598818897639
20
-3.8781384645669292
11
5.669489133858268
21
-3.8781157086614173
0
LINE
8
BLACK
6
CONTINUOUS
10
5.669489133858268
20
-3.8781157086614173
11
5.669602716535433
21
-3.8781812992125984
0
LINE
8
BLACK
6
CONTINUOUS
10
5.669602716535433
20
-3.8781812992125984
11
5.6699862992125984
21
-3.8782489370078741
0
LINE
8
BLACK
6
CONTINUOUS
10
5.6699862992125984
20
-3.8782489370078741
11
5.6705739763779528
21
-3.8787420472440943
0
LINE
8
BLACK
6
CONTINUOUS
10
5.6705739763779528
20
-3.8787420472440943
11
5.6712383070866137
21
-3.8791256299212598
0
LINE
8
BLACK
6
CONTINUOUS
10
5.6712383070866137
20
-3.8791256299212598
11
5.6713294094488189
21
-3.8793759448818896
0
LINE
8
BLACK
6
CONTINUOUS
10
5.6713294094488189
20
-3.8793759448818896
11
5.6715335433070866
21
-3.8795472440944883
0
LINE
8
BLACK
6
CONTINUOUS
10
5.6715335433070866
20
-3.8795472440944883
11
5.6716667716535429
21
-3.8803027952755906
0
LINE
8
BLACK
6
CONTINUOUS
10
5.6716667716535429
20
-3.8803027952755906
11
5.671929133858268
21
-3.8810236220472438
0
LINE
8
BLACK
6
CONTINUOUS
10
5.671929133858268
20
-3.8810236220472438
11
5.671929133858268
21
-3.8879133858267716
0
LINE
8
BLACK
6
CONTINUOUS
10
5.671929133858268
20
-3.8879133858267716
11
5.6717510629921257
21
-3.888923307086614
0
LINE
8
BLACK
6
CONTINUOUS
10
5.6717510629921257
20
-3.888923307086614
11
5.6704527559055116
21
-3.8904705511811022
0
LINE
8
BLACK
6
CONTINUOUS
10
5.6704527559055116
20
-3.8904705511811022
11
5.668463622047244
21
-3.8908212992125981
0
LINE
8
BLACK
6
CONTINUOUS
10
5.668463622047244
20
-3.8908212992125981
11
5.6667144488188974
21
-3.8898113779527557
0
LINE
8
BLACK
6
CONTINUOUS
10
5.6667144488188974
20
-3.8898113779527557
11
5.666023622047244
21
-3.8879133858267716
0
LINE
8
BLACK
6
CONTINUOUS
10
5.666023622047244
20
-3.8879133858267716
11
5.666023622047244
21
-3.8839763779527559
0
LINE
8
BLACK
6
CONTINUOUS
10
5.666023622047244
20
-3.8839763779527559
11
5.543976377952756
21
-3.8839763779527559
0
LINE
8
BLACK
6
CONTINUOUS
10
5.543976377952756
20
-3.8839763779527559
11
5.543976377952756
21
-3.8879133858267716
0
LINE
8
BLACK
6
CONTINUOUS
10
5.543976377952756
20
-3.8879133858267716
11
5.5437983070866137
21
-3.888923307086614
0
LINE
8
BLACK
6
CONTINUOUS
10
5.5437983070866137
20
-3.888923307086614
11
5.5424999999999995
21
-3.8904705511811022
0
LINE
8
BLACK
6
CONTINUOUS
10
5.5424999999999995
20
-3.8904705511811022
11
5.5405108661417319
21
-3.8908212992125981
0
LINE
8
BLACK
6
CONTINUOUS
10
5.5405108661417319
20
-3.8908212992125981
11
5.5387616929133854
21
-3.8898113779527557
0
LINE
8
BLACK
6
CONTINUOUS
10
5.5387616929133854
20
-3.8898113779527557
11
5.5380708661417319
21
-3.8879133858267716
0
LINE
8
BLACK
6
CONTINUOUS
10
5.5380708661417319
20
-3.8879133858267716
11
5.5380708661417319
21
-3.8810236220472438
0
LINE
8
BLACK
6
CONTINUOUS
10
5.5380708661417319
20
-3.8810236220472438
11
5.5381384645669289
21
-3.8806400787401576
0
LINE
8
BLACK
6
CONTINUOUS
10
5.5381384645669289
20
-3.8806400787401576
11
5.538115708661417
21
-3.8805108661417322
0
LINE
8
BLACK
6
CONTINUOUS
10
5.538115708661417
20
-3.8805108661417322
11
5.5381812992125985
21
-3.8803972440944881
0
LINE
8
BLACK
6
CONTINUOUS
10
5.5381812992125985
20
-3.8803972440944881
11
5.5382489370078742
21
-3.8800137007874014
0
LINE
8
BLACK
6
CONTINUOUS
10
5.5382489370078742
20
-3.8800137007874014
11
5.538742047244094
21
-3.8794259842519683
0
LINE
8
BLACK
6
CONTINUOUS
10
5.538742047244094
20
-3.8794259842519683
11
5.5391256299212595
21
-3.8787616929133857
0
LINE
8
BLACK
6
CONTINUOUS
10
5.5391256299212595
20
-3.8787616929133857
11
5.5393759448818898
21
-3.8786705511811022
0
LINE
8
BLACK
6
CONTINUOUS
10
5.5393759448818898
20
-3.8786705511811022
11
5.5395472440944884
21
-3.8784664566929132
0
LINE
8
BLACK
6
CONTINUOUS
10
5.5395472440944884
20
-3.8784664566929132
11
5.5403027952755908
21
-3.8783331889763777
0
LINE
8
BLACK
6
CONTINUOUS
10
5.5403027952755908
20
-3.8783331889763777
11
5.541023622047244
21
-3.8780708661417322
0
LINE
8
BLACK
6
CONTINUOUS
10
5.541023622047244
20
-3.8780708661417322
11
5.668976377952756
21
-3.8780708661417322
0
LINE
8
BLACK
6
CONTINUOUS
10
5.668976377952756
20
-3.8780708661417322
11
5.6693598818897639
21
-3.8781384645669292
0
LINE
8
BLACK
6
CONTINUOUS
10
4.9091201574803147
20
-3.8080914566929134
11
4.9106674015748029
21
-3.8093897637795275
0
LINE
8
BLACK
6
CONTINUOUS
10
4.9106674015748029
20
-3.8093897637795275
11
4.9110181496062992
21
-3.8113788976377951
0
LINE
8
BLACK
6
CONTINUOUS
10
4.9110181496062992
20
-3.8113788976377951
11
4.9100082283464568
21
-3.8131280708661417
0
LINE
8
BLACK
6
CONTINUOUS
10
4.9100082283464568
20
-3.8131280708661417
11
4.9081102362204723
21
-3.8138188976377951
0
LINE
8
BLACK
6
CONTINUOUS
10
4.9081102362204723
20
-3.8138188976377951
11
4.8382283464566926
21
-3.8138188976377951
0
LINE
8
BLACK
6
CONTINUOUS
10
4.8382283464566926
20
-3.8138188976377951
11
4.8382283464566926
21
-3.8640157480314961
0
LINE
8
BLACK
6
CONTINUOUS
10
4.8382283464566926
20
-3.8640157480314961
11
4.8380502755905512
21
-3.8650256692913385
0
LINE
8
BLACK
6
CONTINUOUS
10
4.8380502755905512
20
-3.8650256692913385
11
4.8367519685039371
21
-3.8665729133858266
0
LINE
8
BLACK
6
CONTINUOUS
10
4.8367519685039371
20
-3.8665729133858266
11
4.8347628346456695
21
-3.8669236614173226
0
LINE
8
BLACK
6
CONTINUOUS
10
4.8347628346456695
20
-3.8669236614173226
11
4.8330136614173229
21
-3.8659137401574801
0
LINE
8
BLACK
6
CONTINUOUS
10
4.8330136614173229
20
-3.8659137401574801
11
4.8323228346456695
21
-3.8640157480314961
0
LINE
8
BLACK
6
CONTINUOUS
10
4.8323228346456695
20
-3.8640157480314961
11
4.8323228346456695
21
-3.8108661417322836
0
LINE
8
BLACK
6
CONTINUOUS
10
4.8323228346456695
20
-3.8108661417322836
11
4.8323904330708665
21
-3.8104825984251969
0
LINE
8
BLACK
6
CONTINUOUS
10
4.8323904330708665
20
-3.8104825984251969
11
4.8323676771653545
21
-3.8103533858267715
0
LINE
8
BLACK
6
CONTINUOUS
10
4.8323676771653545
20
-3.8103533858267715
11
4.8324332677165351
21
-3.8102397637795273
0
LINE
8
BLACK
6
CONTINUOUS
10
4.8324332677165351
20
-3.8102397637795273
11
4.8325009055118109
21
-3.8098562204724407
0
LINE
8
BLACK
6
CONTINUOUS
10
4.8325009055118109
20
-3.8098562204724407
11
4.8329940157480316
21
-3.809268503937008
0
LINE
8
BLACK
6
CONTINUOUS
10
4.8329940157480316
20
-3.809268503937008
11
4.833377598425197
21
-3.808604212598425
0
LINE
8
BLACK
6
CONTINUOUS
10
4.833377598425197
20
-3.808604212598425
11
4.8336279133858264
21
-3.8085130708661414
0
LINE
8
BLACK
6
CONTINUOUS
10
4.8336279133858264
20
-3.8085130708661414
11
4.833799212598425
21
-3.8083089763779525
0
LINE
8
BLACK
6
CONTINUOUS
10
4.833799212598425
20
-3.8083089763779525
11
4.8345547637795274
21
-3.8081757086614174
0
LINE
8
BLACK
6
CONTINUOUS
10
4.8345547637795274
20
-3.8081757086614174
11
4.8352755905511806
21
-3.8079133858267715
0
LINE
8
BLACK
6
CONTINUOUS
10
4.8352755905511806
20
-3.8079133858267715
11
4.9081102362204723
21
-3.8079133858267715
0
LINE
8
BLACK
6
CONTINUOUS
10
4.9081102362204723
20
-3.8079133858267715
11
4.9091201574803147
21
-3.8080914566929134
0
LINE
8
BLACK
6
CONTINUOUS
10
5.1703047637795274
20
-3.8079809842519685
11
5.1704340157480315
21
-3.8079582283464566
0
LINE
8
BLACK
6
CONTINUOUS
10
5.1704340157480315
20
-3.8079582283464566
11
5.1705475984251965
21
-3.8080238188976376
0
LINE
8
BLACK
6
CONTINUOUS
10
5.1705475984251965
20
-3.8080238188976376
11
5.1709311811023619
21
-3.8080914566929134
0
LINE
8
BLACK
6
CONTINUOUS
10
5.1709311811023619
20
-3.8080914566929134
11
5.1715188582677163
21
-3.8085845669291336
0
LINE
8
BLACK
6
CONTINUOUS
10
5.1715188582677163
20
-3.8085845669291336
11
5.1721831889763781
21
-3.808968149606299
0
LINE
8
BLACK
6
CONTINUOUS
10
5.1721831889763781
20
-3.808968149606299
11
5.1722742913385824
21
-3.8092184645669289
0
LINE
8
BLACK
6
CONTINUOUS
10
5.1722742913385824
20
-3.8092184645669289
11
5.1724784251968501
21
-3.8093897637795275
0
LINE
8
BLACK
6
CONTINUOUS
10
5.1724784251968501
20
-3.8093897637795275
11
5.1726116535433073
21
-3.8101453149606299
0
LINE
8
BLACK
6
CONTINUOUS
10
5.1726116535433073
20
-3.8101453149606299
11
5.1728740157480315
21
-3.8108661417322836
0
LINE
8
BLACK
6
CONTINUOUS
10
5.1728740157480315
20
-3.8108661417322836
11
5.1728740157480315
21
-3.8640157480314961
0
LINE
8
BLACK
6
CONTINUOUS
10
5.1728740157480315
20
-3.8640157480314961
11
5.1726959448818892
21
-3.8650256692913385
0
LINE
8
BLACK
6
CONTINUOUS
10
5.1726959448818892
20
-3.8650256692913385
11
5.1713976377952751
21
-3.8665729133858266
0
LINE
8
BLACK
6
CONTINUOUS
10
5.1713976377952751
20
-3.8665729133858266
11
5.1694085039370075
21
-3.8669236614173226
0
LINE
8
BLACK
6
CONTINUOUS
10
5.1694085039370075
20
-3.8669236614173226
11
5.1676593307086609
21
-3.8659137401574801
0
LINE
8
BLACK
6
CONTINUOUS
10
5.1676593307086609
20
-3.8659137401574801
11
5.1669685039370075
21
-3.8640157480314961
0
LINE
8
BLACK
6
CONTINUOUS
10
5.1669685039370075
20
-3.8640157480314961
11
5.1669685039370075
21
-3.8138188976377951
0
LINE
8
BLACK
6
CONTINUOUS
10
5.1669685039370075
20
-3.8138188976377951
11
5.0970866141732278
21
-3.8138188976377951
0
LINE
8
BLACK
6
CONTINUOUS
10
5.0970866141732278
20
-3.8138188976377951
11
5.0960766929133854
21
-3.8136408267716533
0
LINE
8
BLACK
6
CONTINUOUS
10
5.0960766929133854
20
-3.8136408267716533
11
5.0945294488188972
21
-3.8123425196850391
0
LINE
8
BLACK
6
CONTINUOUS
10
5.0945294488188972
20
-3.8123425196850391
11
5.0941787007874018
21
-3.8103533858267715
0
LINE
8
BLACK
6
CONTINUOUS
10
5.0941787007874018
20
-3.8103533858267715
11
5.0951886220472442
21
-3.808604212598425
0
LINE
8
BLACK
6
CONTINUOUS
10
5.0951886220472442
20
-3.808604212598425
11
5.0970866141732278
21
-3.8079133858267715
0
LINE
8
BLACK
6
CONTINUOUS
10
5.0970866141732278
20
-3.8079133858267715
11
5.1699212598425195
21
-3.8079133858267715
0
LINE
8
BLACK
6
CONTINUOUS
10
5.1699212598425195
20
-3.8079133858267715
11
5.1703047637795274
21
-3.8079809842519685
0
LINE
8
BLACK
6
CONTINUOUS
10
5.5117191732283466
20
-3.8612903149606299
11
5.5124110629921255
21
-3.8629606299212598
0
LINE
8
BLACK
6
CONTINUOUS
10
5.5124110629921255
20
-3.8629606299212598
11
5.5117191732283466
21
-3.8646309448818896
0
LINE
8
BLACK
6
CONTINUOUS
10
5.5117191732283466
20
-3.8646309448818896
11
5.5100488582677167
21
-3.8653228346456694
0
LINE
8
BLACK
6
CONTINUOUS
10
5.5100488582677167
20
-3.8653228346456694
11
5.4979511417322833
21
-3.8653228346456694
0
LINE
8
BLACK
6
CONTINUOUS
10
5.4979511417322833
20
-3.8653228346456694
11
5.4962808267716534
21
-3.8646309448818896
0
LINE
8
BLACK
6
CONTINUOUS
10
5.4962808267716534
20
-3.8646309448818896
11
5.4955889370078737
21
-3.8629606299212598
0
LINE
8
BLACK
6
CONTINUOUS
10
5.4955889370078737
20
-3.8629606299212598
11
5.4962808267716534
21
-3.8612903149606299
0
LINE
8
BLACK
6
CONTINUOUS
10
5.4962808267716534
20
-3.8612903149606299
11
5.4979511417322833
21
-3.8605984251968501
0
LINE
8
BLACK
6
CONTINUOUS
10
5.4979511417322833
20
-3.8605984251968501
11
5.5100488582677167
21
-3.8605984251968501
0
LINE
8
BLACK
6
CONTINUOUS
10
5.5100488582677167
20
-3.8605984251968501
11
5.5117191732283466
21
-3.8612903149606299
0
LINE
8
BLACK
6
CONTINUOUS
10
5.6227191732283464
20
-3.8592903149606297
11
5.6234110629921261
21
-3.8609606299212595
0
LINE
8
BLACK
6
CONTINUOUS
10
5.6234110629921261
20
-3.8609606299212595
11
5.6227191732283464
21
-3.8626309448818898
0
LINE
8
BLACK
6
CONTINUOUS
10
5.6227191732283464
20
-3.8626309448818898
11
5.6210488582677165
21
-3.8633228346456692
0
LINE
8
BLACK
6
CONTINUOUS
10
5.6210488582677165
20
-3.8633228346456692
11
5.608951141732283
21
-3.8633228346456692
0
LINE
8
BLACK
6
CONTINUOUS
10
5.608951141732283
20
-3.8633228346456692
11
5.6072808267716532
21
-3.8626309448818898
0
LINE
8
BLACK
6
CONTINUOUS
10
5.6072808267716532
20
-3.8626309448818898
11
5.6065889370078743
21
-3.8609606299212595
0
LINE
8
BLACK
6
CONTINUOUS
10
5.6065889370078743
20
-3.8609606299212595
11
5.6072808267716532
21
-3.8592903149606297
0
LINE
8
BLACK
6
CONTINUOUS
10
5.6072808267716532
20
-3.8592903149606297
11
5.608951141732283
21
-3.8585984251968504
0
LINE
8
BLACK
6
CONTINUOUS
10
5.608951141732283
20
-3.8585984251968504
11
5.6210488582677165
21
-3.8585984251968504
0
LINE
8
BLACK
6
CONTINUOUS
10
5.6210488582677165
20
-3.8585984251968504
11
5.6227191732283464
21
-3.8592903149606297
0
LINE
8
BLACK
6
CONTINUOUS
10
5.8444262204724406
20
-3.7763218110236219
11
5.8451181102362204
21
-3.7779921259842517
0
LINE
8
BLACK
6
CONTINUOUS
10
5.8451181102362204
20
-3.7779921259842517
11
5.8444262204724406
21
-3.779662440944882
0
LINE
8
BLACK
6
CONTINUOUS
10
5.8444262204724406
20
-3.779662440944882
11
5.8427559055118108
21
-3.7803543307086613
0
LINE
8
BLACK
6
CONTINUOUS
10
5.8427559055118108
20
-3.7803543307086613
11
5.7880314960629917
21
-3.7803543307086613
0
LINE
8
BLACK
6
CONTINUOUS
10
5.7880314960629917
20
-3.7803543307086613
11
5.7880314960629917
21
-3.8488582677165355
0
LINE
8
BLACK
6
CONTINUOUS
10
5.7880314960629917
20
-3.8488582677165355
11
5.7873396062992128
21
-3.8505285826771654
0
LINE
8
BLACK
6
CONTINUOUS
10
5.7873396062992128
20
-3.8505285826771654
11
5.785669291338583
21
-3.8512204724409447
0
LINE
8
BLACK
6
CONTINUOUS
10
5.785669291338583
20
-3.8512204724409447
11
5.7466929133858269
21
-3.8512204724409447
0
LINE
8
BLACK
6
CONTINUOUS
10
5.7466929133858269
20
-3.8512204724409447
11
5.745022598425197
21
-3.8505285826771654
0
LINE
8
BLACK
6
CONTINUOUS
10
5.745022598425197
20
-3.8505285826771654
11
5.7443307086614173
21
-3.8488582677165355
0
LINE
8
BLACK
6
CONTINUOUS
10
5.7443307086614173
20
-3.8488582677165355
11
5.745022598425197
21
-3.8471879527559056
0
LINE
8
BLACK
6
CONTINUOUS
10
5.745022598425197
20
-3.8471879527559056
11
5.7466929133858269
21
-3.8464960629921259
0
LINE
8
BLACK
6
CONTINUOUS
10
5.7466929133858269
20
-3.8464960629921259
11
5.7833070866141734
21
-3.8464960629921259
0
LINE
8
BLACK
6
CONTINUOUS
10
5.7833070866141734
20
-3.8464960629921259
11
5.7833070866141734
21
-3.7779921259842517
0
LINE
8
BLACK
6
CONTINUOUS
10
5.7833070866141734
20
-3.7779921259842517
11
5.7839989763779522
21
-3.7763218110236219
0
LINE
8
BLACK
6
CONTINUOUS
10
5.7839989763779522
20
-3.7763218110236219
11
5.785669291338583
21
-3.7756299212598425
0
LINE
8
BLACK
6
CONTINUOUS
10
5.785669291338583
20
-3.7756299212598425
11
5.8427559055118108
21
-3.7756299212598425
0
LINE
8
BLACK
6
CONTINUOUS
10
5.8427559055118108
20
-3.7756299212598425
11
5.8444262204724406
21
-3.7763218110236219
0
LINE
8
BLACK
6
CONTINUOUS
10
5.154074803149606
20
-3.8169164566929132
11
5.1575208267716537
21
-3.819807992125984
0
LINE
8
BLACK
6
CONTINUOUS
10
5.1575208267716537
20
-3.819807992125984
11
5.1597700393700787
21
-3.8237037401574803
0
LINE
8
BLACK
6
CONTINUOUS
10
5.1597700393700787
20
-3.8237037401574803
11
5.1605511811023623
21
-3.8281338582677162
0
LINE
8
BLACK
6
CONTINUOUS
10
5.1605511811023623
20
-3.8281338582677162
11
5.1597700393700787
21
-3.8325639763779527
0
LINE
8
BLACK
6
CONTINUOUS
10
5.1597700393700787
20
-3.8325639763779527
11
5.1575208267716537
21
-3.8364597244094489
0
LINE
8
BLACK
6
CONTINUOUS
10
5.1575208267716537
20
-3.8364597244094489
11
5.154074803149606
21
-3.8393512598425197
0
LINE
8
BLACK
6
CONTINUOUS
10
5.154074803149606
20
-3.8393512598425197
11
5.1498476377952755
21
-3.8408898425196849
0
LINE
8
BLACK
6
CONTINUOUS
10
5.1498476377952755
20
-3.8408898425196849
11
5.1453492125984255
21
-3.8408898425196849
0
LINE
8
BLACK
6
CONTINUOUS
10
5.1453492125984255
20
-3.8408898425196849
11
5.1411220472440942
21
-3.8393512598425197
0
LINE
8
BLACK
6
CONTINUOUS
10
5.1411220472440942
20
-3.8393512598425197
11
5.1376760236220473
21
-3.8364597244094489
0
LINE
8
BLACK
6
CONTINUOUS
10
5.1376760236220473
20
-3.8364597244094489
11
5.1354268110236223
21
-3.8325639763779527
0
LINE
8
BLACK
6
CONTINUOUS
10
5.1354268110236223
20
-3.8325639763779527
11
5.1346456692913387
21
-3.8281338582677162
0
LINE
8
BLACK
6
CONTINUOUS
10
5.1346456692913387
20
-3.8281338582677162
11
5.1354268110236223
21
-3.8237037401574803
0
LINE
8
BLACK
6
CONTINUOUS
10
5.1354268110236223
20
-3.8237037401574803
11
5.1376760236220473
21
-3.819807992125984
0
LINE
8
BLACK
6
CONTINUOUS
10
5.1376760236220473
20
-3.819807992125984
11
5.1411220472440942
21
-3.8169164566929132
0
LINE
8
BLACK
6
CONTINUOUS
10
5.1411220472440942
20
-3.8169164566929132
11
5.1453492125984255
21
-3.815377874015748
0
LINE
8
BLACK
6
CONTINUOUS
10
5.1453492125984255
20
-3.815377874015748
11
5.1498476377952755
21
-3.815377874015748
0
LINE
8
BLACK
6
CONTINUOUS
10
5.1498476377952755
20
-3.815377874015748
11
5.154074803149606
21
-3.8169164566929132
0
LINE
8
BLACK
6
CONTINUOUS
10
5.1410857874015745
20
-3.831270157480315
11
5.1430915354330704
21
-3.8337853149606298
0
LINE
8
BLACK
6
CONTINUOUS
10
5.1430915354330704
20
-3.8337853149606298
11
5.1459899212598428
21
-3.8351811023622044
0
LINE
8
BLACK
6
CONTINUOUS
10
5.1459899212598428
20
-3.8351811023622044
11
5.1492069291338582
21
-3.8351811023622044
0
LINE
8
BLACK
6
CONTINUOUS
10
5.1492069291338582
20
-3.8351811023622044
11
5.1521053149606297
21
-3.8337853149606298
0
LINE
8
BLACK
6
CONTINUOUS
10
5.1521053149606297
20
-3.8337853149606298
11
5.1541110629921256
21
-3.831270157480315
0
LINE
8
BLACK
6
CONTINUOUS
10
5.1541110629921256
20
-3.831270157480315
11
5.154826889763779
21
-3.8281338582677162
0
LINE
8
BLACK
6
CONTINUOUS
10
5.154826889763779
20
-3.8281338582677162
11
5.1541110629921256
21
-3.824997559055118
0
LINE
8
BLACK
6
CONTINUOUS
10
5.1541110629921256
20
-3.824997559055118
11
5.1521053149606297
21
-3.8224824015748031
0
LINE
8
BLACK
6
CONTINUOUS
10
5.1521053149606297
20
-3.8224824015748031
11
5.1492069291338582
21
-3.8210866141732285
0
LINE
8
BLACK
6
CONTINUOUS
10
5.1492069291338582
20
-3.8210866141732285
11
5.1459899212598428
21
-3.8210866141732285
0
LINE
8
BLACK
6
CONTINUOUS
10
5.1459899212598428
20
-3.8210866141732285
11
5.1430915354330704
21
-3.8224824015748031
0
LINE
8
BLACK
6
CONTINUOUS
10
5.1430915354330704
20
-3.8224824015748031
11
5.1410857874015745
21
-3.824997559055118
0
LINE
8
BLACK
6
CONTINUOUS
10
5.1410857874015745
20
-3.824997559055118
11
5.1403699606299211
21
-3.8281338582677162
0
LINE
8
BLACK
6
CONTINUOUS
10
5.1403699606299211
20
-3.8281338582677162
11
5.1410857874015745
21
-3.831270157480315
0
LINE
8
BLACK
6
CONTINUOUS
10
5.5117191732283466
20
-3.8313690551181101
11
5.5124110629921255
21
-3.83303937007874
0
LINE
8
BLACK
6
CONTINUOUS
10
5.5124110629921255
20
-3.83303937007874
11
5.5117191732283466
21
-3.8347096850393698
0
LINE
8
BLACK
6
CONTINUOUS
10
5.5117191732283466
20
-3.8347096850393698
11
5.5100488582677167
21
-3.8354015748031496
0
LINE
8
BLACK
6
CONTINUOUS
10
5.5100488582677167
20
-3.8354015748031496
11
5.4979511417322833
21
-3.8354015748031496
0
LINE
8
BLACK
6
CONTINUOUS
10
5.4979511417322833
20
-3.8354015748031496
11
5.4962808267716534
21
-3.8347096850393698
0
LINE
8
BLACK
6
CONTINUOUS
10
5.4962808267716534
20
-3.8347096850393698
11
5.4955889370078737
21
-3.83303937007874
0
LINE
8
BLACK
6
CONTINUOUS
10
5.4955889370078737
20
-3.83303937007874
11
5.4962808267716534
21
-3.8313690551181101
0
LINE
8
BLACK
6
CONTINUOUS
10
5.4962808267716534
20
-3.8313690551181101
11
5.4979511417322833
21
-3.8306771653543308
0
LINE
8
BLACK
6
CONTINUOUS
10
5.4979511417322833
20
-3.8306771653543308
11
5.5100488582677167
21
-3.8306771653543308
0
LINE
8
BLACK
6
CONTINUOUS
10
5.5100488582677167
20
-3.8306771653543308
11
5.5117191732283466
21
-3.8313690551181101
0
LINE
8
BLACK
6
CONTINUOUS
10
5.6227191732283464
20
-3.8293690551181103
11
5.6234110629921261
21
-3.8310393700787402
0
LINE
8
BLACK
6
CONTINUOUS
10
5.6234110629921261
20
-3.8310393700787402
11
5.6227191732283464
21
-3.83270968503937
0
LINE
8
BLACK
6
CONTINUOUS
10
5.6227191732283464
20
-3.83270968503937
11
5.6210488582677165
21
-3.8334015748031494
0
LINE
8
BLACK
6
CONTINUOUS
10
5.6210488582677165
20
-3.8334015748031494
11
5.608951141732283
21
-3.8334015748031494
0
LINE
8
BLACK
6
CONTINUOUS
10
5.608951141732283
20
-3.8334015748031494
11
5.6072808267716532
21
-3.83270968503937
0
LINE
8
BLACK
6
CONTINUOUS
10
5.6072808267716532
20
-3.83270968503937
11
5.6065889370078743
21
-3.8310393700787402
0
LINE
8
BLACK
6
CONTINUOUS
10
5.6065889370078743
20
-3.8310393700787402
11
5.6072808267716532
21
-3.8293690551181103
0
LINE
8
BLACK
6
CONTINUOUS
10
5.6072808267716532
20
-3.8293690551181103
11
5.608951141732283
21
-3.8286771653543306
0
LINE
8
BLACK
6
CONTINUOUS
10
5.608951141732283
20
-3.8286771653543306
11
5.6210488582677165
21
-3.8286771653543306
0
LINE
8
BLACK
6
CONTINUOUS
10
5.6210488582677165
20
-3.8286771653543306
11
5.6227191732283464
21
-3.8293690551181103
0
LINE
8
BLACK
6
CONTINUOUS
10
5.4114970866141734
20
-3.8180841732283466
11
5.4121889763779523
21
-3.8197544881889764
0
LINE
8
BLACK
6
CONTINUOUS
10
5.4121889763779523
20
-3.8197544881889764
11
5.4121889763779523
21
-3.8282455118110237
0
LINE
8
BLACK
6
CONTINUOUS
10
5.4121889763779523
20
-3.8282455118110237
11
5.4114970866141734
21
-3.8299158267716535
0
LINE
8
BLACK
6
CONTINUOUS
10
5.4114970866141734
20
-3.8299158267716535
11
5.4098267716535435
21
-3.8306077165354329
0
LINE
8
BLACK
6
CONTINUOUS
10
5.4098267716535435
20
-3.8306077165354329
11
5.4081564566929137
21
-3.8299158267716535
0
LINE
8
BLACK
6
CONTINUOUS
10
5.4081564566929137
20
-3.8299158267716535
11
5.4074645669291339
21
-3.8282455118110237
0
LINE
8
BLACK
6
CONTINUOUS
10
5.4074645669291339
20
-3.8282455118110237
11
5.4074645669291339
21
-3.8197544881889764
0
LINE
8
BLACK
6
CONTINUOUS
10
5.4074645669291339
20
-3.8197544881889764
11
5.4081564566929137
21
-3.8180841732283466
0
LINE
8
BLACK
6
CONTINUOUS
10
5.4081564566929137
20
-3.8180841732283466
11
5.4098267716535435
21
-3.8173922834645668
0
LINE
8
BLACK
6
CONTINUOUS
10
5.4098267716535435
20
-3.8173922834645668
11
5.4114970866141734
21
-3.8180841732283466
0
LINE
8
BLACK
6
CONTINUOUS
10
5.4398435433070862
20
-3.8180841732283466
11
5.440535433070866
21
-3.8197544881889764
0
LINE
8
BLACK
6
CONTINUOUS
10
5.440535433070866
20
-3.8197544881889764
11
5.440535433070866
21
-3.8282455118110237
0
LINE
8
BLACK
6
CONTINUOUS
10
5.440535433070866
20
-3.8282455118110237
11
5.4398435433070862
21
-3.8299158267716535
0
LINE
8
BLACK
6
CONTINUOUS
10
5.4398435433070862
20
-3.8299158267716535
11
5.4381732283464563
21
-3.8306077165354329
0
LINE
8
BLACK
6
CONTINUOUS
10
5.4381732283464563
20
-3.8306077165354329
11
5.4365029133858265
21
-3.8299158267716535
0
LINE
8
BLACK
6
CONTINUOUS
10
5.4365029133858265
20
-3.8299158267716535
11
5.4358110236220467
21
-3.8282455118110237
0
LINE
8
BLACK
6
CONTINUOUS
10
5.4358110236220467
20
-3.8282455118110237
11
5.4358110236220467
21
-3.8197544881889764
0
LINE
8
BLACK
6
CONTINUOUS
10
5.4358110236220467
20
-3.8197544881889764
11
5.4365029133858265
21
-3.8180841732283466
0
LINE
8
BLACK
6
CONTINUOUS
10
5.4365029133858265
20
-3.8180841732283466
11
5.4381732283464563
21
-3.8173922834645668
0
LINE
8
BLACK
6
CONTINUOUS
10
5.4381732283464563
20
-3.8173922834645668
11
5.4398435433070862
21
-3.8180841732283466
0
LINE
8
BLACK
6
CONTINUOUS
10
5.7395438582677167
20
-3.7920648818897638
11
5.7406566929133858
21
-3.793750433070866
0
LINE
8
BLACK
6
CONTINUOUS
10
5.7406566929133858
20
-3.793750433070866
11
5.7404257874015743
21
-3.795756968503937
0
LINE
8
BLACK
6
CONTINUOUS
10
5.7404257874015743
20
-3.795756968503937
11
5.7385510236220467
21
-3.7995064960629921
0
LINE
8
BLACK
6
CONTINUOUS
10
5.7385510236220467
20
-3.7995064960629921
11
5.738025078740157
21
-3.8002155511811022
0
LINE
8
BLACK
6
CONTINUOUS
10
5.738025078740157
20
-3.8002155511811022
11
5.7379979133858265
21
-3.800273897637795
0
LINE
8
BLACK
6
CONTINUOUS
10
5.7379979133858265
20
-3.800273897637795
11
5.7355395275590553
21
-3.8027322834645667
0
LINE
8
BLACK
6
CONTINUOUS
10
5.7355395275590553
20
-3.8027322834645667
11
5.7629535039370081
21
-3.8027322834645667
0
LINE
8
BLACK
6
CONTINUOUS
10
5.7629535039370081
20
-3.8027322834645667
11
5.7629535039370081
21
-3.7944364566929134
0
LINE
8
BLACK
6
CONTINUOUS
10
5.7629535039370081
20
-3.7944364566929134
11
5.7631315748031495
21
-3.793426535433071
0
LINE
8
BLACK
6
CONTINUOUS
10
5.7631315748031495
20
-3.793426535433071
11
5.7644298818897637
21
-3.7918792913385824
0
LINE
8
BLACK
6
CONTINUOUS
10
5.7644298818897637
20
-3.7918792913385824
11
5.7664190157480313
21
-3.7915285433070864
0
LINE
8
BLACK
6
CONTINUOUS
10
5.7664190157480313
20
-3.7915285433070864
11
5.7681681889763778
21
-3.7925384645669289
0
LINE
8
BLACK
6
CONTINUOUS
10
5.7681681889763778
20
-3.7925384645669289
11
5.7688590157480313
21
-3.7944364566929134
0
LINE
8
BLACK
6
CONTINUOUS
10
5.7688590157480313
20
-3.7944364566929134
11
5.7688590157480313
21
-3.8169336220472441
0
LINE
8
BLACK
6
CONTINUOUS
10
5.7688590157480313
20
-3.8169336220472441
11
5.7686809448818899
21
-3.8179435433070865
0
LINE
8
BLACK
6
CONTINUOUS
10
5.7686809448818899
20
-3.8179435433070865
11
5.7673826377952757
21
-3.8194907874015747
0
LINE
8
BLACK
6
CONTINUOUS
10
5.7673826377952757
20
-3.8194907874015747
11
5.7653935039370081
21
-3.8198415354330706
0
LINE
8
BLACK
6
CONTINUOUS
10
5.7653935039370081
20
-3.8198415354330706
11
5.7636443307086616
21
-3.8188316141732281
0
LINE
8
BLACK
6
CONTINUOUS
10
5.7636443307086616
20
-3.8188316141732281
11
5.7629535039370081
21
-3.8169336220472441
0
LINE
8
BLACK
6
CONTINUOUS
10
5.7629535039370081
20
-3.8169336220472441
11
5.7629535039370081
21
-3.8086377952755903
0
LINE
8
BLACK
6
CONTINUOUS
10
5.7629535039370081
20
-3.8086377952755903
11
5.7265361811023618
21
-3.8086377952755903
0
LINE
8
BLACK
6
CONTINUOUS
10
5.7265361811023618
20
-3.8086377952755903
11
5.7255262598425194
21
-3.8084597244094489
0
LINE
8
BLACK
6
CONTINUOUS
10
5.7255262598425194
20
-3.8084597244094489
11
5.7253961811023624
21
-3.8083505905511812
0
LINE
8
BLACK
6
CONTINUOUS
10
5.7253961811023624
20
-3.8083505905511812
11
5.7252274409448818
21
-3.8083319291338582
0
LINE
8
BLACK
6
CONTINUOUS
10
5.7252274409448818
20
-3.8083319291338582
11
5.7246355118110239
21
-3.8077122834645669
0
LINE
8
BLACK
6
CONTINUOUS
10
5.7246355118110239
20
-3.8077122834645669
11
5.7239790157480313
21
-3.8071614173228348
0
LINE
8
BLACK
6
CONTINUOUS
10
5.7239790157480313
20
-3.8071614173228348
11
5.7239495275590553
21
-3.8069941732283463
0
LINE
8
BLACK
6
CONTINUOUS
10
5.7239495275590553
20
-3.8069941732283463
11
5.7238322440944884
21
-3.8068714173228346
0
LINE
8
BLACK
6
CONTINUOUS
10
5.7238322440944884
20
-3.8068714173228346
11
5.7237770866141728
21
-3.8060162598425196
0
LINE
8
BLACK
6
CONTINUOUS
10
5.7237770866141728
20
-3.8060162598425196
11
5.7236282677165349
21
-3.8051722834645667
0
LINE
8
BLACK
6
CONTINUOUS
10
5.7236282677165349
20
-3.8051722834645667
11
5.723713149606299
21
-3.8050251968503934
0
LINE
8
BLACK
6
CONTINUOUS
10
5.723713149606299
20
-3.8050251968503934
11
5.723702244094488
21
-3.8048558267716532
0
LINE
8
BLACK
6
CONTINUOUS
10
5.723702244094488
20
-3.8048558267716532
11
5.7242096850393702
21
-3.8041651968503936
0
LINE
8
BLACK
6
CONTINUOUS
10
5.7242096850393702
20
-3.8041651968503936
11
5.7246381889763782
21
-3.8034231102362206
0
LINE
8
BLACK
6
CONTINUOUS
10
5.7246381889763782
20
-3.8034231102362206
11
5.7247976771653546
21
-3.8033650393700786
0
LINE
8
BLACK
6
CONTINUOUS
10
5.7247976771653546
20
-3.8033650393700786
11
5.7248982677165356
21
-3.8032281889763779
0
LINE
8
BLACK
6
CONTINUOUS
10
5.7248982677165356
20
-3.8032281889763779
11
5.7302792913385829
21
-3.7996408267716535
0
LINE
8
BLACK
6
CONTINUOUS
10
5.7302792913385829
20
-3.7996408267716535
11
5.7334832677165357
21
-3.7964368897637795
0
LINE
8
BLACK
6
CONTINUOUS
10
5.7334832677165357
20
-3.7964368897637795
11
5.7351437401574801
21
-3.7931159448818899
0
LINE
8
BLACK
6
CONTINUOUS
10
5.7351437401574801
20
-3.7931159448818899
11
5.7357546456692914
21
-3.7922922834645667
0
LINE
8
BLACK
6
CONTINUOUS
10
5.7357546456692914
20
-3.7922922834645667
11
5.7376078346456696
21
-3.7914890157480312
0
LINE
8
BLACK
6
CONTINUOUS
10
5.7376078346456696
20
-3.7914890157480312
11
5.7395438582677167
21
-3.7920648818897638
0
LINE
8
BLACK
6
CONTINUOUS
10
5.2585207086614174
20
-3.8003375590551181
11
5.2592125984251972
21
-3.8020078740157479
0
LINE
8
BLACK
6
CONTINUOUS
10
5.2592125984251972
20
-3.8020078740157479
11
5.2585207086614174
21
-3.8036781889763778
0
LINE
8
BLACK
6
CONTINUOUS
10
5.2585207086614174
20
-3.8036781889763778
11
5.2568503937007875
21
-3.8043700787401575
0
LINE
8
BLACK
6
CONTINUOUS
10
5.2568503937007875
20
-3.8043700787401575
11
5.2493700787401574
21
-3.8043700787401575
0
LINE
8
BLACK
6
CONTINUOUS
10
5.2493700787401574
20
-3.8043700787401575
11
5.2493700787401574
21
-3.8118503937007873
0
LINE
8
BLACK
6
CONTINUOUS
10
5.2493700787401574
20
-3.8118503937007873
11
5.2486781889763776
21
-3.8135207086614171
0
LINE
8
BLACK
6
CONTINUOUS
10
5.2486781889763776
20
-3.8135207086614171
11
5.2470078740157478
21
-3.8142125984251969
0
LINE
8
BLACK
6
CONTINUOUS
10
5.2470078740157478
20
-3.8142125984251969
11
5.2453375590551179
21
-3.8135207086614171
0
LINE
8
BLACK
6
CONTINUOUS
10
5.2453375590551179
20
-3.8135207086614171
11
5.2446456692913381
21
-3.8118503937007873
0
LINE
8
BLACK
6
CONTINUOUS
10
5.2446456692913381
20
-3.8118503937007873
11
5.2446456692913381
21
-3.8020078740157479
0
LINE
8
BLACK
6
CONTINUOUS
10
5.2446456692913381
20
-3.8020078740157479
11
5.2453375590551179
21
-3.8003375590551181
0
LINE
8
BLACK
6
CONTINUOUS
10
5.2453375590551179
20
-3.8003375590551181
11
5.2470078740157478
21
-3.7996456692913383
0
LINE
8
BLACK
6
CONTINUOUS
10
5.2470078740157478
20
-3.7996456692913383
11
5.2568503937007875
21
-3.7996456692913383
0
LINE
8
BLACK
6
CONTINUOUS
10
5.2568503937007875
20
-3.7996456692913383
11
5.2585207086614174
21
-3.8003375590551181
0
LINE
8
BLACK
6
CONTINUOUS
10
5.3729921259842515
20
-3.7996456692913383
11
5.3746624409448813
21
-3.8003375590551181
0
LINE
8
BLACK
6
CONTINUOUS
10
5.3746624409448813
20
-3.8003375590551181
11
5.3753543307086611
21
-3.8020078740157479
0
LINE
8
BLACK
6
CONTINUOUS
10
5.3753543307086611
20
-3.8020078740157479
11
5.3753543307086611
21
-3.8118503937007873
0
LINE
8
BLACK
6
CONTINUOUS
10
5.3753543307086611
20
-3.8118503937007873
11
5.3746624409448813
21
-3.8135207086614171
0
LINE
8
BLACK
6
CONTINUOUS
10
5.3746624409448813
20
-3.8135207086614171
11
5.3729921259842515
21
-3.8142125984251969
0
LINE
8
BLACK
6
CONTINUOUS
10
5.3729921259842515
20
-3.8142125984251969
11
5.3713218110236216
21
-3.8135207086614171
0
LINE
8
BLACK
6
CONTINUOUS
10
5.3713218110236216
20
-3.8135207086614171
11
5.3706299212598427
21
-3.8118503937007873
0
LINE
8
BLACK
6
CONTINUOUS
10
5.3706299212598427
20
-3.8118503937007873
11
5.3706299212598427
21
-3.8043700787401575
0
LINE
8
BLACK
6
CONTINUOUS
10
5.3706299212598427
20
-3.8043700787401575
11
5.3631496062992126
21
-3.8043700787401575
0
LINE
8
BLACK
6
CONTINUOUS
10
5.3631496062992126
20
-3.8043700787401575
11
5.3614792913385827
21
-3.8036781889763778
0
LINE
8
BLACK
6
CONTINUOUS
10
5.3614792913385827
20
-3.8036781889763778
11
5.3607874015748029
21
-3.8020078740157479
0
LINE
8
BLACK
6
CONTINUOUS
10
5.3607874015748029
20
-3.8020078740157479
11
5.3614792913385827
21
-3.8003375590551181
0
LINE
8
BLACK
6
CONTINUOUS
10
5.3614792913385827
20
-3.8003375590551181
11
5.3631496062992126
21
-3.7996456692913383
0
LINE
8
BLACK
6
CONTINUOUS
10
5.3631496062992126
20
-3.7996456692913383
11
5.3729921259842515
21
-3.7996456692913383
0
LINE
8
BLACK
6
CONTINUOUS
10
5.1393919291338586
20
-3.761701496062992
11
5.1409391732283467
21
-3.7629998031496061
0
LINE
8
BLACK
6
CONTINUOUS
10
5.1409391732283467
20
-3.7629998031496061
11
5.1412899212598422
21
-3.7649889370078737
0
LINE
8
BLACK
6
CONTINUOUS
10
5.1412899212598422
20
-3.7649889370078737
11
5.1402799999999997
21
-3.7667381102362203
0
LINE
8
BLACK
6
CONTINUOUS
10
5.1402799999999997
20
-3.7667381102362203
11
5.1383820078740152
21
-3.7674289370078737
0
LINE
8
BLACK
6
CONTINUOUS
10
5.1383820078740152
20
-3.7674289370078737
11
5.1229018897637797
21
-3.7674289370078737
0
LINE
8
BLACK
6
CONTINUOUS
10
5.1229018897637797
20
-3.7674289370078737
11
5.140838858267716
21
-3.7943343700787402
0
LINE
8
BLACK
6
CONTINUOUS
10
5.140838858267716
20
-3.7943343700787402
11
5.140892519685039
21
-3.7944567322834644
0
LINE
8
BLACK
6
CONTINUOUS
10
5.140892519685039
20
-3.7944567322834644
11
5.1409391732283467
21
-3.7944958661417321
0
LINE
8
BLACK
6
CONTINUOUS
10
5.1409391732283467
20
-3.7944958661417321
11
5.1409589370078743
21
-3.7946080708661416
0
LINE
8
BLACK
6
CONTINUOUS
10
5.1409589370078743
20
-3.7946080708661416
11
5.1412509055118107
21
-3.7952734251968505
0
LINE
8
BLACK
6
CONTINUOUS
10
5.1412509055118107
20
-3.7952734251968505
11
5.141183582677165
21
-3.7958820078740159
0
LINE
8
BLACK
6
CONTINUOUS
10
5.141183582677165
20
-3.7958820078740159
11
5.1412899212598422
21
-3.7964850000000001
0
LINE
8
BLACK
6
CONTINUOUS
10
5.1412899212598422
20
-3.7964850000000001
11
5.1410759055118112
21
-3.7968555905511812
0
LINE
8
BLACK
6
CONTINUOUS
10
5.1410759055118112
20
-3.7968555905511812
11
5.1410288976377956
21
-3.7972809842519686
0
LINE
8
BLACK
6
CONTINUOUS
10
5.1410288976377956
20
-3.7972809842519686
11
5.1405861023622048
21
-3.7977039370078738
0
LINE
8
BLACK
6
CONTINUOUS
10
5.1405861023622048
20
-3.7977039370078738
11
5.1402799999999997
21
-3.7982341732283462
0
LINE
8
BLACK
6
CONTINUOUS
10
5.1402799999999997
20
-3.7982341732283462
11
5.1398779133858268
21
-3.7983805118110237
0
LINE
8
BLACK
6
CONTINUOUS
10
5.1398779133858268
20
-3.7983805118110237
11
5.1395683858267711
21
-3.7986762204724407
0
LINE
8
BLACK
6
CONTINUOUS
10
5.1395683858267711
20
-3.7986762204724407
11
5.1389572440944882
21
-3.7987155905511809
0
LINE
8
BLACK
6
CONTINUOUS
10
5.1389572440944882
20
-3.7987155905511809
11
5.1383820078740152
21
-3.7989250000000001
0
LINE
8
BLACK
6
CONTINUOUS
10
5.1383820078740152
20
-3.7989250000000001
11
5.1173846062992121
21
-3.7989250000000001
0
LINE
8
BLACK
6
CONTINUOUS
10
5.1173846062992121
20
-3.7989250000000001
11
5.1163746850393697
21
-3.7987469291338583
0
LINE
8
BLACK
6
CONTINUOUS
10
5.1163746850393697
20
-3.7987469291338583
11
5.1148274409448815
21
-3.7974486220472441
0
LINE
8
BLACK
6
CONTINUOUS
10
5.1148274409448815
20
-3.7974486220472441
11
5.114476692913386
21
-3.7954594881889765
0
LINE
8
BLACK
6
CONTINUOUS
10
5.114476692913386
20
-3.7954594881889765
11
5.1154866141732285
21
-3.7937103149606299
0
LINE
8
BLACK
6
CONTINUOUS
10
5.1154866141732285
20
-3.7937103149606299
11
5.1173846062992121
21
-3.7930194881889765
0
LINE
8
BLACK
6
CONTINUOUS
10
5.1173846062992121
20
-3.7930194881889765
11
5.1328647244094485
21
-3.7930194881889765
0
LINE
8
BLACK
6
CONTINUOUS
10
5.1328647244094485
20
-3.7930194881889765
11
5.1149277559055113
21
-3.7661140944881888
0
LINE
8
BLACK
6
CONTINUOUS
10
5.1149277559055113
20
-3.7661140944881888
11
5.1148740157480317
21
-3.7659916535433071
0
LINE
8
BLACK
6
CONTINUOUS
10
5.1148740157480317
20
-3.7659916535433071
11
5.1148274409448815
21
-3.7659525590551182
0
LINE
8
BLACK
6
CONTINUOUS
10
5.1148274409448815
20
-3.7659525590551182
11
5.1148076377952751
21
-3.7658403543307086
0
LINE
8
BLACK
6
CONTINUOUS
10
5.1148076377952751
20
-3.7658403543307086
11
5.1145157086614175
21
-3.7651749999999997
0
LINE
8
BLACK
6
CONTINUOUS
10
5.1145157086614175
20
-3.7651749999999997
11
5.1145829921259844
21
-3.7645663779527556
0
LINE
8
BLACK
6
CONTINUOUS
10
5.1145829921259844
20
-3.7645663779527556
11
5.114476692913386
21
-3.7639634251968501
0
LINE
8
BLACK
6
CONTINUOUS
10
5.114476692913386
20
-3.7639634251968501
11
5.1146906692913383
21
-3.7635927952755903
0
LINE
8
BLACK
6
CONTINUOUS
10
5.1146906692913383
20
-3.7635927952755903
11
5.1147377165354326
21
-3.7631674409448816
0
LINE
8
BLACK
6
CONTINUOUS
10
5.1147377165354326
20
-3.7631674409448816
11
5.1151804724409446
21
-3.7627444488188977
0
LINE
8
BLACK
6
CONTINUOUS
10
5.1151804724409446
20
-3.7627444488188977
11
5.1154866141732285
21
-3.762214251968504
0
LINE
8
BLACK
6
CONTINUOUS
10
5.1154866141732285
20
-3.762214251968504
11
5.1158887401574802
21
-3.7620678740157478
0
LINE
8
BLACK
6
CONTINUOUS
10
5.1158887401574802
20
-3.7620678740157478
11
5.1161982283464562
21
-3.7617722440944883
0
LINE
8
BLACK
6
CONTINUOUS
10
5.1161982283464562
20
-3.7617722440944883
11
5.1168092519685038
21
-3.7617327952755906
0
LINE
8
BLACK
6
CONTINUOUS
10
5.1168092519685038
20
-3.7617327952755906
11
5.1173846062992121
21
-3.7615234251968501
0
LINE
8
BLACK
6
CONTINUOUS
10
5.1173846062992121
20
-3.7615234251968501
11
5.1383820078740152
21
-3.7615234251968501
0
LINE
8
BLACK
6
CONTINUOUS
10
5.1383820078740152
20
-3.7615234251968501
11
5.1393919291338586
21
-3.761701496062992
0
LINE
8
BLACK
6
CONTINUOUS
10
5.2094130708661419
20
-3.7623410629921259
11
5.2103082283464568
21
-3.7641516535433071
0
LINE
8
BLACK
6
CONTINUOUS
10
5.2103082283464568
20
-3.7641516535433071
11
5.2098302362204727
21
-3.76611405511811
0
LINE
8
BLACK
6
CONTINUOUS
10
5.2098302362204727
20
-3.76611405511811
11
5.2004234645669287
21
-3.7802242125984251
0
LINE
8
BLACK
6
CONTINUOUS
10
5.2004234645669287
20
-3.7802242125984251
11
5.2098302362204727
21
-3.7943343700787402
0
LINE
8
BLACK
6
CONTINUOUS
10
5.2098302362204727
20
-3.7943343700787402
11
5.2102422834645665
21
-3.7952734251968505
0
LINE
8
BLACK
6
CONTINUOUS
10
5.2102422834645665
20
-3.7952734251968505
11
5.2100202755905514
21
-3.7972809842519686
0
LINE
8
BLACK
6
CONTINUOUS
10
5.2100202755905514
20
-3.7972809842519686
11
5.2085597637795278
21
-3.7986762204724407
0
LINE
8
BLACK
6
CONTINUOUS
10
5.2085597637795278
20
-3.7986762204724407
11
5.2065441732283464
21
-3.7988061811023619
0
LINE
8
BLACK
6
CONTINUOUS
10
5.2065441732283464
20
-3.7988061811023619
11
5.2049165354330711
21
-3.7976101574803147
0
LINE
8
BLACK
6
CONTINUOUS
10
5.2049165354330711
20
-3.7976101574803147
11
5.1968746456692916
21
-3.7855473622047242
0
LINE
8
BLACK
6
CONTINUOUS
10
5.1968746456692916
20
-3.7855473622047242
11
5.1888328346456696
21
-3.7976101574803147
0
LINE
8
BLACK
6
CONTINUOUS
10
5.1888328346456696
20
-3.7976101574803147
11
5.1881244488188978
21
-3.7983516535433068
0
LINE
8
BLACK
6
CONTINUOUS
10
5.1881244488188978
20
-3.7983516535433068
11
5.1861859448818892
21
-3.7989188976377952
0
LINE
8
BLACK
6
CONTINUOUS
10
5.1861859448818892
20
-3.7989188976377952
11
5.1843363385826766
21
-3.7981073622047243
0
LINE
8
BLACK
6
CONTINUOUS
10
5.1843363385826766
20
-3.7981073622047243
11
5.183441141732283
21
-3.7962967716535432
0
LINE
8
BLACK
6
CONTINUOUS
10
5.183441141732283
20
-3.7962967716535432
11
5.183919133858268
21
-3.7943343307086614
0
LINE
8
BLACK
6
CONTINUOUS
10
5.183919133858268
20
-3.7943343307086614
11
5.1933258661417323
21
-3.7802242125984251
0
LINE
8
BLACK
6
CONTINUOUS
10
5.1933258661417323
20
-3.7802242125984251
11
5.183919133858268
21
-3.7661140944881888
0
LINE
8
BLACK
6
CONTINUOUS
10
5.183919133858268
20
-3.7661140944881888
11
5.1835070866141733
21
-3.7651749999999997
0
LINE
8
BLACK
6
CONTINUOUS
10
5.1835070866141733
20
-3.7651749999999997
11
5.1837290944881884
21
-3.7631674409448816
0
LINE
8
BLACK
6
CONTINUOUS
10
5.1837290944881884
20
-3.7631674409448816
11
5.1851896062992129
21
-3.7617722440944883
0
LINE
8
BLACK
6
CONTINUOUS
10
5.1851896062992129
20
-3.7617722440944883
11
5.1872051968503934
21
-3.7616422440944879
0
LINE
8
BLACK
6
CONTINUOUS
10
5.1872051968503934
20
-3.7616422440944879
11
5.1888328346456696
21
-3.7628382677165355
0
LINE
8
BLACK
6
CONTINUOUS
10
5.1888328346456696
20
-3.7628382677165355
11
5.1968746456692916
21
-3.7749010236220473
0
LINE
8
BLACK
6
CONTINUOUS
10
5.1968746456692916
20
-3.7749010236220473
11
5.2049165354330711
21
-3.7628382677165355
0
LINE
8
BLACK
6
CONTINUOUS
10
5.2049165354330711
20
-3.7628382677165355
11
5.205624921259842
21
-3.7620967322834646
0
LINE
8
BLACK
6
CONTINUOUS
10
5.205624921259842
20
-3.7620967322834646
11
5.2075634251968506
21
-3.761529527559055
0
LINE
8
BLACK
6
CONTINUOUS
10
5.2075634251968506
20
-3.761529527559055
11
5.2094130708661419
21
-3.7623410629921259
0
LINE
8
BLACK
6
CONTINUOUS
10
5.5350000000000001
20
-3.794055118110236
11
5.5664960629921261
21
-3.794055118110236
0
LINE
8
BLACK
6
CONTINUOUS
10
5.5664960629921261
20
-3.794055118110236
11
5.5681663779527559
21
-3.7947470078740158
0
LINE
8
BLACK
6
CONTINUOUS
10
5.5681663779527559
20
-3.7947470078740158
11
5.5688582677165357
21
-3.7964173228346456
0
LINE
8
BLACK
6
CONTINUOUS
10
5.5688582677165357
20
-3.7964173228346456
11
5.5681663779527559
21
-3.7980876377952755
0
LINE
8
BLACK
6
CONTINUOUS
10
5.5681663779527559
20
-3.7980876377952755
11
5.5664960629921261
21
-3.7987795275590552
0
LINE
8
BLACK
6
CONTINUOUS
10
5.5664960629921261
20
-3.7987795275590552
11
5.5350000000000001
21
-3.7987795275590552
0
LINE
8
BLACK
6
CONTINUOUS
10
5.5350000000000001
20
-3.7987795275590552
11
5.5035039370078742
21
-3.7987795275590552
0
LINE
8
BLACK
6
CONTINUOUS
10
5.5035039370078742
20
-3.7987795275590552
11
5.5018336220472444
21
-3.7980876377952755
0
LINE
8
BLACK
6
CONTINUOUS
10
5.5018336220472444
20
-3.7980876377952755
11
5.5011417322834646
21
-3.7964173228346456
0
LINE
8
BLACK
6
CONTINUOUS
10
5.5011417322834646
20
-3.7964173228346456
11
5.5018336220472444
21
-3.7947470078740158
0
LINE
8
BLACK
6
CONTINUOUS
10
5.5018336220472444
20
-3.7947470078740158
11
5.5035039370078742
21
-3.794055118110236
0
LINE
8
BLACK
6
CONTINUOUS
10
5.5035039370078742
20
-3.794055118110236
11
5.5350000000000001
21
-3.794055118110236
0
LINE
8
BLACK
6
CONTINUOUS
10
5.6897096850393698
20
-3.7772808267716536
11
5.6904015748031496
21
-3.7789511417322834
0
LINE
8
BLACK
6
CONTINUOUS
10
5.6904015748031496
20
-3.7789511417322834
11
5.6904015748031496
21
-3.7910488582677164
0
LINE
8
BLACK
6
CONTINUOUS
10
5.6904015748031496
20
-3.7910488582677164
11
5.6897096850393698
21
-3.7927191732283463
0
LINE
8
BLACK
6
CONTINUOUS
10
5.6897096850393698
20
-3.7927191732283463
11
5.6880393700787399
21
-3.793411062992126
0
LINE
8
BLACK
6
CONTINUOUS
10
5.6880393700787399
20
-3.793411062992126
11
5.6863690551181101
21
-3.7927191732283463
0
LINE
8
BLACK
6
CONTINUOUS
10
5.6863690551181101
20
-3.7927191732283463
11
5.6856771653543303
21
-3.7910488582677164
0
LINE
8
BLACK
6
CONTINUOUS
10
5.6856771653543303
20
-3.7910488582677164
11
5.6856771653543303
21
-3.7789511417322834
0
LINE
8
BLACK
6
CONTINUOUS
10
5.6856771653543303
20
-3.7789511417322834
11
5.6863690551181101
21
-3.7772808267716536
0
LINE
8
BLACK
6
CONTINUOUS
10
5.6863690551181101
20
-3.7772808267716536
11
5.6880393700787399
21
-3.7765889370078738
0
LINE
8
BLACK
6
CONTINUOUS
10
5.6880393700787399
20
-3.7765889370078738
11
5.6897096850393698
21
-3.7772808267716536
0
LINE
8
BLACK
6
CONTINUOUS
10
5.7196309448818896
20
-3.7772808267716536
11
5.7203228346456694
21
-3.7789511417322834
0
LINE
8
BLACK
6
CONTINUOUS
10
5.7203228346456694
20
-3.7789511417322834
11
5.7203228346456694
21
-3.7910488582677164
0
LINE
8
BLACK
6
CONTINUOUS
10
5.7203228346456694
20
-3.7910488582677164
11
5.7196309448818896
21
-3.7927191732283463
0
LINE
8
BLACK
6
CONTINUOUS
10
5.7196309448818896
20
-3.7927191732283463
11
5.7179606299212598
21
-3.793411062992126
0
LINE
8
BLACK
6
CONTINUOUS
10
5.7179606299212598
20
-3.793411062992126
11
5.7162903149606299
21
-3.7927191732283463
0
LINE
8
BLACK
6
CONTINUOUS
10
5.7162903149606299
20
-3.7927191732283463
11
5.7155984251968501
21
-3.7910488582677164
0
LINE
8
BLACK
6
CONTINUOUS
10
5.7155984251968501
20
-3.7910488582677164
11
5.7155984251968501
21
-3.7789511417322834
0
LINE
8
BLACK
6
CONTINUOUS
10
5.7155984251968501
20
-3.7789511417322834
11
5.7162903149606299
21
-3.7772808267716536
0
LINE
8
BLACK
6
CONTINUOUS
10
5.7162903149606299
20
-3.7772808267716536
11
5.7179606299212598
21
-3.7765889370078738
0
LINE
8
BLACK
6
CONTINUOUS
10
5.7179606299212598
20
-3.7765889370078738
11
5.7196309448818896
21
-3.7772808267716536
0
LINE
8
BLACK
6
CONTINUOUS
10
5.1753874015748034
20
-3.7811990551181101
11
5.1769346456692915
21
-3.7824973622047242
0
LINE
8
BLACK
6
CONTINUOUS
10
5.1769346456692915
20
-3.7824973622047242
11
5.177285393700787
21
-3.7844864960629923
0
LINE
8
BLACK
6
CONTINUOUS
10
5.177285393700787
20
-3.7844864960629923
11
5.1762754724409445
21
-3.7862356692913384
0
LINE
8
BLACK
6
CONTINUOUS
10
5.1762754724409445
20
-3.7862356692913384
11
5.1743774803149609
21
-3.7869264960629923
0
LINE
8
BLACK
6
CONTINUOUS
10
5.1743774803149609
20
-3.7869264960629923
11
5.1503805118110231
21
-3.7869264960629923
0
LINE
8
BLACK
6
CONTINUOUS
10
5.1503805118110231
20
-3.7869264960629923
11
5.1493705905511806
21
-3.7867484251968504
0
LINE
8
BLACK
6
CONTINUOUS
10
5.1493705905511806
20
-3.7867484251968504
11
5.1478233464566925
21
-3.7854501181102362
0
LINE
8
BLACK
6
CONTINUOUS
10
5.1478233464566925
20
-3.7854501181102362
11
5.147472598425197
21
-3.7834609842519686
0
LINE
8
BLACK
6
CONTINUOUS
10
5.147472598425197
20
-3.7834609842519686
11
5.1484825196850394
21
-3.7817118110236221
0
LINE
8
BLACK
6
CONTINUOUS
10
5.1484825196850394
20
-3.7817118110236221
11
5.1503805118110231
21
-3.7810209842519682
0
LINE
8
BLACK
6
CONTINUOUS
10
5.1503805118110231
20
-3.7810209842519682
11
5.1743774803149609
21
-3.7810209842519682
0
LINE
8
BLACK
6
CONTINUOUS
10
5.1743774803149609
20
-3.7810209842519682
11
5.1753874015748034
21
-3.7811990551181101
0
LINE
8
BLACK
6
CONTINUOUS
10
5.7662897637795272
20
-3.7540559842519685
11
5.7664190157480313
21
-3.7540332283464566
0
LINE
8
BLACK
6
CONTINUOUS
10
5.7664190157480313
20
-3.7540332283464566
11
5.7665325984251963
21
-3.7540988188976376
0
LINE
8
BLACK
6
CONTINUOUS
10
5.7665325984251963
20
-3.7540988188976376
11
5.7669161811023617
21
-3.7541664566929134
0
LINE
8
BLACK
6
CONTINUOUS
10
5.7669161811023617
20
-3.7541664566929134
11
5.7675038582677161
21
-3.7546595669291336
0
LINE
8
BLACK
6
CONTINUOUS
10
5.7675038582677161
20
-3.7546595669291336
11
5.7681681889763778
21
-3.755043149606299
0
LINE
8
BLACK
6
CONTINUOUS
10
5.7681681889763778
20
-3.755043149606299
11
5.7682592913385822
21
-3.7552934645669289
0
LINE
8
BLACK
6
CONTINUOUS
10
5.7682592913385822
20
-3.7552934645669289
11
5.7684634251968498
21
-3.7554647637795275
0
LINE
8
BLACK
6
CONTINUOUS
10
5.7684634251968498
20
-3.7554647637795275
11
5.7685966535433071
21
-3.7562203149606299
0
LINE
8
BLACK
6
CONTINUOUS
10
5.7685966535433071
20
-3.7562203149606299
11
5.7688590157480313
21
-3.7569411417322836
0
LINE
8
BLACK
6
CONTINUOUS
10
5.7688590157480313
20
-3.7569411417322836
11
5.7688590157480313
21
-3.7663149606299213
0
LINE
8
BLACK
6
CONTINUOUS
10
5.7688590157480313
20
-3.7663149606299213
11
5.7687057086614173
21
-3.7671843307086612
0
LINE
8
BLACK
6
CONTINUOUS
10
5.7687057086614173
20
-3.7671843307086612
11
5.7687074803149603
21
-3.7672487401574801
0
LINE
8
BLACK
6
CONTINUOUS
10
5.7687074803149603
20
-3.7672487401574801
11
5.7668327165354327
21
-3.772872992125984
0
LINE
8
BLACK
6
CONTINUOUS
10
5.7668327165354327
20
-3.772872992125984
11
5.766344409448819
21
-3.7737747637795276
0
LINE
8
BLACK
6
CONTINUOUS
10
5.766344409448819
20
-3.7737747637795276
11
5.7661940157480309
21
-3.773867125984252
0
LINE
8
BLACK
6
CONTINUOUS
10
5.7661940157480309
20
-3.773867125984252
11
5.7661194094488186
21
-3.7740271653543305
0
LINE
8
BLACK
6
CONTINUOUS
10
5.7661194094488186
20
-3.7740271653543305
11
5.7623698425196848
21
-3.7777766929133856
0
LINE
8
BLACK
6
CONTINUOUS
10
5.7623698425196848
20
-3.7777766929133856
11
5.7616466535433073
21
-3.7782830708661415
0
LINE
8
BLACK
6
CONTINUOUS
10
5.7616466535433073
20
-3.7782830708661415
11
5.7616024409448814
21
-3.7783298031496062
0
LINE
8
BLACK
6
CONTINUOUS
10
5.7616024409448814
20
-3.7783298031496062
11
5.7578529133858263
21
-3.7802045669291338
0
LINE
8
BLACK
6
CONTINUOUS
10
5.7578529133858263
20
-3.7802045669291338
11
5.7573644488188975
21
-3.7803498425196849
0
LINE
8
BLACK
6
CONTINUOUS
10
5.7573644488188975
20
-3.7803498425196849
11
5.7572485433070861
21
-3.780428149606299
0
LINE
8
BLACK
6
CONTINUOUS
10
5.7572485433070861
20
-3.780428149606299
11
5.7497494881889759
21
-3.7823029133858266
0
LINE
8
BLACK
6
CONTINUOUS
10
5.7497494881889759
20
-3.7823029133858266
11
5.749161574803149
21
-3.7823443700787402
0
LINE
8
BLACK
6
CONTINUOUS
10
5.749161574803149
20
-3.7823443700787402
11
5.7490333464566925
21
-3.7823910629921258
0
LINE
8
BLACK
6
CONTINUOUS
10
5.7490333464566925
20
-3.7823910629921258
11
5.7434090551181098
21
-3.7823910629921258
0
LINE
8
BLACK
6
CONTINUOUS
10
5.7434090551181098
20
-3.7823910629921258
11
5.742828661417323
21
-3.7822887007874013
0
LINE
8
BLACK
6
CONTINUOUS
10
5.742828661417323
20
-3.7822887007874013
11
5.7426929133858264
21
-3.7823029133858266
0
LINE
8
BLACK
6
CONTINUOUS
10
5.7426929133858264
20
-3.7823029133858266
11
5.7351938582677162
21
-3.780428149606299
0
LINE
8
BLACK
6
CONTINUOUS
10
5.7351938582677162
20
-3.780428149606299
11
5.7347283858267719
21
-3.7802205511811025
0
LINE
8
BLACK
6
CONTINUOUS
10
5.7347283858267719
20
-3.7802205511811025
11
5.7345894881889761
21
-3.7802045669291338
0
LINE
8
BLACK
6
CONTINUOUS
10
5.7345894881889761
20
-3.7802045669291338
11
5.730839960629921
21
-3.7783298031496062
0
LINE
8
BLACK
6
CONTINUOUS
10
5.730839960629921
20
-3.7783298031496062
11
5.7301308661417325
21
-3.7778038582677165
0
LINE
8
BLACK
6
CONTINUOUS
10
5.7301308661417325
20
-3.7778038582677165
11
5.7300725590551176
21
-3.7777766929133856
0
LINE
8
BLACK
6
CONTINUOUS
10
5.7300725590551176
20
-3.7777766929133856
11
5.7263230314960625
21
-3.7740271653543305
0
LINE
8
BLACK
6
CONTINUOUS
10
5.7263230314960625
20
-3.7740271653543305
11
5.7257348425196852
21
-3.773187125984252
0
LINE
8
BLACK
6
CONTINUOUS
10
5.7257348425196852
20
-3.773187125984252
11
5.7257194488188974
21
-3.7730112598425194
0
LINE
8
BLACK
6
CONTINUOUS
10
5.7257194488188974
20
-3.7730112598425194
11
5.7256097244094484
21
-3.772872992125984
0
LINE
8
BLACK
6
CONTINUOUS
10
5.7256097244094484
20
-3.772872992125984
11
5.7237349606299208
21
-3.7672487007874014
0
LINE
8
BLACK
6
CONTINUOUS
10
5.7237349606299208
20
-3.7672487007874014
11
5.7236054724409451
21
-3.7663755118110234
0
LINE
8
BLACK
6
CONTINUOUS
10
5.7236054724409451
20
-3.7663755118110234
11
5.7235834251968507
21
-3.7663149606299213
0
LINE
8
BLACK
6
CONTINUOUS
10
5.7235834251968507
20
-3.7663149606299213
11
5.7235834251968507
21
-3.7569411417322836
0
LINE
8
BLACK
6
CONTINUOUS
10
5.7235834251968507
20
-3.7569411417322836
11
5.7236510236220468
21
-3.7565575984251969
0
LINE
8
BLACK
6
CONTINUOUS
10
5.7236510236220468
20
-3.7565575984251969
11
5.7236282677165349
21
-3.7564283858267715
0
LINE
8
BLACK
6
CONTINUOUS
10
5.7236282677165349
20
-3.7564283858267715
11
5.7236938582677164
21
-3.7563147637795273
0
LINE
8
BLACK
6
CONTINUOUS
10
5.7236938582677164
20
-3.7563147637795273
11
5.7237614960629921
21
-3.7559312204724407
0
LINE
8
BLACK
6
CONTINUOUS
10
5.7237614960629921
20
-3.7559312204724407
11
5.7242546062992128
21
-3.755343503937008
0
LINE
8
BLACK
6
CONTINUOUS
10
5.7242546062992128
20
-3.755343503937008
11
5.7246381889763782
21
-3.754679212598425
0
LINE
8
BLACK
6
CONTINUOUS
10
5.7246381889763782
20
-3.754679212598425
11
5.7248885039370077
21
-3.7545880708661414
0
LINE
8
BLACK
6
CONTINUOUS
10
5.7248885039370077
20
-3.7545880708661414
11
5.7250598031496063
21
-3.7543839763779525
0
LINE
8
BLACK
6
CONTINUOUS
10
5.7250598031496063
20
-3.7543839763779525
11
5.7258153543307087
21
-3.7542507086614174
0
LINE
8
BLACK
6
CONTINUOUS
10
5.7258153543307087
20
-3.7542507086614174
11
5.7265361811023618
21
-3.7539883858267715
0
LINE
8
BLACK
6
CONTINUOUS
10
5.7265361811023618
20
-3.7539883858267715
11
5.7659062598425193
21
-3.7539883858267715
0
LINE
8
BLACK
6
CONTINUOUS
10
5.7659062598425193
20
-3.7539883858267715
11
5.7662897637795272
21
-3.7540559842519685
0
LINE
8
BLACK
6
CONTINUOUS
10
5.7294889370078739
20
-3.7658357874015747
11
5.7309917322834645
21
-3.7703442125984252
0
LINE
8
BLACK
6
CONTINUOUS
10
5.7309917322834645
20
-3.7703442125984252
11
5.7339095669291336
21
-3.7732620472440943
0
LINE
8
BLACK
6
CONTINUOUS
10
5.7339095669291336
20
-3.7732620472440943
11
5.7369405511811022
21
-3.7747775196850393
0
LINE
8
BLACK
6
CONTINUOUS
10
5.7369405511811022
20
-3.7747775196850393
11
5.7437725984251964
21
-3.7764855511811022
0
LINE
8
BLACK
6
CONTINUOUS
10
5.7437725984251964
20
-3.7764855511811022
11
5.748669803149606
21
-3.7764855511811022
0
LINE
8
BLACK
6
CONTINUOUS
10
5.748669803149606
20
-3.7764855511811022
11
5.755501850393701
21
-3.7747775196850393
0
LINE
8
BLACK
6
CONTINUOUS
10
5.755501850393701
20
-3.7747775196850393
11
5.7585328346456688
21
-3.7732620078740156
0
LINE
8
BLACK
6
CONTINUOUS
10
5.7585328346456688
20
-3.7732620078740156
11
5.7614507086614175
21
-3.7703441732283465
0
LINE
8
BLACK
6
CONTINUOUS
10
5.7614507086614175
20
-3.7703441732283465
11
5.7629535039370081
21
-3.7658358267716534
0
LINE
8
BLACK
6
CONTINUOUS
10
5.7629535039370081
20
-3.7658358267716534
11
5.7629535039370081
21
-3.7598938976377951
0
LINE
8
BLACK
6
CONTINUOUS
10
5.7629535039370081
20
-3.7598938976377951
11
5.7294889370078739
21
-3.7598938976377951
0
LINE
8
BLACK
6
CONTINUOUS
10
5.7294889370078739
20
-3.7598938976377951
11
5.7294889370078739
21
-3.7658357874015747
0
LINE
8
BLACK
6
CONTINUOUS
10
5.2609158267716536
20
-3.7675029133858269
11
5.2616077165354334
21
-3.7691732283464567
0
LINE
8
BLACK
6
CONTINUOUS
10
5.2616077165354334
20
-3.7691732283464567
11
5.2609158267716536
21
-3.7708435433070866
0
LINE
8
BLACK
6
CONTINUOUS
10
5.2609158267716536
20
-3.7708435433070866
11
5.2592455118110237
21
-3.7715354330708659
0
LINE
8
BLACK
6
CONTINUOUS
10
5.2592455118110237
20
-3.7715354330708659
11
5.2507544881889761
21
-3.7715354330708659
0
LINE
8
BLACK
6
CONTINUOUS
10
5.2507544881889761
20
-3.7715354330708659
11
5.2490841732283462
21
-3.7708435433070866
0
LINE
8
BLACK
6
CONTINUOUS
10
5.2490841732283462
20
-3.7708435433070866
11
5.2483922834645664
21
-3.7691732283464567
0
LINE
8
BLACK
6
CONTINUOUS
10
5.2483922834645664
20
-3.7691732283464567
11
5.2490841732283462
21
-3.7675029133858269
0
LINE
8
BLACK
6
CONTINUOUS
10
5.2490841732283462
20
-3.7675029133858269
11
5.2507544881889761
21
-3.7668110236220471
0
LINE
8
BLACK
6
CONTINUOUS
10
5.2507544881889761
20
-3.7668110236220471
11
5.2592455118110237
21
-3.7668110236220471
0
LINE
8
BLACK
6
CONTINUOUS
10
5.2592455118110237
20
-3.7668110236220471
11
5.2609158267716536
21
-3.7675029133858269
0
LINE
8
BLACK
6
CONTINUOUS
10
5.3689158267716532
20
-3.7655029133858267
11
5.369607716535433
21
-3.7671732283464565
0
LINE
8
BLACK
6
CONTINUOUS
10
5.369607716535433
20
-3.7671732283464565
11
5.3689158267716532
21
-3.7688435433070864
0
LINE
8
BLACK
6
CONTINUOUS
10
5.3689158267716532
20
-3.7688435433070864
11
5.3672455118110234
21
-3.7695354330708661
0
LINE
8
BLACK
6
CONTINUOUS
10
5.3672455118110234
20
-3.7695354330708661
11
5.3587544881889766
21
-3.7695354330708661
0
LINE
8
BLACK
6
CONTINUOUS
10
5.3587544881889766
20
-3.7695354330708661
11
5.3570841732283467
21
-3.7688435433070864
0
LINE
8
BLACK
6
CONTINUOUS
10
5.3570841732283467
20
-3.7688435433070864
11
5.356392283464567
21
-3.7671732283464565
0
LINE
8
BLACK
6
CONTINUOUS
10
5.356392283464567
20
-3.7671732283464565
11
5.3570841732283467
21
-3.7655029133858267
0
LINE
8
BLACK
6
CONTINUOUS
10
5.3570841732283467
20
-3.7655029133858267
11
5.3587544881889766
21
-3.7648110236220473
0
LINE
8
BLACK
6
CONTINUOUS
10
5.3587544881889766
20
-3.7648110236220473
11
5.3672455118110234
21
-3.7648110236220473
0
LINE
8
BLACK
6
CONTINUOUS
10
5.3672455118110234
20
-3.7648110236220473
11
5.3689158267716532
21
-3.7655029133858267
0
LINE
8
BLACK
6
CONTINUOUS
10
5.1301452362204722
20
-3.7088698818897639
11
5.1308360629921257
21
-3.7107678740157479
0
LINE
8
BLACK
6
CONTINUOUS
10
5.1308360629921257
20
-3.7107678740157479
11
5.1308360629921257
21
-3.755762244094488
0
LINE
8
BLACK
6
CONTINUOUS
10
5.1308360629921257
20
-3.755762244094488
11
5.1306579921259843
21
-3.7567721653543305
0
LINE
8
BLACK
6
CONTINUOUS
10
5.1306579921259843
20
-3.7567721653543305
11
5.1293596850393701
21
-3.7583194094488186
0
LINE
8
BLACK
6
CONTINUOUS
10
5.1293596850393701
20
-3.7583194094488186
11
5.1273705511811025
21
-3.758670157480315
0
LINE
8
BLACK
6
CONTINUOUS
10
5.1273705511811025
20
-3.758670157480315
11
5.125621377952756
21
-3.7576602362204725
0
LINE
8
BLACK
6
CONTINUOUS
10
5.125621377952756
20
-3.7576602362204725
11
5.1249305511811025
21
-3.755762244094488
0
LINE
8
BLACK
6
CONTINUOUS
10
5.1249305511811025
20
-3.755762244094488
11
5.1249305511811025
21
-3.7107678740157479
0
LINE
8
BLACK
6
CONTINUOUS
10
5.1249305511811025
20
-3.7107678740157479
11
5.1251086220472439
21
-3.7097579527559055
0
LINE
8
BLACK
6
CONTINUOUS
10
5.1251086220472439
20
-3.7097579527559055
11
5.1264069291338581
21
-3.7082107086614173
0
LINE
8
BLACK
6
CONTINUOUS
10
5.1264069291338581
20
-3.7082107086614173
11
5.1283960629921257
21
-3.707859960629921
0
LINE
8
BLACK
6
CONTINUOUS
10
5.1283960629921257
20
-3.707859960629921
11
5.1301452362204722
21
-3.7088698818897639
0
LINE
8
BLACK
6
CONTINUOUS
10
5.2609158267716536
20
-3.7391564566929132
11
5.2616077165354334
21
-3.740826771653543
0
LINE
8
BLACK
6
CONTINUOUS
10
5.2616077165354334
20
-3.740826771653543
11
5.2609158267716536
21
-3.7424970866141734
0
LINE
8
BLACK
6
CONTINUOUS
10
5.2609158267716536
20
-3.7424970866141734
11
5.2592455118110237
21
-3.7431889763779527
0
LINE
8
BLACK
6
CONTINUOUS
10
5.2592455118110237
20
-3.7431889763779527
11
5.2507544881889761
21
-3.7431889763779527
0
LINE
8
BLACK
6
CONTINUOUS
10
5.2507544881889761
20
-3.7431889763779527
11
5.2490841732283462
21
-3.7424970866141734
0
LINE
8
BLACK
6
CONTINUOUS
10
5.2490841732283462
20
-3.7424970866141734
11
5.2483922834645664
21
-3.740826771653543
0
LINE
8
BLACK
6
CONTINUOUS
10
5.2483922834645664
20
-3.740826771653543
11
5.2490841732283462
21
-3.7391564566929132
0
LINE
8
BLACK
6
CONTINUOUS
10
5.2490841732283462
20
-3.7391564566929132
11
5.2507544881889761
21
-3.7384645669291339
0
LINE
8
BLACK
6
CONTINUOUS
10
5.2507544881889761
20
-3.7384645669291339
11
5.2592455118110237
21
-3.7384645669291339
0
LINE
8
BLACK
6
CONTINUOUS
10
5.2592455118110237
20
-3.7384645669291339
11
5.2609158267716536
21
-3.7391564566929132
0
LINE
8
BLACK
6
CONTINUOUS
10
5.8081663779527561
20
-3.6793926771653545
11
5.808858267716535
21
-3.6810629921259843
0
LINE
8
BLACK
6
CONTINUOUS
10
5.808858267716535
20
-3.6810629921259843
11
5.8081663779527561
21
-3.6827333070866142
0
LINE
8
BLACK
6
CONTINUOUS
10
5.8081663779527561
20
-3.6827333070866142
11
5.8064960629921263
21
-3.6834251968503935
0
LINE
8
BLACK
6
CONTINUOUS
10
5.8064960629921263
20
-3.6834251968503935
11
5.7120078740157476
21
-3.6834251968503935
0
LINE
8
BLACK
6
CONTINUOUS
10
5.7120078740157476
20
-3.6834251968503935
11
5.7120078740157476
21
-3.736574803149606
0
LINE
8
BLACK
6
CONTINUOUS
10
5.7120078740157476
20
-3.736574803149606
11
5.8064960629921263
21
-3.736574803149606
0
LINE
8
BLACK
6
CONTINUOUS
10
5.8064960629921263
20
-3.736574803149606
11
5.8081663779527561
21
-3.7372666929133858
0
LINE
8
BLACK
6
CONTINUOUS
10
5.8081663779527561
20
-3.7372666929133858
11
5.808858267716535
21
-3.7389370078740156
0
LINE
8
BLACK
6
CONTINUOUS
10
5.808858267716535
20
-3.7389370078740156
11
5.8081663779527561
21
-3.7406073228346455
0
LINE
8
BLACK
6
CONTINUOUS
10
5.8081663779527561
20
-3.7406073228346455
11
5.8064960629921263
21
-3.7412992125984252
0
LINE
8
BLACK
6
CONTINUOUS
10
5.8064960629921263
20
-3.7412992125984252
11
5.7096456692913389
21
-3.7412992125984252
0
LINE
8
BLACK
6
CONTINUOUS
10
5.7096456692913389
20
-3.7412992125984252
11
5.7079753543307081
21
-3.7406073228346455
0
LINE
8
BLACK
6
CONTINUOUS
10
5.7079753543307081
20
-3.7406073228346455
11
5.7072834645669293
21
-3.7389370078740156
0
LINE
8
BLACK
6
CONTINUOUS
10
5.7072834645669293
20
-3.7389370078740156
11
5.7072834645669293
21
-3.6810629921259843
0
LINE
8
BLACK
6
CONTINUOUS
10
5.7072834645669293
20
-3.6810629921259843
11
5.7079753543307081
21
-3.6793926771653545
0
LINE
8
BLACK
6
CONTINUOUS
10
5.7079753543307081
20
-3.6793926771653545
11
5.7096456692913389
21
-3.6787007874015747
0
LINE
8
BLACK
6
CONTINUOUS
10
5.7096456692913389
20
-3.6787007874015747
11
5.8064960629921263
21
-3.6787007874015747
0
LINE
8
BLACK
6
CONTINUOUS
10
5.8064960629921263
20
-3.6787007874015747
11
5.8081663779527561
21
-3.6793926771653545
0
LINE
8
BLACK
6
CONTINUOUS
10
5.3689158267716532
20
-3.7371564566929134
11
5.369607716535433
21
-3.7388267716535433
0
LINE
8
BLACK
6
CONTINUOUS
10
5.369607716535433
20
-3.7388267716535433
11
5.3689158267716532
21
-3.7404970866141731
0
LINE
8
BLACK
6
CONTINUOUS
10
5.3689158267716532
20
-3.7404970866141731
11
5.3672455118110234
21
-3.7411889763779529
0
LINE
8
BLACK
6
CONTINUOUS
10
5.3672455118110234
20
-3.7411889763779529
11
5.3587544881889766
21
-3.7411889763779529
0
LINE
8
BLACK
6
CONTINUOUS
10
5.3587544881889766
20
-3.7411889763779529
11
5.3570841732283467
21
-3.7404970866141731
0
LINE
8
BLACK
6
CONTINUOUS
10
5.3570841732283467
20
-3.7404970866141731
11
5.356392283464567
21
-3.7388267716535433
0
LINE
8
BLACK
6
CONTINUOUS
10
5.356392283464567
20
-3.7388267716535433
11
5.3570841732283467
21
-3.7371564566929134
0
LINE
8
BLACK
6
CONTINUOUS
10
5.3570841732283467
20
-3.7371564566929134
11
5.3587544881889766
21
-3.7364645669291336
0
LINE
8
BLACK
6
CONTINUOUS
10
5.3587544881889766
20
-3.7364645669291336
11
5.3672455118110234
21
-3.7364645669291336
0
LINE
8
BLACK
6
CONTINUOUS
10
5.3672455118110234
20
-3.7364645669291336
11
5.3689158267716532
21
-3.7371564566929134
0
LINE
8
BLACK
6
CONTINUOUS
10
5.9262293700787403
20
-3.6847076377952757
11
5.9269212598425192
21
-3.6863779527559055
0
LINE
8
BLACK
6
CONTINUOUS
10
5.9269212598425192
20
-3.6863779527559055
11
5.9262293700787403
21
-3.6880482677165354
0
LINE
8
BLACK
6
CONTINUOUS
10
5.9262293700787403
20
-3.6880482677165354
11
5.9245590551181104
21
-3.6887401574803147
0
LINE
8
BLACK
6
CONTINUOUS
10
5.9245590551181104
20
-3.6887401574803147
11
5.8497559055118105
21
-3.6887401574803147
0
LINE
8
BLACK
6
CONTINUOUS
10
5.8497559055118105
20
-3.6887401574803147
11
5.8497559055118105
21
-3.7312598425196848
0
LINE
8
BLACK
6
CONTINUOUS
10
5.8497559055118105
20
-3.7312598425196848
11
5.9245590551181104
21
-3.7312598425196848
0
LINE
8
BLACK
6
CONTINUOUS
10
5.9245590551181104
20
-3.7312598425196848
11
5.9262293700787403
21
-3.7319517322834646
0
LINE
8
BLACK
6
CONTINUOUS
10
5.9262293700787403
20
-3.7319517322834646
11
5.9269212598425192
21
-3.7336220472440944
0
LINE
8
BLACK
6
CONTINUOUS
10
5.9269212598425192
20
-3.7336220472440944
11
5.9262293700787403
21
-3.7352923622047243
0
LINE
8
BLACK
6
CONTINUOUS
10
5.9262293700787403
20
-3.7352923622047243
11
5.9245590551181104
21
-3.735984251968504
0
LINE
8
BLACK
6
CONTINUOUS
10
5.9245590551181104
20
-3.735984251968504
11
5.8473937007874017
21
-3.735984251968504
0
LINE
8
BLACK
6
CONTINUOUS
10
5.8473937007874017
20
-3.735984251968504
11
5.8457233858267719
21
-3.7352923622047243
0
LINE
8
BLACK
6
CONTINUOUS
10
5.8457233858267719
20
-3.7352923622047243
11
5.8450314960629921
21
-3.7336220472440944
0
LINE
8
BLACK
6
CONTINUOUS
10
5.8450314960629921
20
-3.7336220472440944
11
5.8450314960629921
21
-3.6863779527559055
0
LINE
8
BLACK
6
CONTINUOUS
10
5.8450314960629921
20
-3.6863779527559055
11
5.8457233858267719
21
-3.6847076377952757
0
LINE
8
BLACK
6
CONTINUOUS
10
5.8457233858267719
20
-3.6847076377952757
11
5.8473937007874017
21
-3.6840157480314959
0
LINE
8
BLACK
6
CONTINUOUS
10
5.8473937007874017
20
-3.6840157480314959
11
5.9245590551181104
21
-3.6840157480314959
0
LINE
8
BLACK
6
CONTINUOUS
10
5.9245590551181104
20
-3.6840157480314959
11
5.9262293700787403
21
-3.6847076377952757
0
LINE
8
BLACK
6
CONTINUOUS
10
5.4174970866141727
20
-3.7190841732283464
11
5.4181889763779525
21
-3.7207544881889763
0
LINE
8
BLACK
6
CONTINUOUS
10
5.4181889763779525
20
-3.7207544881889763
11
5.4181889763779525
21
-3.7292455118110235
0
LINE
8
BLACK
6
CONTINUOUS
10
5.4181889763779525
20
-3.7292455118110235
11
5.4174970866141727
21
-3.7309158267716533
0
LINE
8
BLACK
6
CONTINUOUS
10
5.4174970866141727
20
-3.7309158267716533
11
5.4158267716535429
21
-3.7316077165354331
0
LINE
8
BLACK
6
CONTINUOUS
10
5.4158267716535429
20
-3.7316077165354331
11
5.414156456692913
21
-3.7309158267716533
0
LINE
8
BLACK
6
CONTINUOUS
10
5.414156456692913
20
-3.7309158267716533
11
5.4134645669291341
21
-3.7292455118110235
0
LINE
8
BLACK
6
CONTINUOUS
10
5.4134645669291341
20
-3.7292455118110235
11
5.4134645669291341
21
-3.7207544881889763
0
LINE
8
BLACK
6
CONTINUOUS
10
5.4134645669291341
20
-3.7207544881889763
11
5.414156456692913
21
-3.7190841732283464
0
LINE
8
BLACK
6
CONTINUOUS
10
5.414156456692913
20
-3.7190841732283464
11
5.4158267716535429
21
-3.7183922834645666
0
LINE
8
BLACK
6
CONTINUOUS
10
5.4158267716535429
20
-3.7183922834645666
11
5.4174970866141727
21
-3.7190841732283464
0
LINE
8
BLACK
6
CONTINUOUS
10
5.4458435433070864
20
-3.7190841732283464
11
5.4465354330708662
21
-3.7207544881889763
0
LINE
8
BLACK
6
CONTINUOUS
10
5.4465354330708662
20
-3.7207544881889763
11
5.4465354330708662
21
-3.7292455118110235
0
LINE
8
BLACK
6
CONTINUOUS
10
5.4465354330708662
20
-3.7292455118110235
11
5.4458435433070864
21
-3.7309158267716533
0
LINE
8
BLACK
6
CONTINUOUS
10
5.4458435433070864
20
-3.7309158267716533
11
5.4441732283464566
21
-3.7316077165354331
0
LINE
8
BLACK
6
CONTINUOUS
10
5.4441732283464566
20
-3.7316077165354331
11
5.4425029133858267
21
-3.7309158267716533
0
LINE
8
BLACK
6
CONTINUOUS
10
5.4425029133858267
20
-3.7309158267716533
11
5.4418110236220469
21
-3.7292455118110235
0
LINE
8
BLACK
6
CONTINUOUS
10
5.4418110236220469
20
-3.7292455118110235
11
5.4418110236220469
21
-3.7207544881889763
0
LINE
8
BLACK
6
CONTINUOUS
10
5.4418110236220469
20
-3.7207544881889763
11
5.4425029133858267
21
-3.7190841732283464
0
LINE
8
BLACK
6
CONTINUOUS
10
5.4425029133858267
20
-3.7190841732283464
11
5.4441732283464566
21
-3.7183922834645666
0
LINE
8
BLACK
6
CONTINUOUS
10
5.4441732283464566
20
-3.7183922834645666
11
5.4458435433070864
21
-3.7190841732283464
0
LINE
8
BLACK
6
CONTINUOUS
10
5.6304970866141728
20
-3.7100841732283465
11
5.6311889763779526
21
-3.7117544881889764
0
LINE
8
BLACK
6
CONTINUOUS
10
5.6311889763779526
20
-3.7117544881889764
11
5.6311889763779526
21
-3.7202455118110236
0
LINE
8
BLACK
6
CONTINUOUS
10
5.6311889763779526
20
-3.7202455118110236
11
5.6304970866141728
21
-3.7219158267716534
0
LINE
8
BLACK
6
CONTINUOUS
10
5.6304970866141728
20
-3.7219158267716534
11
5.6288267716535429
21
-3.7226077165354328
0
LINE
8
BLACK
6
CONTINUOUS
10
5.6288267716535429
20
-3.7226077165354328
11
5.6271564566929131
21
-3.7219158267716534
0
LINE
8
BLACK
6
CONTINUOUS
10
5.6271564566929131
20
-3.7219158267716534
11
5.6264645669291333
21
-3.7202455118110236
0
LINE
8
BLACK
6
CONTINUOUS
10
5.6264645669291333
20
-3.7202455118110236
11
5.6264645669291333
21
-3.7117544881889764
0
LINE
8
BLACK
6
CONTINUOUS
10
5.6264645669291333
20
-3.7117544881889764
11
5.6271564566929131
21
-3.7100841732283465
0
LINE
8
BLACK
6
CONTINUOUS
10
5.6271564566929131
20
-3.7100841732283465
11
5.6288267716535429
21
-3.7093922834645667
0
LINE
8
BLACK
6
CONTINUOUS
10
5.6288267716535429
20
-3.7093922834645667
11
5.6304970866141728
21
-3.7100841732283465
0
LINE
8
BLACK
6
CONTINUOUS
10
5.6588435433070865
20
-3.7100841732283465
11
5.6595354330708663
21
-3.7117544881889764
0
LINE
8
BLACK
6
CONTINUOUS
10
5.6595354330708663
20
-3.7117544881889764
11
5.6595354330708663
21
-3.7202455118110236
0
LINE
8
BLACK
6
CONTINUOUS
10
5.6595354330708663
20
-3.7202455118110236
11
5.6588435433070865
21
-3.7219158267716534
0
LINE
8
BLACK
6
CONTINUOUS
10
5.6588435433070865
20
-3.7219158267716534
11
5.6571732283464566
21
-3.7226077165354328
0
LINE
8
BLACK
6
CONTINUOUS
10
5.6571732283464566
20
-3.7226077165354328
11
5.6555029133858268
21
-3.7219158267716534
0
LINE
8
BLACK
6
CONTINUOUS
10
5.6555029133858268
20
-3.7219158267716534
11
5.654811023622047
21
-3.7202455118110236
0
LINE
8
BLACK
6
CONTINUOUS
10
5.654811023622047
20
-3.7202455118110236
11
5.654811023622047
21
-3.7117544881889764
0
LINE
8
BLACK
6
CONTINUOUS
10
5.654811023622047
20
-3.7117544881889764
11
5.6555029133858268
21
-3.7100841732283465
0
LINE
8
BLACK
6
CONTINUOUS
10
5.6555029133858268
20
-3.7100841732283465
11
5.6571732283464566
21
-3.7093922834645667
0
LINE
8
BLACK
6
CONTINUOUS
10
5.6571732283464566
20
-3.7093922834645667
11
5.6588435433070865
21
-3.7100841732283465
0
LINE
8
BLACK
6
CONTINUOUS
10
5.1388759448818897
20
-3.6608808267716535
11
5.1398094488188972
21
-3.6626719685039371
0
LINE
8
BLACK
6
CONTINUOUS
10
5.1398094488188972
20
-3.6626719685039371
11
5.1393733070866139
21
-3.6646441338582676
0
LINE
8
BLACK
6
CONTINUOUS
10
5.1393733070866139
20
-3.6646441338582676
11
5.1293362204724406
21
-3.6804166535433072
0
LINE
8
BLACK
6
CONTINUOUS
10
5.1293362204724406
20
-3.6804166535433072
11
5.1293362204724406
21
-3.6945549212598423
0
LINE
8
BLACK
6
CONTINUOUS
10
5.1293362204724406
20
-3.6945549212598423
11
5.1291581496062992
21
-3.6955648425196848
0
LINE
8
BLACK
6
CONTINUOUS
10
5.1291581496062992
20
-3.6955648425196848
11
5.1278598425196851
21
-3.6971120866141733
0
LINE
8
BLACK
6
CONTINUOUS
10
5.1278598425196851
20
-3.6971120866141733
11
5.1258707086614175
21
-3.6974628346456693
0
LINE
8
BLACK
6
CONTINUOUS
10
5.1258707086614175
20
-3.6974628346456693
11
5.1241215354330709
21
-3.6964529133858268
0
LINE
8
BLACK
6
CONTINUOUS
10
5.1241215354330709
20
-3.6964529133858268
11
5.1234307086614175
21
-3.6945549212598423
0
LINE
8
BLACK
6
CONTINUOUS
10
5.1234307086614175
20
-3.6945549212598423
11
5.1234307086614175
21
-3.6804166141732284
0
LINE
8
BLACK
6
CONTINUOUS
10
5.1234307086614175
20
-3.6804166141732284
11
5.113393661417323
21
-3.6646441338582676
0
LINE
8
BLACK
6
CONTINUOUS
10
5.113393661417323
20
-3.6646441338582676
11
5.1130016929133859
21
-3.6636964960629919
0
LINE
8
BLACK
6
CONTINUOUS
10
5.1130016929133859
20
-3.6636964960629919
11
5.1132663779527556
21
-3.6616940944881891
0
LINE
8
BLACK
6
CONTINUOUS
10
5.1132663779527556
20
-3.6616940944881891
11
5.1147562204724411
21
-3.6603302755905509
0
LINE
8
BLACK
6
CONTINUOUS
10
5.1147562204724411
20
-3.6603302755905509
11
5.116774133858268
21
-3.6602432283464568
0
LINE
8
BLACK
6
CONTINUOUS
10
5.116774133858268
20
-3.6602432283464568
11
5.1183759448818895
21
-3.6614735826771652
0
LINE
8
BLACK
6
CONTINUOUS
10
5.1183759448818895
20
-3.6614735826771652
11
5.1263834251968499
21
-3.6740568503937006
0
LINE
8
BLACK
6
CONTINUOUS
10
5.1263834251968499
20
-3.6740568503937006
11
5.1343910629921261
21
-3.6614735826771652
0
LINE
8
BLACK
6
CONTINUOUS
10
5.1343910629921261
20
-3.6614735826771652
11
5.1350834645669288
21
-3.6607171653543307
0
LINE
8
BLACK
6
CONTINUOUS
10
5.1350834645669288
20
-3.6607171653543307
11
5.1370094881889763
21
-3.6601088188976378
0
LINE
8
BLACK
6
CONTINUOUS
10
5.1370094881889763
20
-3.6601088188976378
11
5.1388759448818897
21
-3.6608808267716535
0
LINE
8
BLACK
6
CONTINUOUS
10
5.5963069291338581
20
-3.6604772834645667
11
5.5970192913385821
21
-3.6606486614173228
0
LINE
8
BLACK
6
CONTINUOUS
10
5.5970192913385821
20
-3.6606486614173228
11
5.597120708661417
21
-3.6608143700787399
0
LINE
8
BLACK
6
CONTINUOUS
10
5.597120708661417
20
-3.6608143700787399
11
5.5973002362204722
21
-3.6608887401574801
0
LINE
8
BLACK
6
CONTINUOUS
10
5.5973002362204722
20
-3.6608887401574801
11
5.5975806299212598
21
-3.6615657086614171
0
LINE
8
BLACK
6
CONTINUOUS
10
5.5975806299212598
20
-3.6615657086614171
11
5.5979631889763777
21
-3.6621906299212599
0
LINE
8
BLACK
6
CONTINUOUS
10
5.5979631889763777
20
-3.6621906299212599
11
5.5979177165354326
21
-3.6623794881889764
0
LINE
8
BLACK
6
CONTINUOUS
10
5.5979177165354326
20
-3.6623794881889764
11
5.597992125984252
21
-3.66255905511811
0
LINE
8
BLACK
6
CONTINUOUS
10
5.597992125984252
20
-3.66255905511811
11
5.5977116535433069
21
-3.6632360629921261
0
LINE
8
BLACK
6
CONTINUOUS
10
5.5977116535433069
20
-3.6632360629921261
11
5.5975403149606295
21
-3.6639484251968502
0
LINE
8
BLACK
6
CONTINUOUS
10
5.5975403149606295
20
-3.6639484251968502
11
5.5880914960629919
21
-3.6769405511811022
0
LINE
8
BLACK
6
CONTINUOUS
10
5.5880914960629919
20
-3.6769405511811022
11
5.5877683070866144
21
-3.6771383858267717
0
LINE
8
BLACK
6
CONTINUOUS
10
5.5877683070866144
20
-3.6771383858267717
11
5.5875704724409445
21
-3.6774615748031496
0
LINE
8
BLACK
6
CONTINUOUS
10
5.5875704724409445
20
-3.6774615748031496
11
5.5870265748031498
21
-3.6775924015748029
0
LINE
8
BLACK
6
CONTINUOUS
10
5.5870265748031498
20
-3.6775924015748029
11
5.5865495275590549
21
-3.6778844488188978
0
LINE
8
BLACK
6
CONTINUOUS
10
5.5865495275590549
20
-3.6778844488188978
11
5.5861811023622048
21
-3.6777957874015748
0
LINE
8
BLACK
6
CONTINUOUS
10
5.5861811023622048
20
-3.6777957874015748
11
5.5858126771653538
21
-3.6778844488188978
0
LINE
8
BLACK
6
CONTINUOUS
10
5.5858126771653538
20
-3.6778844488188978
11
5.585335590551181
21
-3.6775924015748029
0
LINE
8
BLACK
6
CONTINUOUS
10
5.585335590551181
20
-3.6775924015748029
11
5.5847917322834641
21
-3.6774615748031496
0
LINE
8
BLACK
6
CONTINUOUS
10
5.5847917322834641
20
-3.6774615748031496
11
5.5845938582677164
21
-3.6771383858267717
0
LINE
8
BLACK
6
CONTINUOUS
10
5.5845938582677164
20
-3.6771383858267717
11
5.5842707086614176
21
-3.6769405511811022
0
LINE
8
BLACK
6
CONTINUOUS
10
5.5842707086614176
20
-3.6769405511811022
11
5.5748218897637791
21
-3.6639484251968502
0
LINE
8
BLACK
6
CONTINUOUS
10
5.5748218897637791
20
-3.6639484251968502
11
5.5746505118110239
21
-3.6632360629921261
0
LINE
8
BLACK
6
CONTINUOUS
10
5.5746505118110239
20
-3.6632360629921261
11
5.5743700787401576
21
-3.66255905511811
0
LINE
8
BLACK
6
CONTINUOUS
10
5.5743700787401576
20
-3.66255905511811
11
5.5744444488188973
21
-3.6623794881889764
0
LINE
8
BLACK
6
CONTINUOUS
10
5.5744444488188973
20
-3.6623794881889764
11
5.574399015748031
21
-3.6621906299212599
0
LINE
8
BLACK
6
CONTINUOUS
10
5.574399015748031
20
-3.6621906299212599
11
5.574781535433071
21
-3.6615657086614171
0
LINE
8
BLACK
6
CONTINUOUS
10
5.574781535433071
20
-3.6615657086614171
11
5.5750619685039373
21
-3.6608887401574801
0
LINE
8
BLACK
6
CONTINUOUS
10
5.5750619685039373
20
-3.6608887401574801
11
5.5752414566929129
21
-3.6608143700787399
0
LINE
8
BLACK
6
CONTINUOUS
10
5.5752414566929129
20
-3.6608143700787399
11
5.5753429133858265
21
-3.6606486614173228
0
LINE
8
BLACK
6
CONTINUOUS
10
5.5753429133858265
20
-3.6606486614173228
11
5.5760552362204727
21
-3.6604772834645667
0
LINE
8
BLACK
6
CONTINUOUS
10
5.5760552362204727
20
-3.6604772834645667
11
5.5767322834645672
21
-3.6601968503937008
0
LINE
8
BLACK
6
CONTINUOUS
10
5.5767322834645672
20
-3.6601968503937008
11
5.5956299212598424
21
-3.6601968503937008
0
LINE
8
BLACK
6
CONTINUOUS
10
5.5956299212598424
20
-3.6601968503937008
11
5.5963069291338581
21
-3.6604772834645667
0
LINE
8
BLACK
6
CONTINUOUS
10
5.5350000000000001
20
-3.671220472440945
11
5.5664960629921261
21
-3.671220472440945
0
LINE
8
BLACK
6
CONTINUOUS
10
5.5664960629921261
20
-3.671220472440945
11
5.5681663779527559
21
-3.6719123622047243
0
LINE
8
BLACK
6
CONTINUOUS
10
5.5681663779527559
20
-3.6719123622047243
11
5.5688582677165357
21
-3.6735826771653541
0
LINE
8
BLACK
6
CONTINUOUS
10
5.5688582677165357
20
-3.6735826771653541
11
5.5681663779527559
21
-3.675252992125984
0
LINE
8
BLACK
6
CONTINUOUS
10
5.5681663779527559
20
-3.675252992125984
11
5.5664960629921261
21
-3.6759448818897638
0
LINE
8
BLACK
6
CONTINUOUS
10
5.5664960629921261
20
-3.6759448818897638
11
5.5350000000000001
21
-3.6759448818897638
0
LINE
8
BLACK
6
CONTINUOUS
10
5.5350000000000001
20
-3.6759448818897638
11
5.5035039370078742
21
-3.6759448818897638
0
LINE
8
BLACK
6
CONTINUOUS
10
5.5035039370078742
20
-3.6759448818897638
11
5.5018336220472444
21
-3.675252992125984
0
LINE
8
BLACK
6
CONTINUOUS
10
5.5018336220472444
20
-3.675252992125984
11
5.5011417322834646
21
-3.6735826771653541
0
LINE
8
BLACK
6
CONTINUOUS
10
5.5011417322834646
20
-3.6735826771653541
11
5.5018336220472444
21
-3.6719123622047243
0
LINE
8
BLACK
6
CONTINUOUS
10
5.5018336220472444
20
-3.6719123622047243
11
5.5035039370078742
21
-3.671220472440945
0
LINE
8
BLACK
6
CONTINUOUS
10
5.5035039370078742
20
-3.671220472440945
11
5.5350000000000001
21
-3.671220472440945
0
CIRCLE
8
BLACK
10
4.8884251968503936
20
-3.6494488188976377
40
0.0068897637795276
0
CIRCLE
8
BLACK
10
4.8884251968503936
20
-4.2400000000000002
40
0.0068897637795276
0
CIRCLE
8
BLACK
10
5.2821259842519686
20
-4.2400000000000002
40
0.0068897637795276
0
CIRCLE
8
BLACK
10
5.2821259842519686
20
-3.6494488188976377
40
0.0068897637795276
0
CIRCLE
8
BLACK
10
5.146299212598425
20
-4.0037795275590549
40
0.0068897637795276
0
CIRCLE
8
BLACK
10
4.8588976377952751
20
-4.0037795275590549
40
0.0068897637795276
0
CIRCLE
8
BLACK
10
4.8588976377952751
20
-3.834488188976378
40
0.0068897637795276
  0
ENDSEC
  0
EOF
