  0
SECTION
  2
HEADER
  9
$ANGBASE
  50
0.0
  9
$ANGDIR
  70
1
  9
$MEASUREMENT
  70
0
  0
ENDSEC
  0
SECTION
  2
TABLES
  0
TABLE
  2
LTYPE
  70
4
  0
LTYPE
  5
40F
  2
CONTINUOUS
  70
0
  3
Solid line
  72
65
  73
0
  40
0.0
  0
LTYPE
  5
410
  2
DASHDOT
 70
0
  3
Dash Dot ____ _ ____ _
 72
65
 73
4
 40
2.0
 49
1.25
 49
-0.25
 49
0.25
 49
-0.25
  0
LTYPE
  5
411
  2
DASHED
 70
0
  3
Dashed __ __ __ __ __
 72
65
 73
2
 40
0.75
 49
0.5
 49
-0.25
  0
LTYPE
  5
43B
  2
DOTTED
 70
0
  3
Dotted .  .  .  .
 72
65
 73
2
 40
0.2
 49
0.0
 49
-0.2
  0
ENDTAB
  0
TABLE
  2
STYLE
  70
4
  0
STYLE
  2
KICAD
  70
0
  40
0
  41
1
  42
1
  50
0
  71
0
  3
isocp.shx
  0
STYLE
  2
KICADB
  70
0
  40
0
  41
1
  42
1
  50
0
  71
0
  3
isocp.shx
  0
STYLE
  2
KICADI
  70
0
  40
0
  41
1
  42
1
  50
15
  71
0
  3
isocp.shx
  0
STYLE
  2
KICADBI
  70
0
  40
0
  41
1
  42
1
  50
15
  71
0
  3
isocp.shx
  0
ENDTAB
  0
TABLE
  2
LAYER
  70
1
  0
LAYER
  2
BLACK
  70
0
  62
7
  6
CONTINUOUS
  0
ENDTAB
  0
ENDSEC
  0
SECTION
  2
ENTITIES
0
LINE
8
BLACK
6
CONTINUOUS
10
5.6399999999999997
20
-4.2190551181102363
11
5.6714960629921256
21
-4.2190551181102363
0
LINE
8
BLACK
6
CONTINUOUS
10
5.6714960629921256
20
-4.2190551181102363
11
5.6731663779527555
21
-4.219747007874016
0
LINE
8
BLACK
6
CONTINUOUS
10
5.6731663779527555
20
-4.219747007874016
11
5.6738582677165352
21
-4.2214173228346459
0
LINE
8
BLACK
6
CONTINUOUS
10
5.6738582677165352
20
-4.2214173228346459
11
5.6731663779527555
21
-4.2230876377952757
0
LINE
8
BLACK
6
CONTINUOUS
10
5.6731663779527555
20
-4.2230876377952757
11
5.6714960629921256
21
-4.2237795275590546
0
LINE
8
BLACK
6
CONTINUOUS
10
5.6714960629921256
20
-4.2237795275590546
11
5.6399999999999997
21
-4.2237795275590546
0
LINE
8
BLACK
6
CONTINUOUS
10
5.6399999999999997
20
-4.2237795275590546
11
5.6085039370078738
21
-4.2237795275590546
0
LINE
8
BLACK
6
CONTINUOUS
10
5.6085039370078738
20
-4.2237795275590546
11
5.6068336220472439
21
-4.2230876377952757
0
LINE
8
BLACK
6
CONTINUOUS
10
5.6068336220472439
20
-4.2230876377952757
11
5.6061417322834641
21
-4.2214173228346459
0
LINE
8
BLACK
6
CONTINUOUS
10
5.6061417322834641
20
-4.2214173228346459
11
5.6068336220472439
21
-4.219747007874016
0
LINE
8
BLACK
6
CONTINUOUS
10
5.6068336220472439
20
-4.219747007874016
11
5.6085039370078738
21
-4.2190551181102363
0
LINE
8
BLACK
6
CONTINUOUS
10
5.6085039370078738
20
-4.2190551181102363
11
5.6399999999999997
21
-4.2190551181102363
0
LINE
8
BLACK
6
CONTINUOUS
10
5.7384970866141733
20
-4.1720841732283462
11
5.7391889763779522
21
-4.1737544881889761
0
LINE
8
BLACK
6
CONTINUOUS
10
5.7391889763779522
20
-4.1737544881889761
11
5.7391889763779522
21
-4.1822455118110238
0
LINE
8
BLACK
6
CONTINUOUS
10
5.7391889763779522
20
-4.1822455118110238
11
5.7384970866141733
21
-4.1839158267716536
0
LINE
8
BLACK
6
CONTINUOUS
10
5.7384970866141733
20
-4.1839158267716536
11
5.7368267716535435
21
-4.1846077165354334
0
LINE
8
BLACK
6
CONTINUOUS
10
5.7368267716535435
20
-4.1846077165354334
11
5.7351564566929136
21
-4.1839158267716536
0
LINE
8
BLACK
6
CONTINUOUS
10
5.7351564566929136
20
-4.1839158267716536
11
5.7344645669291339
21
-4.1822455118110238
0
LINE
8
BLACK
6
CONTINUOUS
10
5.7344645669291339
20
-4.1822455118110238
11
5.7344645669291339
21
-4.1737544881889761
0
LINE
8
BLACK
6
CONTINUOUS
10
5.7344645669291339
20
-4.1737544881889761
11
5.7351564566929136
21
-4.1720841732283462
0
LINE
8
BLACK
6
CONTINUOUS
10
5.7351564566929136
20
-4.1720841732283462
11
5.7368267716535435
21
-4.1713922834645665
0
LINE
8
BLACK
6
CONTINUOUS
10
5.7368267716535435
20
-4.1713922834645665
11
5.7384970866141733
21
-4.1720841732283462
0
LINE
8
BLACK
6
CONTINUOUS
10
5.7668435433070862
20
-4.1720841732283462
11
5.7675354330708659
21
-4.1737544881889761
0
LINE
8
BLACK
6
CONTINUOUS
10
5.7675354330708659
20
-4.1737544881889761
11
5.7675354330708659
21
-4.1822455118110238
0
LINE
8
BLACK
6
CONTINUOUS
10
5.7675354330708659
20
-4.1822455118110238
11
5.7668435433070862
21
-4.1839158267716536
0
LINE
8
BLACK
6
CONTINUOUS
10
5.7668435433070862
20
-4.1839158267716536
11
5.7651732283464563
21
-4.1846077165354334
0
LINE
8
BLACK
6
CONTINUOUS
10
5.7651732283464563
20
-4.1846077165354334
11
5.7635029133858264
21
-4.1839158267716536
0
LINE
8
BLACK
6
CONTINUOUS
10
5.7635029133858264
20
-4.1839158267716536
11
5.7628110236220467
21
-4.1822455118110238
0
LINE
8
BLACK
6
CONTINUOUS
10
5.7628110236220467
20
-4.1822455118110238
11
5.7628110236220467
21
-4.1737544881889761
0
LINE
8
BLACK
6
CONTINUOUS
10
5.7628110236220467
20
-4.1737544881889761
11
5.7635029133858264
21
-4.1720841732283462
0
LINE
8
BLACK
6
CONTINUOUS
10
5.7635029133858264
20
-4.1720841732283462
11
5.7651732283464563
21
-4.1713922834645665
0
LINE
8
BLACK
6
CONTINUOUS
10
5.7651732283464563
20
-4.1713922834645665
11
5.7668435433070862
21
-4.1720841732283462
0
LINE
8
BLACK
6
CONTINUOUS
10
5.7824970866141729
20
-4.1720841732283462
11
5.7831889763779527
21
-4.1737544881889761
0
LINE
8
BLACK
6
CONTINUOUS
10
5.7831889763779527
20
-4.1737544881889761
11
5.7831889763779527
21
-4.1822455118110238
0
LINE
8
BLACK
6
CONTINUOUS
10
5.7831889763779527
20
-4.1822455118110238
11
5.7824970866141729
21
-4.1839158267716536
0
LINE
8
BLACK
6
CONTINUOUS
10
5.7824970866141729
20
-4.1839158267716536
11
5.7808267716535431
21
-4.1846077165354334
0
LINE
8
BLACK
6
CONTINUOUS
10
5.7808267716535431
20
-4.1846077165354334
11
5.7791564566929132
21
-4.1839158267716536
0
LINE
8
BLACK
6
CONTINUOUS
10
5.7791564566929132
20
-4.1839158267716536
11
5.7784645669291335
21
-4.1822455118110238
0
LINE
8
BLACK
6
CONTINUOUS
10
5.7784645669291335
20
-4.1822455118110238
11
5.7784645669291335
21
-4.1737544881889761
0
LINE
8
BLACK
6
CONTINUOUS
10
5.7784645669291335
20
-4.1737544881889761
11
5.7791564566929132
21
-4.1720841732283462
0
LINE
8
BLACK
6
CONTINUOUS
10
5.7791564566929132
20
-4.1720841732283462
11
5.7808267716535431
21
-4.1713922834645665
0
LINE
8
BLACK
6
CONTINUOUS
10
5.7808267716535431
20
-4.1713922834645665
11
5.7824970866141729
21
-4.1720841732283462
0
LINE
8
BLACK
6
CONTINUOUS
10
5.8108435433070866
20
-4.1720841732283462
11
5.8115354330708664
21
-4.1737544881889761
0
LINE
8
BLACK
6
CONTINUOUS
10
5.8115354330708664
20
-4.1737544881889761
11
5.8115354330708664
21
-4.1822455118110238
0
LINE
8
BLACK
6
CONTINUOUS
10
5.8115354330708664
20
-4.1822455118110238
11
5.8108435433070866
21
-4.1839158267716536
0
LINE
8
BLACK
6
CONTINUOUS
10
5.8108435433070866
20
-4.1839158267716536
11
5.8091732283464568
21
-4.1846077165354334
0
LINE
8
BLACK
6
CONTINUOUS
10
5.8091732283464568
20
-4.1846077165354334
11
5.8075029133858269
21
-4.1839158267716536
0
LINE
8
BLACK
6
CONTINUOUS
10
5.8075029133858269
20
-4.1839158267716536
11
5.8068110236220472
21
-4.1822455118110238
0
LINE
8
BLACK
6
CONTINUOUS
10
5.8068110236220472
20
-4.1822455118110238
11
5.8068110236220472
21
-4.1737544881889761
0
LINE
8
BLACK
6
CONTINUOUS
10
5.8068110236220472
20
-4.1737544881889761
11
5.8075029133858269
21
-4.1720841732283462
0
LINE
8
BLACK
6
CONTINUOUS
10
5.8075029133858269
20
-4.1720841732283462
11
5.8091732283464568
21
-4.1713922834645665
0
LINE
8
BLACK
6
CONTINUOUS
10
5.8091732283464568
20
-4.1713922834645665
11
5.8108435433070866
21
-4.1720841732283462
0
LINE
8
BLACK
6
CONTINUOUS
10
4.9867096850393704
20
-4.1622808267716538
11
4.9874015748031493
21
-4.1639511417322836
0
LINE
8
BLACK
6
CONTINUOUS
10
4.9874015748031493
20
-4.1639511417322836
11
4.9874015748031493
21
-4.1760488582677162
0
LINE
8
BLACK
6
CONTINUOUS
10
4.9874015748031493
20
-4.1760488582677162
11
4.9867096850393704
21
-4.1777191732283461
0
LINE
8
BLACK
6
CONTINUOUS
10
4.9867096850393704
20
-4.1777191732283461
11
4.9850393700787397
21
-4.1784110629921258
0
LINE
8
BLACK
6
CONTINUOUS
10
4.9850393700787397
20
-4.1784110629921258
11
4.9833690551181098
21
-4.1777191732283461
0
LINE
8
BLACK
6
CONTINUOUS
10
4.9833690551181098
20
-4.1777191732283461
11
4.9826771653543309
21
-4.1760488582677162
0
LINE
8
BLACK
6
CONTINUOUS
10
4.9826771653543309
20
-4.1760488582677162
11
4.9826771653543309
21
-4.1639511417322836
0
LINE
8
BLACK
6
CONTINUOUS
10
4.9826771653543309
20
-4.1639511417322836
11
4.9833690551181098
21
-4.1622808267716538
0
LINE
8
BLACK
6
CONTINUOUS
10
4.9833690551181098
20
-4.1622808267716538
11
4.9850393700787397
21
-4.161588937007874
0
LINE
8
BLACK
6
CONTINUOUS
10
4.9850393700787397
20
-4.161588937007874
11
4.9867096850393704
21
-4.1622808267716538
0
LINE
8
BLACK
6
CONTINUOUS
10
5.0166309448818893
20
-4.1622808267716538
11
5.0173228346456691
21
-4.1639511417322836
0
LINE
8
BLACK
6
CONTINUOUS
10
5.0173228346456691
20
-4.1639511417322836
11
5.0173228346456691
21
-4.1760488582677162
0
LINE
8
BLACK
6
CONTINUOUS
10
5.0173228346456691
20
-4.1760488582677162
11
5.0166309448818893
21
-4.1777191732283461
0
LINE
8
BLACK
6
CONTINUOUS
10
5.0166309448818893
20
-4.1777191732283461
11
5.0149606299212595
21
-4.1784110629921258
0
LINE
8
BLACK
6
CONTINUOUS
10
5.0149606299212595
20
-4.1784110629921258
11
5.0132903149606296
21
-4.1777191732283461
0
LINE
8
BLACK
6
CONTINUOUS
10
5.0132903149606296
20
-4.1777191732283461
11
5.0125984251968498
21
-4.1760488582677162
0
LINE
8
BLACK
6
CONTINUOUS
10
5.0125984251968498
20
-4.1760488582677162
11
5.0125984251968498
21
-4.1639511417322836
0
LINE
8
BLACK
6
CONTINUOUS
10
5.0125984251968498
20
-4.1639511417322836
11
5.0132903149606296
21
-4.1622808267716538
0
LINE
8
BLACK
6
CONTINUOUS
10
5.0132903149606296
20
-4.1622808267716538
11
5.0149606299212595
21
-4.161588937007874
0
LINE
8
BLACK
6
CONTINUOUS
10
5.0149606299212595
20
-4.161588937007874
11
5.0166309448818893
21
-4.1622808267716538
0
LINE
8
BLACK
6
CONTINUOUS
10
5.3312383070866138
20
-4.1551886220472438
11
5.3319291338582673
21
-4.1570866141732283
0
LINE
8
BLACK
6
CONTINUOUS
10
5.3319291338582673
20
-4.1570866141732283
11
5.3319291338582673
21
-4.1639763779527561
0
LINE
8
BLACK
6
CONTINUOUS
10
5.3319291338582673
20
-4.1639763779527561
11
5.3318614960629924
21
-4.164359881889764
0
LINE
8
BLACK
6
CONTINUOUS
10
5.3318614960629924
20
-4.164359881889764
11
5.3318842913385822
21
-4.1644891338582672
0
LINE
8
BLACK
6
CONTINUOUS
10
5.3318842913385822
20
-4.1644891338582672
11
5.3318186614173229
21
-4.1646027165354331
0
LINE
8
BLACK
6
CONTINUOUS
10
5.3318186614173229
20
-4.1646027165354331
11
5.3317510629921259
21
-4.1649862992125986
0
LINE
8
BLACK
6
CONTINUOUS
10
5.3317510629921259
20
-4.1649862992125986
11
5.3312579133858264
21
-4.1655739763779529
0
LINE
8
BLACK
6
CONTINUOUS
10
5.3312579133858264
20
-4.1655739763779529
11
5.3308743700787398
21
-4.1662383070866138
0
LINE
8
BLACK
6
CONTINUOUS
10
5.3308743700787398
20
-4.1662383070866138
11
5.3306240157480316
21
-4.166329409448819
0
LINE
8
BLACK
6
CONTINUOUS
10
5.3306240157480316
20
-4.166329409448819
11
5.3304527559055117
21
-4.1665335433070867
0
LINE
8
BLACK
6
CONTINUOUS
10
5.3304527559055117
20
-4.1665335433070867
11
5.3296971653543306
21
-4.166666771653543
0
LINE
8
BLACK
6
CONTINUOUS
10
5.3296971653543306
20
-4.166666771653543
11
5.3289763779527561
21
-4.1669291338582672
0
LINE
8
BLACK
6
CONTINUOUS
10
5.3289763779527561
20
-4.1669291338582672
11
5.2010236220472441
21
-4.1669291338582672
0
LINE
8
BLACK
6
CONTINUOUS
10
5.2010236220472441
20
-4.1669291338582672
11
5.2006400787401574
21
-4.1668614960629924
0
LINE
8
BLACK
6
CONTINUOUS
10
5.2006400787401574
20
-4.1668614960629924
11
5.2005108661417321
21
-4.1668842913385822
0
LINE
8
BLACK
6
CONTINUOUS
10
5.2005108661417321
20
-4.1668842913385822
11
5.2003972440944883
21
-4.1668186614173228
0
LINE
8
BLACK
6
CONTINUOUS
10
5.2003972440944883
20
-4.1668186614173228
11
5.2000137007874017
21
-4.1667510629921258
0
LINE
8
BLACK
6
CONTINUOUS
10
5.2000137007874017
20
-4.1667510629921258
11
5.1994259842519686
21
-4.1662579133858264
0
LINE
8
BLACK
6
CONTINUOUS
10
5.1994259842519686
20
-4.1662579133858264
11
5.1987616929133855
21
-4.1658743700787397
0
LINE
8
BLACK
6
CONTINUOUS
10
5.1987616929133855
20
-4.1658743700787397
11
5.1986705511811024
21
-4.1656240157480315
0
LINE
8
BLACK
6
CONTINUOUS
10
5.1986705511811024
20
-4.1656240157480315
11
5.1984664566929135
21
-4.1654527559055117
0
LINE
8
BLACK
6
CONTINUOUS
10
5.1984664566929135
20
-4.1654527559055117
11
5.1983331889763775
21
-4.1646971653543305
0
LINE
8
BLACK
6
CONTINUOUS
10
5.1983331889763775
20
-4.1646971653543305
11
5.1980708661417321
21
-4.1639763779527561
0
LINE
8
BLACK
6
CONTINUOUS
10
5.1980708661417321
20
-4.1639763779527561
11
5.1980708661417321
21
-4.1570866141732283
0
LINE
8
BLACK
6
CONTINUOUS
10
5.1980708661417321
20
-4.1570866141732283
11
5.1982489370078735
21
-4.1560766929133859
0
LINE
8
BLACK
6
CONTINUOUS
10
5.1982489370078735
20
-4.1560766929133859
11
5.1995472440944877
21
-4.1545294488188977
0
LINE
8
BLACK
6
CONTINUOUS
10
5.1995472440944877
20
-4.1545294488188977
11
5.2015363779527561
21
-4.1541787007874014
0
LINE
8
BLACK
6
CONTINUOUS
10
5.2015363779527561
20
-4.1541787007874014
11
5.2032855511811018
21
-4.1551886220472438
0
LINE
8
BLACK
6
CONTINUOUS
10
5.2032855511811018
20
-4.1551886220472438
11
5.2039763779527561
21
-4.1570866141732283
0
LINE
8
BLACK
6
CONTINUOUS
10
5.2039763779527561
20
-4.1570866141732283
11
5.2039763779527561
21
-4.1610236220472441
0
LINE
8
BLACK
6
CONTINUOUS
10
5.2039763779527561
20
-4.1610236220472441
11
5.3260236220472441
21
-4.1610236220472441
0
LINE
8
BLACK
6
CONTINUOUS
10
5.3260236220472441
20
-4.1610236220472441
11
5.3260236220472441
21
-4.1570866141732283
0
LINE
8
BLACK
6
CONTINUOUS
10
5.3260236220472441
20
-4.1570866141732283
11
5.3262016929133855
21
-4.1560766929133859
0
LINE
8
BLACK
6
CONTINUOUS
10
5.3262016929133855
20
-4.1560766929133859
11
5.3274999999999997
21
-4.1545294488188977
0
LINE
8
BLACK
6
CONTINUOUS
10
5.3274999999999997
20
-4.1545294488188977
11
5.3294891338582673
21
-4.1541787007874014
0
LINE
8
BLACK
6
CONTINUOUS
10
5.3294891338582673
20
-4.1541787007874014
11
5.3312383070866138
21
-4.1551886220472438
0
LINE
8
BLACK
6
CONTINUOUS
10
5.5074970866141735
20
-4.1440841732283467
11
5.5081889763779524
21
-4.1457544881889765
0
LINE
8
BLACK
6
CONTINUOUS
10
5.5081889763779524
20
-4.1457544881889765
11
5.5081889763779524
21
-4.1542455118110233
0
LINE
8
BLACK
6
CONTINUOUS
10
5.5081889763779524
20
-4.1542455118110233
11
5.5074970866141735
21
-4.1559158267716532
0
LINE
8
BLACK
6
CONTINUOUS
10
5.5074970866141735
20
-4.1559158267716532
11
5.5058267716535436
21
-4.1566077165354329
0
LINE
8
BLACK
6
CONTINUOUS
10
5.5058267716535436
20
-4.1566077165354329
11
5.5041564566929129
21
-4.1559158267716532
0
LINE
8
BLACK
6
CONTINUOUS
10
5.5041564566929129
20
-4.1559158267716532
11
5.503464566929134
21
-4.1542455118110233
0
LINE
8
BLACK
6
CONTINUOUS
10
5.503464566929134
20
-4.1542455118110233
11
5.503464566929134
21
-4.1457544881889765
0
LINE
8
BLACK
6
CONTINUOUS
10
5.503464566929134
20
-4.1457544881889765
11
5.5041564566929129
21
-4.1440841732283467
0
LINE
8
BLACK
6
CONTINUOUS
10
5.5041564566929129
20
-4.1440841732283467
11
5.5058267716535436
21
-4.1433922834645669
0
LINE
8
BLACK
6
CONTINUOUS
10
5.5058267716535436
20
-4.1433922834645669
11
5.5074970866141735
21
-4.1440841732283467
0
LINE
8
BLACK
6
CONTINUOUS
10
5.5358435433070863
20
-4.1440841732283467
11
5.536535433070866
21
-4.1457544881889765
0
LINE
8
BLACK
6
CONTINUOUS
10
5.536535433070866
20
-4.1457544881889765
11
5.536535433070866
21
-4.1542455118110233
0
LINE
8
BLACK
6
CONTINUOUS
10
5.536535433070866
20
-4.1542455118110233
11
5.5358435433070863
21
-4.1559158267716532
0
LINE
8
BLACK
6
CONTINUOUS
10
5.5358435433070863
20
-4.1559158267716532
11
5.5341732283464564
21
-4.1566077165354329
0
LINE
8
BLACK
6
CONTINUOUS
10
5.5341732283464564
20
-4.1566077165354329
11
5.5325029133858266
21
-4.1559158267716532
0
LINE
8
BLACK
6
CONTINUOUS
10
5.5325029133858266
20
-4.1559158267716532
11
5.5318110236220468
21
-4.1542455118110233
0
LINE
8
BLACK
6
CONTINUOUS
10
5.5318110236220468
20
-4.1542455118110233
11
5.5318110236220468
21
-4.1457544881889765
0
LINE
8
BLACK
6
CONTINUOUS
10
5.5318110236220468
20
-4.1457544881889765
11
5.5325029133858266
21
-4.1440841732283467
0
LINE
8
BLACK
6
CONTINUOUS
10
5.5325029133858266
20
-4.1440841732283467
11
5.5341732283464564
21
-4.1433922834645669
0
LINE
8
BLACK
6
CONTINUOUS
10
5.5341732283464564
20
-4.1433922834645669
11
5.5358435433070863
21
-4.1440841732283467
0
LINE
8
BLACK
6
CONTINUOUS
10
5.4427191732283466
20
-4.1432903149606295
11
5.4434110629921255
21
-4.1449606299212594
0
LINE
8
BLACK
6
CONTINUOUS
10
5.4434110629921255
20
-4.1449606299212594
11
5.4427191732283466
21
-4.1466309448818901
0
LINE
8
BLACK
6
CONTINUOUS
10
5.4427191732283466
20
-4.1466309448818901
11
5.4410488582677168
21
-4.147322834645669
0
LINE
8
BLACK
6
CONTINUOUS
10
5.4410488582677168
20
-4.147322834645669
11
5.4289511417322833
21
-4.147322834645669
0
LINE
8
BLACK
6
CONTINUOUS
10
5.4289511417322833
20
-4.147322834645669
11
5.4272808267716535
21
-4.1466309448818901
0
LINE
8
BLACK
6
CONTINUOUS
10
5.4272808267716535
20
-4.1466309448818901
11
5.4265889370078737
21
-4.1449606299212594
0
LINE
8
BLACK
6
CONTINUOUS
10
5.4265889370078737
20
-4.1449606299212594
11
5.4272808267716535
21
-4.1432903149606295
0
LINE
8
BLACK
6
CONTINUOUS
10
5.4272808267716535
20
-4.1432903149606295
11
5.4289511417322833
21
-4.1425984251968506
0
LINE
8
BLACK
6
CONTINUOUS
10
5.4289511417322833
20
-4.1425984251968506
11
5.4410488582677168
21
-4.1425984251968506
0
LINE
8
BLACK
6
CONTINUOUS
10
5.4410488582677168
20
-4.1425984251968506
11
5.4427191732283466
21
-4.1432903149606295
0
LINE
8
BLACK
6
CONTINUOUS
10
5.0417096850393701
20
-4.1123595669291335
11
5.0424015748031499
21
-4.1140298818897634
0
LINE
8
BLACK
6
CONTINUOUS
10
5.0424015748031499
20
-4.1140298818897634
11
5.0424015748031499
21
-4.1261275984251968
0
LINE
8
BLACK
6
CONTINUOUS
10
5.0424015748031499
20
-4.1261275984251968
11
5.0417096850393701
21
-4.1277979133858267
0
LINE
8
BLACK
6
CONTINUOUS
10
5.0417096850393701
20
-4.1277979133858267
11
5.0400393700787403
21
-4.1284898031496065
0
LINE
8
BLACK
6
CONTINUOUS
10
5.0400393700787403
20
-4.1284898031496065
11
5.0383690551181104
21
-4.1277979133858267
0
LINE
8
BLACK
6
CONTINUOUS
10
5.0383690551181104
20
-4.1277979133858267
11
5.0376771653543306
21
-4.1261275984251968
0
LINE
8
BLACK
6
CONTINUOUS
10
5.0376771653543306
20
-4.1261275984251968
11
5.0376771653543306
21
-4.1140298818897634
0
LINE
8
BLACK
6
CONTINUOUS
10
5.0376771653543306
20
-4.1140298818897634
11
5.0383690551181104
21
-4.1123595669291335
0
LINE
8
BLACK
6
CONTINUOUS
10
5.0383690551181104
20
-4.1123595669291335
11
5.0400393700787403
21
-4.1116676771653546
0
LINE
8
BLACK
6
CONTINUOUS
10
5.0400393700787403
20
-4.1116676771653546
11
5.0417096850393701
21
-4.1123595669291335
0
LINE
8
BLACK
6
CONTINUOUS
10
5.0716309448818899
20
-4.1123595669291335
11
5.0723228346456688
21
-4.1140298818897634
0
LINE
8
BLACK
6
CONTINUOUS
10
5.0723228346456688
20
-4.1140298818897634
11
5.0723228346456688
21
-4.1261275984251968
0
LINE
8
BLACK
6
CONTINUOUS
10
5.0723228346456688
20
-4.1261275984251968
11
5.0716309448818899
21
-4.1277979133858267
0
LINE
8
BLACK
6
CONTINUOUS
10
5.0716309448818899
20
-4.1277979133858267
11
5.0699606299212601
21
-4.1284898031496065
0
LINE
8
BLACK
6
CONTINUOUS
10
5.0699606299212601
20
-4.1284898031496065
11
5.0682903149606302
21
-4.1277979133858267
0
LINE
8
BLACK
6
CONTINUOUS
10
5.0682903149606302
20
-4.1277979133858267
11
5.0675984251968504
21
-4.1261275984251968
0
LINE
8
BLACK
6
CONTINUOUS
10
5.0675984251968504
20
-4.1261275984251968
11
5.0675984251968504
21
-4.1140298818897634
0
LINE
8
BLACK
6
CONTINUOUS
10
5.0675984251968504
20
-4.1140298818897634
11
5.0682903149606302
21
-4.1123595669291335
0
LINE
8
BLACK
6
CONTINUOUS
10
5.0682903149606302
20
-4.1123595669291335
11
5.0699606299212601
21
-4.1116676771653546
0
LINE
8
BLACK
6
CONTINUOUS
10
5.0699606299212601
20
-4.1116676771653546
11
5.0716309448818899
21
-4.1123595669291335
0
LINE
8
BLACK
6
CONTINUOUS
10
4.9909158267716531
20
-4.1175029133858265
11
4.9916077165354329
21
-4.1191732283464564
0
LINE
8
BLACK
6
CONTINUOUS
10
4.9916077165354329
20
-4.1191732283464564
11
4.9909158267716531
21
-4.1208435433070862
0
LINE
8
BLACK
6
CONTINUOUS
10
4.9909158267716531
20
-4.1208435433070862
11
4.9892455118110233
21
-4.121535433070866
0
LINE
8
BLACK
6
CONTINUOUS
10
4.9892455118110233
20
-4.121535433070866
11
4.9807544881889765
21
-4.121535433070866
0
LINE
8
BLACK
6
CONTINUOUS
10
4.9807544881889765
20
-4.121535433070866
11
4.9790841732283466
21
-4.1208435433070862
0
LINE
8
BLACK
6
CONTINUOUS
10
4.9790841732283466
20
-4.1208435433070862
11
4.9783922834645669
21
-4.1191732283464564
0
LINE
8
BLACK
6
CONTINUOUS
10
4.9783922834645669
20
-4.1191732283464564
11
4.9790841732283466
21
-4.1175029133858265
0
LINE
8
BLACK
6
CONTINUOUS
10
4.9790841732283466
20
-4.1175029133858265
11
4.9807544881889765
21
-4.1168110236220468
0
LINE
8
BLACK
6
CONTINUOUS
10
4.9807544881889765
20
-4.1168110236220468
11
4.9892455118110233
21
-4.1168110236220468
0
LINE
8
BLACK
6
CONTINUOUS
10
4.9892455118110233
20
-4.1168110236220468
11
4.9909158267716531
21
-4.1175029133858265
0
LINE
8
BLACK
6
CONTINUOUS
10
4.8417096850393699
20
-4.1022808267716533
11
4.8424015748031497
21
-4.1039511417322831
0
LINE
8
BLACK
6
CONTINUOUS
10
4.8424015748031497
20
-4.1039511417322831
11
4.8424015748031497
21
-4.1160488582677166
0
LINE
8
BLACK
6
CONTINUOUS
10
4.8424015748031497
20
-4.1160488582677166
11
4.8417096850393699
21
-4.1177191732283465
0
LINE
8
BLACK
6
CONTINUOUS
10
4.8417096850393699
20
-4.1177191732283465
11
4.8400393700787401
21
-4.1184110629921262
0
LINE
8
BLACK
6
CONTINUOUS
10
4.8400393700787401
20
-4.1184110629921262
11
4.8383690551181102
21
-4.1177191732283465
0
LINE
8
BLACK
6
CONTINUOUS
10
4.8383690551181102
20
-4.1177191732283465
11
4.8376771653543305
21
-4.1160488582677166
0
LINE
8
BLACK
6
CONTINUOUS
10
4.8376771653543305
20
-4.1160488582677166
11
4.8376771653543305
21
-4.1039511417322831
0
LINE
8
BLACK
6
CONTINUOUS
10
4.8376771653543305
20
-4.1039511417322831
11
4.8383690551181102
21
-4.1022808267716533
0
LINE
8
BLACK
6
CONTINUOUS
10
4.8383690551181102
20
-4.1022808267716533
11
4.8400393700787401
21
-4.1015889370078735
0
LINE
8
BLACK
6
CONTINUOUS
10
4.8400393700787401
20
-4.1015889370078735
11
4.8417096850393699
21
-4.1022808267716533
0
LINE
8
BLACK
6
CONTINUOUS
10
4.8716309448818897
20
-4.1022808267716533
11
4.8723228346456695
21
-4.1039511417322831
0
LINE
8
BLACK
6
CONTINUOUS
10
4.8723228346456695
20
-4.1039511417322831
11
4.8723228346456695
21
-4.1160488582677166
0
LINE
8
BLACK
6
CONTINUOUS
10
4.8723228346456695
20
-4.1160488582677166
11
4.8716309448818897
21
-4.1177191732283465
0
LINE
8
BLACK
6
CONTINUOUS
10
4.8716309448818897
20
-4.1177191732283465
11
4.8699606299212599
21
-4.1184110629921262
0
LINE
8
BLACK
6
CONTINUOUS
10
4.8699606299212599
20
-4.1184110629921262
11
4.86829031496063
21
-4.1177191732283465
0
LINE
8
BLACK
6
CONTINUOUS
10
4.86829031496063
20
-4.1177191732283465
11
4.8675984251968503
21
-4.1160488582677166
0
LINE
8
BLACK
6
CONTINUOUS
10
4.8675984251968503
20
-4.1160488582677166
11
4.8675984251968503
21
-4.1039511417322831
0
LINE
8
BLACK
6
CONTINUOUS
10
4.8675984251968503
20
-4.1039511417322831
11
4.86829031496063
21
-4.1022808267716533
0
LINE
8
BLACK
6
CONTINUOUS
10
4.86829031496063
20
-4.1022808267716533
11
4.8699606299212599
21
-4.1015889370078735
0
LINE
8
BLACK
6
CONTINUOUS
10
4.8699606299212599
20
-4.1015889370078735
11
4.8716309448818897
21
-4.1022808267716533
0
LINE
8
BLACK
6
CONTINUOUS
10
5.4427191732283466
20
-4.1133690551181106
11
5.4434110629921255
21
-4.1150393700787404
0
LINE
8
BLACK
6
CONTINUOUS
10
5.4434110629921255
20
-4.1150393700787404
11
5.4427191732283466
21
-4.1167096850393703
0
LINE
8
BLACK
6
CONTINUOUS
10
5.4427191732283466
20
-4.1167096850393703
11
5.4410488582677168
21
-4.1174015748031492
0
LINE
8
BLACK
6
CONTINUOUS
10
5.4410488582677168
20
-4.1174015748031492
11
5.4289511417322833
21
-4.1174015748031492
0
LINE
8
BLACK
6
CONTINUOUS
10
5.4289511417322833
20
-4.1174015748031492
11
5.4272808267716535
21
-4.1167096850393703
0
LINE
8
BLACK
6
CONTINUOUS
10
5.4272808267716535
20
-4.1167096850393703
11
5.4265889370078737
21
-4.1150393700787404
0
LINE
8
BLACK
6
CONTINUOUS
10
5.4265889370078737
20
-4.1150393700787404
11
5.4272808267716535
21
-4.1133690551181106
0
LINE
8
BLACK
6
CONTINUOUS
10
5.4272808267716535
20
-4.1133690551181106
11
5.4289511417322833
21
-4.1126771653543308
0
LINE
8
BLACK
6
CONTINUOUS
10
5.4289511417322833
20
-4.1126771653543308
11
5.4410488582677168
21
-4.1126771653543308
0
LINE
8
BLACK
6
CONTINUOUS
10
5.4410488582677168
20
-4.1126771653543308
11
5.4427191732283466
21
-4.1133690551181106
0
LINE
8
BLACK
6
CONTINUOUS
10
5.7943474803149604
20
-4.0389202362204726
11
5.7950393700787401
21
-4.0405905511811024
0
LINE
8
BLACK
6
CONTINUOUS
10
5.7950393700787401
20
-4.0405905511811024
11
5.7950393700787401
21
-4.1090944881889762
0
LINE
8
BLACK
6
CONTINUOUS
10
5.7950393700787401
20
-4.1090944881889762
11
5.8497637795275592
21
-4.1090944881889762
0
LINE
8
BLACK
6
CONTINUOUS
10
5.8497637795275592
20
-4.1090944881889762
11
5.8514340944881891
21
-4.1097863779527559
0
LINE
8
BLACK
6
CONTINUOUS
10
5.8514340944881891
20
-4.1097863779527559
11
5.8521259842519679
21
-4.1114566929133858
0
LINE
8
BLACK
6
CONTINUOUS
10
5.8521259842519679
20
-4.1114566929133858
11
5.8514340944881891
21
-4.1131270078740156
0
LINE
8
BLACK
6
CONTINUOUS
10
5.8514340944881891
20
-4.1131270078740156
11
5.8497637795275592
21
-4.1138188976377954
0
LINE
8
BLACK
6
CONTINUOUS
10
5.8497637795275592
20
-4.1138188976377954
11
5.7926771653543305
21
-4.1138188976377954
0
LINE
8
BLACK
6
CONTINUOUS
10
5.7926771653543305
20
-4.1138188976377954
11
5.7910068503937007
21
-4.1131270078740156
0
LINE
8
BLACK
6
CONTINUOUS
10
5.7910068503937007
20
-4.1131270078740156
11
5.7903149606299209
21
-4.1114566929133858
0
LINE
8
BLACK
6
CONTINUOUS
10
5.7903149606299209
20
-4.1114566929133858
11
5.7903149606299209
21
-4.0405905511811024
0
LINE
8
BLACK
6
CONTINUOUS
10
5.7903149606299209
20
-4.0405905511811024
11
5.7910068503937007
21
-4.0389202362204726
0
LINE
8
BLACK
6
CONTINUOUS
10
5.7910068503937007
20
-4.0389202362204726
11
5.7926771653543305
21
-4.0382283464566928
0
LINE
8
BLACK
6
CONTINUOUS
10
5.7926771653543305
20
-4.0382283464566928
11
5.7943474803149604
21
-4.0389202362204726
0
LINE
8
BLACK
6
CONTINUOUS
10
5.4427191732283466
20
-4.0982903149606296
11
5.4434110629921255
21
-4.0999606299212594
0
LINE
8
BLACK
6
CONTINUOUS
10
5.4434110629921255
20
-4.0999606299212594
11
5.4427191732283466
21
-4.1016309448818893
0
LINE
8
BLACK
6
CONTINUOUS
10
5.4427191732283466
20
-4.1016309448818893
11
5.4410488582677168
21
-4.102322834645669
0
LINE
8
BLACK
6
CONTINUOUS
10
5.4410488582677168
20
-4.102322834645669
11
5.4289511417322833
21
-4.102322834645669
0
LINE
8
BLACK
6
CONTINUOUS
10
5.4289511417322833
20
-4.102322834645669
11
5.4272808267716535
21
-4.1016309448818893
0
LINE
8
BLACK
6
CONTINUOUS
10
5.4272808267716535
20
-4.1016309448818893
11
5.4265889370078737
21
-4.0999606299212594
0
LINE
8
BLACK
6
CONTINUOUS
10
5.4265889370078737
20
-4.0999606299212594
11
5.4272808267716535
21
-4.0982903149606296
0
LINE
8
BLACK
6
CONTINUOUS
10
5.4272808267716535
20
-4.0982903149606296
11
5.4289511417322833
21
-4.0975984251968507
0
LINE
8
BLACK
6
CONTINUOUS
10
5.4289511417322833
20
-4.0975984251968507
11
5.4410488582677168
21
-4.0975984251968507
0
LINE
8
BLACK
6
CONTINUOUS
10
5.4410488582677168
20
-4.0975984251968507
11
5.4427191732283466
21
-4.0982903149606296
0
LINE
8
BLACK
6
CONTINUOUS
10
5.6399999999999997
20
-4.0962204724409448
11
5.710866141732283
21
-4.0962204724409448
0
LINE
8
BLACK
6
CONTINUOUS
10
5.710866141732283
20
-4.0962204724409448
11
5.7125364566929129
21
-4.0969123622047245
0
LINE
8
BLACK
6
CONTINUOUS
10
5.7125364566929129
20
-4.0969123622047245
11
5.7132283464566926
21
-4.0985826771653544
0
LINE
8
BLACK
6
CONTINUOUS
10
5.7132283464566926
20
-4.0985826771653544
11
5.7125364566929129
21
-4.1002529921259843
0
LINE
8
BLACK
6
CONTINUOUS
10
5.7125364566929129
20
-4.1002529921259843
11
5.710866141732283
21
-4.100944881889764
0
LINE
8
BLACK
6
CONTINUOUS
10
5.710866141732283
20
-4.100944881889764
11
5.6399999999999997
21
-4.100944881889764
0
LINE
8
BLACK
6
CONTINUOUS
10
5.6399999999999997
20
-4.100944881889764
11
5.6085039370078738
21
-4.100944881889764
0
LINE
8
BLACK
6
CONTINUOUS
10
5.6085039370078738
20
-4.100944881889764
11
5.6068336220472439
21
-4.1002529921259843
0
LINE
8
BLACK
6
CONTINUOUS
10
5.6068336220472439
20
-4.1002529921259843
11
5.6061417322834641
21
-4.0985826771653544
0
LINE
8
BLACK
6
CONTINUOUS
10
5.6061417322834641
20
-4.0985826771653544
11
5.6068336220472439
21
-4.0969123622047245
0
LINE
8
BLACK
6
CONTINUOUS
10
5.6068336220472439
20
-4.0969123622047245
11
5.6085039370078738
21
-4.0962204724409448
0
LINE
8
BLACK
6
CONTINUOUS
10
5.6085039370078738
20
-4.0962204724409448
11
5.6399999999999997
21
-4.0962204724409448
0
LINE
8
BLACK
6
CONTINUOUS
10
4.9909158267716531
20
-4.0891564566929137
11
4.9916077165354329
21
-4.0908267716535436
0
LINE
8
BLACK
6
CONTINUOUS
10
4.9916077165354329
20
-4.0908267716535436
11
4.9909158267716531
21
-4.0924970866141734
0
LINE
8
BLACK
6
CONTINUOUS
10
4.9909158267716531
20
-4.0924970866141734
11
4.9892455118110233
21
-4.0931889763779523
0
LINE
8
BLACK
6
CONTINUOUS
10
4.9892455118110233
20
-4.0931889763779523
11
4.9807544881889765
21
-4.0931889763779523
0
LINE
8
BLACK
6
CONTINUOUS
10
4.9807544881889765
20
-4.0931889763779523
11
4.9790841732283466
21
-4.0924970866141734
0
LINE
8
BLACK
6
CONTINUOUS
10
4.9790841732283466
20
-4.0924970866141734
11
4.9783922834645669
21
-4.0908267716535436
0
LINE
8
BLACK
6
CONTINUOUS
10
4.9783922834645669
20
-4.0908267716535436
11
4.9790841732283466
21
-4.0891564566929137
0
LINE
8
BLACK
6
CONTINUOUS
10
4.9790841732283466
20
-4.0891564566929137
11
4.9807544881889765
21
-4.088464566929134
0
LINE
8
BLACK
6
CONTINUOUS
10
4.9807544881889765
20
-4.088464566929134
11
4.9892455118110233
21
-4.088464566929134
0
LINE
8
BLACK
6
CONTINUOUS
10
4.9892455118110233
20
-4.088464566929134
11
4.9909158267716531
21
-4.0891564566929137
0
LINE
8
BLACK
6
CONTINUOUS
10
5.4427191732283466
20
-4.0683690551181098
11
5.4434110629921255
21
-4.0700393700787405
0
LINE
8
BLACK
6
CONTINUOUS
10
5.4434110629921255
20
-4.0700393700787405
11
5.4427191732283466
21
-4.0717096850393704
0
LINE
8
BLACK
6
CONTINUOUS
10
5.4427191732283466
20
-4.0717096850393704
11
5.4410488582677168
21
-4.0724015748031492
0
LINE
8
BLACK
6
CONTINUOUS
10
5.4410488582677168
20
-4.0724015748031492
11
5.4289511417322833
21
-4.0724015748031492
0
LINE
8
BLACK
6
CONTINUOUS
10
5.4289511417322833
20
-4.0724015748031492
11
5.4272808267716535
21
-4.0717096850393704
0
LINE
8
BLACK
6
CONTINUOUS
10
5.4272808267716535
20
-4.0717096850393704
11
5.4265889370078737
21
-4.0700393700787405
0
LINE
8
BLACK
6
CONTINUOUS
10
5.4265889370078737
20
-4.0700393700787405
11
5.4272808267716535
21
-4.0683690551181098
0
LINE
8
BLACK
6
CONTINUOUS
10
5.4272808267716535
20
-4.0683690551181098
11
5.4289511417322833
21
-4.0676771653543309
0
LINE
8
BLACK
6
CONTINUOUS
10
5.4289511417322833
20
-4.0676771653543309
11
5.4410488582677168
21
-4.0676771653543309
0
LINE
8
BLACK
6
CONTINUOUS
10
5.4410488582677168
20
-4.0676771653543309
11
5.4427191732283466
21
-4.0683690551181098
0
LINE
8
BLACK
6
CONTINUOUS
10
5.5074970866141735
20
-4.0540841732283468
11
5.5081889763779524
21
-4.0557544881889767
0
LINE
8
BLACK
6
CONTINUOUS
10
5.5081889763779524
20
-4.0557544881889767
11
5.5081889763779524
21
-4.0642455118110234
0
LINE
8
BLACK
6
CONTINUOUS
10
5.5081889763779524
20
-4.0642455118110234
11
5.5074970866141735
21
-4.0659158267716533
0
LINE
8
BLACK
6
CONTINUOUS
10
5.5074970866141735
20
-4.0659158267716533
11
5.5058267716535436
21
-4.0666077165354331
0
LINE
8
BLACK
6
CONTINUOUS
10
5.5058267716535436
20
-4.0666077165354331
11
5.5041564566929129
21
-4.0659158267716533
0
LINE
8
BLACK
6
CONTINUOUS
10
5.5041564566929129
20
-4.0659158267716533
11
5.503464566929134
21
-4.0642455118110234
0
LINE
8
BLACK
6
CONTINUOUS
10
5.503464566929134
20
-4.0642455118110234
11
5.503464566929134
21
-4.0557544881889767
0
LINE
8
BLACK
6
CONTINUOUS
10
5.503464566929134
20
-4.0557544881889767
11
5.5041564566929129
21
-4.0540841732283468
0
LINE
8
BLACK
6
CONTINUOUS
10
5.5041564566929129
20
-4.0540841732283468
11
5.5058267716535436
21
-4.053392283464567
0
LINE
8
BLACK
6
CONTINUOUS
10
5.5058267716535436
20
-4.053392283464567
11
5.5074970866141735
21
-4.0540841732283468
0
LINE
8
BLACK
6
CONTINUOUS
10
5.5358435433070863
20
-4.0540841732283468
11
5.536535433070866
21
-4.0557544881889767
0
LINE
8
BLACK
6
CONTINUOUS
10
5.536535433070866
20
-4.0557544881889767
11
5.536535433070866
21
-4.0642455118110234
0
LINE
8
BLACK
6
CONTINUOUS
10
5.536535433070866
20
-4.0642455118110234
11
5.5358435433070863
21
-4.0659158267716533
0
LINE
8
BLACK
6
CONTINUOUS
10
5.5358435433070863
20
-4.0659158267716533
11
5.5341732283464564
21
-4.0666077165354331
0
LINE
8
BLACK
6
CONTINUOUS
10
5.5341732283464564
20
-4.0666077165354331
11
5.5325029133858266
21
-4.0659158267716533
0
LINE
8
BLACK
6
CONTINUOUS
10
5.5325029133858266
20
-4.0659158267716533
11
5.5318110236220468
21
-4.0642455118110234
0
LINE
8
BLACK
6
CONTINUOUS
10
5.5318110236220468
20
-4.0642455118110234
11
5.5318110236220468
21
-4.0557544881889767
0
LINE
8
BLACK
6
CONTINUOUS
10
5.5318110236220468
20
-4.0557544881889767
11
5.5325029133858266
21
-4.0540841732283468
0
LINE
8
BLACK
6
CONTINUOUS
10
5.5325029133858266
20
-4.0540841732283468
11
5.5341732283464564
21
-4.053392283464567
0
LINE
8
BLACK
6
CONTINUOUS
10
5.5341732283464564
20
-4.053392283464567
11
5.5358435433070863
21
-4.0540841732283468
0
LINE
8
BLACK
6
CONTINUOUS
10
5.9624577165354333
20
-3.8263218110236221
11
5.9631496062992122
21
-3.827992125984252
0
LINE
8
BLACK
6
CONTINUOUS
10
5.9631496062992122
20
-3.827992125984252
11
5.9631496062992122
21
-4.061456692913386
0
LINE
8
BLACK
6
CONTINUOUS
10
5.9631496062992122
20
-4.061456692913386
11
5.9624577165354333
21
-4.0631270078740158
0
LINE
8
BLACK
6
CONTINUOUS
10
5.9624577165354333
20
-4.0631270078740158
11
5.9607874015748026
21
-4.0638188976377956
0
LINE
8
BLACK
6
CONTINUOUS
10
5.9607874015748026
20
-4.0638188976377956
11
5.9591170866141727
21
-4.0631270078740158
0
LINE
8
BLACK
6
CONTINUOUS
10
5.9591170866141727
20
-4.0631270078740158
11
5.9584251968503938
21
-4.061456692913386
0
LINE
8
BLACK
6
CONTINUOUS
10
5.9584251968503938
20
-4.061456692913386
11
5.9584251968503938
21
-3.827992125984252
0
LINE
8
BLACK
6
CONTINUOUS
10
5.9584251968503938
20
-3.827992125984252
11
5.9591170866141727
21
-3.8263218110236221
0
LINE
8
BLACK
6
CONTINUOUS
10
5.9591170866141727
20
-3.8263218110236221
11
5.9607874015748026
21
-3.8256299212598424
0
LINE
8
BLACK
6
CONTINUOUS
10
5.9607874015748026
20
-3.8256299212598424
11
5.9624577165354333
21
-3.8263218110236221
0
LINE
8
BLACK
6
CONTINUOUS
10
5.5567096850393698
20
-4.0472808267716536
11
5.5574015748031496
21
-4.0489511417322834
0
LINE
8
BLACK
6
CONTINUOUS
10
5.5574015748031496
20
-4.0489511417322834
11
5.5574015748031496
21
-4.061048858267716
0
LINE
8
BLACK
6
CONTINUOUS
10
5.5574015748031496
20
-4.061048858267716
11
5.5567096850393698
21
-4.0627191732283467
0
LINE
8
BLACK
6
CONTINUOUS
10
5.5567096850393698
20
-4.0627191732283467
11
5.5550393700787399
21
-4.0634110629921256
0
LINE
8
BLACK
6
CONTINUOUS
10
5.5550393700787399
20
-4.0634110629921256
11
5.5533690551181101
21
-4.0627191732283467
0
LINE
8
BLACK
6
CONTINUOUS
10
5.5533690551181101
20
-4.0627191732283467
11
5.5526771653543303
21
-4.061048858267716
0
LINE
8
BLACK
6
CONTINUOUS
10
5.5526771653543303
20
-4.061048858267716
11
5.5526771653543303
21
-4.0489511417322834
0
LINE
8
BLACK
6
CONTINUOUS
10
5.5526771653543303
20
-4.0489511417322834
11
5.5533690551181101
21
-4.0472808267716536
0
LINE
8
BLACK
6
CONTINUOUS
10
5.5533690551181101
20
-4.0472808267716536
11
5.5550393700787399
21
-4.0465889370078738
0
LINE
8
BLACK
6
CONTINUOUS
10
5.5550393700787399
20
-4.0465889370078738
11
5.5567096850393698
21
-4.0472808267716536
0
LINE
8
BLACK
6
CONTINUOUS
10
5.5866309448818896
20
-4.0472808267716536
11
5.5873228346456694
21
-4.0489511417322834
0
LINE
8
BLACK
6
CONTINUOUS
10
5.5873228346456694
20
-4.0489511417322834
11
5.5873228346456694
21
-4.061048858267716
0
LINE
8
BLACK
6
CONTINUOUS
10
5.5873228346456694
20
-4.061048858267716
11
5.5866309448818896
21
-4.0627191732283467
0
LINE
8
BLACK
6
CONTINUOUS
10
5.5866309448818896
20
-4.0627191732283467
11
5.5849606299212597
21
-4.0634110629921256
0
LINE
8
BLACK
6
CONTINUOUS
10
5.5849606299212597
20
-4.0634110629921256
11
5.5832903149606299
21
-4.0627191732283467
0
LINE
8
BLACK
6
CONTINUOUS
10
5.5832903149606299
20
-4.0627191732283467
11
5.5825984251968501
21
-4.061048858267716
0
LINE
8
BLACK
6
CONTINUOUS
10
5.5825984251968501
20
-4.061048858267716
11
5.5825984251968501
21
-4.0489511417322834
0
LINE
8
BLACK
6
CONTINUOUS
10
5.5825984251968501
20
-4.0489511417322834
11
5.5832903149606299
21
-4.0472808267716536
0
LINE
8
BLACK
6
CONTINUOUS
10
5.5832903149606299
20
-4.0472808267716536
11
5.5849606299212597
21
-4.0465889370078738
0
LINE
8
BLACK
6
CONTINUOUS
10
5.5849606299212597
20
-4.0465889370078738
11
5.5866309448818896
21
-4.0472808267716536
0
LINE
8
BLACK
6
CONTINUOUS
10
5.63170968503937
20
-4.0472808267716536
11
5.6324015748031497
21
-4.0489511417322834
0
LINE
8
BLACK
6
CONTINUOUS
10
5.6324015748031497
20
-4.0489511417322834
11
5.6324015748031497
21
-4.061048858267716
0
LINE
8
BLACK
6
CONTINUOUS
10
5.6324015748031497
20
-4.061048858267716
11
5.63170968503937
21
-4.0627191732283467
0
LINE
8
BLACK
6
CONTINUOUS
10
5.63170968503937
20
-4.0627191732283467
11
5.6300393700787401
21
-4.0634110629921256
0
LINE
8
BLACK
6
CONTINUOUS
10
5.6300393700787401
20
-4.0634110629921256
11
5.6283690551181103
21
-4.0627191732283467
0
LINE
8
BLACK
6
CONTINUOUS
10
5.6283690551181103
20
-4.0627191732283467
11
5.6276771653543305
21
-4.061048858267716
0
LINE
8
BLACK
6
CONTINUOUS
10
5.6276771653543305
20
-4.061048858267716
11
5.6276771653543305
21
-4.0489511417322834
0
LINE
8
BLACK
6
CONTINUOUS
10
5.6276771653543305
20
-4.0489511417322834
11
5.6283690551181103
21
-4.0472808267716536
0
LINE
8
BLACK
6
CONTINUOUS
10
5.6283690551181103
20
-4.0472808267716536
11
5.6300393700787401
21
-4.0465889370078738
0
LINE
8
BLACK
6
CONTINUOUS
10
5.6300393700787401
20
-4.0465889370078738
11
5.63170968503937
21
-4.0472808267716536
0
LINE
8
BLACK
6
CONTINUOUS
10
5.6616309448818898
20
-4.0472808267716536
11
5.6623228346456695
21
-4.0489511417322834
0
LINE
8
BLACK
6
CONTINUOUS
10
5.6623228346456695
20
-4.0489511417322834
11
5.6623228346456695
21
-4.061048858267716
0
LINE
8
BLACK
6
CONTINUOUS
10
5.6623228346456695
20
-4.061048858267716
11
5.6616309448818898
21
-4.0627191732283467
0
LINE
8
BLACK
6
CONTINUOUS
10
5.6616309448818898
20
-4.0627191732283467
11
5.6599606299212599
21
-4.0634110629921256
0
LINE
8
BLACK
6
CONTINUOUS
10
5.6599606299212599
20
-4.0634110629921256
11
5.6582903149606301
21
-4.0627191732283467
0
LINE
8
BLACK
6
CONTINUOUS
10
5.6582903149606301
20
-4.0627191732283467
11
5.6575984251968503
21
-4.061048858267716
0
LINE
8
BLACK
6
CONTINUOUS
10
5.6575984251968503
20
-4.061048858267716
11
5.6575984251968503
21
-4.0489511417322834
0
LINE
8
BLACK
6
CONTINUOUS
10
5.6575984251968503
20
-4.0489511417322834
11
5.6582903149606301
21
-4.0472808267716536
0
LINE
8
BLACK
6
CONTINUOUS
10
5.6582903149606301
20
-4.0472808267716536
11
5.6599606299212599
21
-4.0465889370078738
0
LINE
8
BLACK
6
CONTINUOUS
10
5.6599606299212599
20
-4.0465889370078738
11
5.6616309448818898
21
-4.0472808267716536
0
LINE
8
BLACK
6
CONTINUOUS
10
5.6824970866141733
20
-4.049084173228346
11
5.6831889763779531
21
-4.0507544881889759
0
LINE
8
BLACK
6
CONTINUOUS
10
5.6831889763779531
20
-4.0507544881889759
11
5.6831889763779531
21
-4.0592455118110236
0
LINE
8
BLACK
6
CONTINUOUS
10
5.6831889763779531
20
-4.0592455118110236
11
5.6824970866141733
21
-4.0609158267716534
0
LINE
8
BLACK
6
CONTINUOUS
10
5.6824970866141733
20
-4.0609158267716534
11
5.6808267716535434
21
-4.0616077165354332
0
LINE
8
BLACK
6
CONTINUOUS
10
5.6808267716535434
20
-4.0616077165354332
11
5.6791564566929136
21
-4.0609158267716534
0
LINE
8
BLACK
6
CONTINUOUS
10
5.6791564566929136
20
-4.0609158267716534
11
5.6784645669291338
21
-4.0592455118110236
0
LINE
8
BLACK
6
CONTINUOUS
10
5.6784645669291338
20
-4.0592455118110236
11
5.6784645669291338
21
-4.0507544881889759
0
LINE
8
BLACK
6
CONTINUOUS
10
5.6784645669291338
20
-4.0507544881889759
11
5.6791564566929136
21
-4.049084173228346
0
LINE
8
BLACK
6
CONTINUOUS
10
5.6791564566929136
20
-4.049084173228346
11
5.6808267716535434
21
-4.0483922834645671
0
LINE
8
BLACK
6
CONTINUOUS
10
5.6808267716535434
20
-4.0483922834645671
11
5.6824970866141733
21
-4.049084173228346
0
LINE
8
BLACK
6
CONTINUOUS
10
5.7108435433070861
20
-4.049084173228346
11
5.7115354330708659
21
-4.0507544881889759
0
LINE
8
BLACK
6
CONTINUOUS
10
5.7115354330708659
20
-4.0507544881889759
11
5.7115354330708659
21
-4.0592455118110236
0
LINE
8
BLACK
6
CONTINUOUS
10
5.7115354330708659
20
-4.0592455118110236
11
5.7108435433070861
21
-4.0609158267716534
0
LINE
8
BLACK
6
CONTINUOUS
10
5.7108435433070861
20
-4.0609158267716534
11
5.7091732283464562
21
-4.0616077165354332
0
LINE
8
BLACK
6
CONTINUOUS
10
5.7091732283464562
20
-4.0616077165354332
11
5.7075029133858264
21
-4.0609158267716534
0
LINE
8
BLACK
6
CONTINUOUS
10
5.7075029133858264
20
-4.0609158267716534
11
5.7068110236220475
21
-4.0592455118110236
0
LINE
8
BLACK
6
CONTINUOUS
10
5.7068110236220475
20
-4.0592455118110236
11
5.7068110236220475
21
-4.0507544881889759
0
LINE
8
BLACK
6
CONTINUOUS
10
5.7068110236220475
20
-4.0507544881889759
11
5.7075029133858264
21
-4.049084173228346
0
LINE
8
BLACK
6
CONTINUOUS
10
5.7075029133858264
20
-4.049084173228346
11
5.7091732283464562
21
-4.0483922834645671
0
LINE
8
BLACK
6
CONTINUOUS
10
5.7091732283464562
20
-4.0483922834645671
11
5.7108435433070861
21
-4.049084173228346
0
LINE
8
BLACK
6
CONTINUOUS
10
5.3293598818897641
20
-4.033138464566929
11
5.3294891338582673
21
-4.0331157086614171
0
LINE
8
BLACK
6
CONTINUOUS
10
5.3294891338582673
20
-4.0331157086614171
11
5.3296027165354332
21
-4.0331812992125986
0
LINE
8
BLACK
6
CONTINUOUS
10
5.3296027165354332
20
-4.0331812992125986
11
5.3299862992125986
21
-4.0332489370078743
0
LINE
8
BLACK
6
CONTINUOUS
10
5.3299862992125986
20
-4.0332489370078743
11
5.3305739763779529
21
-4.0337420472440941
0
LINE
8
BLACK
6
CONTINUOUS
10
5.3305739763779529
20
-4.0337420472440941
11
5.3312383070866138
21
-4.0341256299212596
0
LINE
8
BLACK
6
CONTINUOUS
10
5.3312383070866138
20
-4.0341256299212596
11
5.3313294094488191
21
-4.0343759448818899
0
LINE
8
BLACK
6
CONTINUOUS
10
5.3313294094488191
20
-4.0343759448818899
11
5.3315335433070867
21
-4.0345472440944885
0
LINE
8
BLACK
6
CONTINUOUS
10
5.3315335433070867
20
-4.0345472440944885
11
5.3316667716535431
21
-4.0353027952755909
0
LINE
8
BLACK
6
CONTINUOUS
10
5.3316667716535431
20
-4.0353027952755909
11
5.3319291338582673
21
-4.0360236220472441
0
LINE
8
BLACK
6
CONTINUOUS
10
5.3319291338582673
20
-4.0360236220472441
11
5.3319291338582673
21
-4.0429133858267718
0
LINE
8
BLACK
6
CONTINUOUS
10
5.3319291338582673
20
-4.0429133858267718
11
5.3317510629921259
21
-4.0439233070866143
0
LINE
8
BLACK
6
CONTINUOUS
10
5.3317510629921259
20
-4.0439233070866143
11
5.3304527559055117
21
-4.0454705511811024
0
LINE
8
BLACK
6
CONTINUOUS
10
5.3304527559055117
20
-4.0454705511811024
11
5.3284636220472441
21
-4.0458212992125979
0
LINE
8
BLACK
6
CONTINUOUS
10
5.3284636220472441
20
-4.0458212992125979
11
5.3267144488188976
21
-4.0448113779527555
0
LINE
8
BLACK
6
CONTINUOUS
10
5.3267144488188976
20
-4.0448113779527555
11
5.3260236220472441
21
-4.0429133858267718
0
LINE
8
BLACK
6
CONTINUOUS
10
5.3260236220472441
20
-4.0429133858267718
11
5.3260236220472441
21
-4.0389763779527561
0
LINE
8
BLACK
6
CONTINUOUS
10
5.3260236220472441
20
-4.0389763779527561
11
5.2039763779527561
21
-4.0389763779527561
0
LINE
8
BLACK
6
CONTINUOUS
10
5.2039763779527561
20
-4.0389763779527561
11
5.2039763779527561
21
-4.0429133858267718
0
LINE
8
BLACK
6
CONTINUOUS
10
5.2039763779527561
20
-4.0429133858267718
11
5.2037983070866138
21
-4.0439233070866143
0
LINE
8
BLACK
6
CONTINUOUS
10
5.2037983070866138
20
-4.0439233070866143
11
5.2024999999999997
21
-4.0454705511811024
0
LINE
8
BLACK
6
CONTINUOUS
10
5.2024999999999997
20
-4.0454705511811024
11
5.2005108661417321
21
-4.0458212992125979
0
LINE
8
BLACK
6
CONTINUOUS
10
5.2005108661417321
20
-4.0458212992125979
11
5.1987616929133855
21
-4.0448113779527555
0
LINE
8
BLACK
6
CONTINUOUS
10
5.1987616929133855
20
-4.0448113779527555
11
5.1980708661417321
21
-4.0429133858267718
0
LINE
8
BLACK
6
CONTINUOUS
10
5.1980708661417321
20
-4.0429133858267718
11
5.1980708661417321
21
-4.0360236220472441
0
LINE
8
BLACK
6
CONTINUOUS
10
5.1980708661417321
20
-4.0360236220472441
11
5.1981384645669291
21
-4.0356400787401574
0
LINE
8
BLACK
6
CONTINUOUS
10
5.1981384645669291
20
-4.0356400787401574
11
5.1981157086614171
21
-4.035510866141732
0
LINE
8
BLACK
6
CONTINUOUS
10
5.1981157086614171
20
-4.035510866141732
11
5.1981812992125986
21
-4.0353972440944883
0
LINE
8
BLACK
6
CONTINUOUS
10
5.1981812992125986
20
-4.0353972440944883
11
5.1982489370078735
21
-4.0350137007874016
0
LINE
8
BLACK
6
CONTINUOUS
10
5.1982489370078735
20
-4.0350137007874016
11
5.1987420472440942
21
-4.0344259842519685
0
LINE
8
BLACK
6
CONTINUOUS
10
5.1987420472440942
20
-4.0344259842519685
11
5.1991256299212596
21
-4.0337616929133855
0
LINE
8
BLACK
6
CONTINUOUS
10
5.1991256299212596
20
-4.0337616929133855
11
5.1993759448818899
21
-4.0336705511811024
0
LINE
8
BLACK
6
CONTINUOUS
10
5.1993759448818899
20
-4.0336705511811024
11
5.1995472440944877
21
-4.0334664566929135
0
LINE
8
BLACK
6
CONTINUOUS
10
5.1995472440944877
20
-4.0334664566929135
11
5.20030279527559
21
-4.0333331889763775
0
LINE
8
BLACK
6
CONTINUOUS
10
5.20030279527559
20
-4.0333331889763775
11
5.2010236220472441
21
-4.033070866141732
0
LINE
8
BLACK
6
CONTINUOUS
10
5.2010236220472441
20
-4.033070866141732
11
5.3289763779527561
21
-4.033070866141732
0
LINE
8
BLACK
6
CONTINUOUS
10
5.3289763779527561
20
-4.033070866141732
11
5.3293598818897641
21
-4.033138464566929
0
LINE
8
BLACK
6
CONTINUOUS
10
5.3578029921259844
20
-4.0278394881889765
11
5.3585153543307085
21
-4.0280108661417318
0
LINE
8
BLACK
6
CONTINUOUS
10
5.3585153543307085
20
-4.0280108661417318
11
5.3586167716535433
21
-4.0281765748031493
0
LINE
8
BLACK
6
CONTINUOUS
10
5.3586167716535433
20
-4.0281765748031493
11
5.3587962992125986
21
-4.02825094488189
0
LINE
8
BLACK
6
CONTINUOUS
10
5.3587962992125986
20
-4.02825094488189
11
5.3590766929133853
21
-4.0289279133858269
0
LINE
8
BLACK
6
CONTINUOUS
10
5.3590766929133853
20
-4.0289279133858269
11
5.359459251968504
21
-4.0295528346456688
0
LINE
8
BLACK
6
CONTINUOUS
10
5.359459251968504
20
-4.0295528346456688
11
5.3594137795275589
21
-4.0297416929133858
0
LINE
8
BLACK
6
CONTINUOUS
10
5.3594137795275589
20
-4.0297416929133858
11
5.3594881889763775
21
-4.0299212598425198
0
LINE
8
BLACK
6
CONTINUOUS
10
5.3594881889763775
20
-4.0299212598425198
11
5.3592077165354333
21
-4.0305982677165355
0
LINE
8
BLACK
6
CONTINUOUS
10
5.3592077165354333
20
-4.0305982677165355
11
5.3590363779527559
21
-4.0313106299212595
0
LINE
8
BLACK
6
CONTINUOUS
10
5.3590363779527559
20
-4.0313106299212595
11
5.3495875590551183
21
-4.0443027559055116
0
LINE
8
BLACK
6
CONTINUOUS
10
5.3495875590551183
20
-4.0443027559055116
11
5.3492643700787399
21
-4.0445005905511806
0
LINE
8
BLACK
6
CONTINUOUS
10
5.3492643700787399
20
-4.0445005905511806
11
5.3490665354330709
21
-4.044823779527559
0
LINE
8
BLACK
6
CONTINUOUS
10
5.3490665354330709
20
-4.044823779527559
11
5.3485226377952753
21
-4.0449546062992123
0
LINE
8
BLACK
6
CONTINUOUS
10
5.3485226377952753
20
-4.0449546062992123
11
5.3480455905511812
21
-4.0452466535433071
0
LINE
8
BLACK
6
CONTINUOUS
10
5.3480455905511812
20
-4.0452466535433071
11
5.3476771653543302
21
-4.0451579921259846
0
LINE
8
BLACK
6
CONTINUOUS
10
5.3476771653543302
20
-4.0451579921259846
11
5.3473087401574801
21
-4.0452466535433071
0
LINE
8
BLACK
6
CONTINUOUS
10
5.3473087401574801
20
-4.0452466535433071
11
5.3468316535433074
21
-4.0449546062992123
0
LINE
8
BLACK
6
CONTINUOUS
10
5.3468316535433074
20
-4.0449546062992123
11
5.3462877952755905
21
-4.044823779527559
0
LINE
8
BLACK
6
CONTINUOUS
10
5.3462877952755905
20
-4.044823779527559
11
5.3460899212598427
21
-4.0445005905511806
0
LINE
8
BLACK
6
CONTINUOUS
10
5.3460899212598427
20
-4.0445005905511806
11
5.3457667716535431
21
-4.0443027559055116
0
LINE
8
BLACK
6
CONTINUOUS
10
5.3457667716535431
20
-4.0443027559055116
11
5.3363179527559055
21
-4.0313106299212595
0
LINE
8
BLACK
6
CONTINUOUS
10
5.3363179527559055
20
-4.0313106299212595
11
5.3361465748031494
21
-4.0305982677165355
0
LINE
8
BLACK
6
CONTINUOUS
10
5.3361465748031494
20
-4.0305982677165355
11
5.335866141732283
21
-4.0299212598425198
0
LINE
8
BLACK
6
CONTINUOUS
10
5.335866141732283
20
-4.0299212598425198
11
5.3359405118110237
21
-4.0297416929133858
0
LINE
8
BLACK
6
CONTINUOUS
10
5.3359405118110237
20
-4.0297416929133858
11
5.3358950787401573
21
-4.0295528346456688
0
LINE
8
BLACK
6
CONTINUOUS
10
5.3358950787401573
20
-4.0295528346456688
11
5.3362775984251964
21
-4.0289279133858269
0
LINE
8
BLACK
6
CONTINUOUS
10
5.3362775984251964
20
-4.0289279133858269
11
5.3365580314960628
21
-4.02825094488189
0
LINE
8
BLACK
6
CONTINUOUS
10
5.3365580314960628
20
-4.02825094488189
11
5.3367375196850393
21
-4.0281765748031493
0
LINE
8
BLACK
6
CONTINUOUS
10
5.3367375196850393
20
-4.0281765748031493
11
5.3368389763779529
21
-4.0280108661417318
0
LINE
8
BLACK
6
CONTINUOUS
10
5.3368389763779529
20
-4.0280108661417318
11
5.3375512992125982
21
-4.0278394881889765
0
LINE
8
BLACK
6
CONTINUOUS
10
5.3375512992125982
20
-4.0278394881889765
11
5.3382283464566926
21
-4.0275590551181102
0
LINE
8
BLACK
6
CONTINUOUS
10
5.3382283464566926
20
-4.0275590551181102
11
5.3571259842519687
21
-4.0275590551181102
0
LINE
8
BLACK
6
CONTINUOUS
10
5.3571259842519687
20
-4.0275590551181102
11
5.3578029921259844
21
-4.0278394881889765
0
LINE
8
BLACK
6
CONTINUOUS
10
4.8375375196850392
20
-3.968416968503937
11
4.8382283464566926
21
-3.9703149606299211
0
LINE
8
BLACK
6
CONTINUOUS
10
4.8382283464566926
20
-3.9703149606299211
11
4.8382283464566926
21
-4.0244488188976373
0
LINE
8
BLACK
6
CONTINUOUS
10
4.8382283464566926
20
-4.0244488188976373
11
4.912047244094488
21
-4.0244488188976373
0
LINE
8
BLACK
6
CONTINUOUS
10
4.912047244094488
20
-4.0244488188976373
11
4.9130571653543305
21
-4.0246268897637796
0
LINE
8
BLACK
6
CONTINUOUS
10
4.9130571653543305
20
-4.0246268897637796
11
4.9146044094488186
21
-4.0259251968503937
0
LINE
8
BLACK
6
CONTINUOUS
10
4.9146044094488186
20
-4.0259251968503937
11
4.914955157480315
21
-4.0279143307086613
0
LINE
8
BLACK
6
CONTINUOUS
10
4.914955157480315
20
-4.0279143307086613
11
4.9139452362204725
21
-4.0296635039370079
0
LINE
8
BLACK
6
CONTINUOUS
10
4.9139452362204725
20
-4.0296635039370079
11
4.912047244094488
21
-4.0303543307086613
0
LINE
8
BLACK
6
CONTINUOUS
10
4.912047244094488
20
-4.0303543307086613
11
4.8352755905511806
21
-4.0303543307086613
0
LINE
8
BLACK
6
CONTINUOUS
10
4.8352755905511806
20
-4.0303543307086613
11
4.8348920472440939
21
-4.0302866929133856
0
LINE
8
BLACK
6
CONTINUOUS
10
4.8348920472440939
20
-4.0302866929133856
11
4.8347628346456695
21
-4.0303094881889763
0
LINE
8
BLACK
6
CONTINUOUS
10
4.8347628346456695
20
-4.0303094881889763
11
4.8346492125984248
21
-4.030243858267716
0
LINE
8
BLACK
6
CONTINUOUS
10
4.8346492125984248
20
-4.030243858267716
11
4.8342656692913382
21
-4.0301762598425199
0
LINE
8
BLACK
6
CONTINUOUS
10
4.8342656692913382
20
-4.0301762598425199
11
4.8336779527559051
21
-4.0296831102362205
0
LINE
8
BLACK
6
CONTINUOUS
10
4.8336779527559051
20
-4.0296831102362205
11
4.8330136614173229
21
-4.0292995669291338
0
LINE
8
BLACK
6
CONTINUOUS
10
4.8330136614173229
20
-4.0292995669291338
11
4.8329225196850389
21
-4.0290492125984247
0
LINE
8
BLACK
6
CONTINUOUS
10
4.8329225196850389
20
-4.0290492125984247
11
4.83271842519685
21
-4.0288779527559058
0
LINE
8
BLACK
6
CONTINUOUS
10
4.83271842519685
20
-4.0288779527559058
11
4.8325851574803149
21
-4.0281223622047246
0
LINE
8
BLACK
6
CONTINUOUS
10
4.8325851574803149
20
-4.0281223622047246
11
4.8323228346456695
21
-4.0274015748031493
0
LINE
8
BLACK
6
CONTINUOUS
10
4.8323228346456695
20
-4.0274015748031493
11
4.8323228346456695
21
-3.9703149606299211
0
LINE
8
BLACK
6
CONTINUOUS
10
4.8323228346456695
20
-3.9703149606299211
11
4.8325009055118109
21
-3.9693050393700786
0
LINE
8
BLACK
6
CONTINUOUS
10
4.8325009055118109
20
-3.9693050393700786
11
4.833799212598425
21
-3.9677577952755905
0
LINE
8
BLACK
6
CONTINUOUS
10
4.833799212598425
20
-3.9677577952755905
11
4.8357883464566926
21
-3.9674070472440945
0
LINE
8
BLACK
6
CONTINUOUS
10
4.8357883464566926
20
-3.9674070472440945
11
4.8375375196850392
21
-3.968416968503937
0
LINE
8
BLACK
6
CONTINUOUS
10
5.1721831889763781
20
-3.968416968503937
11
5.1728740157480315
21
-3.9703149606299211
0
LINE
8
BLACK
6
CONTINUOUS
10
5.1728740157480315
20
-3.9703149606299211
11
5.1728740157480315
21
-4.0274015748031493
0
LINE
8
BLACK
6
CONTINUOUS
10
5.1728740157480315
20
-4.0274015748031493
11
5.1728063779527558
21
-4.0277850787401572
0
LINE
8
BLACK
6
CONTINUOUS
10
5.1728063779527558
20
-4.0277850787401572
11
5.1728291732283465
21
-4.0279143307086613
0
LINE
8
BLACK
6
CONTINUOUS
10
5.1728291732283465
20
-4.0279143307086613
11
5.1727635433070862
21
-4.0280279133858263
0
LINE
8
BLACK
6
CONTINUOUS
10
5.1727635433070862
20
-4.0280279133858263
11
5.1726959448818892
21
-4.0284114960629918
0
LINE
8
BLACK
6
CONTINUOUS
10
5.1726959448818892
20
-4.0284114960629918
11
5.1722027952755907
21
-4.0289991732283461
0
LINE
8
BLACK
6
CONTINUOUS
10
5.1722027952755907
20
-4.0289991732283461
11
5.171819251968504
21
-4.0296635039370079
0
LINE
8
BLACK
6
CONTINUOUS
10
5.171819251968504
20
-4.0296635039370079
11
5.1715688976377949
21
-4.0297546062992122
0
LINE
8
BLACK
6
CONTINUOUS
10
5.1715688976377949
20
-4.0297546062992122
11
5.1713976377952751
21
-4.0299587401574799
0
LINE
8
BLACK
6
CONTINUOUS
10
5.1713976377952751
20
-4.0299587401574799
11
5.1706420472440939
21
-4.0300919685039371
0
LINE
8
BLACK
6
CONTINUOUS
10
5.1706420472440939
20
-4.0300919685039371
11
5.1699212598425195
21
-4.0303543307086613
0
LINE
8
BLACK
6
CONTINUOUS
10
5.1699212598425195
20
-4.0303543307086613
11
5.0931496062992121
21
-4.0303543307086613
0
LINE
8
BLACK
6
CONTINUOUS
10
5.0931496062992121
20
-4.0303543307086613
11
5.0921396850393696
21
-4.0301762598425199
0
LINE
8
BLACK
6
CONTINUOUS
10
5.0921396850393696
20
-4.0301762598425199
11
5.0905924409448815
21
-4.0288779527559058
0
LINE
8
BLACK
6
CONTINUOUS
10
5.0905924409448815
20
-4.0288779527559058
11
5.090241692913386
21
-4.0268888188976373
0
LINE
8
BLACK
6
CONTINUOUS
10
5.090241692913386
20
-4.0268888188976373
11
5.0912516141732285
21
-4.0251396456692916
0
LINE
8
BLACK
6
CONTINUOUS
10
5.0912516141732285
20
-4.0251396456692916
11
5.0931496062992121
21
-4.0244488188976373
0
LINE
8
BLACK
6
CONTINUOUS
10
5.0931496062992121
20
-4.0244488188976373
11
5.1669685039370075
21
-4.0244488188976373
0
LINE
8
BLACK
6
CONTINUOUS
10
5.1669685039370075
20
-4.0244488188976373
11
5.1669685039370075
21
-3.9703149606299211
0
LINE
8
BLACK
6
CONTINUOUS
10
5.1669685039370075
20
-3.9703149606299211
11
5.1671465748031498
21
-3.9693050393700786
0
LINE
8
BLACK
6
CONTINUOUS
10
5.1671465748031498
20
-3.9693050393700786
11
5.1684448818897639
21
-3.9677577952755905
0
LINE
8
BLACK
6
CONTINUOUS
10
5.1684448818897639
20
-3.9677577952755905
11
5.1704340157480315
21
-3.9674070472440945
0
LINE
8
BLACK
6
CONTINUOUS
10
5.1704340157480315
20
-3.9674070472440945
11
5.1721831889763781
21
-3.968416968503937
0
LINE
8
BLACK
6
CONTINUOUS
10
5.3974970866141732
20
-4.0140841732283468
11
5.3981889763779529
21
-4.0157544881889766
0
LINE
8
BLACK
6
CONTINUOUS
10
5.3981889763779529
20
-4.0157544881889766
11
5.3981889763779529
21
-4.0242455118110234
0
LINE
8
BLACK
6
CONTINUOUS
10
5.3981889763779529
20
-4.0242455118110234
11
5.3974970866141732
21
-4.0259158267716533
0
LINE
8
BLACK
6
CONTINUOUS
10
5.3974970866141732
20
-4.0259158267716533
11
5.3958267716535433
21
-4.026607716535433
0
LINE
8
BLACK
6
CONTINUOUS
10
5.3958267716535433
20
-4.026607716535433
11
5.3941564566929134
21
-4.0259158267716533
0
LINE
8
BLACK
6
CONTINUOUS
10
5.3941564566929134
20
-4.0259158267716533
11
5.3934645669291337
21
-4.0242455118110234
0
LINE
8
BLACK
6
CONTINUOUS
10
5.3934645669291337
20
-4.0242455118110234
11
5.3934645669291337
21
-4.0157544881889766
0
LINE
8
BLACK
6
CONTINUOUS
10
5.3934645669291337
20
-4.0157544881889766
11
5.3941564566929134
21
-4.0140841732283468
0
LINE
8
BLACK
6
CONTINUOUS
10
5.3941564566929134
20
-4.0140841732283468
11
5.3958267716535433
21
-4.013392283464567
0
LINE
8
BLACK
6
CONTINUOUS
10
5.3958267716535433
20
-4.013392283464567
11
5.3974970866141732
21
-4.0140841732283468
0
LINE
8
BLACK
6
CONTINUOUS
10
5.4258435433070868
20
-4.0140841732283468
11
5.4265354330708657
21
-4.0157544881889766
0
LINE
8
BLACK
6
CONTINUOUS
10
5.4265354330708657
20
-4.0157544881889766
11
5.4265354330708657
21
-4.0242455118110234
0
LINE
8
BLACK
6
CONTINUOUS
10
5.4265354330708657
20
-4.0242455118110234
11
5.4258435433070868
21
-4.0259158267716533
0
LINE
8
BLACK
6
CONTINUOUS
10
5.4258435433070868
20
-4.0259158267716533
11
5.424173228346457
21
-4.026607716535433
0
LINE
8
BLACK
6
CONTINUOUS
10
5.424173228346457
20
-4.026607716535433
11
5.4225029133858262
21
-4.0259158267716533
0
LINE
8
BLACK
6
CONTINUOUS
10
5.4225029133858262
20
-4.0259158267716533
11
5.4218110236220474
21
-4.0242455118110234
0
LINE
8
BLACK
6
CONTINUOUS
10
5.4218110236220474
20
-4.0242455118110234
11
5.4218110236220474
21
-4.0157544881889766
0
LINE
8
BLACK
6
CONTINUOUS
10
5.4218110236220474
20
-4.0157544881889766
11
5.4225029133858262
21
-4.0140841732283468
0
LINE
8
BLACK
6
CONTINUOUS
10
5.4225029133858262
20
-4.0140841732283468
11
5.424173228346457
21
-4.013392283464567
0
LINE
8
BLACK
6
CONTINUOUS
10
5.424173228346457
20
-4.013392283464567
11
5.4258435433070868
21
-4.0140841732283468
0
LINE
8
BLACK
6
CONTINUOUS
10
5.523168307086614
20
-4.0000453543307088
11
5.5237122047244096
21
-4.0001762204724409
0
LINE
8
BLACK
6
CONTINUOUS
10
5.5237122047244096
20
-4.0001762204724409
11
5.5239100393700786
21
-4.0004993700787397
0
LINE
8
BLACK
6
CONTINUOUS
10
5.5239100393700786
20
-4.0004993700787397
11
5.5242332283464561
21
-4.0006972440944883
0
LINE
8
BLACK
6
CONTINUOUS
10
5.5242332283464561
20
-4.0006972440944883
11
5.5336820472440946
21
-4.0136893700787404
0
LINE
8
BLACK
6
CONTINUOUS
10
5.5336820472440946
20
-4.0136893700787404
11
5.5338533858267711
21
-4.0144016929133857
0
LINE
8
BLACK
6
CONTINUOUS
10
5.5338533858267711
20
-4.0144016929133857
11
5.5341338582677162
21
-4.0150787401574801
0
LINE
8
BLACK
6
CONTINUOUS
10
5.5341338582677162
20
-4.0150787401574801
11
5.5340594488188977
21
-4.0152582677165354
0
LINE
8
BLACK
6
CONTINUOUS
10
5.5340594488188977
20
-4.0152582677165354
11
5.5341049212598428
21
-4.0154471653543302
0
LINE
8
BLACK
6
CONTINUOUS
10
5.5341049212598428
20
-4.0154471653543302
11
5.533722362204724
21
-4.0160720472440943
0
LINE
8
BLACK
6
CONTINUOUS
10
5.533722362204724
20
-4.0160720472440943
11
5.5334419685039373
21
-4.01674905511811
0
LINE
8
BLACK
6
CONTINUOUS
10
5.5334419685039373
20
-4.01674905511811
11
5.5332624409448821
21
-4.0168233858267719
0
LINE
8
BLACK
6
CONTINUOUS
10
5.5332624409448821
20
-4.0168233858267719
11
5.5331610236220472
21
-4.0169891338582673
0
LINE
8
BLACK
6
CONTINUOUS
10
5.5331610236220472
20
-4.0169891338582673
11
5.5324486614173223
21
-4.0171604724409447
0
LINE
8
BLACK
6
CONTINUOUS
10
5.5324486614173223
20
-4.0171604724409447
11
5.5317716535433066
21
-4.0174409448818897
0
LINE
8
BLACK
6
CONTINUOUS
10
5.5317716535433066
20
-4.0174409448818897
11
5.5128740157480314
21
-4.0174409448818897
0
LINE
8
BLACK
6
CONTINUOUS
10
5.5128740157480314
20
-4.0174409448818897
11
5.5121969685039369
21
-4.0171604724409447
0
LINE
8
BLACK
6
CONTINUOUS
10
5.5121969685039369
20
-4.0171604724409447
11
5.5114846456692916
21
-4.0169891338582673
0
LINE
8
BLACK
6
CONTINUOUS
10
5.5114846456692916
20
-4.0169891338582673
11
5.511383188976378
21
-4.0168233858267719
0
LINE
8
BLACK
6
CONTINUOUS
10
5.511383188976378
20
-4.0168233858267719
11
5.5112037007874015
21
-4.01674905511811
0
LINE
8
BLACK
6
CONTINUOUS
10
5.5112037007874015
20
-4.01674905511811
11
5.5109232677165352
21
-4.0160720472440943
0
LINE
8
BLACK
6
CONTINUOUS
10
5.5109232677165352
20
-4.0160720472440943
11
5.5105407480314961
21
-4.0154471653543302
0
LINE
8
BLACK
6
CONTINUOUS
10
5.5105407480314961
20
-4.0154471653543302
11
5.5105861811023624
21
-4.0152582677165354
0
LINE
8
BLACK
6
CONTINUOUS
10
5.5105861811023624
20
-4.0152582677165354
11
5.5105118110236218
21
-4.0150787401574801
0
LINE
8
BLACK
6
CONTINUOUS
10
5.5105118110236218
20
-4.0150787401574801
11
5.5107922440944881
21
-4.0144016929133857
0
LINE
8
BLACK
6
CONTINUOUS
10
5.5107922440944881
20
-4.0144016929133857
11
5.5109636220472442
21
-4.0136893700787404
0
LINE
8
BLACK
6
CONTINUOUS
10
5.5109636220472442
20
-4.0136893700787404
11
5.5204124409448818
21
-4.0006972440944883
0
LINE
8
BLACK
6
CONTINUOUS
10
5.5204124409448818
20
-4.0006972440944883
11
5.5207355905511806
21
-4.0004993700787397
0
LINE
8
BLACK
6
CONTINUOUS
10
5.5207355905511806
20
-4.0004993700787397
11
5.5209334645669292
21
-4.0001762204724409
0
LINE
8
BLACK
6
CONTINUOUS
10
5.5209334645669292
20
-4.0001762204724409
11
5.5214773228346452
21
-4.0000453543307088
0
LINE
8
BLACK
6
CONTINUOUS
10
5.5214773228346452
20
-4.0000453543307088
11
5.5219544094488189
21
-3.9997533464566928
0
LINE
8
BLACK
6
CONTINUOUS
10
5.5219544094488189
20
-3.9997533464566928
11
5.522322834645669
21
-3.999841968503937
0
LINE
8
BLACK
6
CONTINUOUS
10
5.522322834645669
20
-3.999841968503937
11
5.52269125984252
21
-3.9997533464566928
0
LINE
8
BLACK
6
CONTINUOUS
10
5.52269125984252
20
-3.9997533464566928
11
5.523168307086614
21
-4.0000453543307088
0
LINE
8
BLACK
6
CONTINUOUS
10
5.2309158267716533
20
-4.012502913385827
11
5.2316077165354331
21
-4.0141732283464568
0
LINE
8
BLACK
6
CONTINUOUS
10
5.2316077165354331
20
-4.0141732283464568
11
5.2309158267716533
21
-4.0158435433070867
0
LINE
8
BLACK
6
CONTINUOUS
10
5.2309158267716533
20
-4.0158435433070867
11
5.2292455118110235
21
-4.0165354330708665
0
LINE
8
BLACK
6
CONTINUOUS
10
5.2292455118110235
20
-4.0165354330708665
11
5.2207544881889767
21
-4.0165354330708665
0
LINE
8
BLACK
6
CONTINUOUS
10
5.2207544881889767
20
-4.0165354330708665
11
5.2190841732283459
21
-4.0158435433070867
0
LINE
8
BLACK
6
CONTINUOUS
10
5.2190841732283459
20
-4.0158435433070867
11
5.2183922834645671
21
-4.0141732283464568
0
LINE
8
BLACK
6
CONTINUOUS
10
5.2183922834645671
20
-4.0141732283464568
11
5.2190841732283459
21
-4.012502913385827
0
LINE
8
BLACK
6
CONTINUOUS
10
5.2190841732283459
20
-4.012502913385827
11
5.2207544881889767
21
-4.0118110236220472
0
LINE
8
BLACK
6
CONTINUOUS
10
5.2207544881889767
20
-4.0118110236220472
11
5.2292455118110235
21
-4.0118110236220472
0
LINE
8
BLACK
6
CONTINUOUS
10
5.2292455118110235
20
-4.0118110236220472
11
5.2309158267716533
21
-4.012502913385827
0
LINE
8
BLACK
6
CONTINUOUS
10
5.6712383070866137
20
-4.0001886220472436
11
5.671929133858268
21
-4.0020866141732281
0
LINE
8
BLACK
6
CONTINUOUS
10
5.671929133858268
20
-4.0020866141732281
11
5.671929133858268
21
-4.0089763779527559
0
LINE
8
BLACK
6
CONTINUOUS
10
5.671929133858268
20
-4.0089763779527559
11
5.6718614960629923
21
-4.0093598818897638
0
LINE
8
BLACK
6
CONTINUOUS
10
5.6718614960629923
20
-4.0093598818897638
11
5.671884291338583
21
-4.0094891338582679
0
LINE
8
BLACK
6
CONTINUOUS
10
5.671884291338583
20
-4.0094891338582679
11
5.6718186614173227
21
-4.0096027165354329
0
LINE
8
BLACK
6
CONTINUOUS
10
5.6718186614173227
20
-4.0096027165354329
11
5.6717510629921257
21
-4.0099862992125983
0
LINE
8
BLACK
6
CONTINUOUS
10
5.6717510629921257
20
-4.0099862992125983
11
5.6712579133858263
21
-4.0105739763779527
0
LINE
8
BLACK
6
CONTINUOUS
10
5.6712579133858263
20
-4.0105739763779527
11
5.6708743700787396
21
-4.0112383070866144
0
LINE
8
BLACK
6
CONTINUOUS
10
5.6708743700787396
20
-4.0112383070866144
11
5.6706240157480314
21
-4.0113294094488188
0
LINE
8
BLACK
6
CONTINUOUS
10
5.6706240157480314
20
-4.0113294094488188
11
5.6704527559055116
21
-4.0115335433070864
0
LINE
8
BLACK
6
CONTINUOUS
10
5.6704527559055116
20
-4.0115335433070864
11
5.6696971653543304
21
-4.0116667716535428
0
LINE
8
BLACK
6
CONTINUOUS
10
5.6696971653543304
20
-4.0116667716535428
11
5.668976377952756
21
-4.0119291338582679
0
LINE
8
BLACK
6
CONTINUOUS
10
5.668976377952756
20
-4.0119291338582679
11
5.541023622047244
21
-4.0119291338582679
0
LINE
8
BLACK
6
CONTINUOUS
10
5.541023622047244
20
-4.0119291338582679
11
5.5406400787401573
21
-4.0118614960629921
0
LINE
8
BLACK
6
CONTINUOUS
10
5.5406400787401573
20
-4.0118614960629921
11
5.5405108661417319
21
-4.0118842913385828
0
LINE
8
BLACK
6
CONTINUOUS
10
5.5405108661417319
20
-4.0118842913385828
11
5.5403972440944882
21
-4.0118186614173226
0
LINE
8
BLACK
6
CONTINUOUS
10
5.5403972440944882
20
-4.0118186614173226
11
5.5400137007874015
21
-4.0117510629921256
0
LINE
8
BLACK
6
CONTINUOUS
10
5.5400137007874015
20
-4.0117510629921256
11
5.5394259842519684
21
-4.011257913385827
0
LINE
8
BLACK
6
CONTINUOUS
10
5.5394259842519684
20
-4.011257913385827
11
5.5387616929133854
21
-4.0108743700787404
0
LINE
8
BLACK
6
CONTINUOUS
10
5.5387616929133854
20
-4.0108743700787404
11
5.5386705511811023
21
-4.0106240157480313
0
LINE
8
BLACK
6
CONTINUOUS
10
5.5386705511811023
20
-4.0106240157480313
11
5.5384664566929134
21
-4.0104527559055114
0
LINE
8
BLACK
6
CONTINUOUS
10
5.5384664566929134
20
-4.0104527559055114
11
5.5383331889763774
21
-4.0096971653543303
0
LINE
8
BLACK
6
CONTINUOUS
10
5.5383331889763774
20
-4.0096971653543303
11
5.5380708661417319
21
-4.0089763779527559
0
LINE
8
BLACK
6
CONTINUOUS
10
5.5380708661417319
20
-4.0089763779527559
11
5.5380708661417319
21
-4.0020866141732281
0
LINE
8
BLACK
6
CONTINUOUS
10
5.5380708661417319
20
-4.0020866141732281
11
5.5382489370078742
21
-4.0010766929133856
0
LINE
8
BLACK
6
CONTINUOUS
10
5.5382489370078742
20
-4.0010766929133856
11
5.5395472440944884
21
-3.9995294488188975
0
LINE
8
BLACK
6
CONTINUOUS
10
5.5395472440944884
20
-3.9995294488188975
11
5.541536377952756
21
-3.9991787007874016
0
LINE
8
BLACK
6
CONTINUOUS
10
5.541536377952756
20
-3.9991787007874016
11
5.5432855511811026
21
-4.0001886220472436
0
LINE
8
BLACK
6
CONTINUOUS
10
5.5432855511811026
20
-4.0001886220472436
11
5.543976377952756
21
-4.0020866141732281
0
LINE
8
BLACK
6
CONTINUOUS
10
5.543976377952756
20
-4.0020866141732281
11
5.543976377952756
21
-4.0060236220472438
0
LINE
8
BLACK
6
CONTINUOUS
10
5.543976377952756
20
-4.0060236220472438
11
5.666023622047244
21
-4.0060236220472438
0
LINE
8
BLACK
6
CONTINUOUS
10
5.666023622047244
20
-4.0060236220472438
11
5.666023622047244
21
-4.0020866141732281
0
LINE
8
BLACK
6
CONTINUOUS
10
5.666023622047244
20
-4.0020866141732281
11
5.6662016929133854
21
-4.0010766929133856
0
LINE
8
BLACK
6
CONTINUOUS
10
5.6662016929133854
20
-4.0010766929133856
11
5.6674999999999995
21
-3.9995294488188975
0
LINE
8
BLACK
6
CONTINUOUS
10
5.6674999999999995
20
-3.9995294488188975
11
5.669489133858268
21
-3.9991787007874016
0
LINE
8
BLACK
6
CONTINUOUS
10
5.669489133858268
20
-3.9991787007874016
11
5.6712383070866137
21
-4.0001886220472436
0
LINE
8
BLACK
6
CONTINUOUS
10
5.4417096850393696
20
-3.9922808267716534
11
5.4424015748031493
21
-3.9939511417322833
0
LINE
8
BLACK
6
CONTINUOUS
10
5.4424015748031493
20
-3.9939511417322833
11
5.4424015748031493
21
-4.0060488582677163
0
LINE
8
BLACK
6
CONTINUOUS
10
5.4424015748031493
20
-4.0060488582677163
11
5.4417096850393696
21
-4.0077191732283461
0
LINE
8
BLACK
6
CONTINUOUS
10
5.4417096850393696
20
-4.0077191732283461
11
5.4400393700787397
21
-4.0084110629921259
0
LINE
8
BLACK
6
CONTINUOUS
10
5.4400393700787397
20
-4.0084110629921259
11
5.4383690551181099
21
-4.0077191732283461
0
LINE
8
BLACK
6
CONTINUOUS
10
5.4383690551181099
20
-4.0077191732283461
11
5.437677165354331
21
-4.0060488582677163
0
LINE
8
BLACK
6
CONTINUOUS
10
5.437677165354331
20
-4.0060488582677163
11
5.437677165354331
21
-3.9939511417322833
0
LINE
8
BLACK
6
CONTINUOUS
10
5.437677165354331
20
-3.9939511417322833
11
5.4383690551181099
21
-3.9922808267716534
0
LINE
8
BLACK
6
CONTINUOUS
10
5.4383690551181099
20
-3.9922808267716534
11
5.4400393700787397
21
-3.9915889370078741
0
LINE
8
BLACK
6
CONTINUOUS
10
5.4400393700787397
20
-3.9915889370078741
11
5.4417096850393696
21
-3.9922808267716534
0
LINE
8
BLACK
6
CONTINUOUS
10
5.4716309448818894
20
-3.9922808267716534
11
5.4723228346456692
21
-3.9939511417322833
0
LINE
8
BLACK
6
CONTINUOUS
10
5.4723228346456692
20
-3.9939511417322833
11
5.4723228346456692
21
-4.0060488582677163
0
LINE
8
BLACK
6
CONTINUOUS
10
5.4723228346456692
20
-4.0060488582677163
11
5.4716309448818894
21
-4.0077191732283461
0
LINE
8
BLACK
6
CONTINUOUS
10
5.4716309448818894
20
-4.0077191732283461
11
5.4699606299212595
21
-4.0084110629921259
0
LINE
8
BLACK
6
CONTINUOUS
10
5.4699606299212595
20
-4.0084110629921259
11
5.4682903149606297
21
-4.0077191732283461
0
LINE
8
BLACK
6
CONTINUOUS
10
5.4682903149606297
20
-4.0077191732283461
11
5.4675984251968499
21
-4.0060488582677163
0
LINE
8
BLACK
6
CONTINUOUS
10
5.4675984251968499
20
-4.0060488582677163
11
5.4675984251968499
21
-3.9939511417322833
0
LINE
8
BLACK
6
CONTINUOUS
10
5.4675984251968499
20
-3.9939511417322833
11
5.4682903149606297
21
-3.9922808267716534
0
LINE
8
BLACK
6
CONTINUOUS
10
5.4682903149606297
20
-3.9922808267716534
11
5.4699606299212595
21
-3.9915889370078741
0
LINE
8
BLACK
6
CONTINUOUS
10
5.4699606299212595
20
-3.9915889370078741
11
5.4716309448818894
21
-3.9922808267716534
0
LINE
8
BLACK
6
CONTINUOUS
10
5.2309158267716533
20
-3.9841564566929133
11
5.2316077165354331
21
-3.9858267716535432
0
LINE
8
BLACK
6
CONTINUOUS
10
5.2316077165354331
20
-3.9858267716535432
11
5.2309158267716533
21
-3.987497086614173
0
LINE
8
BLACK
6
CONTINUOUS
10
5.2309158267716533
20
-3.987497086614173
11
5.2292455118110235
21
-3.9881889763779528
0
LINE
8
BLACK
6
CONTINUOUS
10
5.2292455118110235
20
-3.9881889763779528
11
5.2207544881889767
21
-3.9881889763779528
0
LINE
8
BLACK
6
CONTINUOUS
10
5.2207544881889767
20
-3.9881889763779528
11
5.2190841732283459
21
-3.987497086614173
0
LINE
8
BLACK
6
CONTINUOUS
10
5.2190841732283459
20
-3.987497086614173
11
5.2183922834645671
21
-3.9858267716535432
0
LINE
8
BLACK
6
CONTINUOUS
10
5.2183922834645671
20
-3.9858267716535432
11
5.2190841732283459
21
-3.9841564566929133
0
LINE
8
BLACK
6
CONTINUOUS
10
5.2190841732283459
20
-3.9841564566929133
11
5.2207544881889767
21
-3.983464566929134
0
LINE
8
BLACK
6
CONTINUOUS
10
5.2207544881889767
20
-3.983464566929134
11
5.2292455118110235
21
-3.983464566929134
0
LINE
8
BLACK
6
CONTINUOUS
10
5.2292455118110235
20
-3.983464566929134
11
5.2309158267716533
21
-3.9841564566929133
0
LINE
8
BLACK
6
CONTINUOUS
10
5.2637658267716532
20
-3.9252174409448819
11
5.2653130708661413
21
-3.9265157480314961
0
LINE
8
BLACK
6
CONTINUOUS
10
5.2653130708661413
20
-3.9265157480314961
11
5.2656638188976377
21
-3.9285048818897637
0
LINE
8
BLACK
6
CONTINUOUS
10
5.2656638188976377
20
-3.9285048818897637
11
5.2646538976377952
21
-3.9302540551181102
0
LINE
8
BLACK
6
CONTINUOUS
10
5.2646538976377952
20
-3.9302540551181102
11
5.2627559055118107
21
-3.9309448818897637
0
LINE
8
BLACK
6
CONTINUOUS
10
5.2627559055118107
20
-3.9309448818897637
11
5.2470078740157478
21
-3.9309448818897637
0
LINE
8
BLACK
6
CONTINUOUS
10
5.2470078740157478
20
-3.9309448818897637
11
5.2459979527559053
21
-3.9307668110236218
0
LINE
8
BLACK
6
CONTINUOUS
10
5.2459979527559053
20
-3.9307668110236218
11
5.2444507086614172
21
-3.9294685039370076
0
LINE
8
BLACK
6
CONTINUOUS
10
5.2444507086614172
20
-3.9294685039370076
11
5.2440999606299208
21
-3.92747937007874
0
LINE
8
BLACK
6
CONTINUOUS
10
5.2440999606299208
20
-3.92747937007874
11
5.2451098818897632
21
-3.9257301968503935
0
LINE
8
BLACK
6
CONTINUOUS
10
5.2451098818897632
20
-3.9257301968503935
11
5.2470078740157478
21
-3.92503937007874
0
LINE
8
BLACK
6
CONTINUOUS
10
5.2470078740157478
20
-3.92503937007874
11
5.2627559055118107
21
-3.92503937007874
0
LINE
8
BLACK
6
CONTINUOUS
10
5.2627559055118107
20
-3.92503937007874
11
5.2637658267716532
21
-3.9252174409448819
0
LINE
8
BLACK
6
CONTINUOUS
10
5.3752540551181101
20
-3.9103461023622046
11
5.3759448818897635
21
-3.9122440944881891
0
LINE
8
BLACK
6
CONTINUOUS
10
5.3759448818897635
20
-3.9122440944881891
11
5.3759448818897635
21
-3.9279921259842521
0
LINE
8
BLACK
6
CONTINUOUS
10
5.3759448818897635
20
-3.9279921259842521
11
5.3758772440944878
21
-3.9283756299212595
0
LINE
8
BLACK
6
CONTINUOUS
10
5.3758772440944878
20
-3.9283756299212595
11
5.3759000393700784
21
-3.9285048818897637
0
LINE
8
BLACK
6
CONTINUOUS
10
5.3759000393700784
20
-3.9285048818897637
11
5.3758344094488191
21
-3.9286184645669291
0
LINE
8
BLACK
6
CONTINUOUS
10
5.3758344094488191
20
-3.9286184645669291
11
5.3757668110236221
21
-3.9290020472440945
0
LINE
8
BLACK
6
CONTINUOUS
10
5.3757668110236221
20
-3.9290020472440945
11
5.3752736614173227
21
-3.9295897244094489
0
LINE
8
BLACK
6
CONTINUOUS
10
5.3752736614173227
20
-3.9295897244094489
11
5.374890118110236
21
-3.9302540551181102
0
LINE
8
BLACK
6
CONTINUOUS
10
5.374890118110236
20
-3.9302540551181102
11
5.3746397637795278
21
-3.930345157480315
0
LINE
8
BLACK
6
CONTINUOUS
10
5.3746397637795278
20
-3.930345157480315
11
5.3744685039370079
21
-3.9305492913385827
0
LINE
8
BLACK
6
CONTINUOUS
10
5.3744685039370079
20
-3.9305492913385827
11
5.3737129133858268
21
-3.9306825196850395
0
LINE
8
BLACK
6
CONTINUOUS
10
5.3737129133858268
20
-3.9306825196850395
11
5.3729921259842515
21
-3.9309448818897637
0
LINE
8
BLACK
6
CONTINUOUS
10
5.3729921259842515
20
-3.9309448818897637
11
5.3572440944881885
21
-3.9309448818897637
0
LINE
8
BLACK
6
CONTINUOUS
10
5.3572440944881885
20
-3.9309448818897637
11
5.3562341732283461
21
-3.9307668110236218
0
LINE
8
BLACK
6
CONTINUOUS
10
5.3562341732283461
20
-3.9307668110236218
11
5.3546869291338579
21
-3.9294685039370076
0
LINE
8
BLACK
6
CONTINUOUS
10
5.3546869291338579
20
-3.9294685039370076
11
5.3543361811023624
21
-3.92747937007874
0
LINE
8
BLACK
6
CONTINUOUS
10
5.3543361811023624
20
-3.92747937007874
11
5.3553461023622049
21
-3.9257301968503935
0
LINE
8
BLACK
6
CONTINUOUS
10
5.3553461023622049
20
-3.9257301968503935
11
5.3572440944881885
21
-3.92503937007874
0
LINE
8
BLACK
6
CONTINUOUS
10
5.3572440944881885
20
-3.92503937007874
11
5.3700393700787403
21
-3.92503937007874
0
LINE
8
BLACK
6
CONTINUOUS
10
5.3700393700787403
20
-3.92503937007874
11
5.3700393700787403
21
-3.9122440944881891
0
LINE
8
BLACK
6
CONTINUOUS
10
5.3700393700787403
20
-3.9122440944881891
11
5.3702174409448817
21
-3.9112341732283462
0
LINE
8
BLACK
6
CONTINUOUS
10
5.3702174409448817
20
-3.9112341732283462
11
5.3715157480314959
21
-3.9096869291338581
0
LINE
8
BLACK
6
CONTINUOUS
10
5.3715157480314959
20
-3.9096869291338581
11
5.3735048818897635
21
-3.9093361811023621
0
LINE
8
BLACK
6
CONTINUOUS
10
5.3735048818897635
20
-3.9093361811023621
11
5.3752540551181101
21
-3.9103461023622046
0
LINE
8
BLACK
6
CONTINUOUS
10
5.4417096850393696
20
-3.9072808267716534
11
5.4424015748031493
21
-3.9089511417322833
0
LINE
8
BLACK
6
CONTINUOUS
10
5.4424015748031493
20
-3.9089511417322833
11
5.4424015748031493
21
-3.9210488582677163
0
LINE
8
BLACK
6
CONTINUOUS
10
5.4424015748031493
20
-3.9210488582677163
11
5.4417096850393696
21
-3.9227191732283462
0
LINE
8
BLACK
6
CONTINUOUS
10
5.4417096850393696
20
-3.9227191732283462
11
5.4400393700787397
21
-3.9234110629921259
0
LINE
8
BLACK
6
CONTINUOUS
10
5.4400393700787397
20
-3.9234110629921259
11
5.4383690551181099
21
-3.9227191732283462
0
LINE
8
BLACK
6
CONTINUOUS
10
5.4383690551181099
20
-3.9227191732283462
11
5.437677165354331
21
-3.9210488582677163
0
LINE
8
BLACK
6
CONTINUOUS
10
5.437677165354331
20
-3.9210488582677163
11
5.437677165354331
21
-3.9089511417322833
0
LINE
8
BLACK
6
CONTINUOUS
10
5.437677165354331
20
-3.9089511417322833
11
5.4383690551181099
21
-3.9072808267716534
0
LINE
8
BLACK
6
CONTINUOUS
10
5.4383690551181099
20
-3.9072808267716534
11
5.4400393700787397
21
-3.9065889370078741
0
LINE
8
BLACK
6
CONTINUOUS
10
5.4400393700787397
20
-3.9065889370078741
11
5.4417096850393696
21
-3.9072808267716534
0
LINE
8
BLACK
6
CONTINUOUS
10
5.4716309448818894
20
-3.9072808267716534
11
5.4723228346456692
21
-3.9089511417322833
0
LINE
8
BLACK
6
CONTINUOUS
10
5.4723228346456692
20
-3.9089511417322833
11
5.4723228346456692
21
-3.9210488582677163
0
LINE
8
BLACK
6
CONTINUOUS
10
5.4723228346456692
20
-3.9210488582677163
11
5.4716309448818894
21
-3.9227191732283462
0
LINE
8
BLACK
6
CONTINUOUS
10
5.4716309448818894
20
-3.9227191732283462
11
5.4699606299212595
21
-3.9234110629921259
0
LINE
8
BLACK
6
CONTINUOUS
10
5.4699606299212595
20
-3.9234110629921259
11
5.4682903149606297
21
-3.9227191732283462
0
LINE
8
BLACK
6
CONTINUOUS
10
5.4682903149606297
20
-3.9227191732283462
11
5.4675984251968499
21
-3.9210488582677163
0
LINE
8
BLACK
6
CONTINUOUS
10
5.4675984251968499
20
-3.9210488582677163
11
5.4675984251968499
21
-3.9089511417322833
0
LINE
8
BLACK
6
CONTINUOUS
10
5.4675984251968499
20
-3.9089511417322833
11
5.4682903149606297
21
-3.9072808267716534
0
LINE
8
BLACK
6
CONTINUOUS
10
5.4682903149606297
20
-3.9072808267716534
11
5.4699606299212595
21
-3.9065889370078741
0
LINE
8
BLACK
6
CONTINUOUS
10
5.4699606299212595
20
-3.9065889370078741
11
5.4716309448818894
21
-3.9072808267716534
0
LINE
8
BLACK
6
CONTINUOUS
10
5.6693598818897639
20
-3.8781384645669292
11
5.669489133858268
21
-3.8781157086614173
0
LINE
8
BLACK
6
CONTINUOUS
10
5.669489133858268
20
-3.8781157086614173
11
5.669602716535433
21
-3.8781812992125984
0
LINE
8
BLACK
6
CONTINUOUS
10
5.669602716535433
20
-3.8781812992125984
11
5.6699862992125984
21
-3.8782489370078741
0
LINE
8
BLACK
6
CONTINUOUS
10
5.6699862992125984
20
-3.8782489370078741
11
5.6705739763779528
21
-3.8787420472440943
0
LINE
8
BLACK
6
CONTINUOUS
10
5.6705739763779528
20
-3.8787420472440943
11
5.6712383070866137
21
-3.8791256299212598
0
LINE
8
BLACK
6
CONTINUOUS
10
5.6712383070866137
20
-3.8791256299212598
11
5.6713294094488189
21
-3.8793759448818896
0
LINE
8
BLACK
6
CONTINUOUS
10
5.6713294094488189
20
-3.8793759448818896
11
5.6715335433070866
21
-3.8795472440944883
0
LINE
8
BLACK
6
CONTINUOUS
10
5.6715335433070866
20
-3.8795472440944883
11
5.6716667716535429
21
-3.8803027952755906
0
LINE
8
BLACK
6
CONTINUOUS
10
5.6716667716535429
20
-3.8803027952755906
11
5.671929133858268
21
-3.8810236220472438
0
LINE
8
BLACK
6
CONTINUOUS
10
5.671929133858268
20
-3.8810236220472438
11
5.671929133858268
21
-3.8879133858267716
0
LINE
8
BLACK
6
CONTINUOUS
10
5.671929133858268
20
-3.8879133858267716
11
5.6717510629921257
21
-3.888923307086614
0
LINE
8
BLACK
6
CONTINUOUS
10
5.6717510629921257
20
-3.888923307086614
11
5.6704527559055116
21
-3.8904705511811022
0
LINE
8
BLACK
6
CONTINUOUS
10
5.6704527559055116
20
-3.8904705511811022
11
5.668463622047244
21
-3.8908212992125981
0
LINE
8
BLACK
6
CONTINUOUS
10
5.668463622047244
20
-3.8908212992125981
11
5.6667144488188974
21
-3.8898113779527557
0
LINE
8
BLACK
6
CONTINUOUS
10
5.6667144488188974
20
-3.8898113779527557
11
5.666023622047244
21
-3.8879133858267716
0
LINE
8
BLACK
6
CONTINUOUS
10
5.666023622047244
20
-3.8879133858267716
11
5.666023622047244
21
-3.8839763779527559
0
LINE
8
BLACK
6
CONTINUOUS
10
5.666023622047244
20
-3.8839763779527559
11
5.543976377952756
21
-3.8839763779527559
0
LINE
8
BLACK
6
CONTINUOUS
10
5.543976377952756
20
-3.8839763779527559
11
5.543976377952756
21
-3.8879133858267716
0
LINE
8
BLACK
6
CONTINUOUS
10
5.543976377952756
20
-3.8879133858267716
11
5.5437983070866137
21
-3.888923307086614
0
LINE
8
BLACK
6
CONTINUOUS
10
5.5437983070866137
20
-3.888923307086614
11
5.5424999999999995
21
-3.8904705511811022
0
LINE
8
BLACK
6
CONTINUOUS
10
5.5424999999999995
20
-3.8904705511811022
11
5.5405108661417319
21
-3.8908212992125981
0
LINE
8
BLACK
6
CONTINUOUS
10
5.5405108661417319
20
-3.8908212992125981
11
5.5387616929133854
21
-3.8898113779527557
0
LINE
8
BLACK
6
CONTINUOUS
10
5.5387616929133854
20
-3.8898113779527557
11
5.5380708661417319
21
-3.8879133858267716
0
LINE
8
BLACK
6
CONTINUOUS
10
5.5380708661417319
20
-3.8879133858267716
11
5.5380708661417319
21
-3.8810236220472438
0
LINE
8
BLACK
6
CONTINUOUS
10
5.5380708661417319
20
-3.8810236220472438
11
5.5381384645669289
21
-3.8806400787401576
0
LINE
8
BLACK
6
CONTINUOUS
10
5.5381384645669289
20
-3.8806400787401576
11
5.538115708661417
21
-3.8805108661417322
0
LINE
8
BLACK
6
CONTINUOUS
10
5.538115708661417
20
-3.8805108661417322
11
5.5381812992125985
21
-3.8803972440944881
0
LINE
8
BLACK
6
CONTINUOUS
10
5.5381812992125985
20
-3.8803972440944881
11
5.5382489370078742
21
-3.8800137007874014
0
LINE
8
BLACK
6
CONTINUOUS
10
5.5382489370078742
20
-3.8800137007874014
11
5.538742047244094
21
-3.8794259842519683
0
LINE
8
BLACK
6
CONTINUOUS
10
5.538742047244094
20
-3.8794259842519683
11
5.5391256299212595
21
-3.8787616929133857
0
LINE
8
BLACK
6
CONTINUOUS
10
5.5391256299212595
20
-3.8787616929133857
11
5.5393759448818898
21
-3.8786705511811022
0
LINE
8
BLACK
6
CONTINUOUS
10
5.5393759448818898
20
-3.8786705511811022
11
5.5395472440944884
21
-3.8784664566929132
0
LINE
8
BLACK
6
CONTINUOUS
10
5.5395472440944884
20
-3.8784664566929132
11
5.5403027952755908
21
-3.8783331889763777
0
LINE
8
BLACK
6
CONTINUOUS
10
5.5403027952755908
20
-3.8783331889763777
11
5.541023622047244
21
-3.8780708661417322
0
LINE
8
BLACK
6
CONTINUOUS
10
5.541023622047244
20
-3.8780708661417322
11
5.668976377952756
21
-3.8780708661417322
0
LINE
8
BLACK
6
CONTINUOUS
10
5.668976377952756
20
-3.8780708661417322
11
5.6693598818897639
21
-3.8781384645669292
0
LINE
8
BLACK
6
CONTINUOUS
10
4.9130571653543305
20
-3.8080914566929134
11
4.9146044094488186
21
-3.8093897637795275
0
LINE
8
BLACK
6
CONTINUOUS
10
4.9146044094488186
20
-3.8093897637795275
11
4.914955157480315
21
-3.8113788976377951
0
LINE
8
BLACK
6
CONTINUOUS
10
4.914955157480315
20
-3.8113788976377951
11
4.9139452362204725
21
-3.8131280708661417
0
LINE
8
BLACK
6
CONTINUOUS
10
4.9139452362204725
20
-3.8131280708661417
11
4.912047244094488
21
-3.8138188976377951
0
LINE
8
BLACK
6
CONTINUOUS
10
4.912047244094488
20
-3.8138188976377951
11
4.8382283464566926
21
-3.8138188976377951
0
LINE
8
BLACK
6
CONTINUOUS
10
4.8382283464566926
20
-3.8138188976377951
11
4.8382283464566926
21
-3.8679527559055118
0
LINE
8
BLACK
6
CONTINUOUS
10
4.8382283464566926
20
-3.8679527559055118
11
4.8380502755905512
21
-3.8689626771653542
0
LINE
8
BLACK
6
CONTINUOUS
10
4.8380502755905512
20
-3.8689626771653542
11
4.8367519685039371
21
-3.8705099212598424
0
LINE
8
BLACK
6
CONTINUOUS
10
4.8367519685039371
20
-3.8705099212598424
11
4.8347628346456695
21
-3.8708606692913383
0
LINE
8
BLACK
6
CONTINUOUS
10
4.8347628346456695
20
-3.8708606692913383
11
4.8330136614173229
21
-3.8698507480314959
0
LINE
8
BLACK
6
CONTINUOUS
10
4.8330136614173229
20
-3.8698507480314959
11
4.8323228346456695
21
-3.8679527559055118
0
LINE
8
BLACK
6
CONTINUOUS
10
4.8323228346456695
20
-3.8679527559055118
11
4.8323228346456695
21
-3.8108661417322836
0
LINE
8
BLACK
6
CONTINUOUS
10
4.8323228346456695
20
-3.8108661417322836
11
4.8323904330708665
21
-3.8104825984251969
0
LINE
8
BLACK
6
CONTINUOUS
10
4.8323904330708665
20
-3.8104825984251969
11
4.8323676771653545
21
-3.8103533858267715
0
LINE
8
BLACK
6
CONTINUOUS
10
4.8323676771653545
20
-3.8103533858267715
11
4.8324332677165351
21
-3.8102397637795273
0
LINE
8
BLACK
6
CONTINUOUS
10
4.8324332677165351
20
-3.8102397637795273
11
4.8325009055118109
21
-3.8098562204724407
0
LINE
8
BLACK
6
CONTINUOUS
10
4.8325009055118109
20
-3.8098562204724407
11
4.8329940157480316
21
-3.809268503937008
0
LINE
8
BLACK
6
CONTINUOUS
10
4.8329940157480316
20
-3.809268503937008
11
4.833377598425197
21
-3.808604212598425
0
LINE
8
BLACK
6
CONTINUOUS
10
4.833377598425197
20
-3.808604212598425
11
4.8336279133858264
21
-3.8085130708661414
0
LINE
8
BLACK
6
CONTINUOUS
10
4.8336279133858264
20
-3.8085130708661414
11
4.833799212598425
21
-3.8083089763779525
0
LINE
8
BLACK
6
CONTINUOUS
10
4.833799212598425
20
-3.8083089763779525
11
4.8345547637795274
21
-3.8081757086614174
0
LINE
8
BLACK
6
CONTINUOUS
10
4.8345547637795274
20
-3.8081757086614174
11
4.8352755905511806
21
-3.8079133858267715
0
LINE
8
BLACK
6
CONTINUOUS
10
4.8352755905511806
20
-3.8079133858267715
11
4.912047244094488
21
-3.8079133858267715
0
LINE
8
BLACK
6
CONTINUOUS
10
4.912047244094488
20
-3.8079133858267715
11
4.9130571653543305
21
-3.8080914566929134
0
LINE
8
BLACK
6
CONTINUOUS
10
5.1703047637795274
20
-3.8079809842519685
11
5.1704340157480315
21
-3.8079582283464566
0
LINE
8
BLACK
6
CONTINUOUS
10
5.1704340157480315
20
-3.8079582283464566
11
5.1705475984251965
21
-3.8080238188976376
0
LINE
8
BLACK
6
CONTINUOUS
10
5.1705475984251965
20
-3.8080238188976376
11
5.1709311811023619
21
-3.8080914566929134
0
LINE
8
BLACK
6
CONTINUOUS
10
5.1709311811023619
20
-3.8080914566929134
11
5.1715188582677163
21
-3.8085845669291336
0
LINE
8
BLACK
6
CONTINUOUS
10
5.1715188582677163
20
-3.8085845669291336
11
5.1721831889763781
21
-3.808968149606299
0
LINE
8
BLACK
6
CONTINUOUS
10
5.1721831889763781
20
-3.808968149606299
11
5.1722742913385824
21
-3.8092184645669289
0
LINE
8
BLACK
6
CONTINUOUS
10
5.1722742913385824
20
-3.8092184645669289
11
5.1724784251968501
21
-3.8093897637795275
0
LINE
8
BLACK
6
CONTINUOUS
10
5.1724784251968501
20
-3.8093897637795275
11
5.1726116535433073
21
-3.8101453149606299
0
LINE
8
BLACK
6
CONTINUOUS
10
5.1726116535433073
20
-3.8101453149606299
11
5.1728740157480315
21
-3.8108661417322836
0
LINE
8
BLACK
6
CONTINUOUS
10
5.1728740157480315
20
-3.8108661417322836
11
5.1728740157480315
21
-3.8679527559055118
0
LINE
8
BLACK
6
CONTINUOUS
10
5.1728740157480315
20
-3.8679527559055118
11
5.1726959448818892
21
-3.8689626771653542
0
LINE
8
BLACK
6
CONTINUOUS
10
5.1726959448818892
20
-3.8689626771653542
11
5.1713976377952751
21
-3.8705099212598424
0
LINE
8
BLACK
6
CONTINUOUS
10
5.1713976377952751
20
-3.8705099212598424
11
5.1694085039370075
21
-3.8708606692913383
0
LINE
8
BLACK
6
CONTINUOUS
10
5.1694085039370075
20
-3.8708606692913383
11
5.1676593307086609
21
-3.8698507480314959
0
LINE
8
BLACK
6
CONTINUOUS
10
5.1676593307086609
20
-3.8698507480314959
11
5.1669685039370075
21
-3.8679527559055118
0
LINE
8
BLACK
6
CONTINUOUS
10
5.1669685039370075
20
-3.8679527559055118
11
5.1669685039370075
21
-3.8138188976377951
0
LINE
8
BLACK
6
CONTINUOUS
10
5.1669685039370075
20
-3.8138188976377951
11
5.0931496062992121
21
-3.8138188976377951
0
LINE
8
BLACK
6
CONTINUOUS
10
5.0931496062992121
20
-3.8138188976377951
11
5.0921396850393696
21
-3.8136408267716533
0
LINE
8
BLACK
6
CONTINUOUS
10
5.0921396850393696
20
-3.8136408267716533
11
5.0905924409448815
21
-3.8123425196850391
0
LINE
8
BLACK
6
CONTINUOUS
10
5.0905924409448815
20
-3.8123425196850391
11
5.090241692913386
21
-3.8103533858267715
0
LINE
8
BLACK
6
CONTINUOUS
10
5.090241692913386
20
-3.8103533858267715
11
5.0912516141732285
21
-3.808604212598425
0
LINE
8
BLACK
6
CONTINUOUS
10
5.0912516141732285
20
-3.808604212598425
11
5.0931496062992121
21
-3.8079133858267715
0
LINE
8
BLACK
6
CONTINUOUS
10
5.0931496062992121
20
-3.8079133858267715
11
5.1699212598425195
21
-3.8079133858267715
0
LINE
8
BLACK
6
CONTINUOUS
10
5.1699212598425195
20
-3.8079133858267715
11
5.1703047637795274
21
-3.8079809842519685
0
LINE
8
BLACK
6
CONTINUOUS
10
5.5077191732283461
20
-3.8582903149606298
11
5.5084110629921259
21
-3.8599606299212597
0
LINE
8
BLACK
6
CONTINUOUS
10
5.5084110629921259
20
-3.8599606299212597
11
5.5077191732283461
21
-3.8616309448818895
0
LINE
8
BLACK
6
CONTINUOUS
10
5.5077191732283461
20
-3.8616309448818895
11
5.5060488582677163
21
-3.8623228346456693
0
LINE
8
BLACK
6
CONTINUOUS
10
5.5060488582677163
20
-3.8623228346456693
11
5.4939511417322837
21
-3.8623228346456693
0
LINE
8
BLACK
6
CONTINUOUS
10
5.4939511417322837
20
-3.8623228346456693
11
5.4922808267716539
21
-3.8616309448818895
0
LINE
8
BLACK
6
CONTINUOUS
10
5.4922808267716539
20
-3.8616309448818895
11
5.4915889370078741
21
-3.8599606299212597
0
LINE
8
BLACK
6
CONTINUOUS
10
5.4915889370078741
20
-3.8599606299212597
11
5.4922808267716539
21
-3.8582903149606298
0
LINE
8
BLACK
6
CONTINUOUS
10
5.4922808267716539
20
-3.8582903149606298
11
5.4939511417322837
21
-3.8575984251968505
0
LINE
8
BLACK
6
CONTINUOUS
10
5.4939511417322837
20
-3.8575984251968505
11
5.5060488582677163
21
-3.8575984251968505
0
LINE
8
BLACK
6
CONTINUOUS
10
5.5060488582677163
20
-3.8575984251968505
11
5.5077191732283461
21
-3.8582903149606298
0
LINE
8
BLACK
6
CONTINUOUS
10
5.6277191732283462
20
-3.8582903149606298
11
5.628411062992126
21
-3.8599606299212597
0
LINE
8
BLACK
6
CONTINUOUS
10
5.628411062992126
20
-3.8599606299212597
11
5.6277191732283462
21
-3.8616309448818895
0
LINE
8
BLACK
6
CONTINUOUS
10
5.6277191732283462
20
-3.8616309448818895
11
5.6260488582677164
21
-3.8623228346456693
0
LINE
8
BLACK
6
CONTINUOUS
10
5.6260488582677164
20
-3.8623228346456693
11
5.6139511417322829
21
-3.8623228346456693
0
LINE
8
BLACK
6
CONTINUOUS
10
5.6139511417322829
20
-3.8623228346456693
11
5.6122808267716531
21
-3.8616309448818895
0
LINE
8
BLACK
6
CONTINUOUS
10
5.6122808267716531
20
-3.8616309448818895
11
5.6115889370078742
21
-3.8599606299212597
0
LINE
8
BLACK
6
CONTINUOUS
10
5.6115889370078742
20
-3.8599606299212597
11
5.6122808267716531
21
-3.8582903149606298
0
LINE
8
BLACK
6
CONTINUOUS
10
5.6122808267716531
20
-3.8582903149606298
11
5.6139511417322829
21
-3.8575984251968505
0
LINE
8
BLACK
6
CONTINUOUS
10
5.6139511417322829
20
-3.8575984251968505
11
5.6260488582677164
21
-3.8575984251968505
0
LINE
8
BLACK
6
CONTINUOUS
10
5.6260488582677164
20
-3.8575984251968505
11
5.6277191732283462
21
-3.8582903149606298
0
LINE
8
BLACK
6
CONTINUOUS
10
5.8044423228346451
20
-3.7419502362204722
11
5.8045715748031492
21
-3.7419274803149607
0
LINE
8
BLACK
6
CONTINUOUS
10
5.8045715748031492
20
-3.7419274803149607
11
5.8046851574803151
21
-3.7419930708661417
0
LINE
8
BLACK
6
CONTINUOUS
10
5.8046851574803151
20
-3.7419930708661417
11
5.8050687401574805
21
-3.742060708661417
0
LINE
8
BLACK
6
CONTINUOUS
10
5.8050687401574805
20
-3.742060708661417
11
5.8056564173228349
21
-3.7425538188976377
0
LINE
8
BLACK
6
CONTINUOUS
10
5.8056564173228349
20
-3.7425538188976377
11
5.8063207480314958
21
-3.7429374015748031
0
LINE
8
BLACK
6
CONTINUOUS
10
5.8063207480314958
20
-3.7429374015748031
11
5.806411850393701
21
-3.743187716535433
0
LINE
8
BLACK
6
CONTINUOUS
10
5.806411850393701
20
-3.743187716535433
11
5.8066159842519687
21
-3.7433590157480312
0
LINE
8
BLACK
6
CONTINUOUS
10
5.8066159842519687
20
-3.7433590157480312
11
5.806749212598425
21
-3.7441145669291336
0
LINE
8
BLACK
6
CONTINUOUS
10
5.806749212598425
20
-3.7441145669291336
11
5.8070115748031492
21
-3.7448353937007872
0
LINE
8
BLACK
6
CONTINUOUS
10
5.8070115748031492
20
-3.7448353937007872
11
5.8070115748031492
21
-3.7756299212598425
0
LINE
8
BLACK
6
CONTINUOUS
10
5.8070115748031492
20
-3.7756299212598425
11
5.8497637795275592
21
-3.7756299212598425
0
LINE
8
BLACK
6
CONTINUOUS
10
5.8497637795275592
20
-3.7756299212598425
11
5.8514340944881891
21
-3.7763218110236219
0
LINE
8
BLACK
6
CONTINUOUS
10
5.8514340944881891
20
-3.7763218110236219
11
5.8521259842519679
21
-3.7779921259842517
0
LINE
8
BLACK
6
CONTINUOUS
10
5.8521259842519679
20
-3.7779921259842517
11
5.8514340944881891
21
-3.779662440944882
0
LINE
8
BLACK
6
CONTINUOUS
10
5.8514340944881891
20
-3.779662440944882
11
5.8497637795275592
21
-3.7803543307086613
0
LINE
8
BLACK
6
CONTINUOUS
10
5.8497637795275592
20
-3.7803543307086613
11
5.8070115748031492
21
-3.7803543307086613
0
LINE
8
BLACK
6
CONTINUOUS
10
5.8070115748031492
20
-3.7803543307086613
11
5.8070115748031492
21
-3.7842054724409446
0
LINE
8
BLACK
6
CONTINUOUS
10
5.8070115748031492
20
-3.7842054724409446
11
5.8069439370078735
21
-3.7845889763779526
0
LINE
8
BLACK
6
CONTINUOUS
10
5.8069439370078735
20
-3.7845889763779526
11
5.8069667322834642
21
-3.7847182283464567
0
LINE
8
BLACK
6
CONTINUOUS
10
5.8069667322834642
20
-3.7847182283464567
11
5.8069011023622048
21
-3.7848318110236221
0
LINE
8
BLACK
6
CONTINUOUS
10
5.8069011023622048
20
-3.7848318110236221
11
5.8068335039370078
21
-3.7852153937007875
0
LINE
8
BLACK
6
CONTINUOUS
10
5.8068335039370078
20
-3.7852153937007875
11
5.8063403543307084
21
-3.7858030708661414
0
LINE
8
BLACK
6
CONTINUOUS
10
5.8063403543307084
20
-3.7858030708661414
11
5.8059568110236217
21
-3.7864674015748032
0
LINE
8
BLACK
6
CONTINUOUS
10
5.8059568110236217
20
-3.7864674015748032
11
5.8057064566929135
21
-3.786558503937008
0
LINE
8
BLACK
6
CONTINUOUS
10
5.8057064566929135
20
-3.786558503937008
11
5.8055351968503937
21
-3.7867626377952757
0
LINE
8
BLACK
6
CONTINUOUS
10
5.8055351968503937
20
-3.7867626377952757
11
5.8047796062992125
21
-3.786895866141732
0
LINE
8
BLACK
6
CONTINUOUS
10
5.8047796062992125
20
-3.786895866141732
11
5.8040588188976381
21
-3.7871582283464567
0
LINE
8
BLACK
6
CONTINUOUS
10
5.8040588188976381
20
-3.7871582283464567
11
5.7950393700787401
21
-3.7871582283464567
0
LINE
8
BLACK
6
CONTINUOUS
10
5.7950393700787401
20
-3.7871582283464567
11
5.7950393700787401
21
-3.8488582677165355
0
LINE
8
BLACK
6
CONTINUOUS
10
5.7950393700787401
20
-3.8488582677165355
11
5.7943474803149604
21
-3.8505285826771654
0
LINE
8
BLACK
6
CONTINUOUS
10
5.7943474803149604
20
-3.8505285826771654
11
5.7926771653543305
21
-3.8512204724409447
0
LINE
8
BLACK
6
CONTINUOUS
10
5.7926771653543305
20
-3.8512204724409447
11
5.7537007874015744
21
-3.8512204724409447
0
LINE
8
BLACK
6
CONTINUOUS
10
5.7537007874015744
20
-3.8512204724409447
11
5.7520304724409446
21
-3.8505285826771654
0
LINE
8
BLACK
6
CONTINUOUS
10
5.7520304724409446
20
-3.8505285826771654
11
5.7513385826771648
21
-3.8488582677165355
0
LINE
8
BLACK
6
CONTINUOUS
10
5.7513385826771648
20
-3.8488582677165355
11
5.7520304724409446
21
-3.8471879527559056
0
LINE
8
BLACK
6
CONTINUOUS
10
5.7520304724409446
20
-3.8471879527559056
11
5.7537007874015744
21
-3.8464960629921259
0
LINE
8
BLACK
6
CONTINUOUS
10
5.7537007874015744
20
-3.8464960629921259
11
5.7903149606299209
21
-3.8464960629921259
0
LINE
8
BLACK
6
CONTINUOUS
10
5.7903149606299209
20
-3.8464960629921259
11
5.7903149606299209
21
-3.7858612598425196
0
LINE
8
BLACK
6
CONTINUOUS
10
5.7903149606299209
20
-3.7858612598425196
11
5.7881269685039367
21
-3.7851319291338581
0
LINE
8
BLACK
6
CONTINUOUS
10
5.7881269685039367
20
-3.7851319291338581
11
5.7872251968503932
21
-3.7846436220472439
0
LINE
8
BLACK
6
CONTINUOUS
10
5.7872251968503932
20
-3.7846436220472439
11
5.78713279527559
21
-3.7844932283464567
0
LINE
8
BLACK
6
CONTINUOUS
10
5.78713279527559
20
-3.7844932283464567
11
5.7869727952755907
21
-3.784418622047244
0
LINE
8
BLACK
6
CONTINUOUS
10
5.7869727952755907
20
-3.784418622047244
11
5.7832232677165356
21
-3.7806690551181101
0
LINE
8
BLACK
6
CONTINUOUS
10
5.7832232677165356
20
-3.7806690551181101
11
5.782716850393701
21
-3.7799458661417322
0
LINE
8
BLACK
6
CONTINUOUS
10
5.782716850393701
20
-3.7799458661417322
11
5.7826701574803145
21
-3.7799016535433072
0
LINE
8
BLACK
6
CONTINUOUS
10
5.7826701574803145
20
-3.7799016535433072
11
5.780795393700787
21
-3.7761521259842521
0
LINE
8
BLACK
6
CONTINUOUS
10
5.780795393700787
20
-3.7761521259842521
11
5.7806500787401571
21
-3.7756636614173229
0
LINE
8
BLACK
6
CONTINUOUS
10
5.7806500787401571
20
-3.7756636614173229
11
5.7805718110236217
21
-3.7755477559055115
0
LINE
8
BLACK
6
CONTINUOUS
10
5.7805718110236217
20
-3.7755477559055115
11
5.7786970472440942
21
-3.7680487007874013
0
LINE
8
BLACK
6
CONTINUOUS
10
5.7786970472440942
20
-3.7680487007874013
11
5.7786555511811022
21
-3.7674607874015749
0
LINE
8
BLACK
6
CONTINUOUS
10
5.7786555511811022
20
-3.7674607874015749
11
5.7786088976377954
21
-3.7673325590551179
0
LINE
8
BLACK
6
CONTINUOUS
10
5.7786088976377954
20
-3.7673325590551179
11
5.7786088976377954
21
-3.7617082677165352
0
LINE
8
BLACK
6
CONTINUOUS
10
5.7786088976377954
20
-3.7617082677165352
11
5.7787112204724407
21
-3.7611278740157479
0
LINE
8
BLACK
6
CONTINUOUS
10
5.7787112204724407
20
-3.7611278740157479
11
5.7786970472440942
21
-3.7609921259842518
0
LINE
8
BLACK
6
CONTINUOUS
10
5.7786970472440942
20
-3.7609921259842518
11
5.7805718110236217
21
-3.7534930708661416
0
LINE
8
BLACK
6
CONTINUOUS
10
5.7805718110236217
20
-3.7534930708661416
11
5.78077937007874
21
-3.7530275984251968
0
LINE
8
BLACK
6
CONTINUOUS
10
5.78077937007874
20
-3.7530275984251968
11
5.780795393700787
21
-3.7528887007874014
0
LINE
8
BLACK
6
CONTINUOUS
10
5.780795393700787
20
-3.7528887007874014
11
5.7826701574803145
21
-3.7491391732283463
0
LINE
8
BLACK
6
CONTINUOUS
10
5.7826701574803145
20
-3.7491391732283463
11
5.7831960629921255
21
-3.7484300787401574
0
LINE
8
BLACK
6
CONTINUOUS
10
5.7831960629921255
20
-3.7484300787401574
11
5.7832232677165356
21
-3.7483717716535434
0
LINE
8
BLACK
6
CONTINUOUS
10
5.7832232677165356
20
-3.7483717716535434
11
5.7869727952755907
21
-3.7446222440944883
0
LINE
8
BLACK
6
CONTINUOUS
10
5.7869727952755907
20
-3.7446222440944883
11
5.7878128346456688
21
-3.7440340157480314
0
LINE
8
BLACK
6
CONTINUOUS
10
5.7878128346456688
20
-3.7440340157480314
11
5.7879887401574805
21
-3.744018622047244
0
LINE
8
BLACK
6
CONTINUOUS
10
5.7879887401574805
20
-3.744018622047244
11
5.7881269685039367
21
-3.7439089370078737
0
LINE
8
BLACK
6
CONTINUOUS
10
5.7881269685039367
20
-3.7439089370078737
11
5.7937512204724406
21
-3.7420341732283462
0
LINE
8
BLACK
6
CONTINUOUS
10
5.7937512204724406
20
-3.7420341732283462
11
5.7946244488188974
21
-3.7419046456692913
0
LINE
8
BLACK
6
CONTINUOUS
10
5.7946244488188974
20
-3.7419046456692913
11
5.7946850000000003
21
-3.7418826377952756
0
LINE
8
BLACK
6
CONTINUOUS
10
5.7946850000000003
20
-3.7418826377952756
11
5.8040588188976381
21
-3.7418826377952756
0
LINE
8
BLACK
6
CONTINUOUS
10
5.8040588188976381
20
-3.7418826377952756
11
5.8044423228346451
21
-3.7419502362204722
0
LINE
8
BLACK
6
CONTINUOUS
10
5.7950393700787401
20
-3.7803543307086613
11
5.7950393700787401
21
-3.7812111023622048
0
LINE
8
BLACK
6
CONTINUOUS
10
5.7950393700787401
20
-3.7812111023622048
11
5.7951641338582673
21
-3.781252716535433
0
LINE
8
BLACK
6
CONTINUOUS
10
5.7951641338582673
20
-3.781252716535433
11
5.8011060629921261
21
-3.781252716535433
0
LINE
8
BLACK
6
CONTINUOUS
10
5.8011060629921261
20
-3.781252716535433
11
5.8011060629921261
21
-3.7803543307086613
0
LINE
8
BLACK
6
CONTINUOUS
10
5.8011060629921261
20
-3.7803543307086613
11
5.7950393700787401
21
-3.7803543307086613
0
LINE
8
BLACK
6
CONTINUOUS
10
5.7906557480314955
20
-3.7492909448818899
11
5.7877379133858264
21
-3.7522087795275589
0
LINE
8
BLACK
6
CONTINUOUS
10
5.7877379133858264
20
-3.7522087795275589
11
5.7862224015748032
21
-3.7552397637795276
0
LINE
8
BLACK
6
CONTINUOUS
10
5.7862224015748032
20
-3.7552397637795276
11
5.7845144094488186
21
-3.7620718110236218
0
LINE
8
BLACK
6
CONTINUOUS
10
5.7845144094488186
20
-3.7620718110236218
11
5.7845144094488186
21
-3.7669690157480313
0
LINE
8
BLACK
6
CONTINUOUS
10
5.7845144094488186
20
-3.7669690157480313
11
5.7862224015748032
21
-3.7738010629921259
0
LINE
8
BLACK
6
CONTINUOUS
10
5.7862224015748032
20
-3.7738010629921259
11
5.7877379133858264
21
-3.7768320472440946
0
LINE
8
BLACK
6
CONTINUOUS
10
5.7877379133858264
20
-3.7768320472440946
11
5.7903149606299209
21
-3.7794090944881891
0
LINE
8
BLACK
6
CONTINUOUS
10
5.7903149606299209
20
-3.7794090944881891
11
5.7903149606299209
21
-3.7779921259842517
0
LINE
8
BLACK
6
CONTINUOUS
10
5.7903149606299209
20
-3.7779921259842517
11
5.7910068503937007
21
-3.7763218110236219
0
LINE
8
BLACK
6
CONTINUOUS
10
5.7910068503937007
20
-3.7763218110236219
11
5.7926771653543305
21
-3.7756299212598425
0
LINE
8
BLACK
6
CONTINUOUS
10
5.7926771653543305
20
-3.7756299212598425
11
5.8011060629921261
21
-3.7756299212598425
0
LINE
8
BLACK
6
CONTINUOUS
10
5.8011060629921261
20
-3.7756299212598425
11
5.8011060629921261
21
-3.7477881496062992
0
LINE
8
BLACK
6
CONTINUOUS
10
5.8011060629921261
20
-3.7477881496062992
11
5.7951641338582673
21
-3.7477881496062992
0
LINE
8
BLACK
6
CONTINUOUS
10
5.7951641338582673
20
-3.7477881496062992
11
5.7906557480314955
21
-3.7492909448818899
0
LINE
8
BLACK
6
CONTINUOUS
10
5.154074803149606
20
-3.8169164566929132
11
5.1575208267716537
21
-3.819807992125984
0
LINE
8
BLACK
6
CONTINUOUS
10
5.1575208267716537
20
-3.819807992125984
11
5.1597700393700787
21
-3.8237037401574803
0
LINE
8
BLACK
6
CONTINUOUS
10
5.1597700393700787
20
-3.8237037401574803
11
5.1605511811023623
21
-3.8281338582677162
0
LINE
8
BLACK
6
CONTINUOUS
10
5.1605511811023623
20
-3.8281338582677162
11
5.1597700393700787
21
-3.8325639763779527
0
LINE
8
BLACK
6
CONTINUOUS
10
5.1597700393700787
20
-3.8325639763779527
11
5.1575208267716537
21
-3.8364597244094489
0
LINE
8
BLACK
6
CONTINUOUS
10
5.1575208267716537
20
-3.8364597244094489
11
5.154074803149606
21
-3.8393512598425197
0
LINE
8
BLACK
6
CONTINUOUS
10
5.154074803149606
20
-3.8393512598425197
11
5.1498476377952755
21
-3.8408898425196849
0
LINE
8
BLACK
6
CONTINUOUS
10
5.1498476377952755
20
-3.8408898425196849
11
5.1453492125984255
21
-3.8408898425196849
0
LINE
8
BLACK
6
CONTINUOUS
10
5.1453492125984255
20
-3.8408898425196849
11
5.1411220472440942
21
-3.8393512598425197
0
LINE
8
BLACK
6
CONTINUOUS
10
5.1411220472440942
20
-3.8393512598425197
11
5.1376760236220473
21
-3.8364597244094489
0
LINE
8
BLACK
6
CONTINUOUS
10
5.1376760236220473
20
-3.8364597244094489
11
5.1354268110236223
21
-3.8325639763779527
0
LINE
8
BLACK
6
CONTINUOUS
10
5.1354268110236223
20
-3.8325639763779527
11
5.1346456692913387
21
-3.8281338582677162
0
LINE
8
BLACK
6
CONTINUOUS
10
5.1346456692913387
20
-3.8281338582677162
11
5.1354268110236223
21
-3.8237037401574803
0
LINE
8
BLACK
6
CONTINUOUS
10
5.1354268110236223
20
-3.8237037401574803
11
5.1376760236220473
21
-3.819807992125984
0
LINE
8
BLACK
6
CONTINUOUS
10
5.1376760236220473
20
-3.819807992125984
11
5.1411220472440942
21
-3.8169164566929132
0
LINE
8
BLACK
6
CONTINUOUS
10
5.1411220472440942
20
-3.8169164566929132
11
5.1453492125984255
21
-3.815377874015748
0
LINE
8
BLACK
6
CONTINUOUS
10
5.1453492125984255
20
-3.815377874015748
11
5.1498476377952755
21
-3.815377874015748
0
LINE
8
BLACK
6
CONTINUOUS
10
5.1498476377952755
20
-3.815377874015748
11
5.154074803149606
21
-3.8169164566929132
0
LINE
8
BLACK
6
CONTINUOUS
10
5.1410857874015745
20
-3.831270157480315
11
5.1430915354330704
21
-3.8337853149606298
0
LINE
8
BLACK
6
CONTINUOUS
10
5.1430915354330704
20
-3.8337853149606298
11
5.1459899212598428
21
-3.8351811023622044
0
LINE
8
BLACK
6
CONTINUOUS
10
5.1459899212598428
20
-3.8351811023622044
11
5.1492069291338582
21
-3.8351811023622044
0
LINE
8
BLACK
6
CONTINUOUS
10
5.1492069291338582
20
-3.8351811023622044
11
5.1521053149606297
21
-3.8337853149606298
0
LINE
8
BLACK
6
CONTINUOUS
10
5.1521053149606297
20
-3.8337853149606298
11
5.1541110629921256
21
-3.831270157480315
0
LINE
8
BLACK
6
CONTINUOUS
10
5.1541110629921256
20
-3.831270157480315
11
5.154826889763779
21
-3.8281338582677162
0
LINE
8
BLACK
6
CONTINUOUS
10
5.154826889763779
20
-3.8281338582677162
11
5.1541110629921256
21
-3.824997559055118
0
LINE
8
BLACK
6
CONTINUOUS
10
5.1541110629921256
20
-3.824997559055118
11
5.1521053149606297
21
-3.8224824015748031
0
LINE
8
BLACK
6
CONTINUOUS
10
5.1521053149606297
20
-3.8224824015748031
11
5.1492069291338582
21
-3.8210866141732285
0
LINE
8
BLACK
6
CONTINUOUS
10
5.1492069291338582
20
-3.8210866141732285
11
5.1459899212598428
21
-3.8210866141732285
0
LINE
8
BLACK
6
CONTINUOUS
10
5.1459899212598428
20
-3.8210866141732285
11
5.1430915354330704
21
-3.8224824015748031
0
LINE
8
BLACK
6
CONTINUOUS
10
5.1430915354330704
20
-3.8224824015748031
11
5.1410857874015745
21
-3.824997559055118
0
LINE
8
BLACK
6
CONTINUOUS
10
5.1410857874015745
20
-3.824997559055118
11
5.1403699606299211
21
-3.8281338582677162
0
LINE
8
BLACK
6
CONTINUOUS
10
5.1403699606299211
20
-3.8281338582677162
11
5.1410857874015745
21
-3.831270157480315
0
LINE
8
BLACK
6
CONTINUOUS
10
5.4124970866141728
20
-3.8251865354330707
11
5.4131889763779526
21
-3.8268568503937006
0
LINE
8
BLACK
6
CONTINUOUS
10
5.4131889763779526
20
-3.8268568503937006
11
5.4131889763779526
21
-3.8353478740157478
0
LINE
8
BLACK
6
CONTINUOUS
10
5.4131889763779526
20
-3.8353478740157478
11
5.4124970866141728
21
-3.8370181889763777
0
LINE
8
BLACK
6
CONTINUOUS
10
5.4124970866141728
20
-3.8370181889763777
11
5.410826771653543
21
-3.8377100787401575
0
LINE
8
BLACK
6
CONTINUOUS
10
5.410826771653543
20
-3.8377100787401575
11
5.4091564566929131
21
-3.8370181889763777
0
LINE
8
BLACK
6
CONTINUOUS
10
5.4091564566929131
20
-3.8370181889763777
11
5.4084645669291334
21
-3.8353478740157478
0
LINE
8
BLACK
6
CONTINUOUS
10
5.4084645669291334
20
-3.8353478740157478
11
5.4084645669291334
21
-3.8268568503937006
0
LINE
8
BLACK
6
CONTINUOUS
10
5.4084645669291334
20
-3.8268568503937006
11
5.4091564566929131
21
-3.8251865354330707
0
LINE
8
BLACK
6
CONTINUOUS
10
5.4091564566929131
20
-3.8251865354330707
11
5.410826771653543
21
-3.8244946456692914
0
LINE
8
BLACK
6
CONTINUOUS
10
5.410826771653543
20
-3.8244946456692914
11
5.4124970866141728
21
-3.8251865354330707
0
LINE
8
BLACK
6
CONTINUOUS
10
5.4408435433070865
20
-3.8251865354330707
11
5.4415354330708663
21
-3.8268568503937006
0
LINE
8
BLACK
6
CONTINUOUS
10
5.4415354330708663
20
-3.8268568503937006
11
5.4415354330708663
21
-3.8353478740157478
0
LINE
8
BLACK
6
CONTINUOUS
10
5.4415354330708663
20
-3.8353478740157478
11
5.4408435433070865
21
-3.8370181889763777
0
LINE
8
BLACK
6
CONTINUOUS
10
5.4408435433070865
20
-3.8370181889763777
11
5.4391732283464567
21
-3.8377100787401575
0
LINE
8
BLACK
6
CONTINUOUS
10
5.4391732283464567
20
-3.8377100787401575
11
5.4375029133858268
21
-3.8370181889763777
0
LINE
8
BLACK
6
CONTINUOUS
10
5.4375029133858268
20
-3.8370181889763777
11
5.436811023622047
21
-3.8353478740157478
0
LINE
8
BLACK
6
CONTINUOUS
10
5.436811023622047
20
-3.8353478740157478
11
5.436811023622047
21
-3.8268568503937006
0
LINE
8
BLACK
6
CONTINUOUS
10
5.436811023622047
20
-3.8268568503937006
11
5.4375029133858268
21
-3.8251865354330707
0
LINE
8
BLACK
6
CONTINUOUS
10
5.4375029133858268
20
-3.8251865354330707
11
5.4391732283464567
21
-3.8244946456692914
0
LINE
8
BLACK
6
CONTINUOUS
10
5.4391732283464567
20
-3.8244946456692914
11
5.4408435433070865
21
-3.8251865354330707
0
LINE
8
BLACK
6
CONTINUOUS
10
5.6754729527559054
20
-3.8074688976377953
11
5.6756075196850393
21
-3.8074571653543305
0
LINE
8
BLACK
6
CONTINUOUS
10
5.6756075196850393
20
-3.8074571653543305
11
5.6763356692913387
21
-3.8079670078740158
0
LINE
8
BLACK
6
CONTINUOUS
10
5.6763356692913387
20
-3.8079670078740158
11
5.6771051968503938
21
-3.808411338582677
0
LINE
8
BLACK
6
CONTINUOUS
10
5.6771051968503938
20
-3.808411338582677
11
5.6771513385826768
21
-3.8085381889763781
0
LINE
8
BLACK
6
CONTINUOUS
10
5.6771513385826768
20
-3.8085381889763781
11
5.6772620472440947
21
-3.8086157086614172
0
LINE
8
BLACK
6
CONTINUOUS
10
5.6772620472440947
20
-3.8086157086614172
11
5.677492047244094
21
-3.8094742125984249
0
LINE
8
BLACK
6
CONTINUOUS
10
5.677492047244094
20
-3.8094742125984249
11
5.6777960236220473
21
-3.8103093307086615
0
LINE
8
BLACK
6
CONTINUOUS
10
5.6777960236220473
20
-3.8103093307086615
11
5.6777960236220473
21
-3.8346812598425197
0
LINE
8
BLACK
6
CONTINUOUS
10
5.6777960236220473
20
-3.8346812598425197
11
5.677617952755905
21
-3.8356911811023622
0
LINE
8
BLACK
6
CONTINUOUS
10
5.677617952755905
20
-3.8356911811023622
11
5.6763196456692908
21
-3.8372384251968503
0
LINE
8
BLACK
6
CONTINUOUS
10
5.6763196456692908
20
-3.8372384251968503
11
5.6743305118110232
21
-3.8375891732283463
0
LINE
8
BLACK
6
CONTINUOUS
10
5.6743305118110232
20
-3.8375891732283463
11
5.6725813385826767
21
-3.8365792519685038
0
LINE
8
BLACK
6
CONTINUOUS
10
5.6725813385826767
20
-3.8365792519685038
11
5.6718905118110232
21
-3.8346812598425197
0
LINE
8
BLACK
6
CONTINUOUS
10
5.6718905118110232
20
-3.8346812598425197
11
5.6718905118110232
21
-3.8174378740157477
0
LINE
8
BLACK
6
CONTINUOUS
10
5.6718905118110232
20
-3.8174378740157477
11
5.6544339763779528
21
-3.8348944094488187
0
LINE
8
BLACK
6
CONTINUOUS
10
5.6544339763779528
20
-3.8348944094488187
11
5.6535939370078738
21
-3.8354825984251968
0
LINE
8
BLACK
6
CONTINUOUS
10
5.6535939370078738
20
-3.8354825984251968
11
5.6534180708661417
21
-3.8354979527559054
0
LINE
8
BLACK
6
CONTINUOUS
10
5.6534180708661417
20
-3.8354979527559054
11
5.6532798031496059
21
-3.8356077165354332
0
LINE
8
BLACK
6
CONTINUOUS
10
5.6532798031496059
20
-3.8356077165354332
11
5.6476555118110232
21
-3.8374824803149608
0
LINE
8
BLACK
6
CONTINUOUS
10
5.6476555118110232
20
-3.8374824803149608
11
5.6467823228346452
21
-3.8376119291338582
0
LINE
8
BLACK
6
CONTINUOUS
10
5.6467823228346452
20
-3.8376119291338582
11
5.6467217716535432
21
-3.8376340157480313
0
LINE
8
BLACK
6
CONTINUOUS
10
5.6467217716535432
20
-3.8376340157480313
11
5.6429722440944881
21
-3.8376340157480313
0
LINE
8
BLACK
6
CONTINUOUS
10
5.6429722440944881
20
-3.8376340157480313
11
5.6419623228346456
21
-3.8374559448818895
0
LINE
8
BLACK
6
CONTINUOUS
10
5.6419623228346456
20
-3.8374559448818895
11
5.6418270472440941
21
-3.837342440944882
0
LINE
8
BLACK
6
CONTINUOUS
10
5.6418270472440941
20
-3.837342440944882
11
5.6416517322834645
21
-3.8373222834645668
0
LINE
8
BLACK
6
CONTINUOUS
10
5.6416517322834645
20
-3.8373222834645668
11
5.6379022047244094
21
-3.8354475196850393
0
LINE
8
BLACK
6
CONTINUOUS
10
5.6379022047244094
20
-3.8354475196850393
11
5.6371931102362201
21
-3.8349216141732283
0
LINE
8
BLACK
6
CONTINUOUS
10
5.6371931102362201
20
-3.8349216141732283
11
5.637134803149606
21
-3.8348944094488187
0
LINE
8
BLACK
6
CONTINUOUS
10
5.637134803149606
20
-3.8348944094488187
11
5.6352600393700785
21
-3.8330196456692911
0
LINE
8
BLACK
6
CONTINUOUS
10
5.6352600393700785
20
-3.8330196456692911
11
5.6347537401574801
21
-3.8322965354330707
0
LINE
8
BLACK
6
CONTINUOUS
10
5.6347537401574801
20
-3.8322965354330707
11
5.6347069291338583
21
-3.8322522440944882
0
LINE
8
BLACK
6
CONTINUOUS
10
5.6347069291338583
20
-3.8322522440944882
11
5.6328321653543307
21
-3.8285027165354331
0
LINE
8
BLACK
6
CONTINUOUS
10
5.6328321653543307
20
-3.8285027165354331
11
5.6325398031496059
21
-3.8275197637795273
0
LINE
8
BLACK
6
CONTINUOUS
10
5.6325398031496059
20
-3.8275197637795273
11
5.632580787401575
21
-3.8273480708661416
0
LINE
8
BLACK
6
CONTINUOUS
10
5.632580787401575
20
-3.8273480708661416
11
5.6325204330708658
21
-3.8271822047244095
0
LINE
8
BLACK
6
CONTINUOUS
10
5.6325204330708658
20
-3.8271822047244095
11
5.6325204330708658
21
-3.8178083858267717
0
LINE
8
BLACK
6
CONTINUOUS
10
5.6325204330708658
20
-3.8178083858267717
11
5.6326985039370081
21
-3.8167984645669288
0
LINE
8
BLACK
6
CONTINUOUS
10
5.6326985039370081
20
-3.8167984645669288
11
5.6328119685039368
21
-3.8166631889763778
0
LINE
8
BLACK
6
CONTINUOUS
10
5.6328119685039368
20
-3.8166631889763778
11
5.6328321653543307
21
-3.8164878740157477
0
LINE
8
BLACK
6
CONTINUOUS
10
5.6328321653543307
20
-3.8164878740157477
11
5.6347069291338583
21
-3.8127383464566926
0
LINE
8
BLACK
6
CONTINUOUS
10
5.6347069291338583
20
-3.8127383464566926
11
5.6352328346456693
21
-3.8120292519685037
0
LINE
8
BLACK
6
CONTINUOUS
10
5.6352328346456693
20
-3.8120292519685037
11
5.6352600393700785
21
-3.8119709448818897
0
LINE
8
BLACK
6
CONTINUOUS
10
5.6352600393700785
20
-3.8119709448818897
11
5.637134803149606
21
-3.8100961811023621
0
LINE
8
BLACK
6
CONTINUOUS
10
5.637134803149606
20
-3.8100961811023621
11
5.6379748425196849
21
-3.809507992125984
0
LINE
8
BLACK
6
CONTINUOUS
10
5.6379748425196849
20
-3.809507992125984
11
5.6399869291338582
21
-3.8093319685039368
0
LINE
8
BLACK
6
CONTINUOUS
10
5.6399869291338582
20
-3.8093319685039368
11
5.6416414960629924
21
-3.8104904724409447
0
LINE
8
BLACK
6
CONTINUOUS
10
5.6416414960629924
20
-3.8104904724409447
11
5.6421642125984253
21
-3.8124414566929135
0
LINE
8
BLACK
6
CONTINUOUS
10
5.6421642125984253
20
-3.8124414566929135
11
5.6413106299212599
21
-3.8142720078740155
0
LINE
8
BLACK
6
CONTINUOUS
10
5.6413106299212599
20
-3.8142720078740155
11
5.6397746850393702
21
-3.8158079527559052
0
LINE
8
BLACK
6
CONTINUOUS
10
5.6397746850393702
20
-3.8158079527559052
11
5.6384259448818899
21
-3.8185054330708659
0
LINE
8
BLACK
6
CONTINUOUS
10
5.6384259448818899
20
-3.8185054330708659
11
5.6384259448818899
21
-3.8264851574803149
0
LINE
8
BLACK
6
CONTINUOUS
10
5.6384259448818899
20
-3.8264851574803149
11
5.6397746850393702
21
-3.8291826377952756
0
LINE
8
BLACK
6
CONTINUOUS
10
5.6397746850393702
20
-3.8291826377952756
11
5.640971811023622
21
-3.8303797637795274
0
LINE
8
BLACK
6
CONTINUOUS
10
5.640971811023622
20
-3.8303797637795274
11
5.6436692913385826
21
-3.8317285039370077
0
LINE
8
BLACK
6
CONTINUOUS
10
5.6436692913385826
20
-3.8317285039370077
11
5.6462426377952752
21
-3.8317285039370077
0
LINE
8
BLACK
6
CONTINUOUS
10
5.6462426377952752
20
-3.8317285039370077
11
5.6507510236220471
21
-3.8302256692913383
0
LINE
8
BLACK
6
CONTINUOUS
10
5.6507510236220471
20
-3.8302256692913383
11
5.6727553543307083
21
-3.8082214173228346
0
LINE
8
BLACK
6
CONTINUOUS
10
5.6727553543307083
20
-3.8082214173228346
11
5.6732833858267719
21
-3.8078516141732281
0
LINE
8
BLACK
6
CONTINUOUS
10
5.6732833858267719
20
-3.8078516141732281
11
5.6733668897637797
21
-3.8077521653543305
0
LINE
8
BLACK
6
CONTINUOUS
10
5.6733668897637797
20
-3.8077521653543305
11
5.6734451968503938
21
-3.8077383464566927
0
LINE
8
BLACK
6
CONTINUOUS
10
5.6734451968503938
20
-3.8077383464566927
11
5.6735953937007872
21
-3.8076331889763777
0
LINE
8
BLACK
6
CONTINUOUS
10
5.6735953937007872
20
-3.8076331889763777
11
5.67448094488189
21
-3.8075557086614173
0
LINE
8
BLACK
6
CONTINUOUS
10
5.67448094488189
20
-3.8075557086614173
11
5.6753560236220473
21
-3.8074014173228345
0
LINE
8
BLACK
6
CONTINUOUS
10
5.6753560236220473
20
-3.8074014173228345
11
5.6754729527559054
21
-3.8074688976377953
0
LINE
8
BLACK
6
CONTINUOUS
10
5.5077191732283461
20
-3.82836905511811
11
5.5084110629921259
21
-3.8300393700787403
0
LINE
8
BLACK
6
CONTINUOUS
10
5.5084110629921259
20
-3.8300393700787403
11
5.5077191732283461
21
-3.8317096850393702
0
LINE
8
BLACK
6
CONTINUOUS
10
5.5077191732283461
20
-3.8317096850393702
11
5.5060488582677163
21
-3.8324015748031495
0
LINE
8
BLACK
6
CONTINUOUS
10
5.5060488582677163
20
-3.8324015748031495
11
5.4939511417322837
21
-3.8324015748031495
0
LINE
8
BLACK
6
CONTINUOUS
10
5.4939511417322837
20
-3.8324015748031495
11
5.4922808267716539
21
-3.8317096850393702
0
LINE
8
BLACK
6
CONTINUOUS
10
5.4922808267716539
20
-3.8317096850393702
11
5.4915889370078741
21
-3.8300393700787403
0
LINE
8
BLACK
6
CONTINUOUS
10
5.4915889370078741
20
-3.8300393700787403
11
5.4922808267716539
21
-3.82836905511811
0
LINE
8
BLACK
6
CONTINUOUS
10
5.4922808267716539
20
-3.82836905511811
11
5.4939511417322837
21
-3.8276771653543307
0
LINE
8
BLACK
6
CONTINUOUS
10
5.4939511417322837
20
-3.8276771653543307
11
5.5060488582677163
21
-3.8276771653543307
0
LINE
8
BLACK
6
CONTINUOUS
10
5.5060488582677163
20
-3.8276771653543307
11
5.5077191732283461
21
-3.82836905511811
0
LINE
8
BLACK
6
CONTINUOUS
10
5.6277191732283462
20
-3.82836905511811
11
5.628411062992126
21
-3.8300393700787403
0
LINE
8
BLACK
6
CONTINUOUS
10
5.628411062992126
20
-3.8300393700787403
11
5.6277191732283462
21
-3.8317096850393702
0
LINE
8
BLACK
6
CONTINUOUS
10
5.6277191732283462
20
-3.8317096850393702
11
5.6260488582677164
21
-3.8324015748031495
0
LINE
8
BLACK
6
CONTINUOUS
10
5.6260488582677164
20
-3.8324015748031495
11
5.6139511417322829
21
-3.8324015748031495
0
LINE
8
BLACK
6
CONTINUOUS
10
5.6139511417322829
20
-3.8324015748031495
11
5.6122808267716531
21
-3.8317096850393702
0
LINE
8
BLACK
6
CONTINUOUS
10
5.6122808267716531
20
-3.8317096850393702
11
5.6115889370078742
21
-3.8300393700787403
0
LINE
8
BLACK
6
CONTINUOUS
10
5.6115889370078742
20
-3.8300393700787403
11
5.6122808267716531
21
-3.82836905511811
0
LINE
8
BLACK
6
CONTINUOUS
10
5.6122808267716531
20
-3.82836905511811
11
5.6139511417322829
21
-3.8276771653543307
0
LINE
8
BLACK
6
CONTINUOUS
10
5.6139511417322829
20
-3.8276771653543307
11
5.6260488582677164
21
-3.8276771653543307
0
LINE
8
BLACK
6
CONTINUOUS
10
5.6260488582677164
20
-3.8276771653543307
11
5.6277191732283462
21
-3.82836905511811
0
LINE
8
BLACK
6
CONTINUOUS
10
5.2637658267716532
20
-3.7992331889763777
11
5.2653130708661413
21
-3.8005314960629919
0
LINE
8
BLACK
6
CONTINUOUS
10
5.2653130708661413
20
-3.8005314960629919
11
5.2656638188976377
21
-3.8025206299212599
0
LINE
8
BLACK
6
CONTINUOUS
10
5.2656638188976377
20
-3.8025206299212599
11
5.2646538976377952
21
-3.8042698031496061
0
LINE
8
BLACK
6
CONTINUOUS
10
5.2646538976377952
20
-3.8042698031496061
11
5.2627559055118107
21
-3.8049606299212599
0
LINE
8
BLACK
6
CONTINUOUS
10
5.2627559055118107
20
-3.8049606299212599
11
5.2499606299212598
21
-3.8049606299212599
0
LINE
8
BLACK
6
CONTINUOUS
10
5.2499606299212598
20
-3.8049606299212599
11
5.2499606299212598
21
-3.8177559055118109
0
LINE
8
BLACK
6
CONTINUOUS
10
5.2499606299212598
20
-3.8177559055118109
11
5.2497825590551184
21
-3.8187658267716533
0
LINE
8
BLACK
6
CONTINUOUS
10
5.2497825590551184
20
-3.8187658267716533
11
5.2484842519685042
21
-3.8203130708661415
0
LINE
8
BLACK
6
CONTINUOUS
10
5.2484842519685042
20
-3.8203130708661415
11
5.2464951181102357
21
-3.8206638188976378
0
LINE
8
BLACK
6
CONTINUOUS
10
5.2464951181102357
20
-3.8206638188976378
11
5.2447459448818901
21
-3.8196538976377954
0
LINE
8
BLACK
6
CONTINUOUS
10
5.2447459448818901
20
-3.8196538976377954
11
5.2440551181102357
21
-3.8177559055118109
0
LINE
8
BLACK
6
CONTINUOUS
10
5.2440551181102357
20
-3.8177559055118109
11
5.2440551181102357
21
-3.8020078740157479
0
LINE
8
BLACK
6
CONTINUOUS
10
5.2440551181102357
20
-3.8020078740157479
11
5.2441227165354327
21
-3.8016243307086612
0
LINE
8
BLACK
6
CONTINUOUS
10
5.2441227165354327
20
-3.8016243307086612
11
5.2440999606299208
21
-3.8014951181102363
0
LINE
8
BLACK
6
CONTINUOUS
10
5.2440999606299208
20
-3.8014951181102363
11
5.2441655511811023
21
-3.8013814960629921
0
LINE
8
BLACK
6
CONTINUOUS
10
5.2441655511811023
20
-3.8013814960629921
11
5.244233188976378
21
-3.8009979527559055
0
LINE
8
BLACK
6
CONTINUOUS
10
5.244233188976378
20
-3.8009979527559055
11
5.2447262992125987
21
-3.8004102362204724
0
LINE
8
BLACK
6
CONTINUOUS
10
5.2447262992125987
20
-3.8004102362204724
11
5.2451098818897632
21
-3.7997459448818898
0
LINE
8
BLACK
6
CONTINUOUS
10
5.2451098818897632
20
-3.7997459448818898
11
5.2453601968503936
21
-3.7996548031496062
0
LINE
8
BLACK
6
CONTINUOUS
10
5.2453601968503936
20
-3.7996548031496062
11
5.2455314960629922
21
-3.7994507086614173
0
LINE
8
BLACK
6
CONTINUOUS
10
5.2455314960629922
20
-3.7994507086614173
11
5.2462870472440946
21
-3.7993174409448818
0
LINE
8
BLACK
6
CONTINUOUS
10
5.2462870472440946
20
-3.7993174409448818
11
5.2470078740157478
21
-3.7990551181102363
0
LINE
8
BLACK
6
CONTINUOUS
10
5.2470078740157478
20
-3.7990551181102363
11
5.2627559055118107
21
-3.7990551181102363
0
LINE
8
BLACK
6
CONTINUOUS
10
5.2627559055118107
20
-3.7990551181102363
11
5.2637658267716532
21
-3.7992331889763777
0
LINE
8
BLACK
6
CONTINUOUS
10
5.3733756299212594
20
-3.7991227165354329
11
5.3735048818897635
21
-3.7990999606299214
0
LINE
8
BLACK
6
CONTINUOUS
10
5.3735048818897635
20
-3.7990999606299214
11
5.3736184645669294
21
-3.7991655511811024
0
LINE
8
BLACK
6
CONTINUOUS
10
5.3736184645669294
20
-3.7991655511811024
11
5.3740020472440948
21
-3.7992331889763777
0
LINE
8
BLACK
6
CONTINUOUS
10
5.3740020472440948
20
-3.7992331889763777
11
5.3745897244094483
21
-3.7997262992125984
0
LINE
8
BLACK
6
CONTINUOUS
10
5.3745897244094483
20
-3.7997262992125984
11
5.3752540551181101
21
-3.8001098818897638
0
LINE
8
BLACK
6
CONTINUOUS
10
5.3752540551181101
20
-3.8001098818897638
11
5.3753451574803153
21
-3.8003601968503937
0
LINE
8
BLACK
6
CONTINUOUS
10
5.3753451574803153
20
-3.8003601968503937
11
5.3755492913385829
21
-3.8005314960629919
0
LINE
8
BLACK
6
CONTINUOUS
10
5.3755492913385829
20
-3.8005314960629919
11
5.3756825196850393
21
-3.8012870472440943
0
LINE
8
BLACK
6
CONTINUOUS
10
5.3756825196850393
20
-3.8012870472440943
11
5.3759448818897635
21
-3.8020078740157479
0
LINE
8
BLACK
6
CONTINUOUS
10
5.3759448818897635
20
-3.8020078740157479
11
5.3759448818897635
21
-3.8177559055118109
0
LINE
8
BLACK
6
CONTINUOUS
10
5.3759448818897635
20
-3.8177559055118109
11
5.3757668110236221
21
-3.8187658267716533
0
LINE
8
BLACK
6
CONTINUOUS
10
5.3757668110236221
20
-3.8187658267716533
11
5.3744685039370079
21
-3.8203130708661415
0
LINE
8
BLACK
6
CONTINUOUS
10
5.3744685039370079
20
-3.8203130708661415
11
5.3724793700787403
21
-3.8206638188976378
0
LINE
8
BLACK
6
CONTINUOUS
10
5.3724793700787403
20
-3.8206638188976378
11
5.3707301968503938
21
-3.8196538976377954
0
LINE
8
BLACK
6
CONTINUOUS
10
5.3707301968503938
20
-3.8196538976377954
11
5.3700393700787403
21
-3.8177559055118109
0
LINE
8
BLACK
6
CONTINUOUS
10
5.3700393700787403
20
-3.8177559055118109
11
5.3700393700787403
21
-3.8049606299212599
0
LINE
8
BLACK
6
CONTINUOUS
10
5.3700393700787403
20
-3.8049606299212599
11
5.3572440944881885
21
-3.8049606299212599
0
LINE
8
BLACK
6
CONTINUOUS
10
5.3572440944881885
20
-3.8049606299212599
11
5.3562341732283461
21
-3.8047825590551181
0
LINE
8
BLACK
6
CONTINUOUS
10
5.3562341732283461
20
-3.8047825590551181
11
5.3546869291338579
21
-3.8034842519685039
0
LINE
8
BLACK
6
CONTINUOUS
10
5.3546869291338579
20
-3.8034842519685039
11
5.3543361811023624
21
-3.8014951181102363
0
LINE
8
BLACK
6
CONTINUOUS
10
5.3543361811023624
20
-3.8014951181102363
11
5.3553461023622049
21
-3.7997459448818898
0
LINE
8
BLACK
6
CONTINUOUS
10
5.3553461023622049
20
-3.7997459448818898
11
5.3572440944881885
21
-3.7990551181102363
0
LINE
8
BLACK
6
CONTINUOUS
10
5.3572440944881885
20
-3.7990551181102363
11
5.3729921259842515
21
-3.7990551181102363
0
LINE
8
BLACK
6
CONTINUOUS
10
5.3729921259842515
20
-3.7990551181102363
11
5.3733756299212594
21
-3.7991227165354329
0
LINE
8
BLACK
6
CONTINUOUS
10
5.6484808661417318
20
-3.7723172047244096
11
5.6495937007874018
21
-3.7740027559055118
0
LINE
8
BLACK
6
CONTINUOUS
10
5.6495937007874018
20
-3.7740027559055118
11
5.6493627952755903
21
-3.7760092913385828
0
LINE
8
BLACK
6
CONTINUOUS
10
5.6493627952755903
20
-3.7760092913385828
11
5.6474880314960627
21
-3.7797588188976379
0
LINE
8
BLACK
6
CONTINUOUS
10
5.6474880314960627
20
-3.7797588188976379
11
5.646962086614173
21
-3.780467874015748
0
LINE
8
BLACK
6
CONTINUOUS
10
5.646962086614173
20
-3.780467874015748
11
5.6469349212598425
21
-3.7805262204724408
0
LINE
8
BLACK
6
CONTINUOUS
10
5.6469349212598425
20
-3.7805262204724408
11
5.6444765354330704
21
-3.7829846062992125
0
LINE
8
BLACK
6
CONTINUOUS
10
5.6444765354330704
20
-3.7829846062992125
11
5.6718905118110232
21
-3.7829846062992125
0
LINE
8
BLACK
6
CONTINUOUS
10
5.6718905118110232
20
-3.7829846062992125
11
5.6718905118110232
21
-3.7746887795275588
0
LINE
8
BLACK
6
CONTINUOUS
10
5.6718905118110232
20
-3.7746887795275588
11
5.6720685826771655
21
-3.7736788582677163
0
LINE
8
BLACK
6
CONTINUOUS
10
5.6720685826771655
20
-3.7736788582677163
11
5.6733668897637797
21
-3.7721316141732282
0
LINE
8
BLACK
6
CONTINUOUS
10
5.6733668897637797
20
-3.7721316141732282
11
5.6753560236220473
21
-3.7717808661417322
0
LINE
8
BLACK
6
CONTINUOUS
10
5.6753560236220473
20
-3.7717808661417322
11
5.6771051968503938
21
-3.7727907874015747
0
LINE
8
BLACK
6
CONTINUOUS
10
5.6771051968503938
20
-3.7727907874015747
11
5.6777960236220473
21
-3.7746887795275588
0
LINE
8
BLACK
6
CONTINUOUS
10
5.6777960236220473
20
-3.7746887795275588
11
5.6777960236220473
21
-3.7971859448818899
0
LINE
8
BLACK
6
CONTINUOUS
10
5.6777960236220473
20
-3.7971859448818899
11
5.677617952755905
21
-3.7981958661417323
0
LINE
8
BLACK
6
CONTINUOUS
10
5.677617952755905
20
-3.7981958661417323
11
5.6763196456692908
21
-3.7997431102362205
0
LINE
8
BLACK
6
CONTINUOUS
10
5.6763196456692908
20
-3.7997431102362205
11
5.6743305118110232
21
-3.8000938582677164
0
LINE
8
BLACK
6
CONTINUOUS
10
5.6743305118110232
20
-3.8000938582677164
11
5.6725813385826767
21
-3.7990839370078739
0
LINE
8
BLACK
6
CONTINUOUS
10
5.6725813385826767
20
-3.7990839370078739
11
5.6718905118110232
21
-3.7971859448818899
0
LINE
8
BLACK
6
CONTINUOUS
10
5.6718905118110232
20
-3.7971859448818899
11
5.6718905118110232
21
-3.7888901181102361
0
LINE
8
BLACK
6
CONTINUOUS
10
5.6718905118110232
20
-3.7888901181102361
11
5.6354731889763778
21
-3.7888901181102361
0
LINE
8
BLACK
6
CONTINUOUS
10
5.6354731889763778
20
-3.7888901181102361
11
5.6344632677165354
21
-3.7887120472440943
0
LINE
8
BLACK
6
CONTINUOUS
10
5.6344632677165354
20
-3.7887120472440943
11
5.6343331889763775
21
-3.7886029133858266
0
LINE
8
BLACK
6
CONTINUOUS
10
5.6343331889763775
20
-3.7886029133858266
11
5.6341644488188978
21
-3.788584251968504
0
LINE
8
BLACK
6
CONTINUOUS
10
5.6341644488188978
20
-3.788584251968504
11
5.633572519685039
21
-3.7879646062992127
0
LINE
8
BLACK
6
CONTINUOUS
10
5.633572519685039
20
-3.7879646062992127
11
5.6329160236220472
21
-3.7874137401574801
0
LINE
8
BLACK
6
CONTINUOUS
10
5.6329160236220472
20
-3.7874137401574801
11
5.6328865354330704
21
-3.7872464960629921
0
LINE
8
BLACK
6
CONTINUOUS
10
5.6328865354330704
20
-3.7872464960629921
11
5.6327692519685035
21
-3.7871237401574804
0
LINE
8
BLACK
6
CONTINUOUS
10
5.6327692519685035
20
-3.7871237401574804
11
5.6327140944881888
21
-3.7862685826771654
0
LINE
8
BLACK
6
CONTINUOUS
10
5.6327140944881888
20
-3.7862685826771654
11
5.6325652755905509
21
-3.7854246062992125
0
LINE
8
BLACK
6
CONTINUOUS
10
5.6325652755905509
20
-3.7854246062992125
11
5.6326501574803149
21
-3.7852775196850392
0
LINE
8
BLACK
6
CONTINUOUS
10
5.6326501574803149
20
-3.7852775196850392
11
5.632639251968504
21
-3.785108149606299
0
LINE
8
BLACK
6
CONTINUOUS
10
5.632639251968504
20
-3.785108149606299
11
5.6331466929133853
21
-3.7844175196850394
0
LINE
8
BLACK
6
CONTINUOUS
10
5.6331466929133853
20
-3.7844175196850394
11
5.6335751968503933
21
-3.783675433070866
0
LINE
8
BLACK
6
CONTINUOUS
10
5.6335751968503933
20
-3.783675433070866
11
5.6337346850393697
21
-3.7836173622047244
0
LINE
8
BLACK
6
CONTINUOUS
10
5.6337346850393697
20
-3.7836173622047244
11
5.6338352755905508
21
-3.7834805118110237
0
LINE
8
BLACK
6
CONTINUOUS
10
5.6338352755905508
20
-3.7834805118110237
11
5.639216299212598
21
-3.7798931496062993
0
LINE
8
BLACK
6
CONTINUOUS
10
5.639216299212598
20
-3.7798931496062993
11
5.6424202755905508
21
-3.7766892125984253
0
LINE
8
BLACK
6
CONTINUOUS
10
5.6424202755905508
20
-3.7766892125984253
11
5.6440807480314961
21
-3.7733682677165352
0
LINE
8
BLACK
6
CONTINUOUS
10
5.6440807480314961
20
-3.7733682677165352
11
5.6446916535433074
21
-3.7725446062992125
0
LINE
8
BLACK
6
CONTINUOUS
10
5.6446916535433074
20
-3.7725446062992125
11
5.6465448425196847
21
-3.771741338582677
0
LINE
8
BLACK
6
CONTINUOUS
10
5.6465448425196847
20
-3.771741338582677
11
5.6484808661417318
21
-3.7723172047244096
0
LINE
8
BLACK
6
CONTINUOUS
10
5.5350000000000001
20
-3.794055118110236
11
5.5664960629921261
21
-3.794055118110236
0
LINE
8
BLACK
6
CONTINUOUS
10
5.5664960629921261
20
-3.794055118110236
11
5.5681663779527559
21
-3.7947470078740158
0
LINE
8
BLACK
6
CONTINUOUS
10
5.5681663779527559
20
-3.7947470078740158
11
5.5688582677165357
21
-3.7964173228346456
0
LINE
8
BLACK
6
CONTINUOUS
10
5.5688582677165357
20
-3.7964173228346456
11
5.5681663779527559
21
-3.7980876377952755
0
LINE
8
BLACK
6
CONTINUOUS
10
5.5681663779527559
20
-3.7980876377952755
11
5.5664960629921261
21
-3.7987795275590552
0
LINE
8
BLACK
6
CONTINUOUS
10
5.5664960629921261
20
-3.7987795275590552
11
5.5350000000000001
21
-3.7987795275590552
0
LINE
8
BLACK
6
CONTINUOUS
10
5.5350000000000001
20
-3.7987795275590552
11
5.5035039370078742
21
-3.7987795275590552
0
LINE
8
BLACK
6
CONTINUOUS
10
5.5035039370078742
20
-3.7987795275590552
11
5.5018336220472444
21
-3.7980876377952755
0
LINE
8
BLACK
6
CONTINUOUS
10
5.5018336220472444
20
-3.7980876377952755
11
5.5011417322834646
21
-3.7964173228346456
0
LINE
8
BLACK
6
CONTINUOUS
10
5.5011417322834646
20
-3.7964173228346456
11
5.5018336220472444
21
-3.7947470078740158
0
LINE
8
BLACK
6
CONTINUOUS
10
5.5018336220472444
20
-3.7947470078740158
11
5.5035039370078742
21
-3.794055118110236
0
LINE
8
BLACK
6
CONTINUOUS
10
5.5035039370078742
20
-3.794055118110236
11
5.5350000000000001
21
-3.794055118110236
0
LINE
8
BLACK
6
CONTINUOUS
10
5.6897096850393698
20
-3.7772808267716536
11
5.6904015748031496
21
-3.7789511417322834
0
LINE
8
BLACK
6
CONTINUOUS
10
5.6904015748031496
20
-3.7789511417322834
11
5.6904015748031496
21
-3.7910488582677164
0
LINE
8
BLACK
6
CONTINUOUS
10
5.6904015748031496
20
-3.7910488582677164
11
5.6897096850393698
21
-3.7927191732283463
0
LINE
8
BLACK
6
CONTINUOUS
10
5.6897096850393698
20
-3.7927191732283463
11
5.6880393700787399
21
-3.793411062992126
0
LINE
8
BLACK
6
CONTINUOUS
10
5.6880393700787399
20
-3.793411062992126
11
5.6863690551181101
21
-3.7927191732283463
0
LINE
8
BLACK
6
CONTINUOUS
10
5.6863690551181101
20
-3.7927191732283463
11
5.6856771653543303
21
-3.7910488582677164
0
LINE
8
BLACK
6
CONTINUOUS
10
5.6856771653543303
20
-3.7910488582677164
11
5.6856771653543303
21
-3.7789511417322834
0
LINE
8
BLACK
6
CONTINUOUS
10
5.6856771653543303
20
-3.7789511417322834
11
5.6863690551181101
21
-3.7772808267716536
0
LINE
8
BLACK
6
CONTINUOUS
10
5.6863690551181101
20
-3.7772808267716536
11
5.6880393700787399
21
-3.7765889370078738
0
LINE
8
BLACK
6
CONTINUOUS
10
5.6880393700787399
20
-3.7765889370078738
11
5.6897096850393698
21
-3.7772808267716536
0
LINE
8
BLACK
6
CONTINUOUS
10
5.7196309448818896
20
-3.7772808267716536
11
5.7203228346456694
21
-3.7789511417322834
0
LINE
8
BLACK
6
CONTINUOUS
10
5.7203228346456694
20
-3.7789511417322834
11
5.7203228346456694
21
-3.7910488582677164
0
LINE
8
BLACK
6
CONTINUOUS
10
5.7203228346456694
20
-3.7910488582677164
11
5.7196309448818896
21
-3.7927191732283463
0
LINE
8
BLACK
6
CONTINUOUS
10
5.7196309448818896
20
-3.7927191732283463
11
5.7179606299212598
21
-3.793411062992126
0
LINE
8
BLACK
6
CONTINUOUS
10
5.7179606299212598
20
-3.793411062992126
11
5.7162903149606299
21
-3.7927191732283463
0
LINE
8
BLACK
6
CONTINUOUS
10
5.7162903149606299
20
-3.7927191732283463
11
5.7155984251968501
21
-3.7910488582677164
0
LINE
8
BLACK
6
CONTINUOUS
10
5.7155984251968501
20
-3.7910488582677164
11
5.7155984251968501
21
-3.7789511417322834
0
LINE
8
BLACK
6
CONTINUOUS
10
5.7155984251968501
20
-3.7789511417322834
11
5.7162903149606299
21
-3.7772808267716536
0
LINE
8
BLACK
6
CONTINUOUS
10
5.7162903149606299
20
-3.7772808267716536
11
5.7179606299212598
21
-3.7765889370078738
0
LINE
8
BLACK
6
CONTINUOUS
10
5.7179606299212598
20
-3.7765889370078738
11
5.7196309448818896
21
-3.7772808267716536
0
LINE
8
BLACK
6
CONTINUOUS
10
5.755974724409449
20
-3.7420123622047243
11
5.7561441338582675
21
-3.7420014566929134
0
LINE
8
BLACK
6
CONTINUOUS
10
5.7561441338582675
20
-3.7420014566929134
11
5.7568347244094484
21
-3.7425088976377952
0
LINE
8
BLACK
6
CONTINUOUS
10
5.7568347244094484
20
-3.7425088976377952
11
5.7575768503937006
21
-3.7429374015748031
0
LINE
8
BLACK
6
CONTINUOUS
10
5.7575768503937006
20
-3.7429374015748031
11
5.7576348818897634
21
-3.7430968897637795
0
LINE
8
BLACK
6
CONTINUOUS
10
5.7576348818897634
20
-3.7430968897637795
11
5.7577717716535428
21
-3.7431974803149606
0
LINE
8
BLACK
6
CONTINUOUS
10
5.7577717716535428
20
-3.7431974803149606
11
5.7613590944881885
21
-3.7485785039370079
0
LINE
8
BLACK
6
CONTINUOUS
10
5.7613590944881885
20
-3.7485785039370079
11
5.7645630708661413
21
-3.7517824803149606
0
LINE
8
BLACK
6
CONTINUOUS
10
5.7645630708661413
20
-3.7517824803149606
11
5.7678840157480318
21
-3.7534429527559054
0
LINE
8
BLACK
6
CONTINUOUS
10
5.7678840157480318
20
-3.7534429527559054
11
5.768707677165354
21
-3.7540538582677163
0
LINE
8
BLACK
6
CONTINUOUS
10
5.768707677165354
20
-3.7540538582677163
11
5.7695109448818895
21
-3.7559070472440945
0
LINE
8
BLACK
6
CONTINUOUS
10
5.7695109448818895
20
-3.7559070472440945
11
5.7689350787401574
21
-3.7578430708661417
0
LINE
8
BLACK
6
CONTINUOUS
10
5.7689350787401574
20
-3.7578430708661417
11
5.7672495275590547
21
-3.7589559055118111
0
LINE
8
BLACK
6
CONTINUOUS
10
5.7672495275590547
20
-3.7589559055118111
11
5.7652429921259838
21
-3.7587250000000001
0
LINE
8
BLACK
6
CONTINUOUS
10
5.7652429921259838
20
-3.7587250000000001
11
5.7614934645669287
21
-3.7568502362204725
0
LINE
8
BLACK
6
CONTINUOUS
10
5.7614934645669287
20
-3.7568502362204725
11
5.7607843700787402
21
-3.7563242913385828
0
LINE
8
BLACK
6
CONTINUOUS
10
5.7607843700787402
20
-3.7563242913385828
11
5.7607260629921262
21
-3.7562971259842519
0
LINE
8
BLACK
6
CONTINUOUS
10
5.7607260629921262
20
-3.7562971259842519
11
5.758267677165354
21
-3.7538387401574802
0
LINE
8
BLACK
6
CONTINUOUS
10
5.758267677165354
20
-3.7538387401574802
11
5.758267677165354
21
-3.781252716535433
0
LINE
8
BLACK
6
CONTINUOUS
10
5.758267677165354
20
-3.781252716535433
11
5.7665635039370073
21
-3.781252716535433
0
LINE
8
BLACK
6
CONTINUOUS
10
5.7665635039370073
20
-3.781252716535433
11
5.7675734251968507
21
-3.7814307874015749
0
LINE
8
BLACK
6
CONTINUOUS
10
5.7675734251968507
20
-3.7814307874015749
11
5.7691206692913388
21
-3.7827290944881891
0
LINE
8
BLACK
6
CONTINUOUS
10
5.7691206692913388
20
-3.7827290944881891
11
5.7694714173228343
21
-3.7847182283464567
0
LINE
8
BLACK
6
CONTINUOUS
10
5.7694714173228343
20
-3.7847182283464567
11
5.7684614960629919
21
-3.7864674015748032
0
LINE
8
BLACK
6
CONTINUOUS
10
5.7684614960629919
20
-3.7864674015748032
11
5.7665635039370073
21
-3.7871582283464567
0
LINE
8
BLACK
6
CONTINUOUS
10
5.7665635039370073
20
-3.7871582283464567
11
5.7440663385826767
21
-3.7871582283464567
0
LINE
8
BLACK
6
CONTINUOUS
10
5.7440663385826767
20
-3.7871582283464567
11
5.7430564173228342
21
-3.7869801574803148
0
LINE
8
BLACK
6
CONTINUOUS
10
5.7430564173228342
20
-3.7869801574803148
11
5.7415091732283461
21
-3.7856818503937006
0
LINE
8
BLACK
6
CONTINUOUS
10
5.7415091732283461
20
-3.7856818503937006
11
5.7411584251968506
21
-3.783692716535433
0
LINE
8
BLACK
6
CONTINUOUS
10
5.7411584251968506
20
-3.783692716535433
11
5.7421683464566931
21
-3.7819435433070865
0
LINE
8
BLACK
6
CONTINUOUS
10
5.7421683464566931
20
-3.7819435433070865
11
5.7440663385826767
21
-3.781252716535433
0
LINE
8
BLACK
6
CONTINUOUS
10
5.7440663385826767
20
-3.781252716535433
11
5.7523621653543309
21
-3.781252716535433
0
LINE
8
BLACK
6
CONTINUOUS
10
5.7523621653543309
20
-3.781252716535433
11
5.7523621653543309
21
-3.7448353937007872
0
LINE
8
BLACK
6
CONTINUOUS
10
5.7523621653543309
20
-3.7448353937007872
11
5.7525402362204723
21
-3.7438254724409448
0
LINE
8
BLACK
6
CONTINUOUS
10
5.7525402362204723
20
-3.7438254724409448
11
5.7526493307086612
21
-3.7436953937007873
0
LINE
8
BLACK
6
CONTINUOUS
10
5.7526493307086612
20
-3.7436953937007873
11
5.7526680314960625
21
-3.7435266535433072
0
LINE
8
BLACK
6
CONTINUOUS
10
5.7526680314960625
20
-3.7435266535433072
11
5.7532876377952755
21
-3.7429347244094489
0
LINE
8
BLACK
6
CONTINUOUS
10
5.7532876377952755
20
-3.7429347244094489
11
5.7538385433070864
21
-3.7422782283464566
0
LINE
8
BLACK
6
CONTINUOUS
10
5.7538385433070864
20
-3.7422782283464566
11
5.7540057480314957
21
-3.7422487401574802
0
LINE
8
BLACK
6
CONTINUOUS
10
5.7540057480314957
20
-3.7422487401574802
11
5.7541285433070861
21
-3.7421314566929134
0
LINE
8
BLACK
6
CONTINUOUS
10
5.7541285433070861
20
-3.7421314566929134
11
5.7549836614173229
21
-3.7420762992125982
0
LINE
8
BLACK
6
CONTINUOUS
10
5.7549836614173229
20
-3.7420762992125982
11
5.755827677165354
21
-3.7419274803149607
0
LINE
8
BLACK
6
CONTINUOUS
10
5.755827677165354
20
-3.7419274803149607
11
5.755974724409449
21
-3.7420123622047243
0
LINE
8
BLACK
6
CONTINUOUS
10
5.2609158267716536
20
-3.7675029133858269
11
5.2616077165354334
21
-3.7691732283464567
0
LINE
8
BLACK
6
CONTINUOUS
10
5.2616077165354334
20
-3.7691732283464567
11
5.2609158267716536
21
-3.7708435433070866
0
LINE
8
BLACK
6
CONTINUOUS
10
5.2609158267716536
20
-3.7708435433070866
11
5.2592455118110237
21
-3.7715354330708659
0
LINE
8
BLACK
6
CONTINUOUS
10
5.2592455118110237
20
-3.7715354330708659
11
5.2507544881889761
21
-3.7715354330708659
0
LINE
8
BLACK
6
CONTINUOUS
10
5.2507544881889761
20
-3.7715354330708659
11
5.2490841732283462
21
-3.7708435433070866
0
LINE
8
BLACK
6
CONTINUOUS
10
5.2490841732283462
20
-3.7708435433070866
11
5.2483922834645664
21
-3.7691732283464567
0
LINE
8
BLACK
6
CONTINUOUS
10
5.2483922834645664
20
-3.7691732283464567
11
5.2490841732283462
21
-3.7675029133858269
0
LINE
8
BLACK
6
CONTINUOUS
10
5.2490841732283462
20
-3.7675029133858269
11
5.2507544881889761
21
-3.7668110236220471
0
LINE
8
BLACK
6
CONTINUOUS
10
5.2507544881889761
20
-3.7668110236220471
11
5.2592455118110237
21
-3.7668110236220471
0
LINE
8
BLACK
6
CONTINUOUS
10
5.2592455118110237
20
-3.7668110236220471
11
5.2609158267716536
21
-3.7675029133858269
0
LINE
8
BLACK
6
CONTINUOUS
10
5.370915826771653
20
-3.7625029133858265
11
5.3716077165354328
21
-3.7641732283464564
0
LINE
8
BLACK
6
CONTINUOUS
10
5.3716077165354328
20
-3.7641732283464564
11
5.370915826771653
21
-3.7658435433070867
0
LINE
8
BLACK
6
CONTINUOUS
10
5.370915826771653
20
-3.7658435433070867
11
5.3692455118110232
21
-3.766535433070866
0
LINE
8
BLACK
6
CONTINUOUS
10
5.3692455118110232
20
-3.766535433070866
11
5.3607544881889764
21
-3.766535433070866
0
LINE
8
BLACK
6
CONTINUOUS
10
5.3607544881889764
20
-3.766535433070866
11
5.3590841732283465
21
-3.7658435433070867
0
LINE
8
BLACK
6
CONTINUOUS
10
5.3590841732283465
20
-3.7658435433070867
11
5.3583922834645668
21
-3.7641732283464564
0
LINE
8
BLACK
6
CONTINUOUS
10
5.3583922834645668
20
-3.7641732283464564
11
5.3590841732283465
21
-3.7625029133858265
0
LINE
8
BLACK
6
CONTINUOUS
10
5.3590841732283465
20
-3.7625029133858265
11
5.3607544881889764
21
-3.7618110236220472
0
LINE
8
BLACK
6
CONTINUOUS
10
5.3607544881889764
20
-3.7618110236220472
11
5.3692455118110232
21
-3.7618110236220472
0
LINE
8
BLACK
6
CONTINUOUS
10
5.3692455118110232
20
-3.7618110236220472
11
5.370915826771653
21
-3.7625029133858265
0
LINE
8
BLACK
6
CONTINUOUS
10
5.1292248031496062
20
-3.7402356692913385
11
5.1296641338582676
21
-3.7412963385826772
0
LINE
8
BLACK
6
CONTINUOUS
10
5.1296641338582676
20
-3.7412963385826772
11
5.1292248031496062
21
-3.7423570078740158
0
LINE
8
BLACK
6
CONTINUOUS
10
5.1292248031496062
20
-3.7423570078740158
11
5.1281641338582675
21
-3.7427963385826772
0
LINE
8
BLACK
6
CONTINUOUS
10
5.1281641338582675
20
-3.7427963385826772
11
5.1176335433070861
21
-3.7427963385826772
0
LINE
8
BLACK
6
CONTINUOUS
10
5.1176335433070861
20
-3.7427963385826772
11
5.1294122047244093
21
-3.7604642913385824
0
LINE
8
BLACK
6
CONTINUOUS
10
5.1294122047244093
20
-3.7604642913385824
11
5.1294969291338584
21
-3.7608927165354329
0
LINE
8
BLACK
6
CONTINUOUS
10
5.1294969291338584
20
-3.7608927165354329
11
5.1296641338582676
21
-3.7612963385826772
0
LINE
8
BLACK
6
CONTINUOUS
10
5.1296641338582676
20
-3.7612963385826772
11
5.1296049999999997
21
-3.7614390157480315
0
LINE
8
BLACK
6
CONTINUOUS
10
5.1296049999999997
20
-3.7614390157480315
11
5.1296349999999995
21
-3.7615905118110233
0
LINE
8
BLACK
6
CONTINUOUS
10
5.1296349999999995
20
-3.7615905118110233
11
5.1293919685039366
21
-3.7619533858267715
0
LINE
8
BLACK
6
CONTINUOUS
10
5.1293919685039366
20
-3.7619533858267715
11
5.1292248031496062
21
-3.7623570078740158
0
LINE
8
BLACK
6
CONTINUOUS
10
5.1292248031496062
20
-3.7623570078740158
11
5.1290820866141731
21
-3.7624161023622045
0
LINE
8
BLACK
6
CONTINUOUS
10
5.1290820866141731
20
-3.7624161023622045
11
5.1289961811023623
21
-3.762544409448819
0
LINE
8
BLACK
6
CONTINUOUS
10
5.1289961811023623
20
-3.762544409448819
11
5.1285677165354331
21
-3.7626291338582676
0
LINE
8
BLACK
6
CONTINUOUS
10
5.1285677165354331
20
-3.7626291338582676
11
5.1281641338582675
21
-3.7627963385826773
0
LINE
8
BLACK
6
CONTINUOUS
10
5.1281641338582675
20
-3.7627963385826773
11
5.1148307874015746
21
-3.7627963385826773
0
LINE
8
BLACK
6
CONTINUOUS
10
5.1148307874015746
20
-3.7627963385826773
11
5.113770118110236
21
-3.7623570078740158
0
LINE
8
BLACK
6
CONTINUOUS
10
5.113770118110236
20
-3.7623570078740158
11
5.1133307874015745
21
-3.7612963385826772
0
LINE
8
BLACK
6
CONTINUOUS
10
5.1133307874015745
20
-3.7612963385826772
11
5.113770118110236
21
-3.7602356692913386
0
LINE
8
BLACK
6
CONTINUOUS
10
5.113770118110236
20
-3.7602356692913386
11
5.1148307874015746
21
-3.7597963385826771
0
LINE
8
BLACK
6
CONTINUOUS
10
5.1148307874015746
20
-3.7597963385826771
11
5.125361377952756
21
-3.7597963385826771
0
LINE
8
BLACK
6
CONTINUOUS
10
5.125361377952756
20
-3.7597963385826771
11
5.1135827165354328
21
-3.7421283858267715
0
LINE
8
BLACK
6
CONTINUOUS
10
5.1135827165354328
20
-3.7421283858267715
11
5.113497952755905
21
-3.7416999212598423
0
LINE
8
BLACK
6
CONTINUOUS
10
5.113497952755905
20
-3.7416999212598423
11
5.1133307874015745
21
-3.7412963385826772
0
LINE
8
BLACK
6
CONTINUOUS
10
5.1133307874015745
20
-3.7412963385826772
11
5.1133898818897636
21
-3.7411536220472441
0
LINE
8
BLACK
6
CONTINUOUS
10
5.1133898818897636
20
-3.7411536220472441
11
5.1133599212598426
21
-3.7410021653543306
0
LINE
8
BLACK
6
CONTINUOUS
10
5.1133599212598426
20
-3.7410021653543306
11
5.1136029133858267
21
-3.7406392519685037
0
LINE
8
BLACK
6
CONTINUOUS
10
5.1136029133858267
20
-3.7406392519685037
11
5.113770118110236
21
-3.7402356692913385
0
LINE
8
BLACK
6
CONTINUOUS
10
5.113770118110236
20
-3.7402356692913385
11
5.1139127952755903
21
-3.7401765354330707
0
LINE
8
BLACK
6
CONTINUOUS
10
5.1139127952755903
20
-3.7401765354330707
11
5.1139987401574798
21
-3.7400482677165354
0
LINE
8
BLACK
6
CONTINUOUS
10
5.1139987401574798
20
-3.7400482677165354
11
5.1144271653543303
21
-3.7399635039370076
0
LINE
8
BLACK
6
CONTINUOUS
10
5.1144271653543303
20
-3.7399635039370076
11
5.1148307874015746
21
-3.7397963385826771
0
LINE
8
BLACK
6
CONTINUOUS
10
5.1148307874015746
20
-3.7397963385826771
11
5.1281641338582675
21
-3.7397963385826771
0
LINE
8
BLACK
6
CONTINUOUS
10
5.1281641338582675
20
-3.7397963385826771
11
5.1292248031496062
21
-3.7402356692913385
0
LINE
8
BLACK
6
CONTINUOUS
10
5.172805708661417
20
-3.7400482677165354
11
5.173444527559055
21
-3.7410021653543306
0
LINE
8
BLACK
6
CONTINUOUS
10
5.173444527559055
20
-3.7410021653543306
11
5.1732217322834648
21
-3.7421283858267715
0
LINE
8
BLACK
6
CONTINUOUS
10
5.1732217322834648
20
-3.7421283858267715
11
5.1671097244094488
21
-3.751296338582677
0
LINE
8
BLACK
6
CONTINUOUS
10
5.1671097244094488
20
-3.751296338582677
11
5.1732217322834648
21
-3.7604642913385824
0
LINE
8
BLACK
6
CONTINUOUS
10
5.1732217322834648
20
-3.7604642913385824
11
5.173444527559055
21
-3.7615905118110233
0
LINE
8
BLACK
6
CONTINUOUS
10
5.173444527559055
20
-3.7615905118110233
11
5.172805708661417
21
-3.762544409448819
0
LINE
8
BLACK
6
CONTINUOUS
10
5.172805708661417
20
-3.762544409448819
11
5.1716794881889765
21
-3.7627672047244092
0
LINE
8
BLACK
6
CONTINUOUS
10
5.1716794881889765
20
-3.7627672047244092
11
5.1707255905511813
21
-3.7621283858267716
0
LINE
8
BLACK
6
CONTINUOUS
10
5.1707255905511813
20
-3.7621283858267716
11
5.1653069685039368
21
-3.7540004724409446
0
LINE
8
BLACK
6
CONTINUOUS
10
5.1653069685039368
20
-3.7540004724409446
11
5.1598883858267719
21
-3.7621283858267716
0
LINE
8
BLACK
6
CONTINUOUS
10
5.1598883858267719
20
-3.7621283858267716
11
5.1589344881889758
21
-3.7627672047244092
0
LINE
8
BLACK
6
CONTINUOUS
10
5.1589344881889758
20
-3.7627672047244092
11
5.1578082677165353
21
-3.762544409448819
0
LINE
8
BLACK
6
CONTINUOUS
10
5.1578082677165353
20
-3.762544409448819
11
5.1571694488188973
21
-3.7615905118110233
0
LINE
8
BLACK
6
CONTINUOUS
10
5.1571694488188973
20
-3.7615905118110233
11
5.1573922440944884
21
-3.7604642913385824
0
LINE
8
BLACK
6
CONTINUOUS
10
5.1573922440944884
20
-3.7604642913385824
11
5.1635042125984247
21
-3.751296338582677
0
LINE
8
BLACK
6
CONTINUOUS
10
5.1635042125984247
20
-3.751296338582677
11
5.1573922440944884
21
-3.7421283858267715
0
LINE
8
BLACK
6
CONTINUOUS
10
5.1573922440944884
20
-3.7421283858267715
11
5.1571694488188973
21
-3.7410021653543306
0
LINE
8
BLACK
6
CONTINUOUS
10
5.1571694488188973
20
-3.7410021653543306
11
5.1578082677165353
21
-3.7400482677165354
0
LINE
8
BLACK
6
CONTINUOUS
10
5.1578082677165353
20
-3.7400482677165354
11
5.1589344881889758
21
-3.7398254724409448
0
LINE
8
BLACK
6
CONTINUOUS
10
5.1589344881889758
20
-3.7398254724409448
11
5.1598883858267719
21
-3.7404642913385824
0
LINE
8
BLACK
6
CONTINUOUS
10
5.1598883858267719
20
-3.7404642913385824
11
5.1653069685039368
21
-3.7485921653543306
0
LINE
8
BLACK
6
CONTINUOUS
10
5.1653069685039368
20
-3.7485921653543306
11
5.1707255905511813
21
-3.7404642913385824
0
LINE
8
BLACK
6
CONTINUOUS
10
5.1707255905511813
20
-3.7404642913385824
11
5.1716794881889765
21
-3.7398254724409448
0
LINE
8
BLACK
6
CONTINUOUS
10
5.1716794881889765
20
-3.7398254724409448
11
5.172805708661417
21
-3.7400482677165354
0
LINE
8
BLACK
6
CONTINUOUS
10
5.6758531889763777
20
-3.7344187795275592
11
5.6774004330708658
21
-3.7357170866141733
0
LINE
8
BLACK
6
CONTINUOUS
10
5.6774004330708658
20
-3.7357170866141733
11
5.6777511811023622
21
-3.7377062204724409
0
LINE
8
BLACK
6
CONTINUOUS
10
5.6777511811023622
20
-3.7377062204724409
11
5.6767412598425198
21
-3.7394553937007875
0
LINE
8
BLACK
6
CONTINUOUS
10
5.6767412598425198
20
-3.7394553937007875
11
5.6748432677165352
21
-3.7401462204724409
0
LINE
8
BLACK
6
CONTINUOUS
10
5.6748432677165352
20
-3.7401462204724409
11
5.659048346456693
21
-3.7401462204724409
0
LINE
8
BLACK
6
CONTINUOUS
10
5.659048346456693
20
-3.7401462204724409
11
5.659048346456693
21
-3.7450298818897636
0
LINE
8
BLACK
6
CONTINUOUS
10
5.659048346456693
20
-3.7450298818897636
11
5.6765365748031495
21
-3.7572716535433068
0
LINE
8
BLACK
6
CONTINUOUS
10
5.6765365748031495
20
-3.7572716535433068
11
5.6772618110236222
21
-3.7579966929133857
0
LINE
8
BLACK
6
CONTINUOUS
10
5.6772618110236222
20
-3.7579966929133857
11
5.6777848425196851
21
-3.7599475590551181
0
LINE
8
BLACK
6
CONTINUOUS
10
5.6777848425196851
20
-3.7599475590551181
11
5.6769314960629922
21
-3.7617782677165352
0
LINE
8
BLACK
6
CONTINUOUS
10
5.6769314960629922
20
-3.7617782677165352
11
5.6751010236220472
21
-3.7626320866141731
0
LINE
8
BLACK
6
CONTINUOUS
10
5.6751010236220472
20
-3.7626320866141731
11
5.6731499999999997
21
-3.7621096456692911
0
LINE
8
BLACK
6
CONTINUOUS
10
5.6731499999999997
20
-3.7621096456692911
11
5.6590409448818892
21
-3.7522333070866143
0
LINE
8
BLACK
6
CONTINUOUS
10
5.6590409448818892
20
-3.7522333070866143
11
5.6588702755905507
21
-3.7532014960629922
0
LINE
8
BLACK
6
CONTINUOUS
10
5.6588702755905507
20
-3.7532014960629922
11
5.6587567716535432
21
-3.7533367322834645
0
LINE
8
BLACK
6
CONTINUOUS
10
5.6587567716535432
20
-3.7533367322834645
11
5.658736614173228
21
-3.7535120866141733
0
LINE
8
BLACK
6
CONTINUOUS
10
5.658736614173228
20
-3.7535120866141733
11
5.6568618503937005
21
-3.7572616141732285
0
LINE
8
BLACK
6
CONTINUOUS
10
5.6568618503937005
20
-3.7572616141732285
11
5.6563359448818895
21
-3.7579706692913386
0
LINE
8
BLACK
6
CONTINUOUS
10
5.6563359448818895
20
-3.7579706692913386
11
5.6563087401574803
21
-3.7580290157480314
0
LINE
8
BLACK
6
CONTINUOUS
10
5.6563087401574803
20
-3.7580290157480314
11
5.6544339763779528
21
-3.7599037795275589
0
LINE
8
BLACK
6
CONTINUOUS
10
5.6544339763779528
20
-3.7599037795275589
11
5.6537108661417319
21
-3.7604100393700786
0
LINE
8
BLACK
6
CONTINUOUS
10
5.6537108661417319
20
-3.7604100393700786
11
5.6536665748031494
21
-3.7604568897637796
0
LINE
8
BLACK
6
CONTINUOUS
10
5.6536665748031494
20
-3.7604568897637796
11
5.6499170472440943
21
-3.7623316535433071
0
LINE
8
BLACK
6
CONTINUOUS
10
5.6499170472440943
20
-3.7623316535433071
11
5.6489340944881885
21
-3.7626240157480315
0
LINE
8
BLACK
6
CONTINUOUS
10
5.6489340944881885
20
-3.7626240157480315
11
5.6487624015748032
21
-3.7625829921259841
0
LINE
8
BLACK
6
CONTINUOUS
10
5.6487624015748032
20
-3.7625829921259841
11
5.6485965354330707
21
-3.7626433858267716
0
LINE
8
BLACK
6
CONTINUOUS
10
5.6485965354330707
20
-3.7626433858267716
11
5.6429722440944881
21
-3.7626433858267716
0
LINE
8
BLACK
6
CONTINUOUS
10
5.6429722440944881
20
-3.7626433858267716
11
5.6419623228346456
21
-3.7624653149606297
0
LINE
8
BLACK
6
CONTINUOUS
10
5.6419623228346456
20
-3.7624653149606297
11
5.6418270472440941
21
-3.7623518110236218
0
LINE
8
BLACK
6
CONTINUOUS
10
5.6418270472440941
20
-3.7623518110236218
11
5.6416517322834645
21
-3.7623316535433071
0
LINE
8
BLACK
6
CONTINUOUS
10
5.6416517322834645
20
-3.7623316535433071
11
5.6379022047244094
21
-3.7604568897637796
0
LINE
8
BLACK
6
CONTINUOUS
10
5.6379022047244094
20
-3.7604568897637796
11
5.6371931102362201
21
-3.7599309842519686
0
LINE
8
BLACK
6
CONTINUOUS
10
5.6371931102362201
20
-3.7599309842519686
11
5.637134803149606
21
-3.7599037795275589
0
LINE
8
BLACK
6
CONTINUOUS
10
5.637134803149606
20
-3.7599037795275589
11
5.6352600393700785
21
-3.7580290157480314
0
LINE
8
BLACK
6
CONTINUOUS
10
5.6352600393700785
20
-3.7580290157480314
11
5.6347537401574801
21
-3.757305905511811
0
LINE
8
BLACK
6
CONTINUOUS
10
5.6347537401574801
20
-3.757305905511811
11
5.6347069291338583
21
-3.7572616141732285
0
LINE
8
BLACK
6
CONTINUOUS
10
5.6347069291338583
20
-3.7572616141732285
11
5.6328321653543307
21
-3.7535120866141733
0
LINE
8
BLACK
6
CONTINUOUS
10
5.6328321653543307
20
-3.7535120866141733
11
5.6325398031496059
21
-3.7525291338582676
0
LINE
8
BLACK
6
CONTINUOUS
10
5.6325398031496059
20
-3.7525291338582676
11
5.632580787401575
21
-3.7523574409448819
0
LINE
8
BLACK
6
CONTINUOUS
10
5.632580787401575
20
-3.7523574409448819
11
5.6325204330708658
21
-3.7521915748031494
0
LINE
8
BLACK
6
CONTINUOUS
10
5.6325204330708658
20
-3.7521915748031494
11
5.6325204330708658
21
-3.7371934645669289
0
LINE
8
BLACK
6
CONTINUOUS
10
5.6325204330708658
20
-3.7371934645669289
11
5.6325880314960628
21
-3.7368099212598422
0
LINE
8
BLACK
6
CONTINUOUS
10
5.6325880314960628
20
-3.7368099212598422
11
5.6325652755905509
21
-3.7366807086614173
0
LINE
8
BLACK
6
CONTINUOUS
10
5.6325652755905509
20
-3.7366807086614173
11
5.6326308661417324
21
-3.7365670866141731
0
LINE
8
BLACK
6
CONTINUOUS
10
5.6326308661417324
20
-3.7365670866141731
11
5.6326985039370081
21
-3.7361835433070865
0
LINE
8
BLACK
6
CONTINUOUS
10
5.6326985039370081
20
-3.7361835433070865
11
5.6331916141732279
21
-3.7355958267716534
0
LINE
8
BLACK
6
CONTINUOUS
10
5.6331916141732279
20
-3.7355958267716534
11
5.6335751968503933
21
-3.7349315354330708
0
LINE
8
BLACK
6
CONTINUOUS
10
5.6335751968503933
20
-3.7349315354330708
11
5.6338255118110236
21
-3.7348403937007872
0
LINE
8
BLACK
6
CONTINUOUS
10
5.6338255118110236
20
-3.7348403937007872
11
5.6339968110236223
21
-3.7346362992125983
0
LINE
8
BLACK
6
CONTINUOUS
10
5.6339968110236223
20
-3.7346362992125983
11
5.6347523622047246
21
-3.7345030314960628
0
LINE
8
BLACK
6
CONTINUOUS
10
5.6347523622047246
20
-3.7345030314960628
11
5.6354731889763778
21
-3.7342407086614173
0
LINE
8
BLACK
6
CONTINUOUS
10
5.6354731889763778
20
-3.7342407086614173
11
5.6748432677165352
21
-3.7342407086614173
0
LINE
8
BLACK
6
CONTINUOUS
10
5.6748432677165352
20
-3.7342407086614173
11
5.6758531889763777
21
-3.7344187795275592
0
LINE
8
BLACK
6
CONTINUOUS
10
5.6384259448818899
20
-3.7514945275590552
11
5.6397746850393702
21
-3.7541920078740159
0
LINE
8
BLACK
6
CONTINUOUS
10
5.6397746850393702
20
-3.7541920078740159
11
5.640971811023622
21
-3.7553891338582677
0
LINE
8
BLACK
6
CONTINUOUS
10
5.640971811023622
20
-3.7553891338582677
11
5.6436692913385826
21
-3.756737874015748
0
LINE
8
BLACK
6
CONTINUOUS
10
5.6436692913385826
20
-3.756737874015748
11
5.6478994881889761
21
-3.756737874015748
0
LINE
8
BLACK
6
CONTINUOUS
10
5.6478994881889761
20
-3.756737874015748
11
5.6505969685039368
21
-3.7553891338582677
0
LINE
8
BLACK
6
CONTINUOUS
10
5.6505969685039368
20
-3.7553891338582677
11
5.6517940944881886
21
-3.7541920078740159
0
LINE
8
BLACK
6
CONTINUOUS
10
5.6517940944881886
20
-3.7541920078740159
11
5.6531428346456689
21
-3.7514945275590552
0
LINE
8
BLACK
6
CONTINUOUS
10
5.6531428346456689
20
-3.7514945275590552
11
5.6531428346456689
21
-3.7401462204724409
0
LINE
8
BLACK
6
CONTINUOUS
10
5.6531428346456689
20
-3.7401462204724409
11
5.6384259448818899
21
-3.7401462204724409
0
LINE
8
BLACK
6
CONTINUOUS
10
5.6384259448818899
20
-3.7401462204724409
11
5.6384259448818899
21
-3.7514945275590552
0
LINE
8
BLACK
6
CONTINUOUS
10
5.1520819291338578
20
-3.7526166141732284
11
5.1525212598425192
21
-3.7536772834645666
0
LINE
8
BLACK
6
CONTINUOUS
10
5.1525212598425192
20
-3.7536772834645666
11
5.1520819291338578
21
-3.7547379527559053
0
LINE
8
BLACK
6
CONTINUOUS
10
5.1520819291338578
20
-3.7547379527559053
11
5.1510212598425191
21
-3.7551772834645667
0
LINE
8
BLACK
6
CONTINUOUS
10
5.1510212598425191
20
-3.7551772834645667
11
5.1357831889763776
21
-3.7551772834645667
0
LINE
8
BLACK
6
CONTINUOUS
10
5.1357831889763776
20
-3.7551772834645667
11
5.134722519685039
21
-3.7547379527559053
0
LINE
8
BLACK
6
CONTINUOUS
10
5.134722519685039
20
-3.7547379527559053
11
5.1342831889763776
21
-3.7536772834645666
0
LINE
8
BLACK
6
CONTINUOUS
10
5.1342831889763776
20
-3.7536772834645666
11
5.134722519685039
21
-3.7526166141732284
0
LINE
8
BLACK
6
CONTINUOUS
10
5.134722519685039
20
-3.7526166141732284
11
5.1357831889763776
21
-3.752177283464567
0
LINE
8
BLACK
6
CONTINUOUS
10
5.1357831889763776
20
-3.752177283464567
11
5.1510212598425191
21
-3.752177283464567
0
LINE
8
BLACK
6
CONTINUOUS
10
5.1510212598425191
20
-3.752177283464567
11
5.1520819291338578
21
-3.7526166141732284
0
LINE
8
BLACK
6
CONTINUOUS
10
5.9262293700787403
20
-3.6847076377952757
11
5.9269212598425192
21
-3.6863779527559055
0
LINE
8
BLACK
6
CONTINUOUS
10
5.9269212598425192
20
-3.6863779527559055
11
5.9262293700787403
21
-3.6880482677165354
0
LINE
8
BLACK
6
CONTINUOUS
10
5.9262293700787403
20
-3.6880482677165354
11
5.9245590551181104
21
-3.6887401574803147
0
LINE
8
BLACK
6
CONTINUOUS
10
5.9245590551181104
20
-3.6887401574803147
11
5.8540866141732284
21
-3.6887401574803147
0
LINE
8
BLACK
6
CONTINUOUS
10
5.8540866141732284
20
-3.6887401574803147
11
5.8540866141732284
21
-3.7312598425196848
0
LINE
8
BLACK
6
CONTINUOUS
10
5.8540866141732284
20
-3.7312598425196848
11
5.887049094488189
21
-3.7312598425196848
0
LINE
8
BLACK
6
CONTINUOUS
10
5.887049094488189
20
-3.7312598425196848
11
5.887049094488189
21
-3.7035361811023622
0
LINE
8
BLACK
6
CONTINUOUS
10
5.887049094488189
20
-3.7035361811023622
11
5.8872271653543304
21
-3.7025262598425197
0
LINE
8
BLACK
6
CONTINUOUS
10
5.8872271653543304
20
-3.7025262598425197
11
5.8873362598425194
21
-3.7023961811023622
0
LINE
8
BLACK
6
CONTINUOUS
10
5.8873362598425194
20
-3.7023961811023622
11
5.8873549606299207
21
-3.7022274409448817
0
LINE
8
BLACK
6
CONTINUOUS
10
5.8873549606299207
20
-3.7022274409448817
11
5.8879745669291337
21
-3.7016355118110233
0
LINE
8
BLACK
6
CONTINUOUS
10
5.8879745669291337
20
-3.7016355118110233
11
5.8885254724409446
21
-3.7009790157480316
0
LINE
8
BLACK
6
CONTINUOUS
10
5.8885254724409446
20
-3.7009790157480316
11
5.8886926771653538
21
-3.7009495275590552
0
LINE
8
BLACK
6
CONTINUOUS
10
5.8886926771653538
20
-3.7009495275590552
11
5.8888154724409452
21
-3.7008322440944883
0
LINE
8
BLACK
6
CONTINUOUS
10
5.8888154724409452
20
-3.7008322440944883
11
5.889670590551181
21
-3.7007770866141732
0
LINE
8
BLACK
6
CONTINUOUS
10
5.889670590551181
20
-3.7007770866141732
11
5.8905146062992122
21
-3.7006282677165352
0
LINE
8
BLACK
6
CONTINUOUS
10
5.8905146062992122
20
-3.7006282677165352
11
5.8906616535433072
21
-3.7007131496062993
0
LINE
8
BLACK
6
CONTINUOUS
10
5.8906616535433072
20
-3.7007131496062993
11
5.8908310629921257
21
-3.7007022440944879
0
LINE
8
BLACK
6
CONTINUOUS
10
5.8908310629921257
20
-3.7007022440944879
11
5.8915216535433066
21
-3.7012096850393701
0
LINE
8
BLACK
6
CONTINUOUS
10
5.8915216535433066
20
-3.7012096850393701
11
5.8922637795275588
21
-3.7016381889763781
0
LINE
8
BLACK
6
CONTINUOUS
10
5.8922637795275588
20
-3.7016381889763781
11
5.8923218110236215
21
-3.7017976771653545
0
LINE
8
BLACK
6
CONTINUOUS
10
5.8923218110236215
20
-3.7017976771653545
11
5.8924587007874019
21
-3.7018982677165355
0
LINE
8
BLACK
6
CONTINUOUS
10
5.8924587007874019
20
-3.7018982677165355
11
5.8960460236220475
21
-3.7072792913385828
0
LINE
8
BLACK
6
CONTINUOUS
10
5.8960460236220475
20
-3.7072792913385828
11
5.8992499999999994
21
-3.7104832677165351
0
LINE
8
BLACK
6
CONTINUOUS
10
5.8992499999999994
20
-3.7104832677165351
11
5.9025709448818899
21
-3.7121437401574804
0
LINE
8
BLACK
6
CONTINUOUS
10
5.9025709448818899
20
-3.7121437401574804
11
5.9033946062992122
21
-3.7127546456692913
0
LINE
8
BLACK
6
CONTINUOUS
10
5.9033946062992122
20
-3.7127546456692913
11
5.9041978740157477
21
-3.714607834645669
0
LINE
8
BLACK
6
CONTINUOUS
10
5.9041978740157477
20
-3.714607834645669
11
5.9036220078740156
21
-3.7165438582677166
0
LINE
8
BLACK
6
CONTINUOUS
10
5.9036220078740156
20
-3.7165438582677166
11
5.9019364566929129
21
-3.7176566929133856
0
LINE
8
BLACK
6
CONTINUOUS
10
5.9019364566929129
20
-3.7176566929133856
11
5.8999299212598419
21
-3.7174257874015746
0
LINE
8
BLACK
6
CONTINUOUS
10
5.8999299212598419
20
-3.7174257874015746
11
5.8961803937007868
21
-3.715551023622047
0
LINE
8
BLACK
6
CONTINUOUS
10
5.8961803937007868
20
-3.715551023622047
11
5.8954712992125984
21
-3.7150250787401573
0
LINE
8
BLACK
6
CONTINUOUS
10
5.8954712992125984
20
-3.7150250787401573
11
5.8954129921259844
21
-3.7149979133858269
0
LINE
8
BLACK
6
CONTINUOUS
10
5.8954129921259844
20
-3.7149979133858269
11
5.8929546062992122
21
-3.7125395275590551
0
LINE
8
BLACK
6
CONTINUOUS
10
5.8929546062992122
20
-3.7125395275590551
11
5.8929546062992122
21
-3.7312598425196848
0
LINE
8
BLACK
6
CONTINUOUS
10
5.8929546062992122
20
-3.7312598425196848
11
5.9151705905511811
21
-3.7312598425196848
0
LINE
8
BLACK
6
CONTINUOUS
10
5.9151705905511811
20
-3.7312598425196848
11
5.9151705905511811
21
-3.7035361811023622
0
LINE
8
BLACK
6
CONTINUOUS
10
5.9151705905511811
20
-3.7035361811023622
11
5.9153486614173225
21
-3.7025262598425197
0
LINE
8
BLACK
6
CONTINUOUS
10
5.9153486614173225
20
-3.7025262598425197
11
5.9166469685039367
21
-3.7009790157480316
0
LINE
8
BLACK
6
CONTINUOUS
10
5.9166469685039367
20
-3.7009790157480316
11
5.9186361023622043
21
-3.7006282677165352
0
LINE
8
BLACK
6
CONTINUOUS
10
5.9186361023622043
20
-3.7006282677165352
11
5.9203852755905508
21
-3.7016381889763781
0
LINE
8
BLACK
6
CONTINUOUS
10
5.9203852755905508
20
-3.7016381889763781
11
5.9210761023622043
21
-3.7035361811023622
0
LINE
8
BLACK
6
CONTINUOUS
10
5.9210761023622043
20
-3.7035361811023622
11
5.9210761023622043
21
-3.7311784645669293
0
LINE
8
BLACK
6
CONTINUOUS
10
5.9210761023622043
20
-3.7311784645669293
11
5.9211032283464569
21
-3.7312598425196848
0
LINE
8
BLACK
6
CONTINUOUS
10
5.9211032283464569
20
-3.7312598425196848
11
5.9245590551181104
21
-3.7312598425196848
0
LINE
8
BLACK
6
CONTINUOUS
10
5.9245590551181104
20
-3.7312598425196848
11
5.9262293700787403
21
-3.7319517322834646
0
LINE
8
BLACK
6
CONTINUOUS
10
5.9262293700787403
20
-3.7319517322834646
11
5.9269212598425192
21
-3.7336220472440944
0
LINE
8
BLACK
6
CONTINUOUS
10
5.9269212598425192
20
-3.7336220472440944
11
5.9262293700787403
21
-3.7352923622047243
0
LINE
8
BLACK
6
CONTINUOUS
10
5.9262293700787403
20
-3.7352923622047243
11
5.9245590551181104
21
-3.735984251968504
0
LINE
8
BLACK
6
CONTINUOUS
10
5.9245590551181104
20
-3.735984251968504
11
5.9228762598425195
21
-3.735984251968504
0
LINE
8
BLACK
6
CONTINUOUS
10
5.9228762598425195
20
-3.735984251968504
11
5.9253426771653546
21
-3.7384507086614174
0
LINE
8
BLACK
6
CONTINUOUS
10
5.9253426771653546
20
-3.7384507086614174
11
5.9298510629921255
21
-3.739953503937008
0
LINE
8
BLACK
6
CONTINUOUS
10
5.9298510629921255
20
-3.739953503937008
11
5.9331214566929136
21
-3.739953503937008
0
LINE
8
BLACK
6
CONTINUOUS
10
5.9331214566929136
20
-3.739953503937008
11
5.934131377952756
21
-3.7401315748031494
0
LINE
8
BLACK
6
CONTINUOUS
10
5.934131377952756
20
-3.7401315748031494
11
5.9356786220472442
21
-3.7414298818897636
0
LINE
8
BLACK
6
CONTINUOUS
10
5.9356786220472442
20
-3.7414298818897636
11
5.9360293700787397
21
-3.7434190157480316
0
LINE
8
BLACK
6
CONTINUOUS
10
5.9360293700787397
20
-3.7434190157480316
11
5.9350194488188972
21
-3.7451681889763777
0
LINE
8
BLACK
6
CONTINUOUS
10
5.9350194488188972
20
-3.7451681889763777
11
5.9331214566929136
21
-3.7458590157480316
0
LINE
8
BLACK
6
CONTINUOUS
10
5.9331214566929136
20
-3.7458590157480316
11
5.9293719291338585
21
-3.7458590157480316
0
LINE
8
BLACK
6
CONTINUOUS
10
5.9293719291338585
20
-3.7458590157480316
11
5.9285025196850389
21
-3.7457057086614172
0
LINE
8
BLACK
6
CONTINUOUS
10
5.9285025196850389
20
-3.7457057086614172
11
5.9284381496062988
21
-3.7457074803149606
0
LINE
8
BLACK
6
CONTINUOUS
10
5.9284381496062988
20
-3.7457074803149606
11
5.9228138976377949
21
-3.743832716535433
0
LINE
8
BLACK
6
CONTINUOUS
10
5.9228138976377949
20
-3.743832716535433
11
5.9219121259842522
21
-3.7433444094488189
0
LINE
8
BLACK
6
CONTINUOUS
10
5.9219121259842522
20
-3.7433444094488189
11
5.921819724409449
21
-3.7431940157480312
0
LINE
8
BLACK
6
CONTINUOUS
10
5.921819724409449
20
-3.7431940157480312
11
5.9216597244094489
21
-3.7431194094488189
0
LINE
8
BLACK
6
CONTINUOUS
10
5.9216597244094489
20
-3.7431194094488189
11
5.9179101968503938
21
-3.7393698425196851
0
LINE
8
BLACK
6
CONTINUOUS
10
5.9179101968503938
20
-3.7393698425196851
11
5.9173219685039369
21
-3.7385298031496061
0
LINE
8
BLACK
6
CONTINUOUS
10
5.9173219685039369
20
-3.7385298031496061
11
5.917306574803149
21
-3.7383538582677165
0
LINE
8
BLACK
6
CONTINUOUS
10
5.917306574803149
20
-3.7383538582677165
11
5.9171968897637797
21
-3.7382156692913386
0
LINE
8
BLACK
6
CONTINUOUS
10
5.9171968897637797
20
-3.7382156692913386
11
5.916453070866142
21
-3.735984251968504
0
LINE
8
BLACK
6
CONTINUOUS
10
5.916453070866142
20
-3.735984251968504
11
5.8929546062992122
21
-3.735984251968504
0
LINE
8
BLACK
6
CONTINUOUS
10
5.8929546062992122
20
-3.735984251968504
11
5.8929546062992122
21
-3.739953503937008
0
LINE
8
BLACK
6
CONTINUOUS
10
5.8929546062992122
20
-3.739953503937008
11
5.9012504330708664
21
-3.739953503937008
0
LINE
8
BLACK
6
CONTINUOUS
10
5.9012504330708664
20
-3.739953503937008
11
5.9022603543307088
21
-3.7401315748031494
0
LINE
8
BLACK
6
CONTINUOUS
10
5.9022603543307088
20
-3.7401315748031494
11
5.903807598425197
21
-3.7414298818897636
0
LINE
8
BLACK
6
CONTINUOUS
10
5.903807598425197
20
-3.7414298818897636
11
5.9041583464566925
21
-3.7434190157480316
0
LINE
8
BLACK
6
CONTINUOUS
10
5.9041583464566925
20
-3.7434190157480316
11
5.90314842519685
21
-3.7451681889763777
0
LINE
8
BLACK
6
CONTINUOUS
10
5.90314842519685
20
-3.7451681889763777
11
5.9012504330708664
21
-3.7458590157480316
0
LINE
8
BLACK
6
CONTINUOUS
10
5.9012504330708664
20
-3.7458590157480316
11
5.8787532677165357
21
-3.7458590157480316
0
LINE
8
BLACK
6
CONTINUOUS
10
5.8787532677165357
20
-3.7458590157480316
11
5.8777433464566924
21
-3.7456809448818897
0
LINE
8
BLACK
6
CONTINUOUS
10
5.8777433464566924
20
-3.7456809448818897
11
5.8761961023622042
21
-3.7443826377952756
0
LINE
8
BLACK
6
CONTINUOUS
10
5.8761961023622042
20
-3.7443826377952756
11
5.8758453543307088
21
-3.742393503937008
0
LINE
8
BLACK
6
CONTINUOUS
10
5.8758453543307088
20
-3.742393503937008
11
5.8768552755905512
21
-3.7406443307086614
0
LINE
8
BLACK
6
CONTINUOUS
10
5.8768552755905512
20
-3.7406443307086614
11
5.8787532677165357
21
-3.739953503937008
0
LINE
8
BLACK
6
CONTINUOUS
10
5.8787532677165357
20
-3.739953503937008
11
5.887049094488189
21
-3.739953503937008
0
LINE
8
BLACK
6
CONTINUOUS
10
5.887049094488189
20
-3.739953503937008
11
5.887049094488189
21
-3.735984251968504
0
LINE
8
BLACK
6
CONTINUOUS
10
5.887049094488189
20
-3.735984251968504
11
5.8517244094488188
21
-3.735984251968504
0
LINE
8
BLACK
6
CONTINUOUS
10
5.8517244094488188
20
-3.735984251968504
11
5.8500540944881889
21
-3.7352923622047243
0
LINE
8
BLACK
6
CONTINUOUS
10
5.8500540944881889
20
-3.7352923622047243
11
5.8493622047244092
21
-3.7336220472440944
0
LINE
8
BLACK
6
CONTINUOUS
10
5.8493622047244092
20
-3.7336220472440944
11
5.8493622047244092
21
-3.6863779527559055
0
LINE
8
BLACK
6
CONTINUOUS
10
5.8493622047244092
20
-3.6863779527559055
11
5.8500540944881889
21
-3.6847076377952757
0
LINE
8
BLACK
6
CONTINUOUS
10
5.8500540944881889
20
-3.6847076377952757
11
5.8517244094488188
21
-3.6840157480314959
0
LINE
8
BLACK
6
CONTINUOUS
10
5.8517244094488188
20
-3.6840157480314959
11
5.9245590551181104
21
-3.6840157480314959
0
LINE
8
BLACK
6
CONTINUOUS
10
5.9245590551181104
20
-3.6840157480314959
11
5.9262293700787403
21
-3.6847076377952757
0
LINE
8
BLACK
6
CONTINUOUS
10
5.2609158267716536
20
-3.7391564566929132
11
5.2616077165354334
21
-3.740826771653543
0
LINE
8
BLACK
6
CONTINUOUS
10
5.2616077165354334
20
-3.740826771653543
11
5.2609158267716536
21
-3.7424970866141734
0
LINE
8
BLACK
6
CONTINUOUS
10
5.2609158267716536
20
-3.7424970866141734
11
5.2592455118110237
21
-3.7431889763779527
0
LINE
8
BLACK
6
CONTINUOUS
10
5.2592455118110237
20
-3.7431889763779527
11
5.2507544881889761
21
-3.7431889763779527
0
LINE
8
BLACK
6
CONTINUOUS
10
5.2507544881889761
20
-3.7431889763779527
11
5.2490841732283462
21
-3.7424970866141734
0
LINE
8
BLACK
6
CONTINUOUS
10
5.2490841732283462
20
-3.7424970866141734
11
5.2483922834645664
21
-3.740826771653543
0
LINE
8
BLACK
6
CONTINUOUS
10
5.2483922834645664
20
-3.740826771653543
11
5.2490841732283462
21
-3.7391564566929132
0
LINE
8
BLACK
6
CONTINUOUS
10
5.2490841732283462
20
-3.7391564566929132
11
5.2507544881889761
21
-3.7384645669291339
0
LINE
8
BLACK
6
CONTINUOUS
10
5.2507544881889761
20
-3.7384645669291339
11
5.2592455118110237
21
-3.7384645669291339
0
LINE
8
BLACK
6
CONTINUOUS
10
5.2592455118110237
20
-3.7384645669291339
11
5.2609158267716536
21
-3.7391564566929132
0
LINE
8
BLACK
6
CONTINUOUS
10
5.8081663779527561
20
-3.6793926771653545
11
5.808858267716535
21
-3.6810629921259843
0
LINE
8
BLACK
6
CONTINUOUS
10
5.808858267716535
20
-3.6810629921259843
11
5.8081663779527561
21
-3.6827333070866142
0
LINE
8
BLACK
6
CONTINUOUS
10
5.8081663779527561
20
-3.6827333070866142
11
5.8064960629921263
21
-3.6834251968503935
0
LINE
8
BLACK
6
CONTINUOUS
10
5.8064960629921263
20
-3.6834251968503935
11
5.7120078740157476
21
-3.6834251968503935
0
LINE
8
BLACK
6
CONTINUOUS
10
5.7120078740157476
20
-3.6834251968503935
11
5.7120078740157476
21
-3.736574803149606
0
LINE
8
BLACK
6
CONTINUOUS
10
5.7120078740157476
20
-3.736574803149606
11
5.8064960629921263
21
-3.736574803149606
0
LINE
8
BLACK
6
CONTINUOUS
10
5.8064960629921263
20
-3.736574803149606
11
5.8081663779527561
21
-3.7372666929133858
0
LINE
8
BLACK
6
CONTINUOUS
10
5.8081663779527561
20
-3.7372666929133858
11
5.808858267716535
21
-3.7389370078740156
0
LINE
8
BLACK
6
CONTINUOUS
10
5.808858267716535
20
-3.7389370078740156
11
5.8081663779527561
21
-3.7406073228346455
0
LINE
8
BLACK
6
CONTINUOUS
10
5.8081663779527561
20
-3.7406073228346455
11
5.8064960629921263
21
-3.7412992125984252
0
LINE
8
BLACK
6
CONTINUOUS
10
5.8064960629921263
20
-3.7412992125984252
11
5.7096456692913389
21
-3.7412992125984252
0
LINE
8
BLACK
6
CONTINUOUS
10
5.7096456692913389
20
-3.7412992125984252
11
5.7079753543307081
21
-3.7406073228346455
0
LINE
8
BLACK
6
CONTINUOUS
10
5.7079753543307081
20
-3.7406073228346455
11
5.7072834645669293
21
-3.7389370078740156
0
LINE
8
BLACK
6
CONTINUOUS
10
5.7072834645669293
20
-3.7389370078740156
11
5.7072834645669293
21
-3.6810629921259843
0
LINE
8
BLACK
6
CONTINUOUS
10
5.7072834645669293
20
-3.6810629921259843
11
5.7079753543307081
21
-3.6793926771653545
0
LINE
8
BLACK
6
CONTINUOUS
10
5.7079753543307081
20
-3.6793926771653545
11
5.7096456692913389
21
-3.6787007874015747
0
LINE
8
BLACK
6
CONTINUOUS
10
5.7096456692913389
20
-3.6787007874015747
11
5.8064960629921263
21
-3.6787007874015747
0
LINE
8
BLACK
6
CONTINUOUS
10
5.8064960629921263
20
-3.6787007874015747
11
5.8081663779527561
21
-3.6793926771653545
0
LINE
8
BLACK
6
CONTINUOUS
10
5.370915826771653
20
-3.7341564566929133
11
5.3716077165354328
21
-3.7358267716535432
0
LINE
8
BLACK
6
CONTINUOUS
10
5.3716077165354328
20
-3.7358267716535432
11
5.370915826771653
21
-3.737497086614173
0
LINE
8
BLACK
6
CONTINUOUS
10
5.370915826771653
20
-3.737497086614173
11
5.3692455118110232
21
-3.7381889763779528
0
LINE
8
BLACK
6
CONTINUOUS
10
5.3692455118110232
20
-3.7381889763779528
11
5.3607544881889764
21
-3.7381889763779528
0
LINE
8
BLACK
6
CONTINUOUS
10
5.3607544881889764
20
-3.7381889763779528
11
5.3590841732283465
21
-3.737497086614173
0
LINE
8
BLACK
6
CONTINUOUS
10
5.3590841732283465
20
-3.737497086614173
11
5.3583922834645668
21
-3.7358267716535432
0
LINE
8
BLACK
6
CONTINUOUS
10
5.3583922834645668
20
-3.7358267716535432
11
5.3590841732283465
21
-3.7341564566929133
0
LINE
8
BLACK
6
CONTINUOUS
10
5.3590841732283465
20
-3.7341564566929133
11
5.3607544881889764
21
-3.733464566929134
0
LINE
8
BLACK
6
CONTINUOUS
10
5.3607544881889764
20
-3.733464566929134
11
5.3692455118110232
21
-3.733464566929134
0
LINE
8
BLACK
6
CONTINUOUS
10
5.3692455118110232
20
-3.733464566929134
11
5.370915826771653
21
-3.7341564566929133
0
LINE
8
BLACK
6
CONTINUOUS
10
5.1225581496062995
20
-3.7061309055118108
11
5.1229974803149609
21
-3.7071915748031494
0
LINE
8
BLACK
6
CONTINUOUS
10
5.1229974803149609
20
-3.7071915748031494
11
5.1229974803149609
21
-3.7357629921259843
0
LINE
8
BLACK
6
CONTINUOUS
10
5.1229974803149609
20
-3.7357629921259843
11
5.1225581496062995
21
-3.7368236614173229
0
LINE
8
BLACK
6
CONTINUOUS
10
5.1225581496062995
20
-3.7368236614173229
11
5.1214974803149609
21
-3.7372629921259843
0
LINE
8
BLACK
6
CONTINUOUS
10
5.1214974803149609
20
-3.7372629921259843
11
5.1204368110236222
21
-3.7368236614173229
0
LINE
8
BLACK
6
CONTINUOUS
10
5.1204368110236222
20
-3.7368236614173229
11
5.1199974803149608
21
-3.7357629921259843
0
LINE
8
BLACK
6
CONTINUOUS
10
5.1199974803149608
20
-3.7357629921259843
11
5.1199974803149608
21
-3.7071915748031494
0
LINE
8
BLACK
6
CONTINUOUS
10
5.1199974803149608
20
-3.7071915748031494
11
5.1204368110236222
21
-3.7061309055118108
0
LINE
8
BLACK
6
CONTINUOUS
10
5.1204368110236222
20
-3.7061309055118108
11
5.1214974803149609
21
-3.7056915748031494
0
LINE
8
BLACK
6
CONTINUOUS
10
5.1214974803149609
20
-3.7056915748031494
11
5.1225581496062995
21
-3.7061309055118108
0
LINE
8
BLACK
6
CONTINUOUS
10
5.4174970866141727
20
-3.7190841732283464
11
5.4181889763779525
21
-3.7207544881889763
0
LINE
8
BLACK
6
CONTINUOUS
10
5.4181889763779525
20
-3.7207544881889763
11
5.4181889763779525
21
-3.7292455118110235
0
LINE
8
BLACK
6
CONTINUOUS
10
5.4181889763779525
20
-3.7292455118110235
11
5.4174970866141727
21
-3.7309158267716533
0
LINE
8
BLACK
6
CONTINUOUS
10
5.4174970866141727
20
-3.7309158267716533
11
5.4158267716535429
21
-3.7316077165354331
0
LINE
8
BLACK
6
CONTINUOUS
10
5.4158267716535429
20
-3.7316077165354331
11
5.414156456692913
21
-3.7309158267716533
0
LINE
8
BLACK
6
CONTINUOUS
10
5.414156456692913
20
-3.7309158267716533
11
5.4134645669291341
21
-3.7292455118110235
0
LINE
8
BLACK
6
CONTINUOUS
10
5.4134645669291341
20
-3.7292455118110235
11
5.4134645669291341
21
-3.7207544881889763
0
LINE
8
BLACK
6
CONTINUOUS
10
5.4134645669291341
20
-3.7207544881889763
11
5.414156456692913
21
-3.7190841732283464
0
LINE
8
BLACK
6
CONTINUOUS
10
5.414156456692913
20
-3.7190841732283464
11
5.4158267716535429
21
-3.7183922834645666
0
LINE
8
BLACK
6
CONTINUOUS
10
5.4158267716535429
20
-3.7183922834645666
11
5.4174970866141727
21
-3.7190841732283464
0
LINE
8
BLACK
6
CONTINUOUS
10
5.4458435433070864
20
-3.7190841732283464
11
5.4465354330708662
21
-3.7207544881889763
0
LINE
8
BLACK
6
CONTINUOUS
10
5.4465354330708662
20
-3.7207544881889763
11
5.4465354330708662
21
-3.7292455118110235
0
LINE
8
BLACK
6
CONTINUOUS
10
5.4465354330708662
20
-3.7292455118110235
11
5.4458435433070864
21
-3.7309158267716533
0
LINE
8
BLACK
6
CONTINUOUS
10
5.4458435433070864
20
-3.7309158267716533
11
5.4441732283464566
21
-3.7316077165354331
0
LINE
8
BLACK
6
CONTINUOUS
10
5.4441732283464566
20
-3.7316077165354331
11
5.4425029133858267
21
-3.7309158267716533
0
LINE
8
BLACK
6
CONTINUOUS
10
5.4425029133858267
20
-3.7309158267716533
11
5.4418110236220469
21
-3.7292455118110235
0
LINE
8
BLACK
6
CONTINUOUS
10
5.4418110236220469
20
-3.7292455118110235
11
5.4418110236220469
21
-3.7207544881889763
0
LINE
8
BLACK
6
CONTINUOUS
10
5.4418110236220469
20
-3.7207544881889763
11
5.4425029133858267
21
-3.7190841732283464
0
LINE
8
BLACK
6
CONTINUOUS
10
5.4425029133858267
20
-3.7190841732283464
11
5.4441732283464566
21
-3.7183922834645666
0
LINE
8
BLACK
6
CONTINUOUS
10
5.4441732283464566
20
-3.7183922834645666
11
5.4458435433070864
21
-3.7190841732283464
0
LINE
8
BLACK
6
CONTINUOUS
10
5.6304970866141728
20
-3.7100841732283465
11
5.6311889763779526
21
-3.7117544881889764
0
LINE
8
BLACK
6
CONTINUOUS
10
5.6311889763779526
20
-3.7117544881889764
11
5.6311889763779526
21
-3.7202455118110236
0
LINE
8
BLACK
6
CONTINUOUS
10
5.6311889763779526
20
-3.7202455118110236
11
5.6304970866141728
21
-3.7219158267716534
0
LINE
8
BLACK
6
CONTINUOUS
10
5.6304970866141728
20
-3.7219158267716534
11
5.6288267716535429
21
-3.7226077165354328
0
LINE
8
BLACK
6
CONTINUOUS
10
5.6288267716535429
20
-3.7226077165354328
11
5.6271564566929131
21
-3.7219158267716534
0
LINE
8
BLACK
6
CONTINUOUS
10
5.6271564566929131
20
-3.7219158267716534
11
5.6264645669291333
21
-3.7202455118110236
0
LINE
8
BLACK
6
CONTINUOUS
10
5.6264645669291333
20
-3.7202455118110236
11
5.6264645669291333
21
-3.7117544881889764
0
LINE
8
BLACK
6
CONTINUOUS
10
5.6264645669291333
20
-3.7117544881889764
11
5.6271564566929131
21
-3.7100841732283465
0
LINE
8
BLACK
6
CONTINUOUS
10
5.6271564566929131
20
-3.7100841732283465
11
5.6288267716535429
21
-3.7093922834645667
0
LINE
8
BLACK
6
CONTINUOUS
10
5.6288267716535429
20
-3.7093922834645667
11
5.6304970866141728
21
-3.7100841732283465
0
LINE
8
BLACK
6
CONTINUOUS
10
5.6588435433070865
20
-3.7100841732283465
11
5.6595354330708663
21
-3.7117544881889764
0
LINE
8
BLACK
6
CONTINUOUS
10
5.6595354330708663
20
-3.7117544881889764
11
5.6595354330708663
21
-3.7202455118110236
0
LINE
8
BLACK
6
CONTINUOUS
10
5.6595354330708663
20
-3.7202455118110236
11
5.6588435433070865
21
-3.7219158267716534
0
LINE
8
BLACK
6
CONTINUOUS
10
5.6588435433070865
20
-3.7219158267716534
11
5.6571732283464566
21
-3.7226077165354328
0
LINE
8
BLACK
6
CONTINUOUS
10
5.6571732283464566
20
-3.7226077165354328
11
5.6555029133858268
21
-3.7219158267716534
0
LINE
8
BLACK
6
CONTINUOUS
10
5.6555029133858268
20
-3.7219158267716534
11
5.654811023622047
21
-3.7202455118110236
0
LINE
8
BLACK
6
CONTINUOUS
10
5.654811023622047
20
-3.7202455118110236
11
5.654811023622047
21
-3.7117544881889764
0
LINE
8
BLACK
6
CONTINUOUS
10
5.654811023622047
20
-3.7117544881889764
11
5.6555029133858268
21
-3.7100841732283465
0
LINE
8
BLACK
6
CONTINUOUS
10
5.6555029133858268
20
-3.7100841732283465
11
5.6571732283464566
21
-3.7093922834645667
0
LINE
8
BLACK
6
CONTINUOUS
10
5.6571732283464566
20
-3.7093922834645667
11
5.6588435433070865
21
-3.7100841732283465
0
LINE
8
BLACK
6
CONTINUOUS
10
5.1280170866141734
20
-3.6756308661417321
11
5.1286760629921258
21
-3.6765709448818895
0
LINE
8
BLACK
6
CONTINUOUS
10
5.1286760629921258
20
-3.6765709448818895
11
5.1284772440944879
21
-3.6777016535433069
0
LINE
8
BLACK
6
CONTINUOUS
10
5.1284772440944879
20
-3.6777016535433069
11
5.1220450787401575
21
-3.6878092913385827
0
LINE
8
BLACK
6
CONTINUOUS
10
5.1220450787401575
20
-3.6878092913385827
11
5.1220450787401575
21
-3.6968963385826772
0
LINE
8
BLACK
6
CONTINUOUS
10
5.1220450787401575
20
-3.6968963385826772
11
5.121605748031496
21
-3.6979570078740158
0
LINE
8
BLACK
6
CONTINUOUS
10
5.121605748031496
20
-3.6979570078740158
11
5.1205450787401574
21
-3.6983963385826772
0
LINE
8
BLACK
6
CONTINUOUS
10
5.1205450787401574
20
-3.6983963385826772
11
5.1194844094488188
21
-3.6979570078740158
0
LINE
8
BLACK
6
CONTINUOUS
10
5.1194844094488188
20
-3.6979570078740158
11
5.1190450787401574
21
-3.6968963385826772
0
LINE
8
BLACK
6
CONTINUOUS
10
5.1190450787401574
20
-3.6968963385826772
11
5.1190450787401574
21
-3.6878092913385827
0
LINE
8
BLACK
6
CONTINUOUS
10
5.1190450787401574
20
-3.6878092913385827
11
5.1126129133858269
21
-3.6777016535433069
0
LINE
8
BLACK
6
CONTINUOUS
10
5.1126129133858269
20
-3.6777016535433069
11
5.1124141338582678
21
-3.6765709448818895
0
LINE
8
BLACK
6
CONTINUOUS
10
5.1124141338582678
20
-3.6765709448818895
11
5.1130731102362201
21
-3.6756308267716533
0
LINE
8
BLACK
6
CONTINUOUS
10
5.1130731102362201
20
-3.6756308267716533
11
5.1142038188976375
21
-3.6754320472440942
0
LINE
8
BLACK
6
CONTINUOUS
10
5.1142038188976375
20
-3.6754320472440942
11
5.1151439370078737
21
-3.676091023622047
0
LINE
8
BLACK
6
CONTINUOUS
10
5.1151439370078737
20
-3.676091023622047
11
5.1205450787401574
21
-3.6845785433070866
0
LINE
8
BLACK
6
CONTINUOUS
10
5.1205450787401574
20
-3.6845785433070866
11
5.1259462598425198
21
-3.676091023622047
0
LINE
8
BLACK
6
CONTINUOUS
10
5.1259462598425198
20
-3.676091023622047
11
5.126886377952756
21
-3.6754320472440942
0
LINE
8
BLACK
6
CONTINUOUS
10
5.126886377952756
20
-3.6754320472440942
11
5.1280170866141734
21
-3.6756308661417321
0
LINE
8
BLACK
6
CONTINUOUS
10
5.5350000000000001
20
-3.671220472440945
11
5.6058661417322835
21
-3.671220472440945
0
LINE
8
BLACK
6
CONTINUOUS
10
5.6058661417322835
20
-3.671220472440945
11
5.6075364566929133
21
-3.6719123622047243
0
LINE
8
BLACK
6
CONTINUOUS
10
5.6075364566929133
20
-3.6719123622047243
11
5.6082283464566931
21
-3.6735826771653541
0
LINE
8
BLACK
6
CONTINUOUS
10
5.6082283464566931
20
-3.6735826771653541
11
5.6075364566929133
21
-3.675252992125984
0
LINE
8
BLACK
6
CONTINUOUS
10
5.6075364566929133
20
-3.675252992125984
11
5.6058661417322835
21
-3.6759448818897638
0
LINE
8
BLACK
6
CONTINUOUS
10
5.6058661417322835
20
-3.6759448818897638
11
5.5350000000000001
21
-3.6759448818897638
0
LINE
8
BLACK
6
CONTINUOUS
10
5.5350000000000001
20
-3.6759448818897638
11
5.5035039370078742
21
-3.6759448818897638
0
LINE
8
BLACK
6
CONTINUOUS
10
5.5035039370078742
20
-3.6759448818897638
11
5.5018336220472444
21
-3.675252992125984
0
LINE
8
BLACK
6
CONTINUOUS
10
5.5018336220472444
20
-3.675252992125984
11
5.5011417322834646
21
-3.6735826771653541
0
LINE
8
BLACK
6
CONTINUOUS
10
5.5011417322834646
20
-3.6735826771653541
11
5.5018336220472444
21
-3.6719123622047243
0
LINE
8
BLACK
6
CONTINUOUS
10
5.5018336220472444
20
-3.6719123622047243
11
5.5035039370078742
21
-3.671220472440945
0
LINE
8
BLACK
6
CONTINUOUS
10
5.5035039370078742
20
-3.671220472440945
11
5.5350000000000001
21
-3.671220472440945
0
CIRCLE
8
BLACK
10
4.8884251968503936
20
-3.6494488188976377
40
0.0068897637795276
0
CIRCLE
8
BLACK
10
4.8884251968503936
20
-4.2400000000000002
40
0.0068897637795276
0
CIRCLE
8
BLACK
10
5.2821259842519686
20
-4.2400000000000002
40
0.0068897637795276
0
CIRCLE
8
BLACK
10
5.2821259842519686
20
-3.6494488188976377
40
0.0068897637795276
0
CIRCLE
8
BLACK
10
5.146299212598425
20
-4.0037795275590549
40
0.0068897637795276
0
CIRCLE
8
BLACK
10
4.8588976377952751
20
-4.0037795275590549
40
0.0068897637795276
0
CIRCLE
8
BLACK
10
4.8588976377952751
20
-3.834488188976378
40
0.0068897637795276
  0
ENDSEC
  0
EOF
