  0
SECTION
  2
HEADER
  9
$ANGBASE
  50
0.0
  9
$ANGDIR
  70
1
  9
$MEASUREMENT
  70
0
  0
ENDSEC
  0
SECTION
  2
TABLES
  0
TABLE
  2
LTYPE
  70
4
  0
LTYPE
  5
40F
  2
CONTINUOUS
  70
0
  3
Solid line
  72
65
  73
0
  40
0.0
  0
LTYPE
  5
410
  2
DASHDOT
 70
0
  3
Dash Dot ____ _ ____ _
 72
65
 73
4
 40
2.0
 49
1.25
 49
-0.25
 49
0.25
 49
-0.25
  0
LTYPE
  5
411
  2
DASHED
 70
0
  3
Dashed __ __ __ __ __
 72
65
 73
2
 40
0.75
 49
0.5
 49
-0.25
  0
LTYPE
  5
43B
  2
DOTTED
 70
0
  3
Dotted .  .  .  .
 72
65
 73
2
 40
0.2
 49
0.0
 49
-0.2
  0
ENDTAB
  0
TABLE
  2
STYLE
  70
4
  0
STYLE
  2
KICAD
  70
0
  40
0
  41
1
  42
1
  50
0
  71
0
  3
isocp.shx
  0
STYLE
  2
KICADB
  70
0
  40
0
  41
1
  42
1
  50
0
  71
0
  3
isocp.shx
  0
STYLE
  2
KICADI
  70
0
  40
0
  41
1
  42
1
  50
15
  71
0
  3
isocp.shx
  0
STYLE
  2
KICADBI
  70
0
  40
0
  41
1
  42
1
  50
15
  71
0
  3
isocp.shx
  0
ENDTAB
  0
TABLE
  2
LAYER
  70
1
  0
LAYER
  2
BLACK
  70
0
  62
7
  6
CONTINUOUS
  0
ENDTAB
  0
ENDSEC
  0
SECTION
  2
ENTITIES
0
LINE
8
BLACK
6
CONTINUOUS
10
5.6638805905511811
20
-4.0174764960629918
11
5.6644132677165349
21
-4.0180091732283465
0
LINE
8
BLACK
6
CONTINUOUS
10
5.6644132677165349
20
-4.0180091732283465
11
5.6644881889763781
21
-4.0916141732283462
0
LINE
8
BLACK
6
CONTINUOUS
10
5.6644881889763781
20
-4.0916141732283462
11
5.6644132677165349
21
-4.0919908267716538
0
LINE
8
BLACK
6
CONTINUOUS
10
5.6644132677165349
20
-4.0919908267716538
11
5.664291338582677
21
-4.092112716535433
0
LINE
8
BLACK
6
CONTINUOUS
10
5.664291338582677
20
-4.092112716535433
11
5.7207086614173228
21
-4.0920866141732279
0
LINE
8
BLACK
6
CONTINUOUS
10
5.7207086614173228
20
-4.0920866141732279
11
5.7210853149606296
21
-4.0921615354330712
0
LINE
8
BLACK
6
CONTINUOUS
10
5.7210853149606296
20
-4.0921615354330712
11
5.7216179921259842
21
-4.0926942125984249
0
LINE
8
BLACK
6
CONTINUOUS
10
5.7216179921259842
20
-4.0926942125984249
11
5.7216929133858265
21
-4.2269291338582677
0
LINE
8
BLACK
6
CONTINUOUS
10
5.7216929133858265
20
-4.2269291338582677
11
5.7216179921259842
21
-4.2273057874015745
0
LINE
8
BLACK
6
CONTINUOUS
10
5.7216179921259842
20
-4.2273057874015745
11
5.7210853149606296
21
-4.2278384645669291
0
LINE
8
BLACK
6
CONTINUOUS
10
5.7210853149606296
20
-4.2278384645669291
11
5.5592913385826774
21
-4.2279133858267715
0
LINE
8
BLACK
6
CONTINUOUS
10
5.5592913385826774
20
-4.2279133858267715
11
5.5589146850393698
21
-4.2278384645669291
0
LINE
8
BLACK
6
CONTINUOUS
10
5.5589146850393698
20
-4.2278384645669291
11
5.558382007874016
21
-4.2273057874015745
0
LINE
8
BLACK
6
CONTINUOUS
10
5.558382007874016
20
-4.2273057874015745
11
5.5583070866141728
21
-4.0930708661417325
0
LINE
8
BLACK
6
CONTINUOUS
10
5.5583070866141728
20
-4.0930708661417325
11
5.558382007874016
21
-4.0926942125984249
0
LINE
8
BLACK
6
CONTINUOUS
10
5.558382007874016
20
-4.0926942125984249
11
5.5584918110236217
21
-4.0925843700787397
0
LINE
8
BLACK
6
CONTINUOUS
10
5.5584918110236217
20
-4.0925843700787397
11
5.5514960629921255
21
-4.0925984251968499
0
LINE
8
BLACK
6
CONTINUOUS
10
5.5514960629921255
20
-4.0925984251968499
11
5.5511194094488188
21
-4.0925235039370076
0
LINE
8
BLACK
6
CONTINUOUS
10
5.5511194094488188
20
-4.0925235039370076
11
5.5505867322834641
21
-4.0919908267716538
0
LINE
8
BLACK
6
CONTINUOUS
10
5.5505867322834641
20
-4.0919908267716538
11
5.5505118110236218
21
-4.0183858267716532
0
LINE
8
BLACK
6
CONTINUOUS
10
5.5505118110236218
20
-4.0183858267716532
11
5.5505867322834641
21
-4.0180091732283465
0
LINE
8
BLACK
6
CONTINUOUS
10
5.5505867322834641
20
-4.0180091732283465
11
5.5511194094488188
21
-4.0174764960629918
0
LINE
8
BLACK
6
CONTINUOUS
10
5.5511194094488188
20
-4.0174764960629918
11
5.5885039370078742
21
-4.0174015748031495
0
LINE
8
BLACK
6
CONTINUOUS
10
5.5885039370078742
20
-4.0174015748031495
11
5.5888805905511809
21
-4.0174764960629918
0
LINE
8
BLACK
6
CONTINUOUS
10
5.5888805905511809
20
-4.0174764960629918
11
5.5894132677165356
21
-4.0180091732283465
0
LINE
8
BLACK
6
CONTINUOUS
10
5.5894132677165356
20
-4.0180091732283465
11
5.5894881889763779
21
-4.0916141732283462
0
LINE
8
BLACK
6
CONTINUOUS
10
5.5894881889763779
20
-4.0916141732283462
11
5.5894132677165356
21
-4.0919908267716538
0
LINE
8
BLACK
6
CONTINUOUS
10
5.5894132677165356
20
-4.0919908267716538
11
5.5892565748031497
21
-4.0921474803149609
0
LINE
8
BLACK
6
CONTINUOUS
10
5.5892565748031497
20
-4.0921474803149609
11
5.6257264960629918
21
-4.0921305905511813
0
LINE
8
BLACK
6
CONTINUOUS
10
5.6257264960629918
20
-4.0921305905511813
11
5.6255867322834643
21
-4.0919908267716538
0
LINE
8
BLACK
6
CONTINUOUS
10
5.6255867322834643
20
-4.0919908267716538
11
5.625511811023622
21
-4.0183858267716532
0
LINE
8
BLACK
6
CONTINUOUS
10
5.625511811023622
20
-4.0183858267716532
11
5.6255867322834643
21
-4.0180091732283465
0
LINE
8
BLACK
6
CONTINUOUS
10
5.6255867322834643
20
-4.0180091732283465
11
5.6261194094488189
21
-4.0174764960629918
0
LINE
8
BLACK
6
CONTINUOUS
10
5.6261194094488189
20
-4.0174764960629918
11
5.6635039370078735
21
-4.0174015748031495
0
LINE
8
BLACK
6
CONTINUOUS
10
5.6635039370078735
20
-4.0174015748031495
11
5.6638805905511811
21
-4.0174764960629918
0
LINE
8
BLACK
6
CONTINUOUS
10
5.5602014173228342
20
-4.09405468503937
11
5.5602750787401574
21
-4.2260191338582676
0
LINE
8
BLACK
6
CONTINUOUS
10
5.5602750787401574
20
-4.2260191338582676
11
5.7197985433070864
21
-4.2259452755905507
0
LINE
8
BLACK
6
CONTINUOUS
10
5.7197985433070864
20
-4.2259452755905507
11
5.7197248818897632
21
-4.0939808267716531
0
LINE
8
BLACK
6
CONTINUOUS
10
5.7197248818897632
20
-4.0939808267716531
11
5.5602014173228342
21
-4.09405468503937
0
LINE
8
BLACK
6
CONTINUOUS
10
5.5524067716535432
20
-4.0193682283464565
11
5.55247937007874
21
-4.090702086614173
0
LINE
8
BLACK
6
CONTINUOUS
10
5.55247937007874
20
-4.090702086614173
11
5.5875931889763777
21
-4.0906317322834642
0
LINE
8
BLACK
6
CONTINUOUS
10
5.5875931889763777
20
-4.0906317322834642
11
5.5875205905511809
21
-4.0192978740157477
0
LINE
8
BLACK
6
CONTINUOUS
10
5.5875205905511809
20
-4.0192978740157477
11
5.5524067716535432
21
-4.0193682283464565
0
LINE
8
BLACK
6
CONTINUOUS
10
5.6274067716535434
20
-4.0193682283464565
11
5.6274793700787402
21
-4.090702086614173
0
LINE
8
BLACK
6
CONTINUOUS
10
5.6274793700787402
20
-4.090702086614173
11
5.6625931889763779
21
-4.0906317322834642
0
LINE
8
BLACK
6
CONTINUOUS
10
5.6625931889763779
20
-4.0906317322834642
11
5.6625205905511811
21
-4.0192978740157477
0
LINE
8
BLACK
6
CONTINUOUS
10
5.6625205905511811
20
-4.0192978740157477
11
5.6274067716535434
21
-4.0193682283464565
0
LINE
8
BLACK
6
CONTINUOUS
10
5.9793530314960632
20
-3.757988307086614
11
5.979885708661417
21
-3.7585209842519682
0
LINE
8
BLACK
6
CONTINUOUS
10
5.979885708661417
20
-3.7585209842519682
11
5.9799606299212593
21
-4.1305511811023621
0
LINE
8
BLACK
6
CONTINUOUS
10
5.9799606299212593
20
-4.1305511811023621
11
5.979885708661417
21
-4.1309278346456688
0
LINE
8
BLACK
6
CONTINUOUS
10
5.979885708661417
20
-4.1309278346456688
11
5.9793530314960632
21
-4.1314605118110235
0
LINE
8
BLACK
6
CONTINUOUS
10
5.9793530314960632
20
-4.1314605118110235
11
5.9259870866141728
21
-4.1314763385826767
0
LINE
8
BLACK
6
CONTINUOUS
10
5.9259870866141728
20
-4.1314763385826767
11
5.9260984251968498
21
-4.1315282677165355
0
LINE
8
BLACK
6
CONTINUOUS
10
5.9260984251968498
20
-4.1315282677165355
11
5.9332659055118109
21
-4.1365469685039367
0
LINE
8
BLACK
6
CONTINUOUS
10
5.9332659055118109
20
-4.1365469685039367
11
5.939453031496063
21
-4.1427340944881887
0
LINE
8
BLACK
6
CONTINUOUS
10
5.939453031496063
20
-4.1427340944881887
11
5.9444717322834641
21
-4.1499015748031498
0
LINE
8
BLACK
6
CONTINUOUS
10
5.9444717322834641
20
-4.1499015748031498
11
5.9481696062992127
21
-4.1578316535433073
0
LINE
8
BLACK
6
CONTINUOUS
10
5.9481696062992127
20
-4.1578316535433073
11
5.9504342519685034
21
-4.1662834251968501
0
LINE
8
BLACK
6
CONTINUOUS
10
5.9504342519685034
20
-4.1662834251968501
11
5.9511968503937007
21
-4.1749999999999998
0
LINE
8
BLACK
6
CONTINUOUS
10
5.9511968503937007
20
-4.1749999999999998
11
5.9504342519685034
21
-4.1837165748031495
0
LINE
8
BLACK
6
CONTINUOUS
10
5.9504342519685034
20
-4.1837165748031495
11
5.9481696062992127
21
-4.1921683464566932
0
LINE
8
BLACK
6
CONTINUOUS
10
5.9481696062992127
20
-4.1921683464566932
11
5.9444717322834641
21
-4.2000984251968507
0
LINE
8
BLACK
6
CONTINUOUS
10
5.9444717322834641
20
-4.2000984251968507
11
5.939453031496063
21
-4.2072659055118109
0
LINE
8
BLACK
6
CONTINUOUS
10
5.939453031496063
20
-4.2072659055118109
11
5.9332659055118109
21
-4.213453031496063
0
LINE
8
BLACK
6
CONTINUOUS
10
5.9332659055118109
20
-4.213453031496063
11
5.9260984251968498
21
-4.2184717322834642
0
LINE
8
BLACK
6
CONTINUOUS
10
5.9260984251968498
20
-4.2184717322834642
11
5.9181683464566932
21
-4.2221696062992127
0
LINE
8
BLACK
6
CONTINUOUS
10
5.9181683464566932
20
-4.2221696062992127
11
5.9097165748031495
21
-4.2244342519685034
0
LINE
8
BLACK
6
CONTINUOUS
10
5.9097165748031495
20
-4.2244342519685034
11
5.9009999999999998
21
-4.2251968503937007
0
LINE
8
BLACK
6
CONTINUOUS
10
5.9009999999999998
20
-4.2251968503937007
11
5.8922834251968501
21
-4.2244342519685034
0
LINE
8
BLACK
6
CONTINUOUS
10
5.8922834251968501
20
-4.2244342519685034
11
5.8838316535433073
21
-4.2221696062992127
0
LINE
8
BLACK
6
CONTINUOUS
10
5.8838316535433073
20
-4.2221696062992127
11
5.8759015748031498
21
-4.2184717322834642
0
LINE
8
BLACK
6
CONTINUOUS
10
5.8759015748031498
20
-4.2184717322834642
11
5.8687340944881887
21
-4.213453031496063
0
LINE
8
BLACK
6
CONTINUOUS
10
5.8687340944881887
20
-4.213453031496063
11
5.8625469685039366
21
-4.2072659055118109
0
LINE
8
BLACK
6
CONTINUOUS
10
5.8625469685039366
20
-4.2072659055118109
11
5.8575282677165355
21
-4.2000984251968507
0
LINE
8
BLACK
6
CONTINUOUS
10
5.8575282677165355
20
-4.2000984251968507
11
5.8538303937007869
21
-4.1921683464566932
0
LINE
8
BLACK
6
CONTINUOUS
10
5.8538303937007869
20
-4.1921683464566932
11
5.8515657480314962
21
-4.1837165748031495
0
LINE
8
BLACK
6
CONTINUOUS
10
5.8515657480314962
20
-4.1837165748031495
11
5.8508031496062989
21
-4.1749999999999998
0
LINE
8
BLACK
6
CONTINUOUS
10
5.8508031496062989
20
-4.1749999999999998
11
5.8515657480314962
21
-4.1662834251968501
0
LINE
8
BLACK
6
CONTINUOUS
10
5.8515657480314962
20
-4.1662834251968501
11
5.8538303937007869
21
-4.1578316535433073
0
LINE
8
BLACK
6
CONTINUOUS
10
5.8538303937007869
20
-4.1578316535433073
11
5.8575282677165355
21
-4.1499015748031498
0
LINE
8
BLACK
6
CONTINUOUS
10
5.8575282677165355
20
-4.1499015748031498
11
5.8625469685039366
21
-4.1427340944881887
0
LINE
8
BLACK
6
CONTINUOUS
10
5.8625469685039366
20
-4.1427340944881887
11
5.8687340944881887
21
-4.1365469685039367
0
LINE
8
BLACK
6
CONTINUOUS
10
5.8687340944881887
20
-4.1365469685039367
11
5.8759015748031498
21
-4.1315282677165355
0
LINE
8
BLACK
6
CONTINUOUS
10
5.8759015748031498
20
-4.1315282677165355
11
5.8759810236220469
21
-4.131491181102362
0
LINE
8
BLACK
6
CONTINUOUS
10
5.8759810236220469
20
-4.131491181102362
11
5.7270078740157482
21
-4.1315354330708658
0
LINE
8
BLACK
6
CONTINUOUS
10
5.7270078740157482
20
-4.1315354330708658
11
5.7266312204724406
21
-4.1314605118110235
0
LINE
8
BLACK
6
CONTINUOUS
10
5.7266312204724406
20
-4.1314605118110235
11
5.7260985433070868
21
-4.1309278346456688
0
LINE
8
BLACK
6
CONTINUOUS
10
5.7260985433070868
20
-4.1309278346456688
11
5.7260236220472436
21
-3.7588976377952754
0
LINE
8
BLACK
6
CONTINUOUS
10
5.7260236220472436
20
-3.7588976377952754
11
5.7260985433070868
21
-3.7585209842519682
0
LINE
8
BLACK
6
CONTINUOUS
10
5.7260985433070868
20
-3.7585209842519682
11
5.7266312204724406
21
-3.757988307086614
0
LINE
8
BLACK
6
CONTINUOUS
10
5.7266312204724406
20
-3.757988307086614
11
5.9789763779527556
21
-3.7579133858267717
0
LINE
8
BLACK
6
CONTINUOUS
10
5.9789763779527556
20
-3.7579133858267717
11
5.9793530314960632
21
-3.757988307086614
0
LINE
8
BLACK
6
CONTINUOUS
10
5.7279174409448821
20
-3.7598816141732283
11
5.7279919291338581
21
-4.1296414173228344
0
LINE
8
BLACK
6
CONTINUOUS
10
5.7279919291338581
20
-4.1296414173228344
11
5.8800446456692912
21
-4.1295962992125981
0
LINE
8
BLACK
6
CONTINUOUS
10
5.8800446456692912
20
-4.1295962992125981
11
5.8838316535433073
21
-4.127830393700787
0
LINE
8
BLACK
6
CONTINUOUS
10
5.8838316535433073
20
-4.127830393700787
11
5.8922834251968501
21
-4.1255657480314962
0
LINE
8
BLACK
6
CONTINUOUS
10
5.8922834251968501
20
-4.1255657480314962
11
5.9009999999999998
21
-4.1248031496062989
0
LINE
8
BLACK
6
CONTINUOUS
10
5.9009999999999998
20
-4.1248031496062989
11
5.9097165748031495
21
-4.1255657480314962
0
LINE
8
BLACK
6
CONTINUOUS
10
5.9097165748031495
20
-4.1255657480314962
11
5.9181683464566932
21
-4.127830393700787
0
LINE
8
BLACK
6
CONTINUOUS
10
5.9181683464566932
20
-4.127830393700787
11
5.921928661417323
21
-4.1295838582677167
0
LINE
8
BLACK
6
CONTINUOUS
10
5.921928661417323
20
-4.1295838582677167
11
5.9780667716535429
21
-4.1295671653543309
0
LINE
8
BLACK
6
CONTINUOUS
10
5.9780667716535429
20
-4.1295671653543309
11
5.9779922834645669
21
-3.7598073622047243
0
LINE
8
BLACK
6
CONTINUOUS
10
5.9779922834645669
20
-3.7598073622047243
11
5.7279174409448821
21
-3.7598816141732283
0
LINE
8
BLACK
6
CONTINUOUS
10
5.8925932283464562
20
-4.1273229527559057
11
5.8844419291338586
21
-4.129507086614173
0
LINE
8
BLACK
6
CONTINUOUS
10
5.8844419291338586
20
-4.129507086614173
11
5.8842532677165353
21
-4.1295950393700789
0
LINE
8
BLACK
6
CONTINUOUS
10
5.8842532677165353
20
-4.1295950393700789
11
5.9177253937007874
21
-4.1295850787401571
0
LINE
8
BLACK
6
CONTINUOUS
10
5.9177253937007874
20
-4.1295850787401571
11
5.9175580708661419
21
-4.129507086614173
0
LINE
8
BLACK
6
CONTINUOUS
10
5.9175580708661419
20
-4.129507086614173
11
5.9094067716535434
21
-4.1273229527559057
0
LINE
8
BLACK
6
CONTINUOUS
10
5.9094067716535434
20
-4.1273229527559057
11
5.9009999999999998
21
-4.1265874409448822
0
LINE
8
BLACK
6
CONTINUOUS
10
5.9009999999999998
20
-4.1265874409448822
11
5.8925932283464562
21
-4.1273229527559057
0
LINE
8
BLACK
6
CONTINUOUS
10
5.8533229527559056
20
-4.1834067716535435
11
5.855507086614173
21
-4.191558070866142
0
LINE
8
BLACK
6
CONTINUOUS
10
5.855507086614173
20
-4.191558070866142
11
5.8590735039370081
21
-4.199206299212598
0
LINE
8
BLACK
6
CONTINUOUS
10
5.8590735039370081
20
-4.199206299212598
11
5.8639138188976379
21
-4.2061189763779527
0
LINE
8
BLACK
6
CONTINUOUS
10
5.8639138188976379
20
-4.2061189763779527
11
5.8698810236220469
21
-4.2120861811023618
0
LINE
8
BLACK
6
CONTINUOUS
10
5.8698810236220469
20
-4.2120861811023618
11
5.8767937007874016
21
-4.2169264960629924
0
LINE
8
BLACK
6
CONTINUOUS
10
5.8767937007874016
20
-4.2169264960629924
11
5.8844419291338586
21
-4.2204929133858267
0
LINE
8
BLACK
6
CONTINUOUS
10
5.8844419291338586
20
-4.2204929133858267
11
5.8925932283464562
21
-4.222677047244094
0
LINE
8
BLACK
6
CONTINUOUS
10
5.8925932283464562
20
-4.222677047244094
11
5.9009999999999998
21
-4.2234125590551184
0
LINE
8
BLACK
6
CONTINUOUS
10
5.9009999999999998
20
-4.2234125590551184
11
5.9094067716535434
21
-4.222677047244094
0
LINE
8
BLACK
6
CONTINUOUS
10
5.9094067716535434
20
-4.222677047244094
11
5.9175580708661419
21
-4.2204929133858267
0
LINE
8
BLACK
6
CONTINUOUS
10
5.9175580708661419
20
-4.2204929133858267
11
5.925206299212598
21
-4.2169264960629924
0
LINE
8
BLACK
6
CONTINUOUS
10
5.925206299212598
20
-4.2169264960629924
11
5.9321189763779527
21
-4.2120861811023618
0
LINE
8
BLACK
6
CONTINUOUS
10
5.9321189763779527
20
-4.2120861811023618
11
5.9380861811023617
21
-4.2061189763779527
0
LINE
8
BLACK
6
CONTINUOUS
10
5.9380861811023617
20
-4.2061189763779527
11
5.9429264960629924
21
-4.199206299212598
0
LINE
8
BLACK
6
CONTINUOUS
10
5.9429264960629924
20
-4.199206299212598
11
5.9464929133858266
21
-4.191558070866142
0
LINE
8
BLACK
6
CONTINUOUS
10
5.9464929133858266
20
-4.191558070866142
11
5.948677047244094
21
-4.1834067716535435
0
LINE
8
BLACK
6
CONTINUOUS
10
5.948677047244094
20
-4.1834067716535435
11
5.9494125590551183
21
-4.1749999999999998
0
LINE
8
BLACK
6
CONTINUOUS
10
5.9494125590551183
20
-4.1749999999999998
11
5.948677047244094
21
-4.1665932283464562
0
LINE
8
BLACK
6
CONTINUOUS
10
5.948677047244094
20
-4.1665932283464562
11
5.9464929133858266
21
-4.1584419291338586
0
LINE
8
BLACK
6
CONTINUOUS
10
5.9464929133858266
20
-4.1584419291338586
11
5.9429264960629924
21
-4.1507937401574804
0
LINE
8
BLACK
6
CONTINUOUS
10
5.9429264960629924
20
-4.1507937401574804
11
5.9380861811023617
21
-4.1438810236220469
0
LINE
8
BLACK
6
CONTINUOUS
10
5.9380861811023617
20
-4.1438810236220469
11
5.9321189763779527
21
-4.1379138188976379
0
LINE
8
BLACK
6
CONTINUOUS
10
5.9321189763779527
20
-4.1379138188976379
11
5.925206299212598
21
-4.1330735039370081
0
LINE
8
BLACK
6
CONTINUOUS
10
5.925206299212598
20
-4.1330735039370081
11
5.921783858267716
21
-4.1314775984251968
0
LINE
8
BLACK
6
CONTINUOUS
10
5.921783858267716
20
-4.1314775984251968
11
5.880189645669291
21
-4.1314899212598428
0
LINE
8
BLACK
6
CONTINUOUS
10
5.880189645669291
20
-4.1314899212598428
11
5.8767937401574804
21
-4.1330735039370081
0
LINE
8
BLACK
6
CONTINUOUS
10
5.8767937401574804
20
-4.1330735039370081
11
5.8698810236220469
21
-4.1379138188976379
0
LINE
8
BLACK
6
CONTINUOUS
10
5.8698810236220469
20
-4.1379138188976379
11
5.8639138188976379
21
-4.1438810236220469
0
LINE
8
BLACK
6
CONTINUOUS
10
5.8639138188976379
20
-4.1438810236220469
11
5.8590735039370081
21
-4.1507937401574804
0
LINE
8
BLACK
6
CONTINUOUS
10
5.8590735039370081
20
-4.1507937401574804
11
5.855507086614173
21
-4.1584419291338586
0
LINE
8
BLACK
6
CONTINUOUS
10
5.855507086614173
20
-4.1584419291338586
11
5.8533229527559056
21
-4.1665932283464562
0
LINE
8
BLACK
6
CONTINUOUS
10
5.8533229527559056
20
-4.1665932283464562
11
5.8525874409448821
21
-4.1749999999999998
0
LINE
8
BLACK
6
CONTINUOUS
10
5.8525874409448821
20
-4.1749999999999998
11
5.8533229527559056
21
-4.1834067716535435
0
LINE
8
BLACK
6
CONTINUOUS
10
5.7694868897637797
20
-4.1412638976377956
11
5.7700195669291334
21
-4.1417965748031493
0
LINE
8
BLACK
6
CONTINUOUS
10
5.7700195669291334
20
-4.1417965748031493
11
5.7700944881889766
21
-4.2138267716535429
0
LINE
8
BLACK
6
CONTINUOUS
10
5.7700944881889766
20
-4.2138267716535429
11
5.7700195669291334
21
-4.2142034251968505
0
LINE
8
BLACK
6
CONTINUOUS
10
5.7700195669291334
20
-4.2142034251968505
11
5.7694868897637797
21
-4.2147361023622043
0
LINE
8
BLACK
6
CONTINUOUS
10
5.7694868897637797
20
-4.2147361023622043
11
5.7328897637795277
21
-4.2148110236220475
0
LINE
8
BLACK
6
CONTINUOUS
10
5.7328897637795277
20
-4.2148110236220475
11
5.7325131102362201
21
-4.2147361023622043
0
LINE
8
BLACK
6
CONTINUOUS
10
5.7325131102362201
20
-4.2147361023622043
11
5.7319804330708664
21
-4.2142034251968505
0
LINE
8
BLACK
6
CONTINUOUS
10
5.7319804330708664
20
-4.2142034251968505
11
5.7319055118110231
21
-4.142173228346457
0
LINE
8
BLACK
6
CONTINUOUS
10
5.7319055118110231
20
-4.142173228346457
11
5.7319804330708664
21
-4.1417965748031493
0
LINE
8
BLACK
6
CONTINUOUS
10
5.7319804330708664
20
-4.1417965748031493
11
5.7325131102362201
21
-4.1412638976377956
0
LINE
8
BLACK
6
CONTINUOUS
10
5.7325131102362201
20
-4.1412638976377956
11
5.769110236220472
21
-4.1411889763779524
0
LINE
8
BLACK
6
CONTINUOUS
10
5.769110236220472
20
-4.1411889763779524
11
5.7694868897637797
21
-4.1412638976377956
0
LINE
8
BLACK
6
CONTINUOUS
10
5.7338004724409446
20
-4.1431555905511814
11
5.7338730314960626
21
-4.212914645669291
0
LINE
8
BLACK
6
CONTINUOUS
10
5.7338730314960626
20
-4.212914645669291
11
5.7681994881889764
21
-4.2128443700787397
0
LINE
8
BLACK
6
CONTINUOUS
10
5.7681994881889764
20
-4.2128443700787397
11
5.7681269291338584
21
-4.1430853149606301
0
LINE
8
BLACK
6
CONTINUOUS
10
5.7681269291338584
20
-4.1430853149606301
11
5.7338004724409446
21
-4.1431555905511814
0
LINE
8
BLACK
6
CONTINUOUS
10
5.8134868897637793
20
-4.1412638976377956
11
5.8140195669291339
21
-4.1417965748031493
0
LINE
8
BLACK
6
CONTINUOUS
10
5.8140195669291339
20
-4.1417965748031493
11
5.8140944881889762
21
-4.2138267716535429
0
LINE
8
BLACK
6
CONTINUOUS
10
5.8140944881889762
20
-4.2138267716535429
11
5.8140195669291339
21
-4.2142034251968505
0
LINE
8
BLACK
6
CONTINUOUS
10
5.8140195669291339
20
-4.2142034251968505
11
5.8134868897637793
21
-4.2147361023622043
0
LINE
8
BLACK
6
CONTINUOUS
10
5.8134868897637793
20
-4.2147361023622043
11
5.7768897637795273
21
-4.2148110236220475
0
LINE
8
BLACK
6
CONTINUOUS
10
5.7768897637795273
20
-4.2148110236220475
11
5.7765131102362206
21
-4.2147361023622043
0
LINE
8
BLACK
6
CONTINUOUS
10
5.7765131102362206
20
-4.2147361023622043
11
5.7759804330708659
21
-4.2142034251968505
0
LINE
8
BLACK
6
CONTINUOUS
10
5.7759804330708659
20
-4.2142034251968505
11
5.7759055118110236
21
-4.142173228346457
0
LINE
8
BLACK
6
CONTINUOUS
10
5.7759055118110236
20
-4.142173228346457
11
5.7759804330708659
21
-4.1417965748031493
0
LINE
8
BLACK
6
CONTINUOUS
10
5.7759804330708659
20
-4.1417965748031493
11
5.7765131102362206
21
-4.1412638976377956
0
LINE
8
BLACK
6
CONTINUOUS
10
5.7765131102362206
20
-4.1412638976377956
11
5.8131102362204725
21
-4.1411889763779524
0
LINE
8
BLACK
6
CONTINUOUS
10
5.8131102362204725
20
-4.1411889763779524
11
5.8134868897637793
21
-4.1412638976377956
0
LINE
8
BLACK
6
CONTINUOUS
10
5.7778004724409451
20
-4.1431555905511814
11
5.7778730314960631
21
-4.212914645669291
0
LINE
8
BLACK
6
CONTINUOUS
10
5.7778730314960631
20
-4.212914645669291
11
5.812199488188976
21
-4.2128443700787397
0
LINE
8
BLACK
6
CONTINUOUS
10
5.812199488188976
20
-4.2128443700787397
11
5.812126929133858
21
-4.1430853149606301
0
LINE
8
BLACK
6
CONTINUOUS
10
5.812126929133858
20
-4.1430853149606301
11
5.7778004724409451
21
-4.1431555905511814
0
LINE
8
BLACK
6
CONTINUOUS
10
5.0188805905511806
20
-4.1324764960629921
11
5.0194132677165353
21
-4.1330091732283467
0
LINE
8
BLACK
6
CONTINUOUS
10
5.0194132677165353
20
-4.1330091732283467
11
5.0194881889763776
21
-4.2066141732283464
0
LINE
8
BLACK
6
CONTINUOUS
10
5.0194881889763776
20
-4.2066141732283464
11
5.0194132677165353
21
-4.2069908267716531
0
LINE
8
BLACK
6
CONTINUOUS
10
5.0194132677165353
20
-4.2069908267716531
11
5.0188805905511806
21
-4.2075235039370078
0
LINE
8
BLACK
6
CONTINUOUS
10
5.0188805905511806
20
-4.2075235039370078
11
4.9814960629921261
21
-4.2075984251968501
0
LINE
8
BLACK
6
CONTINUOUS
10
4.9814960629921261
20
-4.2075984251968501
11
4.9811194094488185
21
-4.2075235039370078
0
LINE
8
BLACK
6
CONTINUOUS
10
4.9811194094488185
20
-4.2075235039370078
11
4.9805867322834647
21
-4.2069908267716531
0
LINE
8
BLACK
6
CONTINUOUS
10
4.9805867322834647
20
-4.2069908267716531
11
4.9805118110236215
21
-4.1333858267716534
0
LINE
8
BLACK
6
CONTINUOUS
10
4.9805118110236215
20
-4.1333858267716534
11
4.9805867322834647
21
-4.1330091732283467
0
LINE
8
BLACK
6
CONTINUOUS
10
4.9805867322834647
20
-4.1330091732283467
11
4.9811194094488185
21
-4.1324764960629921
0
LINE
8
BLACK
6
CONTINUOUS
10
4.9811194094488185
20
-4.1324764960629921
11
5.0185039370078739
21
-4.1324015748031497
0
LINE
8
BLACK
6
CONTINUOUS
10
5.0185039370078739
20
-4.1324015748031497
11
5.0188805905511806
21
-4.1324764960629921
0
LINE
8
BLACK
6
CONTINUOUS
10
4.982406771653543
20
-4.1343682283464567
11
4.9824793700787398
21
-4.2057020866141732
0
LINE
8
BLACK
6
CONTINUOUS
10
4.9824793700787398
20
-4.2057020866141732
11
5.0175931889763774
21
-4.2056317322834644
0
LINE
8
BLACK
6
CONTINUOUS
10
5.0175931889763774
20
-4.2056317322834644
11
5.0175205905511806
21
-4.1342978740157479
0
LINE
8
BLACK
6
CONTINUOUS
10
5.0175205905511806
20
-4.1342978740157479
11
4.982406771653543
21
-4.1343682283464567
0
LINE
8
BLACK
6
CONTINUOUS
10
5.5384868897637798
20
-4.1132638976377951
11
5.5390195669291336
21
-4.1137965748031498
0
LINE
8
BLACK
6
CONTINUOUS
10
5.5390195669291336
20
-4.1137965748031498
11
5.5390944881889759
21
-4.1858267716535433
0
LINE
8
BLACK
6
CONTINUOUS
10
5.5390944881889759
20
-4.1858267716535433
11
5.5390195669291336
21
-4.1862034251968501
0
LINE
8
BLACK
6
CONTINUOUS
10
5.5390195669291336
20
-4.1862034251968501
11
5.5384868897637798
21
-4.1867361023622047
0
LINE
8
BLACK
6
CONTINUOUS
10
5.5384868897637798
20
-4.1867361023622047
11
5.5018897637795279
21
-4.186811023622047
0
LINE
8
BLACK
6
CONTINUOUS
10
5.5018897637795279
20
-4.186811023622047
11
5.5015131102362202
21
-4.1867361023622047
0
LINE
8
BLACK
6
CONTINUOUS
10
5.5015131102362202
20
-4.1867361023622047
11
5.5009804330708656
21
-4.1862034251968501
0
LINE
8
BLACK
6
CONTINUOUS
10
5.5009804330708656
20
-4.1862034251968501
11
5.5009055118110233
21
-4.1141732283464565
0
LINE
8
BLACK
6
CONTINUOUS
10
5.5009055118110233
20
-4.1141732283464565
11
5.5009804330708656
21
-4.1137965748031498
0
LINE
8
BLACK
6
CONTINUOUS
10
5.5009804330708656
20
-4.1137965748031498
11
5.5015131102362202
21
-4.1132638976377951
0
LINE
8
BLACK
6
CONTINUOUS
10
5.5015131102362202
20
-4.1132638976377951
11
5.5381102362204722
21
-4.1131889763779528
0
LINE
8
BLACK
6
CONTINUOUS
10
5.5381102362204722
20
-4.1131889763779528
11
5.5384868897637798
21
-4.1132638976377951
0
LINE
8
BLACK
6
CONTINUOUS
10
5.5028004724409447
20
-4.115155590551181
11
5.5028730314960628
21
-4.1849146456692914
0
LINE
8
BLACK
6
CONTINUOUS
10
5.5028730314960628
20
-4.1849146456692914
11
5.5371994881889766
21
-4.1848443700787401
0
LINE
8
BLACK
6
CONTINUOUS
10
5.5371994881889766
20
-4.1848443700787401
11
5.5371269291338585
21
-4.1150853149606297
0
LINE
8
BLACK
6
CONTINUOUS
10
5.5371269291338585
20
-4.1150853149606297
11
5.5028004724409447
21
-4.115155590551181
0
LINE
8
BLACK
6
CONTINUOUS
10
5.3815183858267712
20
-4.0282245275590549
11
5.3820510629921259
21
-4.0287572047244096
0
LINE
8
BLACK
6
CONTINUOUS
10
5.3820510629921259
20
-4.0287572047244096
11
5.3821259842519682
21
-4.170866141732283
0
LINE
8
BLACK
6
CONTINUOUS
10
5.3821259842519682
20
-4.170866141732283
11
5.3820510629921259
21
-4.1712427952755906
0
LINE
8
BLACK
6
CONTINUOUS
10
5.3820510629921259
20
-4.1712427952755906
11
5.3815183858267712
21
-4.1717754724409444
0
LINE
8
BLACK
6
CONTINUOUS
10
5.3815183858267712
20
-4.1717754724409444
11
5.1488582677165349
21
-4.1718503937007876
0
LINE
8
BLACK
6
CONTINUOUS
10
5.1488582677165349
20
-4.1718503937007876
11
5.1484816141732281
21
-4.1717754724409444
0
LINE
8
BLACK
6
CONTINUOUS
10
5.1484816141732281
20
-4.1717754724409444
11
5.1479489370078735
21
-4.1712427952755906
0
LINE
8
BLACK
6
CONTINUOUS
10
5.1479489370078735
20
-4.1712427952755906
11
5.1478740157480312
21
-4.0291338582677163
0
LINE
8
BLACK
6
CONTINUOUS
10
5.1478740157480312
20
-4.0291338582677163
11
5.1479489370078735
21
-4.0287572047244096
0
LINE
8
BLACK
6
CONTINUOUS
10
5.1479489370078735
20
-4.0287572047244096
11
5.1484816141732281
21
-4.0282245275590549
0
LINE
8
BLACK
6
CONTINUOUS
10
5.1484816141732281
20
-4.0282245275590549
11
5.3811417322834645
21
-4.0281496062992126
0
LINE
8
BLACK
6
CONTINUOUS
10
5.3811417322834645
20
-4.0281496062992126
11
5.3815183858267712
21
-4.0282245275590549
0
LINE
8
BLACK
6
CONTINUOUS
10
5.1497683070866138
20
-4.0301177952755909
11
5.1498420078740157
21
-4.1699563385826774
0
LINE
8
BLACK
6
CONTINUOUS
10
5.1498420078740157
20
-4.1699563385826774
11
5.3802316535433068
21
-4.1698821653543305
0
LINE
8
BLACK
6
CONTINUOUS
10
5.3802316535433068
20
-4.1698821653543305
11
5.3801579527559058
21
-4.030043622047244
0
LINE
8
BLACK
6
CONTINUOUS
10
5.3801579527559058
20
-4.030043622047244
11
5.1497683070866138
21
-4.0301177952755909
0
LINE
8
BLACK
6
CONTINUOUS
10
5.0738805905511812
20
-4.0825552362204727
11
5.074413267716535
21
-4.0830879133858264
0
LINE
8
BLACK
6
CONTINUOUS
10
5.074413267716535
20
-4.0830879133858264
11
5.0744881889763782
21
-4.156692913385827
0
LINE
8
BLACK
6
CONTINUOUS
10
5.0744881889763782
20
-4.156692913385827
11
5.074413267716535
21
-4.1570695669291338
0
LINE
8
BLACK
6
CONTINUOUS
10
5.074413267716535
20
-4.1570695669291338
11
5.0738805905511812
21
-4.1576022440944884
0
LINE
8
BLACK
6
CONTINUOUS
10
5.0738805905511812
20
-4.1576022440944884
11
5.0364960629921258
21
-4.1576771653543307
0
LINE
8
BLACK
6
CONTINUOUS
10
5.0364960629921258
20
-4.1576771653543307
11
5.0361194094488191
21
-4.1576022440944884
0
LINE
8
BLACK
6
CONTINUOUS
10
5.0361194094488191
20
-4.1576022440944884
11
5.0355867322834644
21
-4.1570695669291338
0
LINE
8
BLACK
6
CONTINUOUS
10
5.0355867322834644
20
-4.1570695669291338
11
5.0355118110236221
21
-4.0834645669291341
0
LINE
8
BLACK
6
CONTINUOUS
10
5.0355118110236221
20
-4.0834645669291341
11
5.0355867322834644
21
-4.0830879133858264
0
LINE
8
BLACK
6
CONTINUOUS
10
5.0355867322834644
20
-4.0830879133858264
11
5.0361194094488191
21
-4.0825552362204727
0
LINE
8
BLACK
6
CONTINUOUS
10
5.0361194094488191
20
-4.0825552362204727
11
5.0735039370078736
21
-4.0824803149606295
0
LINE
8
BLACK
6
CONTINUOUS
10
5.0735039370078736
20
-4.0824803149606295
11
5.0738805905511812
21
-4.0825552362204727
0
LINE
8
BLACK
6
CONTINUOUS
10
5.0374067716535436
20
-4.0844469685039373
11
5.0374793700787404
21
-4.1557808267716538
0
LINE
8
BLACK
6
CONTINUOUS
10
5.0374793700787404
20
-4.1557808267716538
11
5.072593188976378
21
-4.155710472440945
0
LINE
8
BLACK
6
CONTINUOUS
10
5.072593188976378
20
-4.155710472440945
11
5.0725205905511812
21
-4.0843766141732285
0
LINE
8
BLACK
6
CONTINUOUS
10
5.0725205905511812
20
-4.0843766141732285
11
5.0374067716535436
21
-4.0844469685039373
0
LINE
8
BLACK
6
CONTINUOUS
10
5.4719908267716537
20
-4.1105867322834646
11
5.4725235039370075
21
-4.1111194094488184
0
LINE
8
BLACK
6
CONTINUOUS
10
5.4725235039370075
20
-4.1111194094488184
11
5.4725984251968507
21
-4.1485039370078738
0
LINE
8
BLACK
6
CONTINUOUS
10
5.4725984251968507
20
-4.1485039370078738
11
5.4725235039370075
21
-4.1488805905511814
0
LINE
8
BLACK
6
CONTINUOUS
10
5.4725235039370075
20
-4.1488805905511814
11
5.4719908267716537
21
-4.1494132677165352
0
LINE
8
BLACK
6
CONTINUOUS
10
5.4719908267716537
20
-4.1494132677165352
11
5.3983858267716531
21
-4.1494881889763775
0
LINE
8
BLACK
6
CONTINUOUS
10
5.3983858267716531
20
-4.1494881889763775
11
5.3980091732283464
21
-4.1494132677165352
0
LINE
8
BLACK
6
CONTINUOUS
10
5.3980091732283464
20
-4.1494132677165352
11
5.3974764960629917
21
-4.1488805905511814
0
LINE
8
BLACK
6
CONTINUOUS
10
5.3974764960629917
20
-4.1488805905511814
11
5.3974015748031494
21
-4.111496062992126
0
LINE
8
BLACK
6
CONTINUOUS
10
5.3974015748031494
20
-4.111496062992126
11
5.3974764960629917
21
-4.1111194094488184
0
LINE
8
BLACK
6
CONTINUOUS
10
5.3974764960629917
20
-4.1111194094488184
11
5.3980091732283464
21
-4.1105867322834646
0
LINE
8
BLACK
6
CONTINUOUS
10
5.3980091732283464
20
-4.1105867322834646
11
5.4716141732283461
21
-4.1105118110236223
0
LINE
8
BLACK
6
CONTINUOUS
10
5.4716141732283461
20
-4.1105118110236223
11
5.4719908267716537
21
-4.1105867322834646
0
LINE
8
BLACK
6
CONTINUOUS
10
5.3992978740157476
20
-4.1124793700787396
11
5.3993682283464564
21
-4.1475931889763782
0
LINE
8
BLACK
6
CONTINUOUS
10
5.3993682283464564
20
-4.1475931889763782
11
5.4707020866141729
21
-4.1475205905511814
0
LINE
8
BLACK
6
CONTINUOUS
10
5.4707020866141729
20
-4.1475205905511814
11
5.4706317322834641
21
-4.1124067716535428
0
LINE
8
BLACK
6
CONTINUOUS
10
5.4706317322834641
20
-4.1124067716535428
11
5.3992978740157476
21
-4.1124793700787396
0
LINE
8
BLACK
6
CONTINUOUS
10
4.8738805905511811
20
-4.0724764960629924
11
4.8744132677165357
21
-4.0730091732283462
0
LINE
8
BLACK
6
CONTINUOUS
10
4.8744132677165357
20
-4.0730091732283462
11
4.874488188976378
21
-4.1466141732283468
0
LINE
8
BLACK
6
CONTINUOUS
10
4.874488188976378
20
-4.1466141732283468
11
4.8744132677165357
21
-4.1469908267716535
0
LINE
8
BLACK
6
CONTINUOUS
10
4.8744132677165357
20
-4.1469908267716535
11
4.8738805905511811
21
-4.1475235039370082
0
LINE
8
BLACK
6
CONTINUOUS
10
4.8738805905511811
20
-4.1475235039370082
11
4.8364960629921256
21
-4.1475984251968505
0
LINE
8
BLACK
6
CONTINUOUS
10
4.8364960629921256
20
-4.1475984251968505
11
4.8361194094488189
21
-4.1475235039370082
0
LINE
8
BLACK
6
CONTINUOUS
10
4.8361194094488189
20
-4.1475235039370082
11
4.8355867322834643
21
-4.1469908267716535
0
LINE
8
BLACK
6
CONTINUOUS
10
4.8355867322834643
20
-4.1469908267716535
11
4.8355118110236219
21
-4.0733858267716538
0
LINE
8
BLACK
6
CONTINUOUS
10
4.8355118110236219
20
-4.0733858267716538
11
4.8355867322834643
21
-4.0730091732283462
0
LINE
8
BLACK
6
CONTINUOUS
10
4.8355867322834643
20
-4.0730091732283462
11
4.8361194094488189
21
-4.0724764960629924
0
LINE
8
BLACK
6
CONTINUOUS
10
4.8361194094488189
20
-4.0724764960629924
11
4.8735039370078743
21
-4.0724015748031492
0
LINE
8
BLACK
6
CONTINUOUS
10
4.8735039370078743
20
-4.0724015748031492
11
4.8738805905511811
21
-4.0724764960629924
0
LINE
8
BLACK
6
CONTINUOUS
10
4.8374067716535434
20
-4.0743682283464562
11
4.8374793700787402
21
-4.1457020866141727
0
LINE
8
BLACK
6
CONTINUOUS
10
4.8374793700787402
20
-4.1457020866141727
11
4.8725931889763778
21
-4.1456317322834648
0
LINE
8
BLACK
6
CONTINUOUS
10
4.8725931889763778
20
-4.1456317322834648
11
4.872520590551181
21
-4.0742978740157483
0
LINE
8
BLACK
6
CONTINUOUS
10
4.872520590551181
20
-4.0742978740157483
11
4.8374067716535434
21
-4.0743682283464562
0
LINE
8
BLACK
6
CONTINUOUS
10
5.02120342519685
20
-4.0859804330708664
11
5.0217361023622047
21
-4.0865131102362202
0
LINE
8
BLACK
6
CONTINUOUS
10
5.0217361023622047
20
-4.0865131102362202
11
5.021811023622047
21
-4.1231102362204721
0
LINE
8
BLACK
6
CONTINUOUS
10
5.021811023622047
20
-4.1231102362204721
11
5.0217361023622047
21
-4.1234868897637798
0
LINE
8
BLACK
6
CONTINUOUS
10
5.0217361023622047
20
-4.1234868897637798
11
5.02120342519685
21
-4.1240195669291335
0
LINE
8
BLACK
6
CONTINUOUS
10
5.02120342519685
20
-4.1240195669291335
11
4.9491732283464565
21
-4.1240944881889767
0
LINE
8
BLACK
6
CONTINUOUS
10
4.9491732283464565
20
-4.1240944881889767
11
4.9487965748031497
21
-4.1240195669291335
0
LINE
8
BLACK
6
CONTINUOUS
10
4.9487965748031497
20
-4.1240195669291335
11
4.9482638976377951
21
-4.1234868897637798
0
LINE
8
BLACK
6
CONTINUOUS
10
4.9482638976377951
20
-4.1234868897637798
11
4.9481889763779527
21
-4.0868897637795278
0
LINE
8
BLACK
6
CONTINUOUS
10
4.9481889763779527
20
-4.0868897637795278
11
4.9482638976377951
21
-4.0865131102362202
0
LINE
8
BLACK
6
CONTINUOUS
10
4.9482638976377951
20
-4.0865131102362202
11
4.9487965748031497
21
-4.0859804330708664
0
LINE
8
BLACK
6
CONTINUOUS
10
4.9487965748031497
20
-4.0859804330708664
11
5.0208267716535433
21
-4.0859055118110232
0
LINE
8
BLACK
6
CONTINUOUS
10
5.0208267716535433
20
-4.0859055118110232
11
5.02120342519685
21
-4.0859804330708664
0
LINE
8
BLACK
6
CONTINUOUS
10
4.9500853149606296
20
-4.0878730314960627
11
4.9501555905511809
21
-4.1221994881889765
0
LINE
8
BLACK
6
CONTINUOUS
10
4.9501555905511809
20
-4.1221994881889765
11
5.0199146456692914
21
-4.1221269291338585
0
LINE
8
BLACK
6
CONTINUOUS
10
5.0199146456692914
20
-4.1221269291338585
11
5.0198443700787401
21
-4.0878004724409447
0
LINE
8
BLACK
6
CONTINUOUS
10
5.0198443700787401
20
-4.0878004724409447
11
4.9500853149606296
21
-4.0878730314960627
0
LINE
8
BLACK
6
CONTINUOUS
10
5.4719908267716537
20
-4.0655867322834647
11
5.4725235039370075
21
-4.0661194094488184
0
LINE
8
BLACK
6
CONTINUOUS
10
5.4725235039370075
20
-4.0661194094488184
11
5.4725984251968507
21
-4.1035039370078739
0
LINE
8
BLACK
6
CONTINUOUS
10
5.4725984251968507
20
-4.1035039370078739
11
5.4725235039370075
21
-4.1038805905511806
0
LINE
8
BLACK
6
CONTINUOUS
10
5.4725235039370075
20
-4.1038805905511806
11
5.4719908267716537
21
-4.1044132677165353
0
LINE
8
BLACK
6
CONTINUOUS
10
5.4719908267716537
20
-4.1044132677165353
11
5.3983858267716531
21
-4.1044881889763776
0
LINE
8
BLACK
6
CONTINUOUS
10
5.3983858267716531
20
-4.1044881889763776
11
5.3980091732283464
21
-4.1044132677165353
0
LINE
8
BLACK
6
CONTINUOUS
10
5.3980091732283464
20
-4.1044132677165353
11
5.3974764960629917
21
-4.1038805905511806
0
LINE
8
BLACK
6
CONTINUOUS
10
5.3974764960629917
20
-4.1038805905511806
11
5.3974015748031494
21
-4.0664960629921261
0
LINE
8
BLACK
6
CONTINUOUS
10
5.3974015748031494
20
-4.0664960629921261
11
5.3974764960629917
21
-4.0661194094488184
0
LINE
8
BLACK
6
CONTINUOUS
10
5.3974764960629917
20
-4.0661194094488184
11
5.3980091732283464
21
-4.0655867322834647
0
LINE
8
BLACK
6
CONTINUOUS
10
5.3980091732283464
20
-4.0655867322834647
11
5.4716141732283461
21
-4.0655118110236224
0
LINE
8
BLACK
6
CONTINUOUS
10
5.4716141732283461
20
-4.0655118110236224
11
5.4719908267716537
21
-4.0655867322834647
0
LINE
8
BLACK
6
CONTINUOUS
10
5.3992978740157476
20
-4.0674793700787397
11
5.3993682283464564
21
-4.1025931889763783
0
LINE
8
BLACK
6
CONTINUOUS
10
5.3993682283464564
20
-4.1025931889763783
11
5.4707020866141729
21
-4.1025205905511806
0
LINE
8
BLACK
6
CONTINUOUS
10
5.4707020866141729
20
-4.1025205905511806
11
5.4706317322834641
21
-4.0674067716535429
0
LINE
8
BLACK
6
CONTINUOUS
10
5.4706317322834641
20
-4.0674067716535429
11
5.3992978740157476
21
-4.0674793700787397
0
LINE
8
BLACK
6
CONTINUOUS
10
5.5384868897637798
20
-4.0232638976377952
11
5.5390195669291336
21
-4.0237965748031499
0
LINE
8
BLACK
6
CONTINUOUS
10
5.5390195669291336
20
-4.0237965748031499
11
5.5390944881889759
21
-4.0958267716535435
0
LINE
8
BLACK
6
CONTINUOUS
10
5.5390944881889759
20
-4.0958267716535435
11
5.5390195669291336
21
-4.0962034251968502
0
LINE
8
BLACK
6
CONTINUOUS
10
5.5390195669291336
20
-4.0962034251968502
11
5.5384868897637798
21
-4.0967361023622049
0
LINE
8
BLACK
6
CONTINUOUS
10
5.5384868897637798
20
-4.0967361023622049
11
5.5018897637795279
21
-4.0968110236220472
0
LINE
8
BLACK
6
CONTINUOUS
10
5.5018897637795279
20
-4.0968110236220472
11
5.5015131102362202
21
-4.0967361023622049
0
LINE
8
BLACK
6
CONTINUOUS
10
5.5015131102362202
20
-4.0967361023622049
11
5.5009804330708656
21
-4.0962034251968502
0
LINE
8
BLACK
6
CONTINUOUS
10
5.5009804330708656
20
-4.0962034251968502
11
5.5009055118110233
21
-4.0241732283464566
0
LINE
8
BLACK
6
CONTINUOUS
10
5.5009055118110233
20
-4.0241732283464566
11
5.5009804330708656
21
-4.0237965748031499
0
LINE
8
BLACK
6
CONTINUOUS
10
5.5009804330708656
20
-4.0237965748031499
11
5.5015131102362202
21
-4.0232638976377952
0
LINE
8
BLACK
6
CONTINUOUS
10
5.5015131102362202
20
-4.0232638976377952
11
5.5381102362204722
21
-4.0231889763779529
0
LINE
8
BLACK
6
CONTINUOUS
10
5.5381102362204722
20
-4.0231889763779529
11
5.5384868897637798
21
-4.0232638976377952
0
LINE
8
BLACK
6
CONTINUOUS
10
5.5028004724409447
20
-4.0251555905511811
11
5.5028730314960628
21
-4.0949146456692915
0
LINE
8
BLACK
6
CONTINUOUS
10
5.5028730314960628
20
-4.0949146456692915
11
5.5371994881889766
21
-4.0948443700787402
0
LINE
8
BLACK
6
CONTINUOUS
10
5.5371994881889766
20
-4.0948443700787402
11
5.5371269291338585
21
-4.0250853149606298
0
LINE
8
BLACK
6
CONTINUOUS
10
5.5371269291338585
20
-4.0250853149606298
11
5.5028004724409447
21
-4.0251555905511811
0
LINE
8
BLACK
6
CONTINUOUS
10
5.7215183858267711
20
-3.8732245275590551
11
5.7220510629921257
21
-3.8737572047244093
0
LINE
8
BLACK
6
CONTINUOUS
10
5.7220510629921257
20
-3.8737572047244093
11
5.7221259842519681
21
-4.0158661417322836
0
LINE
8
BLACK
6
CONTINUOUS
10
5.7221259842519681
20
-4.0158661417322836
11
5.7220510629921257
21
-4.0162427952755904
0
LINE
8
BLACK
6
CONTINUOUS
10
5.7220510629921257
20
-4.0162427952755904
11
5.7215183858267711
21
-4.016775472440945
0
LINE
8
BLACK
6
CONTINUOUS
10
5.7215183858267711
20
-4.016775472440945
11
5.7090024803149602
21
-4.016779488188976
0
LINE
8
BLACK
6
CONTINUOUS
10
5.7090024803149602
20
-4.016779488188976
11
5.7090195669291335
21
-4.0167965748031493
0
LINE
8
BLACK
6
CONTINUOUS
10
5.7090195669291335
20
-4.0167965748031493
11
5.7090944881889767
21
-4.0888267716535429
0
LINE
8
BLACK
6
CONTINUOUS
10
5.7090944881889767
20
-4.0888267716535429
11
5.7090195669291335
21
-4.0892034251968505
0
LINE
8
BLACK
6
CONTINUOUS
10
5.7090195669291335
20
-4.0892034251968505
11
5.7084868897637797
21
-4.0897361023622043
0
LINE
8
BLACK
6
CONTINUOUS
10
5.7084868897637797
20
-4.0897361023622043
11
5.6718897637795278
21
-4.0898110236220475
0
LINE
8
BLACK
6
CONTINUOUS
10
5.6718897637795278
20
-4.0898110236220475
11
5.6715131102362202
21
-4.0897361023622043
0
LINE
8
BLACK
6
CONTINUOUS
10
5.6715131102362202
20
-4.0897361023622043
11
5.6709804330708664
21
-4.0892034251968505
0
LINE
8
BLACK
6
CONTINUOUS
10
5.6709804330708664
20
-4.0892034251968505
11
5.6709055118110232
21
-4.017173228346457
0
LINE
8
BLACK
6
CONTINUOUS
10
5.6709055118110232
20
-4.017173228346457
11
5.6709804330708664
21
-4.0167965748031493
0
LINE
8
BLACK
6
CONTINUOUS
10
5.6709804330708664
20
-4.0167965748031493
11
5.6709852362204725
21
-4.0167917322834645
0
LINE
8
BLACK
6
CONTINUOUS
10
5.6709852362204725
20
-4.0167917322834645
11
5.4888582677165356
21
-4.0168503937007873
0
LINE
8
BLACK
6
CONTINUOUS
10
5.4888582677165356
20
-4.0168503937007873
11
5.488481614173228
21
-4.016775472440945
0
LINE
8
BLACK
6
CONTINUOUS
10
5.488481614173228
20
-4.016775472440945
11
5.4879489370078742
21
-4.0162427952755904
0
LINE
8
BLACK
6
CONTINUOUS
10
5.4879489370078742
20
-4.0162427952755904
11
5.487874015748031
21
-3.8741338582677165
0
LINE
8
BLACK
6
CONTINUOUS
10
5.487874015748031
20
-3.8741338582677165
11
5.4879489370078742
21
-3.8737572047244093
0
LINE
8
BLACK
6
CONTINUOUS
10
5.4879489370078742
20
-3.8737572047244093
11
5.488481614173228
21
-3.8732245275590551
0
LINE
8
BLACK
6
CONTINUOUS
10
5.488481614173228
20
-3.8732245275590551
11
5.7211417322834643
21
-3.8731496062992123
0
LINE
8
BLACK
6
CONTINUOUS
10
5.7211417322834643
20
-3.8731496062992123
11
5.7215183858267711
21
-3.8732245275590551
0
LINE
8
BLACK
6
CONTINUOUS
10
5.6728004724409447
20
-4.0181555905511814
11
5.6728730314960627
21
-4.087914645669291
0
LINE
8
BLACK
6
CONTINUOUS
10
5.6728730314960627
20
-4.087914645669291
11
5.7071994881889765
21
-4.0878443700787397
0
LINE
8
BLACK
6
CONTINUOUS
10
5.7071994881889765
20
-4.0878443700787397
11
5.7071269291338584
21
-4.0180853149606301
0
LINE
8
BLACK
6
CONTINUOUS
10
5.7071269291338584
20
-4.0180853149606301
11
5.6728004724409447
21
-4.0181555905511814
0
LINE
8
BLACK
6
CONTINUOUS
10
5.4897683070866137
20
-3.8751177952755906
11
5.4898420078740156
21
-4.0149563385826772
0
LINE
8
BLACK
6
CONTINUOUS
10
5.4898420078740156
20
-4.0149563385826772
11
5.7202316535433066
21
-4.0148821653543303
0
LINE
8
BLACK
6
CONTINUOUS
10
5.7202316535433066
20
-4.0148821653543303
11
5.7201579527559057
21
-3.8750436220472442
0
LINE
8
BLACK
6
CONTINUOUS
10
5.7201579527559057
20
-3.8750436220472442
11
5.4897683070866137
21
-3.8751177952755906
0
LINE
8
BLACK
6
CONTINUOUS
10
5.4284868897637795
20
-3.9832638976377952
11
5.4290195669291341
21
-3.9837965748031494
0
LINE
8
BLACK
6
CONTINUOUS
10
5.4290195669291341
20
-3.9837965748031494
11
5.4290944881889764
21
-4.0558267716535434
0
LINE
8
BLACK
6
CONTINUOUS
10
5.4290944881889764
20
-4.0558267716535434
11
5.4290195669291341
21
-4.0562034251968502
0
LINE
8
BLACK
6
CONTINUOUS
10
5.4290195669291341
20
-4.0562034251968502
11
5.4284868897637795
21
-4.0567361023622048
0
LINE
8
BLACK
6
CONTINUOUS
10
5.4284868897637795
20
-4.0567361023622048
11
5.3918897637795276
21
-4.0568110236220472
0
LINE
8
BLACK
6
CONTINUOUS
10
5.3918897637795276
20
-4.0568110236220472
11
5.3915131102362199
21
-4.0567361023622048
0
LINE
8
BLACK
6
CONTINUOUS
10
5.3915131102362199
20
-4.0567361023622048
11
5.3909804330708662
21
-4.0562034251968502
0
LINE
8
BLACK
6
CONTINUOUS
10
5.3909804330708662
20
-4.0562034251968502
11
5.3909055118110238
21
-3.9841732283464566
0
LINE
8
BLACK
6
CONTINUOUS
10
5.3909055118110238
20
-3.9841732283464566
11
5.3909804330708662
21
-3.9837965748031494
0
LINE
8
BLACK
6
CONTINUOUS
10
5.3909804330708662
20
-3.9837965748031494
11
5.3915131102362199
21
-3.9832638976377952
0
LINE
8
BLACK
6
CONTINUOUS
10
5.3915131102362199
20
-3.9832638976377952
11
5.4281102362204727
21
-3.9831889763779529
0
LINE
8
BLACK
6
CONTINUOUS
10
5.4281102362204727
20
-3.9831889763779529
11
5.4284868897637795
21
-3.9832638976377952
0
LINE
8
BLACK
6
CONTINUOUS
10
5.3928004724409444
20
-3.9851555905511811
11
5.3928730314960625
21
-4.0549146456692915
0
LINE
8
BLACK
6
CONTINUOUS
10
5.3928730314960625
20
-4.0549146456692915
11
5.4271994881889762
21
-4.0548443700787402
0
LINE
8
BLACK
6
CONTINUOUS
10
5.4271994881889762
20
-4.0548443700787402
11
5.4271269291338582
21
-3.9850853149606298
0
LINE
8
BLACK
6
CONTINUOUS
10
5.4271269291338582
20
-3.9850853149606298
11
5.3928004724409444
21
-3.9851555905511811
0
LINE
8
BLACK
6
CONTINUOUS
10
5.4738805905511807
20
-3.9624764960629921
11
5.4744132677165354
21
-3.9630091732283463
0
LINE
8
BLACK
6
CONTINUOUS
10
5.4744132677165354
20
-3.9630091732283463
11
5.4744881889763777
21
-4.0366141732283465
0
LINE
8
BLACK
6
CONTINUOUS
10
5.4744881889763777
20
-4.0366141732283465
11
5.4744132677165354
21
-4.0369908267716532
0
LINE
8
BLACK
6
CONTINUOUS
10
5.4744132677165354
20
-4.0369908267716532
11
5.4738805905511807
21
-4.0375235039370079
0
LINE
8
BLACK
6
CONTINUOUS
10
5.4738805905511807
20
-4.0375235039370079
11
5.4364960629921262
21
-4.0375984251968502
0
LINE
8
BLACK
6
CONTINUOUS
10
5.4364960629921262
20
-4.0375984251968502
11
5.4361194094488186
21
-4.0375235039370079
0
LINE
8
BLACK
6
CONTINUOUS
10
5.4361194094488186
20
-4.0375235039370079
11
5.4355867322834648
21
-4.0369908267716532
0
LINE
8
BLACK
6
CONTINUOUS
10
5.4355867322834648
20
-4.0369908267716532
11
5.4355118110236216
21
-3.9633858267716535
0
LINE
8
BLACK
6
CONTINUOUS
10
5.4355118110236216
20
-3.9633858267716535
11
5.4355867322834648
21
-3.9630091732283463
0
LINE
8
BLACK
6
CONTINUOUS
10
5.4355867322834648
20
-3.9630091732283463
11
5.4361194094488186
21
-3.9624764960629921
0
LINE
8
BLACK
6
CONTINUOUS
10
5.4361194094488186
20
-3.9624764960629921
11
5.473503937007874
21
-3.9624015748031494
0
LINE
8
BLACK
6
CONTINUOUS
10
5.473503937007874
20
-3.9624015748031494
11
5.4738805905511807
21
-3.9624764960629921
0
LINE
8
BLACK
6
CONTINUOUS
10
5.437406771653543
20
-3.9643682283464567
11
5.4374793700787398
21
-4.0357020866141733
0
LINE
8
BLACK
6
CONTINUOUS
10
5.4374793700787398
20
-4.0357020866141733
11
5.4725931889763775
21
-4.0356317322834645
0
LINE
8
BLACK
6
CONTINUOUS
10
5.4725931889763775
20
-4.0356317322834645
11
5.4725205905511807
21
-3.964297874015748
0
LINE
8
BLACK
6
CONTINUOUS
10
5.4725205905511807
20
-3.964297874015748
11
5.437406771653543
21
-3.9643682283464567
0
LINE
8
BLACK
6
CONTINUOUS
10
5.2612034251968502
20
-3.980980433070866
11
5.2617361023622049
21
-3.9815131102362202
0
LINE
8
BLACK
6
CONTINUOUS
10
5.2617361023622049
20
-3.9815131102362202
11
5.2618110236220472
21
-4.0181102362204726
0
LINE
8
BLACK
6
CONTINUOUS
10
5.2618110236220472
20
-4.0181102362204726
11
5.2617361023622049
21
-4.0184868897637793
0
LINE
8
BLACK
6
CONTINUOUS
10
5.2617361023622049
20
-4.0184868897637793
11
5.2612034251968502
21
-4.019019566929134
0
LINE
8
BLACK
6
CONTINUOUS
10
5.2612034251968502
20
-4.019019566929134
11
5.1891732283464567
21
-4.0190944881889763
0
LINE
8
BLACK
6
CONTINUOUS
10
5.1891732283464567
20
-4.0190944881889763
11
5.1887965748031499
21
-4.019019566929134
0
LINE
8
BLACK
6
CONTINUOUS
10
5.1887965748031499
20
-4.019019566929134
11
5.1882638976377953
21
-4.0184868897637793
0
LINE
8
BLACK
6
CONTINUOUS
10
5.1882638976377953
20
-4.0184868897637793
11
5.188188976377953
21
-3.9818897637795274
0
LINE
8
BLACK
6
CONTINUOUS
10
5.188188976377953
20
-3.9818897637795274
11
5.1882638976377953
21
-3.9815131102362202
0
LINE
8
BLACK
6
CONTINUOUS
10
5.1882638976377953
20
-3.9815131102362202
11
5.1887965748031499
21
-3.980980433070866
0
LINE
8
BLACK
6
CONTINUOUS
10
5.1887965748031499
20
-3.980980433070866
11
5.2608267716535435
21
-3.9809055118110237
0
LINE
8
BLACK
6
CONTINUOUS
10
5.2608267716535435
20
-3.9809055118110237
11
5.2612034251968502
21
-3.980980433070866
0
LINE
8
BLACK
6
CONTINUOUS
10
5.1900853149606299
20
-3.9828730314960628
11
5.1901555905511811
21
-4.0171994881889761
0
LINE
8
BLACK
6
CONTINUOUS
10
5.1901555905511811
20
-4.0171994881889761
11
5.2599146456692916
21
-4.017126929133858
0
LINE
8
BLACK
6
CONTINUOUS
10
5.2599146456692916
20
-4.017126929133858
11
5.2598443700787403
21
-3.9828004724409447
0
LINE
8
BLACK
6
CONTINUOUS
10
5.2598443700787403
20
-3.9828004724409447
11
5.1900853149606299
21
-3.9828730314960628
0
LINE
8
BLACK
6
CONTINUOUS
10
5.4738805905511807
20
-3.8774764960629922
11
5.4744132677165354
21
-3.8780091732283464
0
LINE
8
BLACK
6
CONTINUOUS
10
5.4744132677165354
20
-3.8780091732283464
11
5.4744881889763777
21
-3.9516141732283465
0
LINE
8
BLACK
6
CONTINUOUS
10
5.4744881889763777
20
-3.9516141732283465
11
5.4744132677165354
21
-3.9519908267716533
0
LINE
8
BLACK
6
CONTINUOUS
10
5.4744132677165354
20
-3.9519908267716533
11
5.4738805905511807
21
-3.9525235039370079
0
LINE
8
BLACK
6
CONTINUOUS
10
5.4738805905511807
20
-3.9525235039370079
11
5.4364960629921262
21
-3.9525984251968502
0
LINE
8
BLACK
6
CONTINUOUS
10
5.4364960629921262
20
-3.9525984251968502
11
5.4361194094488186
21
-3.9525235039370079
0
LINE
8
BLACK
6
CONTINUOUS
10
5.4361194094488186
20
-3.9525235039370079
11
5.4355867322834648
21
-3.9519908267716533
0
LINE
8
BLACK
6
CONTINUOUS
10
5.4355867322834648
20
-3.9519908267716533
11
5.4355118110236216
21
-3.8783858267716536
0
LINE
8
BLACK
6
CONTINUOUS
10
5.4355118110236216
20
-3.8783858267716536
11
5.4355867322834648
21
-3.8780091732283464
0
LINE
8
BLACK
6
CONTINUOUS
10
5.4355867322834648
20
-3.8780091732283464
11
5.4361194094488186
21
-3.8774764960629922
0
LINE
8
BLACK
6
CONTINUOUS
10
5.4361194094488186
20
-3.8774764960629922
11
5.473503937007874
21
-3.8774015748031494
0
LINE
8
BLACK
6
CONTINUOUS
10
5.473503937007874
20
-3.8774015748031494
11
5.4738805905511807
21
-3.8774764960629922
0
LINE
8
BLACK
6
CONTINUOUS
10
5.437406771653543
20
-3.8793682283464568
11
5.4374793700787398
21
-3.9507020866141733
0
LINE
8
BLACK
6
CONTINUOUS
10
5.4374793700787398
20
-3.9507020866141733
11
5.4725931889763775
21
-3.9506317322834645
0
LINE
8
BLACK
6
CONTINUOUS
10
5.4725931889763775
20
-3.9506317322834645
11
5.4725205905511807
21
-3.879297874015748
0
LINE
8
BLACK
6
CONTINUOUS
10
5.4725205905511807
20
-3.879297874015748
11
5.437406771653543
21
-3.8793682283464568
0
LINE
8
BLACK
6
CONTINUOUS
10
5.3910853149606295
20
-3.7833820078740157
11
5.3916179921259841
21
-3.7839146850393699
0
LINE
8
BLACK
6
CONTINUOUS
10
5.3916179921259841
20
-3.7839146850393699
11
5.3916929133858265
21
-3.9457086614173229
0
LINE
8
BLACK
6
CONTINUOUS
10
5.3916929133858265
20
-3.9457086614173229
11
5.3916179921259841
21
-3.9460853149606296
0
LINE
8
BLACK
6
CONTINUOUS
10
5.3916179921259841
20
-3.9460853149606296
11
5.3910853149606295
21
-3.9466179921259843
0
LINE
8
BLACK
6
CONTINUOUS
10
5.3910853149606295
20
-3.9466179921259843
11
5.2292913385826774
21
-3.9466929133858266
0
LINE
8
BLACK
6
CONTINUOUS
10
5.2292913385826774
20
-3.9466929133858266
11
5.2289146850393697
21
-3.9466179921259843
0
LINE
8
BLACK
6
CONTINUOUS
10
5.2289146850393697
20
-3.9466179921259843
11
5.228382007874016
21
-3.9460853149606296
0
LINE
8
BLACK
6
CONTINUOUS
10
5.228382007874016
20
-3.9460853149606296
11
5.2283070866141728
21
-3.7842913385826771
0
LINE
8
BLACK
6
CONTINUOUS
10
5.2283070866141728
20
-3.7842913385826771
11
5.228382007874016
21
-3.7839146850393699
0
LINE
8
BLACK
6
CONTINUOUS
10
5.228382007874016
20
-3.7839146850393699
11
5.2289146850393697
21
-3.7833820078740157
0
LINE
8
BLACK
6
CONTINUOUS
10
5.2289146850393697
20
-3.7833820078740157
11
5.3907086614173227
21
-3.7833070866141729
0
LINE
8
BLACK
6
CONTINUOUS
10
5.3907086614173227
20
-3.7833070866141729
11
5.3910853149606295
21
-3.7833820078740157
0
LINE
8
BLACK
6
CONTINUOUS
10
5.2302012992125979
20
-3.785275157480315
11
5.2302751574803148
21
-3.9447986614173227
0
LINE
8
BLACK
6
CONTINUOUS
10
5.2302751574803148
20
-3.9447986614173227
11
5.3897986614173226
21
-3.9447248031496063
0
LINE
8
BLACK
6
CONTINUOUS
10
5.3897986614173226
20
-3.9447248031496063
11
5.3897248031496066
21
-3.7852012992125985
0
LINE
8
BLACK
6
CONTINUOUS
10
5.3897248031496066
20
-3.7852012992125985
11
5.2302012992125979
21
-3.785275157480315
0
LINE
8
BLACK
6
CONTINUOUS
10
5.5409908267716537
20
-3.8285867322834646
11
5.5415235039370074
21
-3.8291194094488188
0
LINE
8
BLACK
6
CONTINUOUS
10
5.5415235039370074
20
-3.8291194094488188
11
5.5415984251968506
21
-3.8665039370078738
0
LINE
8
BLACK
6
CONTINUOUS
10
5.5415984251968506
20
-3.8665039370078738
11
5.5415235039370074
21
-3.8668805905511809
0
LINE
8
BLACK
6
CONTINUOUS
10
5.5415235039370074
20
-3.8668805905511809
11
5.5409908267716537
21
-3.8674132677165352
0
LINE
8
BLACK
6
CONTINUOUS
10
5.5409908267716537
20
-3.8674132677165352
11
5.4673858267716531
21
-3.8674881889763779
0
LINE
8
BLACK
6
CONTINUOUS
10
5.4673858267716531
20
-3.8674881889763779
11
5.4670091732283463
21
-3.8674132677165352
0
LINE
8
BLACK
6
CONTINUOUS
10
5.4670091732283463
20
-3.8674132677165352
11
5.4664764960629917
21
-3.8668805905511809
0
LINE
8
BLACK
6
CONTINUOUS
10
5.4664764960629917
20
-3.8668805905511809
11
5.4664015748031494
21
-3.829496062992126
0
LINE
8
BLACK
6
CONTINUOUS
10
5.4664015748031494
20
-3.829496062992126
11
5.4664764960629917
21
-3.8291194094488188
0
LINE
8
BLACK
6
CONTINUOUS
10
5.4664764960629917
20
-3.8291194094488188
11
5.4670091732283463
21
-3.8285867322834646
0
LINE
8
BLACK
6
CONTINUOUS
10
5.4670091732283463
20
-3.8285867322834646
11
5.540614173228346
21
-3.8285118110236218
0
LINE
8
BLACK
6
CONTINUOUS
10
5.540614173228346
20
-3.8285118110236218
11
5.5409908267716537
21
-3.8285867322834646
0
LINE
8
BLACK
6
CONTINUOUS
10
5.4682978740157475
20
-3.8304793700787401
11
5.4683682283464563
21
-3.8655931889763777
0
LINE
8
BLACK
6
CONTINUOUS
10
5.4683682283464563
20
-3.8655931889763777
11
5.5397020866141728
21
-3.8655205905511809
0
LINE
8
BLACK
6
CONTINUOUS
10
5.5397020866141728
20
-3.8655205905511809
11
5.5396317322834641
21
-3.8304067716535433
0
LINE
8
BLACK
6
CONTINUOUS
10
5.5396317322834641
20
-3.8304067716535433
11
5.4682978740157475
21
-3.8304793700787401
0
LINE
8
BLACK
6
CONTINUOUS
10
5.6519908267716534
20
-3.8265867322834644
11
5.6525235039370081
21
-3.827119409448819
0
LINE
8
BLACK
6
CONTINUOUS
10
5.6525235039370081
20
-3.827119409448819
11
5.6525984251968504
21
-3.864503937007874
0
LINE
8
BLACK
6
CONTINUOUS
10
5.6525984251968504
20
-3.864503937007874
11
5.6525235039370081
21
-3.8648805905511812
0
LINE
8
BLACK
6
CONTINUOUS
10
5.6525235039370081
20
-3.8648805905511812
11
5.6519908267716534
21
-3.8654132677165354
0
LINE
8
BLACK
6
CONTINUOUS
10
5.6519908267716534
20
-3.8654132677165354
11
5.5783858267716537
21
-3.8654881889763777
0
LINE
8
BLACK
6
CONTINUOUS
10
5.5783858267716537
20
-3.8654881889763777
11
5.5780091732283461
21
-3.8654132677165354
0
LINE
8
BLACK
6
CONTINUOUS
10
5.5780091732283461
20
-3.8654132677165354
11
5.5774764960629923
21
-3.8648805905511812
0
LINE
8
BLACK
6
CONTINUOUS
10
5.5774764960629923
20
-3.8648805905511812
11
5.5774015748031491
21
-3.8274960629921257
0
LINE
8
BLACK
6
CONTINUOUS
10
5.5774015748031491
20
-3.8274960629921257
11
5.5774764960629923
21
-3.827119409448819
0
LINE
8
BLACK
6
CONTINUOUS
10
5.5774764960629923
20
-3.827119409448819
11
5.5780091732283461
21
-3.8265867322834644
0
LINE
8
BLACK
6
CONTINUOUS
10
5.5780091732283461
20
-3.8265867322834644
11
5.6516141732283467
21
-3.826511811023622
0
LINE
8
BLACK
6
CONTINUOUS
10
5.6516141732283467
20
-3.826511811023622
11
5.6519908267716534
21
-3.8265867322834644
0
LINE
8
BLACK
6
CONTINUOUS
10
5.5792978740157482
20
-3.8284793700787403
11
5.579368228346457
21
-3.8635931889763779
0
LINE
8
BLACK
6
CONTINUOUS
10
5.579368228346457
20
-3.8635931889763779
11
5.6507020866141735
21
-3.8635205905511811
0
LINE
8
BLACK
6
CONTINUOUS
10
5.6507020866141735
20
-3.8635205905511811
11
5.6506317322834647
21
-3.828406771653543
0
LINE
8
BLACK
6
CONTINUOUS
10
5.6506317322834647
20
-3.828406771653543
11
5.5792978740157482
21
-3.8284793700787403
0
LINE
8
BLACK
6
CONTINUOUS
10
5.4424868897637797
20
-3.787263897637795
11
5.4430195669291335
21
-3.7877965748031497
0
LINE
8
BLACK
6
CONTINUOUS
10
5.4430195669291335
20
-3.7877965748031497
11
5.4430944881889767
21
-3.8598267716535433
0
LINE
8
BLACK
6
CONTINUOUS
10
5.4430944881889767
20
-3.8598267716535433
11
5.4430195669291335
21
-3.8602034251968504
0
LINE
8
BLACK
6
CONTINUOUS
10
5.4430195669291335
20
-3.8602034251968504
11
5.4424868897637797
21
-3.8607361023622047
0
LINE
8
BLACK
6
CONTINUOUS
10
5.4424868897637797
20
-3.8607361023622047
11
5.4058897637795278
21
-3.860811023622047
0
LINE
8
BLACK
6
CONTINUOUS
10
5.4058897637795278
20
-3.860811023622047
11
5.4055131102362202
21
-3.8607361023622047
0
LINE
8
BLACK
6
CONTINUOUS
10
5.4055131102362202
20
-3.8607361023622047
11
5.4049804330708664
21
-3.8602034251968504
0
LINE
8
BLACK
6
CONTINUOUS
10
5.4049804330708664
20
-3.8602034251968504
11
5.4049055118110232
21
-3.7881732283464564
0
LINE
8
BLACK
6
CONTINUOUS
10
5.4049055118110232
20
-3.7881732283464564
11
5.4049804330708664
21
-3.7877965748031497
0
LINE
8
BLACK
6
CONTINUOUS
10
5.4049804330708664
20
-3.7877965748031497
11
5.4055131102362202
21
-3.787263897637795
0
LINE
8
BLACK
6
CONTINUOUS
10
5.4055131102362202
20
-3.787263897637795
11
5.4421102362204721
21
-3.7871889763779527
0
LINE
8
BLACK
6
CONTINUOUS
10
5.4421102362204721
20
-3.7871889763779527
11
5.4424868897637797
21
-3.787263897637795
0
LINE
8
BLACK
6
CONTINUOUS
10
5.4068004724409446
20
-3.7891555905511809
11
5.4068730314960627
21
-3.8589146456692913
0
LINE
8
BLACK
6
CONTINUOUS
10
5.4068730314960627
20
-3.8589146456692913
11
5.4411994881889765
21
-3.85884437007874
0
LINE
8
BLACK
6
CONTINUOUS
10
5.4411994881889765
20
-3.85884437007874
11
5.4411269291338584
21
-3.7890853149606296
0
LINE
8
BLACK
6
CONTINUOUS
10
5.4411269291338584
20
-3.7890853149606296
11
5.4068004724409446
21
-3.7891555905511809
0
LINE
8
BLACK
6
CONTINUOUS
10
5.7218805905511809
20
-3.7474764960629918
11
5.7224132677165356
21
-3.7480091732283465
0
LINE
8
BLACK
6
CONTINUOUS
10
5.7224132677165356
20
-3.7480091732283465
11
5.7224881889763779
21
-3.8216141732283462
0
LINE
8
BLACK
6
CONTINUOUS
10
5.7224881889763779
20
-3.8216141732283462
11
5.7224132677165356
21
-3.8219908267716534
0
LINE
8
BLACK
6
CONTINUOUS
10
5.7224132677165356
20
-3.8219908267716534
11
5.7218805905511809
21
-3.8225235039370076
0
LINE
8
BLACK
6
CONTINUOUS
10
5.7218805905511809
20
-3.8225235039370076
11
5.6844960629921255
21
-3.8225984251968503
0
LINE
8
BLACK
6
CONTINUOUS
10
5.6844960629921255
20
-3.8225984251968503
11
5.6841194094488188
21
-3.8225235039370076
0
LINE
8
BLACK
6
CONTINUOUS
10
5.6841194094488188
20
-3.8225235039370076
11
5.6835867322834641
21
-3.8219908267716534
0
LINE
8
BLACK
6
CONTINUOUS
10
5.6835867322834641
20
-3.8219908267716534
11
5.6835118110236218
21
-3.7483858267716537
0
LINE
8
BLACK
6
CONTINUOUS
10
5.6835118110236218
20
-3.7483858267716537
11
5.6835867322834641
21
-3.7480091732283465
0
LINE
8
BLACK
6
CONTINUOUS
10
5.6835867322834641
20
-3.7480091732283465
11
5.6841194094488188
21
-3.7474764960629918
0
LINE
8
BLACK
6
CONTINUOUS
10
5.6841194094488188
20
-3.7474764960629918
11
5.7215039370078742
21
-3.7474015748031495
0
LINE
8
BLACK
6
CONTINUOUS
10
5.7215039370078742
20
-3.7474015748031495
11
5.7218805905511809
21
-3.7474764960629918
0
LINE
8
BLACK
6
CONTINUOUS
10
5.6854067716535432
20
-3.7493682283464564
11
5.68547937007874
21
-3.820702086614173
0
LINE
8
BLACK
6
CONTINUOUS
10
5.68547937007874
20
-3.820702086614173
11
5.7205931889763777
21
-3.8206317322834646
0
LINE
8
BLACK
6
CONTINUOUS
10
5.7205931889763777
20
-3.8206317322834646
11
5.7205205905511809
21
-3.7492978740157481
0
LINE
8
BLACK
6
CONTINUOUS
10
5.7205205905511809
20
-3.7492978740157481
11
5.6854067716535432
21
-3.7493682283464564
0
LINE
8
BLACK
6
CONTINUOUS
10
5.61608531496063
20
-3.6671615354330709
11
5.6166179921259838
21
-3.6676942125984251
0
LINE
8
BLACK
6
CONTINUOUS
10
5.6166179921259838
20
-3.6676942125984251
11
5.616692913385827
21
-3.8019291338582675
0
LINE
8
BLACK
6
CONTINUOUS
10
5.616692913385827
20
-3.8019291338582675
11
5.6166179921259838
21
-3.8023057874015747
0
LINE
8
BLACK
6
CONTINUOUS
10
5.6166179921259838
20
-3.8023057874015747
11
5.61608531496063
21
-3.8028384645669289
0
LINE
8
BLACK
6
CONTINUOUS
10
5.61608531496063
20
-3.8028384645669289
11
5.454291338582677
21
-3.8029133858267716
0
LINE
8
BLACK
6
CONTINUOUS
10
5.454291338582677
20
-3.8029133858267716
11
5.4539146850393703
21
-3.8028384645669289
0
LINE
8
BLACK
6
CONTINUOUS
10
5.4539146850393703
20
-3.8028384645669289
11
5.4533820078740156
21
-3.8023057874015747
0
LINE
8
BLACK
6
CONTINUOUS
10
5.4533820078740156
20
-3.8023057874015747
11
5.4533070866141733
21
-3.6680708661417323
0
LINE
8
BLACK
6
CONTINUOUS
10
5.4533070866141733
20
-3.6680708661417323
11
5.4533820078740156
21
-3.6676942125984251
0
LINE
8
BLACK
6
CONTINUOUS
10
5.4533820078740156
20
-3.6676942125984251
11
5.4539146850393703
21
-3.6671615354330709
0
LINE
8
BLACK
6
CONTINUOUS
10
5.4539146850393703
20
-3.6671615354330709
11
5.6157086614173224
21
-3.6670866141732281
0
LINE
8
BLACK
6
CONTINUOUS
10
5.6157086614173224
20
-3.6670866141732281
11
5.61608531496063
21
-3.6671615354330709
0
LINE
8
BLACK
6
CONTINUOUS
10
5.4552014173228347
20
-3.6690546850393702
11
5.4552750787401569
21
-3.8010191338582677
0
LINE
8
BLACK
6
CONTINUOUS
10
5.4552750787401569
20
-3.8010191338582677
11
5.6147985433070868
21
-3.8009452755905513
0
LINE
8
BLACK
6
CONTINUOUS
10
5.6147985433070868
20
-3.8009452755905513
11
5.6147248818897637
21
-3.6689808267716533
0
LINE
8
BLACK
6
CONTINUOUS
10
5.6147248818897637
20
-3.6689808267716533
11
5.4552014173228347
21
-3.6690546850393702
0
LINE
8
BLACK
6
CONTINUOUS
10
5.2912034251968505
20
-3.7359804330708659
11
5.2917361023622043
21
-3.7365131102362206
0
LINE
8
BLACK
6
CONTINUOUS
10
5.2917361023622043
20
-3.7365131102362206
11
5.2918110236220475
21
-3.7731102362204725
0
LINE
8
BLACK
6
CONTINUOUS
10
5.2918110236220475
20
-3.7731102362204725
11
5.2917361023622043
21
-3.7734868897637797
0
LINE
8
BLACK
6
CONTINUOUS
10
5.2917361023622043
20
-3.7734868897637797
11
5.2912034251968505
21
-3.7740195669291339
0
LINE
8
BLACK
6
CONTINUOUS
10
5.2912034251968505
20
-3.7740195669291339
11
5.2191732283464569
21
-3.7740944881889762
0
LINE
8
BLACK
6
CONTINUOUS
10
5.2191732283464569
20
-3.7740944881889762
11
5.2187965748031493
21
-3.7740195669291339
0
LINE
8
BLACK
6
CONTINUOUS
10
5.2187965748031493
20
-3.7740195669291339
11
5.2182638976377955
21
-3.7734868897637797
0
LINE
8
BLACK
6
CONTINUOUS
10
5.2182638976377955
20
-3.7734868897637797
11
5.2181889763779523
21
-3.7368897637795273
0
LINE
8
BLACK
6
CONTINUOUS
10
5.2181889763779523
20
-3.7368897637795273
11
5.2182638976377955
21
-3.7365131102362206
0
LINE
8
BLACK
6
CONTINUOUS
10
5.2182638976377955
20
-3.7365131102362206
11
5.2187965748031493
21
-3.7359804330708659
0
LINE
8
BLACK
6
CONTINUOUS
10
5.2187965748031493
20
-3.7359804330708659
11
5.2908267716535429
21
-3.7359055118110236
0
LINE
8
BLACK
6
CONTINUOUS
10
5.2908267716535429
20
-3.7359055118110236
11
5.2912034251968505
21
-3.7359804330708659
0
LINE
8
BLACK
6
CONTINUOUS
10
5.2200853149606301
20
-3.7378730314960631
11
5.2201555905511814
21
-3.7721994881889764
0
LINE
8
BLACK
6
CONTINUOUS
10
5.2201555905511814
20
-3.7721994881889764
11
5.2899146456692909
21
-3.7721269291338584
0
LINE
8
BLACK
6
CONTINUOUS
10
5.2899146456692909
20
-3.7721269291338584
11
5.2898443700787396
21
-3.7378004724409446
0
LINE
8
BLACK
6
CONTINUOUS
10
5.2898443700787396
20
-3.7378004724409446
11
5.2200853149606301
21
-3.7378730314960631
0
LINE
8
BLACK
6
CONTINUOUS
10
5.3992034251968501
20
-3.7339804330708661
11
5.3997361023622048
21
-3.7345131102362203
0
LINE
8
BLACK
6
CONTINUOUS
10
5.3997361023622048
20
-3.7345131102362203
11
5.3998110236220471
21
-3.7711102362204723
0
LINE
8
BLACK
6
CONTINUOUS
10
5.3998110236220471
20
-3.7711102362204723
11
5.3997361023622048
21
-3.7714868897637794
0
LINE
8
BLACK
6
CONTINUOUS
10
5.3997361023622048
20
-3.7714868897637794
11
5.3992034251968501
21
-3.7720195669291336
0
LINE
8
BLACK
6
CONTINUOUS
10
5.3992034251968501
20
-3.7720195669291336
11
5.3271732283464566
21
-3.7720944881889764
0
LINE
8
BLACK
6
CONTINUOUS
10
5.3271732283464566
20
-3.7720944881889764
11
5.3267965748031498
21
-3.7720195669291336
0
LINE
8
BLACK
6
CONTINUOUS
10
5.3267965748031498
20
-3.7720195669291336
11
5.3262638976377952
21
-3.7714868897637794
0
LINE
8
BLACK
6
CONTINUOUS
10
5.3262638976377952
20
-3.7714868897637794
11
5.3261889763779529
21
-3.7348897637795275
0
LINE
8
BLACK
6
CONTINUOUS
10
5.3261889763779529
20
-3.7348897637795275
11
5.3262638976377952
21
-3.7345131102362203
0
LINE
8
BLACK
6
CONTINUOUS
10
5.3262638976377952
20
-3.7345131102362203
11
5.3267965748031498
21
-3.7339804330708661
0
LINE
8
BLACK
6
CONTINUOUS
10
5.3267965748031498
20
-3.7339804330708661
11
5.3988267716535434
21
-3.7339055118110234
0
LINE
8
BLACK
6
CONTINUOUS
10
5.3988267716535434
20
-3.7339055118110234
11
5.3992034251968501
21
-3.7339804330708661
0
LINE
8
BLACK
6
CONTINUOUS
10
5.3280853149606298
20
-3.7358730314960629
11
5.328155590551181
21
-3.7701994881889762
0
LINE
8
BLACK
6
CONTINUOUS
10
5.328155590551181
20
-3.7701994881889762
11
5.3979146456692915
21
-3.7701269291338582
0
LINE
8
BLACK
6
CONTINUOUS
10
5.3979146456692915
20
-3.7701269291338582
11
5.3978443700787402
21
-3.7358004724409448
0
LINE
8
BLACK
6
CONTINUOUS
10
5.3978443700787402
20
-3.7358004724409448
11
5.3280853149606298
21
-3.7358730314960629
0
LINE
8
BLACK
6
CONTINUOUS
10
5.448486889763779
20
-3.6882638976377953
11
5.4490195669291337
21
-3.6887965748031495
0
LINE
8
BLACK
6
CONTINUOUS
10
5.4490195669291337
20
-3.6887965748031495
11
5.449094488188976
21
-3.7608267716535431
0
LINE
8
BLACK
6
CONTINUOUS
10
5.449094488188976
20
-3.7608267716535431
11
5.4490195669291337
21
-3.7612034251968502
0
LINE
8
BLACK
6
CONTINUOUS
10
5.4490195669291337
20
-3.7612034251968502
11
5.448486889763779
21
-3.7617361023622045
0
LINE
8
BLACK
6
CONTINUOUS
10
5.448486889763779
20
-3.7617361023622045
11
5.4118897637795271
21
-3.7618110236220472
0
LINE
8
BLACK
6
CONTINUOUS
10
5.4118897637795271
20
-3.7618110236220472
11
5.4115131102362204
21
-3.7617361023622045
0
LINE
8
BLACK
6
CONTINUOUS
10
5.4115131102362204
20
-3.7617361023622045
11
5.4109804330708657
21
-3.7612034251968502
0
LINE
8
BLACK
6
CONTINUOUS
10
5.4109804330708657
20
-3.7612034251968502
11
5.4109055118110234
21
-3.6891732283464567
0
LINE
8
BLACK
6
CONTINUOUS
10
5.4109055118110234
20
-3.6891732283464567
11
5.4109804330708657
21
-3.6887965748031495
0
LINE
8
BLACK
6
CONTINUOUS
10
5.4109804330708657
20
-3.6887965748031495
11
5.4115131102362204
21
-3.6882638976377953
0
LINE
8
BLACK
6
CONTINUOUS
10
5.4115131102362204
20
-3.6882638976377953
11
5.4481102362204723
21
-3.6881889763779525
0
LINE
8
BLACK
6
CONTINUOUS
10
5.4481102362204723
20
-3.6881889763779525
11
5.448486889763779
21
-3.6882638976377953
0
LINE
8
BLACK
6
CONTINUOUS
10
5.4128004724409449
20
-3.6901555905511811
11
5.4128730314960629
21
-3.7599146456692911
0
LINE
8
BLACK
6
CONTINUOUS
10
5.4128730314960629
20
-3.7599146456692911
11
5.4471994881889758
21
-3.7598443700787403
0
LINE
8
BLACK
6
CONTINUOUS
10
5.4471994881889758
20
-3.7598443700787403
11
5.4471269291338578
21
-3.6900853149606299
0
LINE
8
BLACK
6
CONTINUOUS
10
5.4471269291338578
20
-3.6900853149606299
11
5.4128004724409449
21
-3.6901555905511811
0
LINE
8
BLACK
6
CONTINUOUS
10
5.0687165748031493
20
-3.659565748031496
11
5.077168346456693
21
-3.6618303937007872
0
LINE
8
BLACK
6
CONTINUOUS
10
5.077168346456693
20
-3.6618303937007872
11
5.0850984251968505
21
-3.6655282677165353
0
LINE
8
BLACK
6
CONTINUOUS
10
5.0850984251968505
20
-3.6655282677165353
11
5.0922659055118107
21
-3.6705469685039369
0
LINE
8
BLACK
6
CONTINUOUS
10
5.0922659055118107
20
-3.6705469685039369
11
5.0984530314960628
21
-3.676734094488189
0
LINE
8
BLACK
6
CONTINUOUS
10
5.0984530314960628
20
-3.676734094488189
11
5.1034717322834648
21
-3.6839015748031496
0
LINE
8
BLACK
6
CONTINUOUS
10
5.1034717322834648
20
-3.6839015748031496
11
5.1071696062992125
21
-3.6918316535433071
0
LINE
8
BLACK
6
CONTINUOUS
10
5.1071696062992125
20
-3.6918316535433071
11
5.1094342519685041
21
-3.7002834251968504
0
LINE
8
BLACK
6
CONTINUOUS
10
5.1094342519685041
20
-3.7002834251968504
11
5.1101968503937005
21
-3.7090000000000001
0
LINE
8
BLACK
6
CONTINUOUS
10
5.1101968503937005
20
-3.7090000000000001
11
5.1094342519685041
21
-3.7177165748031493
0
LINE
8
BLACK
6
CONTINUOUS
10
5.1094342519685041
20
-3.7177165748031493
11
5.1071696062992125
21
-3.726168346456693
0
LINE
8
BLACK
6
CONTINUOUS
10
5.1071696062992125
20
-3.726168346456693
11
5.1034717322834648
21
-3.7340984251968501
0
LINE
8
BLACK
6
CONTINUOUS
10
5.1034717322834648
20
-3.7340984251968501
11
5.0984530314960628
21
-3.7412659055118112
0
LINE
8
BLACK
6
CONTINUOUS
10
5.0984530314960628
20
-3.7412659055118112
11
5.0922659055118107
21
-3.7474530314960628
0
LINE
8
BLACK
6
CONTINUOUS
10
5.0922659055118107
20
-3.7474530314960628
11
5.0850984251968505
21
-3.7524717322834644
0
LINE
8
BLACK
6
CONTINUOUS
10
5.0850984251968505
20
-3.7524717322834644
11
5.077168346456693
21
-3.7561696062992125
0
LINE
8
BLACK
6
CONTINUOUS
10
5.077168346456693
20
-3.7561696062992125
11
5.0687165748031493
21
-3.7584342519685037
0
LINE
8
BLACK
6
CONTINUOUS
10
5.0687165748031493
20
-3.7584342519685037
11
5.0599999999999996
21
-3.7591968503937006
0
LINE
8
BLACK
6
CONTINUOUS
10
5.0599999999999996
20
-3.7591968503937006
11
5.0512834251968499
21
-3.7584342519685037
0
LINE
8
BLACK
6
CONTINUOUS
10
5.0512834251968499
20
-3.7584342519685037
11
5.0428316535433071
21
-3.7561696062992125
0
LINE
8
BLACK
6
CONTINUOUS
10
5.0428316535433071
20
-3.7561696062992125
11
5.0349015748031496
21
-3.7524717322834644
0
LINE
8
BLACK
6
CONTINUOUS
10
5.0349015748031496
20
-3.7524717322834644
11
5.0277340944881885
21
-3.7474530314960628
0
LINE
8
BLACK
6
CONTINUOUS
10
5.0277340944881885
20
-3.7474530314960628
11
5.0215469685039373
21
-3.7412659055118112
0
LINE
8
BLACK
6
CONTINUOUS
10
5.0215469685039373
20
-3.7412659055118112
11
5.0165282677165353
21
-3.7340984251968501
0
LINE
8
BLACK
6
CONTINUOUS
10
5.0165282677165353
20
-3.7340984251968501
11
5.0128303937007876
21
-3.726168346456693
0
LINE
8
BLACK
6
CONTINUOUS
10
5.0128303937007876
20
-3.726168346456693
11
5.010565748031496
21
-3.7177165748031493
0
LINE
8
BLACK
6
CONTINUOUS
10
5.010565748031496
20
-3.7177165748031493
11
5.0098031496062987
21
-3.7090000000000001
0
LINE
8
BLACK
6
CONTINUOUS
10
5.0098031496062987
20
-3.7090000000000001
11
5.010565748031496
21
-3.7002834251968504
0
LINE
8
BLACK
6
CONTINUOUS
10
5.010565748031496
20
-3.7002834251968504
11
5.0128303937007876
21
-3.6918316535433071
0
LINE
8
BLACK
6
CONTINUOUS
10
5.0128303937007876
20
-3.6918316535433071
11
5.0165282677165353
21
-3.6839015748031496
0
LINE
8
BLACK
6
CONTINUOUS
10
5.0165282677165353
20
-3.6839015748031496
11
5.0215469685039373
21
-3.676734094488189
0
LINE
8
BLACK
6
CONTINUOUS
10
5.0215469685039373
20
-3.676734094488189
11
5.0277340944881885
21
-3.6705469685039369
0
LINE
8
BLACK
6
CONTINUOUS
10
5.0277340944881885
20
-3.6705469685039369
11
5.0349015748031496
21
-3.6655282677165353
0
LINE
8
BLACK
6
CONTINUOUS
10
5.0349015748031496
20
-3.6655282677165353
11
5.0428316535433071
21
-3.6618303937007872
0
LINE
8
BLACK
6
CONTINUOUS
10
5.0428316535433071
20
-3.6618303937007872
11
5.0512834251968499
21
-3.659565748031496
0
LINE
8
BLACK
6
CONTINUOUS
10
5.0512834251968499
20
-3.659565748031496
11
5.0599999999999996
21
-3.6588031496062992
0
LINE
8
BLACK
6
CONTINUOUS
10
5.0599999999999996
20
-3.6588031496062992
11
5.0687165748031493
21
-3.659565748031496
0
LINE
8
BLACK
6
CONTINUOUS
10
5.0123229527559054
20
-3.7174067716535433
11
5.0145070866141728
21
-3.7255580708661418
0
LINE
8
BLACK
6
CONTINUOUS
10
5.0145070866141728
20
-3.7255580708661418
11
5.0180735039370079
21
-3.7332062992125983
0
LINE
8
BLACK
6
CONTINUOUS
10
5.0180735039370079
20
-3.7332062992125983
11
5.0229138188976377
21
-3.7401189763779525
0
LINE
8
BLACK
6
CONTINUOUS
10
5.0229138188976377
20
-3.7401189763779525
11
5.0288810236220467
21
-3.746086181102362
0
LINE
8
BLACK
6
CONTINUOUS
10
5.0288810236220467
20
-3.746086181102362
11
5.0357937007874014
21
-3.7509264960629922
0
LINE
8
BLACK
6
CONTINUOUS
10
5.0357937007874014
20
-3.7509264960629922
11
5.0434419291338584
21
-3.7544929133858265
0
LINE
8
BLACK
6
CONTINUOUS
10
5.0434419291338584
20
-3.7544929133858265
11
5.0515932283464569
21
-3.7566770472440942
0
LINE
8
BLACK
6
CONTINUOUS
10
5.0515932283464569
20
-3.7566770472440942
11
5.0599999999999996
21
-3.7574125590551182
0
LINE
8
BLACK
6
CONTINUOUS
10
5.0599999999999996
20
-3.7574125590551182
11
5.0684067716535433
21
-3.7566770472440942
0
LINE
8
BLACK
6
CONTINUOUS
10
5.0684067716535433
20
-3.7566770472440942
11
5.0765580708661417
21
-3.7544929133858265
0
LINE
8
BLACK
6
CONTINUOUS
10
5.0765580708661417
20
-3.7544929133858265
11
5.0842062992125987
21
-3.7509264960629922
0
LINE
8
BLACK
6
CONTINUOUS
10
5.0842062992125987
20
-3.7509264960629922
11
5.0911189763779525
21
-3.746086181102362
0
LINE
8
BLACK
6
CONTINUOUS
10
5.0911189763779525
20
-3.746086181102362
11
5.0970861811023624
21
-3.7401189763779525
0
LINE
8
BLACK
6
CONTINUOUS
10
5.0970861811023624
20
-3.7401189763779525
11
5.1019264960629922
21
-3.7332062992125983
0
LINE
8
BLACK
6
CONTINUOUS
10
5.1019264960629922
20
-3.7332062992125983
11
5.1054929133858264
21
-3.7255580708661418
0
LINE
8
BLACK
6
CONTINUOUS
10
5.1054929133858264
20
-3.7255580708661418
11
5.1076770472440947
21
-3.7174067716535433
0
LINE
8
BLACK
6
CONTINUOUS
10
5.1076770472440947
20
-3.7174067716535433
11
5.1084125590551182
21
-3.7090000000000001
0
LINE
8
BLACK
6
CONTINUOUS
10
5.1084125590551182
20
-3.7090000000000001
11
5.1076770472440947
21
-3.7005932283464564
0
LINE
8
BLACK
6
CONTINUOUS
10
5.1076770472440947
20
-3.7005932283464564
11
5.1054929133858264
21
-3.6924419291338584
0
LINE
8
BLACK
6
CONTINUOUS
10
5.1054929133858264
20
-3.6924419291338584
11
5.1019264960629922
21
-3.6847937401574802
0
LINE
8
BLACK
6
CONTINUOUS
10
5.1019264960629922
20
-3.6847937401574802
11
5.0970861811023624
21
-3.6778810236220472
0
LINE
8
BLACK
6
CONTINUOUS
10
5.0970861811023624
20
-3.6778810236220472
11
5.0911189763779525
21
-3.6719138188976377
0
LINE
8
BLACK
6
CONTINUOUS
10
5.0911189763779525
20
-3.6719138188976377
11
5.0842062992125987
21
-3.6670735039370079
0
LINE
8
BLACK
6
CONTINUOUS
10
5.0842062992125987
20
-3.6670735039370079
11
5.0765580708661417
21
-3.6635070866141732
0
LINE
8
BLACK
6
CONTINUOUS
10
5.0765580708661417
20
-3.6635070866141732
11
5.0684067716535433
21
-3.6613229527559055
0
LINE
8
BLACK
6
CONTINUOUS
10
5.0684067716535433
20
-3.6613229527559055
11
5.0599999999999996
21
-3.660587440944882
0
LINE
8
BLACK
6
CONTINUOUS
10
5.0599999999999996
20
-3.660587440944882
11
5.0515932283464569
21
-3.6613229527559055
0
LINE
8
BLACK
6
CONTINUOUS
10
5.0515932283464569
20
-3.6613229527559055
11
5.0434419291338584
21
-3.6635070866141732
0
LINE
8
BLACK
6
CONTINUOUS
10
5.0434419291338584
20
-3.6635070866141732
11
5.0357937401574802
21
-3.6670735039370079
0
LINE
8
BLACK
6
CONTINUOUS
10
5.0357937401574802
20
-3.6670735039370079
11
5.0288810236220467
21
-3.6719138188976377
0
LINE
8
BLACK
6
CONTINUOUS
10
5.0288810236220467
20
-3.6719138188976377
11
5.0229138188976377
21
-3.6778810236220472
0
LINE
8
BLACK
6
CONTINUOUS
10
5.0229138188976377
20
-3.6778810236220472
11
5.0180735039370079
21
-3.6847937401574802
0
LINE
8
BLACK
6
CONTINUOUS
10
5.0180735039370079
20
-3.6847937401574802
11
5.0145070866141728
21
-3.6924419291338584
0
LINE
8
BLACK
6
CONTINUOUS
10
5.0145070866141728
20
-3.6924419291338584
11
5.0123229527559054
21
-3.7005932283464564
0
LINE
8
BLACK
6
CONTINUOUS
10
5.0123229527559054
20
-3.7005932283464564
11
5.011587440944882
21
-3.7090000000000001
0
LINE
8
BLACK
6
CONTINUOUS
10
5.011587440944882
20
-3.7090000000000001
11
5.0123229527559054
21
-3.7174067716535433
0
LINE
8
BLACK
6
CONTINUOUS
10
5.6614868897637791
20
-3.6792638976377954
11
5.6620195669291338
21
-3.6797965748031496
0
LINE
8
BLACK
6
CONTINUOUS
10
5.6620195669291338
20
-3.6797965748031496
11
5.6620944881889761
21
-3.7518267716535432
0
LINE
8
BLACK
6
CONTINUOUS
10
5.6620944881889761
20
-3.7518267716535432
11
5.6620195669291338
21
-3.7522034251968504
0
LINE
8
BLACK
6
CONTINUOUS
10
5.6620195669291338
20
-3.7522034251968504
11
5.6614868897637791
21
-3.7527361023622046
0
LINE
8
BLACK
6
CONTINUOUS
10
5.6614868897637791
20
-3.7527361023622046
11
5.6248897637795272
21
-3.7528110236220473
0
LINE
8
BLACK
6
CONTINUOUS
10
5.6248897637795272
20
-3.7528110236220473
11
5.6245131102362205
21
-3.7527361023622046
0
LINE
8
BLACK
6
CONTINUOUS
10
5.6245131102362205
20
-3.7527361023622046
11
5.6239804330708658
21
-3.7522034251968504
0
LINE
8
BLACK
6
CONTINUOUS
10
5.6239804330708658
20
-3.7522034251968504
11
5.6239055118110235
21
-3.6801732283464568
0
LINE
8
BLACK
6
CONTINUOUS
10
5.6239055118110235
20
-3.6801732283464568
11
5.6239804330708658
21
-3.6797965748031496
0
LINE
8
BLACK
6
CONTINUOUS
10
5.6239804330708658
20
-3.6797965748031496
11
5.6245131102362205
21
-3.6792638976377954
0
LINE
8
BLACK
6
CONTINUOUS
10
5.6245131102362205
20
-3.6792638976377954
11
5.6611102362204724
21
-3.6791889763779526
0
LINE
8
BLACK
6
CONTINUOUS
10
5.6611102362204724
20
-3.6791889763779526
11
5.6614868897637791
21
-3.6792638976377954
0
LINE
8
BLACK
6
CONTINUOUS
10
5.6258004724409449
20
-3.6811555905511808
11
5.625873031496063
21
-3.7509146456692912
0
LINE
8
BLACK
6
CONTINUOUS
10
5.625873031496063
20
-3.7509146456692912
11
5.6601994881889759
21
-3.7508443700787399
0
LINE
8
BLACK
6
CONTINUOUS
10
5.6601994881889759
20
-3.7508443700787399
11
5.6601269291338578
21
-3.68108531496063
0
LINE
8
BLACK
6
CONTINUOUS
10
5.6601269291338578
20
-3.68108531496063
11
5.6258004724409449
21
-3.6811555905511808
0
LINE
8
BLACK
6
CONTINUOUS
10
5.8403372834645664
20
-3.6803505118110236
11
5.840869960629921
21
-3.6808831889763778
0
LINE
8
BLACK
6
CONTINUOUS
10
5.840869960629921
20
-3.6808831889763778
11
5.8409448818897634
21
-3.738740157480315
0
LINE
8
BLACK
6
CONTINUOUS
10
5.8409448818897634
20
-3.738740157480315
11
5.840869960629921
21
-3.7391168110236221
0
LINE
8
BLACK
6
CONTINUOUS
10
5.840869960629921
20
-3.7391168110236221
11
5.8403372834645664
21
-3.7396494881889764
0
LINE
8
BLACK
6
CONTINUOUS
10
5.8403372834645664
20
-3.7396494881889764
11
5.7100393700787402
21
-3.7397244094488187
0
LINE
8
BLACK
6
CONTINUOUS
10
5.7100393700787402
20
-3.7397244094488187
11
5.7096627165354326
21
-3.7396494881889764
0
LINE
8
BLACK
6
CONTINUOUS
10
5.7096627165354326
20
-3.7396494881889764
11
5.7091300393700788
21
-3.7391168110236221
0
LINE
8
BLACK
6
CONTINUOUS
10
5.7091300393700788
20
-3.7391168110236221
11
5.7090551181102365
21
-3.681259842519685
0
LINE
8
BLACK
6
CONTINUOUS
10
5.7090551181102365
20
-3.681259842519685
11
5.7091300393700788
21
-3.6808831889763778
0
LINE
8
BLACK
6
CONTINUOUS
10
5.7091300393700788
20
-3.6808831889763778
11
5.7096627165354326
21
-3.6803505118110236
0
LINE
8
BLACK
6
CONTINUOUS
10
5.7096627165354326
20
-3.6803505118110236
11
5.8399606299212596
21
-3.6802755905511808
0
LINE
8
BLACK
6
CONTINUOUS
10
5.8399606299212596
20
-3.6802755905511808
11
5.8403372834645664
21
-3.6803505118110236
0
LINE
8
BLACK
6
CONTINUOUS
10
5.7109504330708658
20
-3.6822435433070866
11
5.7110224409448813
21
-3.7378300393700785
0
LINE
8
BLACK
6
CONTINUOUS
10
5.7110224409448813
20
-3.7378300393700785
11
5.8390495275590553
21
-3.7377564173228346
0
LINE
8
BLACK
6
CONTINUOUS
10
5.8390495275590553
20
-3.7377564173228346
11
5.8389775196850389
21
-3.6821699212598422
0
LINE
8
BLACK
6
CONTINUOUS
10
5.8389775196850389
20
-3.6821699212598422
11
5.7109504330708658
21
-3.6822435433070866
0
LINE
8
BLACK
6
CONTINUOUS
10
5.9465892519685042
20
-3.6815316141732284
11
5.947121929133858
21
-3.6820642913385826
0
LINE
8
BLACK
6
CONTINUOUS
10
5.947121929133858
20
-3.6820642913385826
11
5.9471968503937003
21
-3.7375590551181102
0
LINE
8
BLACK
6
CONTINUOUS
10
5.9471968503937003
20
-3.7375590551181102
11
5.947121929133858
21
-3.7379357086614173
0
LINE
8
BLACK
6
CONTINUOUS
10
5.947121929133858
20
-3.7379357086614173
11
5.9465892519685042
21
-3.7384683858267715
0
LINE
8
BLACK
6
CONTINUOUS
10
5.9465892519685042
20
-3.7384683858267715
11
5.847787401574803
21
-3.7385433070866143
0
LINE
8
BLACK
6
CONTINUOUS
10
5.847787401574803
20
-3.7385433070866143
11
5.8474107480314963
21
-3.7384683858267715
0
LINE
8
BLACK
6
CONTINUOUS
10
5.8474107480314963
20
-3.7384683858267715
11
5.8468780708661416
21
-3.7379357086614173
0
LINE
8
BLACK
6
CONTINUOUS
10
5.8468780708661416
20
-3.7379357086614173
11
5.8468031496062993
21
-3.6824409448818898
0
LINE
8
BLACK
6
CONTINUOUS
10
5.8468031496062993
20
-3.6824409448818898
11
5.8468780708661416
21
-3.6820642913385826
0
LINE
8
BLACK
6
CONTINUOUS
10
5.8468780708661416
20
-3.6820642913385826
11
5.8474107480314963
21
-3.6815316141732284
0
LINE
8
BLACK
6
CONTINUOUS
10
5.8474107480314963
20
-3.6815316141732284
11
5.9462125984251966
21
-3.6814566929133856
0
LINE
8
BLACK
6
CONTINUOUS
10
5.9462125984251966
20
-3.6814566929133856
11
5.9465892519685042
21
-3.6815316141732284
0
LINE
8
BLACK
6
CONTINUOUS
10
5.8486985433070862
20
-3.6834244881889764
11
5.8487703937007876
21
-3.7366486614173229
0
LINE
8
BLACK
6
CONTINUOUS
10
5.8487703937007876
20
-3.7366486614173229
11
5.9453014173228347
21
-3.7365754724409448
0
LINE
8
BLACK
6
CONTINUOUS
10
5.9453014173228347
20
-3.7365754724409448
11
5.9452295669291333
21
-3.6833512992125983
0
LINE
8
BLACK
6
CONTINUOUS
10
5.9452295669291333
20
-3.6833512992125983
11
5.8486985433070862
21
-3.6834244881889764
  0
ENDSEC
  0
EOF
