  0
SECTION
  2
HEADER
  9
$ANGBASE
  50
0.0
  9
$ANGDIR
  70
1
  9
$MEASUREMENT
  70
0
  0
ENDSEC
  0
SECTION
  2
TABLES
  0
TABLE
  2
LTYPE
  70
4
  0
LTYPE
  5
40F
  2
CONTINUOUS
  70
0
  3
Solid line
  72
65
  73
0
  40
0.0
  0
LTYPE
  5
410
  2
DASHDOT
 70
0
  3
Dash Dot ____ _ ____ _
 72
65
 73
4
 40
2.0
 49
1.25
 49
-0.25
 49
0.25
 49
-0.25
  0
LTYPE
  5
411
  2
DASHED
 70
0
  3
Dashed __ __ __ __ __
 72
65
 73
2
 40
0.75
 49
0.5
 49
-0.25
  0
LTYPE
  5
43B
  2
DOTTED
 70
0
  3
Dotted .  .  .  .
 72
65
 73
2
 40
0.2
 49
0.0
 49
-0.2
  0
ENDTAB
  0
TABLE
  2
STYLE
  70
4
  0
STYLE
  2
KICAD
  70
0
  40
0
  41
1
  42
1
  50
0
  71
0
  3
isocp.shx
  0
STYLE
  2
KICADB
  70
0
  40
0
  41
1
  42
1
  50
0
  71
0
  3
isocp.shx
  0
STYLE
  2
KICADI
  70
0
  40
0
  41
1
  42
1
  50
15
  71
0
  3
isocp.shx
  0
STYLE
  2
KICADBI
  70
0
  40
0
  41
1
  42
1
  50
15
  71
0
  3
isocp.shx
  0
ENDTAB
  0
TABLE
  2
LAYER
  70
1
  0
LAYER
  2
BLACK
  70
0
  62
7
  6
CONTINUOUS
  0
ENDTAB
  0
ENDSEC
  0
SECTION
  2
ENTITIES
0
LINE
8
BLACK
6
CONTINUOUS
10
5.6724000393700784
20
-4.2192349212598428
11
5.6736784645669287
21
-4.2205133464566931
0
LINE
8
BLACK
6
CONTINUOUS
10
5.6736784645669287
20
-4.2205133464566931
11
5.6736784645669287
21
-4.2223212992125987
0
LINE
8
BLACK
6
CONTINUOUS
10
5.6736784645669287
20
-4.2223212992125987
11
5.6724000393700784
21
-4.223599724409449
0
LINE
8
BLACK
6
CONTINUOUS
10
5.6724000393700784
20
-4.223599724409449
11
5.6399999999999997
21
-4.2237795275590546
0
LINE
8
BLACK
6
CONTINUOUS
10
5.6399999999999997
20
-4.2237795275590546
11
5.6391450787401576
21
-4.2236094488188973
0
LINE
8
BLACK
6
CONTINUOUS
10
5.6391450787401576
20
-4.2236094488188973
11
5.6085039370078738
21
-4.2237795275590546
0
LINE
8
BLACK
6
CONTINUOUS
10
5.6085039370078738
20
-4.2237795275590546
11
5.6075999606299209
21
-4.223599724409449
0
LINE
8
BLACK
6
CONTINUOUS
10
5.6075999606299209
20
-4.223599724409449
11
5.6063215354330707
21
-4.2223212992125987
0
LINE
8
BLACK
6
CONTINUOUS
10
5.6063215354330707
20
-4.2223212992125987
11
5.6063215354330707
21
-4.2205133464566931
0
LINE
8
BLACK
6
CONTINUOUS
10
5.6063215354330707
20
-4.2205133464566931
11
5.6075999606299209
21
-4.2192349212598428
0
LINE
8
BLACK
6
CONTINUOUS
10
5.6075999606299209
20
-4.2192349212598428
11
5.6399999999999997
21
-4.2190551181102363
0
LINE
8
BLACK
6
CONTINUOUS
10
5.6399999999999997
20
-4.2190551181102363
11
5.6408548818897639
21
-4.2192251574803148
0
LINE
8
BLACK
6
CONTINUOUS
10
5.6408548818897639
20
-4.2192251574803148
11
5.6714960629921256
21
-4.2190551181102363
0
LINE
8
BLACK
6
CONTINUOUS
10
5.6714960629921256
20
-4.2190551181102363
11
5.6724000393700784
21
-4.2192349212598428
0
LINE
8
BLACK
6
CONTINUOUS
10
5.7390091732283466
20
-4.1728505118110233
11
5.7391889763779522
21
-4.1822455118110238
0
LINE
8
BLACK
6
CONTINUOUS
10
5.7391889763779522
20
-4.1822455118110238
11
5.7390091732283466
21
-4.1831494881889766
0
LINE
8
BLACK
6
CONTINUOUS
10
5.7390091732283466
20
-4.1831494881889766
11
5.7377307480314963
21
-4.1844279133858269
0
LINE
8
BLACK
6
CONTINUOUS
10
5.7377307480314963
20
-4.1844279133858269
11
5.7359227952755907
21
-4.1844279133858269
0
LINE
8
BLACK
6
CONTINUOUS
10
5.7359227952755907
20
-4.1844279133858269
11
5.7346443700787404
21
-4.1831494881889766
0
LINE
8
BLACK
6
CONTINUOUS
10
5.7346443700787404
20
-4.1831494881889766
11
5.7344645669291339
21
-4.1737544881889761
0
LINE
8
BLACK
6
CONTINUOUS
10
5.7344645669291339
20
-4.1737544881889761
11
5.7346443700787404
21
-4.1728505118110233
0
LINE
8
BLACK
6
CONTINUOUS
10
5.7346443700787404
20
-4.1728505118110233
11
5.7359227952755907
21
-4.171572086614173
0
LINE
8
BLACK
6
CONTINUOUS
10
5.7359227952755907
20
-4.171572086614173
11
5.7377307480314963
21
-4.171572086614173
0
LINE
8
BLACK
6
CONTINUOUS
10
5.7377307480314963
20
-4.171572086614173
11
5.7390091732283466
21
-4.1728505118110233
0
LINE
8
BLACK
6
CONTINUOUS
10
5.7673556299212594
20
-4.1728505118110233
11
5.7675354330708659
21
-4.1822455118110238
0
LINE
8
BLACK
6
CONTINUOUS
10
5.7675354330708659
20
-4.1822455118110238
11
5.7673556299212594
21
-4.1831494881889766
0
LINE
8
BLACK
6
CONTINUOUS
10
5.7673556299212594
20
-4.1831494881889766
11
5.7660772047244091
21
-4.1844279133858269
0
LINE
8
BLACK
6
CONTINUOUS
10
5.7660772047244091
20
-4.1844279133858269
11
5.7642692519685035
21
-4.1844279133858269
0
LINE
8
BLACK
6
CONTINUOUS
10
5.7642692519685035
20
-4.1844279133858269
11
5.7629908267716532
21
-4.1831494881889766
0
LINE
8
BLACK
6
CONTINUOUS
10
5.7629908267716532
20
-4.1831494881889766
11
5.7628110236220467
21
-4.1737544881889761
0
LINE
8
BLACK
6
CONTINUOUS
10
5.7628110236220467
20
-4.1737544881889761
11
5.7629908267716532
21
-4.1728505118110233
0
LINE
8
BLACK
6
CONTINUOUS
10
5.7629908267716532
20
-4.1728505118110233
11
5.7642692519685035
21
-4.171572086614173
0
LINE
8
BLACK
6
CONTINUOUS
10
5.7642692519685035
20
-4.171572086614173
11
5.7660772047244091
21
-4.171572086614173
0
LINE
8
BLACK
6
CONTINUOUS
10
5.7660772047244091
20
-4.171572086614173
11
5.7673556299212594
21
-4.1728505118110233
0
LINE
8
BLACK
6
CONTINUOUS
10
5.7830091732283462
20
-4.1728505118110233
11
5.7831889763779527
21
-4.1822455118110238
0
LINE
8
BLACK
6
CONTINUOUS
10
5.7831889763779527
20
-4.1822455118110238
11
5.7830091732283462
21
-4.1831494881889766
0
LINE
8
BLACK
6
CONTINUOUS
10
5.7830091732283462
20
-4.1831494881889766
11
5.7817307480314959
21
-4.1844279133858269
0
LINE
8
BLACK
6
CONTINUOUS
10
5.7817307480314959
20
-4.1844279133858269
11
5.7799227952755903
21
-4.1844279133858269
0
LINE
8
BLACK
6
CONTINUOUS
10
5.7799227952755903
20
-4.1844279133858269
11
5.77864437007874
21
-4.1831494881889766
0
LINE
8
BLACK
6
CONTINUOUS
10
5.77864437007874
20
-4.1831494881889766
11
5.7784645669291335
21
-4.1737544881889761
0
LINE
8
BLACK
6
CONTINUOUS
10
5.7784645669291335
20
-4.1737544881889761
11
5.77864437007874
21
-4.1728505118110233
0
LINE
8
BLACK
6
CONTINUOUS
10
5.77864437007874
20
-4.1728505118110233
11
5.7799227952755903
21
-4.171572086614173
0
LINE
8
BLACK
6
CONTINUOUS
10
5.7799227952755903
20
-4.171572086614173
11
5.7817307480314959
21
-4.171572086614173
0
LINE
8
BLACK
6
CONTINUOUS
10
5.7817307480314959
20
-4.171572086614173
11
5.7830091732283462
21
-4.1728505118110233
0
LINE
8
BLACK
6
CONTINUOUS
10
5.8113556299212599
20
-4.1728505118110233
11
5.8115354330708664
21
-4.1822455118110238
0
LINE
8
BLACK
6
CONTINUOUS
10
5.8115354330708664
20
-4.1822455118110238
11
5.8113556299212599
21
-4.1831494881889766
0
LINE
8
BLACK
6
CONTINUOUS
10
5.8113556299212599
20
-4.1831494881889766
11
5.8100772047244096
21
-4.1844279133858269
0
LINE
8
BLACK
6
CONTINUOUS
10
5.8100772047244096
20
-4.1844279133858269
11
5.808269251968504
21
-4.1844279133858269
0
LINE
8
BLACK
6
CONTINUOUS
10
5.808269251968504
20
-4.1844279133858269
11
5.8069908267716537
21
-4.1831494881889766
0
LINE
8
BLACK
6
CONTINUOUS
10
5.8069908267716537
20
-4.1831494881889766
11
5.8068110236220472
21
-4.1737544881889761
0
LINE
8
BLACK
6
CONTINUOUS
10
5.8068110236220472
20
-4.1737544881889761
11
5.8069908267716537
21
-4.1728505118110233
0
LINE
8
BLACK
6
CONTINUOUS
10
5.8069908267716537
20
-4.1728505118110233
11
5.808269251968504
21
-4.171572086614173
0
LINE
8
BLACK
6
CONTINUOUS
10
5.808269251968504
20
-4.171572086614173
11
5.8100772047244096
21
-4.171572086614173
0
LINE
8
BLACK
6
CONTINUOUS
10
5.8100772047244096
20
-4.171572086614173
11
5.8113556299212599
21
-4.1728505118110233
0
LINE
8
BLACK
6
CONTINUOUS
10
4.9872217716535436
20
-4.1630471653543308
11
4.9874015748031493
21
-4.1760488582677162
0
LINE
8
BLACK
6
CONTINUOUS
10
4.9874015748031493
20
-4.1760488582677162
11
4.9872217716535436
21
-4.176952834645669
0
LINE
8
BLACK
6
CONTINUOUS
10
4.9872217716535436
20
-4.176952834645669
11
4.9859433464566925
21
-4.1782312598425193
0
LINE
8
BLACK
6
CONTINUOUS
10
4.9859433464566925
20
-4.1782312598425193
11
4.9841353937007877
21
-4.1782312598425193
0
LINE
8
BLACK
6
CONTINUOUS
10
4.9841353937007877
20
-4.1782312598425193
11
4.9828569685039366
21
-4.176952834645669
0
LINE
8
BLACK
6
CONTINUOUS
10
4.9828569685039366
20
-4.176952834645669
11
4.9826771653543309
21
-4.1639511417322836
0
LINE
8
BLACK
6
CONTINUOUS
10
4.9826771653543309
20
-4.1639511417322836
11
4.9828569685039366
21
-4.1630471653543308
0
LINE
8
BLACK
6
CONTINUOUS
10
4.9828569685039366
20
-4.1630471653543308
11
4.9841353937007877
21
-4.1617687401574806
0
LINE
8
BLACK
6
CONTINUOUS
10
4.9841353937007877
20
-4.1617687401574806
11
4.9859433464566925
21
-4.1617687401574806
0
LINE
8
BLACK
6
CONTINUOUS
10
4.9859433464566925
20
-4.1617687401574806
11
4.9872217716535436
21
-4.1630471653543308
0
LINE
8
BLACK
6
CONTINUOUS
10
5.0171430314960626
20
-4.1630471653543308
11
5.0173228346456691
21
-4.1760488582677162
0
LINE
8
BLACK
6
CONTINUOUS
10
5.0173228346456691
20
-4.1760488582677162
11
5.0171430314960626
21
-4.176952834645669
0
LINE
8
BLACK
6
CONTINUOUS
10
5.0171430314960626
20
-4.176952834645669
11
5.0158646062992123
21
-4.1782312598425193
0
LINE
8
BLACK
6
CONTINUOUS
10
5.0158646062992123
20
-4.1782312598425193
11
5.0140566535433067
21
-4.1782312598425193
0
LINE
8
BLACK
6
CONTINUOUS
10
5.0140566535433067
20
-4.1782312598425193
11
5.0127782283464564
21
-4.176952834645669
0
LINE
8
BLACK
6
CONTINUOUS
10
5.0127782283464564
20
-4.176952834645669
11
5.0125984251968498
21
-4.1639511417322836
0
LINE
8
BLACK
6
CONTINUOUS
10
5.0125984251968498
20
-4.1639511417322836
11
5.0127782283464564
21
-4.1630471653543308
0
LINE
8
BLACK
6
CONTINUOUS
10
5.0127782283464564
20
-4.1630471653543308
11
5.0140566535433067
21
-4.1617687401574806
0
LINE
8
BLACK
6
CONTINUOUS
10
5.0140566535433067
20
-4.1617687401574806
11
5.0158646062992123
21
-4.1617687401574806
0
LINE
8
BLACK
6
CONTINUOUS
10
5.0158646062992123
20
-4.1617687401574806
11
5.0171430314960626
21
-4.1630471653543308
0
LINE
8
BLACK
6
CONTINUOUS
10
5.2026640944881892
20
-4.1546314960629918
11
5.2034787401574798
21
-4.1554461417322832
0
LINE
8
BLACK
6
CONTINUOUS
10
5.2034787401574798
20
-4.1554461417322832
11
5.2039196456692913
21
-4.1565105511811025
0
LINE
8
BLACK
6
CONTINUOUS
10
5.2039196456692913
20
-4.1565105511811025
11
5.2039543307086609
21
-4.1610787795275588
0
LINE
8
BLACK
6
CONTINUOUS
10
5.2039543307086609
20
-4.1610787795275588
11
5.3260535433070864
21
-4.1610248818897633
0
LINE
8
BLACK
6
CONTINUOUS
10
5.3260535433070864
20
-4.1610248818897633
11
5.3260236220472441
21
-4.1570866141732283
0
LINE
8
BLACK
6
CONTINUOUS
10
5.3260236220472441
20
-4.1570866141732283
11
5.3260803543307089
21
-4.1565105511811025
0
LINE
8
BLACK
6
CONTINUOUS
10
5.3260803543307089
20
-4.1565105511811025
11
5.3265212598425196
21
-4.1554461417322832
0
LINE
8
BLACK
6
CONTINUOUS
10
5.3265212598425196
20
-4.1554461417322832
11
5.327335905511811
21
-4.1546314960629918
0
LINE
8
BLACK
6
CONTINUOUS
10
5.327335905511811
20
-4.1546314960629918
11
5.3284003149606294
21
-4.1541905905511811
0
LINE
8
BLACK
6
CONTINUOUS
10
5.3284003149606294
20
-4.1541905905511811
11
5.329552440944882
21
-4.1541905905511811
0
LINE
8
BLACK
6
CONTINUOUS
10
5.329552440944882
20
-4.1541905905511811
11
5.3306168503937004
21
-4.1546314960629918
0
LINE
8
BLACK
6
CONTINUOUS
10
5.3306168503937004
20
-4.1546314960629918
11
5.3314314960629918
21
-4.1554461417322832
0
LINE
8
BLACK
6
CONTINUOUS
10
5.3314314960629918
20
-4.1554461417322832
11
5.3318724015748034
21
-4.1565105511811025
0
LINE
8
BLACK
6
CONTINUOUS
10
5.3318724015748034
20
-4.1565105511811025
11
5.3319291338582673
21
-4.1639763779527561
0
LINE
8
BLACK
6
CONTINUOUS
10
5.3319291338582673
20
-4.1639763779527561
11
5.3318724015748034
21
-4.164552440944882
0
LINE
8
BLACK
6
CONTINUOUS
10
5.3318724015748034
20
-4.164552440944882
11
5.3314314960629918
21
-4.1656168503937003
0
LINE
8
BLACK
6
CONTINUOUS
10
5.3314314960629918
20
-4.1656168503937003
11
5.3306168503937004
21
-4.1664314960629918
0
LINE
8
BLACK
6
CONTINUOUS
10
5.3306168503937004
20
-4.1664314960629918
11
5.329552440944882
21
-4.1668724015748033
0
LINE
8
BLACK
6
CONTINUOUS
10
5.329552440944882
20
-4.1668724015748033
11
5.2010236220472441
21
-4.1669291338582672
0
LINE
8
BLACK
6
CONTINUOUS
10
5.2010236220472441
20
-4.1669291338582672
11
5.2004475590551182
21
-4.1668724015748033
0
LINE
8
BLACK
6
CONTINUOUS
10
5.2004475590551182
20
-4.1668724015748033
11
5.199383149606299
21
-4.1664314960629918
0
LINE
8
BLACK
6
CONTINUOUS
10
5.199383149606299
20
-4.1664314960629918
11
5.1985685039370075
21
-4.1656168503937003
0
LINE
8
BLACK
6
CONTINUOUS
10
5.1985685039370075
20
-4.1656168503937003
11
5.1981275984251969
21
-4.164552440944882
0
LINE
8
BLACK
6
CONTINUOUS
10
5.1981275984251969
20
-4.164552440944882
11
5.1980708661417321
21
-4.1570866141732283
0
LINE
8
BLACK
6
CONTINUOUS
10
5.1980708661417321
20
-4.1570866141732283
11
5.1981275984251969
21
-4.1565105511811025
0
LINE
8
BLACK
6
CONTINUOUS
10
5.1981275984251969
20
-4.1565105511811025
11
5.1985685039370075
21
-4.1554461417322832
0
LINE
8
BLACK
6
CONTINUOUS
10
5.1985685039370075
20
-4.1554461417322832
11
5.199383149606299
21
-4.1546314960629918
0
LINE
8
BLACK
6
CONTINUOUS
10
5.199383149606299
20
-4.1546314960629918
11
5.2004475590551182
21
-4.1541905905511811
0
LINE
8
BLACK
6
CONTINUOUS
10
5.2004475590551182
20
-4.1541905905511811
11
5.20159968503937
21
-4.1541905905511811
0
LINE
8
BLACK
6
CONTINUOUS
10
5.20159968503937
20
-4.1541905905511811
11
5.2026640944881892
21
-4.1546314960629918
0
LINE
8
BLACK
6
CONTINUOUS
10
5.5080091732283467
20
-4.1448505118110237
11
5.5081889763779524
21
-4.1542455118110233
0
LINE
8
BLACK
6
CONTINUOUS
10
5.5081889763779524
20
-4.1542455118110233
11
5.5080091732283467
21
-4.1551494881889761
0
LINE
8
BLACK
6
CONTINUOUS
10
5.5080091732283467
20
-4.1551494881889761
11
5.5067307480314955
21
-4.1564279133858264
0
LINE
8
BLACK
6
CONTINUOUS
10
5.5067307480314955
20
-4.1564279133858264
11
5.5049227952755908
21
-4.1564279133858264
0
LINE
8
BLACK
6
CONTINUOUS
10
5.5049227952755908
20
-4.1564279133858264
11
5.5036443700787396
21
-4.1551494881889761
0
LINE
8
BLACK
6
CONTINUOUS
10
5.5036443700787396
20
-4.1551494881889761
11
5.503464566929134
21
-4.1457544881889765
0
LINE
8
BLACK
6
CONTINUOUS
10
5.503464566929134
20
-4.1457544881889765
11
5.5036443700787396
21
-4.1448505118110237
0
LINE
8
BLACK
6
CONTINUOUS
10
5.5036443700787396
20
-4.1448505118110237
11
5.5049227952755908
21
-4.1435720866141734
0
LINE
8
BLACK
6
CONTINUOUS
10
5.5049227952755908
20
-4.1435720866141734
11
5.5067307480314955
21
-4.1435720866141734
0
LINE
8
BLACK
6
CONTINUOUS
10
5.5067307480314955
20
-4.1435720866141734
11
5.5080091732283467
21
-4.1448505118110237
0
LINE
8
BLACK
6
CONTINUOUS
10
5.5363556299212595
20
-4.1448505118110237
11
5.536535433070866
21
-4.1542455118110233
0
LINE
8
BLACK
6
CONTINUOUS
10
5.536535433070866
20
-4.1542455118110233
11
5.5363556299212595
21
-4.1551494881889761
0
LINE
8
BLACK
6
CONTINUOUS
10
5.5363556299212595
20
-4.1551494881889761
11
5.5350772047244092
21
-4.1564279133858264
0
LINE
8
BLACK
6
CONTINUOUS
10
5.5350772047244092
20
-4.1564279133858264
11
5.5332692519685036
21
-4.1564279133858264
0
LINE
8
BLACK
6
CONTINUOUS
10
5.5332692519685036
20
-4.1564279133858264
11
5.5319908267716533
21
-4.1551494881889761
0
LINE
8
BLACK
6
CONTINUOUS
10
5.5319908267716533
20
-4.1551494881889761
11
5.5318110236220468
21
-4.1457544881889765
0
LINE
8
BLACK
6
CONTINUOUS
10
5.5318110236220468
20
-4.1457544881889765
11
5.5319908267716533
21
-4.1448505118110237
0
LINE
8
BLACK
6
CONTINUOUS
10
5.5319908267716533
20
-4.1448505118110237
11
5.5332692519685036
21
-4.1435720866141734
0
LINE
8
BLACK
6
CONTINUOUS
10
5.5332692519685036
20
-4.1435720866141734
11
5.5350772047244092
21
-4.1435720866141734
0
LINE
8
BLACK
6
CONTINUOUS
10
5.5350772047244092
20
-4.1435720866141734
11
5.5363556299212595
21
-4.1448505118110237
0
LINE
8
BLACK
6
CONTINUOUS
10
5.4419528346456696
20
-4.1427782283464563
11
5.4432312598425199
21
-4.1440566535433074
0
LINE
8
BLACK
6
CONTINUOUS
10
5.4432312598425199
20
-4.1440566535433074
11
5.4432312598425199
21
-4.1458646062992122
0
LINE
8
BLACK
6
CONTINUOUS
10
5.4432312598425199
20
-4.1458646062992122
11
5.4419528346456696
21
-4.1471430314960633
0
LINE
8
BLACK
6
CONTINUOUS
10
5.4419528346456696
20
-4.1471430314960633
11
5.4289511417322833
21
-4.147322834645669
0
LINE
8
BLACK
6
CONTINUOUS
10
5.4289511417322833
20
-4.147322834645669
11
5.4280471653543305
21
-4.1471430314960633
0
LINE
8
BLACK
6
CONTINUOUS
10
5.4280471653543305
20
-4.1471430314960633
11
5.4267687401574802
21
-4.1458646062992122
0
LINE
8
BLACK
6
CONTINUOUS
10
5.4267687401574802
20
-4.1458646062992122
11
5.4267687401574802
21
-4.1440566535433074
0
LINE
8
BLACK
6
CONTINUOUS
10
5.4267687401574802
20
-4.1440566535433074
11
5.4280471653543305
21
-4.1427782283464563
0
LINE
8
BLACK
6
CONTINUOUS
10
5.4280471653543305
20
-4.1427782283464563
11
5.4410488582677168
21
-4.1425984251968506
0
LINE
8
BLACK
6
CONTINUOUS
10
5.4410488582677168
20
-4.1425984251968506
11
5.4419528346456696
21
-4.1427782283464563
0
LINE
8
BLACK
6
CONTINUOUS
10
5.0422217716535433
20
-4.1131259055118106
11
5.0424015748031499
21
-4.1261275984251968
0
LINE
8
BLACK
6
CONTINUOUS
10
5.0424015748031499
20
-4.1261275984251968
11
5.0422217716535433
21
-4.1270315748031496
0
LINE
8
BLACK
6
CONTINUOUS
10
5.0422217716535433
20
-4.1270315748031496
11
5.0409433464566931
21
-4.1283099999999999
0
LINE
8
BLACK
6
CONTINUOUS
10
5.0409433464566931
20
-4.1283099999999999
11
5.0391353937007874
21
-4.1283099999999999
0
LINE
8
BLACK
6
CONTINUOUS
10
5.0391353937007874
20
-4.1283099999999999
11
5.0378569685039372
21
-4.1270315748031496
0
LINE
8
BLACK
6
CONTINUOUS
10
5.0378569685039372
20
-4.1270315748031496
11
5.0376771653543306
21
-4.1140298818897634
0
LINE
8
BLACK
6
CONTINUOUS
10
5.0376771653543306
20
-4.1140298818897634
11
5.0378569685039372
21
-4.1131259055118106
0
LINE
8
BLACK
6
CONTINUOUS
10
5.0378569685039372
20
-4.1131259055118106
11
5.0391353937007874
21
-4.1118474803149603
0
LINE
8
BLACK
6
CONTINUOUS
10
5.0391353937007874
20
-4.1118474803149603
11
5.0409433464566931
21
-4.1118474803149603
0
LINE
8
BLACK
6
CONTINUOUS
10
5.0409433464566931
20
-4.1118474803149603
11
5.0422217716535433
21
-4.1131259055118106
0
LINE
8
BLACK
6
CONTINUOUS
10
5.0721430314960632
20
-4.1131259055118106
11
5.0723228346456688
21
-4.1261275984251968
0
LINE
8
BLACK
6
CONTINUOUS
10
5.0723228346456688
20
-4.1261275984251968
11
5.0721430314960632
21
-4.1270315748031496
0
LINE
8
BLACK
6
CONTINUOUS
10
5.0721430314960632
20
-4.1270315748031496
11
5.0708646062992129
21
-4.1283099999999999
0
LINE
8
BLACK
6
CONTINUOUS
10
5.0708646062992129
20
-4.1283099999999999
11
5.0690566535433073
21
-4.1283099999999999
0
LINE
8
BLACK
6
CONTINUOUS
10
5.0690566535433073
20
-4.1283099999999999
11
5.067778228346457
21
-4.1270315748031496
0
LINE
8
BLACK
6
CONTINUOUS
10
5.067778228346457
20
-4.1270315748031496
11
5.0675984251968504
21
-4.1140298818897634
0
LINE
8
BLACK
6
CONTINUOUS
10
5.0675984251968504
20
-4.1140298818897634
11
5.067778228346457
21
-4.1131259055118106
0
LINE
8
BLACK
6
CONTINUOUS
10
5.067778228346457
20
-4.1131259055118106
11
5.0690566535433073
21
-4.1118474803149603
0
LINE
8
BLACK
6
CONTINUOUS
10
5.0690566535433073
20
-4.1118474803149603
11
5.0708646062992129
21
-4.1118474803149603
0
LINE
8
BLACK
6
CONTINUOUS
10
5.0708646062992129
20
-4.1118474803149603
11
5.0721430314960632
21
-4.1131259055118106
0
LINE
8
BLACK
6
CONTINUOUS
10
4.9901494881889761
20
-4.1169908267716533
11
4.9914279133858264
21
-4.1182692519685036
0
LINE
8
BLACK
6
CONTINUOUS
10
4.9914279133858264
20
-4.1182692519685036
11
4.9914279133858264
21
-4.1200772047244092
0
LINE
8
BLACK
6
CONTINUOUS
10
4.9914279133858264
20
-4.1200772047244092
11
4.9901494881889761
21
-4.1213556299212595
0
LINE
8
BLACK
6
CONTINUOUS
10
4.9901494881889761
20
-4.1213556299212595
11
4.9807544881889765
21
-4.121535433070866
0
LINE
8
BLACK
6
CONTINUOUS
10
4.9807544881889765
20
-4.121535433070866
11
4.9798505118110237
21
-4.1213556299212595
0
LINE
8
BLACK
6
CONTINUOUS
10
4.9798505118110237
20
-4.1213556299212595
11
4.9785720866141734
21
-4.1200772047244092
0
LINE
8
BLACK
6
CONTINUOUS
10
4.9785720866141734
20
-4.1200772047244092
11
4.9785720866141734
21
-4.1182692519685036
0
LINE
8
BLACK
6
CONTINUOUS
10
4.9785720866141734
20
-4.1182692519685036
11
4.9798505118110237
21
-4.1169908267716533
0
LINE
8
BLACK
6
CONTINUOUS
10
4.9798505118110237
20
-4.1169908267716533
11
4.9892455118110233
21
-4.1168110236220468
0
LINE
8
BLACK
6
CONTINUOUS
10
4.9892455118110233
20
-4.1168110236220468
11
4.9901494881889761
21
-4.1169908267716533
0
LINE
8
BLACK
6
CONTINUOUS
10
4.8422217716535432
20
-4.1030471653543303
11
4.8424015748031497
21
-4.1160488582677166
0
LINE
8
BLACK
6
CONTINUOUS
10
4.8424015748031497
20
-4.1160488582677166
11
4.8422217716535432
21
-4.1169528346456694
0
LINE
8
BLACK
6
CONTINUOUS
10
4.8422217716535432
20
-4.1169528346456694
11
4.8409433464566929
21
-4.1182312598425197
0
LINE
8
BLACK
6
CONTINUOUS
10
4.8409433464566929
20
-4.1182312598425197
11
4.8391353937007873
21
-4.1182312598425197
0
LINE
8
BLACK
6
CONTINUOUS
10
4.8391353937007873
20
-4.1182312598425197
11
4.837856968503937
21
-4.1169528346456694
0
LINE
8
BLACK
6
CONTINUOUS
10
4.837856968503937
20
-4.1169528346456694
11
4.8376771653543305
21
-4.1039511417322831
0
LINE
8
BLACK
6
CONTINUOUS
10
4.8376771653543305
20
-4.1039511417322831
11
4.837856968503937
21
-4.1030471653543303
0
LINE
8
BLACK
6
CONTINUOUS
10
4.837856968503937
20
-4.1030471653543303
11
4.8391353937007873
21
-4.1017687401574801
0
LINE
8
BLACK
6
CONTINUOUS
10
4.8391353937007873
20
-4.1017687401574801
11
4.8409433464566929
21
-4.1017687401574801
0
LINE
8
BLACK
6
CONTINUOUS
10
4.8409433464566929
20
-4.1017687401574801
11
4.8422217716535432
21
-4.1030471653543303
0
LINE
8
BLACK
6
CONTINUOUS
10
4.872143031496063
20
-4.1030471653543303
11
4.8723228346456695
21
-4.1160488582677166
0
LINE
8
BLACK
6
CONTINUOUS
10
4.8723228346456695
20
-4.1160488582677166
11
4.872143031496063
21
-4.1169528346456694
0
LINE
8
BLACK
6
CONTINUOUS
10
4.872143031496063
20
-4.1169528346456694
11
4.8708646062992127
21
-4.1182312598425197
0
LINE
8
BLACK
6
CONTINUOUS
10
4.8708646062992127
20
-4.1182312598425197
11
4.8690566535433071
21
-4.1182312598425197
0
LINE
8
BLACK
6
CONTINUOUS
10
4.8690566535433071
20
-4.1182312598425197
11
4.8677782283464568
21
-4.1169528346456694
0
LINE
8
BLACK
6
CONTINUOUS
10
4.8677782283464568
20
-4.1169528346456694
11
4.8675984251968503
21
-4.1039511417322831
0
LINE
8
BLACK
6
CONTINUOUS
10
4.8675984251968503
20
-4.1039511417322831
11
4.8677782283464568
21
-4.1030471653543303
0
LINE
8
BLACK
6
CONTINUOUS
10
4.8677782283464568
20
-4.1030471653543303
11
4.8690566535433071
21
-4.1017687401574801
0
LINE
8
BLACK
6
CONTINUOUS
10
4.8690566535433071
20
-4.1017687401574801
11
4.8708646062992127
21
-4.1017687401574801
0
LINE
8
BLACK
6
CONTINUOUS
10
4.8708646062992127
20
-4.1017687401574801
11
4.872143031496063
21
-4.1030471653543303
0
LINE
8
BLACK
6
CONTINUOUS
10
5.4419528346456696
20
-4.1128569685039373
11
5.4432312598425199
21
-4.1141353937007876
0
LINE
8
BLACK
6
CONTINUOUS
10
5.4432312598425199
20
-4.1141353937007876
11
5.4432312598425199
21
-4.1159433464566932
0
LINE
8
BLACK
6
CONTINUOUS
10
5.4432312598425199
20
-4.1159433464566932
11
5.4419528346456696
21
-4.1172217716535435
0
LINE
8
BLACK
6
CONTINUOUS
10
5.4419528346456696
20
-4.1172217716535435
11
5.4289511417322833
21
-4.1174015748031492
0
LINE
8
BLACK
6
CONTINUOUS
10
5.4289511417322833
20
-4.1174015748031492
11
5.4280471653543305
21
-4.1172217716535435
0
LINE
8
BLACK
6
CONTINUOUS
10
5.4280471653543305
20
-4.1172217716535435
11
5.4267687401574802
21
-4.1159433464566932
0
LINE
8
BLACK
6
CONTINUOUS
10
5.4267687401574802
20
-4.1159433464566932
11
5.4267687401574802
21
-4.1141353937007876
0
LINE
8
BLACK
6
CONTINUOUS
10
5.4267687401574802
20
-4.1141353937007876
11
5.4280471653543305
21
-4.1128569685039373
0
LINE
8
BLACK
6
CONTINUOUS
10
5.4280471653543305
20
-4.1128569685039373
11
5.4410488582677168
21
-4.1126771653543308
0
LINE
8
BLACK
6
CONTINUOUS
10
5.4410488582677168
20
-4.1126771653543308
11
5.4419528346456696
21
-4.1128569685039373
0
LINE
8
BLACK
6
CONTINUOUS
10
5.7878516929133861
20
-4.0396865748031496
11
5.7880259842519681
21
-4.1092641732283468
0
LINE
8
BLACK
6
CONTINUOUS
10
5.7880259842519681
20
-4.1092641732283468
11
5.8427559055118108
21
-4.1090944881889762
0
LINE
8
BLACK
6
CONTINUOUS
10
5.8427559055118108
20
-4.1090944881889762
11
5.8436598818897636
21
-4.1092742913385827
0
LINE
8
BLACK
6
CONTINUOUS
10
5.8436598818897636
20
-4.1092742913385827
11
5.8449383070866139
21
-4.110552716535433
0
LINE
8
BLACK
6
CONTINUOUS
10
5.8449383070866139
20
-4.110552716535433
11
5.8449383070866139
21
-4.1123606692913386
0
LINE
8
BLACK
6
CONTINUOUS
10
5.8449383070866139
20
-4.1123606692913386
11
5.8436598818897636
21
-4.1136390944881889
0
LINE
8
BLACK
6
CONTINUOUS
10
5.8436598818897636
20
-4.1136390944881889
11
5.785669291338583
21
-4.1138188976377954
0
LINE
8
BLACK
6
CONTINUOUS
10
5.785669291338583
20
-4.1138188976377954
11
5.7847653149606302
21
-4.1136390944881889
0
LINE
8
BLACK
6
CONTINUOUS
10
5.7847653149606302
20
-4.1136390944881889
11
5.783486889763779
21
-4.1123606692913386
0
LINE
8
BLACK
6
CONTINUOUS
10
5.783486889763779
20
-4.1123606692913386
11
5.7833070866141734
21
-4.0405905511811024
0
LINE
8
BLACK
6
CONTINUOUS
10
5.7833070866141734
20
-4.0405905511811024
11
5.783486889763779
21
-4.0396865748031496
0
LINE
8
BLACK
6
CONTINUOUS
10
5.783486889763779
20
-4.0396865748031496
11
5.7847653149606302
21
-4.0384081496062993
0
LINE
8
BLACK
6
CONTINUOUS
10
5.7847653149606302
20
-4.0384081496062993
11
5.7865732677165349
21
-4.0384081496062993
0
LINE
8
BLACK
6
CONTINUOUS
10
5.7865732677165349
20
-4.0384081496062993
11
5.7878516929133861
21
-4.0396865748031496
0
LINE
8
BLACK
6
CONTINUOUS
10
5.7465567716535428
20
-4.0789016141732279
11
5.7475872834645667
21
-4.0794168897637793
0
LINE
8
BLACK
6
CONTINUOUS
10
5.7475872834645667
20
-4.0794168897637793
11
5.7483421259842515
21
-4.080287244094488
0
LINE
8
BLACK
6
CONTINUOUS
10
5.7483421259842515
20
-4.080287244094488
11
5.7487064566929131
21
-4.0813802362204727
0
LINE
8
BLACK
6
CONTINUOUS
10
5.7487064566929131
20
-4.0813802362204727
11
5.7486248031496059
21
-4.0825294488188977
0
LINE
8
BLACK
6
CONTINUOUS
10
5.7486248031496059
20
-4.0825294488188977
11
5.7465431496062989
21
-4.0868195669291341
0
LINE
8
BLACK
6
CONTINUOUS
10
5.7465431496062989
20
-4.0868195669291341
11
5.7463871259842518
21
-4.0870673622047242
0
LINE
8
BLACK
6
CONTINUOUS
10
5.7463871259842518
20
-4.0870673622047242
11
5.7463572834645671
21
-4.0871395275590547
0
LINE
8
BLACK
6
CONTINUOUS
10
5.7463572834645671
20
-4.0871395275590547
11
5.7463139370078737
21
-4.0871837007874019
0
LINE
8
BLACK
6
CONTINUOUS
10
5.7463139370078737
20
-4.0871837007874019
11
5.7462348031496058
21
-4.0873094488188979
0
LINE
8
BLACK
6
CONTINUOUS
10
5.7462348031496058
20
-4.0873094488188979
11
5.7459388188976375
21
-4.0875661023622047
0
LINE
8
BLACK
6
CONTINUOUS
10
5.7459388188976375
20
-4.0875661023622047
11
5.7434645669291333
21
-4.0900885433070862
0
LINE
8
BLACK
6
CONTINUOUS
10
5.7434645669291333
20
-4.0900885433070862
11
5.770966023622047
21
-4.090049488188976
0
LINE
8
BLACK
6
CONTINUOUS
10
5.770966023622047
20
-4.090049488188976
11
5.7709456299212594
21
-4.0817495275590554
0
LINE
8
BLACK
6
CONTINUOUS
10
5.7709456299212594
20
-4.0817495275590554
11
5.7710023622047242
21
-4.0811734645669286
0
LINE
8
BLACK
6
CONTINUOUS
10
5.7710023622047242
20
-4.0811734645669286
11
5.7714432677165357
21
-4.0801090551181103
0
LINE
8
BLACK
6
CONTINUOUS
10
5.7714432677165357
20
-4.0801090551181103
11
5.7722579133858263
21
-4.0792944094488188
0
LINE
8
BLACK
6
CONTINUOUS
10
5.7722579133858263
20
-4.0792944094488188
11
5.7733223228346455
21
-4.0788535039370082
0
LINE
8
BLACK
6
CONTINUOUS
10
5.7733223228346455
20
-4.0788535039370082
11
5.7744744488188973
21
-4.0788535039370082
0
LINE
8
BLACK
6
CONTINUOUS
10
5.7744744488188973
20
-4.0788535039370082
11
5.7755388582677165
21
-4.0792944094488188
0
LINE
8
BLACK
6
CONTINUOUS
10
5.7755388582677165
20
-4.0792944094488188
11
5.776353503937008
21
-4.0801090551181103
0
LINE
8
BLACK
6
CONTINUOUS
10
5.776353503937008
20
-4.0801090551181103
11
5.7767944094488186
21
-4.0811734645669286
0
LINE
8
BLACK
6
CONTINUOUS
10
5.7767944094488186
20
-4.0811734645669286
11
5.7768511417322834
21
-4.1042466929133861
0
LINE
8
BLACK
6
CONTINUOUS
10
5.7768511417322834
20
-4.1042466929133861
11
5.7767944094488186
21
-4.1048227559055119
0
LINE
8
BLACK
6
CONTINUOUS
10
5.7767944094488186
20
-4.1048227559055119
11
5.776353503937008
21
-4.1058871653543303
0
LINE
8
BLACK
6
CONTINUOUS
10
5.776353503937008
20
-4.1058871653543303
11
5.7755388582677165
21
-4.1067018110236218
0
LINE
8
BLACK
6
CONTINUOUS
10
5.7755388582677165
20
-4.1067018110236218
11
5.7744744488188973
21
-4.1071427165354333
0
LINE
8
BLACK
6
CONTINUOUS
10
5.7744744488188973
20
-4.1071427165354333
11
5.7733223228346455
21
-4.1071427165354333
0
LINE
8
BLACK
6
CONTINUOUS
10
5.7733223228346455
20
-4.1071427165354333
11
5.7722579133858263
21
-4.1067018110236218
0
LINE
8
BLACK
6
CONTINUOUS
10
5.7722579133858263
20
-4.1067018110236218
11
5.7714432677165357
21
-4.1058871653543303
0
LINE
8
BLACK
6
CONTINUOUS
10
5.7714432677165357
20
-4.1058871653543303
11
5.7710023622047242
21
-4.1048227559055119
0
LINE
8
BLACK
6
CONTINUOUS
10
5.7710023622047242
20
-4.1048227559055119
11
5.7709803937007873
21
-4.095899094488189
0
LINE
8
BLACK
6
CONTINUOUS
10
5.7709803937007873
20
-4.095899094488189
11
5.734528307086614
21
-4.0959508661417319
0
LINE
8
BLACK
6
CONTINUOUS
10
5.734528307086614
20
-4.0959508661417319
11
5.734526220472441
21
-4.0959506299212594
0
LINE
8
BLACK
6
CONTINUOUS
10
5.734526220472441
20
-4.0959506299212594
11
5.7345251968503934
21
-4.0959508661417319
0
LINE
8
BLACK
6
CONTINUOUS
10
5.7345251968503934
20
-4.0959508661417319
11
5.7345221653543303
21
-4.0959502362204727
0
LINE
8
BLACK
6
CONTINUOUS
10
5.7345221653543303
20
-4.0959502362204727
11
5.7339522440944881
21
-4.0958941338582679
0
LINE
8
BLACK
6
CONTINUOUS
10
5.7339522440944881
20
-4.0958941338582679
11
5.7336821259842514
21
-4.0957822440944884
0
LINE
8
BLACK
6
CONTINUOUS
10
5.7336821259842514
20
-4.0957822440944884
11
5.7333955118110236
21
-4.0957249212598423
0
LINE
8
BLACK
6
CONTINUOUS
10
5.7333955118110236
20
-4.0957249212598423
11
5.7331551181102363
21
-4.0955639370078742
0
LINE
8
BLACK
6
CONTINUOUS
10
5.7331551181102363
20
-4.0955639370078742
11
5.7328878346456689
21
-4.0954532283464564
0
LINE
8
BLACK
6
CONTINUOUS
10
5.7328878346456689
20
-4.0954532283464564
11
5.7326811023622044
21
-4.095246496062992
0
LINE
8
BLACK
6
CONTINUOUS
10
5.7326811023622044
20
-4.095246496062992
11
5.7324382283464566
21
-4.0950838582677163
0
LINE
8
BLACK
6
CONTINUOUS
10
5.7324382283464566
20
-4.0950838582677163
11
5.7322777165354326
21
-4.0948431102362202
0
LINE
8
BLACK
6
CONTINUOUS
10
5.7322777165354326
20
-4.0948431102362202
11
5.7320731889763774
21
-4.094638582677165
0
LINE
8
BLACK
6
CONTINUOUS
10
5.7320731889763774
20
-4.094638582677165
11
5.7319612992125979
21
-4.0943684645669292
0
LINE
8
BLACK
6
CONTINUOUS
10
5.7319612992125979
20
-4.0943684645669292
11
5.7317991338582672
21
-4.0941252362204725
0
LINE
8
BLACK
6
CONTINUOUS
10
5.7317991338582672
20
-4.0941252362204725
11
5.7317429921259837
21
-4.0938414173228344
0
LINE
8
BLACK
6
CONTINUOUS
10
5.7317429921259837
20
-4.0938414173228344
11
5.7316322834645668
21
-4.0935741732283466
0
LINE
8
BLACK
6
CONTINUOUS
10
5.7316322834645668
20
-4.0935741732283466
11
5.7316322834645668
21
-4.093281771653543
0
LINE
8
BLACK
6
CONTINUOUS
10
5.7316322834645668
20
-4.093281771653543
11
5.731575551181102
21
-4.0929950000000002
0
LINE
8
BLACK
6
CONTINUOUS
10
5.731575551181102
20
-4.0929950000000002
11
5.7316322834645668
21
-4.092711338582677
0
LINE
8
BLACK
6
CONTINUOUS
10
5.7316322834645668
20
-4.092711338582677
11
5.7316322834645668
21
-4.092422047244094
0
LINE
8
BLACK
6
CONTINUOUS
10
5.7316322834645668
20
-4.092422047244094
11
5.7317441338582675
21
-4.0921519291338582
0
LINE
8
BLACK
6
CONTINUOUS
10
5.7317441338582675
20
-4.0921519291338582
11
5.7318014960629924
21
-4.0918653149606294
0
LINE
8
BLACK
6
CONTINUOUS
10
5.7318014960629924
20
-4.0918653149606294
11
5.7319624409448817
21
-4.0916249212598421
0
LINE
8
BLACK
6
CONTINUOUS
10
5.7319624409448817
20
-4.0916249212598421
11
5.7320731889763774
21
-4.0913576377952756
0
LINE
8
BLACK
6
CONTINUOUS
10
5.7320731889763774
20
-4.0913576377952756
11
5.732279881889764
21
-4.0911509055118112
0
LINE
8
BLACK
6
CONTINUOUS
10
5.732279881889764
20
-4.0911509055118112
11
5.7324425590551176
21
-4.0909080314960633
0
LINE
8
BLACK
6
CONTINUOUS
10
5.7324425590551176
20
-4.0909080314960633
11
5.7326916535433066
21
-4.0907391338582677
0
LINE
8
BLACK
6
CONTINUOUS
10
5.7326916535433066
20
-4.0907391338582677
11
5.7328878346456689
21
-4.0905429921259842
0
LINE
8
BLACK
6
CONTINUOUS
10
5.7328878346456689
20
-4.0905429921259842
11
5.7331274803149608
21
-4.090443700787401
0
LINE
8
BLACK
6
CONTINUOUS
10
5.7331274803149608
20
-4.090443700787401
11
5.7384655511811022
21
-4.0868250393700789
0
LINE
8
BLACK
6
CONTINUOUS
10
5.7384655511811022
20
-4.0868250393700789
11
5.7415661811023622
21
-4.0836639763779523
0
LINE
8
BLACK
6
CONTINUOUS
10
5.7415661811023622
20
-4.0836639763779523
11
5.7431358661417322
21
-4.080429015748031
0
LINE
8
BLACK
6
CONTINUOUS
10
5.7431358661417322
20
-4.080429015748031
11
5.7434442125984253
21
-4.079939133858268
0
LINE
8
BLACK
6
CONTINUOUS
10
5.7434442125984253
20
-4.079939133858268
11
5.7443146062992128
21
-4.0791842913385823
0
LINE
8
BLACK
6
CONTINUOUS
10
5.7443146062992128
20
-4.0791842913385823
11
5.7454075590551179
21
-4.0788199606299216
0
LINE
8
BLACK
6
CONTINUOUS
10
5.7454075590551179
20
-4.0788199606299216
11
5.7465567716535428
21
-4.0789016141732279
0
LINE
8
BLACK
6
CONTINUOUS
10
5.7023002362204727
20
-4.0858887401574799
11
5.7029921259842515
21
-4.0875590551181098
0
LINE
8
BLACK
6
CONTINUOUS
10
5.7029921259842515
20
-4.0875590551181098
11
5.70254031496063
21
-4.0889484251968504
0
LINE
8
BLACK
6
CONTINUOUS
10
5.70254031496063
20
-4.0889484251968504
11
5.6930914960629924
21
-4.1019405511811025
0
LINE
8
BLACK
6
CONTINUOUS
10
5.6930914960629924
20
-4.1019405511811025
11
5.6915495275590553
21
-4.1028844881889759
0
LINE
8
BLACK
6
CONTINUOUS
10
5.6915495275590553
20
-4.1028844881889759
11
5.6897917322834646
21
-4.1024615748031499
0
LINE
8
BLACK
6
CONTINUOUS
10
5.6897917322834646
20
-4.1024615748031499
11
5.6892707086614172
21
-4.1019405511811025
0
LINE
8
BLACK
6
CONTINUOUS
10
5.6892707086614172
20
-4.1019405511811025
11
5.6798218897637796
21
-4.0889484251968504
0
LINE
8
BLACK
6
CONTINUOUS
10
5.6798218897637796
20
-4.0889484251968504
11
5.6793989763779527
21
-4.0871906299212597
0
LINE
8
BLACK
6
CONTINUOUS
10
5.6793989763779527
20
-4.0871906299212597
11
5.680342913385827
21
-4.0856486614173226
0
LINE
8
BLACK
6
CONTINUOUS
10
5.680342913385827
20
-4.0856486614173226
11
5.6817322834645667
21
-4.0851968503937011
0
LINE
8
BLACK
6
CONTINUOUS
10
5.6817322834645667
20
-4.0851968503937011
11
5.7006299212598428
21
-4.0851968503937011
0
LINE
8
BLACK
6
CONTINUOUS
10
5.7006299212598428
20
-4.0851968503937011
11
5.7023002362204727
21
-4.0858887401574799
0
LINE
8
BLACK
6
CONTINUOUS
10
5.4419528346456696
20
-4.0977782283464563
11
5.4432312598425199
21
-4.0990566535433066
0
LINE
8
BLACK
6
CONTINUOUS
10
5.4432312598425199
20
-4.0990566535433066
11
5.4432312598425199
21
-4.1008646062992122
0
LINE
8
BLACK
6
CONTINUOUS
10
5.4432312598425199
20
-4.1008646062992122
11
5.4419528346456696
21
-4.1021430314960625
0
LINE
8
BLACK
6
CONTINUOUS
10
5.4419528346456696
20
-4.1021430314960625
11
5.4289511417322833
21
-4.102322834645669
0
LINE
8
BLACK
6
CONTINUOUS
10
5.4289511417322833
20
-4.102322834645669
11
5.4280471653543305
21
-4.1021430314960625
0
LINE
8
BLACK
6
CONTINUOUS
10
5.4280471653543305
20
-4.1021430314960625
11
5.4267687401574802
21
-4.1008646062992122
0
LINE
8
BLACK
6
CONTINUOUS
10
5.4267687401574802
20
-4.1008646062992122
11
5.4267687401574802
21
-4.0990566535433066
0
LINE
8
BLACK
6
CONTINUOUS
10
5.4267687401574802
20
-4.0990566535433066
11
5.4280471653543305
21
-4.0977782283464563
0
LINE
8
BLACK
6
CONTINUOUS
10
5.4280471653543305
20
-4.0977782283464563
11
5.4410488582677168
21
-4.0975984251968507
0
LINE
8
BLACK
6
CONTINUOUS
10
5.4410488582677168
20
-4.0975984251968507
11
5.4419528346456696
21
-4.0977782283464563
0
LINE
8
BLACK
6
CONTINUOUS
10
5.6724000393700784
20
-4.0964002755905513
11
5.6736784645669287
21
-4.0976787007874016
0
LINE
8
BLACK
6
CONTINUOUS
10
5.6736784645669287
20
-4.0976787007874016
11
5.6736784645669287
21
-4.0994866535433072
0
LINE
8
BLACK
6
CONTINUOUS
10
5.6736784645669287
20
-4.0994866535433072
11
5.6724000393700784
21
-4.1007650787401575
0
LINE
8
BLACK
6
CONTINUOUS
10
5.6724000393700784
20
-4.1007650787401575
11
5.6399999999999997
21
-4.100944881889764
0
LINE
8
BLACK
6
CONTINUOUS
10
5.6399999999999997
20
-4.100944881889764
11
5.6391450787401576
21
-4.1007748031496059
0
LINE
8
BLACK
6
CONTINUOUS
10
5.6391450787401576
20
-4.1007748031496059
11
5.6085039370078738
21
-4.100944881889764
0
LINE
8
BLACK
6
CONTINUOUS
10
5.6085039370078738
20
-4.100944881889764
11
5.6075999606299209
21
-4.1007650787401575
0
LINE
8
BLACK
6
CONTINUOUS
10
5.6075999606299209
20
-4.1007650787401575
11
5.6063215354330707
21
-4.0994866535433072
0
LINE
8
BLACK
6
CONTINUOUS
10
5.6063215354330707
20
-4.0994866535433072
11
5.6063215354330707
21
-4.0976787007874016
0
LINE
8
BLACK
6
CONTINUOUS
10
5.6063215354330707
20
-4.0976787007874016
11
5.6075999606299209
21
-4.0964002755905513
0
LINE
8
BLACK
6
CONTINUOUS
10
5.6075999606299209
20
-4.0964002755905513
11
5.6399999999999997
21
-4.0962204724409448
0
LINE
8
BLACK
6
CONTINUOUS
10
5.6399999999999997
20
-4.0962204724409448
11
5.6408548818897639
21
-4.0963905118110233
0
LINE
8
BLACK
6
CONTINUOUS
10
5.6408548818897639
20
-4.0963905118110233
11
5.6714960629921256
21
-4.0962204724409448
0
LINE
8
BLACK
6
CONTINUOUS
10
5.6714960629921256
20
-4.0962204724409448
11
5.6724000393700784
21
-4.0964002755905513
0
LINE
8
BLACK
6
CONTINUOUS
10
4.9901494881889761
20
-4.0886443700787405
11
4.9914279133858264
21
-4.0899227952755908
0
LINE
8
BLACK
6
CONTINUOUS
10
4.9914279133858264
20
-4.0899227952755908
11
4.9914279133858264
21
-4.0917307480314964
0
LINE
8
BLACK
6
CONTINUOUS
10
4.9914279133858264
20
-4.0917307480314964
11
4.9901494881889761
21
-4.0930091732283467
0
LINE
8
BLACK
6
CONTINUOUS
10
4.9901494881889761
20
-4.0930091732283467
11
4.9807544881889765
21
-4.0931889763779523
0
LINE
8
BLACK
6
CONTINUOUS
10
4.9807544881889765
20
-4.0931889763779523
11
4.9798505118110237
21
-4.0930091732283467
0
LINE
8
BLACK
6
CONTINUOUS
10
4.9798505118110237
20
-4.0930091732283467
11
4.9785720866141734
21
-4.0917307480314964
0
LINE
8
BLACK
6
CONTINUOUS
10
4.9785720866141734
20
-4.0917307480314964
11
4.9785720866141734
21
-4.0899227952755908
0
LINE
8
BLACK
6
CONTINUOUS
10
4.9785720866141734
20
-4.0899227952755908
11
4.9798505118110237
21
-4.0886443700787405
0
LINE
8
BLACK
6
CONTINUOUS
10
4.9798505118110237
20
-4.0886443700787405
11
4.9892455118110233
21
-4.088464566929134
0
LINE
8
BLACK
6
CONTINUOUS
10
4.9892455118110233
20
-4.088464566929134
11
4.9901494881889761
21
-4.0886443700787405
0
LINE
8
BLACK
6
CONTINUOUS
10
5.4419528346456696
20
-4.0678569685039365
11
5.4432312598425199
21
-4.0691353937007877
0
LINE
8
BLACK
6
CONTINUOUS
10
5.4432312598425199
20
-4.0691353937007877
11
5.4432312598425199
21
-4.0709433464566924
0
LINE
8
BLACK
6
CONTINUOUS
10
5.4432312598425199
20
-4.0709433464566924
11
5.4419528346456696
21
-4.0722217716535436
0
LINE
8
BLACK
6
CONTINUOUS
10
5.4419528346456696
20
-4.0722217716535436
11
5.4289511417322833
21
-4.0724015748031492
0
LINE
8
BLACK
6
CONTINUOUS
10
5.4289511417322833
20
-4.0724015748031492
11
5.4280471653543305
21
-4.0722217716535436
0
LINE
8
BLACK
6
CONTINUOUS
10
5.4280471653543305
20
-4.0722217716535436
11
5.4267687401574802
21
-4.0709433464566924
0
LINE
8
BLACK
6
CONTINUOUS
10
5.4267687401574802
20
-4.0709433464566924
11
5.4267687401574802
21
-4.0691353937007877
0
LINE
8
BLACK
6
CONTINUOUS
10
5.4267687401574802
20
-4.0691353937007877
11
5.4280471653543305
21
-4.0678569685039365
0
LINE
8
BLACK
6
CONTINUOUS
10
5.4280471653543305
20
-4.0678569685039365
11
5.4410488582677168
21
-4.0676771653543309
0
LINE
8
BLACK
6
CONTINUOUS
10
5.4410488582677168
20
-4.0676771653543309
11
5.4419528346456696
21
-4.0678569685039365
0
LINE
8
BLACK
6
CONTINUOUS
10
5.7755388582677165
20
-4.0474233858267716
11
5.776353503937008
21
-4.0482380314960631
0
LINE
8
BLACK
6
CONTINUOUS
10
5.776353503937008
20
-4.0482380314960631
11
5.7767944094488186
21
-4.0493024409448815
0
LINE
8
BLACK
6
CONTINUOUS
10
5.7767944094488186
20
-4.0493024409448815
11
5.7768511417322834
21
-4.0536280314960633
0
LINE
8
BLACK
6
CONTINUOUS
10
5.7768511417322834
20
-4.0536280314960633
11
5.7768224015748029
21
-4.0539196062992122
0
LINE
8
BLACK
6
CONTINUOUS
10
5.7768224015748029
20
-4.0539196062992122
11
5.7768279527559052
21
-4.0539973622047247
0
LINE
8
BLACK
6
CONTINUOUS
10
5.7768279527559052
20
-4.0539973622047247
11
5.7768089763779527
21
-4.0540559055118113
0
LINE
8
BLACK
6
CONTINUOUS
10
5.7768089763779527
20
-4.0540559055118113
11
5.7767944094488186
21
-4.0542040944881892
0
LINE
8
BLACK
6
CONTINUOUS
10
5.7767944094488186
20
-4.0542040944881892
11
5.7766417322834647
21
-4.0545725984251968
0
LINE
8
BLACK
6
CONTINUOUS
10
5.7766417322834647
20
-4.0545725984251968
11
5.7748248425196849
21
-4.060186062992126
0
LINE
8
BLACK
6
CONTINUOUS
10
5.7748248425196849
20
-4.060186062992126
11
5.7745888582677161
21
-4.0607146456692913
0
LINE
8
BLACK
6
CONTINUOUS
10
5.7745888582677161
20
-4.0607146456692913
11
5.7745193700787398
21
-4.0607947244094484
0
LINE
8
BLACK
6
CONTINUOUS
10
5.7745193700787398
20
-4.0607947244094484
11
5.7744787795275592
21
-4.0608927952755902
0
LINE
8
BLACK
6
CONTINUOUS
10
5.7744787795275592
20
-4.0608927952755902
11
5.774095
21
-4.061284015748031
0
LINE
8
BLACK
6
CONTINUOUS
10
5.774095
20
-4.061284015748031
11
5.7738339763779525
21
-4.061585
0
LINE
8
BLACK
6
CONTINUOUS
10
5.7738339763779525
20
-4.061585
11
5.7737668897637793
21
-4.0616185039370079
0
LINE
8
BLACK
6
CONTINUOUS
10
5.7737668897637793
20
-4.0616185039370079
11
5.7703619685039369
21
-4.0650897637795271
0
LINE
8
BLACK
6
CONTINUOUS
10
5.7703619685039369
20
-4.0650897637795271
11
5.7699144881889763
21
-4.0654570078740155
0
LINE
8
BLACK
6
CONTINUOUS
10
5.7699144881889763
20
-4.0654570078740155
11
5.7698164173228346
21
-4.0654975984251971
0
LINE
8
BLACK
6
CONTINUOUS
10
5.7698164173228346
20
-4.0654975984251971
11
5.7697363385826774
21
-4.0655670866141733
0
LINE
8
BLACK
6
CONTINUOUS
10
5.7697363385826774
20
-4.0655670866141733
11
5.7692261417322834
21
-4.0657420866141729
0
LINE
8
BLACK
6
CONTINUOUS
10
5.7692261417322834
20
-4.0657420866141729
11
5.7688500787401571
21
-4.0658978740157483
0
LINE
8
BLACK
6
CONTINUOUS
10
5.7688500787401571
20
-4.0658978740157483
11
5.768772086614173
21
-4.0658978740157483
0
LINE
8
BLACK
6
CONTINUOUS
10
5.768772086614173
20
-4.0658978740157483
11
5.7635835039370074
21
-4.0676778346456688
0
LINE
8
BLACK
6
CONTINUOUS
10
5.7635835039370074
20
-4.0676778346456688
11
5.7632979133858262
21
-4.0677427559055115
0
LINE
8
BLACK
6
CONTINUOUS
10
5.7632979133858262
20
-4.0677427559055115
11
5.7632258267716532
21
-4.0677726377952759
0
LINE
8
BLACK
6
CONTINUOUS
10
5.7632258267716532
20
-4.0677726377952759
11
5.7631660236220474
21
-4.0677727559055121
0
LINE
8
BLACK
6
CONTINUOUS
10
5.7631660236220474
20
-4.0677727559055121
11
5.76301905511811
21
-4.0678061811023625
0
LINE
8
BLACK
6
CONTINUOUS
10
5.76301905511811
20
-4.0678061811023625
11
5.7625655118110233
21
-4.0677739370078738
0
LINE
8
BLACK
6
CONTINUOUS
10
5.7625655118110233
20
-4.0677739370078738
11
5.734528307086614
21
-4.0678293700787398
0
LINE
8
BLACK
6
CONTINUOUS
10
5.734528307086614
20
-4.0678293700787398
11
5.7339522440944881
21
-4.0677726377952759
0
LINE
8
BLACK
6
CONTINUOUS
10
5.7339522440944881
20
-4.0677726377952759
11
5.7328878346456689
21
-4.0673317322834643
0
LINE
8
BLACK
6
CONTINUOUS
10
5.7328878346456689
20
-4.0673317322834643
11
5.7320731889763774
21
-4.0665170866141729
0
LINE
8
BLACK
6
CONTINUOUS
10
5.7320731889763774
20
-4.0665170866141729
11
5.7316322834645668
21
-4.0654526771653545
0
LINE
8
BLACK
6
CONTINUOUS
10
5.7316322834645668
20
-4.0654526771653545
11
5.7316322834645668
21
-4.0643005511811019
0
LINE
8
BLACK
6
CONTINUOUS
10
5.7316322834645668
20
-4.0643005511811019
11
5.7320731889763774
21
-4.0632361417322835
0
LINE
8
BLACK
6
CONTINUOUS
10
5.7320731889763774
20
-4.0632361417322835
11
5.7328878346456689
21
-4.0624214960629921
0
LINE
8
BLACK
6
CONTINUOUS
10
5.7328878346456689
20
-4.0624214960629921
11
5.7339522440944881
21
-4.0619805905511814
0
LINE
8
BLACK
6
CONTINUOUS
10
5.7339522440944881
20
-4.0619805905511814
11
5.7623151181102363
21
-4.0619244881889767
0
LINE
8
BLACK
6
CONTINUOUS
10
5.7623151181102363
20
-4.0619244881889767
11
5.7667633464566928
21
-4.0603985039370079
0
LINE
8
BLACK
6
CONTINUOUS
10
5.7667633464566928
20
-4.0603985039370079
11
5.7695097637795278
21
-4.0575986220472444
0
LINE
8
BLACK
6
CONTINUOUS
10
5.7695097637795278
20
-4.0575986220472444
11
5.770987007874016
21
-4.0530345669291341
0
LINE
8
BLACK
6
CONTINUOUS
10
5.770987007874016
20
-4.0530345669291341
11
5.7709456299212594
21
-4.0498785039370082
0
LINE
8
BLACK
6
CONTINUOUS
10
5.7709456299212594
20
-4.0498785039370082
11
5.7710023622047242
21
-4.0493024409448815
0
LINE
8
BLACK
6
CONTINUOUS
10
5.7710023622047242
20
-4.0493024409448815
11
5.7714432677165357
21
-4.0482380314960631
0
LINE
8
BLACK
6
CONTINUOUS
10
5.7714432677165357
20
-4.0482380314960631
11
5.7722579133858263
21
-4.0474233858267716
0
LINE
8
BLACK
6
CONTINUOUS
10
5.7722579133858263
20
-4.0474233858267716
11
5.7733223228346455
21
-4.0469824803149601
0
LINE
8
BLACK
6
CONTINUOUS
10
5.7733223228346455
20
-4.0469824803149601
11
5.7744744488188973
21
-4.0469824803149601
0
LINE
8
BLACK
6
CONTINUOUS
10
5.7744744488188973
20
-4.0469824803149601
11
5.7755388582677165
21
-4.0474233858267716
0
LINE
8
BLACK
6
CONTINUOUS
10
5.5080091732283467
20
-4.0548505118110238
11
5.5081889763779524
21
-4.0642455118110234
0
LINE
8
BLACK
6
CONTINUOUS
10
5.5081889763779524
20
-4.0642455118110234
11
5.5080091732283467
21
-4.0651494881889763
0
LINE
8
BLACK
6
CONTINUOUS
10
5.5080091732283467
20
-4.0651494881889763
11
5.5067307480314955
21
-4.0664279133858265
0
LINE
8
BLACK
6
CONTINUOUS
10
5.5067307480314955
20
-4.0664279133858265
11
5.5049227952755908
21
-4.0664279133858265
0
LINE
8
BLACK
6
CONTINUOUS
10
5.5049227952755908
20
-4.0664279133858265
11
5.5036443700787396
21
-4.0651494881889763
0
LINE
8
BLACK
6
CONTINUOUS
10
5.5036443700787396
20
-4.0651494881889763
11
5.503464566929134
21
-4.0557544881889767
0
LINE
8
BLACK
6
CONTINUOUS
10
5.503464566929134
20
-4.0557544881889767
11
5.5036443700787396
21
-4.0548505118110238
0
LINE
8
BLACK
6
CONTINUOUS
10
5.5036443700787396
20
-4.0548505118110238
11
5.5049227952755908
21
-4.0535720866141736
0
LINE
8
BLACK
6
CONTINUOUS
10
5.5049227952755908
20
-4.0535720866141736
11
5.5067307480314955
21
-4.0535720866141736
0
LINE
8
BLACK
6
CONTINUOUS
10
5.5067307480314955
20
-4.0535720866141736
11
5.5080091732283467
21
-4.0548505118110238
0
LINE
8
BLACK
6
CONTINUOUS
10
5.5363556299212595
20
-4.0548505118110238
11
5.536535433070866
21
-4.0642455118110234
0
LINE
8
BLACK
6
CONTINUOUS
10
5.536535433070866
20
-4.0642455118110234
11
5.5363556299212595
21
-4.0651494881889763
0
LINE
8
BLACK
6
CONTINUOUS
10
5.5363556299212595
20
-4.0651494881889763
11
5.5350772047244092
21
-4.0664279133858265
0
LINE
8
BLACK
6
CONTINUOUS
10
5.5350772047244092
20
-4.0664279133858265
11
5.5332692519685036
21
-4.0664279133858265
0
LINE
8
BLACK
6
CONTINUOUS
10
5.5332692519685036
20
-4.0664279133858265
11
5.5319908267716533
21
-4.0651494881889763
0
LINE
8
BLACK
6
CONTINUOUS
10
5.5319908267716533
20
-4.0651494881889763
11
5.5318110236220468
21
-4.0557544881889767
0
LINE
8
BLACK
6
CONTINUOUS
10
5.5318110236220468
20
-4.0557544881889767
11
5.5319908267716533
21
-4.0548505118110238
0
LINE
8
BLACK
6
CONTINUOUS
10
5.5319908267716533
20
-4.0548505118110238
11
5.5332692519685036
21
-4.0535720866141736
0
LINE
8
BLACK
6
CONTINUOUS
10
5.5332692519685036
20
-4.0535720866141736
11
5.5350772047244092
21
-4.0535720866141736
0
LINE
8
BLACK
6
CONTINUOUS
10
5.5350772047244092
20
-4.0535720866141736
11
5.5363556299212595
21
-4.0548505118110238
0
LINE
8
BLACK
6
CONTINUOUS
10
5.9559619291338581
20
-3.8270881496062992
11
5.9561417322834647
21
-4.061456692913386
0
LINE
8
BLACK
6
CONTINUOUS
10
5.9561417322834647
20
-4.061456692913386
11
5.9559619291338581
21
-4.0623606692913388
0
LINE
8
BLACK
6
CONTINUOUS
10
5.9559619291338581
20
-4.0623606692913388
11
5.9546835039370078
21
-4.0636390944881891
0
LINE
8
BLACK
6
CONTINUOUS
10
5.9546835039370078
20
-4.0636390944881891
11
5.9528755511811022
21
-4.0636390944881891
0
LINE
8
BLACK
6
CONTINUOUS
10
5.9528755511811022
20
-4.0636390944881891
11
5.9515971259842519
21
-4.0623606692913388
0
LINE
8
BLACK
6
CONTINUOUS
10
5.9515971259842519
20
-4.0623606692913388
11
5.9514173228346454
21
-3.827992125984252
0
LINE
8
BLACK
6
CONTINUOUS
10
5.9514173228346454
20
-3.827992125984252
11
5.9515971259842519
21
-3.8270881496062992
0
LINE
8
BLACK
6
CONTINUOUS
10
5.9515971259842519
20
-3.8270881496062992
11
5.9528755511811022
21
-3.8258097244094489
0
LINE
8
BLACK
6
CONTINUOUS
10
5.9528755511811022
20
-3.8258097244094489
11
5.9546835039370078
21
-3.8258097244094489
0
LINE
8
BLACK
6
CONTINUOUS
10
5.9546835039370078
20
-3.8258097244094489
11
5.9559619291338581
21
-3.8270881496062992
0
LINE
8
BLACK
6
CONTINUOUS
10
5.557221771653543
20
-4.0480471653543306
11
5.5574015748031496
21
-4.061048858267716
0
LINE
8
BLACK
6
CONTINUOUS
10
5.5574015748031496
20
-4.061048858267716
11
5.557221771653543
21
-4.0619528346456688
0
LINE
8
BLACK
6
CONTINUOUS
10
5.557221771653543
20
-4.0619528346456688
11
5.5559433464566927
21
-4.06323125984252
0
LINE
8
BLACK
6
CONTINUOUS
10
5.5559433464566927
20
-4.06323125984252
11
5.5541353937007871
21
-4.06323125984252
0
LINE
8
BLACK
6
CONTINUOUS
10
5.5541353937007871
20
-4.06323125984252
11
5.5528569685039368
21
-4.0619528346456688
0
LINE
8
BLACK
6
CONTINUOUS
10
5.5528569685039368
20
-4.0619528346456688
11
5.5526771653543303
21
-4.0489511417322834
0
LINE
8
BLACK
6
CONTINUOUS
10
5.5526771653543303
20
-4.0489511417322834
11
5.5528569685039368
21
-4.0480471653543306
0
LINE
8
BLACK
6
CONTINUOUS
10
5.5528569685039368
20
-4.0480471653543306
11
5.5541353937007871
21
-4.0467687401574803
0
LINE
8
BLACK
6
CONTINUOUS
10
5.5541353937007871
20
-4.0467687401574803
11
5.5559433464566927
21
-4.0467687401574803
0
LINE
8
BLACK
6
CONTINUOUS
10
5.5559433464566927
20
-4.0467687401574803
11
5.557221771653543
21
-4.0480471653543306
0
LINE
8
BLACK
6
CONTINUOUS
10
5.5871430314960628
20
-4.0480471653543306
11
5.5873228346456694
21
-4.061048858267716
0
LINE
8
BLACK
6
CONTINUOUS
10
5.5873228346456694
20
-4.061048858267716
11
5.5871430314960628
21
-4.0619528346456688
0
LINE
8
BLACK
6
CONTINUOUS
10
5.5871430314960628
20
-4.0619528346456688
11
5.5858646062992126
21
-4.06323125984252
0
LINE
8
BLACK
6
CONTINUOUS
10
5.5858646062992126
20
-4.06323125984252
11
5.5840566535433069
21
-4.06323125984252
0
LINE
8
BLACK
6
CONTINUOUS
10
5.5840566535433069
20
-4.06323125984252
11
5.5827782283464567
21
-4.0619528346456688
0
LINE
8
BLACK
6
CONTINUOUS
10
5.5827782283464567
20
-4.0619528346456688
11
5.5825984251968501
21
-4.0489511417322834
0
LINE
8
BLACK
6
CONTINUOUS
10
5.5825984251968501
20
-4.0489511417322834
11
5.5827782283464567
21
-4.0480471653543306
0
LINE
8
BLACK
6
CONTINUOUS
10
5.5827782283464567
20
-4.0480471653543306
11
5.5840566535433069
21
-4.0467687401574803
0
LINE
8
BLACK
6
CONTINUOUS
10
5.5840566535433069
20
-4.0467687401574803
11
5.5858646062992126
21
-4.0467687401574803
0
LINE
8
BLACK
6
CONTINUOUS
10
5.5858646062992126
20
-4.0467687401574803
11
5.5871430314960628
21
-4.0480471653543306
0
LINE
8
BLACK
6
CONTINUOUS
10
5.6322217716535432
20
-4.0480471653543306
11
5.6324015748031497
21
-4.061048858267716
0
LINE
8
BLACK
6
CONTINUOUS
10
5.6324015748031497
20
-4.061048858267716
11
5.6322217716535432
21
-4.0619528346456688
0
LINE
8
BLACK
6
CONTINUOUS
10
5.6322217716535432
20
-4.0619528346456688
11
5.6309433464566929
21
-4.06323125984252
0
LINE
8
BLACK
6
CONTINUOUS
10
5.6309433464566929
20
-4.06323125984252
11
5.6291353937007873
21
-4.06323125984252
0
LINE
8
BLACK
6
CONTINUOUS
10
5.6291353937007873
20
-4.06323125984252
11
5.627856968503937
21
-4.0619528346456688
0
LINE
8
BLACK
6
CONTINUOUS
10
5.627856968503937
20
-4.0619528346456688
11
5.6276771653543305
21
-4.0489511417322834
0
LINE
8
BLACK
6
CONTINUOUS
10
5.6276771653543305
20
-4.0489511417322834
11
5.627856968503937
21
-4.0480471653543306
0
LINE
8
BLACK
6
CONTINUOUS
10
5.627856968503937
20
-4.0480471653543306
11
5.6291353937007873
21
-4.0467687401574803
0
LINE
8
BLACK
6
CONTINUOUS
10
5.6291353937007873
20
-4.0467687401574803
11
5.6309433464566929
21
-4.0467687401574803
0
LINE
8
BLACK
6
CONTINUOUS
10
5.6309433464566929
20
-4.0467687401574803
11
5.6322217716535432
21
-4.0480471653543306
0
LINE
8
BLACK
6
CONTINUOUS
10
5.662143031496063
20
-4.0480471653543306
11
5.6623228346456695
21
-4.061048858267716
0
LINE
8
BLACK
6
CONTINUOUS
10
5.6623228346456695
20
-4.061048858267716
11
5.662143031496063
21
-4.0619528346456688
0
LINE
8
BLACK
6
CONTINUOUS
10
5.662143031496063
20
-4.0619528346456688
11
5.6608646062992127
21
-4.06323125984252
0
LINE
8
BLACK
6
CONTINUOUS
10
5.6608646062992127
20
-4.06323125984252
11
5.6590566535433071
21
-4.06323125984252
0
LINE
8
BLACK
6
CONTINUOUS
10
5.6590566535433071
20
-4.06323125984252
11
5.6577782283464568
21
-4.0619528346456688
0
LINE
8
BLACK
6
CONTINUOUS
10
5.6577782283464568
20
-4.0619528346456688
11
5.6575984251968503
21
-4.0489511417322834
0
LINE
8
BLACK
6
CONTINUOUS
10
5.6575984251968503
20
-4.0489511417322834
11
5.6577782283464568
21
-4.0480471653543306
0
LINE
8
BLACK
6
CONTINUOUS
10
5.6577782283464568
20
-4.0480471653543306
11
5.6590566535433071
21
-4.0467687401574803
0
LINE
8
BLACK
6
CONTINUOUS
10
5.6590566535433071
20
-4.0467687401574803
11
5.6608646062992127
21
-4.0467687401574803
0
LINE
8
BLACK
6
CONTINUOUS
10
5.6608646062992127
20
-4.0467687401574803
11
5.662143031496063
21
-4.0480471653543306
0
LINE
8
BLACK
6
CONTINUOUS
10
5.6780091732283466
20
-4.0478505118110233
11
5.6781889763779523
21
-4.0572455118110238
0
LINE
8
BLACK
6
CONTINUOUS
10
5.6781889763779523
20
-4.0572455118110238
11
5.6780091732283466
21
-4.0581494881889766
0
LINE
8
BLACK
6
CONTINUOUS
10
5.6780091732283466
20
-4.0581494881889766
11
5.6767307480314964
21
-4.0594279133858269
0
LINE
8
BLACK
6
CONTINUOUS
10
5.6767307480314964
20
-4.0594279133858269
11
5.6749227952755907
21
-4.0594279133858269
0
LINE
8
BLACK
6
CONTINUOUS
10
5.6749227952755907
20
-4.0594279133858269
11
5.6736443700787405
21
-4.0581494881889766
0
LINE
8
BLACK
6
CONTINUOUS
10
5.6736443700787405
20
-4.0581494881889766
11
5.6734645669291339
21
-4.0487544881889761
0
LINE
8
BLACK
6
CONTINUOUS
10
5.6734645669291339
20
-4.0487544881889761
11
5.6736443700787405
21
-4.0478505118110233
0
LINE
8
BLACK
6
CONTINUOUS
10
5.6736443700787405
20
-4.0478505118110233
11
5.6749227952755907
21
-4.046572086614173
0
LINE
8
BLACK
6
CONTINUOUS
10
5.6749227952755907
20
-4.046572086614173
11
5.6767307480314964
21
-4.046572086614173
0
LINE
8
BLACK
6
CONTINUOUS
10
5.6767307480314964
20
-4.046572086614173
11
5.6780091732283466
21
-4.0478505118110233
0
LINE
8
BLACK
6
CONTINUOUS
10
5.7063556299212594
20
-4.0478505118110233
11
5.706535433070866
21
-4.0572455118110238
0
LINE
8
BLACK
6
CONTINUOUS
10
5.706535433070866
20
-4.0572455118110238
11
5.7063556299212594
21
-4.0581494881889766
0
LINE
8
BLACK
6
CONTINUOUS
10
5.7063556299212594
20
-4.0581494881889766
11
5.7050772047244092
21
-4.0594279133858269
0
LINE
8
BLACK
6
CONTINUOUS
10
5.7050772047244092
20
-4.0594279133858269
11
5.7032692519685035
21
-4.0594279133858269
0
LINE
8
BLACK
6
CONTINUOUS
10
5.7032692519685035
20
-4.0594279133858269
11
5.7019908267716533
21
-4.0581494881889766
0
LINE
8
BLACK
6
CONTINUOUS
10
5.7019908267716533
20
-4.0581494881889766
11
5.7018110236220467
21
-4.0487544881889761
0
LINE
8
BLACK
6
CONTINUOUS
10
5.7018110236220467
20
-4.0487544881889761
11
5.7019908267716533
21
-4.0478505118110233
0
LINE
8
BLACK
6
CONTINUOUS
10
5.7019908267716533
20
-4.0478505118110233
11
5.7032692519685035
21
-4.046572086614173
0
LINE
8
BLACK
6
CONTINUOUS
10
5.7032692519685035
20
-4.046572086614173
11
5.7050772047244092
21
-4.046572086614173
0
LINE
8
BLACK
6
CONTINUOUS
10
5.7050772047244092
20
-4.046572086614173
11
5.7063556299212594
21
-4.0478505118110233
0
LINE
8
BLACK
6
CONTINUOUS
10
5.329552440944882
20
-4.0331275984251969
11
5.3306168503937004
21
-4.0335685039370075
0
LINE
8
BLACK
6
CONTINUOUS
10
5.3306168503937004
20
-4.0335685039370075
11
5.3314314960629918
21
-4.034383149606299
0
LINE
8
BLACK
6
CONTINUOUS
10
5.3314314960629918
20
-4.034383149606299
11
5.3318724015748034
21
-4.0354475590551182
0
LINE
8
BLACK
6
CONTINUOUS
10
5.3318724015748034
20
-4.0354475590551182
11
5.3319291338582673
21
-4.0429133858267718
0
LINE
8
BLACK
6
CONTINUOUS
10
5.3319291338582673
20
-4.0429133858267718
11
5.3318724015748034
21
-4.0434894488188977
0
LINE
8
BLACK
6
CONTINUOUS
10
5.3318724015748034
20
-4.0434894488188977
11
5.3314314960629918
21
-4.0445538582677161
0
LINE
8
BLACK
6
CONTINUOUS
10
5.3314314960629918
20
-4.0445538582677161
11
5.3306168503937004
21
-4.0453685039370075
0
LINE
8
BLACK
6
CONTINUOUS
10
5.3306168503937004
20
-4.0453685039370075
11
5.329552440944882
21
-4.0458094094488191
0
LINE
8
BLACK
6
CONTINUOUS
10
5.329552440944882
20
-4.0458094094488191
11
5.3284003149606294
21
-4.0458094094488191
0
LINE
8
BLACK
6
CONTINUOUS
10
5.3284003149606294
20
-4.0458094094488191
11
5.327335905511811
21
-4.0453685039370075
0
LINE
8
BLACK
6
CONTINUOUS
10
5.327335905511811
20
-4.0453685039370075
11
5.3265212598425196
21
-4.0445538582677161
0
LINE
8
BLACK
6
CONTINUOUS
10
5.3265212598425196
20
-4.0445538582677161
11
5.3260803543307089
21
-4.0434894488188977
0
LINE
8
BLACK
6
CONTINUOUS
10
5.3260803543307089
20
-4.0434894488188977
11
5.3260456299212597
21
-4.0389211811023618
0
LINE
8
BLACK
6
CONTINUOUS
10
5.3260456299212597
20
-4.0389211811023618
11
5.2039464173228343
21
-4.0389750787401573
0
LINE
8
BLACK
6
CONTINUOUS
10
5.2039464173228343
20
-4.0389750787401573
11
5.2039763779527561
21
-4.0429133858267718
0
LINE
8
BLACK
6
CONTINUOUS
10
5.2039763779527561
20
-4.0429133858267718
11
5.2039196456692913
21
-4.0434894488188977
0
LINE
8
BLACK
6
CONTINUOUS
10
5.2039196456692913
20
-4.0434894488188977
11
5.2034787401574798
21
-4.0445538582677161
0
LINE
8
BLACK
6
CONTINUOUS
10
5.2034787401574798
20
-4.0445538582677161
11
5.2026640944881892
21
-4.0453685039370075
0
LINE
8
BLACK
6
CONTINUOUS
10
5.2026640944881892
20
-4.0453685039370075
11
5.20159968503937
21
-4.0458094094488191
0
LINE
8
BLACK
6
CONTINUOUS
10
5.20159968503937
20
-4.0458094094488191
11
5.2004475590551182
21
-4.0458094094488191
0
LINE
8
BLACK
6
CONTINUOUS
10
5.2004475590551182
20
-4.0458094094488191
11
5.199383149606299
21
-4.0453685039370075
0
LINE
8
BLACK
6
CONTINUOUS
10
5.199383149606299
20
-4.0453685039370075
11
5.1985685039370075
21
-4.0445538582677161
0
LINE
8
BLACK
6
CONTINUOUS
10
5.1985685039370075
20
-4.0445538582677161
11
5.1981275984251969
21
-4.0434894488188977
0
LINE
8
BLACK
6
CONTINUOUS
10
5.1981275984251969
20
-4.0434894488188977
11
5.1980708661417321
21
-4.0360236220472441
0
LINE
8
BLACK
6
CONTINUOUS
10
5.1980708661417321
20
-4.0360236220472441
11
5.1981275984251969
21
-4.0354475590551182
0
LINE
8
BLACK
6
CONTINUOUS
10
5.1981275984251969
20
-4.0354475590551182
11
5.1985685039370075
21
-4.034383149606299
0
LINE
8
BLACK
6
CONTINUOUS
10
5.1985685039370075
20
-4.034383149606299
11
5.199383149606299
21
-4.0335685039370075
0
LINE
8
BLACK
6
CONTINUOUS
10
5.199383149606299
20
-4.0335685039370075
11
5.2004475590551182
21
-4.0331275984251969
0
LINE
8
BLACK
6
CONTINUOUS
10
5.2004475590551182
20
-4.0331275984251969
11
5.3289763779527561
21
-4.033070866141732
0
LINE
8
BLACK
6
CONTINUOUS
10
5.3289763779527561
20
-4.033070866141732
11
5.329552440944882
21
-4.0331275984251969
0
LINE
8
BLACK
6
CONTINUOUS
10
5.3587962992125986
20
-4.02825094488189
11
5.3594881889763775
21
-4.0299212598425198
0
LINE
8
BLACK
6
CONTINUOUS
10
5.3594881889763775
20
-4.0299212598425198
11
5.3590363779527559
21
-4.0313106299212595
0
LINE
8
BLACK
6
CONTINUOUS
10
5.3590363779527559
20
-4.0313106299212595
11
5.3495875590551183
21
-4.0443027559055116
0
LINE
8
BLACK
6
CONTINUOUS
10
5.3495875590551183
20
-4.0443027559055116
11
5.3480455905511812
21
-4.0452466929133859
0
LINE
8
BLACK
6
CONTINUOUS
10
5.3480455905511812
20
-4.0452466929133859
11
5.3462877952755905
21
-4.044823779527559
0
LINE
8
BLACK
6
CONTINUOUS
10
5.3462877952755905
20
-4.044823779527559
11
5.3457667716535431
21
-4.0443027559055116
0
LINE
8
BLACK
6
CONTINUOUS
10
5.3457667716535431
20
-4.0443027559055116
11
5.3363179527559055
21
-4.0313106299212595
0
LINE
8
BLACK
6
CONTINUOUS
10
5.3363179527559055
20
-4.0313106299212595
11
5.3358950393700786
21
-4.0295528346456688
0
LINE
8
BLACK
6
CONTINUOUS
10
5.3358950393700786
20
-4.0295528346456688
11
5.3368389763779529
21
-4.0280108661417318
0
LINE
8
BLACK
6
CONTINUOUS
10
5.3368389763779529
20
-4.0280108661417318
11
5.3382283464566926
21
-4.0275590551181102
0
LINE
8
BLACK
6
CONTINUOUS
10
5.3382283464566926
20
-4.0275590551181102
11
5.3571259842519687
21
-4.0275590551181102
0
LINE
8
BLACK
6
CONTINUOUS
10
5.3571259842519687
20
-4.0275590551181102
11
5.3587962992125986
21
-4.02825094488189
0
LINE
8
BLACK
6
CONTINUOUS
10
4.8369160629921257
20
-3.9717968503937007
11
4.8377307086614172
21
-3.9726114960629921
0
LINE
8
BLACK
6
CONTINUOUS
10
4.8377307086614172
20
-3.9726114960629921
11
4.8381716141732278
21
-3.9736759055118109
0
LINE
8
BLACK
6
CONTINUOUS
10
4.8381716141732278
20
-3.9736759055118109
11
4.8382252755905508
21
-4.0245027952755903
0
LINE
8
BLACK
6
CONTINUOUS
10
4.8382252755905508
20
-4.0245027952755903
11
4.9081102362204723
21
-4.0244488188976373
0
LINE
8
BLACK
6
CONTINUOUS
10
4.9081102362204723
20
-4.0244488188976373
11
4.9086862992125981
21
-4.0245055511811021
0
LINE
8
BLACK
6
CONTINUOUS
10
4.9086862992125981
20
-4.0245055511811021
11
4.9097507086614174
21
-4.0249464566929136
0
LINE
8
BLACK
6
CONTINUOUS
10
4.9097507086614174
20
-4.0249464566929136
11
4.9105653543307088
21
-4.0257611023622042
0
LINE
8
BLACK
6
CONTINUOUS
10
4.9105653543307088
20
-4.0257611023622042
11
4.9110062598425195
21
-4.0268255118110234
0
LINE
8
BLACK
6
CONTINUOUS
10
4.9110062598425195
20
-4.0268255118110234
11
4.9110062598425195
21
-4.0279776377952752
0
LINE
8
BLACK
6
CONTINUOUS
10
4.9110062598425195
20
-4.0279776377952752
11
4.9105653543307088
21
-4.0290420472440944
0
LINE
8
BLACK
6
CONTINUOUS
10
4.9105653543307088
20
-4.0290420472440944
11
4.9097507086614174
21
-4.0298566929133859
0
LINE
8
BLACK
6
CONTINUOUS
10
4.9097507086614174
20
-4.0298566929133859
11
4.9086862992125981
21
-4.0302975984251965
0
LINE
8
BLACK
6
CONTINUOUS
10
4.9086862992125981
20
-4.0302975984251965
11
4.8352755905511806
21
-4.0303543307086613
0
LINE
8
BLACK
6
CONTINUOUS
10
4.8352755905511806
20
-4.0303543307086613
11
4.8346995275590547
21
-4.0302975984251965
0
LINE
8
BLACK
6
CONTINUOUS
10
4.8346995275590547
20
-4.0302975984251965
11
4.8336351181102364
21
-4.0298566929133859
0
LINE
8
BLACK
6
CONTINUOUS
10
4.8336351181102364
20
-4.0298566929133859
11
4.8328204724409449
21
-4.0290420472440944
0
LINE
8
BLACK
6
CONTINUOUS
10
4.8328204724409449
20
-4.0290420472440944
11
4.8323795669291334
21
-4.0279776377952752
0
LINE
8
BLACK
6
CONTINUOUS
10
4.8323795669291334
20
-4.0279776377952752
11
4.8323228346456695
21
-3.9742519685039368
0
LINE
8
BLACK
6
CONTINUOUS
10
4.8323228346456695
20
-3.9742519685039368
11
4.8323795669291334
21
-3.9736759055118109
0
LINE
8
BLACK
6
CONTINUOUS
10
4.8323795669291334
20
-3.9736759055118109
11
4.8328204724409449
21
-3.9726114960629921
0
LINE
8
BLACK
6
CONTINUOUS
10
4.8328204724409449
20
-3.9726114960629921
11
4.8336351181102364
21
-3.9717968503937007
0
LINE
8
BLACK
6
CONTINUOUS
10
4.8336351181102364
20
-3.9717968503937007
11
4.8346995275590547
21
-3.9713559448818896
0
LINE
8
BLACK
6
CONTINUOUS
10
4.8346995275590547
20
-3.9713559448818896
11
4.8358516535433074
21
-3.9713559448818896
0
LINE
8
BLACK
6
CONTINUOUS
10
4.8358516535433074
20
-3.9713559448818896
11
4.8369160629921257
21
-3.9717968503937007
0
LINE
8
BLACK
6
CONTINUOUS
10
5.1715617322834646
20
-3.9717968503937007
11
5.1723763779527561
21
-3.9726114960629921
0
LINE
8
BLACK
6
CONTINUOUS
10
5.1723763779527561
20
-3.9726114960629921
11
5.1728172834645667
21
-3.9736759055118109
0
LINE
8
BLACK
6
CONTINUOUS
10
5.1728172834645667
20
-3.9736759055118109
11
5.1728740157480315
21
-4.0274015748031493
0
LINE
8
BLACK
6
CONTINUOUS
10
5.1728740157480315
20
-4.0274015748031493
11
5.1728172834645667
21
-4.0279776377952752
0
LINE
8
BLACK
6
CONTINUOUS
10
5.1728172834645667
20
-4.0279776377952752
11
5.1723763779527561
21
-4.0290420472440944
0
LINE
8
BLACK
6
CONTINUOUS
10
5.1723763779527561
20
-4.0290420472440944
11
5.1715617322834646
21
-4.0298566929133859
0
LINE
8
BLACK
6
CONTINUOUS
10
5.1715617322834646
20
-4.0298566929133859
11
5.1704973228346454
21
-4.0302975984251965
0
LINE
8
BLACK
6
CONTINUOUS
10
5.1704973228346454
20
-4.0302975984251965
11
5.0970866141732278
21
-4.0303543307086613
0
LINE
8
BLACK
6
CONTINUOUS
10
5.0970866141732278
20
-4.0303543307086613
11
5.096510551181102
21
-4.0302975984251965
0
LINE
8
BLACK
6
CONTINUOUS
10
5.096510551181102
20
-4.0302975984251965
11
5.0954461417322836
21
-4.0298566929133859
0
LINE
8
BLACK
6
CONTINUOUS
10
5.0954461417322836
20
-4.0298566929133859
11
5.0946314960629921
21
-4.0290420472440944
0
LINE
8
BLACK
6
CONTINUOUS
10
5.0946314960629921
20
-4.0290420472440944
11
5.0941905905511806
21
-4.0279776377952752
0
LINE
8
BLACK
6
CONTINUOUS
10
5.0941905905511806
20
-4.0279776377952752
11
5.0941905905511806
21
-4.0268255118110234
0
LINE
8
BLACK
6
CONTINUOUS
10
5.0941905905511806
20
-4.0268255118110234
11
5.0946314960629921
21
-4.0257611023622042
0
LINE
8
BLACK
6
CONTINUOUS
10
5.0946314960629921
20
-4.0257611023622042
11
5.0954461417322836
21
-4.0249464566929136
0
LINE
8
BLACK
6
CONTINUOUS
10
5.0954461417322836
20
-4.0249464566929136
11
5.096510551181102
21
-4.0245055511811021
0
LINE
8
BLACK
6
CONTINUOUS
10
5.096510551181102
20
-4.0245055511811021
11
5.1670214960629917
21
-4.0244510236220474
0
LINE
8
BLACK
6
CONTINUOUS
10
5.1670214960629917
20
-4.0244510236220474
11
5.1669685039370075
21
-3.9742519685039368
0
LINE
8
BLACK
6
CONTINUOUS
10
5.1669685039370075
20
-3.9742519685039368
11
5.1670252362204723
21
-3.9736759055118109
0
LINE
8
BLACK
6
CONTINUOUS
10
5.1670252362204723
20
-3.9736759055118109
11
5.1674661417322829
21
-3.9726114960629921
0
LINE
8
BLACK
6
CONTINUOUS
10
5.1674661417322829
20
-3.9726114960629921
11
5.1682807874015744
21
-3.9717968503937007
0
LINE
8
BLACK
6
CONTINUOUS
10
5.1682807874015744
20
-3.9717968503937007
11
5.1693451968503936
21
-3.9713559448818896
0
LINE
8
BLACK
6
CONTINUOUS
10
5.1693451968503936
20
-3.9713559448818896
11
5.1704973228346454
21
-3.9713559448818896
0
LINE
8
BLACK
6
CONTINUOUS
10
5.1704973228346454
20
-3.9713559448818896
11
5.1715617322834646
21
-3.9717968503937007
0
LINE
8
BLACK
6
CONTINUOUS
10
5.3980091732283464
20
-4.0148505118110238
11
5.3981889763779529
21
-4.0242455118110234
0
LINE
8
BLACK
6
CONTINUOUS
10
5.3981889763779529
20
-4.0242455118110234
11
5.3980091732283464
21
-4.0251494881889762
0
LINE
8
BLACK
6
CONTINUOUS
10
5.3980091732283464
20
-4.0251494881889762
11
5.3967307480314961
21
-4.0264279133858265
0
LINE
8
BLACK
6
CONTINUOUS
10
5.3967307480314961
20
-4.0264279133858265
11
5.3949227952755905
21
-4.0264279133858265
0
LINE
8
BLACK
6
CONTINUOUS
10
5.3949227952755905
20
-4.0264279133858265
11
5.3936443700787402
21
-4.0251494881889762
0
LINE
8
BLACK
6
CONTINUOUS
10
5.3936443700787402
20
-4.0251494881889762
11
5.3934645669291337
21
-4.0157544881889766
0
LINE
8
BLACK
6
CONTINUOUS
10
5.3934645669291337
20
-4.0157544881889766
11
5.3936443700787402
21
-4.0148505118110238
0
LINE
8
BLACK
6
CONTINUOUS
10
5.3936443700787402
20
-4.0148505118110238
11
5.3949227952755905
21
-4.0135720866141735
0
LINE
8
BLACK
6
CONTINUOUS
10
5.3949227952755905
20
-4.0135720866141735
11
5.3967307480314961
21
-4.0135720866141735
0
LINE
8
BLACK
6
CONTINUOUS
10
5.3967307480314961
20
-4.0135720866141735
11
5.3980091732283464
21
-4.0148505118110238
0
LINE
8
BLACK
6
CONTINUOUS
10
5.4263556299212601
20
-4.0148505118110238
11
5.4265354330708657
21
-4.0242455118110234
0
LINE
8
BLACK
6
CONTINUOUS
10
5.4265354330708657
20
-4.0242455118110234
11
5.4263556299212601
21
-4.0251494881889762
0
LINE
8
BLACK
6
CONTINUOUS
10
5.4263556299212601
20
-4.0251494881889762
11
5.4250772047244089
21
-4.0264279133858265
0
LINE
8
BLACK
6
CONTINUOUS
10
5.4250772047244089
20
-4.0264279133858265
11
5.4232692519685042
21
-4.0264279133858265
0
LINE
8
BLACK
6
CONTINUOUS
10
5.4232692519685042
20
-4.0264279133858265
11
5.421990826771653
21
-4.0251494881889762
0
LINE
8
BLACK
6
CONTINUOUS
10
5.421990826771653
20
-4.0251494881889762
11
5.4218110236220474
21
-4.0157544881889766
0
LINE
8
BLACK
6
CONTINUOUS
10
5.4218110236220474
20
-4.0157544881889766
11
5.421990826771653
21
-4.0148505118110238
0
LINE
8
BLACK
6
CONTINUOUS
10
5.421990826771653
20
-4.0148505118110238
11
5.4232692519685042
21
-4.0135720866141735
0
LINE
8
BLACK
6
CONTINUOUS
10
5.4232692519685042
20
-4.0135720866141735
11
5.4250772047244089
21
-4.0135720866141735
0
LINE
8
BLACK
6
CONTINUOUS
10
5.4250772047244089
20
-4.0135720866141735
11
5.4263556299212601
21
-4.0148505118110238
0
LINE
8
BLACK
6
CONTINUOUS
10
5.5237122047244096
20
-4.0001762204724409
11
5.5242332283464561
21
-4.0006972440944883
0
LINE
8
BLACK
6
CONTINUOUS
10
5.5242332283464561
20
-4.0006972440944883
11
5.5336820472440946
21
-4.0136893700787404
0
LINE
8
BLACK
6
CONTINUOUS
10
5.5336820472440946
20
-4.0136893700787404
11
5.5341049606299215
21
-4.0154471653543302
0
LINE
8
BLACK
6
CONTINUOUS
10
5.5341049606299215
20
-4.0154471653543302
11
5.5331610236220472
21
-4.0169891338582673
0
LINE
8
BLACK
6
CONTINUOUS
10
5.5331610236220472
20
-4.0169891338582673
11
5.5317716535433066
21
-4.0174409448818897
0
LINE
8
BLACK
6
CONTINUOUS
10
5.5317716535433066
20
-4.0174409448818897
11
5.5128740157480314
21
-4.0174409448818897
0
LINE
8
BLACK
6
CONTINUOUS
10
5.5128740157480314
20
-4.0174409448818897
11
5.5112037007874015
21
-4.01674905511811
0
LINE
8
BLACK
6
CONTINUOUS
10
5.5112037007874015
20
-4.01674905511811
11
5.5105118110236218
21
-4.0150787401574801
0
LINE
8
BLACK
6
CONTINUOUS
10
5.5105118110236218
20
-4.0150787401574801
11
5.5109636220472442
21
-4.0136893700787404
0
LINE
8
BLACK
6
CONTINUOUS
10
5.5109636220472442
20
-4.0136893700787404
11
5.5204124409448818
21
-4.0006972440944883
0
LINE
8
BLACK
6
CONTINUOUS
10
5.5204124409448818
20
-4.0006972440944883
11
5.5219544094488189
21
-3.999753307086614
0
LINE
8
BLACK
6
CONTINUOUS
10
5.5219544094488189
20
-3.999753307086614
11
5.5237122047244096
21
-4.0001762204724409
0
LINE
8
BLACK
6
CONTINUOUS
10
5.2301494881889763
20
-4.0119908267716538
11
5.2314279133858266
21
-4.013269251968504
0
LINE
8
BLACK
6
CONTINUOUS
10
5.2314279133858266
20
-4.013269251968504
11
5.2314279133858266
21
-4.0150772047244097
0
LINE
8
BLACK
6
CONTINUOUS
10
5.2314279133858266
20
-4.0150772047244097
11
5.2301494881889763
21
-4.0163556299212599
0
LINE
8
BLACK
6
CONTINUOUS
10
5.2301494881889763
20
-4.0163556299212599
11
5.2207544881889767
21
-4.0165354330708665
0
LINE
8
BLACK
6
CONTINUOUS
10
5.2207544881889767
20
-4.0165354330708665
11
5.2198505118110239
21
-4.0163556299212599
0
LINE
8
BLACK
6
CONTINUOUS
10
5.2198505118110239
20
-4.0163556299212599
11
5.2185720866141727
21
-4.0150772047244097
0
LINE
8
BLACK
6
CONTINUOUS
10
5.2185720866141727
20
-4.0150772047244097
11
5.2185720866141727
21
-4.013269251968504
0
LINE
8
BLACK
6
CONTINUOUS
10
5.2185720866141727
20
-4.013269251968504
11
5.2198505118110239
21
-4.0119908267716538
0
LINE
8
BLACK
6
CONTINUOUS
10
5.2198505118110239
20
-4.0119908267716538
11
5.2292455118110235
21
-4.0118110236220472
0
LINE
8
BLACK
6
CONTINUOUS
10
5.2292455118110235
20
-4.0118110236220472
11
5.2301494881889763
21
-4.0119908267716538
0
LINE
8
BLACK
6
CONTINUOUS
10
5.5426640944881891
20
-3.999631496062992
11
5.5434787401574805
21
-4.000446141732283
0
LINE
8
BLACK
6
CONTINUOUS
10
5.5434787401574805
20
-4.000446141732283
11
5.5439196456692912
21
-4.0015105511811022
0
LINE
8
BLACK
6
CONTINUOUS
10
5.5439196456692912
20
-4.0015105511811022
11
5.5439543307086616
21
-4.0060787795275585
0
LINE
8
BLACK
6
CONTINUOUS
10
5.5439543307086616
20
-4.0060787795275585
11
5.6660535433070862
21
-4.0060248818897639
0
LINE
8
BLACK
6
CONTINUOUS
10
5.6660535433070862
20
-4.0060248818897639
11
5.666023622047244
21
-4.0020866141732281
0
LINE
8
BLACK
6
CONTINUOUS
10
5.666023622047244
20
-4.0020866141732281
11
5.6660803543307088
21
-4.0015105511811022
0
LINE
8
BLACK
6
CONTINUOUS
10
5.6660803543307088
20
-4.0015105511811022
11
5.6665212598425194
21
-4.000446141732283
0
LINE
8
BLACK
6
CONTINUOUS
10
5.6665212598425194
20
-4.000446141732283
11
5.6673359055118109
21
-3.999631496062992
0
LINE
8
BLACK
6
CONTINUOUS
10
5.6673359055118109
20
-3.999631496062992
11
5.6684003149606301
21
-3.9991905905511809
0
LINE
8
BLACK
6
CONTINUOUS
10
5.6684003149606301
20
-3.9991905905511809
11
5.6695524409448819
21
-3.9991905905511809
0
LINE
8
BLACK
6
CONTINUOUS
10
5.6695524409448819
20
-3.9991905905511809
11
5.6706168503937002
21
-3.999631496062992
0
LINE
8
BLACK
6
CONTINUOUS
10
5.6706168503937002
20
-3.999631496062992
11
5.6714314960629917
21
-4.000446141732283
0
LINE
8
BLACK
6
CONTINUOUS
10
5.6714314960629917
20
-4.000446141732283
11
5.6718724015748032
21
-4.0015105511811022
0
LINE
8
BLACK
6
CONTINUOUS
10
5.6718724015748032
20
-4.0015105511811022
11
5.671929133858268
21
-4.0089763779527559
0
LINE
8
BLACK
6
CONTINUOUS
10
5.671929133858268
20
-4.0089763779527559
11
5.6718724015748032
21
-4.0095524409448817
0
LINE
8
BLACK
6
CONTINUOUS
10
5.6718724015748032
20
-4.0095524409448817
11
5.6714314960629917
21
-4.010616850393701
0
LINE
8
BLACK
6
CONTINUOUS
10
5.6714314960629917
20
-4.010616850393701
11
5.6706168503937002
21
-4.0114314960629924
0
LINE
8
BLACK
6
CONTINUOUS
10
5.6706168503937002
20
-4.0114314960629924
11
5.6695524409448819
21
-4.0118724015748031
0
LINE
8
BLACK
6
CONTINUOUS
10
5.6695524409448819
20
-4.0118724015748031
11
5.541023622047244
21
-4.0119291338582679
0
LINE
8
BLACK
6
CONTINUOUS
10
5.541023622047244
20
-4.0119291338582679
11
5.5404475590551181
21
-4.0118724015748031
0
LINE
8
BLACK
6
CONTINUOUS
10
5.5404475590551181
20
-4.0118724015748031
11
5.5393831496062989
21
-4.0114314960629924
0
LINE
8
BLACK
6
CONTINUOUS
10
5.5393831496062989
20
-4.0114314960629924
11
5.5385685039370074
21
-4.010616850393701
0
LINE
8
BLACK
6
CONTINUOUS
10
5.5385685039370074
20
-4.010616850393701
11
5.5381275984251968
21
-4.0095524409448817
0
LINE
8
BLACK
6
CONTINUOUS
10
5.5381275984251968
20
-4.0095524409448817
11
5.5380708661417319
21
-4.0020866141732281
0
LINE
8
BLACK
6
CONTINUOUS
10
5.5380708661417319
20
-4.0020866141732281
11
5.5381275984251968
21
-4.0015105511811022
0
LINE
8
BLACK
6
CONTINUOUS
10
5.5381275984251968
20
-4.0015105511811022
11
5.5385685039370074
21
-4.000446141732283
0
LINE
8
BLACK
6
CONTINUOUS
10
5.5385685039370074
20
-4.000446141732283
11
5.5393831496062989
21
-3.999631496062992
0
LINE
8
BLACK
6
CONTINUOUS
10
5.5393831496062989
20
-3.999631496062992
11
5.5404475590551181
21
-3.9991905905511809
0
LINE
8
BLACK
6
CONTINUOUS
10
5.5404475590551181
20
-3.9991905905511809
11
5.5415996850393698
21
-3.9991905905511809
0
LINE
8
BLACK
6
CONTINUOUS
10
5.5415996850393698
20
-3.9991905905511809
11
5.5426640944881891
21
-3.999631496062992
0
LINE
8
BLACK
6
CONTINUOUS
10
5.4422217716535428
20
-3.9930471653543305
11
5.4424015748031493
21
-4.0060488582677163
0
LINE
8
BLACK
6
CONTINUOUS
10
5.4424015748031493
20
-4.0060488582677163
11
5.4422217716535428
21
-4.0069528346456691
0
LINE
8
BLACK
6
CONTINUOUS
10
5.4422217716535428
20
-4.0069528346456691
11
5.4409433464566925
21
-4.0082312598425194
0
LINE
8
BLACK
6
CONTINUOUS
10
5.4409433464566925
20
-4.0082312598425194
11
5.4391353937007869
21
-4.0082312598425194
0
LINE
8
BLACK
6
CONTINUOUS
10
5.4391353937007869
20
-4.0082312598425194
11
5.4378569685039366
21
-4.0069528346456691
0
LINE
8
BLACK
6
CONTINUOUS
10
5.4378569685039366
20
-4.0069528346456691
11
5.437677165354331
21
-3.9939511417322833
0
LINE
8
BLACK
6
CONTINUOUS
10
5.437677165354331
20
-3.9939511417322833
11
5.4378569685039366
21
-3.9930471653543305
0
LINE
8
BLACK
6
CONTINUOUS
10
5.4378569685039366
20
-3.9930471653543305
11
5.4391353937007869
21
-3.9917687401574802
0
LINE
8
BLACK
6
CONTINUOUS
10
5.4391353937007869
20
-3.9917687401574802
11
5.4409433464566925
21
-3.9917687401574802
0
LINE
8
BLACK
6
CONTINUOUS
10
5.4409433464566925
20
-3.9917687401574802
11
5.4422217716535428
21
-3.9930471653543305
0
LINE
8
BLACK
6
CONTINUOUS
10
5.4721430314960626
20
-3.9930471653543305
11
5.4723228346456692
21
-4.0060488582677163
0
LINE
8
BLACK
6
CONTINUOUS
10
5.4723228346456692
20
-4.0060488582677163
11
5.4721430314960626
21
-4.0069528346456691
0
LINE
8
BLACK
6
CONTINUOUS
10
5.4721430314960626
20
-4.0069528346456691
11
5.4708646062992123
21
-4.0082312598425194
0
LINE
8
BLACK
6
CONTINUOUS
10
5.4708646062992123
20
-4.0082312598425194
11
5.4690566535433067
21
-4.0082312598425194
0
LINE
8
BLACK
6
CONTINUOUS
10
5.4690566535433067
20
-4.0082312598425194
11
5.4677782283464564
21
-4.0069528346456691
0
LINE
8
BLACK
6
CONTINUOUS
10
5.4677782283464564
20
-4.0069528346456691
11
5.4675984251968499
21
-3.9939511417322833
0
LINE
8
BLACK
6
CONTINUOUS
10
5.4675984251968499
20
-3.9939511417322833
11
5.4677782283464564
21
-3.9930471653543305
0
LINE
8
BLACK
6
CONTINUOUS
10
5.4677782283464564
20
-3.9930471653543305
11
5.4690566535433067
21
-3.9917687401574802
0
LINE
8
BLACK
6
CONTINUOUS
10
5.4690566535433067
20
-3.9917687401574802
11
5.4708646062992123
21
-3.9917687401574802
0
LINE
8
BLACK
6
CONTINUOUS
10
5.4708646062992123
20
-3.9917687401574802
11
5.4721430314960626
21
-3.9930471653543305
0
LINE
8
BLACK
6
CONTINUOUS
10
5.2301494881889763
20
-3.9836443700787401
11
5.2314279133858266
21
-3.9849227952755903
0
LINE
8
BLACK
6
CONTINUOUS
10
5.2314279133858266
20
-3.9849227952755903
11
5.2314279133858266
21
-3.986730748031496
0
LINE
8
BLACK
6
CONTINUOUS
10
5.2314279133858266
20
-3.986730748031496
11
5.2301494881889763
21
-3.9880091732283462
0
LINE
8
BLACK
6
CONTINUOUS
10
5.2301494881889763
20
-3.9880091732283462
11
5.2207544881889767
21
-3.9881889763779528
0
LINE
8
BLACK
6
CONTINUOUS
10
5.2207544881889767
20
-3.9881889763779528
11
5.2198505118110239
21
-3.9880091732283462
0
LINE
8
BLACK
6
CONTINUOUS
10
5.2198505118110239
20
-3.9880091732283462
11
5.2185720866141727
21
-3.986730748031496
0
LINE
8
BLACK
6
CONTINUOUS
10
5.2185720866141727
20
-3.986730748031496
11
5.2185720866141727
21
-3.9849227952755903
0
LINE
8
BLACK
6
CONTINUOUS
10
5.2185720866141727
20
-3.9849227952755903
11
5.2198505118110239
21
-3.9836443700787401
0
LINE
8
BLACK
6
CONTINUOUS
10
5.2198505118110239
20
-3.9836443700787401
11
5.2292455118110235
21
-3.983464566929134
0
LINE
8
BLACK
6
CONTINUOUS
10
5.2292455118110235
20
-3.983464566929134
11
5.2301494881889763
21
-3.9836443700787401
0
LINE
8
BLACK
6
CONTINUOUS
10
5.2483972440944884
20
-3.9260817322834645
11
5.2489182677165349
21
-3.9266027559055119
0
LINE
8
BLACK
6
CONTINUOUS
10
5.2489182677165349
20
-3.9266027559055119
11
5.2583670866141734
21
-3.9395948818897635
0
LINE
8
BLACK
6
CONTINUOUS
10
5.2583670866141734
20
-3.9395948818897635
11
5.2587900000000003
21
-3.9413526771653542
0
LINE
8
BLACK
6
CONTINUOUS
10
5.2587900000000003
20
-3.9413526771653542
11
5.257846062992126
21
-3.9428946456692913
0
LINE
8
BLACK
6
CONTINUOUS
10
5.257846062992126
20
-3.9428946456692913
11
5.2564566929133854
21
-3.9433464566929133
0
LINE
8
BLACK
6
CONTINUOUS
10
5.2564566929133854
20
-3.9433464566929133
11
5.2375590551181102
21
-3.9433464566929133
0
LINE
8
BLACK
6
CONTINUOUS
10
5.2375590551181102
20
-3.9433464566929133
11
5.2358887401574803
21
-3.942654566929134
0
LINE
8
BLACK
6
CONTINUOUS
10
5.2358887401574803
20
-3.942654566929134
11
5.2351968503937005
21
-3.9409842519685037
0
LINE
8
BLACK
6
CONTINUOUS
10
5.2351968503937005
20
-3.9409842519685037
11
5.235648661417323
21
-3.9395948818897635
0
LINE
8
BLACK
6
CONTINUOUS
10
5.235648661417323
20
-3.9395948818897635
11
5.2450974803149606
21
-3.9266027559055119
0
LINE
8
BLACK
6
CONTINUOUS
10
5.2450974803149606
20
-3.9266027559055119
11
5.2466394488188977
21
-3.9256588188976376
0
LINE
8
BLACK
6
CONTINUOUS
10
5.2466394488188977
20
-3.9256588188976376
11
5.2483972440944884
21
-3.9260817322834645
0
LINE
8
BLACK
6
CONTINUOUS
10
5.3751745275590546
20
-3.9172456299212599
11
5.3753543307086611
21
-3.9279921259842521
0
LINE
8
BLACK
6
CONTINUOUS
10
5.3753543307086611
20
-3.9279921259842521
11
5.3751745275590546
21
-3.9288961023622044
0
LINE
8
BLACK
6
CONTINUOUS
10
5.3751745275590546
20
-3.9288961023622044
11
5.3738961023622043
21
-3.9301745275590552
0
LINE
8
BLACK
6
CONTINUOUS
10
5.3738961023622043
20
-3.9301745275590552
11
5.3631496062992126
21
-3.9303543307086612
0
LINE
8
BLACK
6
CONTINUOUS
10
5.3631496062992126
20
-3.9303543307086612
11
5.3622456299212597
21
-3.9301745275590552
0
LINE
8
BLACK
6
CONTINUOUS
10
5.3622456299212597
20
-3.9301745275590552
11
5.3609672047244095
21
-3.9288961023622044
0
LINE
8
BLACK
6
CONTINUOUS
10
5.3609672047244095
20
-3.9288961023622044
11
5.3609672047244095
21
-3.9270881496062993
0
LINE
8
BLACK
6
CONTINUOUS
10
5.3609672047244095
20
-3.9270881496062993
11
5.3622456299212597
21
-3.9258097244094485
0
LINE
8
BLACK
6
CONTINUOUS
10
5.3622456299212597
20
-3.9258097244094485
11
5.3707556692913387
21
-3.9256673228346455
0
LINE
8
BLACK
6
CONTINUOUS
10
5.3707556692913387
20
-3.9256673228346455
11
5.3706299212598427
21
-3.9181496062992127
0
LINE
8
BLACK
6
CONTINUOUS
10
5.3706299212598427
20
-3.9181496062992127
11
5.3708097244094484
21
-3.9172456299212599
0
LINE
8
BLACK
6
CONTINUOUS
10
5.3708097244094484
20
-3.9172456299212599
11
5.3720881496062987
21
-3.9159672047244092
0
LINE
8
BLACK
6
CONTINUOUS
10
5.3720881496062987
20
-3.9159672047244092
11
5.3738961023622043
21
-3.9159672047244092
0
LINE
8
BLACK
6
CONTINUOUS
10
5.3738961023622043
20
-3.9159672047244092
11
5.3751745275590546
21
-3.9172456299212599
0
LINE
8
BLACK
6
CONTINUOUS
10
5.4422217716535428
20
-3.9080471653543305
11
5.4424015748031493
21
-3.9210488582677163
0
LINE
8
BLACK
6
CONTINUOUS
10
5.4424015748031493
20
-3.9210488582677163
11
5.4422217716535428
21
-3.9219528346456691
0
LINE
8
BLACK
6
CONTINUOUS
10
5.4422217716535428
20
-3.9219528346456691
11
5.4409433464566925
21
-3.9232312598425194
0
LINE
8
BLACK
6
CONTINUOUS
10
5.4409433464566925
20
-3.9232312598425194
11
5.4391353937007869
21
-3.9232312598425194
0
LINE
8
BLACK
6
CONTINUOUS
10
5.4391353937007869
20
-3.9232312598425194
11
5.4378569685039366
21
-3.9219528346456691
0
LINE
8
BLACK
6
CONTINUOUS
10
5.4378569685039366
20
-3.9219528346456691
11
5.437677165354331
21
-3.9089511417322833
0
LINE
8
BLACK
6
CONTINUOUS
10
5.437677165354331
20
-3.9089511417322833
11
5.4378569685039366
21
-3.9080471653543305
0
LINE
8
BLACK
6
CONTINUOUS
10
5.4378569685039366
20
-3.9080471653543305
11
5.4391353937007869
21
-3.9067687401574802
0
LINE
8
BLACK
6
CONTINUOUS
10
5.4391353937007869
20
-3.9067687401574802
11
5.4409433464566925
21
-3.9067687401574802
0
LINE
8
BLACK
6
CONTINUOUS
10
5.4409433464566925
20
-3.9067687401574802
11
5.4422217716535428
21
-3.9080471653543305
0
LINE
8
BLACK
6
CONTINUOUS
10
5.4721430314960626
20
-3.9080471653543305
11
5.4723228346456692
21
-3.9210488582677163
0
LINE
8
BLACK
6
CONTINUOUS
10
5.4723228346456692
20
-3.9210488582677163
11
5.4721430314960626
21
-3.9219528346456691
0
LINE
8
BLACK
6
CONTINUOUS
10
5.4721430314960626
20
-3.9219528346456691
11
5.4708646062992123
21
-3.9232312598425194
0
LINE
8
BLACK
6
CONTINUOUS
10
5.4708646062992123
20
-3.9232312598425194
11
5.4690566535433067
21
-3.9232312598425194
0
LINE
8
BLACK
6
CONTINUOUS
10
5.4690566535433067
20
-3.9232312598425194
11
5.4677782283464564
21
-3.9219528346456691
0
LINE
8
BLACK
6
CONTINUOUS
10
5.4677782283464564
20
-3.9219528346456691
11
5.4675984251968499
21
-3.9089511417322833
0
LINE
8
BLACK
6
CONTINUOUS
10
5.4675984251968499
20
-3.9089511417322833
11
5.4677782283464564
21
-3.9080471653543305
0
LINE
8
BLACK
6
CONTINUOUS
10
5.4677782283464564
20
-3.9080471653543305
11
5.4690566535433067
21
-3.9067687401574802
0
LINE
8
BLACK
6
CONTINUOUS
10
5.4690566535433067
20
-3.9067687401574802
11
5.4708646062992123
21
-3.9067687401574802
0
LINE
8
BLACK
6
CONTINUOUS
10
5.4708646062992123
20
-3.9067687401574802
11
5.4721430314960626
21
-3.9080471653543305
0
LINE
8
BLACK
6
CONTINUOUS
10
5.6695524409448819
20
-3.8781275984251966
11
5.6706168503937002
21
-3.8785685039370077
0
LINE
8
BLACK
6
CONTINUOUS
10
5.6706168503937002
20
-3.8785685039370077
11
5.6714314960629917
21
-3.8793831496062992
0
LINE
8
BLACK
6
CONTINUOUS
10
5.6714314960629917
20
-3.8793831496062992
11
5.6718724015748032
21
-3.880447559055118
0
LINE
8
BLACK
6
CONTINUOUS
10
5.6718724015748032
20
-3.880447559055118
11
5.671929133858268
21
-3.8879133858267716
0
LINE
8
BLACK
6
CONTINUOUS
10
5.671929133858268
20
-3.8879133858267716
11
5.6718724015748032
21
-3.8884894488188975
0
LINE
8
BLACK
6
CONTINUOUS
10
5.6718724015748032
20
-3.8884894488188975
11
5.6714314960629917
21
-3.8895538582677163
0
LINE
8
BLACK
6
CONTINUOUS
10
5.6714314960629917
20
-3.8895538582677163
11
5.6706168503937002
21
-3.8903685039370077
0
LINE
8
BLACK
6
CONTINUOUS
10
5.6706168503937002
20
-3.8903685039370077
11
5.6695524409448819
21
-3.8908094094488188
0
LINE
8
BLACK
6
CONTINUOUS
10
5.6695524409448819
20
-3.8908094094488188
11
5.6684003149606301
21
-3.8908094094488188
0
LINE
8
BLACK
6
CONTINUOUS
10
5.6684003149606301
20
-3.8908094094488188
11
5.6673359055118109
21
-3.8903685039370077
0
LINE
8
BLACK
6
CONTINUOUS
10
5.6673359055118109
20
-3.8903685039370077
11
5.6665212598425194
21
-3.8895538582677163
0
LINE
8
BLACK
6
CONTINUOUS
10
5.6665212598425194
20
-3.8895538582677163
11
5.6660803543307088
21
-3.8884894488188975
0
LINE
8
BLACK
6
CONTINUOUS
10
5.6660803543307088
20
-3.8884894488188975
11
5.6660456299212596
21
-3.883921181102362
0
LINE
8
BLACK
6
CONTINUOUS
10
5.6660456299212596
20
-3.883921181102362
11
5.5439464173228341
21
-3.8839750787401575
0
LINE
8
BLACK
6
CONTINUOUS
10
5.5439464173228341
20
-3.8839750787401575
11
5.543976377952756
21
-3.8879133858267716
0
LINE
8
BLACK
6
CONTINUOUS
10
5.543976377952756
20
-3.8879133858267716
11
5.5439196456692912
21
-3.8884894488188975
0
LINE
8
BLACK
6
CONTINUOUS
10
5.5439196456692912
20
-3.8884894488188975
11
5.5434787401574805
21
-3.8895538582677163
0
LINE
8
BLACK
6
CONTINUOUS
10
5.5434787401574805
20
-3.8895538582677163
11
5.5426640944881891
21
-3.8903685039370077
0
LINE
8
BLACK
6
CONTINUOUS
10
5.5426640944881891
20
-3.8903685039370077
11
5.5415996850393698
21
-3.8908094094488188
0
LINE
8
BLACK
6
CONTINUOUS
10
5.5415996850393698
20
-3.8908094094488188
11
5.5404475590551181
21
-3.8908094094488188
0
LINE
8
BLACK
6
CONTINUOUS
10
5.5404475590551181
20
-3.8908094094488188
11
5.5393831496062989
21
-3.8903685039370077
0
LINE
8
BLACK
6
CONTINUOUS
10
5.5393831496062989
20
-3.8903685039370077
11
5.5385685039370074
21
-3.8895538582677163
0
LINE
8
BLACK
6
CONTINUOUS
10
5.5385685039370074
20
-3.8895538582677163
11
5.5381275984251968
21
-3.8884894488188975
0
LINE
8
BLACK
6
CONTINUOUS
10
5.5381275984251968
20
-3.8884894488188975
11
5.5380708661417319
21
-3.8810236220472438
0
LINE
8
BLACK
6
CONTINUOUS
10
5.5380708661417319
20
-3.8810236220472438
11
5.5381275984251968
21
-3.880447559055118
0
LINE
8
BLACK
6
CONTINUOUS
10
5.5381275984251968
20
-3.880447559055118
11
5.5385685039370074
21
-3.8793831496062992
0
LINE
8
BLACK
6
CONTINUOUS
10
5.5385685039370074
20
-3.8793831496062992
11
5.5393831496062989
21
-3.8785685039370077
0
LINE
8
BLACK
6
CONTINUOUS
10
5.5393831496062989
20
-3.8785685039370077
11
5.5404475590551181
21
-3.8781275984251966
0
LINE
8
BLACK
6
CONTINUOUS
10
5.5404475590551181
20
-3.8781275984251966
11
5.668976377952756
21
-3.8780708661417322
0
LINE
8
BLACK
6
CONTINUOUS
10
5.668976377952756
20
-3.8780708661417322
11
5.6695524409448819
21
-3.8781275984251966
0
LINE
8
BLACK
6
CONTINUOUS
10
4.9086862992125981
20
-3.8079701181102363
11
4.9097507086614174
21
-3.808411023622047
0
LINE
8
BLACK
6
CONTINUOUS
10
4.9097507086614174
20
-3.808411023622047
11
4.9105653543307088
21
-3.8092256692913384
0
LINE
8
BLACK
6
CONTINUOUS
10
4.9105653543307088
20
-3.8092256692913384
11
4.9110062598425195
21
-3.8102900787401572
0
LINE
8
BLACK
6
CONTINUOUS
10
4.9110062598425195
20
-3.8102900787401572
11
4.9110062598425195
21
-3.8114422047244094
0
LINE
8
BLACK
6
CONTINUOUS
10
4.9110062598425195
20
-3.8114422047244094
11
4.9105653543307088
21
-3.8125066141732282
0
LINE
8
BLACK
6
CONTINUOUS
10
4.9105653543307088
20
-3.8125066141732282
11
4.9097507086614174
21
-3.8133212598425197
0
LINE
8
BLACK
6
CONTINUOUS
10
4.9097507086614174
20
-3.8133212598425197
11
4.9086862992125981
21
-3.8137621653543308
0
LINE
8
BLACK
6
CONTINUOUS
10
4.9086862992125981
20
-3.8137621653543308
11
4.8381753149606297
21
-3.8138166535433071
0
LINE
8
BLACK
6
CONTINUOUS
10
4.8381753149606297
20
-3.8138166535433071
11
4.8382283464566926
21
-3.8640157480314961
0
LINE
8
BLACK
6
CONTINUOUS
10
4.8382283464566926
20
-3.8640157480314961
11
4.8381716141732278
21
-3.8645918110236219
0
LINE
8
BLACK
6
CONTINUOUS
10
4.8381716141732278
20
-3.8645918110236219
11
4.8377307086614172
21
-3.8656562204724407
0
LINE
8
BLACK
6
CONTINUOUS
10
4.8377307086614172
20
-3.8656562204724407
11
4.8369160629921257
21
-3.8664708661417322
0
LINE
8
BLACK
6
CONTINUOUS
10
4.8369160629921257
20
-3.8664708661417322
11
4.8358516535433074
21
-3.8669117716535433
0
LINE
8
BLACK
6
CONTINUOUS
10
4.8358516535433074
20
-3.8669117716535433
11
4.8346995275590547
21
-3.8669117716535433
0
LINE
8
BLACK
6
CONTINUOUS
10
4.8346995275590547
20
-3.8669117716535433
11
4.8336351181102364
21
-3.8664708661417322
0
LINE
8
BLACK
6
CONTINUOUS
10
4.8336351181102364
20
-3.8664708661417322
11
4.8328204724409449
21
-3.8656562204724407
0
LINE
8
BLACK
6
CONTINUOUS
10
4.8328204724409449
20
-3.8656562204724407
11
4.8323795669291334
21
-3.8645918110236219
0
LINE
8
BLACK
6
CONTINUOUS
10
4.8323795669291334
20
-3.8645918110236219
11
4.8323228346456695
21
-3.8108661417322836
0
LINE
8
BLACK
6
CONTINUOUS
10
4.8323228346456695
20
-3.8108661417322836
11
4.8323795669291334
21
-3.8102900787401572
0
LINE
8
BLACK
6
CONTINUOUS
10
4.8323795669291334
20
-3.8102900787401572
11
4.8328204724409449
21
-3.8092256692913384
0
LINE
8
BLACK
6
CONTINUOUS
10
4.8328204724409449
20
-3.8092256692913384
11
4.8336351181102364
21
-3.808411023622047
0
LINE
8
BLACK
6
CONTINUOUS
10
4.8336351181102364
20
-3.808411023622047
11
4.8346995275590547
21
-3.8079701181102363
0
LINE
8
BLACK
6
CONTINUOUS
10
4.8346995275590547
20
-3.8079701181102363
11
4.9081102362204723
21
-3.8079133858267715
0
LINE
8
BLACK
6
CONTINUOUS
10
4.9081102362204723
20
-3.8079133858267715
11
4.9086862992125981
21
-3.8079701181102363
0
LINE
8
BLACK
6
CONTINUOUS
10
5.1704973228346454
20
-3.8079701181102363
11
5.1715617322834646
21
-3.808411023622047
0
LINE
8
BLACK
6
CONTINUOUS
10
5.1715617322834646
20
-3.808411023622047
11
5.1723763779527561
21
-3.8092256692913384
0
LINE
8
BLACK
6
CONTINUOUS
10
5.1723763779527561
20
-3.8092256692913384
11
5.1728172834645667
21
-3.8102900787401572
0
LINE
8
BLACK
6
CONTINUOUS
10
5.1728172834645667
20
-3.8102900787401572
11
5.1728740157480315
21
-3.8640157480314961
0
LINE
8
BLACK
6
CONTINUOUS
10
5.1728740157480315
20
-3.8640157480314961
11
5.1728172834645667
21
-3.8645918110236219
0
LINE
8
BLACK
6
CONTINUOUS
10
5.1728172834645667
20
-3.8645918110236219
11
5.1723763779527561
21
-3.8656562204724407
0
LINE
8
BLACK
6
CONTINUOUS
10
5.1723763779527561
20
-3.8656562204724407
11
5.1715617322834646
21
-3.8664708661417322
0
LINE
8
BLACK
6
CONTINUOUS
10
5.1715617322834646
20
-3.8664708661417322
11
5.1704973228346454
21
-3.8669117716535433
0
LINE
8
BLACK
6
CONTINUOUS
10
5.1704973228346454
20
-3.8669117716535433
11
5.1693451968503936
21
-3.8669117716535433
0
LINE
8
BLACK
6
CONTINUOUS
10
5.1693451968503936
20
-3.8669117716535433
11
5.1682807874015744
21
-3.8664708661417322
0
LINE
8
BLACK
6
CONTINUOUS
10
5.1682807874015744
20
-3.8664708661417322
11
5.1674661417322829
21
-3.8656562204724407
0
LINE
8
BLACK
6
CONTINUOUS
10
5.1674661417322829
20
-3.8656562204724407
11
5.1670252362204723
21
-3.8645918110236219
0
LINE
8
BLACK
6
CONTINUOUS
10
5.1670252362204723
20
-3.8645918110236219
11
5.1669715354330705
21
-3.8137648818897638
0
LINE
8
BLACK
6
CONTINUOUS
10
5.1669715354330705
20
-3.8137648818897638
11
5.0970866141732278
21
-3.8138188976377951
0
LINE
8
BLACK
6
CONTINUOUS
10
5.0970866141732278
20
-3.8138188976377951
11
5.096510551181102
21
-3.8137621653543308
0
LINE
8
BLACK
6
CONTINUOUS
10
5.096510551181102
20
-3.8137621653543308
11
5.0954461417322836
21
-3.8133212598425197
0
LINE
8
BLACK
6
CONTINUOUS
10
5.0954461417322836
20
-3.8133212598425197
11
5.0946314960629921
21
-3.8125066141732282
0
LINE
8
BLACK
6
CONTINUOUS
10
5.0946314960629921
20
-3.8125066141732282
11
5.0941905905511806
21
-3.8114422047244094
0
LINE
8
BLACK
6
CONTINUOUS
10
5.0941905905511806
20
-3.8114422047244094
11
5.0941905905511806
21
-3.8102900787401572
0
LINE
8
BLACK
6
CONTINUOUS
10
5.0941905905511806
20
-3.8102900787401572
11
5.0946314960629921
21
-3.8092256692913384
0
LINE
8
BLACK
6
CONTINUOUS
10
5.0946314960629921
20
-3.8092256692913384
11
5.0954461417322836
21
-3.808411023622047
0
LINE
8
BLACK
6
CONTINUOUS
10
5.0954461417322836
20
-3.808411023622047
11
5.096510551181102
21
-3.8079701181102363
0
LINE
8
BLACK
6
CONTINUOUS
10
5.096510551181102
20
-3.8079701181102363
11
5.1699212598425195
21
-3.8079133858267715
0
LINE
8
BLACK
6
CONTINUOUS
10
5.1699212598425195
20
-3.8079133858267715
11
5.1704973228346454
21
-3.8079701181102363
0
LINE
8
BLACK
6
CONTINUOUS
10
5.5109528346456695
20
-3.8607782283464567
11
5.5122312598425198
21
-3.862056653543307
0
LINE
8
BLACK
6
CONTINUOUS
10
5.5122312598425198
20
-3.862056653543307
11
5.5122312598425198
21
-3.8638646062992126
0
LINE
8
BLACK
6
CONTINUOUS
10
5.5122312598425198
20
-3.8638646062992126
11
5.5109528346456695
21
-3.8651430314960629
0
LINE
8
BLACK
6
CONTINUOUS
10
5.5109528346456695
20
-3.8651430314960629
11
5.4979511417322833
21
-3.8653228346456694
0
LINE
8
BLACK
6
CONTINUOUS
10
5.4979511417322833
20
-3.8653228346456694
11
5.4970471653543305
21
-3.8651430314960629
0
LINE
8
BLACK
6
CONTINUOUS
10
5.4970471653543305
20
-3.8651430314960629
11
5.4957687401574802
21
-3.8638646062992126
0
LINE
8
BLACK
6
CONTINUOUS
10
5.4957687401574802
20
-3.8638646062992126
11
5.4957687401574802
21
-3.862056653543307
0
LINE
8
BLACK
6
CONTINUOUS
10
5.4957687401574802
20
-3.862056653543307
11
5.4970471653543305
21
-3.8607782283464567
0
LINE
8
BLACK
6
CONTINUOUS
10
5.4970471653543305
20
-3.8607782283464567
11
5.5100488582677167
21
-3.8605984251968501
0
LINE
8
BLACK
6
CONTINUOUS
10
5.5100488582677167
20
-3.8605984251968501
11
5.5109528346456695
21
-3.8607782283464567
0
LINE
8
BLACK
6
CONTINUOUS
10
5.6219528346456693
20
-3.8587782283464565
11
5.6232312598425196
21
-3.8600566535433072
0
LINE
8
BLACK
6
CONTINUOUS
10
5.6232312598425196
20
-3.8600566535433072
11
5.6232312598425196
21
-3.8618646062992124
0
LINE
8
BLACK
6
CONTINUOUS
10
5.6232312598425196
20
-3.8618646062992124
11
5.6219528346456693
21
-3.8631430314960631
0
LINE
8
BLACK
6
CONTINUOUS
10
5.6219528346456693
20
-3.8631430314960631
11
5.608951141732283
21
-3.8633228346456692
0
LINE
8
BLACK
6
CONTINUOUS
10
5.608951141732283
20
-3.8633228346456692
11
5.6080471653543302
21
-3.8631430314960631
0
LINE
8
BLACK
6
CONTINUOUS
10
5.6080471653543302
20
-3.8631430314960631
11
5.6067687401574799
21
-3.8618646062992124
0
LINE
8
BLACK
6
CONTINUOUS
10
5.6067687401574799
20
-3.8618646062992124
11
5.6067687401574799
21
-3.8600566535433072
0
LINE
8
BLACK
6
CONTINUOUS
10
5.6067687401574799
20
-3.8600566535433072
11
5.6080471653543302
21
-3.8587782283464565
0
LINE
8
BLACK
6
CONTINUOUS
10
5.6080471653543302
20
-3.8587782283464565
11
5.6210488582677165
21
-3.8585984251968504
0
LINE
8
BLACK
6
CONTINUOUS
10
5.6210488582677165
20
-3.8585984251968504
11
5.6219528346456693
21
-3.8587782283464565
0
LINE
8
BLACK
6
CONTINUOUS
10
5.8436598818897636
20
-3.7758097244094486
11
5.8449383070866139
21
-3.7770881496062989
0
LINE
8
BLACK
6
CONTINUOUS
10
5.8449383070866139
20
-3.7770881496062989
11
5.8449383070866139
21
-3.7788961023622045
0
LINE
8
BLACK
6
CONTINUOUS
10
5.8449383070866139
20
-3.7788961023622045
11
5.8436598818897636
21
-3.7801745275590553
0
LINE
8
BLACK
6
CONTINUOUS
10
5.8436598818897636
20
-3.7801745275590553
11
5.7878598425196852
21
-3.7803475196850393
0
LINE
8
BLACK
6
CONTINUOUS
10
5.7878598425196852
20
-3.7803475196850393
11
5.7880314960629917
21
-3.8488582677165355
0
LINE
8
BLACK
6
CONTINUOUS
10
5.7880314960629917
20
-3.8488582677165355
11
5.7878516929133861
21
-3.8497622440944883
0
LINE
8
BLACK
6
CONTINUOUS
10
5.7878516929133861
20
-3.8497622440944883
11
5.7865732677165349
21
-3.8510406692913386
0
LINE
8
BLACK
6
CONTINUOUS
10
5.7865732677165349
20
-3.8510406692913386
11
5.7466929133858269
21
-3.8512204724409447
0
LINE
8
BLACK
6
CONTINUOUS
10
5.7466929133858269
20
-3.8512204724409447
11
5.7457889370078741
21
-3.8510406692913386
0
LINE
8
BLACK
6
CONTINUOUS
10
5.7457889370078741
20
-3.8510406692913386
11
5.7445105118110238
21
-3.8497622440944883
0
LINE
8
BLACK
6
CONTINUOUS
10
5.7445105118110238
20
-3.8497622440944883
11
5.7445105118110238
21
-3.8479542913385827
0
LINE
8
BLACK
6
CONTINUOUS
10
5.7445105118110238
20
-3.8479542913385827
11
5.7457889370078741
21
-3.8466758661417324
0
LINE
8
BLACK
6
CONTINUOUS
10
5.7457889370078741
20
-3.8466758661417324
11
5.7834787007874011
21
-3.8465059055118109
0
LINE
8
BLACK
6
CONTINUOUS
10
5.7834787007874011
20
-3.8465059055118109
11
5.7833070866141734
21
-3.7779921259842517
0
LINE
8
BLACK
6
CONTINUOUS
10
5.7833070866141734
20
-3.7779921259842517
11
5.783486889763779
21
-3.7770881496062989
0
LINE
8
BLACK
6
CONTINUOUS
10
5.783486889763779
20
-3.7770881496062989
11
5.7847653149606302
21
-3.7758097244094486
0
LINE
8
BLACK
6
CONTINUOUS
10
5.7847653149606302
20
-3.7758097244094486
11
5.8427559055118108
21
-3.7756299212598425
0
LINE
8
BLACK
6
CONTINUOUS
10
5.8427559055118108
20
-3.7756299212598425
11
5.8436598818897636
21
-3.7758097244094486
0
LINE
8
BLACK
6
CONTINUOUS
10
5.154074803149606
20
-3.8169164566929132
11
5.1575208267716537
21
-3.819807992125984
0
LINE
8
BLACK
6
CONTINUOUS
10
5.1575208267716537
20
-3.819807992125984
11
5.1597700393700787
21
-3.8237037401574803
0
LINE
8
BLACK
6
CONTINUOUS
10
5.1597700393700787
20
-3.8237037401574803
11
5.1605511811023623
21
-3.8281338582677162
0
LINE
8
BLACK
6
CONTINUOUS
10
5.1605511811023623
20
-3.8281338582677162
11
5.1597700393700787
21
-3.8325639763779527
0
LINE
8
BLACK
6
CONTINUOUS
10
5.1597700393700787
20
-3.8325639763779527
11
5.1575208267716537
21
-3.8364597244094489
0
LINE
8
BLACK
6
CONTINUOUS
10
5.1575208267716537
20
-3.8364597244094489
11
5.154074803149606
21
-3.8393512598425197
0
LINE
8
BLACK
6
CONTINUOUS
10
5.154074803149606
20
-3.8393512598425197
11
5.1498476377952755
21
-3.8408898425196849
0
LINE
8
BLACK
6
CONTINUOUS
10
5.1498476377952755
20
-3.8408898425196849
11
5.1453492125984255
21
-3.8408898425196849
0
LINE
8
BLACK
6
CONTINUOUS
10
5.1453492125984255
20
-3.8408898425196849
11
5.1411220472440942
21
-3.8393512598425197
0
LINE
8
BLACK
6
CONTINUOUS
10
5.1411220472440942
20
-3.8393512598425197
11
5.1376760236220473
21
-3.8364597244094489
0
LINE
8
BLACK
6
CONTINUOUS
10
5.1376760236220473
20
-3.8364597244094489
11
5.1354268110236223
21
-3.8325639763779527
0
LINE
8
BLACK
6
CONTINUOUS
10
5.1354268110236223
20
-3.8325639763779527
11
5.1346456692913387
21
-3.8281338582677162
0
LINE
8
BLACK
6
CONTINUOUS
10
5.1346456692913387
20
-3.8281338582677162
11
5.1354268110236223
21
-3.8237037401574803
0
LINE
8
BLACK
6
CONTINUOUS
10
5.1354268110236223
20
-3.8237037401574803
11
5.1376760236220473
21
-3.819807992125984
0
LINE
8
BLACK
6
CONTINUOUS
10
5.1376760236220473
20
-3.819807992125984
11
5.1411220472440942
21
-3.8169164566929132
0
LINE
8
BLACK
6
CONTINUOUS
10
5.1411220472440942
20
-3.8169164566929132
11
5.1453492125984255
21
-3.815377874015748
0
LINE
8
BLACK
6
CONTINUOUS
10
5.1453492125984255
20
-3.815377874015748
11
5.1498476377952755
21
-3.815377874015748
0
LINE
8
BLACK
6
CONTINUOUS
10
5.1498476377952755
20
-3.815377874015748
11
5.154074803149606
21
-3.8169164566929132
0
LINE
8
BLACK
6
CONTINUOUS
10
5.1410857874015745
20
-3.831270157480315
11
5.1430915354330704
21
-3.8337853149606298
0
LINE
8
BLACK
6
CONTINUOUS
10
5.1430915354330704
20
-3.8337853149606298
11
5.1459899212598428
21
-3.8351811023622044
0
LINE
8
BLACK
6
CONTINUOUS
10
5.1459899212598428
20
-3.8351811023622044
11
5.1492069291338582
21
-3.8351811023622044
0
LINE
8
BLACK
6
CONTINUOUS
10
5.1492069291338582
20
-3.8351811023622044
11
5.1521053149606297
21
-3.8337853149606298
0
LINE
8
BLACK
6
CONTINUOUS
10
5.1521053149606297
20
-3.8337853149606298
11
5.1541110629921256
21
-3.831270157480315
0
LINE
8
BLACK
6
CONTINUOUS
10
5.1541110629921256
20
-3.831270157480315
11
5.154826889763779
21
-3.8281338582677162
0
LINE
8
BLACK
6
CONTINUOUS
10
5.154826889763779
20
-3.8281338582677162
11
5.1541110629921256
21
-3.824997559055118
0
LINE
8
BLACK
6
CONTINUOUS
10
5.1541110629921256
20
-3.824997559055118
11
5.1521053149606297
21
-3.8224824015748031
0
LINE
8
BLACK
6
CONTINUOUS
10
5.1521053149606297
20
-3.8224824015748031
11
5.1492069291338582
21
-3.8210866141732285
0
LINE
8
BLACK
6
CONTINUOUS
10
5.1492069291338582
20
-3.8210866141732285
11
5.1459899212598428
21
-3.8210866141732285
0
LINE
8
BLACK
6
CONTINUOUS
10
5.1459899212598428
20
-3.8210866141732285
11
5.1430915354330704
21
-3.8224824015748031
0
LINE
8
BLACK
6
CONTINUOUS
10
5.1430915354330704
20
-3.8224824015748031
11
5.1410857874015745
21
-3.824997559055118
0
LINE
8
BLACK
6
CONTINUOUS
10
5.1410857874015745
20
-3.824997559055118
11
5.1403699606299211
21
-3.8281338582677162
0
LINE
8
BLACK
6
CONTINUOUS
10
5.1403699606299211
20
-3.8281338582677162
11
5.1410857874015745
21
-3.831270157480315
0
LINE
8
BLACK
6
CONTINUOUS
10
5.5109528346456695
20
-3.8308569685039369
11
5.5122312598425198
21
-3.8321353937007872
0
LINE
8
BLACK
6
CONTINUOUS
10
5.5122312598425198
20
-3.8321353937007872
11
5.5122312598425198
21
-3.8339433464566928
0
LINE
8
BLACK
6
CONTINUOUS
10
5.5122312598425198
20
-3.8339433464566928
11
5.5109528346456695
21
-3.8352217716535431
0
LINE
8
BLACK
6
CONTINUOUS
10
5.5109528346456695
20
-3.8352217716535431
11
5.4979511417322833
21
-3.8354015748031496
0
LINE
8
BLACK
6
CONTINUOUS
10
5.4979511417322833
20
-3.8354015748031496
11
5.4970471653543305
21
-3.8352217716535431
0
LINE
8
BLACK
6
CONTINUOUS
10
5.4970471653543305
20
-3.8352217716535431
11
5.4957687401574802
21
-3.8339433464566928
0
LINE
8
BLACK
6
CONTINUOUS
10
5.4957687401574802
20
-3.8339433464566928
11
5.4957687401574802
21
-3.8321353937007872
0
LINE
8
BLACK
6
CONTINUOUS
10
5.4957687401574802
20
-3.8321353937007872
11
5.4970471653543305
21
-3.8308569685039369
0
LINE
8
BLACK
6
CONTINUOUS
10
5.4970471653543305
20
-3.8308569685039369
11
5.5100488582677167
21
-3.8306771653543308
0
LINE
8
BLACK
6
CONTINUOUS
10
5.5100488582677167
20
-3.8306771653543308
11
5.5109528346456695
21
-3.8308569685039369
0
LINE
8
BLACK
6
CONTINUOUS
10
5.6219528346456693
20
-3.8288569685039371
11
5.6232312598425196
21
-3.8301353937007874
0
LINE
8
BLACK
6
CONTINUOUS
10
5.6232312598425196
20
-3.8301353937007874
11
5.6232312598425196
21
-3.831943346456693
0
LINE
8
BLACK
6
CONTINUOUS
10
5.6232312598425196
20
-3.831943346456693
11
5.6219528346456693
21
-3.8332217716535433
0
LINE
8
BLACK
6
CONTINUOUS
10
5.6219528346456693
20
-3.8332217716535433
11
5.608951141732283
21
-3.8334015748031494
0
LINE
8
BLACK
6
CONTINUOUS
10
5.608951141732283
20
-3.8334015748031494
11
5.6080471653543302
21
-3.8332217716535433
0
LINE
8
BLACK
6
CONTINUOUS
10
5.6080471653543302
20
-3.8332217716535433
11
5.6067687401574799
21
-3.831943346456693
0
LINE
8
BLACK
6
CONTINUOUS
10
5.6067687401574799
20
-3.831943346456693
11
5.6067687401574799
21
-3.8301353937007874
0
LINE
8
BLACK
6
CONTINUOUS
10
5.6067687401574799
20
-3.8301353937007874
11
5.6080471653543302
21
-3.8288569685039371
0
LINE
8
BLACK
6
CONTINUOUS
10
5.6080471653543302
20
-3.8288569685039371
11
5.6210488582677165
21
-3.8286771653543306
0
LINE
8
BLACK
6
CONTINUOUS
10
5.6210488582677165
20
-3.8286771653543306
11
5.6219528346456693
21
-3.8288569685039371
0
LINE
8
BLACK
6
CONTINUOUS
10
5.4120091732283466
20
-3.8188505118110236
11
5.4121889763779523
21
-3.8282455118110237
0
LINE
8
BLACK
6
CONTINUOUS
10
5.4121889763779523
20
-3.8282455118110237
11
5.4120091732283466
21
-3.8291494881889765
0
LINE
8
BLACK
6
CONTINUOUS
10
5.4120091732283466
20
-3.8291494881889765
11
5.4107307480314963
21
-3.8304279133858268
0
LINE
8
BLACK
6
CONTINUOUS
10
5.4107307480314963
20
-3.8304279133858268
11
5.4089227952755907
21
-3.8304279133858268
0
LINE
8
BLACK
6
CONTINUOUS
10
5.4089227952755907
20
-3.8304279133858268
11
5.4076443700787404
21
-3.8291494881889765
0
LINE
8
BLACK
6
CONTINUOUS
10
5.4076443700787404
20
-3.8291494881889765
11
5.4074645669291339
21
-3.8197544881889764
0
LINE
8
BLACK
6
CONTINUOUS
10
5.4074645669291339
20
-3.8197544881889764
11
5.4076443700787404
21
-3.8188505118110236
0
LINE
8
BLACK
6
CONTINUOUS
10
5.4076443700787404
20
-3.8188505118110236
11
5.4089227952755907
21
-3.8175720866141734
0
LINE
8
BLACK
6
CONTINUOUS
10
5.4089227952755907
20
-3.8175720866141734
11
5.4107307480314963
21
-3.8175720866141734
0
LINE
8
BLACK
6
CONTINUOUS
10
5.4107307480314963
20
-3.8175720866141734
11
5.4120091732283466
21
-3.8188505118110236
0
LINE
8
BLACK
6
CONTINUOUS
10
5.4403556299212594
20
-3.8188505118110236
11
5.440535433070866
21
-3.8282455118110237
0
LINE
8
BLACK
6
CONTINUOUS
10
5.440535433070866
20
-3.8282455118110237
11
5.4403556299212594
21
-3.8291494881889765
0
LINE
8
BLACK
6
CONTINUOUS
10
5.4403556299212594
20
-3.8291494881889765
11
5.4390772047244091
21
-3.8304279133858268
0
LINE
8
BLACK
6
CONTINUOUS
10
5.4390772047244091
20
-3.8304279133858268
11
5.4372692519685035
21
-3.8304279133858268
0
LINE
8
BLACK
6
CONTINUOUS
10
5.4372692519685035
20
-3.8304279133858268
11
5.4359908267716532
21
-3.8291494881889765
0
LINE
8
BLACK
6
CONTINUOUS
10
5.4359908267716532
20
-3.8291494881889765
11
5.4358110236220467
21
-3.8197544881889764
0
LINE
8
BLACK
6
CONTINUOUS
10
5.4358110236220467
20
-3.8197544881889764
11
5.4359908267716532
21
-3.8188505118110236
0
LINE
8
BLACK
6
CONTINUOUS
10
5.4359908267716532
20
-3.8188505118110236
11
5.4372692519685035
21
-3.8175720866141734
0
LINE
8
BLACK
6
CONTINUOUS
10
5.4372692519685035
20
-3.8175720866141734
11
5.4390772047244091
21
-3.8175720866141734
0
LINE
8
BLACK
6
CONTINUOUS
10
5.4390772047244091
20
-3.8175720866141734
11
5.4403556299212594
21
-3.8188505118110236
0
LINE
8
BLACK
6
CONTINUOUS
10
5.7385646456692916
20
-3.7915885433070864
11
5.7395951574803146
21
-3.7921038188976377
0
LINE
8
BLACK
6
CONTINUOUS
10
5.7395951574803146
20
-3.7921038188976377
11
5.7403500000000003
21
-3.7929741732283464
0
LINE
8
BLACK
6
CONTINUOUS
10
5.7403500000000003
20
-3.7929741732283464
11
5.740714330708661
21
-3.7940671653543308
0
LINE
8
BLACK
6
CONTINUOUS
10
5.740714330708661
20
-3.7940671653543308
11
5.7406326771653546
21
-3.7952163779527557
0
LINE
8
BLACK
6
CONTINUOUS
10
5.7406326771653546
20
-3.7952163779527557
11
5.7385510236220467
21
-3.7995064960629921
0
LINE
8
BLACK
6
CONTINUOUS
10
5.7385510236220467
20
-3.7995064960629921
11
5.7383949999999997
21
-3.7997542913385827
0
LINE
8
BLACK
6
CONTINUOUS
10
5.7383949999999997
20
-3.7997542913385827
11
5.7383651574803149
21
-3.7998264566929132
0
LINE
8
BLACK
6
CONTINUOUS
10
5.7383651574803149
20
-3.7998264566929132
11
5.7383218110236216
21
-3.7998706299212599
0
LINE
8
BLACK
6
CONTINUOUS
10
5.7383218110236216
20
-3.7998706299212599
11
5.7382426771653545
21
-3.7999963779527559
0
LINE
8
BLACK
6
CONTINUOUS
10
5.7382426771653545
20
-3.7999963779527559
11
5.7379466929133853
21
-3.8002530314960627
0
LINE
8
BLACK
6
CONTINUOUS
10
5.7379466929133853
20
-3.8002530314960627
11
5.7354724409448821
21
-3.8027754724409446
0
LINE
8
BLACK
6
CONTINUOUS
10
5.7354724409448821
20
-3.8027754724409446
11
5.7629738976377949
21
-3.8027364173228344
0
LINE
8
BLACK
6
CONTINUOUS
10
5.7629738976377949
20
-3.8027364173228344
11
5.7629535039370081
21
-3.7944364566929134
0
LINE
8
BLACK
6
CONTINUOUS
10
5.7629535039370081
20
-3.7944364566929134
11
5.763010236220472
21
-3.7938603937007875
0
LINE
8
BLACK
6
CONTINUOUS
10
5.763010236220472
20
-3.7938603937007875
11
5.7634511417322836
21
-3.7927959842519683
0
LINE
8
BLACK
6
CONTINUOUS
10
5.7634511417322836
20
-3.7927959842519683
11
5.764265787401575
21
-3.7919813385826773
0
LINE
8
BLACK
6
CONTINUOUS
10
5.764265787401575
20
-3.7919813385826773
11
5.7653301968503934
21
-3.7915404330708662
0
LINE
8
BLACK
6
CONTINUOUS
10
5.7653301968503934
20
-3.7915404330708662
11
5.7664823228346451
21
-3.7915404330708662
0
LINE
8
BLACK
6
CONTINUOUS
10
5.7664823228346451
20
-3.7915404330708662
11
5.7675467322834644
21
-3.7919813385826773
0
LINE
8
BLACK
6
CONTINUOUS
10
5.7675467322834644
20
-3.7919813385826773
11
5.7683613779527558
21
-3.7927959842519683
0
LINE
8
BLACK
6
CONTINUOUS
10
5.7683613779527558
20
-3.7927959842519683
11
5.7688022834645665
21
-3.7938603937007875
0
LINE
8
BLACK
6
CONTINUOUS
10
5.7688022834645665
20
-3.7938603937007875
11
5.7688590157480313
21
-3.8169336220472441
0
LINE
8
BLACK
6
CONTINUOUS
10
5.7688590157480313
20
-3.8169336220472441
11
5.7688022834645665
21
-3.8175096850393699
0
LINE
8
BLACK
6
CONTINUOUS
10
5.7688022834645665
20
-3.8175096850393699
11
5.7683613779527558
21
-3.8185740944881887
0
LINE
8
BLACK
6
CONTINUOUS
10
5.7683613779527558
20
-3.8185740944881887
11
5.7675467322834644
21
-3.8193887401574802
0
LINE
8
BLACK
6
CONTINUOUS
10
5.7675467322834644
20
-3.8193887401574802
11
5.7664823228346451
21
-3.8198296456692913
0
LINE
8
BLACK
6
CONTINUOUS
10
5.7664823228346451
20
-3.8198296456692913
11
5.7653301968503934
21
-3.8198296456692913
0
LINE
8
BLACK
6
CONTINUOUS
10
5.7653301968503934
20
-3.8198296456692913
11
5.764265787401575
21
-3.8193887401574802
0
LINE
8
BLACK
6
CONTINUOUS
10
5.764265787401575
20
-3.8193887401574802
11
5.7634511417322836
21
-3.8185740944881887
0
LINE
8
BLACK
6
CONTINUOUS
10
5.7634511417322836
20
-3.8185740944881887
11
5.763010236220472
21
-3.8175096850393699
0
LINE
8
BLACK
6
CONTINUOUS
10
5.763010236220472
20
-3.8175096850393699
11
5.7629882677165352
21
-3.808586023622047
0
LINE
8
BLACK
6
CONTINUOUS
10
5.7629882677165352
20
-3.808586023622047
11
5.7265361811023618
21
-3.8086377952755903
0
LINE
8
BLACK
6
CONTINUOUS
10
5.7265361811023618
20
-3.8086377952755903
11
5.7265340944881888
21
-3.8086375590551178
0
LINE
8
BLACK
6
CONTINUOUS
10
5.7265340944881888
20
-3.8086375590551178
11
5.7265330708661413
21
-3.8086377952755903
0
LINE
8
BLACK
6
CONTINUOUS
10
5.7265330708661413
20
-3.8086377952755903
11
5.7265300393700782
21
-3.8086371653543307
0
LINE
8
BLACK
6
CONTINUOUS
10
5.7265300393700782
20
-3.8086371653543307
11
5.725960118110236
21
-3.808581062992126
0
LINE
8
BLACK
6
CONTINUOUS
10
5.725960118110236
20
-3.808581062992126
11
5.7256900000000002
21
-3.8084691732283464
0
LINE
8
BLACK
6
CONTINUOUS
10
5.7256900000000002
20
-3.8084691732283464
11
5.7254033858267714
21
-3.8084118503937008
0
LINE
8
BLACK
6
CONTINUOUS
10
5.7254033858267714
20
-3.8084118503937008
11
5.7251629921259841
21
-3.8082508661417322
0
LINE
8
BLACK
6
CONTINUOUS
10
5.7251629921259841
20
-3.8082508661417322
11
5.7248957086614176
21
-3.8081401574803149
0
LINE
8
BLACK
6
CONTINUOUS
10
5.7248957086614176
20
-3.8081401574803149
11
5.7246889763779523
21
-3.8079334251968504
0
LINE
8
BLACK
6
CONTINUOUS
10
5.7246889763779523
20
-3.8079334251968504
11
5.7244461023622044
21
-3.8077707874015747
0
LINE
8
BLACK
6
CONTINUOUS
10
5.7244461023622044
20
-3.8077707874015747
11
5.7242855905511814
21
-3.8075300393700786
0
LINE
8
BLACK
6
CONTINUOUS
10
5.7242855905511814
20
-3.8075300393700786
11
5.7240810629921262
21
-3.8073255118110234
0
LINE
8
BLACK
6
CONTINUOUS
10
5.7240810629921262
20
-3.8073255118110234
11
5.7239691732283466
21
-3.8070553937007872
0
LINE
8
BLACK
6
CONTINUOUS
10
5.7239691732283466
20
-3.8070553937007872
11
5.723807007874016
21
-3.8068121653543305
0
LINE
8
BLACK
6
CONTINUOUS
10
5.723807007874016
20
-3.8068121653543305
11
5.7237508661417325
21
-3.8065283464566928
0
LINE
8
BLACK
6
CONTINUOUS
10
5.7237508661417325
20
-3.8065283464566928
11
5.7236401574803146
21
-3.8062611023622046
0
LINE
8
BLACK
6
CONTINUOUS
10
5.7236401574803146
20
-3.8062611023622046
11
5.7236401574803146
21
-3.8059687007874015
0
LINE
8
BLACK
6
CONTINUOUS
10
5.7236401574803146
20
-3.8059687007874015
11
5.7235834251968507
21
-3.8056819291338582
0
LINE
8
BLACK
6
CONTINUOUS
10
5.7235834251968507
20
-3.8056819291338582
11
5.7236401574803146
21
-3.8053982677165354
0
LINE
8
BLACK
6
CONTINUOUS
10
5.7236401574803146
20
-3.8053982677165354
11
5.7236401574803146
21
-3.8051089763779529
0
LINE
8
BLACK
6
CONTINUOUS
10
5.7236401574803146
20
-3.8051089763779529
11
5.7237520078740154
21
-3.8048388582677166
0
LINE
8
BLACK
6
CONTINUOUS
10
5.7237520078740154
20
-3.8048388582677166
11
5.7238093700787402
21
-3.8045522440944879
0
LINE
8
BLACK
6
CONTINUOUS
10
5.7238093700787402
20
-3.8045522440944879
11
5.7239703149606296
21
-3.8043118503937006
0
LINE
8
BLACK
6
CONTINUOUS
10
5.7239703149606296
20
-3.8043118503937006
11
5.7240810629921262
21
-3.8040445669291336
0
LINE
8
BLACK
6
CONTINUOUS
10
5.7240810629921262
20
-3.8040445669291336
11
5.7242877559055119
21
-3.8038378346456692
0
LINE
8
BLACK
6
CONTINUOUS
10
5.7242877559055119
20
-3.8038378346456692
11
5.7244504330708663
21
-3.8035949606299213
0
LINE
8
BLACK
6
CONTINUOUS
10
5.7244504330708663
20
-3.8035949606299213
11
5.7246995275590553
21
-3.8034260629921257
0
LINE
8
BLACK
6
CONTINUOUS
10
5.7246995275590553
20
-3.8034260629921257
11
5.7248957086614176
21
-3.8032299212598426
0
LINE
8
BLACK
6
CONTINUOUS
10
5.7248957086614176
20
-3.8032299212598426
11
5.7251353543307086
21
-3.8031306299212599
0
LINE
8
BLACK
6
CONTINUOUS
10
5.7251353543307086
20
-3.8031306299212599
11
5.7304734251968501
21
-3.7995119685039369
0
LINE
8
BLACK
6
CONTINUOUS
10
5.7304734251968501
20
-3.7995119685039369
11
5.73357405511811
21
-3.7963509055118108
0
LINE
8
BLACK
6
CONTINUOUS
10
5.73357405511811
20
-3.7963509055118108
11
5.7351437401574801
21
-3.7931159448818899
0
LINE
8
BLACK
6
CONTINUOUS
10
5.7351437401574801
20
-3.7931159448818899
11
5.7354520866141732
21
-3.792626062992126
0
LINE
8
BLACK
6
CONTINUOUS
10
5.7354520866141732
20
-3.792626062992126
11
5.7363224803149606
21
-3.7918712204724407
0
LINE
8
BLACK
6
CONTINUOUS
10
5.7363224803149606
20
-3.7918712204724407
11
5.7374154330708658
21
-3.7915068897637796
0
LINE
8
BLACK
6
CONTINUOUS
10
5.7374154330708658
20
-3.7915068897637796
11
5.7385646456692916
21
-3.7915885433070864
0
LINE
8
BLACK
6
CONTINUOUS
10
5.2577543700787404
20
-3.7998254724409448
11
5.2590327952755906
21
-3.8011038976377951
0
LINE
8
BLACK
6
CONTINUOUS
10
5.2590327952755906
20
-3.8011038976377951
11
5.2590327952755906
21
-3.8029118503937007
0
LINE
8
BLACK
6
CONTINUOUS
10
5.2590327952755906
20
-3.8029118503937007
11
5.2577543700787404
21
-3.804190275590551
0
LINE
8
BLACK
6
CONTINUOUS
10
5.2577543700787404
20
-3.804190275590551
11
5.2492442913385826
21
-3.8043326377952753
0
LINE
8
BLACK
6
CONTINUOUS
10
5.2492442913385826
20
-3.8043326377952753
11
5.2493700787401574
21
-3.8118503937007873
0
LINE
8
BLACK
6
CONTINUOUS
10
5.2493700787401574
20
-3.8118503937007873
11
5.2491902755905508
21
-3.8127543700787401
0
LINE
8
BLACK
6
CONTINUOUS
10
5.2491902755905508
20
-3.8127543700787401
11
5.2479118503937006
21
-3.8140327952755904
0
LINE
8
BLACK
6
CONTINUOUS
10
5.2479118503937006
20
-3.8140327952755904
11
5.2461038976377949
21
-3.8140327952755904
0
LINE
8
BLACK
6
CONTINUOUS
10
5.2461038976377949
20
-3.8140327952755904
11
5.2448254724409447
21
-3.8127543700787401
0
LINE
8
BLACK
6
CONTINUOUS
10
5.2448254724409447
20
-3.8127543700787401
11
5.2446456692913381
21
-3.8020078740157479
0
LINE
8
BLACK
6
CONTINUOUS
10
5.2446456692913381
20
-3.8020078740157479
11
5.2448254724409447
21
-3.8011038976377951
0
LINE
8
BLACK
6
CONTINUOUS
10
5.2448254724409447
20
-3.8011038976377951
11
5.2461038976377949
21
-3.7998254724409448
0
LINE
8
BLACK
6
CONTINUOUS
10
5.2461038976377949
20
-3.7998254724409448
11
5.2568503937007875
21
-3.7996456692913383
0
LINE
8
BLACK
6
CONTINUOUS
10
5.2568503937007875
20
-3.7996456692913383
11
5.2577543700787404
21
-3.7998254724409448
0
LINE
8
BLACK
6
CONTINUOUS
10
5.3738961023622043
20
-3.7998254724409448
11
5.3751745275590546
21
-3.8011038976377951
0
LINE
8
BLACK
6
CONTINUOUS
10
5.3751745275590546
20
-3.8011038976377951
11
5.3753543307086611
21
-3.8118503937007873
0
LINE
8
BLACK
6
CONTINUOUS
10
5.3753543307086611
20
-3.8118503937007873
11
5.3751745275590546
21
-3.8127543700787401
0
LINE
8
BLACK
6
CONTINUOUS
10
5.3751745275590546
20
-3.8127543700787401
11
5.3738961023622043
21
-3.8140327952755904
0
LINE
8
BLACK
6
CONTINUOUS
10
5.3738961023622043
20
-3.8140327952755904
11
5.3720881496062987
21
-3.8140327952755904
0
LINE
8
BLACK
6
CONTINUOUS
10
5.3720881496062987
20
-3.8140327952755904
11
5.3708097244094484
21
-3.8127543700787401
0
LINE
8
BLACK
6
CONTINUOUS
10
5.3708097244094484
20
-3.8127543700787401
11
5.3706673228346453
21
-3.8042442913385828
0
LINE
8
BLACK
6
CONTINUOUS
10
5.3706673228346453
20
-3.8042442913385828
11
5.3631496062992126
21
-3.8043700787401575
0
LINE
8
BLACK
6
CONTINUOUS
10
5.3631496062992126
20
-3.8043700787401575
11
5.3622456299212597
21
-3.804190275590551
0
LINE
8
BLACK
6
CONTINUOUS
10
5.3622456299212597
20
-3.804190275590551
11
5.3609672047244095
21
-3.8029118503937007
0
LINE
8
BLACK
6
CONTINUOUS
10
5.3609672047244095
20
-3.8029118503937007
11
5.3609672047244095
21
-3.8011038976377951
0
LINE
8
BLACK
6
CONTINUOUS
10
5.3609672047244095
20
-3.8011038976377951
11
5.3622456299212597
21
-3.7998254724409448
0
LINE
8
BLACK
6
CONTINUOUS
10
5.3622456299212597
20
-3.7998254724409448
11
5.3729921259842515
21
-3.7996456692913383
0
LINE
8
BLACK
6
CONTINUOUS
10
5.3729921259842515
20
-3.7996456692913383
11
5.3738961023622043
21
-3.7998254724409448
0
LINE
8
BLACK
6
CONTINUOUS
10
5.138958070866142
20
-3.7615783858267715
11
5.1400224803149603
21
-3.7620192913385826
0
LINE
8
BLACK
6
CONTINUOUS
10
5.1400224803149603
20
-3.7620192913385826
11
5.1408371259842518
21
-3.7628339370078741
0
LINE
8
BLACK
6
CONTINUOUS
10
5.1408371259842518
20
-3.7628339370078741
11
5.1412780314960624
21
-3.7638983464566929
0
LINE
8
BLACK
6
CONTINUOUS
10
5.1412780314960624
20
-3.7638983464566929
11
5.1412780314960624
21
-3.7650504724409446
0
LINE
8
BLACK
6
CONTINUOUS
10
5.1412780314960624
20
-3.7650504724409446
11
5.1408371259842518
21
-3.7661148818897638
0
LINE
8
BLACK
6
CONTINUOUS
10
5.1408371259842518
20
-3.7661148818897638
11
5.1400224803149603
21
-3.7669295275590549
0
LINE
8
BLACK
6
CONTINUOUS
10
5.1400224803149603
20
-3.7669295275590549
11
5.138958070866142
21
-3.7673704330708659
0
LINE
8
BLACK
6
CONTINUOUS
10
5.138958070866142
20
-3.7673704330708659
11
5.1228348425196852
21
-3.7674127952755905
0
LINE
8
BLACK
6
CONTINUOUS
10
5.1228348425196852
20
-3.7674127952755905
11
5.140838858267716
21
-3.7943325984251968
0
LINE
8
BLACK
6
CONTINUOUS
10
5.140838858267716
20
-3.7943325984251968
11
5.141111181102362
21
-3.7948433858267716
0
LINE
8
BLACK
6
CONTINUOUS
10
5.141111181102362
20
-3.7948433858267716
11
5.1411672834645668
21
-3.7951270866141731
0
LINE
8
BLACK
6
CONTINUOUS
10
5.1411672834645668
20
-3.7951270866141731
11
5.1412780314960624
21
-3.7953944094488188
0
LINE
8
BLACK
6
CONTINUOUS
10
5.1412780314960624
20
-3.7953944094488188
11
5.1412780314960624
21
-3.7956867716535432
0
LINE
8
BLACK
6
CONTINUOUS
10
5.1412780314960624
20
-3.7956867716535432
11
5.1413347637795273
21
-3.7959735826771652
0
LINE
8
BLACK
6
CONTINUOUS
10
5.1413347637795273
20
-3.7959735826771652
11
5.1412780314960624
21
-3.7962572440944879
0
LINE
8
BLACK
6
CONTINUOUS
10
5.1412780314960624
20
-3.7962572440944879
11
5.1412780314960624
21
-3.796546535433071
0
LINE
8
BLACK
6
CONTINUOUS
10
5.1412780314960624
20
-3.796546535433071
11
5.1411661417322829
21
-3.7968166141732285
0
LINE
8
BLACK
6
CONTINUOUS
10
5.1411661417322829
20
-3.7968166141732285
11
5.1411088188976377
21
-3.7971033070866143
0
LINE
8
BLACK
6
CONTINUOUS
10
5.1411088188976377
20
-3.7971033070866143
11
5.1409477952755909
21
-3.7973437007874016
0
LINE
8
BLACK
6
CONTINUOUS
10
5.1409477952755909
20
-3.7973437007874016
11
5.1408371259842518
21
-3.7976109448818898
0
LINE
8
BLACK
6
CONTINUOUS
10
5.1408371259842518
20
-3.7976109448818898
11
5.1406304724409448
21
-3.797817559055118
0
LINE
8
BLACK
6
CONTINUOUS
10
5.1406304724409448
20
-3.797817559055118
11
5.1404677559055116
21
-3.7980605905511808
0
LINE
8
BLACK
6
CONTINUOUS
10
5.1404677559055116
20
-3.7980605905511808
11
5.140226929133858
21
-3.7982211023622048
0
LINE
8
BLACK
6
CONTINUOUS
10
5.140226929133858
20
-3.7982211023622048
11
5.1400224803149603
21
-3.7984255905511812
0
LINE
8
BLACK
6
CONTINUOUS
10
5.1400224803149603
20
-3.7984255905511812
11
5.1397524015748033
21
-3.798537440944882
0
LINE
8
BLACK
6
CONTINUOUS
10
5.1397524015748033
20
-3.798537440944882
11
5.1395091338582679
21
-3.7986996456692914
0
LINE
8
BLACK
6
CONTINUOUS
10
5.1395091338582679
20
-3.7986996456692914
11
5.1392253149606297
21
-3.7987557480314962
0
LINE
8
BLACK
6
CONTINUOUS
10
5.1392253149606297
20
-3.7987557480314962
11
5.138958070866142
21
-3.7988664960629919
0
LINE
8
BLACK
6
CONTINUOUS
10
5.138958070866142
20
-3.7988664960629919
11
5.138661732283464
21
-3.7988672440944882
0
LINE
8
BLACK
6
CONTINUOUS
10
5.138661732283464
20
-3.7988672440944882
11
5.1383788976377955
21
-3.7989232283464567
0
LINE
8
BLACK
6
CONTINUOUS
10
5.1383788976377955
20
-3.7989232283464567
11
5.1381064173228346
21
-3.7988687007874016
0
LINE
8
BLACK
6
CONTINUOUS
10
5.1381064173228346
20
-3.7988687007874016
11
5.1173846062992121
21
-3.7989232283464567
0
LINE
8
BLACK
6
CONTINUOUS
10
5.1173846062992121
20
-3.7989232283464567
11
5.1168085433070862
21
-3.7988664960629919
0
LINE
8
BLACK
6
CONTINUOUS
10
5.1168085433070862
20
-3.7988664960629919
11
5.1157441338582679
21
-3.7984255905511812
0
LINE
8
BLACK
6
CONTINUOUS
10
5.1157441338582679
20
-3.7984255905511812
11
5.1149294881889764
21
-3.7976109448818898
0
LINE
8
BLACK
6
CONTINUOUS
10
5.1149294881889764
20
-3.7976109448818898
11
5.1144885826771649
21
-3.796546535433071
0
LINE
8
BLACK
6
CONTINUOUS
10
5.1144885826771649
20
-3.796546535433071
11
5.1144885826771649
21
-3.7953944094488188
0
LINE
8
BLACK
6
CONTINUOUS
10
5.1144885826771649
20
-3.7953944094488188
11
5.1149294881889764
21
-3.79433
0
LINE
8
BLACK
6
CONTINUOUS
10
5.1149294881889764
20
-3.79433
11
5.1157441338582679
21
-3.7935153543307085
0
LINE
8
BLACK
6
CONTINUOUS
10
5.1157441338582679
20
-3.7935153543307085
11
5.1168085433070862
21
-3.7930744488188974
0
LINE
8
BLACK
6
CONTINUOUS
10
5.1168085433070862
20
-3.7930744488188974
11
5.1329317322834642
21
-3.7930320472440946
0
LINE
8
BLACK
6
CONTINUOUS
10
5.1329317322834642
20
-3.7930320472440946
11
5.1149277559055113
21
-3.7661123228346454
0
LINE
8
BLACK
6
CONTINUOUS
10
5.1149277559055113
20
-3.7661123228346454
11
5.1146554330708662
21
-3.765601535433071
0
LINE
8
BLACK
6
CONTINUOUS
10
5.1146554330708662
20
-3.765601535433071
11
5.1145992913385827
21
-3.7653177165354328
0
LINE
8
BLACK
6
CONTINUOUS
10
5.1145992913385827
20
-3.7653177165354328
11
5.1144885826771649
21
-3.7650504724409446
0
LINE
8
BLACK
6
CONTINUOUS
10
5.1144885826771649
20
-3.7650504724409446
11
5.1144885826771649
21
-3.7647580708661414
0
LINE
8
BLACK
6
CONTINUOUS
10
5.1144885826771649
20
-3.7647580708661414
11
5.114431850393701
21
-3.7644712992125982
0
LINE
8
BLACK
6
CONTINUOUS
10
5.114431850393701
20
-3.7644712992125982
11
5.1144885826771649
21
-3.7641876377952754
0
LINE
8
BLACK
6
CONTINUOUS
10
5.1144885826771649
20
-3.7641876377952754
11
5.1144885826771649
21
-3.7638983464566929
0
LINE
8
BLACK
6
CONTINUOUS
10
5.1144885826771649
20
-3.7638983464566929
11
5.1146004330708656
21
-3.7636282283464566
0
LINE
8
BLACK
6
CONTINUOUS
10
5.1146004330708656
20
-3.7636282283464566
11
5.1146577952755905
21
-3.7633416141732283
0
LINE
8
BLACK
6
CONTINUOUS
10
5.1146577952755905
20
-3.7633416141732283
11
5.1148187401574798
21
-3.763101220472441
0
LINE
8
BLACK
6
CONTINUOUS
10
5.1148187401574798
20
-3.763101220472441
11
5.1149294881889764
21
-3.7628339370078741
0
LINE
8
BLACK
6
CONTINUOUS
10
5.1149294881889764
20
-3.7628339370078741
11
5.1151361811023621
21
-3.7626272047244091
0
LINE
8
BLACK
6
CONTINUOUS
10
5.1151361811023621
20
-3.7626272047244091
11
5.1152988582677166
21
-3.7623843307086613
0
LINE
8
BLACK
6
CONTINUOUS
10
5.1152988582677166
20
-3.7623843307086613
11
5.1155395669291339
21
-3.7622238188976378
0
LINE
8
BLACK
6
CONTINUOUS
10
5.1155395669291339
20
-3.7622238188976378
11
5.1157441338582679
21
-3.7620192913385826
0
LINE
8
BLACK
6
CONTINUOUS
10
5.1157441338582679
20
-3.7620192913385826
11
5.1160142125984249
21
-3.7619074015748031
0
LINE
8
BLACK
6
CONTINUOUS
10
5.1160142125984249
20
-3.7619074015748031
11
5.1162574803149603
21
-3.7617452362204724
0
LINE
8
BLACK
6
CONTINUOUS
10
5.1162574803149603
20
-3.7617452362204724
11
5.1165412598425197
21
-3.7616890944881889
0
LINE
8
BLACK
6
CONTINUOUS
10
5.1165412598425197
20
-3.7616890944881889
11
5.1168085433070862
21
-3.7615783858267715
0
LINE
8
BLACK
6
CONTINUOUS
10
5.1168085433070862
20
-3.7615783858267715
11
5.1171048425196846
21
-3.7615775984251969
0
LINE
8
BLACK
6
CONTINUOUS
10
5.1171048425196846
20
-3.7615775984251969
11
5.1173877165354327
21
-3.7615216535433071
0
LINE
8
BLACK
6
CONTINUOUS
10
5.1173877165354327
20
-3.7615216535433071
11
5.1176601574803149
21
-3.7615761417322835
0
LINE
8
BLACK
6
CONTINUOUS
10
5.1176601574803149
20
-3.7615761417322835
11
5.1383820078740152
21
-3.7615216535433071
0
LINE
8
BLACK
6
CONTINUOUS
10
5.1383820078740152
20
-3.7615216535433071
11
5.138958070866142
21
-3.7615783858267715
0
LINE
8
BLACK
6
CONTINUOUS
10
5.2085005118110237
20
-3.7617452362204724
11
5.2094591338582674
21
-3.7623842913385825
0
LINE
8
BLACK
6
CONTINUOUS
10
5.2094591338582674
20
-3.7623842913385825
11
5.2101001968503935
21
-3.7633415748031496
0
LINE
8
BLACK
6
CONTINUOUS
10
5.2101001968503935
20
-3.7633415748031496
11
5.210326141732283
21
-3.7644712992125982
0
LINE
8
BLACK
6
CONTINUOUS
10
5.210326141732283
20
-3.7644712992125982
11
5.2101025590551178
21
-3.7656014960629922
0
LINE
8
BLACK
6
CONTINUOUS
10
5.2101025590551178
20
-3.7656014960629922
11
5.2003898425196846
21
-3.7802172440944881
0
LINE
8
BLACK
6
CONTINUOUS
10
5.2003898425196846
20
-3.7802172440944881
11
5.2098302362204727
21
-3.7943325984251968
0
LINE
8
BLACK
6
CONTINUOUS
10
5.2098302362204727
20
-3.7943325984251968
11
5.2101025590551178
21
-3.7948433858267716
0
LINE
8
BLACK
6
CONTINUOUS
10
5.2101025590551178
20
-3.7948433858267716
11
5.210326141732283
21
-3.7959735826771652
0
LINE
8
BLACK
6
CONTINUOUS
10
5.210326141732283
20
-3.7959735826771652
11
5.2101001968503935
21
-3.7971033070866143
0
LINE
8
BLACK
6
CONTINUOUS
10
5.2101001968503935
20
-3.7971033070866143
11
5.2094591338582674
21
-3.7980605905511808
0
LINE
8
BLACK
6
CONTINUOUS
10
5.2094591338582674
20
-3.7980605905511808
11
5.2085005118110237
21
-3.7986996456692914
0
LINE
8
BLACK
6
CONTINUOUS
10
5.2085005118110237
20
-3.7986996456692914
11
5.2073702755905513
21
-3.7989232283464567
0
LINE
8
BLACK
6
CONTINUOUS
10
5.2073702755905513
20
-3.7989232283464567
11
5.2062405905511806
21
-3.7986972834645667
0
LINE
8
BLACK
6
CONTINUOUS
10
5.2062405905511806
20
-3.7986972834645667
11
5.2052833070866145
21
-3.7980562204724411
0
LINE
8
BLACK
6
CONTINUOUS
10
5.2052833070866145
20
-3.7980562204724411
11
5.1968824409448819
21
-3.7854951968503938
0
LINE
8
BLACK
6
CONTINUOUS
10
5.1968824409448819
20
-3.7854951968503938
11
5.1888328346456696
21
-3.7976083858267717
0
LINE
8
BLACK
6
CONTINUOUS
10
5.1888328346456696
20
-3.7976083858267717
11
5.1884660629921262
21
-3.7980562204724411
0
LINE
8
BLACK
6
CONTINUOUS
10
5.1884660629921262
20
-3.7980562204724411
11
5.1875087795275592
21
-3.7986972834645667
0
LINE
8
BLACK
6
CONTINUOUS
10
5.1875087795275592
20
-3.7986972834645667
11
5.1863790944881885
21
-3.7989232283464567
0
LINE
8
BLACK
6
CONTINUOUS
10
5.1863790944881885
20
-3.7989232283464567
11
5.1852488582677161
21
-3.7986996456692914
0
LINE
8
BLACK
6
CONTINUOUS
10
5.1852488582677161
20
-3.7986996456692914
11
5.1842902362204724
21
-3.7980605511811021
0
LINE
8
BLACK
6
CONTINUOUS
10
5.1842902362204724
20
-3.7980605511811021
11
5.1836491732283463
21
-3.7971032677165355
0
LINE
8
BLACK
6
CONTINUOUS
10
5.1836491732283463
20
-3.7971032677165355
11
5.1834232283464567
21
-3.7959735826771652
0
LINE
8
BLACK
6
CONTINUOUS
10
5.1834232283464567
20
-3.7959735826771652
11
5.183646811023622
21
-3.7948433464566929
0
LINE
8
BLACK
6
CONTINUOUS
10
5.183646811023622
20
-3.7948433464566929
11
5.1933594881889764
21
-3.780227598425197
0
LINE
8
BLACK
6
CONTINUOUS
10
5.1933594881889764
20
-3.780227598425197
11
5.183919133858268
21
-3.7661123228346454
0
LINE
8
BLACK
6
CONTINUOUS
10
5.183919133858268
20
-3.7661123228346454
11
5.183646811023622
21
-3.765601535433071
0
LINE
8
BLACK
6
CONTINUOUS
10
5.183646811023622
20
-3.765601535433071
11
5.1834232283464567
21
-3.7644712992125982
0
LINE
8
BLACK
6
CONTINUOUS
10
5.1834232283464567
20
-3.7644712992125982
11
5.1836491732283463
21
-3.7633416141732283
0
LINE
8
BLACK
6
CONTINUOUS
10
5.1836491732283463
20
-3.7633416141732283
11
5.1842902362204724
21
-3.7623843307086613
0
LINE
8
BLACK
6
CONTINUOUS
10
5.1842902362204724
20
-3.7623843307086613
11
5.1852488582677161
21
-3.7617452362204724
0
LINE
8
BLACK
6
CONTINUOUS
10
5.1852488582677161
20
-3.7617452362204724
11
5.1863790944881885
21
-3.7615216535433071
0
LINE
8
BLACK
6
CONTINUOUS
10
5.1863790944881885
20
-3.7615216535433071
11
5.1875087795275592
21
-3.7617475984251967
0
LINE
8
BLACK
6
CONTINUOUS
10
5.1875087795275592
20
-3.7617475984251967
11
5.1884660629921262
21
-3.7623886614173228
0
LINE
8
BLACK
6
CONTINUOUS
10
5.1884660629921262
20
-3.7623886614173228
11
5.1968668897637791
21
-3.7749496456692913
0
LINE
8
BLACK
6
CONTINUOUS
10
5.1968668897637791
20
-3.7749496456692913
11
5.2049165354330711
21
-3.7628364960629921
0
LINE
8
BLACK
6
CONTINUOUS
10
5.2049165354330711
20
-3.7628364960629921
11
5.2052833070866145
21
-3.7623886614173228
0
LINE
8
BLACK
6
CONTINUOUS
10
5.2052833070866145
20
-3.7623886614173228
11
5.2062405905511806
21
-3.7617475984251967
0
LINE
8
BLACK
6
CONTINUOUS
10
5.2062405905511806
20
-3.7617475984251967
11
5.2073702755905513
21
-3.7615216535433071
0
LINE
8
BLACK
6
CONTINUOUS
10
5.2073702755905513
20
-3.7615216535433071
11
5.2085005118110237
21
-3.7617452362204724
0
LINE
8
BLACK
6
CONTINUOUS
10
5.5674000393700789
20
-3.7942349212598425
11
5.5686784645669292
21
-3.7955133464566928
0
LINE
8
BLACK
6
CONTINUOUS
10
5.5686784645669292
20
-3.7955133464566928
11
5.5686784645669292
21
-3.7973212992125984
0
LINE
8
BLACK
6
CONTINUOUS
10
5.5686784645669292
20
-3.7973212992125984
11
5.5674000393700789
21
-3.7985997244094487
0
LINE
8
BLACK
6
CONTINUOUS
10
5.5674000393700789
20
-3.7985997244094487
11
5.5350000000000001
21
-3.7987795275590552
0
LINE
8
BLACK
6
CONTINUOUS
10
5.5350000000000001
20
-3.7987795275590552
11
5.5341450787401572
21
-3.7986094488188975
0
LINE
8
BLACK
6
CONTINUOUS
10
5.5341450787401572
20
-3.7986094488188975
11
5.5035039370078742
21
-3.7987795275590552
0
LINE
8
BLACK
6
CONTINUOUS
10
5.5035039370078742
20
-3.7987795275590552
11
5.5025999606299214
21
-3.7985997244094487
0
LINE
8
BLACK
6
CONTINUOUS
10
5.5025999606299214
20
-3.7985997244094487
11
5.5013215354330711
21
-3.7973212992125984
0
LINE
8
BLACK
6
CONTINUOUS
10
5.5013215354330711
20
-3.7973212992125984
11
5.5013215354330711
21
-3.7955133464566928
0
LINE
8
BLACK
6
CONTINUOUS
10
5.5013215354330711
20
-3.7955133464566928
11
5.5025999606299214
21
-3.7942349212598425
0
LINE
8
BLACK
6
CONTINUOUS
10
5.5025999606299214
20
-3.7942349212598425
11
5.5350000000000001
21
-3.794055118110236
0
LINE
8
BLACK
6
CONTINUOUS
10
5.5350000000000001
20
-3.794055118110236
11
5.5358548818897635
21
-3.794225157480315
0
LINE
8
BLACK
6
CONTINUOUS
10
5.5358548818897635
20
-3.794225157480315
11
5.5664960629921261
21
-3.794055118110236
0
LINE
8
BLACK
6
CONTINUOUS
10
5.5664960629921261
20
-3.794055118110236
11
5.5674000393700789
21
-3.7942349212598425
0
LINE
8
BLACK
6
CONTINUOUS
10
5.690221771653543
20
-3.7780471653543306
11
5.6904015748031496
21
-3.7910488582677164
0
LINE
8
BLACK
6
CONTINUOUS
10
5.6904015748031496
20
-3.7910488582677164
11
5.690221771653543
21
-3.7919528346456692
0
LINE
8
BLACK
6
CONTINUOUS
10
5.690221771653543
20
-3.7919528346456692
11
5.6889433464566928
21
-3.7932312598425195
0
LINE
8
BLACK
6
CONTINUOUS
10
5.6889433464566928
20
-3.7932312598425195
11
5.6871353937007871
21
-3.7932312598425195
0
LINE
8
BLACK
6
CONTINUOUS
10
5.6871353937007871
20
-3.7932312598425195
11
5.6858569685039368
21
-3.7919528346456692
0
LINE
8
BLACK
6
CONTINUOUS
10
5.6858569685039368
20
-3.7919528346456692
11
5.6856771653543303
21
-3.7789511417322834
0
LINE
8
BLACK
6
CONTINUOUS
10
5.6856771653543303
20
-3.7789511417322834
11
5.6858569685039368
21
-3.7780471653543306
0
LINE
8
BLACK
6
CONTINUOUS
10
5.6858569685039368
20
-3.7780471653543306
11
5.6871353937007871
21
-3.7767687401574803
0
LINE
8
BLACK
6
CONTINUOUS
10
5.6871353937007871
20
-3.7767687401574803
11
5.6889433464566928
21
-3.7767687401574803
0
LINE
8
BLACK
6
CONTINUOUS
10
5.6889433464566928
20
-3.7767687401574803
11
5.690221771653543
21
-3.7780471653543306
0
LINE
8
BLACK
6
CONTINUOUS
10
5.7201430314960628
20
-3.7780471653543306
11
5.7203228346456694
21
-3.7910488582677164
0
LINE
8
BLACK
6
CONTINUOUS
10
5.7203228346456694
20
-3.7910488582677164
11
5.7201430314960628
21
-3.7919528346456692
0
LINE
8
BLACK
6
CONTINUOUS
10
5.7201430314960628
20
-3.7919528346456692
11
5.7188646062992126
21
-3.7932312598425195
0
LINE
8
BLACK
6
CONTINUOUS
10
5.7188646062992126
20
-3.7932312598425195
11
5.7170566535433069
21
-3.7932312598425195
0
LINE
8
BLACK
6
CONTINUOUS
10
5.7170566535433069
20
-3.7932312598425195
11
5.7157782283464567
21
-3.7919528346456692
0
LINE
8
BLACK
6
CONTINUOUS
10
5.7157782283464567
20
-3.7919528346456692
11
5.7155984251968501
21
-3.7789511417322834
0
LINE
8
BLACK
6
CONTINUOUS
10
5.7155984251968501
20
-3.7789511417322834
11
5.7157782283464567
21
-3.7780471653543306
0
LINE
8
BLACK
6
CONTINUOUS
10
5.7157782283464567
20
-3.7780471653543306
11
5.7170566535433069
21
-3.7767687401574803
0
LINE
8
BLACK
6
CONTINUOUS
10
5.7170566535433069
20
-3.7767687401574803
11
5.7188646062992126
21
-3.7767687401574803
0
LINE
8
BLACK
6
CONTINUOUS
10
5.7188646062992126
20
-3.7767687401574803
11
5.7201430314960628
21
-3.7780471653543306
0
LINE
8
BLACK
6
CONTINUOUS
10
5.1749535433070868
20
-3.7810759448818896
11
5.1760179527559051
21
-3.7815168503937007
0
LINE
8
BLACK
6
CONTINUOUS
10
5.1760179527559051
20
-3.7815168503937007
11
5.1768325984251966
21
-3.7823314960629921
0
LINE
8
BLACK
6
CONTINUOUS
10
5.1768325984251966
20
-3.7823314960629921
11
5.1772735039370081
21
-3.7833959055118109
0
LINE
8
BLACK
6
CONTINUOUS
10
5.1772735039370081
20
-3.7833959055118109
11
5.1772735039370081
21
-3.7845480314960631
0
LINE
8
BLACK
6
CONTINUOUS
10
5.1772735039370081
20
-3.7845480314960631
11
5.1768325984251966
21
-3.7856124409448819
0
LINE
8
BLACK
6
CONTINUOUS
10
5.1768325984251966
20
-3.7856124409448819
11
5.1760179527559051
21
-3.7864270866141729
0
LINE
8
BLACK
6
CONTINUOUS
10
5.1760179527559051
20
-3.7864270866141729
11
5.1749535433070868
21
-3.786867992125984
0
LINE
8
BLACK
6
CONTINUOUS
10
5.1749535433070868
20
-3.786867992125984
11
5.1503805118110231
21
-3.7869247244094488
0
LINE
8
BLACK
6
CONTINUOUS
10
5.1503805118110231
20
-3.7869247244094488
11
5.1498044488188972
21
-3.786867992125984
0
LINE
8
BLACK
6
CONTINUOUS
10
5.1498044488188972
20
-3.786867992125984
11
5.1487400393700788
21
-3.7864270866141729
0
LINE
8
BLACK
6
CONTINUOUS
10
5.1487400393700788
20
-3.7864270866141729
11
5.1479253937007874
21
-3.7856124409448819
0
LINE
8
BLACK
6
CONTINUOUS
10
5.1479253937007874
20
-3.7856124409448819
11
5.1474844881889759
21
-3.7845480314960631
0
LINE
8
BLACK
6
CONTINUOUS
10
5.1474844881889759
20
-3.7845480314960631
11
5.1474844881889759
21
-3.7833959055118109
0
LINE
8
BLACK
6
CONTINUOUS
10
5.1474844881889759
20
-3.7833959055118109
11
5.1479253937007874
21
-3.7823314960629921
0
LINE
8
BLACK
6
CONTINUOUS
10
5.1479253937007874
20
-3.7823314960629921
11
5.1487400393700788
21
-3.7815168503937007
0
LINE
8
BLACK
6
CONTINUOUS
10
5.1487400393700788
20
-3.7815168503937007
11
5.1498044488188972
21
-3.7810759448818896
0
LINE
8
BLACK
6
CONTINUOUS
10
5.1498044488188972
20
-3.7810759448818896
11
5.1743774803149609
21
-3.7810192125984252
0
LINE
8
BLACK
6
CONTINUOUS
10
5.1743774803149609
20
-3.7810192125984252
11
5.1749535433070868
21
-3.7810759448818896
0
LINE
8
BLACK
6
CONTINUOUS
10
5.7664823228346451
20
-3.7540451181102363
11
5.7675467322834644
21
-3.754486023622047
0
LINE
8
BLACK
6
CONTINUOUS
10
5.7675467322834644
20
-3.754486023622047
11
5.7683613779527558
21
-3.7553006692913384
0
LINE
8
BLACK
6
CONTINUOUS
10
5.7683613779527558
20
-3.7553006692913384
11
5.7688022834645665
21
-3.7563650787401572
0
LINE
8
BLACK
6
CONTINUOUS
10
5.7688022834645665
20
-3.7563650787401572
11
5.7688590157480313
21
-3.7663149606299213
0
LINE
8
BLACK
6
CONTINUOUS
10
5.7688590157480313
20
-3.7663149606299213
11
5.7688302755905507
21
-3.7666065354330707
0
LINE
8
BLACK
6
CONTINUOUS
10
5.7688302755905507
20
-3.7666065354330707
11
5.7688358267716531
21
-3.7666842913385827
0
LINE
8
BLACK
6
CONTINUOUS
10
5.7688358267716531
20
-3.7666842913385827
11
5.7688168503937005
21
-3.7667428346456693
0
LINE
8
BLACK
6
CONTINUOUS
10
5.7688168503937005
20
-3.7667428346456693
11
5.7688022834645665
21
-3.7668910236220472
0
LINE
8
BLACK
6
CONTINUOUS
10
5.7688022834645665
20
-3.7668910236220472
11
5.7686496062992125
21
-3.7672595275590552
0
LINE
8
BLACK
6
CONTINUOUS
10
5.7686496062992125
20
-3.7672595275590552
11
5.7668327165354327
21
-3.772872992125984
0
LINE
8
BLACK
6
CONTINUOUS
10
5.7668327165354327
20
-3.772872992125984
11
5.7665967322834648
21
-3.7734015748031493
0
LINE
8
BLACK
6
CONTINUOUS
10
5.7665967322834648
20
-3.7734015748031493
11
5.7665272440944877
21
-3.7734816535433069
0
LINE
8
BLACK
6
CONTINUOUS
10
5.7665272440944877
20
-3.7734816535433069
11
5.766486653543307
21
-3.7735797244094487
0
LINE
8
BLACK
6
CONTINUOUS
10
5.766486653543307
20
-3.7735797244094487
11
5.7661028740157478
21
-3.7739709448818899
0
LINE
8
BLACK
6
CONTINUOUS
10
5.7661028740157478
20
-3.7739709448818899
11
5.7658418503937003
21
-3.774271929133858
0
LINE
8
BLACK
6
CONTINUOUS
10
5.7658418503937003
20
-3.774271929133858
11
5.7657747637795271
21
-3.7743054330708659
0
LINE
8
BLACK
6
CONTINUOUS
10
5.7657747637795271
20
-3.7743054330708659
11
5.7623698425196848
21
-3.7777766929133856
0
LINE
8
BLACK
6
CONTINUOUS
10
5.7623698425196848
20
-3.7777766929133856
11
5.7621434645669289
21
-3.777962440944882
0
LINE
8
BLACK
6
CONTINUOUS
10
5.7621434645669289
20
-3.777962440944882
11
5.7620923228346452
21
-3.7780214566929131
0
LINE
8
BLACK
6
CONTINUOUS
10
5.7620923228346452
20
-3.7780214566929131
11
5.7620366929133855
21
-3.7780500787401574
0
LINE
8
BLACK
6
CONTINUOUS
10
5.7620366929133855
20
-3.7780500787401574
11
5.7619223622047242
21
-3.778143937007874
0
LINE
8
BLACK
6
CONTINUOUS
10
5.7619223622047242
20
-3.778143937007874
11
5.7615754330708659
21
-3.7782875984251967
0
LINE
8
BLACK
6
CONTINUOUS
10
5.7615754330708659
20
-3.7782875984251967
11
5.7578529133858263
21
-3.7802045669291338
0
LINE
8
BLACK
6
CONTINUOUS
10
5.7578529133858263
20
-3.7802045669291338
11
5.7578107874015743
21
-3.7802206692913387
0
LINE
8
BLACK
6
CONTINUOUS
10
5.7578107874015743
20
-3.7802206692913387
11
5.7577936614173231
21
-3.7802333858267714
0
LINE
8
BLACK
6
CONTINUOUS
10
5.7577936614173231
20
-3.7802333858267714
11
5.7577446456692911
21
-3.7802459842519682
0
LINE
8
BLACK
6
CONTINUOUS
10
5.7577446456692911
20
-3.7802459842519682
11
5.7573122834645671
21
-3.7804114566929132
0
LINE
8
BLACK
6
CONTINUOUS
10
5.7573122834645671
20
-3.7804114566929132
11
5.7570210629921261
21
-3.7804321259842517
0
LINE
8
BLACK
6
CONTINUOUS
10
5.7570210629921261
20
-3.7804321259842517
11
5.7497494881889759
21
-3.7823029133858266
0
LINE
8
BLACK
6
CONTINUOUS
10
5.7497494881889759
20
-3.7823029133858266
11
5.7496496062992124
21
-3.7823176771653544
0
LINE
8
BLACK
6
CONTINUOUS
10
5.7496496062992124
20
-3.7823176771653544
11
5.7496094094488184
21
-3.7823343307086614
0
LINE
8
BLACK
6
CONTINUOUS
10
5.7496094094488184
20
-3.7823343307086614
11
5.7495321653543305
21
-3.7823349999999998
0
LINE
8
BLACK
6
CONTINUOUS
10
5.7495321653543305
20
-3.7823349999999998
11
5.7491768897637794
21
-3.7823875590551181
0
LINE
8
BLACK
6
CONTINUOUS
10
5.7491768897637794
20
-3.7823875590551181
11
5.7488649212598428
21
-3.7823411417322834
0
LINE
8
BLACK
6
CONTINUOUS
10
5.7488649212598428
20
-3.7823411417322834
11
5.7434090551181098
21
-3.7823910629921258
0
LINE
8
BLACK
6
CONTINUOUS
10
5.7434090551181098
20
-3.7823910629921258
11
5.7433085039370075
21
-3.7823811417322832
0
LINE
8
BLACK
6
CONTINUOUS
10
5.7433085039370075
20
-3.7823811417322832
11
5.7432655118110238
21
-3.7823875590551181
0
LINE
8
BLACK
6
CONTINUOUS
10
5.7432655118110238
20
-3.7823875590551181
11
5.743191811023622
21
-3.7823696456692915
0
LINE
8
BLACK
6
CONTINUOUS
10
5.743191811023622
20
-3.7823696456692915
11
5.742832992125984
21
-3.7823343307086614
0
LINE
8
BLACK
6
CONTINUOUS
10
5.742832992125984
20
-3.7823343307086614
11
5.7425310629921258
21
-3.7822092519685038
0
LINE
8
BLACK
6
CONTINUOUS
10
5.7425310629921258
20
-3.7822092519685038
11
5.7351938582677162
21
-3.780428149606299
0
LINE
8
BLACK
6
CONTINUOUS
10
5.7351938582677162
20
-3.780428149606299
11
5.7351513385826767
21
-3.7804129527559054
0
LINE
8
BLACK
6
CONTINUOUS
10
5.7351513385826767
20
-3.7804129527559054
11
5.7351300787401573
21
-3.7804114566929132
0
LINE
8
BLACK
6
CONTINUOUS
10
5.7351300787401573
20
-3.7804114566929132
11
5.735082401574803
21
-3.7803883070866142
0
LINE
8
BLACK
6
CONTINUOUS
10
5.735082401574803
20
-3.7803883070866142
11
5.7346487401574802
21
-3.7802333858267714
0
LINE
8
BLACK
6
CONTINUOUS
10
5.7346487401574802
20
-3.7802333858267714
11
5.7344317716535436
21
-3.7800726377952754
0
LINE
8
BLACK
6
CONTINUOUS
10
5.7344317716535436
20
-3.7800726377952754
11
5.730839960629921
21
-3.7783298031496062
0
LINE
8
BLACK
6
CONTINUOUS
10
5.730839960629921
20
-3.7783298031496062
11
5.730592125984252
21
-3.7781737795275592
0
LINE
8
BLACK
6
CONTINUOUS
10
5.730592125984252
20
-3.7781737795275592
11
5.7305200000000003
21
-3.778143937007874
0
LINE
8
BLACK
6
CONTINUOUS
10
5.7305200000000003
20
-3.778143937007874
11
5.7304757874015744
21
-3.7781005905511811
0
LINE
8
BLACK
6
CONTINUOUS
10
5.7304757874015744
20
-3.7781005905511811
11
5.7303500787401571
21
-3.7780214566929131
0
LINE
8
BLACK
6
CONTINUOUS
10
5.7303500787401571
20
-3.7780214566929131
11
5.7300933858267715
21
-3.7777254724409448
0
LINE
8
BLACK
6
CONTINUOUS
10
5.7300933858267715
20
-3.7777254724409448
11
5.7263230314960625
21
-3.7740271653543305
0
LINE
8
BLACK
6
CONTINUOUS
10
5.7263230314960625
20
-3.7740271653543305
11
5.7259558267716537
21
-3.7735797244094487
0
LINE
8
BLACK
6
CONTINUOUS
10
5.7259558267716537
20
-3.7735797244094487
11
5.7259151968503934
21
-3.7734816535433069
0
LINE
8
BLACK
6
CONTINUOUS
10
5.7259151968503934
20
-3.7734816535433069
11
5.7258457086614172
21
-3.773401535433071
0
LINE
8
BLACK
6
CONTINUOUS
10
5.7258457086614172
20
-3.773401535433071
11
5.7256706299212601
21
-3.7728912204724407
0
LINE
8
BLACK
6
CONTINUOUS
10
5.7256706299212601
20
-3.7728912204724407
11
5.7255149212598422
21
-3.7725152755905511
0
LINE
8
BLACK
6
CONTINUOUS
10
5.7255149212598422
20
-3.7725152755905511
11
5.7255149212598422
21
-3.772437283464567
0
LINE
8
BLACK
6
CONTINUOUS
10
5.7255149212598422
20
-3.772437283464567
11
5.7237349606299208
21
-3.7672487007874014
0
LINE
8
BLACK
6
CONTINUOUS
10
5.7237349606299208
20
-3.7672487007874014
11
5.7236700000000003
21
-3.7669631102362202
0
LINE
8
BLACK
6
CONTINUOUS
10
5.7236700000000003
20
-3.7669631102362202
11
5.7236401574803146
21
-3.7668910236220472
0
LINE
8
BLACK
6
CONTINUOUS
10
5.7236401574803146
20
-3.7668910236220472
11
5.7236398031496059
21
-3.7668302362204722
0
LINE
8
BLACK
6
CONTINUOUS
10
5.7236398031496059
20
-3.7668302362204722
11
5.723606614173228
21
-3.766684251968504
0
LINE
8
BLACK
6
CONTINUOUS
10
5.723606614173228
20
-3.766684251968504
11
5.7236365748031499
21
-3.7662627559055117
0
LINE
8
BLACK
6
CONTINUOUS
10
5.7236365748031499
20
-3.7662627559055117
11
5.7235834251968507
21
-3.7569411417322836
0
LINE
8
BLACK
6
CONTINUOUS
10
5.7235834251968507
20
-3.7569411417322836
11
5.7236401574803146
21
-3.7563650787401572
0
LINE
8
BLACK
6
CONTINUOUS
10
5.7236401574803146
20
-3.7563650787401572
11
5.7240810629921262
21
-3.7553006692913384
0
LINE
8
BLACK
6
CONTINUOUS
10
5.7240810629921262
20
-3.7553006692913384
11
5.7248957086614176
21
-3.754486023622047
0
LINE
8
BLACK
6
CONTINUOUS
10
5.7248957086614176
20
-3.754486023622047
11
5.725960118110236
21
-3.7540451181102363
0
LINE
8
BLACK
6
CONTINUOUS
10
5.725960118110236
20
-3.7540451181102363
11
5.7659062598425193
21
-3.7539883858267715
0
LINE
8
BLACK
6
CONTINUOUS
10
5.7659062598425193
20
-3.7539883858267715
11
5.7664823228346451
21
-3.7540451181102363
0
LINE
8
BLACK
6
CONTINUOUS
10
5.7294522834645667
20
-3.7598897244094487
11
5.7294870078740159
21
-3.765976614173228
0
LINE
8
BLACK
6
CONTINUOUS
10
5.7294870078740159
20
-3.765976614173228
11
5.7310142519685039
21
-3.7704285433070863
0
LINE
8
BLACK
6
CONTINUOUS
10
5.7310142519685039
20
-3.7704285433070863
11
5.7339955118110231
21
-3.7733528346456691
0
LINE
8
BLACK
6
CONTINUOUS
10
5.7339955118110231
20
-3.7733528346456691
11
5.7371376377952759
21
-3.774877440944882
0
LINE
8
BLACK
6
CONTINUOUS
10
5.7371376377952759
20
-3.774877440944882
11
5.743953503937008
21
-3.7765320078740157
0
LINE
8
BLACK
6
CONTINUOUS
10
5.743953503937008
20
-3.7765320078740157
11
5.7488657874015745
21
-3.7764870472440943
0
LINE
8
BLACK
6
CONTINUOUS
10
5.7488657874015745
20
-3.7764870472440943
11
5.7556937401574801
21
-3.7747304330708662
0
LINE
8
BLACK
6
CONTINUOUS
10
5.7556937401574801
20
-3.7747304330708662
11
5.7586518897637795
21
-3.7732071259842517
0
LINE
8
BLACK
6
CONTINUOUS
10
5.7586518897637795
20
-3.7732071259842517
11
5.7615176377952757
21
-3.7702855511811024
0
LINE
8
BLACK
6
CONTINUOUS
10
5.7615176377952757
20
-3.7702855511811024
11
5.7630033858267717
21
-3.765695157480315
0
LINE
8
BLACK
6
CONTINUOUS
10
5.7630033858267717
20
-3.765695157480315
11
5.7629700393700789
21
-3.7598421259842518
0
LINE
8
BLACK
6
CONTINUOUS
10
5.7629700393700789
20
-3.7598421259842518
11
5.7294522834645667
21
-3.7598897244094487
0
LINE
8
BLACK
6
CONTINUOUS
10
5.2601494881889765
20
-3.7669908267716536
11
5.2614279133858268
21
-3.7682692519685039
0
LINE
8
BLACK
6
CONTINUOUS
10
5.2614279133858268
20
-3.7682692519685039
11
5.2614279133858268
21
-3.7700772047244095
0
LINE
8
BLACK
6
CONTINUOUS
10
5.2614279133858268
20
-3.7700772047244095
11
5.2601494881889765
21
-3.7713556299212598
0
LINE
8
BLACK
6
CONTINUOUS
10
5.2601494881889765
20
-3.7713556299212598
11
5.2507544881889761
21
-3.7715354330708659
0
LINE
8
BLACK
6
CONTINUOUS
10
5.2507544881889761
20
-3.7715354330708659
11
5.2498505118110232
21
-3.7713556299212598
0
LINE
8
BLACK
6
CONTINUOUS
10
5.2498505118110232
20
-3.7713556299212598
11
5.248572086614173
21
-3.7700772047244095
0
LINE
8
BLACK
6
CONTINUOUS
10
5.248572086614173
20
-3.7700772047244095
11
5.248572086614173
21
-3.7682692519685039
0
LINE
8
BLACK
6
CONTINUOUS
10
5.248572086614173
20
-3.7682692519685039
11
5.2498505118110232
21
-3.7669908267716536
0
LINE
8
BLACK
6
CONTINUOUS
10
5.2498505118110232
20
-3.7669908267716536
11
5.2592455118110237
21
-3.7668110236220471
0
LINE
8
BLACK
6
CONTINUOUS
10
5.2592455118110237
20
-3.7668110236220471
11
5.2601494881889765
21
-3.7669908267716536
0
LINE
8
BLACK
6
CONTINUOUS
10
5.3681494881889762
20
-3.7649908267716534
11
5.3694279133858265
21
-3.7662692519685037
0
LINE
8
BLACK
6
CONTINUOUS
10
5.3694279133858265
20
-3.7662692519685037
11
5.3694279133858265
21
-3.7680772047244093
0
LINE
8
BLACK
6
CONTINUOUS
10
5.3694279133858265
20
-3.7680772047244093
11
5.3681494881889762
21
-3.7693556299212596
0
LINE
8
BLACK
6
CONTINUOUS
10
5.3681494881889762
20
-3.7693556299212596
11
5.3587544881889766
21
-3.7695354330708661
0
LINE
8
BLACK
6
CONTINUOUS
10
5.3587544881889766
20
-3.7695354330708661
11
5.3578505118110238
21
-3.7693556299212596
0
LINE
8
BLACK
6
CONTINUOUS
10
5.3578505118110238
20
-3.7693556299212596
11
5.3565720866141735
21
-3.7680772047244093
0
LINE
8
BLACK
6
CONTINUOUS
10
5.3565720866141735
20
-3.7680772047244093
11
5.3565720866141735
21
-3.7662692519685037
0
LINE
8
BLACK
6
CONTINUOUS
10
5.3565720866141735
20
-3.7662692519685037
11
5.3578505118110238
21
-3.7649908267716534
0
LINE
8
BLACK
6
CONTINUOUS
10
5.3578505118110238
20
-3.7649908267716534
11
5.3672455118110234
21
-3.7648110236220473
0
LINE
8
BLACK
6
CONTINUOUS
10
5.3672455118110234
20
-3.7648110236220473
11
5.3681494881889762
21
-3.7649908267716534
0
LINE
8
BLACK
6
CONTINUOUS
10
5.1295237795275588
20
-3.7083127559055118
11
5.1303384251968502
21
-3.7091274015748033
0
LINE
8
BLACK
6
CONTINUOUS
10
5.1303384251968502
20
-3.7091274015748033
11
5.1307793307086609
21
-3.7101918110236221
0
LINE
8
BLACK
6
CONTINUOUS
10
5.1307793307086609
20
-3.7101918110236221
11
5.1308360629921257
21
-3.755762244094488
0
LINE
8
BLACK
6
CONTINUOUS
10
5.1308360629921257
20
-3.755762244094488
11
5.1307793307086609
21
-3.7563383070866139
0
LINE
8
BLACK
6
CONTINUOUS
10
5.1307793307086609
20
-3.7563383070866139
11
5.1303384251968502
21
-3.7574027165354331
0
LINE
8
BLACK
6
CONTINUOUS
10
5.1303384251968502
20
-3.7574027165354331
11
5.1295237795275588
21
-3.7582173622047241
0
LINE
8
BLACK
6
CONTINUOUS
10
5.1295237795275588
20
-3.7582173622047241
11
5.1284593700787404
21
-3.7586582677165352
0
LINE
8
BLACK
6
CONTINUOUS
10
5.1284593700787404
20
-3.7586582677165352
11
5.1273072440944878
21
-3.7586582677165352
0
LINE
8
BLACK
6
CONTINUOUS
10
5.1273072440944878
20
-3.7586582677165352
11
5.1262428346456694
21
-3.7582173622047241
0
LINE
8
BLACK
6
CONTINUOUS
10
5.1262428346456694
20
-3.7582173622047241
11
5.125428188976378
21
-3.7574027165354331
0
LINE
8
BLACK
6
CONTINUOUS
10
5.125428188976378
20
-3.7574027165354331
11
5.1249872834645664
21
-3.7563383070866139
0
LINE
8
BLACK
6
CONTINUOUS
10
5.1249872834645664
20
-3.7563383070866139
11
5.1249305511811025
21
-3.7107678740157479
0
LINE
8
BLACK
6
CONTINUOUS
10
5.1249305511811025
20
-3.7107678740157479
11
5.1249872834645664
21
-3.7101918110236221
0
LINE
8
BLACK
6
CONTINUOUS
10
5.1249872834645664
20
-3.7101918110236221
11
5.125428188976378
21
-3.7091274015748033
0
LINE
8
BLACK
6
CONTINUOUS
10
5.125428188976378
20
-3.7091274015748033
11
5.1262428346456694
21
-3.7083127559055118
0
LINE
8
BLACK
6
CONTINUOUS
10
5.1262428346456694
20
-3.7083127559055118
11
5.1273072440944878
21
-3.7078718503937007
0
LINE
8
BLACK
6
CONTINUOUS
10
5.1273072440944878
20
-3.7078718503937007
11
5.1284593700787404
21
-3.7078718503937007
0
LINE
8
BLACK
6
CONTINUOUS
10
5.1284593700787404
20
-3.7078718503937007
11
5.1295237795275588
21
-3.7083127559055118
0
LINE
8
BLACK
6
CONTINUOUS
10
5.2601494881889765
20
-3.73864437007874
11
5.2614279133858268
21
-3.7399227952755907
0
LINE
8
BLACK
6
CONTINUOUS
10
5.2614279133858268
20
-3.7399227952755907
11
5.2614279133858268
21
-3.7417307480314959
0
LINE
8
BLACK
6
CONTINUOUS
10
5.2614279133858268
20
-3.7417307480314959
11
5.2601494881889765
21
-3.7430091732283466
0
LINE
8
BLACK
6
CONTINUOUS
10
5.2601494881889765
20
-3.7430091732283466
11
5.2507544881889761
21
-3.7431889763779527
0
LINE
8
BLACK
6
CONTINUOUS
10
5.2507544881889761
20
-3.7431889763779527
11
5.2498505118110232
21
-3.7430091732283466
0
LINE
8
BLACK
6
CONTINUOUS
10
5.2498505118110232
20
-3.7430091732283466
11
5.248572086614173
21
-3.7417307480314959
0
LINE
8
BLACK
6
CONTINUOUS
10
5.248572086614173
20
-3.7417307480314959
11
5.248572086614173
21
-3.7399227952755907
0
LINE
8
BLACK
6
CONTINUOUS
10
5.248572086614173
20
-3.7399227952755907
11
5.2498505118110232
21
-3.73864437007874
0
LINE
8
BLACK
6
CONTINUOUS
10
5.2498505118110232
20
-3.73864437007874
11
5.2592455118110237
21
-3.7384645669291339
0
LINE
8
BLACK
6
CONTINUOUS
10
5.2592455118110237
20
-3.7384645669291339
11
5.2601494881889765
21
-3.73864437007874
0
LINE
8
BLACK
6
CONTINUOUS
10
5.8074000393700782
20
-3.6788805905511812
11
5.8086784645669294
21
-3.6801590157480315
0
LINE
8
BLACK
6
CONTINUOUS
10
5.8086784645669294
20
-3.6801590157480315
11
5.8086784645669294
21
-3.6819669685039371
0
LINE
8
BLACK
6
CONTINUOUS
10
5.8086784645669294
20
-3.6819669685039371
11
5.8074000393700782
21
-3.6832453937007874
0
LINE
8
BLACK
6
CONTINUOUS
10
5.8074000393700782
20
-3.6832453937007874
11
5.7118380314960628
21
-3.6834211417322833
0
LINE
8
BLACK
6
CONTINUOUS
10
5.7118380314960628
20
-3.6834211417322833
11
5.7120011417322836
21
-3.7367485826771651
0
LINE
8
BLACK
6
CONTINUOUS
10
5.7120011417322836
20
-3.7367485826771651
11
5.8064960629921263
21
-3.736574803149606
0
LINE
8
BLACK
6
CONTINUOUS
10
5.8064960629921263
20
-3.736574803149606
11
5.8074000393700782
21
-3.7367546062992125
0
LINE
8
BLACK
6
CONTINUOUS
10
5.8074000393700782
20
-3.7367546062992125
11
5.8086784645669294
21
-3.7380330314960628
0
LINE
8
BLACK
6
CONTINUOUS
10
5.8086784645669294
20
-3.7380330314960628
11
5.8086784645669294
21
-3.7398409842519684
0
LINE
8
BLACK
6
CONTINUOUS
10
5.8086784645669294
20
-3.7398409842519684
11
5.8074000393700782
21
-3.7411194094488187
0
LINE
8
BLACK
6
CONTINUOUS
10
5.8074000393700782
20
-3.7411194094488187
11
5.7096456692913389
21
-3.7412992125984252
0
LINE
8
BLACK
6
CONTINUOUS
10
5.7096456692913389
20
-3.7412992125984252
11
5.7087416929133861
21
-3.7411194094488187
0
LINE
8
BLACK
6
CONTINUOUS
10
5.7087416929133861
20
-3.7411194094488187
11
5.7074632677165349
21
-3.7398409842519684
0
LINE
8
BLACK
6
CONTINUOUS
10
5.7074632677165349
20
-3.7398409842519684
11
5.7072834645669293
21
-3.6810629921259843
0
LINE
8
BLACK
6
CONTINUOUS
10
5.7072834645669293
20
-3.6810629921259843
11
5.7074632677165349
21
-3.6801590157480315
0
LINE
8
BLACK
6
CONTINUOUS
10
5.7074632677165349
20
-3.6801590157480315
11
5.7087416929133861
21
-3.6788805905511812
0
LINE
8
BLACK
6
CONTINUOUS
10
5.7087416929133861
20
-3.6788805905511812
11
5.8064960629921263
21
-3.6787007874015747
0
LINE
8
BLACK
6
CONTINUOUS
10
5.8064960629921263
20
-3.6787007874015747
11
5.8074000393700782
21
-3.6788805905511812
0
LINE
8
BLACK
6
CONTINUOUS
10
5.3681494881889762
20
-3.7366443700787402
11
5.3694279133858265
21
-3.7379227952755905
0
LINE
8
BLACK
6
CONTINUOUS
10
5.3694279133858265
20
-3.7379227952755905
11
5.3694279133858265
21
-3.7397307480314961
0
LINE
8
BLACK
6
CONTINUOUS
10
5.3694279133858265
20
-3.7397307480314961
11
5.3681494881889762
21
-3.7410091732283464
0
LINE
8
BLACK
6
CONTINUOUS
10
5.3681494881889762
20
-3.7410091732283464
11
5.3587544881889766
21
-3.7411889763779529
0
LINE
8
BLACK
6
CONTINUOUS
10
5.3587544881889766
20
-3.7411889763779529
11
5.3578505118110238
21
-3.7410091732283464
0
LINE
8
BLACK
6
CONTINUOUS
10
5.3578505118110238
20
-3.7410091732283464
11
5.3565720866141735
21
-3.7397307480314961
0
LINE
8
BLACK
6
CONTINUOUS
10
5.3565720866141735
20
-3.7397307480314961
11
5.3565720866141735
21
-3.7379227952755905
0
LINE
8
BLACK
6
CONTINUOUS
10
5.3565720866141735
20
-3.7379227952755905
11
5.3578505118110238
21
-3.7366443700787402
0
LINE
8
BLACK
6
CONTINUOUS
10
5.3578505118110238
20
-3.7366443700787402
11
5.3672455118110234
21
-3.7364645669291336
0
LINE
8
BLACK
6
CONTINUOUS
10
5.3672455118110234
20
-3.7364645669291336
11
5.3681494881889762
21
-3.7366443700787402
0
LINE
8
BLACK
6
CONTINUOUS
10
5.9254630314960632
20
-3.6841955511811024
11
5.9267414566929135
21
-3.6854739763779527
0
LINE
8
BLACK
6
CONTINUOUS
10
5.9267414566929135
20
-3.6854739763779527
11
5.9267414566929135
21
-3.6872819291338583
0
LINE
8
BLACK
6
CONTINUOUS
10
5.9267414566929135
20
-3.6872819291338583
11
5.9254630314960632
21
-3.6885603543307086
0
LINE
8
BLACK
6
CONTINUOUS
10
5.9254630314960632
20
-3.6885603543307086
11
5.849588267716535
21
-3.6887350787401574
0
LINE
8
BLACK
6
CONTINUOUS
10
5.849588267716535
20
-3.6887350787401574
11
5.8497477165354326
21
-3.7314321259842518
0
LINE
8
BLACK
6
CONTINUOUS
10
5.8497477165354326
20
-3.7314321259842518
11
5.9245590551181104
21
-3.7312598425196848
0
LINE
8
BLACK
6
CONTINUOUS
10
5.9245590551181104
20
-3.7312598425196848
11
5.9254630314960632
21
-3.7314396456692913
0
LINE
8
BLACK
6
CONTINUOUS
10
5.9254630314960632
20
-3.7314396456692913
11
5.9267414566929135
21
-3.7327180708661416
0
LINE
8
BLACK
6
CONTINUOUS
10
5.9267414566929135
20
-3.7327180708661416
11
5.9267414566929135
21
-3.7345260236220472
0
LINE
8
BLACK
6
CONTINUOUS
10
5.9267414566929135
20
-3.7345260236220472
11
5.9254630314960632
21
-3.7358044488188975
0
LINE
8
BLACK
6
CONTINUOUS
10
5.9254630314960632
20
-3.7358044488188975
11
5.8473937007874017
21
-3.735984251968504
0
LINE
8
BLACK
6
CONTINUOUS
10
5.8473937007874017
20
-3.735984251968504
11
5.8464897244094489
21
-3.7358044488188975
0
LINE
8
BLACK
6
CONTINUOUS
10
5.8464897244094489
20
-3.7358044488188975
11
5.8452112992125986
21
-3.7345260236220472
0
LINE
8
BLACK
6
CONTINUOUS
10
5.8452112992125986
20
-3.7345260236220472
11
5.8450314960629921
21
-3.6863779527559055
0
LINE
8
BLACK
6
CONTINUOUS
10
5.8450314960629921
20
-3.6863779527559055
11
5.8452112992125986
21
-3.6854739763779527
0
LINE
8
BLACK
6
CONTINUOUS
10
5.8452112992125986
20
-3.6854739763779527
11
5.8464897244094489
21
-3.6841955511811024
0
LINE
8
BLACK
6
CONTINUOUS
10
5.8464897244094489
20
-3.6841955511811024
11
5.9245590551181104
21
-3.6840157480314959
0
LINE
8
BLACK
6
CONTINUOUS
10
5.9245590551181104
20
-3.6840157480314959
11
5.9254630314960632
21
-3.6841955511811024
0
LINE
8
BLACK
6
CONTINUOUS
10
5.418009173228346
20
-3.7198505118110234
11
5.4181889763779525
21
-3.7292455118110235
0
LINE
8
BLACK
6
CONTINUOUS
10
5.4181889763779525
20
-3.7292455118110235
11
5.418009173228346
21
-3.7301494881889763
0
LINE
8
BLACK
6
CONTINUOUS
10
5.418009173228346
20
-3.7301494881889763
11
5.4167307480314957
21
-3.7314279133858266
0
LINE
8
BLACK
6
CONTINUOUS
10
5.4167307480314957
20
-3.7314279133858266
11
5.4149227952755901
21
-3.7314279133858266
0
LINE
8
BLACK
6
CONTINUOUS
10
5.4149227952755901
20
-3.7314279133858266
11
5.4136443700787398
21
-3.7301494881889763
0
LINE
8
BLACK
6
CONTINUOUS
10
5.4136443700787398
20
-3.7301494881889763
11
5.4134645669291341
21
-3.7207544881889763
0
LINE
8
BLACK
6
CONTINUOUS
10
5.4134645669291341
20
-3.7207544881889763
11
5.4136443700787398
21
-3.7198505118110234
0
LINE
8
BLACK
6
CONTINUOUS
10
5.4136443700787398
20
-3.7198505118110234
11
5.4149227952755901
21
-3.7185720866141732
0
LINE
8
BLACK
6
CONTINUOUS
10
5.4149227952755901
20
-3.7185720866141732
11
5.4167307480314957
21
-3.7185720866141732
0
LINE
8
BLACK
6
CONTINUOUS
10
5.4167307480314957
20
-3.7185720866141732
11
5.418009173228346
21
-3.7198505118110234
0
LINE
8
BLACK
6
CONTINUOUS
10
5.4463556299212597
20
-3.7198505118110234
11
5.4465354330708662
21
-3.7292455118110235
0
LINE
8
BLACK
6
CONTINUOUS
10
5.4465354330708662
20
-3.7292455118110235
11
5.4463556299212597
21
-3.7301494881889763
0
LINE
8
BLACK
6
CONTINUOUS
10
5.4463556299212597
20
-3.7301494881889763
11
5.4450772047244094
21
-3.7314279133858266
0
LINE
8
BLACK
6
CONTINUOUS
10
5.4450772047244094
20
-3.7314279133858266
11
5.4432692519685038
21
-3.7314279133858266
0
LINE
8
BLACK
6
CONTINUOUS
10
5.4432692519685038
20
-3.7314279133858266
11
5.4419908267716535
21
-3.7301494881889763
0
LINE
8
BLACK
6
CONTINUOUS
10
5.4419908267716535
20
-3.7301494881889763
11
5.4418110236220469
21
-3.7207544881889763
0
LINE
8
BLACK
6
CONTINUOUS
10
5.4418110236220469
20
-3.7207544881889763
11
5.4419908267716535
21
-3.7198505118110234
0
LINE
8
BLACK
6
CONTINUOUS
10
5.4419908267716535
20
-3.7198505118110234
11
5.4432692519685038
21
-3.7185720866141732
0
LINE
8
BLACK
6
CONTINUOUS
10
5.4432692519685038
20
-3.7185720866141732
11
5.4450772047244094
21
-3.7185720866141732
0
LINE
8
BLACK
6
CONTINUOUS
10
5.4450772047244094
20
-3.7185720866141732
11
5.4463556299212597
21
-3.7198505118110234
0
LINE
8
BLACK
6
CONTINUOUS
10
5.631009173228346
20
-3.7108505118110235
11
5.6311889763779526
21
-3.7202455118110236
0
LINE
8
BLACK
6
CONTINUOUS
10
5.6311889763779526
20
-3.7202455118110236
11
5.631009173228346
21
-3.7211494881889764
0
LINE
8
BLACK
6
CONTINUOUS
10
5.631009173228346
20
-3.7211494881889764
11
5.6297307480314958
21
-3.7224279133858267
0
LINE
8
BLACK
6
CONTINUOUS
10
5.6297307480314958
20
-3.7224279133858267
11
5.6279227952755901
21
-3.7224279133858267
0
LINE
8
BLACK
6
CONTINUOUS
10
5.6279227952755901
20
-3.7224279133858267
11
5.6266443700787399
21
-3.7211494881889764
0
LINE
8
BLACK
6
CONTINUOUS
10
5.6266443700787399
20
-3.7211494881889764
11
5.6264645669291333
21
-3.7117544881889764
0
LINE
8
BLACK
6
CONTINUOUS
10
5.6264645669291333
20
-3.7117544881889764
11
5.6266443700787399
21
-3.7108505118110235
0
LINE
8
BLACK
6
CONTINUOUS
10
5.6266443700787399
20
-3.7108505118110235
11
5.6279227952755901
21
-3.7095720866141733
0
LINE
8
BLACK
6
CONTINUOUS
10
5.6279227952755901
20
-3.7095720866141733
11
5.6297307480314958
21
-3.7095720866141733
0
LINE
8
BLACK
6
CONTINUOUS
10
5.6297307480314958
20
-3.7095720866141733
11
5.631009173228346
21
-3.7108505118110235
0
LINE
8
BLACK
6
CONTINUOUS
10
5.6593556299212597
20
-3.7108505118110235
11
5.6595354330708663
21
-3.7202455118110236
0
LINE
8
BLACK
6
CONTINUOUS
10
5.6595354330708663
20
-3.7202455118110236
11
5.6593556299212597
21
-3.7211494881889764
0
LINE
8
BLACK
6
CONTINUOUS
10
5.6593556299212597
20
-3.7211494881889764
11
5.6580772047244094
21
-3.7224279133858267
0
LINE
8
BLACK
6
CONTINUOUS
10
5.6580772047244094
20
-3.7224279133858267
11
5.6562692519685038
21
-3.7224279133858267
0
LINE
8
BLACK
6
CONTINUOUS
10
5.6562692519685038
20
-3.7224279133858267
11
5.6549908267716535
21
-3.7211494881889764
0
LINE
8
BLACK
6
CONTINUOUS
10
5.6549908267716535
20
-3.7211494881889764
11
5.654811023622047
21
-3.7117544881889764
0
LINE
8
BLACK
6
CONTINUOUS
10
5.654811023622047
20
-3.7117544881889764
11
5.6549908267716535
21
-3.7108505118110235
0
LINE
8
BLACK
6
CONTINUOUS
10
5.6549908267716535
20
-3.7108505118110235
11
5.6562692519685038
21
-3.7095720866141733
0
LINE
8
BLACK
6
CONTINUOUS
10
5.6562692519685038
20
-3.7095720866141733
11
5.6580772047244094
21
-3.7095720866141733
0
LINE
8
BLACK
6
CONTINUOUS
10
5.6580772047244094
20
-3.7095720866141733
11
5.6593556299212597
21
-3.7108505118110235
0
LINE
8
BLACK
6
CONTINUOUS
10
5.1379509842519679
20
-3.6603080708661415
11
5.138922992125984
21
-3.6609266535433069
0
LINE
8
BLACK
6
CONTINUOUS
10
5.138922992125984
20
-3.6609266535433069
11
5.139584251968504
21
-3.6618700787401575
0
LINE
8
BLACK
6
CONTINUOUS
10
5.139584251968504
20
-3.6618700787401575
11
5.1398341732283459
21
-3.6629947244094487
0
LINE
8
BLACK
6
CONTINUOUS
10
5.1398341732283459
20
-3.6629947244094487
11
5.1396347244094489
21
-3.6641294094488188
0
LINE
8
BLACK
6
CONTINUOUS
10
5.1396347244094489
20
-3.6641294094488188
11
5.1292849606299216
21
-3.6804948818897638
0
LINE
8
BLACK
6
CONTINUOUS
10
5.1292849606299216
20
-3.6804948818897638
11
5.1293362204724406
21
-3.6945566929133857
0
LINE
8
BLACK
6
CONTINUOUS
10
5.1293362204724406
20
-3.6945566929133857
11
5.1292794881889758
21
-3.6951327559055116
0
LINE
8
BLACK
6
CONTINUOUS
10
5.1292794881889758
20
-3.6951327559055116
11
5.1288385826771652
21
-3.6961971653543304
0
LINE
8
BLACK
6
CONTINUOUS
10
5.1288385826771652
20
-3.6961971653543304
11
5.1280239370078737
21
-3.6970118110236219
0
LINE
8
BLACK
6
CONTINUOUS
10
5.1280239370078737
20
-3.6970118110236219
11
5.1269595275590554
21
-3.6974527165354329
0
LINE
8
BLACK
6
CONTINUOUS
10
5.1269595275590554
20
-3.6974527165354329
11
5.1258074015748027
21
-3.6974527165354329
0
LINE
8
BLACK
6
CONTINUOUS
10
5.1258074015748027
20
-3.6974527165354329
11
5.1247429921259844
21
-3.6970118110236219
0
LINE
8
BLACK
6
CONTINUOUS
10
5.1247429921259844
20
-3.6970118110236219
11
5.1239283464566929
21
-3.6961971653543304
0
LINE
8
BLACK
6
CONTINUOUS
10
5.1239283464566929
20
-3.6961971653543304
11
5.1234874409448814
21
-3.6951327559055116
0
LINE
8
BLACK
6
CONTINUOUS
10
5.1234874409448814
20
-3.6951327559055116
11
5.1234334645669293
21
-3.6803249999999998
0
LINE
8
BLACK
6
CONTINUOUS
10
5.1234334645669293
20
-3.6803249999999998
11
5.113393661417323
21
-3.664645905511811
0
LINE
8
BLACK
6
CONTINUOUS
10
5.113393661417323
20
-3.664645905511811
11
5.1131322834645667
21
-3.6641294488188976
0
LINE
8
BLACK
6
CONTINUOUS
10
5.1131322834645667
20
-3.6641294488188976
11
5.1129327952755901
21
-3.6629947244094487
0
LINE
8
BLACK
6
CONTINUOUS
10
5.1129327952755901
20
-3.6629947244094487
11
5.1131827165354329
21
-3.6618700787401575
0
LINE
8
BLACK
6
CONTINUOUS
10
5.1131827165354329
20
-3.6618700787401575
11
5.1138440157480316
21
-3.6609266535433069
0
LINE
8
BLACK
6
CONTINUOUS
10
5.1138440157480316
20
-3.6609266535433069
11
5.114815984251968
21
-3.6603081102362203
0
LINE
8
BLACK
6
CONTINUOUS
10
5.114815984251968
20
-3.6603081102362203
11
5.1159507086614173
21
-3.6601086220472441
0
LINE
8
BLACK
6
CONTINUOUS
10
5.1159507086614173
20
-3.6601086220472441
11
5.1170753543307086
21
-3.6603585433070864
0
LINE
8
BLACK
6
CONTINUOUS
10
5.1170753543307086
20
-3.6603585433070864
11
5.1180187795275591
21
-3.6610198425196852
0
LINE
8
BLACK
6
CONTINUOUS
10
5.1180187795275591
20
-3.6610198425196852
11
5.1264007480314957
21
-3.6741099212598423
0
LINE
8
BLACK
6
CONTINUOUS
10
5.1264007480314957
20
-3.6741099212598423
11
5.1343910629921261
21
-3.6614753543307086
0
LINE
8
BLACK
6
CONTINUOUS
10
5.1343910629921261
20
-3.6614753543307086
11
5.1347481889763777
21
-3.6610198031496064
0
LINE
8
BLACK
6
CONTINUOUS
10
5.1347481889763777
20
-3.6610198031496064
11
5.1356916141732283
21
-3.6603585433070864
0
LINE
8
BLACK
6
CONTINUOUS
10
5.1356916141732283
20
-3.6603585433070864
11
5.1368162598425195
21
-3.6601086220472441
0
LINE
8
BLACK
6
CONTINUOUS
10
5.1368162598425195
20
-3.6601086220472441
11
5.1379509842519679
21
-3.6603080708661415
0
LINE
8
BLACK
6
CONTINUOUS
10
5.5973002362204722
20
-3.6608887401574801
11
5.597992125984252
21
-3.66255905511811
0
LINE
8
BLACK
6
CONTINUOUS
10
5.597992125984252
20
-3.66255905511811
11
5.5975403149606295
21
-3.6639484251968502
0
LINE
8
BLACK
6
CONTINUOUS
10
5.5975403149606295
20
-3.6639484251968502
11
5.5880914960629919
21
-3.6769405511811022
0
LINE
8
BLACK
6
CONTINUOUS
10
5.5880914960629919
20
-3.6769405511811022
11
5.5865495275590549
21
-3.6778844881889765
0
LINE
8
BLACK
6
CONTINUOUS
10
5.5865495275590549
20
-3.6778844881889765
11
5.5847917322834641
21
-3.6774615748031496
0
LINE
8
BLACK
6
CONTINUOUS
10
5.5847917322834641
20
-3.6774615748031496
11
5.5842707086614176
21
-3.6769405511811022
0
LINE
8
BLACK
6
CONTINUOUS
10
5.5842707086614176
20
-3.6769405511811022
11
5.5748218897637791
21
-3.6639484251968502
0
LINE
8
BLACK
6
CONTINUOUS
10
5.5748218897637791
20
-3.6639484251968502
11
5.5743989763779522
21
-3.6621906299212599
0
LINE
8
BLACK
6
CONTINUOUS
10
5.5743989763779522
20
-3.6621906299212599
11
5.5753429133858265
21
-3.6606486614173228
0
LINE
8
BLACK
6
CONTINUOUS
10
5.5753429133858265
20
-3.6606486614173228
11
5.5767322834645672
21
-3.6601968503937008
0
LINE
8
BLACK
6
CONTINUOUS
10
5.5767322834645672
20
-3.6601968503937008
11
5.5956299212598424
21
-3.6601968503937008
0
LINE
8
BLACK
6
CONTINUOUS
10
5.5956299212598424
20
-3.6601968503937008
11
5.5973002362204722
21
-3.6608887401574801
0
LINE
8
BLACK
6
CONTINUOUS
10
5.5674000393700789
20
-3.671400275590551
11
5.5686784645669292
21
-3.6726787007874013
0
LINE
8
BLACK
6
CONTINUOUS
10
5.5686784645669292
20
-3.6726787007874013
11
5.5686784645669292
21
-3.6744866535433069
0
LINE
8
BLACK
6
CONTINUOUS
10
5.5686784645669292
20
-3.6744866535433069
11
5.5674000393700789
21
-3.6757650787401572
0
LINE
8
BLACK
6
CONTINUOUS
10
5.5674000393700789
20
-3.6757650787401572
11
5.5350000000000001
21
-3.6759448818897638
0
LINE
8
BLACK
6
CONTINUOUS
10
5.5350000000000001
20
-3.6759448818897638
11
5.5341450787401572
21
-3.675774803149606
0
LINE
8
BLACK
6
CONTINUOUS
10
5.5341450787401572
20
-3.675774803149606
11
5.5035039370078742
21
-3.6759448818897638
0
LINE
8
BLACK
6
CONTINUOUS
10
5.5035039370078742
20
-3.6759448818897638
11
5.5025999606299214
21
-3.6757650787401572
0
LINE
8
BLACK
6
CONTINUOUS
10
5.5025999606299214
20
-3.6757650787401572
11
5.5013215354330711
21
-3.6744866535433069
0
LINE
8
BLACK
6
CONTINUOUS
10
5.5013215354330711
20
-3.6744866535433069
11
5.5013215354330711
21
-3.6726787007874013
0
LINE
8
BLACK
6
CONTINUOUS
10
5.5013215354330711
20
-3.6726787007874013
11
5.5025999606299214
21
-3.671400275590551
0
LINE
8
BLACK
6
CONTINUOUS
10
5.5025999606299214
20
-3.671400275590551
11
5.5350000000000001
21
-3.671220472440945
0
LINE
8
BLACK
6
CONTINUOUS
10
5.5350000000000001
20
-3.671220472440945
11
5.5358548818897635
21
-3.6713905118110235
0
LINE
8
BLACK
6
CONTINUOUS
10
5.5358548818897635
20
-3.6713905118110235
11
5.5664960629921261
21
-3.671220472440945
0
LINE
8
BLACK
6
CONTINUOUS
10
5.5664960629921261
20
-3.671220472440945
11
5.5674000393700789
21
-3.671400275590551
0
CIRCLE
8
BLACK
10
4.8884251968503936
20
-3.6494488188976377
40
0.0068897637795276
0
CIRCLE
8
BLACK
10
4.8884251968503936
20
-4.2400000000000002
40
0.0068897637795276
0
CIRCLE
8
BLACK
10
5.2821259842519686
20
-4.2400000000000002
40
0.0068897637795276
0
CIRCLE
8
BLACK
10
5.2821259842519686
20
-3.6494488188976377
40
0.0068897637795276
0
CIRCLE
8
BLACK
10
5.146299212598425
20
-4.0037795275590549
40
0.0068897637795276
0
CIRCLE
8
BLACK
10
4.8588976377952751
20
-4.0037795275590549
40
0.0068897637795276
0
CIRCLE
8
BLACK
10
4.8588976377952751
20
-3.834488188976378
40
0.0068897637795276
  0
ENDSEC
  0
EOF
