  0
SECTION
  2
HEADER
  9
$ANGBASE
  50
0.0
  9
$ANGDIR
  70
1
  9
$MEASUREMENT
  70
0
  0
ENDSEC
  0
SECTION
  2
TABLES
  0
TABLE
  2
LTYPE
  70
4
  0
LTYPE
  5
40F
  2
CONTINUOUS
  70
0
  3
Solid line
  72
65
  73
0
  40
0.0
  0
LTYPE
  5
410
  2
DASHDOT
 70
0
  3
Dash Dot ____ _ ____ _
 72
65
 73
4
 40
2.0
 49
1.25
 49
-0.25
 49
0.25
 49
-0.25
  0
LTYPE
  5
411
  2
DASHED
 70
0
  3
Dashed __ __ __ __ __
 72
65
 73
2
 40
0.75
 49
0.5
 49
-0.25
  0
LTYPE
  5
43B
  2
DOTTED
 70
0
  3
Dotted .  .  .  .
 72
65
 73
2
 40
0.2
 49
0.0
 49
-0.2
  0
ENDTAB
  0
TABLE
  2
STYLE
  70
4
  0
STYLE
  2
KICAD
  70
0
  40
0
  41
1
  42
1
  50
0
  71
0
  3
isocp.shx
  0
STYLE
  2
KICADB
  70
0
  40
0
  41
1
  42
1
  50
0
  71
0
  3
isocp.shx
  0
STYLE
  2
KICADI
  70
0
  40
0
  41
1
  42
1
  50
15
  71
0
  3
isocp.shx
  0
STYLE
  2
KICADBI
  70
0
  40
0
  41
1
  42
1
  50
15
  71
0
  3
isocp.shx
  0
ENDTAB
  0
TABLE
  2
LAYER
  70
1
  0
LAYER
  2
BLACK
  70
0
  62
7
  6
CONTINUOUS
  0
ENDTAB
  0
ENDSEC
  0
SECTION
  2
ENTITIES
0
LINE
8
BLACK
6
CONTINUOUS
10
5.5885039370078742
20
-4.0174015748031495
11
5.5891999212598424
21
-4.017689842519685
0
LINE
8
BLACK
6
CONTINUOUS
10
5.5891999212598424
20
-4.017689842519685
11
5.5894881889763779
21
-4.0183858267716532
0
LINE
8
BLACK
6
CONTINUOUS
10
5.5894881889763779
20
-4.0183858267716532
11
5.5894881889763779
21
-4.0916141732283462
0
LINE
8
BLACK
6
CONTINUOUS
10
5.5894881889763779
20
-4.0916141732283462
11
5.5892925196850394
21
-4.0920866141732279
0
LINE
8
BLACK
6
CONTINUOUS
10
5.5892925196850394
20
-4.0920866141732279
11
5.6257074803149605
21
-4.0920866141732279
0
LINE
8
BLACK
6
CONTINUOUS
10
5.6257074803149605
20
-4.0920866141732279
11
5.625511811023622
21
-4.0916141732283462
0
LINE
8
BLACK
6
CONTINUOUS
10
5.625511811023622
20
-4.0916141732283462
11
5.625511811023622
21
-4.0183858267716532
0
LINE
8
BLACK
6
CONTINUOUS
10
5.625511811023622
20
-4.0183858267716532
11
5.6258000787401574
21
-4.017689842519685
0
LINE
8
BLACK
6
CONTINUOUS
10
5.6258000787401574
20
-4.017689842519685
11
5.6264960629921257
21
-4.0174015748031495
0
LINE
8
BLACK
6
CONTINUOUS
10
5.6264960629921257
20
-4.0174015748031495
11
5.6635039370078735
21
-4.0174015748031495
0
LINE
8
BLACK
6
CONTINUOUS
10
5.6635039370078735
20
-4.0174015748031495
11
5.6641999212598426
21
-4.017689842519685
0
LINE
8
BLACK
6
CONTINUOUS
10
5.6641999212598426
20
-4.017689842519685
11
5.6644881889763781
21
-4.0183858267716532
0
LINE
8
BLACK
6
CONTINUOUS
10
5.6644881889763781
20
-4.0183858267716532
11
5.6644881889763781
21
-4.0916141732283462
0
LINE
8
BLACK
6
CONTINUOUS
10
5.6644881889763781
20
-4.0916141732283462
11
5.6642925196850396
21
-4.0920866141732279
0
LINE
8
BLACK
6
CONTINUOUS
10
5.6642925196850396
20
-4.0920866141732279
11
5.7207086614173228
21
-4.0920866141732279
0
LINE
8
BLACK
6
CONTINUOUS
10
5.7207086614173228
20
-4.0920866141732279
11
5.7214046456692911
21
-4.0923748818897634
0
LINE
8
BLACK
6
CONTINUOUS
10
5.7214046456692911
20
-4.0923748818897634
11
5.7216929133858265
21
-4.0930708661417325
0
LINE
8
BLACK
6
CONTINUOUS
10
5.7216929133858265
20
-4.0930708661417325
11
5.7216929133858265
21
-4.2269291338582677
0
LINE
8
BLACK
6
CONTINUOUS
10
5.7216929133858265
20
-4.2269291338582677
11
5.7214046456692911
21
-4.227625118110236
0
LINE
8
BLACK
6
CONTINUOUS
10
5.7214046456692911
20
-4.227625118110236
11
5.7207086614173228
21
-4.2279133858267715
0
LINE
8
BLACK
6
CONTINUOUS
10
5.7207086614173228
20
-4.2279133858267715
11
5.5592913385826774
21
-4.2279133858267715
0
LINE
8
BLACK
6
CONTINUOUS
10
5.5592913385826774
20
-4.2279133858267715
11
5.5585953543307083
21
-4.227625118110236
0
LINE
8
BLACK
6
CONTINUOUS
10
5.5585953543307083
20
-4.227625118110236
11
5.5583070866141728
21
-4.2269291338582677
0
LINE
8
BLACK
6
CONTINUOUS
10
5.5583070866141728
20
-4.2269291338582677
11
5.5583070866141728
21
-4.0930708661417325
0
LINE
8
BLACK
6
CONTINUOUS
10
5.5583070866141728
20
-4.0930708661417325
11
5.5585027559055113
21
-4.0925984251968499
0
LINE
8
BLACK
6
CONTINUOUS
10
5.5585027559055113
20
-4.0925984251968499
11
5.5514960629921255
21
-4.0925984251968499
0
LINE
8
BLACK
6
CONTINUOUS
10
5.5514960629921255
20
-4.0925984251968499
11
5.5508000787401572
21
-4.0923101574803145
0
LINE
8
BLACK
6
CONTINUOUS
10
5.5508000787401572
20
-4.0923101574803145
11
5.5505118110236218
21
-4.0916141732283462
0
LINE
8
BLACK
6
CONTINUOUS
10
5.5505118110236218
20
-4.0916141732283462
11
5.5505118110236218
21
-4.0183858267716532
0
LINE
8
BLACK
6
CONTINUOUS
10
5.5505118110236218
20
-4.0183858267716532
11
5.5508000787401572
21
-4.017689842519685
0
LINE
8
BLACK
6
CONTINUOUS
10
5.5508000787401572
20
-4.017689842519685
11
5.5514960629921255
21
-4.0174015748031495
0
LINE
8
BLACK
6
CONTINUOUS
10
5.5514960629921255
20
-4.0174015748031495
11
5.5885039370078742
21
-4.0174015748031495
0
LINE
8
BLACK
6
CONTINUOUS
10
5.5602755905511811
20
-4.0940551181102363
11
5.5602755905511811
21
-4.225944881889764
0
LINE
8
BLACK
6
CONTINUOUS
10
5.5602755905511811
20
-4.225944881889764
11
5.7197244094488191
21
-4.225944881889764
0
LINE
8
BLACK
6
CONTINUOUS
10
5.7197244094488191
20
-4.225944881889764
11
5.7197244094488191
21
-4.0940551181102363
0
LINE
8
BLACK
6
CONTINUOUS
10
5.7197244094488191
20
-4.0940551181102363
11
5.5602755905511811
21
-4.0940551181102363
0
LINE
8
BLACK
6
CONTINUOUS
10
5.6274803149606294
20
-4.0193700787401569
11
5.6274803149606294
21
-4.0906299212598425
0
LINE
8
BLACK
6
CONTINUOUS
10
5.6274803149606294
20
-4.0906299212598425
11
5.6625196850393698
21
-4.0906299212598425
0
LINE
8
BLACK
6
CONTINUOUS
10
5.6625196850393698
20
-4.0906299212598425
11
5.6625196850393698
21
-4.0193700787401569
0
LINE
8
BLACK
6
CONTINUOUS
10
5.6625196850393698
20
-4.0193700787401569
11
5.6274803149606294
21
-4.0193700787401569
0
LINE
8
BLACK
6
CONTINUOUS
10
5.5524803149606301
20
-4.0193700787401569
11
5.5524803149606301
21
-4.0906299212598425
0
LINE
8
BLACK
6
CONTINUOUS
10
5.5524803149606301
20
-4.0906299212598425
11
5.5875196850393696
21
-4.0906299212598425
0
LINE
8
BLACK
6
CONTINUOUS
10
5.5875196850393696
20
-4.0906299212598425
11
5.5875196850393696
21
-4.0193700787401569
0
LINE
8
BLACK
6
CONTINUOUS
10
5.5875196850393696
20
-4.0193700787401569
11
5.5524803149606301
21
-4.0193700787401569
0
LINE
8
BLACK
6
CONTINUOUS
10
5.9789763779527556
20
-3.7579133858267717
11
5.9796723622047239
21
-3.7582016535433072
0
LINE
8
BLACK
6
CONTINUOUS
10
5.9796723622047239
20
-3.7582016535433072
11
5.9799606299212593
21
-3.7588976377952754
0
LINE
8
BLACK
6
CONTINUOUS
10
5.9799606299212593
20
-3.7588976377952754
11
5.9799606299212593
21
-4.1305511811023621
0
LINE
8
BLACK
6
CONTINUOUS
10
5.9799606299212593
20
-4.1305511811023621
11
5.9796723622047239
21
-4.1312471653543303
0
LINE
8
BLACK
6
CONTINUOUS
10
5.9796723622047239
20
-4.1312471653543303
11
5.9789763779527556
21
-4.1315354330708658
0
LINE
8
BLACK
6
CONTINUOUS
10
5.9789763779527556
20
-4.1315354330708658
11
5.9261086614173228
21
-4.1315354330708658
0
LINE
8
BLACK
6
CONTINUOUS
10
5.9261086614173228
20
-4.1315354330708658
11
5.9332659055118109
21
-4.1365469685039367
0
LINE
8
BLACK
6
CONTINUOUS
10
5.9332659055118109
20
-4.1365469685039367
11
5.939453031496063
21
-4.1427340944881887
0
LINE
8
BLACK
6
CONTINUOUS
10
5.939453031496063
20
-4.1427340944881887
11
5.9444717322834641
21
-4.1499015748031498
0
LINE
8
BLACK
6
CONTINUOUS
10
5.9444717322834641
20
-4.1499015748031498
11
5.9481696062992127
21
-4.1578316535433073
0
LINE
8
BLACK
6
CONTINUOUS
10
5.9481696062992127
20
-4.1578316535433073
11
5.9504342519685034
21
-4.1662834251968501
0
LINE
8
BLACK
6
CONTINUOUS
10
5.9504342519685034
20
-4.1662834251968501
11
5.9511968503937007
21
-4.1749999999999998
0
LINE
8
BLACK
6
CONTINUOUS
10
5.9511968503937007
20
-4.1749999999999998
11
5.9504342519685034
21
-4.1837165748031495
0
LINE
8
BLACK
6
CONTINUOUS
10
5.9504342519685034
20
-4.1837165748031495
11
5.9481696062992127
21
-4.1921683464566932
0
LINE
8
BLACK
6
CONTINUOUS
10
5.9481696062992127
20
-4.1921683464566932
11
5.9444717322834641
21
-4.2000984251968507
0
LINE
8
BLACK
6
CONTINUOUS
10
5.9444717322834641
20
-4.2000984251968507
11
5.939453031496063
21
-4.2072659055118109
0
LINE
8
BLACK
6
CONTINUOUS
10
5.939453031496063
20
-4.2072659055118109
11
5.9332659055118109
21
-4.213453031496063
0
LINE
8
BLACK
6
CONTINUOUS
10
5.9332659055118109
20
-4.213453031496063
11
5.9260984251968498
21
-4.2184717322834642
0
LINE
8
BLACK
6
CONTINUOUS
10
5.9260984251968498
20
-4.2184717322834642
11
5.9181683464566932
21
-4.2221696062992127
0
LINE
8
BLACK
6
CONTINUOUS
10
5.9181683464566932
20
-4.2221696062992127
11
5.9097165748031495
21
-4.2244342519685034
0
LINE
8
BLACK
6
CONTINUOUS
10
5.9097165748031495
20
-4.2244342519685034
11
5.9009999999999998
21
-4.2251968503937007
0
LINE
8
BLACK
6
CONTINUOUS
10
5.9009999999999998
20
-4.2251968503937007
11
5.8922834251968501
21
-4.2244342519685034
0
LINE
8
BLACK
6
CONTINUOUS
10
5.8922834251968501
20
-4.2244342519685034
11
5.8838316535433073
21
-4.2221696062992127
0
LINE
8
BLACK
6
CONTINUOUS
10
5.8838316535433073
20
-4.2221696062992127
11
5.8759015748031498
21
-4.2184717322834642
0
LINE
8
BLACK
6
CONTINUOUS
10
5.8759015748031498
20
-4.2184717322834642
11
5.8687340944881887
21
-4.213453031496063
0
LINE
8
BLACK
6
CONTINUOUS
10
5.8687340944881887
20
-4.213453031496063
11
5.8625469685039366
21
-4.2072659055118109
0
LINE
8
BLACK
6
CONTINUOUS
10
5.8625469685039366
20
-4.2072659055118109
11
5.8575282677165355
21
-4.2000984251968507
0
LINE
8
BLACK
6
CONTINUOUS
10
5.8575282677165355
20
-4.2000984251968507
11
5.8538303937007869
21
-4.1921683464566932
0
LINE
8
BLACK
6
CONTINUOUS
10
5.8538303937007869
20
-4.1921683464566932
11
5.8515657480314962
21
-4.1837165748031495
0
LINE
8
BLACK
6
CONTINUOUS
10
5.8515657480314962
20
-4.1837165748031495
11
5.8508031496062989
21
-4.1749999999999998
0
LINE
8
BLACK
6
CONTINUOUS
10
5.8508031496062989
20
-4.1749999999999998
11
5.8515657480314962
21
-4.1662834251968501
0
LINE
8
BLACK
6
CONTINUOUS
10
5.8515657480314962
20
-4.1662834251968501
11
5.8538303937007869
21
-4.1578316535433073
0
LINE
8
BLACK
6
CONTINUOUS
10
5.8538303937007869
20
-4.1578316535433073
11
5.8575282677165355
21
-4.1499015748031498
0
LINE
8
BLACK
6
CONTINUOUS
10
5.8575282677165355
20
-4.1499015748031498
11
5.8625469685039366
21
-4.1427340944881887
0
LINE
8
BLACK
6
CONTINUOUS
10
5.8625469685039366
20
-4.1427340944881887
11
5.8687340944881887
21
-4.1365469685039367
0
LINE
8
BLACK
6
CONTINUOUS
10
5.8687340944881887
20
-4.1365469685039367
11
5.8758913385826768
21
-4.1315354330708658
0
LINE
8
BLACK
6
CONTINUOUS
10
5.8758913385826768
20
-4.1315354330708658
11
5.7270078740157482
21
-4.1315354330708658
0
LINE
8
BLACK
6
CONTINUOUS
10
5.7270078740157482
20
-4.1315354330708658
11
5.726311889763779
21
-4.1312471653543303
0
LINE
8
BLACK
6
CONTINUOUS
10
5.726311889763779
20
-4.1312471653543303
11
5.7260236220472436
21
-4.1305511811023621
0
LINE
8
BLACK
6
CONTINUOUS
10
5.7260236220472436
20
-4.1305511811023621
11
5.7260236220472436
21
-3.7588976377952754
0
LINE
8
BLACK
6
CONTINUOUS
10
5.7260236220472436
20
-3.7588976377952754
11
5.726311889763779
21
-3.7582016535433072
0
LINE
8
BLACK
6
CONTINUOUS
10
5.726311889763779
20
-3.7582016535433072
11
5.7270078740157482
21
-3.7579133858267717
0
LINE
8
BLACK
6
CONTINUOUS
10
5.7270078740157482
20
-3.7579133858267717
11
5.9789763779527556
21
-3.7579133858267717
0
LINE
8
BLACK
6
CONTINUOUS
10
5.7279921259842519
20
-3.7598818897637796
11
5.7279921259842519
21
-4.1295669291338584
0
LINE
8
BLACK
6
CONTINUOUS
10
5.7279921259842519
20
-4.1295669291338584
11
5.8801076771653538
21
-4.1295669291338584
0
LINE
8
BLACK
6
CONTINUOUS
10
5.8801076771653538
20
-4.1295669291338584
11
5.8838316535433073
21
-4.127830393700787
0
LINE
8
BLACK
6
CONTINUOUS
10
5.8838316535433073
20
-4.127830393700787
11
5.8922834251968501
21
-4.1255657480314962
0
LINE
8
BLACK
6
CONTINUOUS
10
5.8922834251968501
20
-4.1255657480314962
11
5.9009999999999998
21
-4.1248031496062989
0
LINE
8
BLACK
6
CONTINUOUS
10
5.9009999999999998
20
-4.1248031496062989
11
5.9097165748031495
21
-4.1255657480314962
0
LINE
8
BLACK
6
CONTINUOUS
10
5.9097165748031495
20
-4.1255657480314962
11
5.9181683464566932
21
-4.127830393700787
0
LINE
8
BLACK
6
CONTINUOUS
10
5.9181683464566932
20
-4.127830393700787
11
5.9218923228346458
21
-4.1295669291338584
0
LINE
8
BLACK
6
CONTINUOUS
10
5.9218923228346458
20
-4.1295669291338584
11
5.9779921259842519
21
-4.1295669291338584
0
LINE
8
BLACK
6
CONTINUOUS
10
5.9779921259842519
20
-4.1295669291338584
11
5.9779921259842519
21
-3.7598818897637796
0
LINE
8
BLACK
6
CONTINUOUS
10
5.9779921259842519
20
-3.7598818897637796
11
5.7279921259842519
21
-3.7598818897637796
0
LINE
8
BLACK
6
CONTINUOUS
10
5.8925932283464562
20
-4.1273229527559057
11
5.8844419291338586
21
-4.129507086614173
0
LINE
8
BLACK
6
CONTINUOUS
10
5.8844419291338586
20
-4.129507086614173
11
5.8843135826771649
21
-4.1295669291338584
0
LINE
8
BLACK
6
CONTINUOUS
10
5.8843135826771649
20
-4.1295669291338584
11
5.9176864173228347
21
-4.1295669291338584
0
LINE
8
BLACK
6
CONTINUOUS
10
5.9176864173228347
20
-4.1295669291338584
11
5.9175580708661419
21
-4.129507086614173
0
LINE
8
BLACK
6
CONTINUOUS
10
5.9175580708661419
20
-4.129507086614173
11
5.9094067716535434
21
-4.1273229527559057
0
LINE
8
BLACK
6
CONTINUOUS
10
5.9094067716535434
20
-4.1273229527559057
11
5.9009999999999998
21
-4.1265874409448822
0
LINE
8
BLACK
6
CONTINUOUS
10
5.9009999999999998
20
-4.1265874409448822
11
5.8925932283464562
21
-4.1273229527559057
0
LINE
8
BLACK
6
CONTINUOUS
10
5.8533229527559056
20
-4.1834067716535435
11
5.855507086614173
21
-4.191558070866142
0
LINE
8
BLACK
6
CONTINUOUS
10
5.855507086614173
20
-4.191558070866142
11
5.8590735039370081
21
-4.199206299212598
0
LINE
8
BLACK
6
CONTINUOUS
10
5.8590735039370081
20
-4.199206299212598
11
5.8639138188976379
21
-4.2061189763779527
0
LINE
8
BLACK
6
CONTINUOUS
10
5.8639138188976379
20
-4.2061189763779527
11
5.8698810236220469
21
-4.2120861811023618
0
LINE
8
BLACK
6
CONTINUOUS
10
5.8698810236220469
20
-4.2120861811023618
11
5.8767937007874016
21
-4.2169264960629924
0
LINE
8
BLACK
6
CONTINUOUS
10
5.8767937007874016
20
-4.2169264960629924
11
5.8844419291338586
21
-4.2204929133858267
0
LINE
8
BLACK
6
CONTINUOUS
10
5.8844419291338586
20
-4.2204929133858267
11
5.8925932283464562
21
-4.222677047244094
0
LINE
8
BLACK
6
CONTINUOUS
10
5.8925932283464562
20
-4.222677047244094
11
5.9009999999999998
21
-4.2234125590551184
0
LINE
8
BLACK
6
CONTINUOUS
10
5.9009999999999998
20
-4.2234125590551184
11
5.9094067716535434
21
-4.222677047244094
0
LINE
8
BLACK
6
CONTINUOUS
10
5.9094067716535434
20
-4.222677047244094
11
5.9175580708661419
21
-4.2204929133858267
0
LINE
8
BLACK
6
CONTINUOUS
10
5.9175580708661419
20
-4.2204929133858267
11
5.925206299212598
21
-4.2169264960629924
0
LINE
8
BLACK
6
CONTINUOUS
10
5.925206299212598
20
-4.2169264960629924
11
5.9321189763779527
21
-4.2120861811023618
0
LINE
8
BLACK
6
CONTINUOUS
10
5.9321189763779527
20
-4.2120861811023618
11
5.9380861811023617
21
-4.2061189763779527
0
LINE
8
BLACK
6
CONTINUOUS
10
5.9380861811023617
20
-4.2061189763779527
11
5.9429264960629924
21
-4.199206299212598
0
LINE
8
BLACK
6
CONTINUOUS
10
5.9429264960629924
20
-4.199206299212598
11
5.9464929133858266
21
-4.191558070866142
0
LINE
8
BLACK
6
CONTINUOUS
10
5.9464929133858266
20
-4.191558070866142
11
5.948677047244094
21
-4.1834067716535435
0
LINE
8
BLACK
6
CONTINUOUS
10
5.948677047244094
20
-4.1834067716535435
11
5.9494125590551183
21
-4.1749999999999998
0
LINE
8
BLACK
6
CONTINUOUS
10
5.9494125590551183
20
-4.1749999999999998
11
5.948677047244094
21
-4.1665932283464562
0
LINE
8
BLACK
6
CONTINUOUS
10
5.948677047244094
20
-4.1665932283464562
11
5.9464929133858266
21
-4.1584419291338586
0
LINE
8
BLACK
6
CONTINUOUS
10
5.9464929133858266
20
-4.1584419291338586
11
5.9429264960629924
21
-4.1507937401574804
0
LINE
8
BLACK
6
CONTINUOUS
10
5.9429264960629924
20
-4.1507937401574804
11
5.9380861811023617
21
-4.1438810236220469
0
LINE
8
BLACK
6
CONTINUOUS
10
5.9380861811023617
20
-4.1438810236220469
11
5.9321189763779527
21
-4.1379138188976379
0
LINE
8
BLACK
6
CONTINUOUS
10
5.9321189763779527
20
-4.1379138188976379
11
5.925206299212598
21
-4.1330735039370081
0
LINE
8
BLACK
6
CONTINUOUS
10
5.925206299212598
20
-4.1330735039370081
11
5.9219078740157478
21
-4.1315354330708658
0
LINE
8
BLACK
6
CONTINUOUS
10
5.9219078740157478
20
-4.1315354330708658
11
5.8800921259842518
21
-4.1315354330708658
0
LINE
8
BLACK
6
CONTINUOUS
10
5.8800921259842518
20
-4.1315354330708658
11
5.8767937401574804
21
-4.1330735039370081
0
LINE
8
BLACK
6
CONTINUOUS
10
5.8767937401574804
20
-4.1330735039370081
11
5.8698810236220469
21
-4.1379138188976379
0
LINE
8
BLACK
6
CONTINUOUS
10
5.8698810236220469
20
-4.1379138188976379
11
5.8639138188976379
21
-4.1438810236220469
0
LINE
8
BLACK
6
CONTINUOUS
10
5.8639138188976379
20
-4.1438810236220469
11
5.8590735039370081
21
-4.1507937401574804
0
LINE
8
BLACK
6
CONTINUOUS
10
5.8590735039370081
20
-4.1507937401574804
11
5.855507086614173
21
-4.1584419291338586
0
LINE
8
BLACK
6
CONTINUOUS
10
5.855507086614173
20
-4.1584419291338586
11
5.8533229527559056
21
-4.1665932283464562
0
LINE
8
BLACK
6
CONTINUOUS
10
5.8533229527559056
20
-4.1665932283464562
11
5.8525874409448821
21
-4.1749999999999998
0
LINE
8
BLACK
6
CONTINUOUS
10
5.8525874409448821
20
-4.1749999999999998
11
5.8533229527559056
21
-4.1834067716535435
0
LINE
8
BLACK
6
CONTINUOUS
10
5.769110236220472
20
-4.1411889763779524
11
5.7698062204724412
21
-4.1414772440944878
0
LINE
8
BLACK
6
CONTINUOUS
10
5.7698062204724412
20
-4.1414772440944878
11
5.7700944881889766
21
-4.142173228346457
0
LINE
8
BLACK
6
CONTINUOUS
10
5.7700944881889766
20
-4.142173228346457
11
5.7700944881889766
21
-4.2138267716535429
0
LINE
8
BLACK
6
CONTINUOUS
10
5.7700944881889766
20
-4.2138267716535429
11
5.7698062204724412
21
-4.2145227559055121
0
LINE
8
BLACK
6
CONTINUOUS
10
5.7698062204724412
20
-4.2145227559055121
11
5.769110236220472
21
-4.2148110236220475
0
LINE
8
BLACK
6
CONTINUOUS
10
5.769110236220472
20
-4.2148110236220475
11
5.7328897637795277
21
-4.2148110236220475
0
LINE
8
BLACK
6
CONTINUOUS
10
5.7328897637795277
20
-4.2148110236220475
11
5.7321937795275586
21
-4.2145227559055121
0
LINE
8
BLACK
6
CONTINUOUS
10
5.7321937795275586
20
-4.2145227559055121
11
5.7319055118110231
21
-4.2138267716535429
0
LINE
8
BLACK
6
CONTINUOUS
10
5.7319055118110231
20
-4.2138267716535429
11
5.7319055118110231
21
-4.142173228346457
0
LINE
8
BLACK
6
CONTINUOUS
10
5.7319055118110231
20
-4.142173228346457
11
5.7321937795275586
21
-4.1414772440944878
0
LINE
8
BLACK
6
CONTINUOUS
10
5.7321937795275586
20
-4.1414772440944878
11
5.7328897637795277
21
-4.1411889763779524
0
LINE
8
BLACK
6
CONTINUOUS
10
5.7328897637795277
20
-4.1411889763779524
11
5.769110236220472
21
-4.1411889763779524
0
LINE
8
BLACK
6
CONTINUOUS
10
5.7338740157480315
20
-4.1431574803149607
11
5.7338740157480315
21
-4.2128425196850392
0
LINE
8
BLACK
6
CONTINUOUS
10
5.7338740157480315
20
-4.2128425196850392
11
5.7681259842519683
21
-4.2128425196850392
0
LINE
8
BLACK
6
CONTINUOUS
10
5.7681259842519683
20
-4.2128425196850392
11
5.7681259842519683
21
-4.1431574803149607
0
LINE
8
BLACK
6
CONTINUOUS
10
5.7681259842519683
20
-4.1431574803149607
11
5.7338740157480315
21
-4.1431574803149607
0
LINE
8
BLACK
6
CONTINUOUS
10
5.8131102362204725
20
-4.1411889763779524
11
5.8138062204724408
21
-4.1414772440944878
0
LINE
8
BLACK
6
CONTINUOUS
10
5.8138062204724408
20
-4.1414772440944878
11
5.8140944881889762
21
-4.142173228346457
0
LINE
8
BLACK
6
CONTINUOUS
10
5.8140944881889762
20
-4.142173228346457
11
5.8140944881889762
21
-4.2138267716535429
0
LINE
8
BLACK
6
CONTINUOUS
10
5.8140944881889762
20
-4.2138267716535429
11
5.8138062204724408
21
-4.2145227559055121
0
LINE
8
BLACK
6
CONTINUOUS
10
5.8138062204724408
20
-4.2145227559055121
11
5.8131102362204725
21
-4.2148110236220475
0
LINE
8
BLACK
6
CONTINUOUS
10
5.8131102362204725
20
-4.2148110236220475
11
5.7768897637795273
21
-4.2148110236220475
0
LINE
8
BLACK
6
CONTINUOUS
10
5.7768897637795273
20
-4.2148110236220475
11
5.7761937795275591
21
-4.2145227559055121
0
LINE
8
BLACK
6
CONTINUOUS
10
5.7761937795275591
20
-4.2145227559055121
11
5.7759055118110236
21
-4.2138267716535429
0
LINE
8
BLACK
6
CONTINUOUS
10
5.7759055118110236
20
-4.2138267716535429
11
5.7759055118110236
21
-4.142173228346457
0
LINE
8
BLACK
6
CONTINUOUS
10
5.7759055118110236
20
-4.142173228346457
11
5.7761937795275591
21
-4.1414772440944878
0
LINE
8
BLACK
6
CONTINUOUS
10
5.7761937795275591
20
-4.1414772440944878
11
5.7768897637795273
21
-4.1411889763779524
0
LINE
8
BLACK
6
CONTINUOUS
10
5.7768897637795273
20
-4.1411889763779524
11
5.8131102362204725
21
-4.1411889763779524
0
LINE
8
BLACK
6
CONTINUOUS
10
5.7778740157480311
20
-4.1431574803149607
11
5.7778740157480311
21
-4.2128425196850392
0
LINE
8
BLACK
6
CONTINUOUS
10
5.7778740157480311
20
-4.2128425196850392
11
5.8121259842519688
21
-4.2128425196850392
0
LINE
8
BLACK
6
CONTINUOUS
10
5.8121259842519688
20
-4.2128425196850392
11
5.8121259842519688
21
-4.1431574803149607
0
LINE
8
BLACK
6
CONTINUOUS
10
5.8121259842519688
20
-4.1431574803149607
11
5.7778740157480311
21
-4.1431574803149607
0
LINE
8
BLACK
6
CONTINUOUS
10
5.0185039370078739
20
-4.1324015748031497
11
5.0191999212598422
21
-4.1326898425196852
0
LINE
8
BLACK
6
CONTINUOUS
10
5.0191999212598422
20
-4.1326898425196852
11
5.0194881889763776
21
-4.1333858267716534
0
LINE
8
BLACK
6
CONTINUOUS
10
5.0194881889763776
20
-4.1333858267716534
11
5.0194881889763776
21
-4.2066141732283464
0
LINE
8
BLACK
6
CONTINUOUS
10
5.0194881889763776
20
-4.2066141732283464
11
5.0191999212598422
21
-4.2073101574803147
0
LINE
8
BLACK
6
CONTINUOUS
10
5.0191999212598422
20
-4.2073101574803147
11
5.0185039370078739
21
-4.2075984251968501
0
LINE
8
BLACK
6
CONTINUOUS
10
5.0185039370078739
20
-4.2075984251968501
11
4.9814960629921261
21
-4.2075984251968501
0
LINE
8
BLACK
6
CONTINUOUS
10
4.9814960629921261
20
-4.2075984251968501
11
4.980800078740157
21
-4.2073101574803147
0
LINE
8
BLACK
6
CONTINUOUS
10
4.980800078740157
20
-4.2073101574803147
11
4.9805118110236215
21
-4.2066141732283464
0
LINE
8
BLACK
6
CONTINUOUS
10
4.9805118110236215
20
-4.2066141732283464
11
4.9805118110236215
21
-4.1333858267716534
0
LINE
8
BLACK
6
CONTINUOUS
10
4.9805118110236215
20
-4.1333858267716534
11
4.980800078740157
21
-4.1326898425196852
0
LINE
8
BLACK
6
CONTINUOUS
10
4.980800078740157
20
-4.1326898425196852
11
4.9814960629921261
21
-4.1324015748031497
0
LINE
8
BLACK
6
CONTINUOUS
10
4.9814960629921261
20
-4.1324015748031497
11
5.0185039370078739
21
-4.1324015748031497
0
LINE
8
BLACK
6
CONTINUOUS
10
4.9824803149606298
20
-4.1343700787401572
11
4.9824803149606298
21
-4.2056299212598427
0
LINE
8
BLACK
6
CONTINUOUS
10
4.9824803149606298
20
-4.2056299212598427
11
5.0175196850393702
21
-4.2056299212598427
0
LINE
8
BLACK
6
CONTINUOUS
10
5.0175196850393702
20
-4.2056299212598427
11
5.0175196850393702
21
-4.1343700787401572
0
LINE
8
BLACK
6
CONTINUOUS
10
5.0175196850393702
20
-4.1343700787401572
11
4.9824803149606298
21
-4.1343700787401572
0
LINE
8
BLACK
6
CONTINUOUS
10
5.5381102362204722
20
-4.1131889763779528
11
5.5388062204724404
21
-4.1134772440944882
0
LINE
8
BLACK
6
CONTINUOUS
10
5.5388062204724404
20
-4.1134772440944882
11
5.5390944881889759
21
-4.1141732283464565
0
LINE
8
BLACK
6
CONTINUOUS
10
5.5390944881889759
20
-4.1141732283464565
11
5.5390944881889759
21
-4.1858267716535433
0
LINE
8
BLACK
6
CONTINUOUS
10
5.5390944881889759
20
-4.1858267716535433
11
5.5388062204724404
21
-4.1865227559055116
0
LINE
8
BLACK
6
CONTINUOUS
10
5.5388062204724404
20
-4.1865227559055116
11
5.5381102362204722
21
-4.186811023622047
0
LINE
8
BLACK
6
CONTINUOUS
10
5.5381102362204722
20
-4.186811023622047
11
5.5018897637795279
21
-4.186811023622047
0
LINE
8
BLACK
6
CONTINUOUS
10
5.5018897637795279
20
-4.186811023622047
11
5.5011937795275587
21
-4.1865227559055116
0
LINE
8
BLACK
6
CONTINUOUS
10
5.5011937795275587
20
-4.1865227559055116
11
5.5009055118110233
21
-4.1858267716535433
0
LINE
8
BLACK
6
CONTINUOUS
10
5.5009055118110233
20
-4.1858267716535433
11
5.5009055118110233
21
-4.1141732283464565
0
LINE
8
BLACK
6
CONTINUOUS
10
5.5009055118110233
20
-4.1141732283464565
11
5.5011937795275587
21
-4.1134772440944882
0
LINE
8
BLACK
6
CONTINUOUS
10
5.5011937795275587
20
-4.1134772440944882
11
5.5018897637795279
21
-4.1131889763779528
0
LINE
8
BLACK
6
CONTINUOUS
10
5.5018897637795279
20
-4.1131889763779528
11
5.5381102362204722
21
-4.1131889763779528
0
LINE
8
BLACK
6
CONTINUOUS
10
5.5028740157480316
20
-4.1151574803149602
11
5.5028740157480316
21
-4.1848425196850396
0
LINE
8
BLACK
6
CONTINUOUS
10
5.5028740157480316
20
-4.1848425196850396
11
5.5371259842519684
21
-4.1848425196850396
0
LINE
8
BLACK
6
CONTINUOUS
10
5.5371259842519684
20
-4.1848425196850396
11
5.5371259842519684
21
-4.1151574803149602
0
LINE
8
BLACK
6
CONTINUOUS
10
5.5371259842519684
20
-4.1151574803149602
11
5.5028740157480316
21
-4.1151574803149602
0
LINE
8
BLACK
6
CONTINUOUS
10
5.3811417322834645
20
-4.0281496062992126
11
5.3818377165354327
21
-4.028437874015748
0
LINE
8
BLACK
6
CONTINUOUS
10
5.3818377165354327
20
-4.028437874015748
11
5.3821259842519682
21
-4.0291338582677163
0
LINE
8
BLACK
6
CONTINUOUS
10
5.3821259842519682
20
-4.0291338582677163
11
5.3821259842519682
21
-4.170866141732283
0
LINE
8
BLACK
6
CONTINUOUS
10
5.3821259842519682
20
-4.170866141732283
11
5.3818377165354327
21
-4.1715621259842521
0
LINE
8
BLACK
6
CONTINUOUS
10
5.3818377165354327
20
-4.1715621259842521
11
5.3811417322834645
21
-4.1718503937007876
0
LINE
8
BLACK
6
CONTINUOUS
10
5.3811417322834645
20
-4.1718503937007876
11
5.1488582677165349
21
-4.1718503937007876
0
LINE
8
BLACK
6
CONTINUOUS
10
5.1488582677165349
20
-4.1718503937007876
11
5.1481622834645666
21
-4.1715621259842521
0
LINE
8
BLACK
6
CONTINUOUS
10
5.1481622834645666
20
-4.1715621259842521
11
5.1478740157480312
21
-4.170866141732283
0
LINE
8
BLACK
6
CONTINUOUS
10
5.1478740157480312
20
-4.170866141732283
11
5.1478740157480312
21
-4.0291338582677163
0
LINE
8
BLACK
6
CONTINUOUS
10
5.1478740157480312
20
-4.0291338582677163
11
5.1481622834645666
21
-4.028437874015748
0
LINE
8
BLACK
6
CONTINUOUS
10
5.1481622834645666
20
-4.028437874015748
11
5.1488582677165349
21
-4.0281496062992126
0
LINE
8
BLACK
6
CONTINUOUS
10
5.1488582677165349
20
-4.0281496062992126
11
5.3811417322834645
21
-4.0281496062992126
0
LINE
8
BLACK
6
CONTINUOUS
10
5.1498425196850395
20
-4.03011811023622
11
5.1498425196850395
21
-4.1698818897637793
0
LINE
8
BLACK
6
CONTINUOUS
10
5.1498425196850395
20
-4.1698818897637793
11
5.3801574803149608
21
-4.1698818897637793
0
LINE
8
BLACK
6
CONTINUOUS
10
5.3801574803149608
20
-4.1698818897637793
11
5.3801574803149608
21
-4.03011811023622
0
LINE
8
BLACK
6
CONTINUOUS
10
5.3801574803149608
20
-4.03011811023622
11
5.1498425196850395
21
-4.03011811023622
0
LINE
8
BLACK
6
CONTINUOUS
10
5.0735039370078736
20
-4.0824803149606295
11
5.0741999212598428
21
-4.0827685826771649
0
LINE
8
BLACK
6
CONTINUOUS
10
5.0741999212598428
20
-4.0827685826771649
11
5.0744881889763782
21
-4.0834645669291341
0
LINE
8
BLACK
6
CONTINUOUS
10
5.0744881889763782
20
-4.0834645669291341
11
5.0744881889763782
21
-4.156692913385827
0
LINE
8
BLACK
6
CONTINUOUS
10
5.0744881889763782
20
-4.156692913385827
11
5.0741999212598428
21
-4.1573888976377953
0
LINE
8
BLACK
6
CONTINUOUS
10
5.0741999212598428
20
-4.1573888976377953
11
5.0735039370078736
21
-4.1576771653543307
0
LINE
8
BLACK
6
CONTINUOUS
10
5.0735039370078736
20
-4.1576771653543307
11
5.0364960629921258
21
-4.1576771653543307
0
LINE
8
BLACK
6
CONTINUOUS
10
5.0364960629921258
20
-4.1576771653543307
11
5.0358000787401576
21
-4.1573888976377953
0
LINE
8
BLACK
6
CONTINUOUS
10
5.0358000787401576
20
-4.1573888976377953
11
5.0355118110236221
21
-4.156692913385827
0
LINE
8
BLACK
6
CONTINUOUS
10
5.0355118110236221
20
-4.156692913385827
11
5.0355118110236221
21
-4.0834645669291341
0
LINE
8
BLACK
6
CONTINUOUS
10
5.0355118110236221
20
-4.0834645669291341
11
5.0358000787401576
21
-4.0827685826771649
0
LINE
8
BLACK
6
CONTINUOUS
10
5.0358000787401576
20
-4.0827685826771649
11
5.0364960629921258
21
-4.0824803149606295
0
LINE
8
BLACK
6
CONTINUOUS
10
5.0364960629921258
20
-4.0824803149606295
11
5.0735039370078736
21
-4.0824803149606295
0
LINE
8
BLACK
6
CONTINUOUS
10
5.0374803149606295
20
-4.0844488188976378
11
5.0374803149606295
21
-4.1557086614173224
0
LINE
8
BLACK
6
CONTINUOUS
10
5.0374803149606295
20
-4.1557086614173224
11
5.0725196850393699
21
-4.1557086614173224
0
LINE
8
BLACK
6
CONTINUOUS
10
5.0725196850393699
20
-4.1557086614173224
11
5.0725196850393699
21
-4.0844488188976378
0
LINE
8
BLACK
6
CONTINUOUS
10
5.0725196850393699
20
-4.0844488188976378
11
5.0374803149606295
21
-4.0844488188976378
0
LINE
8
BLACK
6
CONTINUOUS
10
5.4716141732283461
20
-4.1105118110236223
11
5.4723101574803152
21
-4.1108000787401577
0
LINE
8
BLACK
6
CONTINUOUS
10
5.4723101574803152
20
-4.1108000787401577
11
5.4725984251968507
21
-4.111496062992126
0
LINE
8
BLACK
6
CONTINUOUS
10
5.4725984251968507
20
-4.111496062992126
11
5.4725984251968507
21
-4.1485039370078738
0
LINE
8
BLACK
6
CONTINUOUS
10
5.4725984251968507
20
-4.1485039370078738
11
5.4723101574803152
21
-4.149199921259842
0
LINE
8
BLACK
6
CONTINUOUS
10
5.4723101574803152
20
-4.149199921259842
11
5.4716141732283461
21
-4.1494881889763775
0
LINE
8
BLACK
6
CONTINUOUS
10
5.4716141732283461
20
-4.1494881889763775
11
5.3983858267716531
21
-4.1494881889763775
0
LINE
8
BLACK
6
CONTINUOUS
10
5.3983858267716531
20
-4.1494881889763775
11
5.3976898425196849
21
-4.149199921259842
0
LINE
8
BLACK
6
CONTINUOUS
10
5.3976898425196849
20
-4.149199921259842
11
5.3974015748031494
21
-4.1485039370078738
0
LINE
8
BLACK
6
CONTINUOUS
10
5.3974015748031494
20
-4.1485039370078738
11
5.3974015748031494
21
-4.111496062992126
0
LINE
8
BLACK
6
CONTINUOUS
10
5.3974015748031494
20
-4.111496062992126
11
5.3976898425196849
21
-4.1108000787401577
0
LINE
8
BLACK
6
CONTINUOUS
10
5.3976898425196849
20
-4.1108000787401577
11
5.3983858267716531
21
-4.1105118110236223
0
LINE
8
BLACK
6
CONTINUOUS
10
5.3983858267716531
20
-4.1105118110236223
11
5.4716141732283461
21
-4.1105118110236223
0
LINE
8
BLACK
6
CONTINUOUS
10
5.3993700787401577
20
-4.1124803149606297
11
5.3993700787401577
21
-4.1475196850393701
0
LINE
8
BLACK
6
CONTINUOUS
10
5.3993700787401577
20
-4.1475196850393701
11
5.4706299212598424
21
-4.1475196850393701
0
LINE
8
BLACK
6
CONTINUOUS
10
5.4706299212598424
20
-4.1475196850393701
11
5.4706299212598424
21
-4.1124803149606297
0
LINE
8
BLACK
6
CONTINUOUS
10
5.4706299212598424
20
-4.1124803149606297
11
5.3993700787401577
21
-4.1124803149606297
0
LINE
8
BLACK
6
CONTINUOUS
10
4.8735039370078743
20
-4.0724015748031492
11
4.8741999212598426
21
-4.0726898425196847
0
LINE
8
BLACK
6
CONTINUOUS
10
4.8741999212598426
20
-4.0726898425196847
11
4.874488188976378
21
-4.0733858267716538
0
LINE
8
BLACK
6
CONTINUOUS
10
4.874488188976378
20
-4.0733858267716538
11
4.874488188976378
21
-4.1466141732283468
0
LINE
8
BLACK
6
CONTINUOUS
10
4.874488188976378
20
-4.1466141732283468
11
4.8741999212598426
21
-4.1473101574803151
0
LINE
8
BLACK
6
CONTINUOUS
10
4.8741999212598426
20
-4.1473101574803151
11
4.8735039370078743
21
-4.1475984251968505
0
LINE
8
BLACK
6
CONTINUOUS
10
4.8735039370078743
20
-4.1475984251968505
11
4.8364960629921256
21
-4.1475984251968505
0
LINE
8
BLACK
6
CONTINUOUS
10
4.8364960629921256
20
-4.1475984251968505
11
4.8358000787401574
21
-4.1473101574803151
0
LINE
8
BLACK
6
CONTINUOUS
10
4.8358000787401574
20
-4.1473101574803151
11
4.8355118110236219
21
-4.1466141732283468
0
LINE
8
BLACK
6
CONTINUOUS
10
4.8355118110236219
20
-4.1466141732283468
11
4.8355118110236219
21
-4.0733858267716538
0
LINE
8
BLACK
6
CONTINUOUS
10
4.8355118110236219
20
-4.0733858267716538
11
4.8358000787401574
21
-4.0726898425196847
0
LINE
8
BLACK
6
CONTINUOUS
10
4.8358000787401574
20
-4.0726898425196847
11
4.8364960629921256
21
-4.0724015748031492
0
LINE
8
BLACK
6
CONTINUOUS
10
4.8364960629921256
20
-4.0724015748031492
11
4.8735039370078743
21
-4.0724015748031492
0
LINE
8
BLACK
6
CONTINUOUS
10
4.8374803149606302
20
-4.0743700787401576
11
4.8374803149606302
21
-4.1456299212598422
0
LINE
8
BLACK
6
CONTINUOUS
10
4.8374803149606302
20
-4.1456299212598422
11
4.8725196850393697
21
-4.1456299212598422
0
LINE
8
BLACK
6
CONTINUOUS
10
4.8725196850393697
20
-4.1456299212598422
11
4.8725196850393697
21
-4.0743700787401576
0
LINE
8
BLACK
6
CONTINUOUS
10
4.8725196850393697
20
-4.0743700787401576
11
4.8374803149606302
21
-4.0743700787401576
0
LINE
8
BLACK
6
CONTINUOUS
10
5.0208267716535433
20
-4.0859055118110232
11
5.0215227559055116
21
-4.0861937795275587
0
LINE
8
BLACK
6
CONTINUOUS
10
5.0215227559055116
20
-4.0861937795275587
11
5.021811023622047
21
-4.0868897637795278
0
LINE
8
BLACK
6
CONTINUOUS
10
5.021811023622047
20
-4.0868897637795278
11
5.021811023622047
21
-4.1231102362204721
0
LINE
8
BLACK
6
CONTINUOUS
10
5.021811023622047
20
-4.1231102362204721
11
5.0215227559055116
21
-4.1238062204724413
0
LINE
8
BLACK
6
CONTINUOUS
10
5.0215227559055116
20
-4.1238062204724413
11
5.0208267716535433
21
-4.1240944881889767
0
LINE
8
BLACK
6
CONTINUOUS
10
5.0208267716535433
20
-4.1240944881889767
11
4.9491732283464565
21
-4.1240944881889767
0
LINE
8
BLACK
6
CONTINUOUS
10
4.9491732283464565
20
-4.1240944881889767
11
4.9484772440944882
21
-4.1238062204724413
0
LINE
8
BLACK
6
CONTINUOUS
10
4.9484772440944882
20
-4.1238062204724413
11
4.9481889763779527
21
-4.1231102362204721
0
LINE
8
BLACK
6
CONTINUOUS
10
4.9481889763779527
20
-4.1231102362204721
11
4.9481889763779527
21
-4.0868897637795278
0
LINE
8
BLACK
6
CONTINUOUS
10
4.9481889763779527
20
-4.0868897637795278
11
4.9484772440944882
21
-4.0861937795275587
0
LINE
8
BLACK
6
CONTINUOUS
10
4.9484772440944882
20
-4.0861937795275587
11
4.9491732283464565
21
-4.0859055118110232
0
LINE
8
BLACK
6
CONTINUOUS
10
4.9491732283464565
20
-4.0859055118110232
11
5.0208267716535433
21
-4.0859055118110232
0
LINE
8
BLACK
6
CONTINUOUS
10
4.9501574803149602
20
-4.0878740157480316
11
4.9501574803149602
21
-4.1221259842519684
0
LINE
8
BLACK
6
CONTINUOUS
10
4.9501574803149602
20
-4.1221259842519684
11
5.0198425196850396
21
-4.1221259842519684
0
LINE
8
BLACK
6
CONTINUOUS
10
5.0198425196850396
20
-4.1221259842519684
11
5.0198425196850396
21
-4.0878740157480316
0
LINE
8
BLACK
6
CONTINUOUS
10
5.0198425196850396
20
-4.0878740157480316
11
4.9501574803149602
21
-4.0878740157480316
0
LINE
8
BLACK
6
CONTINUOUS
10
5.4716141732283461
20
-4.0655118110236224
11
5.4723101574803152
21
-4.0658000787401578
0
LINE
8
BLACK
6
CONTINUOUS
10
5.4723101574803152
20
-4.0658000787401578
11
5.4725984251968507
21
-4.0664960629921261
0
LINE
8
BLACK
6
CONTINUOUS
10
5.4725984251968507
20
-4.0664960629921261
11
5.4725984251968507
21
-4.1035039370078739
0
LINE
8
BLACK
6
CONTINUOUS
10
5.4725984251968507
20
-4.1035039370078739
11
5.4723101574803152
21
-4.1041999212598421
0
LINE
8
BLACK
6
CONTINUOUS
10
5.4723101574803152
20
-4.1041999212598421
11
5.4716141732283461
21
-4.1044881889763776
0
LINE
8
BLACK
6
CONTINUOUS
10
5.4716141732283461
20
-4.1044881889763776
11
5.3983858267716531
21
-4.1044881889763776
0
LINE
8
BLACK
6
CONTINUOUS
10
5.3983858267716531
20
-4.1044881889763776
11
5.3976898425196849
21
-4.1041999212598421
0
LINE
8
BLACK
6
CONTINUOUS
10
5.3976898425196849
20
-4.1041999212598421
11
5.3974015748031494
21
-4.1035039370078739
0
LINE
8
BLACK
6
CONTINUOUS
10
5.3974015748031494
20
-4.1035039370078739
11
5.3974015748031494
21
-4.0664960629921261
0
LINE
8
BLACK
6
CONTINUOUS
10
5.3974015748031494
20
-4.0664960629921261
11
5.3976898425196849
21
-4.0658000787401578
0
LINE
8
BLACK
6
CONTINUOUS
10
5.3976898425196849
20
-4.0658000787401578
11
5.3983858267716531
21
-4.0655118110236224
0
LINE
8
BLACK
6
CONTINUOUS
10
5.3983858267716531
20
-4.0655118110236224
11
5.4716141732283461
21
-4.0655118110236224
0
LINE
8
BLACK
6
CONTINUOUS
10
5.3993700787401577
20
-4.0674803149606298
11
5.3993700787401577
21
-4.1025196850393701
0
LINE
8
BLACK
6
CONTINUOUS
10
5.3993700787401577
20
-4.1025196850393701
11
5.4706299212598424
21
-4.1025196850393701
0
LINE
8
BLACK
6
CONTINUOUS
10
5.4706299212598424
20
-4.1025196850393701
11
5.4706299212598424
21
-4.0674803149606298
0
LINE
8
BLACK
6
CONTINUOUS
10
5.4706299212598424
20
-4.0674803149606298
11
5.3993700787401577
21
-4.0674803149606298
0
LINE
8
BLACK
6
CONTINUOUS
10
5.5381102362204722
20
-4.0231889763779529
11
5.5388062204724404
21
-4.0234772440944884
0
LINE
8
BLACK
6
CONTINUOUS
10
5.5388062204724404
20
-4.0234772440944884
11
5.5390944881889759
21
-4.0241732283464566
0
LINE
8
BLACK
6
CONTINUOUS
10
5.5390944881889759
20
-4.0241732283464566
11
5.5390944881889759
21
-4.0958267716535435
0
LINE
8
BLACK
6
CONTINUOUS
10
5.5390944881889759
20
-4.0958267716535435
11
5.5388062204724404
21
-4.0965227559055117
0
LINE
8
BLACK
6
CONTINUOUS
10
5.5388062204724404
20
-4.0965227559055117
11
5.5381102362204722
21
-4.0968110236220472
0
LINE
8
BLACK
6
CONTINUOUS
10
5.5381102362204722
20
-4.0968110236220472
11
5.5018897637795279
21
-4.0968110236220472
0
LINE
8
BLACK
6
CONTINUOUS
10
5.5018897637795279
20
-4.0968110236220472
11
5.5011937795275587
21
-4.0965227559055117
0
LINE
8
BLACK
6
CONTINUOUS
10
5.5011937795275587
20
-4.0965227559055117
11
5.5009055118110233
21
-4.0958267716535435
0
LINE
8
BLACK
6
CONTINUOUS
10
5.5009055118110233
20
-4.0958267716535435
11
5.5009055118110233
21
-4.0241732283464566
0
LINE
8
BLACK
6
CONTINUOUS
10
5.5009055118110233
20
-4.0241732283464566
11
5.5011937795275587
21
-4.0234772440944884
0
LINE
8
BLACK
6
CONTINUOUS
10
5.5011937795275587
20
-4.0234772440944884
11
5.5018897637795279
21
-4.0231889763779529
0
LINE
8
BLACK
6
CONTINUOUS
10
5.5018897637795279
20
-4.0231889763779529
11
5.5381102362204722
21
-4.0231889763779529
0
LINE
8
BLACK
6
CONTINUOUS
10
5.5028740157480316
20
-4.0251574803149603
11
5.5028740157480316
21
-4.0948425196850389
0
LINE
8
BLACK
6
CONTINUOUS
10
5.5028740157480316
20
-4.0948425196850389
11
5.5371259842519684
21
-4.0948425196850389
0
LINE
8
BLACK
6
CONTINUOUS
10
5.5371259842519684
20
-4.0948425196850389
11
5.5371259842519684
21
-4.0251574803149603
0
LINE
8
BLACK
6
CONTINUOUS
10
5.5371259842519684
20
-4.0251574803149603
11
5.5028740157480316
21
-4.0251574803149603
0
LINE
8
BLACK
6
CONTINUOUS
10
5.7211417322834643
20
-3.8731496062992123
11
5.7218377165354326
21
-3.8734378740157478
0
LINE
8
BLACK
6
CONTINUOUS
10
5.7218377165354326
20
-3.8734378740157478
11
5.7221259842519681
21
-3.8741338582677165
0
LINE
8
BLACK
6
CONTINUOUS
10
5.7221259842519681
20
-3.8741338582677165
11
5.7221259842519681
21
-4.0158661417322836
0
LINE
8
BLACK
6
CONTINUOUS
10
5.7221259842519681
20
-4.0158661417322836
11
5.7218377165354326
21
-4.0165621259842519
0
LINE
8
BLACK
6
CONTINUOUS
10
5.7218377165354326
20
-4.0165621259842519
11
5.7211417322834643
21
-4.0168503937007873
0
LINE
8
BLACK
6
CONTINUOUS
10
5.7211417322834643
20
-4.0168503937007873
11
5.7089607874015744
21
-4.0168503937007873
0
LINE
8
BLACK
6
CONTINUOUS
10
5.7089607874015744
20
-4.0168503937007873
11
5.7090944881889767
21
-4.017173228346457
0
LINE
8
BLACK
6
CONTINUOUS
10
5.7090944881889767
20
-4.017173228346457
11
5.7090944881889767
21
-4.0888267716535429
0
LINE
8
BLACK
6
CONTINUOUS
10
5.7090944881889767
20
-4.0888267716535429
11
5.7088062204724412
21
-4.0895227559055121
0
LINE
8
BLACK
6
CONTINUOUS
10
5.7088062204724412
20
-4.0895227559055121
11
5.7081102362204721
21
-4.0898110236220475
0
LINE
8
BLACK
6
CONTINUOUS
10
5.7081102362204721
20
-4.0898110236220475
11
5.6718897637795278
21
-4.0898110236220475
0
LINE
8
BLACK
6
CONTINUOUS
10
5.6718897637795278
20
-4.0898110236220475
11
5.6711937795275587
21
-4.0895227559055121
0
LINE
8
BLACK
6
CONTINUOUS
10
5.6711937795275587
20
-4.0895227559055121
11
5.6709055118110232
21
-4.0888267716535429
0
LINE
8
BLACK
6
CONTINUOUS
10
5.6709055118110232
20
-4.0888267716535429
11
5.6709055118110232
21
-4.017173228346457
0
LINE
8
BLACK
6
CONTINUOUS
10
5.6709055118110232
20
-4.017173228346457
11
5.6710392125984255
21
-4.0168503937007873
0
LINE
8
BLACK
6
CONTINUOUS
10
5.6710392125984255
20
-4.0168503937007873
11
5.4888582677165356
21
-4.0168503937007873
0
LINE
8
BLACK
6
CONTINUOUS
10
5.4888582677165356
20
-4.0168503937007873
11
5.4881622834645665
21
-4.0165621259842519
0
LINE
8
BLACK
6
CONTINUOUS
10
5.4881622834645665
20
-4.0165621259842519
11
5.487874015748031
21
-4.0158661417322836
0
LINE
8
BLACK
6
CONTINUOUS
10
5.487874015748031
20
-4.0158661417322836
11
5.487874015748031
21
-3.8741338582677165
0
LINE
8
BLACK
6
CONTINUOUS
10
5.487874015748031
20
-3.8741338582677165
11
5.4881622834645665
21
-3.8734378740157478
0
LINE
8
BLACK
6
CONTINUOUS
10
5.4881622834645665
20
-3.8734378740157478
11
5.4888582677165356
21
-3.8731496062992123
0
LINE
8
BLACK
6
CONTINUOUS
10
5.4888582677165356
20
-3.8731496062992123
11
5.7211417322834643
21
-3.8731496062992123
0
LINE
8
BLACK
6
CONTINUOUS
10
5.6728740157480315
20
-4.0181574803149607
11
5.6728740157480315
21
-4.0878425196850392
0
LINE
8
BLACK
6
CONTINUOUS
10
5.6728740157480315
20
-4.0878425196850392
11
5.7071259842519684
21
-4.0878425196850392
0
LINE
8
BLACK
6
CONTINUOUS
10
5.7071259842519684
20
-4.0878425196850392
11
5.7071259842519684
21
-4.0181574803149607
0
LINE
8
BLACK
6
CONTINUOUS
10
5.7071259842519684
20
-4.0181574803149607
11
5.6728740157480315
21
-4.0181574803149607
0
LINE
8
BLACK
6
CONTINUOUS
10
5.4898425196850393
20
-3.8751181102362202
11
5.4898425196850393
21
-4.014881889763779
0
LINE
8
BLACK
6
CONTINUOUS
10
5.4898425196850393
20
-4.014881889763779
11
5.7201574803149606
21
-4.014881889763779
0
LINE
8
BLACK
6
CONTINUOUS
10
5.7201574803149606
20
-4.014881889763779
11
5.7201574803149606
21
-3.8751181102362202
0
LINE
8
BLACK
6
CONTINUOUS
10
5.7201574803149606
20
-3.8751181102362202
11
5.4898425196850393
21
-3.8751181102362202
0
LINE
8
BLACK
6
CONTINUOUS
10
5.4281102362204727
20
-3.9831889763779529
11
5.428806220472441
21
-3.9834772440944879
0
LINE
8
BLACK
6
CONTINUOUS
10
5.428806220472441
20
-3.9834772440944879
11
5.4290944881889764
21
-3.9841732283464566
0
LINE
8
BLACK
6
CONTINUOUS
10
5.4290944881889764
20
-3.9841732283464566
11
5.4290944881889764
21
-4.0558267716535434
0
LINE
8
BLACK
6
CONTINUOUS
10
5.4290944881889764
20
-4.0558267716535434
11
5.428806220472441
21
-4.0565227559055117
0
LINE
8
BLACK
6
CONTINUOUS
10
5.428806220472441
20
-4.0565227559055117
11
5.4281102362204727
21
-4.0568110236220472
0
LINE
8
BLACK
6
CONTINUOUS
10
5.4281102362204727
20
-4.0568110236220472
11
5.3918897637795276
21
-4.0568110236220472
0
LINE
8
BLACK
6
CONTINUOUS
10
5.3918897637795276
20
-4.0568110236220472
11
5.3911937795275593
21
-4.0565227559055117
0
LINE
8
BLACK
6
CONTINUOUS
10
5.3911937795275593
20
-4.0565227559055117
11
5.3909055118110238
21
-4.0558267716535434
0
LINE
8
BLACK
6
CONTINUOUS
10
5.3909055118110238
20
-4.0558267716535434
11
5.3909055118110238
21
-3.9841732283464566
0
LINE
8
BLACK
6
CONTINUOUS
10
5.3909055118110238
20
-3.9841732283464566
11
5.3911937795275593
21
-3.9834772440944879
0
LINE
8
BLACK
6
CONTINUOUS
10
5.3911937795275593
20
-3.9834772440944879
11
5.3918897637795276
21
-3.9831889763779529
0
LINE
8
BLACK
6
CONTINUOUS
10
5.3918897637795276
20
-3.9831889763779529
11
5.4281102362204727
21
-3.9831889763779529
0
LINE
8
BLACK
6
CONTINUOUS
10
5.3928740157480313
20
-3.9851574803149608
11
5.3928740157480313
21
-4.0548425196850388
0
LINE
8
BLACK
6
CONTINUOUS
10
5.3928740157480313
20
-4.0548425196850388
11
5.4271259842519681
21
-4.0548425196850388
0
LINE
8
BLACK
6
CONTINUOUS
10
5.4271259842519681
20
-4.0548425196850388
11
5.4271259842519681
21
-3.9851574803149608
0
LINE
8
BLACK
6
CONTINUOUS
10
5.4271259842519681
20
-3.9851574803149608
11
5.3928740157480313
21
-3.9851574803149608
0
LINE
8
BLACK
6
CONTINUOUS
10
5.473503937007874
20
-3.9624015748031494
11
5.4741999212598422
21
-3.9626898425196848
0
LINE
8
BLACK
6
CONTINUOUS
10
5.4741999212598422
20
-3.9626898425196848
11
5.4744881889763777
21
-3.9633858267716535
0
LINE
8
BLACK
6
CONTINUOUS
10
5.4744881889763777
20
-3.9633858267716535
11
5.4744881889763777
21
-4.0366141732283465
0
LINE
8
BLACK
6
CONTINUOUS
10
5.4744881889763777
20
-4.0366141732283465
11
5.4741999212598422
21
-4.0373101574803147
0
LINE
8
BLACK
6
CONTINUOUS
10
5.4741999212598422
20
-4.0373101574803147
11
5.473503937007874
21
-4.0375984251968502
0
LINE
8
BLACK
6
CONTINUOUS
10
5.473503937007874
20
-4.0375984251968502
11
5.4364960629921262
21
-4.0375984251968502
0
LINE
8
BLACK
6
CONTINUOUS
10
5.4364960629921262
20
-4.0375984251968502
11
5.435800078740157
21
-4.0373101574803147
0
LINE
8
BLACK
6
CONTINUOUS
10
5.435800078740157
20
-4.0373101574803147
11
5.4355118110236216
21
-4.0366141732283465
0
LINE
8
BLACK
6
CONTINUOUS
10
5.4355118110236216
20
-4.0366141732283465
11
5.4355118110236216
21
-3.9633858267716535
0
LINE
8
BLACK
6
CONTINUOUS
10
5.4355118110236216
20
-3.9633858267716535
11
5.435800078740157
21
-3.9626898425196848
0
LINE
8
BLACK
6
CONTINUOUS
10
5.435800078740157
20
-3.9626898425196848
11
5.4364960629921262
21
-3.9624015748031494
0
LINE
8
BLACK
6
CONTINUOUS
10
5.4364960629921262
20
-3.9624015748031494
11
5.473503937007874
21
-3.9624015748031494
0
LINE
8
BLACK
6
CONTINUOUS
10
5.4374803149606299
20
-3.9643700787401572
11
5.4374803149606299
21
-4.0356299212598428
0
LINE
8
BLACK
6
CONTINUOUS
10
5.4374803149606299
20
-4.0356299212598428
11
5.4725196850393703
21
-4.0356299212598428
0
LINE
8
BLACK
6
CONTINUOUS
10
5.4725196850393703
20
-4.0356299212598428
11
5.4725196850393703
21
-3.9643700787401572
0
LINE
8
BLACK
6
CONTINUOUS
10
5.4725196850393703
20
-3.9643700787401572
11
5.4374803149606299
21
-3.9643700787401572
0
LINE
8
BLACK
6
CONTINUOUS
10
5.2608267716535435
20
-3.9809055118110237
11
5.2615227559055118
21
-3.9811937795275592
0
LINE
8
BLACK
6
CONTINUOUS
10
5.2615227559055118
20
-3.9811937795275592
11
5.2618110236220472
21
-3.9818897637795274
0
LINE
8
BLACK
6
CONTINUOUS
10
5.2618110236220472
20
-3.9818897637795274
11
5.2618110236220472
21
-4.0181102362204726
0
LINE
8
BLACK
6
CONTINUOUS
10
5.2618110236220472
20
-4.0181102362204726
11
5.2615227559055118
21
-4.0188062204724408
0
LINE
8
BLACK
6
CONTINUOUS
10
5.2615227559055118
20
-4.0188062204724408
11
5.2608267716535435
21
-4.0190944881889763
0
LINE
8
BLACK
6
CONTINUOUS
10
5.2608267716535435
20
-4.0190944881889763
11
5.1891732283464567
21
-4.0190944881889763
0
LINE
8
BLACK
6
CONTINUOUS
10
5.1891732283464567
20
-4.0190944881889763
11
5.1884772440944884
21
-4.0188062204724408
0
LINE
8
BLACK
6
CONTINUOUS
10
5.1884772440944884
20
-4.0188062204724408
11
5.188188976377953
21
-4.0181102362204726
0
LINE
8
BLACK
6
CONTINUOUS
10
5.188188976377953
20
-4.0181102362204726
11
5.188188976377953
21
-3.9818897637795274
0
LINE
8
BLACK
6
CONTINUOUS
10
5.188188976377953
20
-3.9818897637795274
11
5.1884772440944884
21
-3.9811937795275592
0
LINE
8
BLACK
6
CONTINUOUS
10
5.1884772440944884
20
-3.9811937795275592
11
5.1891732283464567
21
-3.9809055118110237
0
LINE
8
BLACK
6
CONTINUOUS
10
5.1891732283464567
20
-3.9809055118110237
11
5.2608267716535435
21
-3.9809055118110237
0
LINE
8
BLACK
6
CONTINUOUS
10
5.1901574803149604
20
-3.9828740157480316
11
5.1901574803149604
21
-4.017125984251968
0
LINE
8
BLACK
6
CONTINUOUS
10
5.1901574803149604
20
-4.017125984251968
11
5.2598425196850389
21
-4.017125984251968
0
LINE
8
BLACK
6
CONTINUOUS
10
5.2598425196850389
20
-4.017125984251968
11
5.2598425196850389
21
-3.9828740157480316
0
LINE
8
BLACK
6
CONTINUOUS
10
5.2598425196850389
20
-3.9828740157480316
11
5.1901574803149604
21
-3.9828740157480316
0
LINE
8
BLACK
6
CONTINUOUS
10
5.473503937007874
20
-3.8774015748031494
11
5.4741999212598422
21
-3.8776898425196848
0
LINE
8
BLACK
6
CONTINUOUS
10
5.4741999212598422
20
-3.8776898425196848
11
5.4744881889763777
21
-3.8783858267716536
0
LINE
8
BLACK
6
CONTINUOUS
10
5.4744881889763777
20
-3.8783858267716536
11
5.4744881889763777
21
-3.9516141732283465
0
LINE
8
BLACK
6
CONTINUOUS
10
5.4744881889763777
20
-3.9516141732283465
11
5.4741999212598422
21
-3.9523101574803148
0
LINE
8
BLACK
6
CONTINUOUS
10
5.4741999212598422
20
-3.9523101574803148
11
5.473503937007874
21
-3.9525984251968502
0
LINE
8
BLACK
6
CONTINUOUS
10
5.473503937007874
20
-3.9525984251968502
11
5.4364960629921262
21
-3.9525984251968502
0
LINE
8
BLACK
6
CONTINUOUS
10
5.4364960629921262
20
-3.9525984251968502
11
5.435800078740157
21
-3.9523101574803148
0
LINE
8
BLACK
6
CONTINUOUS
10
5.435800078740157
20
-3.9523101574803148
11
5.4355118110236216
21
-3.9516141732283465
0
LINE
8
BLACK
6
CONTINUOUS
10
5.4355118110236216
20
-3.9516141732283465
11
5.4355118110236216
21
-3.8783858267716536
0
LINE
8
BLACK
6
CONTINUOUS
10
5.4355118110236216
20
-3.8783858267716536
11
5.435800078740157
21
-3.8776898425196848
0
LINE
8
BLACK
6
CONTINUOUS
10
5.435800078740157
20
-3.8776898425196848
11
5.4364960629921262
21
-3.8774015748031494
0
LINE
8
BLACK
6
CONTINUOUS
10
5.4364960629921262
20
-3.8774015748031494
11
5.473503937007874
21
-3.8774015748031494
0
LINE
8
BLACK
6
CONTINUOUS
10
5.4374803149606299
20
-3.8793700787401573
11
5.4374803149606299
21
-3.9506299212598424
0
LINE
8
BLACK
6
CONTINUOUS
10
5.4374803149606299
20
-3.9506299212598424
11
5.4725196850393703
21
-3.9506299212598424
0
LINE
8
BLACK
6
CONTINUOUS
10
5.4725196850393703
20
-3.9506299212598424
11
5.4725196850393703
21
-3.8793700787401573
0
LINE
8
BLACK
6
CONTINUOUS
10
5.4725196850393703
20
-3.8793700787401573
11
5.4374803149606299
21
-3.8793700787401573
0
LINE
8
BLACK
6
CONTINUOUS
10
5.3907086614173227
20
-3.7833070866141729
11
5.391404645669291
21
-3.7835953543307084
0
LINE
8
BLACK
6
CONTINUOUS
10
5.391404645669291
20
-3.7835953543307084
11
5.3916929133858265
21
-3.7842913385826771
0
LINE
8
BLACK
6
CONTINUOUS
10
5.3916929133858265
20
-3.7842913385826771
11
5.3916929133858265
21
-3.9457086614173229
0
LINE
8
BLACK
6
CONTINUOUS
10
5.3916929133858265
20
-3.9457086614173229
11
5.391404645669291
21
-3.9464046456692912
0
LINE
8
BLACK
6
CONTINUOUS
10
5.391404645669291
20
-3.9464046456692912
11
5.3907086614173227
21
-3.9466929133858266
0
LINE
8
BLACK
6
CONTINUOUS
10
5.3907086614173227
20
-3.9466929133858266
11
5.2292913385826774
21
-3.9466929133858266
0
LINE
8
BLACK
6
CONTINUOUS
10
5.2292913385826774
20
-3.9466929133858266
11
5.2285953543307082
21
-3.9464046456692912
0
LINE
8
BLACK
6
CONTINUOUS
10
5.2285953543307082
20
-3.9464046456692912
11
5.2283070866141728
21
-3.9457086614173229
0
LINE
8
BLACK
6
CONTINUOUS
10
5.2283070866141728
20
-3.9457086614173229
11
5.2283070866141728
21
-3.7842913385826771
0
LINE
8
BLACK
6
CONTINUOUS
10
5.2283070866141728
20
-3.7842913385826771
11
5.2285953543307082
21
-3.7835953543307084
0
LINE
8
BLACK
6
CONTINUOUS
10
5.2285953543307082
20
-3.7835953543307084
11
5.2292913385826774
21
-3.7833070866141729
0
LINE
8
BLACK
6
CONTINUOUS
10
5.2292913385826774
20
-3.7833070866141729
11
5.3907086614173227
21
-3.7833070866141729
0
LINE
8
BLACK
6
CONTINUOUS
10
5.2302755905511811
20
-3.7852755905511812
11
5.2302755905511811
21
-3.9447244094488187
0
LINE
8
BLACK
6
CONTINUOUS
10
5.2302755905511811
20
-3.9447244094488187
11
5.389724409448819
21
-3.9447244094488187
0
LINE
8
BLACK
6
CONTINUOUS
10
5.389724409448819
20
-3.9447244094488187
11
5.389724409448819
21
-3.7852755905511812
0
LINE
8
BLACK
6
CONTINUOUS
10
5.389724409448819
20
-3.7852755905511812
11
5.2302755905511811
21
-3.7852755905511812
0
LINE
8
BLACK
6
CONTINUOUS
10
5.540614173228346
20
-3.8285118110236218
11
5.5413101574803152
21
-3.8288000787401573
0
LINE
8
BLACK
6
CONTINUOUS
10
5.5413101574803152
20
-3.8288000787401573
11
5.5415984251968506
21
-3.829496062992126
0
LINE
8
BLACK
6
CONTINUOUS
10
5.5415984251968506
20
-3.829496062992126
11
5.5415984251968506
21
-3.8665039370078738
0
LINE
8
BLACK
6
CONTINUOUS
10
5.5415984251968506
20
-3.8665039370078738
11
5.5413101574803152
21
-3.8671999212598425
0
LINE
8
BLACK
6
CONTINUOUS
10
5.5413101574803152
20
-3.8671999212598425
11
5.540614173228346
21
-3.8674881889763779
0
LINE
8
BLACK
6
CONTINUOUS
10
5.540614173228346
20
-3.8674881889763779
11
5.4673858267716531
21
-3.8674881889763779
0
LINE
8
BLACK
6
CONTINUOUS
10
5.4673858267716531
20
-3.8674881889763779
11
5.4666898425196848
21
-3.8671999212598425
0
LINE
8
BLACK
6
CONTINUOUS
10
5.4666898425196848
20
-3.8671999212598425
11
5.4664015748031494
21
-3.8665039370078738
0
LINE
8
BLACK
6
CONTINUOUS
10
5.4664015748031494
20
-3.8665039370078738
11
5.4664015748031494
21
-3.829496062992126
0
LINE
8
BLACK
6
CONTINUOUS
10
5.4664015748031494
20
-3.829496062992126
11
5.4666898425196848
21
-3.8288000787401573
0
LINE
8
BLACK
6
CONTINUOUS
10
5.4666898425196848
20
-3.8288000787401573
11
5.4673858267716531
21
-3.8285118110236218
0
LINE
8
BLACK
6
CONTINUOUS
10
5.4673858267716531
20
-3.8285118110236218
11
5.540614173228346
21
-3.8285118110236218
0
LINE
8
BLACK
6
CONTINUOUS
10
5.4683700787401577
20
-3.8304803149606297
11
5.4683700787401577
21
-3.86551968503937
0
LINE
8
BLACK
6
CONTINUOUS
10
5.4683700787401577
20
-3.86551968503937
11
5.5396299212598423
21
-3.86551968503937
0
LINE
8
BLACK
6
CONTINUOUS
10
5.5396299212598423
20
-3.86551968503937
11
5.5396299212598423
21
-3.8304803149606297
0
LINE
8
BLACK
6
CONTINUOUS
10
5.5396299212598423
20
-3.8304803149606297
11
5.4683700787401577
21
-3.8304803149606297
0
LINE
8
BLACK
6
CONTINUOUS
10
5.6516141732283467
20
-3.826511811023622
11
5.652310157480315
21
-3.8268000787401575
0
LINE
8
BLACK
6
CONTINUOUS
10
5.652310157480315
20
-3.8268000787401575
11
5.6525984251968504
21
-3.8274960629921257
0
LINE
8
BLACK
6
CONTINUOUS
10
5.6525984251968504
20
-3.8274960629921257
11
5.6525984251968504
21
-3.864503937007874
0
LINE
8
BLACK
6
CONTINUOUS
10
5.6525984251968504
20
-3.864503937007874
11
5.652310157480315
21
-3.8651999212598422
0
LINE
8
BLACK
6
CONTINUOUS
10
5.652310157480315
20
-3.8651999212598422
11
5.6516141732283467
21
-3.8654881889763777
0
LINE
8
BLACK
6
CONTINUOUS
10
5.6516141732283467
20
-3.8654881889763777
11
5.5783858267716537
21
-3.8654881889763777
0
LINE
8
BLACK
6
CONTINUOUS
10
5.5783858267716537
20
-3.8654881889763777
11
5.5776898425196846
21
-3.8651999212598422
0
LINE
8
BLACK
6
CONTINUOUS
10
5.5776898425196846
20
-3.8651999212598422
11
5.5774015748031491
21
-3.864503937007874
0
LINE
8
BLACK
6
CONTINUOUS
10
5.5774015748031491
20
-3.864503937007874
11
5.5774015748031491
21
-3.8274960629921257
0
LINE
8
BLACK
6
CONTINUOUS
10
5.5774015748031491
20
-3.8274960629921257
11
5.5776898425196846
21
-3.8268000787401575
0
LINE
8
BLACK
6
CONTINUOUS
10
5.5776898425196846
20
-3.8268000787401575
11
5.5783858267716537
21
-3.826511811023622
0
LINE
8
BLACK
6
CONTINUOUS
10
5.5783858267716537
20
-3.826511811023622
11
5.6516141732283467
21
-3.826511811023622
0
LINE
8
BLACK
6
CONTINUOUS
10
5.5793700787401574
20
-3.8284803149606299
11
5.5793700787401574
21
-3.8635196850393698
0
LINE
8
BLACK
6
CONTINUOUS
10
5.5793700787401574
20
-3.8635196850393698
11
5.6506299212598421
21
-3.8635196850393698
0
LINE
8
BLACK
6
CONTINUOUS
10
5.6506299212598421
20
-3.8635196850393698
11
5.6506299212598421
21
-3.8284803149606299
0
LINE
8
BLACK
6
CONTINUOUS
10
5.6506299212598421
20
-3.8284803149606299
11
5.5793700787401574
21
-3.8284803149606299
0
LINE
8
BLACK
6
CONTINUOUS
10
5.4421102362204721
20
-3.7871889763779527
11
5.4428062204724412
21
-3.7874772440944882
0
LINE
8
BLACK
6
CONTINUOUS
10
5.4428062204724412
20
-3.7874772440944882
11
5.4430944881889767
21
-3.7881732283464564
0
LINE
8
BLACK
6
CONTINUOUS
10
5.4430944881889767
20
-3.7881732283464564
11
5.4430944881889767
21
-3.8598267716535433
0
LINE
8
BLACK
6
CONTINUOUS
10
5.4430944881889767
20
-3.8598267716535433
11
5.4428062204724412
21
-3.8605227559055115
0
LINE
8
BLACK
6
CONTINUOUS
10
5.4428062204724412
20
-3.8605227559055115
11
5.4421102362204721
21
-3.860811023622047
0
LINE
8
BLACK
6
CONTINUOUS
10
5.4421102362204721
20
-3.860811023622047
11
5.4058897637795278
21
-3.860811023622047
0
LINE
8
BLACK
6
CONTINUOUS
10
5.4058897637795278
20
-3.860811023622047
11
5.4051937795275586
21
-3.8605227559055115
0
LINE
8
BLACK
6
CONTINUOUS
10
5.4051937795275586
20
-3.8605227559055115
11
5.4049055118110232
21
-3.8598267716535433
0
LINE
8
BLACK
6
CONTINUOUS
10
5.4049055118110232
20
-3.8598267716535433
11
5.4049055118110232
21
-3.7881732283464564
0
LINE
8
BLACK
6
CONTINUOUS
10
5.4049055118110232
20
-3.7881732283464564
11
5.4051937795275586
21
-3.7874772440944882
0
LINE
8
BLACK
6
CONTINUOUS
10
5.4051937795275586
20
-3.7874772440944882
11
5.4058897637795278
21
-3.7871889763779527
0
LINE
8
BLACK
6
CONTINUOUS
10
5.4058897637795278
20
-3.7871889763779527
11
5.4421102362204721
21
-3.7871889763779527
0
LINE
8
BLACK
6
CONTINUOUS
10
5.4068740157480315
20
-3.7891574803149606
11
5.4068740157480315
21
-3.8588425196850391
0
LINE
8
BLACK
6
CONTINUOUS
10
5.4068740157480315
20
-3.8588425196850391
11
5.4411259842519684
21
-3.8588425196850391
0
LINE
8
BLACK
6
CONTINUOUS
10
5.4411259842519684
20
-3.8588425196850391
11
5.4411259842519684
21
-3.7891574803149606
0
LINE
8
BLACK
6
CONTINUOUS
10
5.4411259842519684
20
-3.7891574803149606
11
5.4068740157480315
21
-3.7891574803149606
0
LINE
8
BLACK
6
CONTINUOUS
10
5.7215039370078742
20
-3.7474015748031495
11
5.7221999212598424
21
-3.747689842519685
0
LINE
8
BLACK
6
CONTINUOUS
10
5.7221999212598424
20
-3.747689842519685
11
5.7224881889763779
21
-3.7483858267716537
0
LINE
8
BLACK
6
CONTINUOUS
10
5.7224881889763779
20
-3.7483858267716537
11
5.7224881889763779
21
-3.8216141732283462
0
LINE
8
BLACK
6
CONTINUOUS
10
5.7224881889763779
20
-3.8216141732283462
11
5.7221999212598424
21
-3.8223101574803149
0
LINE
8
BLACK
6
CONTINUOUS
10
5.7221999212598424
20
-3.8223101574803149
11
5.7215039370078742
21
-3.8225984251968503
0
LINE
8
BLACK
6
CONTINUOUS
10
5.7215039370078742
20
-3.8225984251968503
11
5.6844960629921255
21
-3.8225984251968503
0
LINE
8
BLACK
6
CONTINUOUS
10
5.6844960629921255
20
-3.8225984251968503
11
5.6838000787401572
21
-3.8223101574803149
0
LINE
8
BLACK
6
CONTINUOUS
10
5.6838000787401572
20
-3.8223101574803149
11
5.6835118110236218
21
-3.8216141732283462
0
LINE
8
BLACK
6
CONTINUOUS
10
5.6835118110236218
20
-3.8216141732283462
11
5.6835118110236218
21
-3.7483858267716537
0
LINE
8
BLACK
6
CONTINUOUS
10
5.6835118110236218
20
-3.7483858267716537
11
5.6838000787401572
21
-3.747689842519685
0
LINE
8
BLACK
6
CONTINUOUS
10
5.6838000787401572
20
-3.747689842519685
11
5.6844960629921255
21
-3.7474015748031495
0
LINE
8
BLACK
6
CONTINUOUS
10
5.6844960629921255
20
-3.7474015748031495
11
5.7215039370078742
21
-3.7474015748031495
0
LINE
8
BLACK
6
CONTINUOUS
10
5.6854803149606301
20
-3.7493700787401574
11
5.6854803149606301
21
-3.8206299212598425
0
LINE
8
BLACK
6
CONTINUOUS
10
5.6854803149606301
20
-3.8206299212598425
11
5.7205196850393696
21
-3.8206299212598425
0
LINE
8
BLACK
6
CONTINUOUS
10
5.7205196850393696
20
-3.8206299212598425
11
5.7205196850393696
21
-3.7493700787401574
0
LINE
8
BLACK
6
CONTINUOUS
10
5.7205196850393696
20
-3.7493700787401574
11
5.6854803149606301
21
-3.7493700787401574
0
LINE
8
BLACK
6
CONTINUOUS
10
5.6157086614173224
20
-3.6670866141732281
11
5.6164046456692915
21
-3.6673748818897636
0
LINE
8
BLACK
6
CONTINUOUS
10
5.6164046456692915
20
-3.6673748818897636
11
5.616692913385827
21
-3.6680708661417323
0
LINE
8
BLACK
6
CONTINUOUS
10
5.616692913385827
20
-3.6680708661417323
11
5.616692913385827
21
-3.8019291338582675
0
LINE
8
BLACK
6
CONTINUOUS
10
5.616692913385827
20
-3.8019291338582675
11
5.6164046456692915
21
-3.8026251181102362
0
LINE
8
BLACK
6
CONTINUOUS
10
5.6164046456692915
20
-3.8026251181102362
11
5.6157086614173224
21
-3.8029133858267716
0
LINE
8
BLACK
6
CONTINUOUS
10
5.6157086614173224
20
-3.8029133858267716
11
5.454291338582677
21
-3.8029133858267716
0
LINE
8
BLACK
6
CONTINUOUS
10
5.454291338582677
20
-3.8029133858267716
11
5.4535953543307087
21
-3.8026251181102362
0
LINE
8
BLACK
6
CONTINUOUS
10
5.4535953543307087
20
-3.8026251181102362
11
5.4533070866141733
21
-3.8019291338582675
0
LINE
8
BLACK
6
CONTINUOUS
10
5.4533070866141733
20
-3.8019291338582675
11
5.4533070866141733
21
-3.6680708661417323
0
LINE
8
BLACK
6
CONTINUOUS
10
5.4533070866141733
20
-3.6680708661417323
11
5.4535953543307087
21
-3.6673748818897636
0
LINE
8
BLACK
6
CONTINUOUS
10
5.4535953543307087
20
-3.6673748818897636
11
5.454291338582677
21
-3.6670866141732281
0
LINE
8
BLACK
6
CONTINUOUS
10
5.454291338582677
20
-3.6670866141732281
11
5.6157086614173224
21
-3.6670866141732281
0
LINE
8
BLACK
6
CONTINUOUS
10
5.4552755905511807
20
-3.669055118110236
11
5.4552755905511807
21
-3.8009448818897638
0
LINE
8
BLACK
6
CONTINUOUS
10
5.4552755905511807
20
-3.8009448818897638
11
5.6147244094488187
21
-3.8009448818897638
0
LINE
8
BLACK
6
CONTINUOUS
10
5.6147244094488187
20
-3.8009448818897638
11
5.6147244094488187
21
-3.669055118110236
0
LINE
8
BLACK
6
CONTINUOUS
10
5.6147244094488187
20
-3.669055118110236
11
5.4552755905511807
21
-3.669055118110236
0
LINE
8
BLACK
6
CONTINUOUS
10
5.2908267716535429
20
-3.7359055118110236
11
5.291522755905512
21
-3.736193779527559
0
LINE
8
BLACK
6
CONTINUOUS
10
5.291522755905512
20
-3.736193779527559
11
5.2918110236220475
21
-3.7368897637795273
0
LINE
8
BLACK
6
CONTINUOUS
10
5.2918110236220475
20
-3.7368897637795273
11
5.2918110236220475
21
-3.7731102362204725
0
LINE
8
BLACK
6
CONTINUOUS
10
5.2918110236220475
20
-3.7731102362204725
11
5.291522755905512
21
-3.7738062204724407
0
LINE
8
BLACK
6
CONTINUOUS
10
5.291522755905512
20
-3.7738062204724407
11
5.2908267716535429
21
-3.7740944881889762
0
LINE
8
BLACK
6
CONTINUOUS
10
5.2908267716535429
20
-3.7740944881889762
11
5.2191732283464569
21
-3.7740944881889762
0
LINE
8
BLACK
6
CONTINUOUS
10
5.2191732283464569
20
-3.7740944881889762
11
5.2184772440944878
21
-3.7738062204724407
0
LINE
8
BLACK
6
CONTINUOUS
10
5.2184772440944878
20
-3.7738062204724407
11
5.2181889763779523
21
-3.7731102362204725
0
LINE
8
BLACK
6
CONTINUOUS
10
5.2181889763779523
20
-3.7731102362204725
11
5.2181889763779523
21
-3.7368897637795273
0
LINE
8
BLACK
6
CONTINUOUS
10
5.2181889763779523
20
-3.7368897637795273
11
5.2184772440944878
21
-3.736193779527559
0
LINE
8
BLACK
6
CONTINUOUS
10
5.2184772440944878
20
-3.736193779527559
11
5.2191732283464569
21
-3.7359055118110236
0
LINE
8
BLACK
6
CONTINUOUS
10
5.2191732283464569
20
-3.7359055118110236
11
5.2908267716535429
21
-3.7359055118110236
0
LINE
8
BLACK
6
CONTINUOUS
10
5.2201574803149606
20
-3.7378740157480315
11
5.2201574803149606
21
-3.7721259842519683
0
LINE
8
BLACK
6
CONTINUOUS
10
5.2201574803149606
20
-3.7721259842519683
11
5.2898425196850392
21
-3.7721259842519683
0
LINE
8
BLACK
6
CONTINUOUS
10
5.2898425196850392
20
-3.7721259842519683
11
5.2898425196850392
21
-3.7378740157480315
0
LINE
8
BLACK
6
CONTINUOUS
10
5.2898425196850392
20
-3.7378740157480315
11
5.2201574803149606
21
-3.7378740157480315
0
LINE
8
BLACK
6
CONTINUOUS
10
5.3988267716535434
20
-3.7339055118110234
11
5.3995227559055117
21
-3.7341937795275588
0
LINE
8
BLACK
6
CONTINUOUS
10
5.3995227559055117
20
-3.7341937795275588
11
5.3998110236220471
21
-3.7348897637795275
0
LINE
8
BLACK
6
CONTINUOUS
10
5.3998110236220471
20
-3.7348897637795275
11
5.3998110236220471
21
-3.7711102362204723
0
LINE
8
BLACK
6
CONTINUOUS
10
5.3998110236220471
20
-3.7711102362204723
11
5.3995227559055117
21
-3.771806220472441
0
LINE
8
BLACK
6
CONTINUOUS
10
5.3995227559055117
20
-3.771806220472441
11
5.3988267716535434
21
-3.7720944881889764
0
LINE
8
BLACK
6
CONTINUOUS
10
5.3988267716535434
20
-3.7720944881889764
11
5.3271732283464566
21
-3.7720944881889764
0
LINE
8
BLACK
6
CONTINUOUS
10
5.3271732283464566
20
-3.7720944881889764
11
5.3264772440944883
21
-3.771806220472441
0
LINE
8
BLACK
6
CONTINUOUS
10
5.3264772440944883
20
-3.771806220472441
11
5.3261889763779529
21
-3.7711102362204723
0
LINE
8
BLACK
6
CONTINUOUS
10
5.3261889763779529
20
-3.7711102362204723
11
5.3261889763779529
21
-3.7348897637795275
0
LINE
8
BLACK
6
CONTINUOUS
10
5.3261889763779529
20
-3.7348897637795275
11
5.3264772440944883
21
-3.7341937795275588
0
LINE
8
BLACK
6
CONTINUOUS
10
5.3264772440944883
20
-3.7341937795275588
11
5.3271732283464566
21
-3.7339055118110234
0
LINE
8
BLACK
6
CONTINUOUS
10
5.3271732283464566
20
-3.7339055118110234
11
5.3988267716535434
21
-3.7339055118110234
0
LINE
8
BLACK
6
CONTINUOUS
10
5.3281574803149603
20
-3.7358740157480312
11
5.3281574803149603
21
-3.7701259842519685
0
LINE
8
BLACK
6
CONTINUOUS
10
5.3281574803149603
20
-3.7701259842519685
11
5.3978425196850388
21
-3.7701259842519685
0
LINE
8
BLACK
6
CONTINUOUS
10
5.3978425196850388
20
-3.7701259842519685
11
5.3978425196850388
21
-3.7358740157480312
0
LINE
8
BLACK
6
CONTINUOUS
10
5.3978425196850388
20
-3.7358740157480312
11
5.3281574803149603
21
-3.7358740157480312
0
LINE
8
BLACK
6
CONTINUOUS
10
5.4481102362204723
20
-3.6881889763779525
11
5.4488062204724406
21
-3.688477244094488
0
LINE
8
BLACK
6
CONTINUOUS
10
5.4488062204724406
20
-3.688477244094488
11
5.449094488188976
21
-3.6891732283464567
0
LINE
8
BLACK
6
CONTINUOUS
10
5.449094488188976
20
-3.6891732283464567
11
5.449094488188976
21
-3.7608267716535431
0
LINE
8
BLACK
6
CONTINUOUS
10
5.449094488188976
20
-3.7608267716535431
11
5.4488062204724406
21
-3.7615227559055118
0
LINE
8
BLACK
6
CONTINUOUS
10
5.4488062204724406
20
-3.7615227559055118
11
5.4481102362204723
21
-3.7618110236220472
0
LINE
8
BLACK
6
CONTINUOUS
10
5.4481102362204723
20
-3.7618110236220472
11
5.4118897637795271
21
-3.7618110236220472
0
LINE
8
BLACK
6
CONTINUOUS
10
5.4118897637795271
20
-3.7618110236220472
11
5.4111937795275589
21
-3.7615227559055118
0
LINE
8
BLACK
6
CONTINUOUS
10
5.4111937795275589
20
-3.7615227559055118
11
5.4109055118110234
21
-3.7608267716535431
0
LINE
8
BLACK
6
CONTINUOUS
10
5.4109055118110234
20
-3.7608267716535431
11
5.4109055118110234
21
-3.6891732283464567
0
LINE
8
BLACK
6
CONTINUOUS
10
5.4109055118110234
20
-3.6891732283464567
11
5.4111937795275589
21
-3.688477244094488
0
LINE
8
BLACK
6
CONTINUOUS
10
5.4111937795275589
20
-3.688477244094488
11
5.4118897637795271
21
-3.6881889763779525
0
LINE
8
BLACK
6
CONTINUOUS
10
5.4118897637795271
20
-3.6881889763779525
11
5.4481102362204723
21
-3.6881889763779525
0
LINE
8
BLACK
6
CONTINUOUS
10
5.4128740157480317
20
-3.6901574803149604
11
5.4128740157480317
21
-3.7598425196850394
0
LINE
8
BLACK
6
CONTINUOUS
10
5.4128740157480317
20
-3.7598425196850394
11
5.4471259842519686
21
-3.7598425196850394
0
LINE
8
BLACK
6
CONTINUOUS
10
5.4471259842519686
20
-3.7598425196850394
11
5.4471259842519686
21
-3.6901574803149604
0
LINE
8
BLACK
6
CONTINUOUS
10
5.4471259842519686
20
-3.6901574803149604
11
5.4128740157480317
21
-3.6901574803149604
0
LINE
8
BLACK
6
CONTINUOUS
10
5.0687165748031493
20
-3.659565748031496
11
5.077168346456693
21
-3.6618303937007872
0
LINE
8
BLACK
6
CONTINUOUS
10
5.077168346456693
20
-3.6618303937007872
11
5.0850984251968505
21
-3.6655282677165353
0
LINE
8
BLACK
6
CONTINUOUS
10
5.0850984251968505
20
-3.6655282677165353
11
5.0922659055118107
21
-3.6705469685039369
0
LINE
8
BLACK
6
CONTINUOUS
10
5.0922659055118107
20
-3.6705469685039369
11
5.0984530314960628
21
-3.676734094488189
0
LINE
8
BLACK
6
CONTINUOUS
10
5.0984530314960628
20
-3.676734094488189
11
5.1034717322834648
21
-3.6839015748031496
0
LINE
8
BLACK
6
CONTINUOUS
10
5.1034717322834648
20
-3.6839015748031496
11
5.1071696062992125
21
-3.6918316535433071
0
LINE
8
BLACK
6
CONTINUOUS
10
5.1071696062992125
20
-3.6918316535433071
11
5.1094342519685041
21
-3.7002834251968504
0
LINE
8
BLACK
6
CONTINUOUS
10
5.1094342519685041
20
-3.7002834251968504
11
5.1101968503937005
21
-3.7090000000000001
0
LINE
8
BLACK
6
CONTINUOUS
10
5.1101968503937005
20
-3.7090000000000001
11
5.1094342519685041
21
-3.7177165748031493
0
LINE
8
BLACK
6
CONTINUOUS
10
5.1094342519685041
20
-3.7177165748031493
11
5.1071696062992125
21
-3.726168346456693
0
LINE
8
BLACK
6
CONTINUOUS
10
5.1071696062992125
20
-3.726168346456693
11
5.1034717322834648
21
-3.7340984251968501
0
LINE
8
BLACK
6
CONTINUOUS
10
5.1034717322834648
20
-3.7340984251968501
11
5.0984530314960628
21
-3.7412659055118112
0
LINE
8
BLACK
6
CONTINUOUS
10
5.0984530314960628
20
-3.7412659055118112
11
5.0922659055118107
21
-3.7474530314960628
0
LINE
8
BLACK
6
CONTINUOUS
10
5.0922659055118107
20
-3.7474530314960628
11
5.0850984251968505
21
-3.7524717322834644
0
LINE
8
BLACK
6
CONTINUOUS
10
5.0850984251968505
20
-3.7524717322834644
11
5.077168346456693
21
-3.7561696062992125
0
LINE
8
BLACK
6
CONTINUOUS
10
5.077168346456693
20
-3.7561696062992125
11
5.0687165748031493
21
-3.7584342519685037
0
LINE
8
BLACK
6
CONTINUOUS
10
5.0687165748031493
20
-3.7584342519685037
11
5.0599999999999996
21
-3.7591968503937006
0
LINE
8
BLACK
6
CONTINUOUS
10
5.0599999999999996
20
-3.7591968503937006
11
5.0512834251968499
21
-3.7584342519685037
0
LINE
8
BLACK
6
CONTINUOUS
10
5.0512834251968499
20
-3.7584342519685037
11
5.0428316535433071
21
-3.7561696062992125
0
LINE
8
BLACK
6
CONTINUOUS
10
5.0428316535433071
20
-3.7561696062992125
11
5.0349015748031496
21
-3.7524717322834644
0
LINE
8
BLACK
6
CONTINUOUS
10
5.0349015748031496
20
-3.7524717322834644
11
5.0277340944881885
21
-3.7474530314960628
0
LINE
8
BLACK
6
CONTINUOUS
10
5.0277340944881885
20
-3.7474530314960628
11
5.0215469685039373
21
-3.7412659055118112
0
LINE
8
BLACK
6
CONTINUOUS
10
5.0215469685039373
20
-3.7412659055118112
11
5.0165282677165353
21
-3.7340984251968501
0
LINE
8
BLACK
6
CONTINUOUS
10
5.0165282677165353
20
-3.7340984251968501
11
5.0128303937007876
21
-3.726168346456693
0
LINE
8
BLACK
6
CONTINUOUS
10
5.0128303937007876
20
-3.726168346456693
11
5.010565748031496
21
-3.7177165748031493
0
LINE
8
BLACK
6
CONTINUOUS
10
5.010565748031496
20
-3.7177165748031493
11
5.0098031496062987
21
-3.7090000000000001
0
LINE
8
BLACK
6
CONTINUOUS
10
5.0098031496062987
20
-3.7090000000000001
11
5.010565748031496
21
-3.7002834251968504
0
LINE
8
BLACK
6
CONTINUOUS
10
5.010565748031496
20
-3.7002834251968504
11
5.0128303937007876
21
-3.6918316535433071
0
LINE
8
BLACK
6
CONTINUOUS
10
5.0128303937007876
20
-3.6918316535433071
11
5.0165282677165353
21
-3.6839015748031496
0
LINE
8
BLACK
6
CONTINUOUS
10
5.0165282677165353
20
-3.6839015748031496
11
5.0215469685039373
21
-3.676734094488189
0
LINE
8
BLACK
6
CONTINUOUS
10
5.0215469685039373
20
-3.676734094488189
11
5.0277340944881885
21
-3.6705469685039369
0
LINE
8
BLACK
6
CONTINUOUS
10
5.0277340944881885
20
-3.6705469685039369
11
5.0349015748031496
21
-3.6655282677165353
0
LINE
8
BLACK
6
CONTINUOUS
10
5.0349015748031496
20
-3.6655282677165353
11
5.0428316535433071
21
-3.6618303937007872
0
LINE
8
BLACK
6
CONTINUOUS
10
5.0428316535433071
20
-3.6618303937007872
11
5.0512834251968499
21
-3.659565748031496
0
LINE
8
BLACK
6
CONTINUOUS
10
5.0512834251968499
20
-3.659565748031496
11
5.0599999999999996
21
-3.6588031496062992
0
LINE
8
BLACK
6
CONTINUOUS
10
5.0599999999999996
20
-3.6588031496062992
11
5.0687165748031493
21
-3.659565748031496
0
LINE
8
BLACK
6
CONTINUOUS
10
5.0123229527559054
20
-3.7174067716535433
11
5.0145070866141728
21
-3.7255580708661418
0
LINE
8
BLACK
6
CONTINUOUS
10
5.0145070866141728
20
-3.7255580708661418
11
5.0180735039370079
21
-3.7332062992125983
0
LINE
8
BLACK
6
CONTINUOUS
10
5.0180735039370079
20
-3.7332062992125983
11
5.0229138188976377
21
-3.7401189763779525
0
LINE
8
BLACK
6
CONTINUOUS
10
5.0229138188976377
20
-3.7401189763779525
11
5.0288810236220467
21
-3.746086181102362
0
LINE
8
BLACK
6
CONTINUOUS
10
5.0288810236220467
20
-3.746086181102362
11
5.0357937007874014
21
-3.7509264960629922
0
LINE
8
BLACK
6
CONTINUOUS
10
5.0357937007874014
20
-3.7509264960629922
11
5.0434419291338584
21
-3.7544929133858265
0
LINE
8
BLACK
6
CONTINUOUS
10
5.0434419291338584
20
-3.7544929133858265
11
5.0515932283464569
21
-3.7566770472440942
0
LINE
8
BLACK
6
CONTINUOUS
10
5.0515932283464569
20
-3.7566770472440942
11
5.0599999999999996
21
-3.7574125590551182
0
LINE
8
BLACK
6
CONTINUOUS
10
5.0599999999999996
20
-3.7574125590551182
11
5.0684067716535433
21
-3.7566770472440942
0
LINE
8
BLACK
6
CONTINUOUS
10
5.0684067716535433
20
-3.7566770472440942
11
5.0765580708661417
21
-3.7544929133858265
0
LINE
8
BLACK
6
CONTINUOUS
10
5.0765580708661417
20
-3.7544929133858265
11
5.0842062992125987
21
-3.7509264960629922
0
LINE
8
BLACK
6
CONTINUOUS
10
5.0842062992125987
20
-3.7509264960629922
11
5.0911189763779525
21
-3.746086181102362
0
LINE
8
BLACK
6
CONTINUOUS
10
5.0911189763779525
20
-3.746086181102362
11
5.0970861811023624
21
-3.7401189763779525
0
LINE
8
BLACK
6
CONTINUOUS
10
5.0970861811023624
20
-3.7401189763779525
11
5.1019264960629922
21
-3.7332062992125983
0
LINE
8
BLACK
6
CONTINUOUS
10
5.1019264960629922
20
-3.7332062992125983
11
5.1054929133858264
21
-3.7255580708661418
0
LINE
8
BLACK
6
CONTINUOUS
10
5.1054929133858264
20
-3.7255580708661418
11
5.1076770472440947
21
-3.7174067716535433
0
LINE
8
BLACK
6
CONTINUOUS
10
5.1076770472440947
20
-3.7174067716535433
11
5.1084125590551182
21
-3.7090000000000001
0
LINE
8
BLACK
6
CONTINUOUS
10
5.1084125590551182
20
-3.7090000000000001
11
5.1076770472440947
21
-3.7005932283464564
0
LINE
8
BLACK
6
CONTINUOUS
10
5.1076770472440947
20
-3.7005932283464564
11
5.1054929133858264
21
-3.6924419291338584
0
LINE
8
BLACK
6
CONTINUOUS
10
5.1054929133858264
20
-3.6924419291338584
11
5.1019264960629922
21
-3.6847937401574802
0
LINE
8
BLACK
6
CONTINUOUS
10
5.1019264960629922
20
-3.6847937401574802
11
5.0970861811023624
21
-3.6778810236220472
0
LINE
8
BLACK
6
CONTINUOUS
10
5.0970861811023624
20
-3.6778810236220472
11
5.0911189763779525
21
-3.6719138188976377
0
LINE
8
BLACK
6
CONTINUOUS
10
5.0911189763779525
20
-3.6719138188976377
11
5.0842062992125987
21
-3.6670735039370079
0
LINE
8
BLACK
6
CONTINUOUS
10
5.0842062992125987
20
-3.6670735039370079
11
5.0765580708661417
21
-3.6635070866141732
0
LINE
8
BLACK
6
CONTINUOUS
10
5.0765580708661417
20
-3.6635070866141732
11
5.0684067716535433
21
-3.6613229527559055
0
LINE
8
BLACK
6
CONTINUOUS
10
5.0684067716535433
20
-3.6613229527559055
11
5.0599999999999996
21
-3.660587440944882
0
LINE
8
BLACK
6
CONTINUOUS
10
5.0599999999999996
20
-3.660587440944882
11
5.0515932283464569
21
-3.6613229527559055
0
LINE
8
BLACK
6
CONTINUOUS
10
5.0515932283464569
20
-3.6613229527559055
11
5.0434419291338584
21
-3.6635070866141732
0
LINE
8
BLACK
6
CONTINUOUS
10
5.0434419291338584
20
-3.6635070866141732
11
5.0357937401574802
21
-3.6670735039370079
0
LINE
8
BLACK
6
CONTINUOUS
10
5.0357937401574802
20
-3.6670735039370079
11
5.0288810236220467
21
-3.6719138188976377
0
LINE
8
BLACK
6
CONTINUOUS
10
5.0288810236220467
20
-3.6719138188976377
11
5.0229138188976377
21
-3.6778810236220472
0
LINE
8
BLACK
6
CONTINUOUS
10
5.0229138188976377
20
-3.6778810236220472
11
5.0180735039370079
21
-3.6847937401574802
0
LINE
8
BLACK
6
CONTINUOUS
10
5.0180735039370079
20
-3.6847937401574802
11
5.0145070866141728
21
-3.6924419291338584
0
LINE
8
BLACK
6
CONTINUOUS
10
5.0145070866141728
20
-3.6924419291338584
11
5.0123229527559054
21
-3.7005932283464564
0
LINE
8
BLACK
6
CONTINUOUS
10
5.0123229527559054
20
-3.7005932283464564
11
5.011587440944882
21
-3.7090000000000001
0
LINE
8
BLACK
6
CONTINUOUS
10
5.011587440944882
20
-3.7090000000000001
11
5.0123229527559054
21
-3.7174067716535433
0
LINE
8
BLACK
6
CONTINUOUS
10
5.6611102362204724
20
-3.6791889763779526
11
5.6618062204724406
21
-3.6794772440944881
0
LINE
8
BLACK
6
CONTINUOUS
10
5.6618062204724406
20
-3.6794772440944881
11
5.6620944881889761
21
-3.6801732283464568
0
LINE
8
BLACK
6
CONTINUOUS
10
5.6620944881889761
20
-3.6801732283464568
11
5.6620944881889761
21
-3.7518267716535432
0
LINE
8
BLACK
6
CONTINUOUS
10
5.6620944881889761
20
-3.7518267716535432
11
5.6618062204724406
21
-3.7525227559055119
0
LINE
8
BLACK
6
CONTINUOUS
10
5.6618062204724406
20
-3.7525227559055119
11
5.6611102362204724
21
-3.7528110236220473
0
LINE
8
BLACK
6
CONTINUOUS
10
5.6611102362204724
20
-3.7528110236220473
11
5.6248897637795272
21
-3.7528110236220473
0
LINE
8
BLACK
6
CONTINUOUS
10
5.6248897637795272
20
-3.7528110236220473
11
5.6241937795275589
21
-3.7525227559055119
0
LINE
8
BLACK
6
CONTINUOUS
10
5.6241937795275589
20
-3.7525227559055119
11
5.6239055118110235
21
-3.7518267716535432
0
LINE
8
BLACK
6
CONTINUOUS
10
5.6239055118110235
20
-3.7518267716535432
11
5.6239055118110235
21
-3.6801732283464568
0
LINE
8
BLACK
6
CONTINUOUS
10
5.6239055118110235
20
-3.6801732283464568
11
5.6241937795275589
21
-3.6794772440944881
0
LINE
8
BLACK
6
CONTINUOUS
10
5.6241937795275589
20
-3.6794772440944881
11
5.6248897637795272
21
-3.6791889763779526
0
LINE
8
BLACK
6
CONTINUOUS
10
5.6248897637795272
20
-3.6791889763779526
11
5.6611102362204724
21
-3.6791889763779526
0
LINE
8
BLACK
6
CONTINUOUS
10
5.6258740157480318
20
-3.6811574803149605
11
5.6258740157480318
21
-3.7508425196850395
0
LINE
8
BLACK
6
CONTINUOUS
10
5.6258740157480318
20
-3.7508425196850395
11
5.6601259842519687
21
-3.7508425196850395
0
LINE
8
BLACK
6
CONTINUOUS
10
5.6601259842519687
20
-3.7508425196850395
11
5.6601259842519687
21
-3.6811574803149605
0
LINE
8
BLACK
6
CONTINUOUS
10
5.6601259842519687
20
-3.6811574803149605
11
5.6258740157480318
21
-3.6811574803149605
0
LINE
8
BLACK
6
CONTINUOUS
10
5.8399606299212596
20
-3.6802755905511808
11
5.8406566141732279
21
-3.6805638582677163
0
LINE
8
BLACK
6
CONTINUOUS
10
5.8406566141732279
20
-3.6805638582677163
11
5.8409448818897634
21
-3.681259842519685
0
LINE
8
BLACK
6
CONTINUOUS
10
5.8409448818897634
20
-3.681259842519685
11
5.8409448818897634
21
-3.738740157480315
0
LINE
8
BLACK
6
CONTINUOUS
10
5.8409448818897634
20
-3.738740157480315
11
5.8406566141732279
21
-3.7394361417322832
0
LINE
8
BLACK
6
CONTINUOUS
10
5.8406566141732279
20
-3.7394361417322832
11
5.8399606299212596
21
-3.7397244094488187
0
LINE
8
BLACK
6
CONTINUOUS
10
5.8399606299212596
20
-3.7397244094488187
11
5.7100393700787402
21
-3.7397244094488187
0
LINE
8
BLACK
6
CONTINUOUS
10
5.7100393700787402
20
-3.7397244094488187
11
5.7093433858267719
21
-3.7394361417322832
0
LINE
8
BLACK
6
CONTINUOUS
10
5.7093433858267719
20
-3.7394361417322832
11
5.7090551181102365
21
-3.738740157480315
0
LINE
8
BLACK
6
CONTINUOUS
10
5.7090551181102365
20
-3.738740157480315
11
5.7090551181102365
21
-3.681259842519685
0
LINE
8
BLACK
6
CONTINUOUS
10
5.7090551181102365
20
-3.681259842519685
11
5.7093433858267719
21
-3.6805638582677163
0
LINE
8
BLACK
6
CONTINUOUS
10
5.7093433858267719
20
-3.6805638582677163
11
5.7100393700787402
21
-3.6802755905511808
0
LINE
8
BLACK
6
CONTINUOUS
10
5.7100393700787402
20
-3.6802755905511808
11
5.8399606299212596
21
-3.6802755905511808
0
LINE
8
BLACK
6
CONTINUOUS
10
5.7110236220472439
20
-3.6822440944881887
11
5.7110236220472439
21
-3.7377559055118108
0
LINE
8
BLACK
6
CONTINUOUS
10
5.7110236220472439
20
-3.7377559055118108
11
5.8389763779527559
21
-3.7377559055118108
0
LINE
8
BLACK
6
CONTINUOUS
10
5.8389763779527559
20
-3.7377559055118108
11
5.8389763779527559
21
-3.6822440944881887
0
LINE
8
BLACK
6
CONTINUOUS
10
5.8389763779527559
20
-3.6822440944881887
11
5.7110236220472439
21
-3.6822440944881887
0
LINE
8
BLACK
6
CONTINUOUS
10
5.9462125984251966
20
-3.6814566929133856
11
5.9469085826771648
21
-3.6817449606299211
0
LINE
8
BLACK
6
CONTINUOUS
10
5.9469085826771648
20
-3.6817449606299211
11
5.9471968503937003
21
-3.6824409448818898
0
LINE
8
BLACK
6
CONTINUOUS
10
5.9471968503937003
20
-3.6824409448818898
11
5.9471968503937003
21
-3.7375590551181102
0
LINE
8
BLACK
6
CONTINUOUS
10
5.9471968503937003
20
-3.7375590551181102
11
5.9469085826771648
21
-3.7382550393700789
0
LINE
8
BLACK
6
CONTINUOUS
10
5.9469085826771648
20
-3.7382550393700789
11
5.9462125984251966
21
-3.7385433070866143
0
LINE
8
BLACK
6
CONTINUOUS
10
5.9462125984251966
20
-3.7385433070866143
11
5.847787401574803
21
-3.7385433070866143
0
LINE
8
BLACK
6
CONTINUOUS
10
5.847787401574803
20
-3.7385433070866143
11
5.8470914173228348
21
-3.7382550393700789
0
LINE
8
BLACK
6
CONTINUOUS
10
5.8470914173228348
20
-3.7382550393700789
11
5.8468031496062993
21
-3.7375590551181102
0
LINE
8
BLACK
6
CONTINUOUS
10
5.8468031496062993
20
-3.7375590551181102
11
5.8468031496062993
21
-3.6824409448818898
0
LINE
8
BLACK
6
CONTINUOUS
10
5.8468031496062993
20
-3.6824409448818898
11
5.8470914173228348
21
-3.6817449606299211
0
LINE
8
BLACK
6
CONTINUOUS
10
5.8470914173228348
20
-3.6817449606299211
11
5.847787401574803
21
-3.6814566929133856
0
LINE
8
BLACK
6
CONTINUOUS
10
5.847787401574803
20
-3.6814566929133856
11
5.9462125984251966
21
-3.6814566929133856
0
LINE
8
BLACK
6
CONTINUOUS
10
5.8487716535433067
20
-3.6834251968503935
11
5.8487716535433067
21
-3.736574803149606
0
LINE
8
BLACK
6
CONTINUOUS
10
5.8487716535433067
20
-3.736574803149606
11
5.9452283464566928
21
-3.736574803149606
0
LINE
8
BLACK
6
CONTINUOUS
10
5.9452283464566928
20
-3.736574803149606
11
5.9452283464566928
21
-3.6834251968503935
0
LINE
8
BLACK
6
CONTINUOUS
10
5.9452283464566928
20
-3.6834251968503935
11
5.8487716535433067
21
-3.6834251968503935
  0
ENDSEC
  0
EOF
