  0
SECTION
  2
HEADER
  9
$ANGBASE
  50
0.0
  9
$ANGDIR
  70
1
  9
$MEASUREMENT
  70
0
  0
ENDSEC
  0
SECTION
  2
TABLES
  0
TABLE
  2
LTYPE
  70
4
  0
LTYPE
  5
40F
  2
CONTINUOUS
  70
0
  3
Solid line
  72
65
  73
0
  40
0.0
  0
LTYPE
  5
410
  2
DASHDOT
 70
0
  3
Dash Dot ____ _ ____ _
 72
65
 73
4
 40
2.0
 49
1.25
 49
-0.25
 49
0.25
 49
-0.25
  0
LTYPE
  5
411
  2
DASHED
 70
0
  3
Dashed __ __ __ __ __
 72
65
 73
2
 40
0.75
 49
0.5
 49
-0.25
  0
LTYPE
  5
43B
  2
DOTTED
 70
0
  3
Dotted .  .  .  .
 72
65
 73
2
 40
0.2
 49
0.0
 49
-0.2
  0
ENDTAB
  0
TABLE
  2
STYLE
  70
4
  0
STYLE
  2
KICAD
  70
0
  40
0
  41
1
  42
1
  50
0
  71
0
  3
isocp.shx
  0
STYLE
  2
KICADB
  70
0
  40
0
  41
1
  42
1
  50
0
  71
0
  3
isocp.shx
  0
STYLE
  2
KICADI
  70
0
  40
0
  41
1
  42
1
  50
15
  71
0
  3
isocp.shx
  0
STYLE
  2
KICADBI
  70
0
  40
0
  41
1
  42
1
  50
15
  71
0
  3
isocp.shx
  0
ENDTAB
  0
TABLE
  2
LAYER
  70
1
  0
LAYER
  2
BLACK
  70
0
  62
7
  6
CONTINUOUS
  0
ENDTAB
  0
ENDSEC
  0
SECTION
  2
ENTITIES
0
LINE
8
BLACK
6
CONTINUOUS
10
5.6399999999999997
20
-4.2190551181102363
11
5.6714960629921256
21
-4.2190551181102363
0
LINE
8
BLACK
6
CONTINUOUS
10
5.6714960629921256
20
-4.2190551181102363
11
5.6731663779527555
21
-4.219747007874016
0
LINE
8
BLACK
6
CONTINUOUS
10
5.6731663779527555
20
-4.219747007874016
11
5.6738582677165352
21
-4.2214173228346459
0
LINE
8
BLACK
6
CONTINUOUS
10
5.6738582677165352
20
-4.2214173228346459
11
5.6731663779527555
21
-4.2230876377952757
0
LINE
8
BLACK
6
CONTINUOUS
10
5.6731663779527555
20
-4.2230876377952757
11
5.6714960629921256
21
-4.2237795275590546
0
LINE
8
BLACK
6
CONTINUOUS
10
5.6714960629921256
20
-4.2237795275590546
11
5.6399999999999997
21
-4.2237795275590546
0
LINE
8
BLACK
6
CONTINUOUS
10
5.6399999999999997
20
-4.2237795275590546
11
5.6085039370078738
21
-4.2237795275590546
0
LINE
8
BLACK
6
CONTINUOUS
10
5.6085039370078738
20
-4.2237795275590546
11
5.6068336220472439
21
-4.2230876377952757
0
LINE
8
BLACK
6
CONTINUOUS
10
5.6068336220472439
20
-4.2230876377952757
11
5.6061417322834641
21
-4.2214173228346459
0
LINE
8
BLACK
6
CONTINUOUS
10
5.6061417322834641
20
-4.2214173228346459
11
5.6068336220472439
21
-4.219747007874016
0
LINE
8
BLACK
6
CONTINUOUS
10
5.6068336220472439
20
-4.219747007874016
11
5.6085039370078738
21
-4.2190551181102363
0
LINE
8
BLACK
6
CONTINUOUS
10
5.6085039370078738
20
-4.2190551181102363
11
5.6399999999999997
21
-4.2190551181102363
0
LINE
8
BLACK
6
CONTINUOUS
10
5.8009158267716536
20
-4.1875029133858268
11
5.8016077165354325
21
-4.1891732283464567
0
LINE
8
BLACK
6
CONTINUOUS
10
5.8016077165354325
20
-4.1891732283464567
11
5.8009158267716536
21
-4.1908435433070865
0
LINE
8
BLACK
6
CONTINUOUS
10
5.8009158267716536
20
-4.1908435433070865
11
5.7992455118110238
21
-4.1915354330708663
0
LINE
8
BLACK
6
CONTINUOUS
10
5.7992455118110238
20
-4.1915354330708663
11
5.7907544881889761
21
-4.1915354330708663
0
LINE
8
BLACK
6
CONTINUOUS
10
5.7907544881889761
20
-4.1915354330708663
11
5.7890841732283462
21
-4.1908435433070865
0
LINE
8
BLACK
6
CONTINUOUS
10
5.7890841732283462
20
-4.1908435433070865
11
5.7883922834645665
21
-4.1891732283464567
0
LINE
8
BLACK
6
CONTINUOUS
10
5.7883922834645665
20
-4.1891732283464567
11
5.7890841732283462
21
-4.1875029133858268
0
LINE
8
BLACK
6
CONTINUOUS
10
5.7890841732283462
20
-4.1875029133858268
11
5.7907544881889761
21
-4.186811023622047
0
LINE
8
BLACK
6
CONTINUOUS
10
5.7907544881889761
20
-4.186811023622047
11
5.7992455118110238
21
-4.186811023622047
0
LINE
8
BLACK
6
CONTINUOUS
10
5.7992455118110238
20
-4.186811023622047
11
5.8009158267716536
21
-4.1875029133858268
0
LINE
8
BLACK
6
CONTINUOUS
10
4.9867096850393704
20
-4.1622808267716538
11
4.9874015748031493
21
-4.1639511417322836
0
LINE
8
BLACK
6
CONTINUOUS
10
4.9874015748031493
20
-4.1639511417322836
11
4.9874015748031493
21
-4.1760488582677162
0
LINE
8
BLACK
6
CONTINUOUS
10
4.9874015748031493
20
-4.1760488582677162
11
4.9867096850393704
21
-4.1777191732283461
0
LINE
8
BLACK
6
CONTINUOUS
10
4.9867096850393704
20
-4.1777191732283461
11
4.9850393700787397
21
-4.1784110629921258
0
LINE
8
BLACK
6
CONTINUOUS
10
4.9850393700787397
20
-4.1784110629921258
11
4.9833690551181098
21
-4.1777191732283461
0
LINE
8
BLACK
6
CONTINUOUS
10
4.9833690551181098
20
-4.1777191732283461
11
4.9826771653543309
21
-4.1760488582677162
0
LINE
8
BLACK
6
CONTINUOUS
10
4.9826771653543309
20
-4.1760488582677162
11
4.9826771653543309
21
-4.1639511417322836
0
LINE
8
BLACK
6
CONTINUOUS
10
4.9826771653543309
20
-4.1639511417322836
11
4.9833690551181098
21
-4.1622808267716538
0
LINE
8
BLACK
6
CONTINUOUS
10
4.9833690551181098
20
-4.1622808267716538
11
4.9850393700787397
21
-4.161588937007874
0
LINE
8
BLACK
6
CONTINUOUS
10
4.9850393700787397
20
-4.161588937007874
11
4.9867096850393704
21
-4.1622808267716538
0
LINE
8
BLACK
6
CONTINUOUS
10
5.0166309448818893
20
-4.1622808267716538
11
5.0173228346456691
21
-4.1639511417322836
0
LINE
8
BLACK
6
CONTINUOUS
10
5.0173228346456691
20
-4.1639511417322836
11
5.0173228346456691
21
-4.1760488582677162
0
LINE
8
BLACK
6
CONTINUOUS
10
5.0173228346456691
20
-4.1760488582677162
11
5.0166309448818893
21
-4.1777191732283461
0
LINE
8
BLACK
6
CONTINUOUS
10
5.0166309448818893
20
-4.1777191732283461
11
5.0149606299212595
21
-4.1784110629921258
0
LINE
8
BLACK
6
CONTINUOUS
10
5.0149606299212595
20
-4.1784110629921258
11
5.0132903149606296
21
-4.1777191732283461
0
LINE
8
BLACK
6
CONTINUOUS
10
5.0132903149606296
20
-4.1777191732283461
11
5.0125984251968498
21
-4.1760488582677162
0
LINE
8
BLACK
6
CONTINUOUS
10
5.0125984251968498
20
-4.1760488582677162
11
5.0125984251968498
21
-4.1639511417322836
0
LINE
8
BLACK
6
CONTINUOUS
10
5.0125984251968498
20
-4.1639511417322836
11
5.0132903149606296
21
-4.1622808267716538
0
LINE
8
BLACK
6
CONTINUOUS
10
5.0132903149606296
20
-4.1622808267716538
11
5.0149606299212595
21
-4.161588937007874
0
LINE
8
BLACK
6
CONTINUOUS
10
5.0149606299212595
20
-4.161588937007874
11
5.0166309448818893
21
-4.1622808267716538
0
LINE
8
BLACK
6
CONTINUOUS
10
5.3257254330708657
20
-4.1621092125984251
11
5.3264173228346454
21
-4.163779527559055
0
LINE
8
BLACK
6
CONTINUOUS
10
5.3264173228346454
20
-4.163779527559055
11
5.3257254330708657
21
-4.1654498425196849
0
LINE
8
BLACK
6
CONTINUOUS
10
5.3257254330708657
20
-4.1654498425196849
11
5.3240551181102358
21
-4.1661417322834646
0
LINE
8
BLACK
6
CONTINUOUS
10
5.3240551181102358
20
-4.1661417322834646
11
5.2059448818897636
21
-4.1661417322834646
0
LINE
8
BLACK
6
CONTINUOUS
10
5.2059448818897636
20
-4.1661417322834646
11
5.2042745669291337
21
-4.1654498425196849
0
LINE
8
BLACK
6
CONTINUOUS
10
5.2042745669291337
20
-4.1654498425196849
11
5.2035826771653539
21
-4.163779527559055
0
LINE
8
BLACK
6
CONTINUOUS
10
5.2035826771653539
20
-4.163779527559055
11
5.2042745669291337
21
-4.1621092125984251
0
LINE
8
BLACK
6
CONTINUOUS
10
5.2042745669291337
20
-4.1621092125984251
11
5.2059448818897636
21
-4.1614173228346454
0
LINE
8
BLACK
6
CONTINUOUS
10
5.2059448818897636
20
-4.1614173228346454
11
5.3240551181102358
21
-4.1614173228346454
0
LINE
8
BLACK
6
CONTINUOUS
10
5.3240551181102358
20
-4.1614173228346454
11
5.3257254330708657
21
-4.1621092125984251
0
LINE
8
BLACK
6
CONTINUOUS
10
5.8009158267716536
20
-4.1591564566929131
11
5.8016077165354325
21
-4.160826771653543
0
LINE
8
BLACK
6
CONTINUOUS
10
5.8016077165354325
20
-4.160826771653543
11
5.8009158267716536
21
-4.1624970866141728
0
LINE
8
BLACK
6
CONTINUOUS
10
5.8009158267716536
20
-4.1624970866141728
11
5.7992455118110238
21
-4.1631889763779526
0
LINE
8
BLACK
6
CONTINUOUS
10
5.7992455118110238
20
-4.1631889763779526
11
5.7907544881889761
21
-4.1631889763779526
0
LINE
8
BLACK
6
CONTINUOUS
10
5.7907544881889761
20
-4.1631889763779526
11
5.7890841732283462
21
-4.1624970866141728
0
LINE
8
BLACK
6
CONTINUOUS
10
5.7890841732283462
20
-4.1624970866141728
11
5.7883922834645665
21
-4.160826771653543
0
LINE
8
BLACK
6
CONTINUOUS
10
5.7883922834645665
20
-4.160826771653543
11
5.7890841732283462
21
-4.1591564566929131
0
LINE
8
BLACK
6
CONTINUOUS
10
5.7890841732283462
20
-4.1591564566929131
11
5.7907544881889761
21
-4.1584645669291334
0
LINE
8
BLACK
6
CONTINUOUS
10
5.7907544881889761
20
-4.1584645669291334
11
5.7992455118110238
21
-4.1584645669291334
0
LINE
8
BLACK
6
CONTINUOUS
10
5.7992455118110238
20
-4.1584645669291334
11
5.8009158267716536
21
-4.1591564566929131
0
LINE
8
BLACK
6
CONTINUOUS
10
5.5074970866141735
20
-4.1440841732283467
11
5.5081889763779524
21
-4.1457544881889765
0
LINE
8
BLACK
6
CONTINUOUS
10
5.5081889763779524
20
-4.1457544881889765
11
5.5081889763779524
21
-4.1542455118110233
0
LINE
8
BLACK
6
CONTINUOUS
10
5.5081889763779524
20
-4.1542455118110233
11
5.5074970866141735
21
-4.1559158267716532
0
LINE
8
BLACK
6
CONTINUOUS
10
5.5074970866141735
20
-4.1559158267716532
11
5.5058267716535436
21
-4.1566077165354329
0
LINE
8
BLACK
6
CONTINUOUS
10
5.5058267716535436
20
-4.1566077165354329
11
5.5041564566929129
21
-4.1559158267716532
0
LINE
8
BLACK
6
CONTINUOUS
10
5.5041564566929129
20
-4.1559158267716532
11
5.503464566929134
21
-4.1542455118110233
0
LINE
8
BLACK
6
CONTINUOUS
10
5.503464566929134
20
-4.1542455118110233
11
5.503464566929134
21
-4.1457544881889765
0
LINE
8
BLACK
6
CONTINUOUS
10
5.503464566929134
20
-4.1457544881889765
11
5.5041564566929129
21
-4.1440841732283467
0
LINE
8
BLACK
6
CONTINUOUS
10
5.5041564566929129
20
-4.1440841732283467
11
5.5058267716535436
21
-4.1433922834645669
0
LINE
8
BLACK
6
CONTINUOUS
10
5.5058267716535436
20
-4.1433922834645669
11
5.5074970866141735
21
-4.1440841732283467
0
LINE
8
BLACK
6
CONTINUOUS
10
5.5358435433070863
20
-4.1440841732283467
11
5.536535433070866
21
-4.1457544881889765
0
LINE
8
BLACK
6
CONTINUOUS
10
5.536535433070866
20
-4.1457544881889765
11
5.536535433070866
21
-4.1542455118110233
0
LINE
8
BLACK
6
CONTINUOUS
10
5.536535433070866
20
-4.1542455118110233
11
5.5358435433070863
21
-4.1559158267716532
0
LINE
8
BLACK
6
CONTINUOUS
10
5.5358435433070863
20
-4.1559158267716532
11
5.5341732283464564
21
-4.1566077165354329
0
LINE
8
BLACK
6
CONTINUOUS
10
5.5341732283464564
20
-4.1566077165354329
11
5.5325029133858266
21
-4.1559158267716532
0
LINE
8
BLACK
6
CONTINUOUS
10
5.5325029133858266
20
-4.1559158267716532
11
5.5318110236220468
21
-4.1542455118110233
0
LINE
8
BLACK
6
CONTINUOUS
10
5.5318110236220468
20
-4.1542455118110233
11
5.5318110236220468
21
-4.1457544881889765
0
LINE
8
BLACK
6
CONTINUOUS
10
5.5318110236220468
20
-4.1457544881889765
11
5.5325029133858266
21
-4.1440841732283467
0
LINE
8
BLACK
6
CONTINUOUS
10
5.5325029133858266
20
-4.1440841732283467
11
5.5341732283464564
21
-4.1433922834645669
0
LINE
8
BLACK
6
CONTINUOUS
10
5.5341732283464564
20
-4.1433922834645669
11
5.5358435433070863
21
-4.1440841732283467
0
LINE
8
BLACK
6
CONTINUOUS
10
5.4427191732283466
20
-4.1432903149606295
11
5.4434110629921255
21
-4.1449606299212594
0
LINE
8
BLACK
6
CONTINUOUS
10
5.4434110629921255
20
-4.1449606299212594
11
5.4427191732283466
21
-4.1466309448818901
0
LINE
8
BLACK
6
CONTINUOUS
10
5.4427191732283466
20
-4.1466309448818901
11
5.4410488582677168
21
-4.147322834645669
0
LINE
8
BLACK
6
CONTINUOUS
10
5.4410488582677168
20
-4.147322834645669
11
5.4289511417322833
21
-4.147322834645669
0
LINE
8
BLACK
6
CONTINUOUS
10
5.4289511417322833
20
-4.147322834645669
11
5.4272808267716535
21
-4.1466309448818901
0
LINE
8
BLACK
6
CONTINUOUS
10
5.4272808267716535
20
-4.1466309448818901
11
5.4265889370078737
21
-4.1449606299212594
0
LINE
8
BLACK
6
CONTINUOUS
10
5.4265889370078737
20
-4.1449606299212594
11
5.4272808267716535
21
-4.1432903149606295
0
LINE
8
BLACK
6
CONTINUOUS
10
5.4272808267716535
20
-4.1432903149606295
11
5.4289511417322833
21
-4.1425984251968506
0
LINE
8
BLACK
6
CONTINUOUS
10
5.4289511417322833
20
-4.1425984251968506
11
5.4410488582677168
21
-4.1425984251968506
0
LINE
8
BLACK
6
CONTINUOUS
10
5.4410488582677168
20
-4.1425984251968506
11
5.4427191732283466
21
-4.1432903149606295
0
LINE
8
BLACK
6
CONTINUOUS
10
5.0417096850393701
20
-4.1123595669291335
11
5.0424015748031499
21
-4.1140298818897634
0
LINE
8
BLACK
6
CONTINUOUS
10
5.0424015748031499
20
-4.1140298818897634
11
5.0424015748031499
21
-4.1261275984251968
0
LINE
8
BLACK
6
CONTINUOUS
10
5.0424015748031499
20
-4.1261275984251968
11
5.0417096850393701
21
-4.1277979133858267
0
LINE
8
BLACK
6
CONTINUOUS
10
5.0417096850393701
20
-4.1277979133858267
11
5.0400393700787403
21
-4.1284898031496065
0
LINE
8
BLACK
6
CONTINUOUS
10
5.0400393700787403
20
-4.1284898031496065
11
5.0383690551181104
21
-4.1277979133858267
0
LINE
8
BLACK
6
CONTINUOUS
10
5.0383690551181104
20
-4.1277979133858267
11
5.0376771653543306
21
-4.1261275984251968
0
LINE
8
BLACK
6
CONTINUOUS
10
5.0376771653543306
20
-4.1261275984251968
11
5.0376771653543306
21
-4.1140298818897634
0
LINE
8
BLACK
6
CONTINUOUS
10
5.0376771653543306
20
-4.1140298818897634
11
5.0383690551181104
21
-4.1123595669291335
0
LINE
8
BLACK
6
CONTINUOUS
10
5.0383690551181104
20
-4.1123595669291335
11
5.0400393700787403
21
-4.1116676771653546
0
LINE
8
BLACK
6
CONTINUOUS
10
5.0400393700787403
20
-4.1116676771653546
11
5.0417096850393701
21
-4.1123595669291335
0
LINE
8
BLACK
6
CONTINUOUS
10
5.0716309448818899
20
-4.1123595669291335
11
5.0723228346456688
21
-4.1140298818897634
0
LINE
8
BLACK
6
CONTINUOUS
10
5.0723228346456688
20
-4.1140298818897634
11
5.0723228346456688
21
-4.1261275984251968
0
LINE
8
BLACK
6
CONTINUOUS
10
5.0723228346456688
20
-4.1261275984251968
11
5.0716309448818899
21
-4.1277979133858267
0
LINE
8
BLACK
6
CONTINUOUS
10
5.0716309448818899
20
-4.1277979133858267
11
5.0699606299212601
21
-4.1284898031496065
0
LINE
8
BLACK
6
CONTINUOUS
10
5.0699606299212601
20
-4.1284898031496065
11
5.0682903149606302
21
-4.1277979133858267
0
LINE
8
BLACK
6
CONTINUOUS
10
5.0682903149606302
20
-4.1277979133858267
11
5.0675984251968504
21
-4.1261275984251968
0
LINE
8
BLACK
6
CONTINUOUS
10
5.0675984251968504
20
-4.1261275984251968
11
5.0675984251968504
21
-4.1140298818897634
0
LINE
8
BLACK
6
CONTINUOUS
10
5.0675984251968504
20
-4.1140298818897634
11
5.0682903149606302
21
-4.1123595669291335
0
LINE
8
BLACK
6
CONTINUOUS
10
5.0682903149606302
20
-4.1123595669291335
11
5.0699606299212601
21
-4.1116676771653546
0
LINE
8
BLACK
6
CONTINUOUS
10
5.0699606299212601
20
-4.1116676771653546
11
5.0716309448818899
21
-4.1123595669291335
0
LINE
8
BLACK
6
CONTINUOUS
10
4.9909158267716531
20
-4.1175029133858265
11
4.9916077165354329
21
-4.1191732283464564
0
LINE
8
BLACK
6
CONTINUOUS
10
4.9916077165354329
20
-4.1191732283464564
11
4.9909158267716531
21
-4.1208435433070862
0
LINE
8
BLACK
6
CONTINUOUS
10
4.9909158267716531
20
-4.1208435433070862
11
4.9892455118110233
21
-4.121535433070866
0
LINE
8
BLACK
6
CONTINUOUS
10
4.9892455118110233
20
-4.121535433070866
11
4.9807544881889765
21
-4.121535433070866
0
LINE
8
BLACK
6
CONTINUOUS
10
4.9807544881889765
20
-4.121535433070866
11
4.9790841732283466
21
-4.1208435433070862
0
LINE
8
BLACK
6
CONTINUOUS
10
4.9790841732283466
20
-4.1208435433070862
11
4.9783922834645669
21
-4.1191732283464564
0
LINE
8
BLACK
6
CONTINUOUS
10
4.9783922834645669
20
-4.1191732283464564
11
4.9790841732283466
21
-4.1175029133858265
0
LINE
8
BLACK
6
CONTINUOUS
10
4.9790841732283466
20
-4.1175029133858265
11
4.9807544881889765
21
-4.1168110236220468
0
LINE
8
BLACK
6
CONTINUOUS
10
4.9807544881889765
20
-4.1168110236220468
11
4.9892455118110233
21
-4.1168110236220468
0
LINE
8
BLACK
6
CONTINUOUS
10
4.9892455118110233
20
-4.1168110236220468
11
4.9909158267716531
21
-4.1175029133858265
0
LINE
8
BLACK
6
CONTINUOUS
10
4.8417096850393699
20
-4.1022808267716533
11
4.8424015748031497
21
-4.1039511417322831
0
LINE
8
BLACK
6
CONTINUOUS
10
4.8424015748031497
20
-4.1039511417322831
11
4.8424015748031497
21
-4.1160488582677166
0
LINE
8
BLACK
6
CONTINUOUS
10
4.8424015748031497
20
-4.1160488582677166
11
4.8417096850393699
21
-4.1177191732283465
0
LINE
8
BLACK
6
CONTINUOUS
10
4.8417096850393699
20
-4.1177191732283465
11
4.8400393700787401
21
-4.1184110629921262
0
LINE
8
BLACK
6
CONTINUOUS
10
4.8400393700787401
20
-4.1184110629921262
11
4.8383690551181102
21
-4.1177191732283465
0
LINE
8
BLACK
6
CONTINUOUS
10
4.8383690551181102
20
-4.1177191732283465
11
4.8376771653543305
21
-4.1160488582677166
0
LINE
8
BLACK
6
CONTINUOUS
10
4.8376771653543305
20
-4.1160488582677166
11
4.8376771653543305
21
-4.1039511417322831
0
LINE
8
BLACK
6
CONTINUOUS
10
4.8376771653543305
20
-4.1039511417322831
11
4.8383690551181102
21
-4.1022808267716533
0
LINE
8
BLACK
6
CONTINUOUS
10
4.8383690551181102
20
-4.1022808267716533
11
4.8400393700787401
21
-4.1015889370078735
0
LINE
8
BLACK
6
CONTINUOUS
10
4.8400393700787401
20
-4.1015889370078735
11
4.8417096850393699
21
-4.1022808267716533
0
LINE
8
BLACK
6
CONTINUOUS
10
4.8716309448818897
20
-4.1022808267716533
11
4.8723228346456695
21
-4.1039511417322831
0
LINE
8
BLACK
6
CONTINUOUS
10
4.8723228346456695
20
-4.1039511417322831
11
4.8723228346456695
21
-4.1160488582677166
0
LINE
8
BLACK
6
CONTINUOUS
10
4.8723228346456695
20
-4.1160488582677166
11
4.8716309448818897
21
-4.1177191732283465
0
LINE
8
BLACK
6
CONTINUOUS
10
4.8716309448818897
20
-4.1177191732283465
11
4.8699606299212599
21
-4.1184110629921262
0
LINE
8
BLACK
6
CONTINUOUS
10
4.8699606299212599
20
-4.1184110629921262
11
4.86829031496063
21
-4.1177191732283465
0
LINE
8
BLACK
6
CONTINUOUS
10
4.86829031496063
20
-4.1177191732283465
11
4.8675984251968503
21
-4.1160488582677166
0
LINE
8
BLACK
6
CONTINUOUS
10
4.8675984251968503
20
-4.1160488582677166
11
4.8675984251968503
21
-4.1039511417322831
0
LINE
8
BLACK
6
CONTINUOUS
10
4.8675984251968503
20
-4.1039511417322831
11
4.86829031496063
21
-4.1022808267716533
0
LINE
8
BLACK
6
CONTINUOUS
10
4.86829031496063
20
-4.1022808267716533
11
4.8699606299212599
21
-4.1015889370078735
0
LINE
8
BLACK
6
CONTINUOUS
10
4.8699606299212599
20
-4.1015889370078735
11
4.8716309448818897
21
-4.1022808267716533
0
LINE
8
BLACK
6
CONTINUOUS
10
5.4427191732283466
20
-4.1133690551181106
11
5.4434110629921255
21
-4.1150393700787404
0
LINE
8
BLACK
6
CONTINUOUS
10
5.4434110629921255
20
-4.1150393700787404
11
5.4427191732283466
21
-4.1167096850393703
0
LINE
8
BLACK
6
CONTINUOUS
10
5.4427191732283466
20
-4.1167096850393703
11
5.4410488582677168
21
-4.1174015748031492
0
LINE
8
BLACK
6
CONTINUOUS
10
5.4410488582677168
20
-4.1174015748031492
11
5.4289511417322833
21
-4.1174015748031492
0
LINE
8
BLACK
6
CONTINUOUS
10
5.4289511417322833
20
-4.1174015748031492
11
5.4272808267716535
21
-4.1167096850393703
0
LINE
8
BLACK
6
CONTINUOUS
10
5.4272808267716535
20
-4.1167096850393703
11
5.4265889370078737
21
-4.1150393700787404
0
LINE
8
BLACK
6
CONTINUOUS
10
5.4265889370078737
20
-4.1150393700787404
11
5.4272808267716535
21
-4.1133690551181106
0
LINE
8
BLACK
6
CONTINUOUS
10
5.4272808267716535
20
-4.1133690551181106
11
5.4289511417322833
21
-4.1126771653543308
0
LINE
8
BLACK
6
CONTINUOUS
10
5.4289511417322833
20
-4.1126771653543308
11
5.4410488582677168
21
-4.1126771653543308
0
LINE
8
BLACK
6
CONTINUOUS
10
5.4410488582677168
20
-4.1126771653543308
11
5.4427191732283466
21
-4.1133690551181106
0
LINE
8
BLACK
6
CONTINUOUS
10
5.7943474803149604
20
-4.0389202362204726
11
5.7950393700787401
21
-4.0405905511811024
0
LINE
8
BLACK
6
CONTINUOUS
10
5.7950393700787401
20
-4.0405905511811024
11
5.7950393700787401
21
-4.1090944881889762
0
LINE
8
BLACK
6
CONTINUOUS
10
5.7950393700787401
20
-4.1090944881889762
11
5.8497637795275592
21
-4.1090944881889762
0
LINE
8
BLACK
6
CONTINUOUS
10
5.8497637795275592
20
-4.1090944881889762
11
5.8514340944881891
21
-4.1097863779527559
0
LINE
8
BLACK
6
CONTINUOUS
10
5.8514340944881891
20
-4.1097863779527559
11
5.8521259842519679
21
-4.1114566929133858
0
LINE
8
BLACK
6
CONTINUOUS
10
5.8521259842519679
20
-4.1114566929133858
11
5.8514340944881891
21
-4.1131270078740156
0
LINE
8
BLACK
6
CONTINUOUS
10
5.8514340944881891
20
-4.1131270078740156
11
5.8497637795275592
21
-4.1138188976377954
0
LINE
8
BLACK
6
CONTINUOUS
10
5.8497637795275592
20
-4.1138188976377954
11
5.7926771653543305
21
-4.1138188976377954
0
LINE
8
BLACK
6
CONTINUOUS
10
5.7926771653543305
20
-4.1138188976377954
11
5.7910068503937007
21
-4.1131270078740156
0
LINE
8
BLACK
6
CONTINUOUS
10
5.7910068503937007
20
-4.1131270078740156
11
5.7903149606299209
21
-4.1114566929133858
0
LINE
8
BLACK
6
CONTINUOUS
10
5.7903149606299209
20
-4.1114566929133858
11
5.7903149606299209
21
-4.0405905511811024
0
LINE
8
BLACK
6
CONTINUOUS
10
5.7903149606299209
20
-4.0405905511811024
11
5.7910068503937007
21
-4.0389202362204726
0
LINE
8
BLACK
6
CONTINUOUS
10
5.7910068503937007
20
-4.0389202362204726
11
5.7926771653543305
21
-4.0382283464566928
0
LINE
8
BLACK
6
CONTINUOUS
10
5.7926771653543305
20
-4.0382283464566928
11
5.7943474803149604
21
-4.0389202362204726
0
LINE
8
BLACK
6
CONTINUOUS
10
5.4427191732283466
20
-4.0982903149606296
11
5.4434110629921255
21
-4.0999606299212594
0
LINE
8
BLACK
6
CONTINUOUS
10
5.4434110629921255
20
-4.0999606299212594
11
5.4427191732283466
21
-4.1016309448818893
0
LINE
8
BLACK
6
CONTINUOUS
10
5.4427191732283466
20
-4.1016309448818893
11
5.4410488582677168
21
-4.102322834645669
0
LINE
8
BLACK
6
CONTINUOUS
10
5.4410488582677168
20
-4.102322834645669
11
5.4289511417322833
21
-4.102322834645669
0
LINE
8
BLACK
6
CONTINUOUS
10
5.4289511417322833
20
-4.102322834645669
11
5.4272808267716535
21
-4.1016309448818893
0
LINE
8
BLACK
6
CONTINUOUS
10
5.4272808267716535
20
-4.1016309448818893
11
5.4265889370078737
21
-4.0999606299212594
0
LINE
8
BLACK
6
CONTINUOUS
10
5.4265889370078737
20
-4.0999606299212594
11
5.4272808267716535
21
-4.0982903149606296
0
LINE
8
BLACK
6
CONTINUOUS
10
5.4272808267716535
20
-4.0982903149606296
11
5.4289511417322833
21
-4.0975984251968507
0
LINE
8
BLACK
6
CONTINUOUS
10
5.4289511417322833
20
-4.0975984251968507
11
5.4410488582677168
21
-4.0975984251968507
0
LINE
8
BLACK
6
CONTINUOUS
10
5.4410488582677168
20
-4.0975984251968507
11
5.4427191732283466
21
-4.0982903149606296
0
LINE
8
BLACK
6
CONTINUOUS
10
5.6399999999999997
20
-4.0962204724409448
11
5.710866141732283
21
-4.0962204724409448
0
LINE
8
BLACK
6
CONTINUOUS
10
5.710866141732283
20
-4.0962204724409448
11
5.7125364566929129
21
-4.0969123622047245
0
LINE
8
BLACK
6
CONTINUOUS
10
5.7125364566929129
20
-4.0969123622047245
11
5.7132283464566926
21
-4.0985826771653544
0
LINE
8
BLACK
6
CONTINUOUS
10
5.7132283464566926
20
-4.0985826771653544
11
5.7125364566929129
21
-4.1002529921259843
0
LINE
8
BLACK
6
CONTINUOUS
10
5.7125364566929129
20
-4.1002529921259843
11
5.710866141732283
21
-4.100944881889764
0
LINE
8
BLACK
6
CONTINUOUS
10
5.710866141732283
20
-4.100944881889764
11
5.6399999999999997
21
-4.100944881889764
0
LINE
8
BLACK
6
CONTINUOUS
10
5.6399999999999997
20
-4.100944881889764
11
5.6085039370078738
21
-4.100944881889764
0
LINE
8
BLACK
6
CONTINUOUS
10
5.6085039370078738
20
-4.100944881889764
11
5.6068336220472439
21
-4.1002529921259843
0
LINE
8
BLACK
6
CONTINUOUS
10
5.6068336220472439
20
-4.1002529921259843
11
5.6061417322834641
21
-4.0985826771653544
0
LINE
8
BLACK
6
CONTINUOUS
10
5.6061417322834641
20
-4.0985826771653544
11
5.6068336220472439
21
-4.0969123622047245
0
LINE
8
BLACK
6
CONTINUOUS
10
5.6068336220472439
20
-4.0969123622047245
11
5.6085039370078738
21
-4.0962204724409448
0
LINE
8
BLACK
6
CONTINUOUS
10
5.6085039370078738
20
-4.0962204724409448
11
5.6399999999999997
21
-4.0962204724409448
0
LINE
8
BLACK
6
CONTINUOUS
10
4.9909158267716531
20
-4.0891564566929137
11
4.9916077165354329
21
-4.0908267716535436
0
LINE
8
BLACK
6
CONTINUOUS
10
4.9916077165354329
20
-4.0908267716535436
11
4.9909158267716531
21
-4.0924970866141734
0
LINE
8
BLACK
6
CONTINUOUS
10
4.9909158267716531
20
-4.0924970866141734
11
4.9892455118110233
21
-4.0931889763779523
0
LINE
8
BLACK
6
CONTINUOUS
10
4.9892455118110233
20
-4.0931889763779523
11
4.9807544881889765
21
-4.0931889763779523
0
LINE
8
BLACK
6
CONTINUOUS
10
4.9807544881889765
20
-4.0931889763779523
11
4.9790841732283466
21
-4.0924970866141734
0
LINE
8
BLACK
6
CONTINUOUS
10
4.9790841732283466
20
-4.0924970866141734
11
4.9783922834645669
21
-4.0908267716535436
0
LINE
8
BLACK
6
CONTINUOUS
10
4.9783922834645669
20
-4.0908267716535436
11
4.9790841732283466
21
-4.0891564566929137
0
LINE
8
BLACK
6
CONTINUOUS
10
4.9790841732283466
20
-4.0891564566929137
11
4.9807544881889765
21
-4.088464566929134
0
LINE
8
BLACK
6
CONTINUOUS
10
4.9807544881889765
20
-4.088464566929134
11
4.9892455118110233
21
-4.088464566929134
0
LINE
8
BLACK
6
CONTINUOUS
10
4.9892455118110233
20
-4.088464566929134
11
4.9909158267716531
21
-4.0891564566929137
0
LINE
8
BLACK
6
CONTINUOUS
10
5.4427191732283466
20
-4.0683690551181098
11
5.4434110629921255
21
-4.0700393700787405
0
LINE
8
BLACK
6
CONTINUOUS
10
5.4434110629921255
20
-4.0700393700787405
11
5.4427191732283466
21
-4.0717096850393704
0
LINE
8
BLACK
6
CONTINUOUS
10
5.4427191732283466
20
-4.0717096850393704
11
5.4410488582677168
21
-4.0724015748031492
0
LINE
8
BLACK
6
CONTINUOUS
10
5.4410488582677168
20
-4.0724015748031492
11
5.4289511417322833
21
-4.0724015748031492
0
LINE
8
BLACK
6
CONTINUOUS
10
5.4289511417322833
20
-4.0724015748031492
11
5.4272808267716535
21
-4.0717096850393704
0
LINE
8
BLACK
6
CONTINUOUS
10
5.4272808267716535
20
-4.0717096850393704
11
5.4265889370078737
21
-4.0700393700787405
0
LINE
8
BLACK
6
CONTINUOUS
10
5.4265889370078737
20
-4.0700393700787405
11
5.4272808267716535
21
-4.0683690551181098
0
LINE
8
BLACK
6
CONTINUOUS
10
5.4272808267716535
20
-4.0683690551181098
11
5.4289511417322833
21
-4.0676771653543309
0
LINE
8
BLACK
6
CONTINUOUS
10
5.4289511417322833
20
-4.0676771653543309
11
5.4410488582677168
21
-4.0676771653543309
0
LINE
8
BLACK
6
CONTINUOUS
10
5.4410488582677168
20
-4.0676771653543309
11
5.4427191732283466
21
-4.0683690551181098
0
LINE
8
BLACK
6
CONTINUOUS
10
5.5074970866141735
20
-4.0540841732283468
11
5.5081889763779524
21
-4.0557544881889767
0
LINE
8
BLACK
6
CONTINUOUS
10
5.5081889763779524
20
-4.0557544881889767
11
5.5081889763779524
21
-4.0642455118110234
0
LINE
8
BLACK
6
CONTINUOUS
10
5.5081889763779524
20
-4.0642455118110234
11
5.5074970866141735
21
-4.0659158267716533
0
LINE
8
BLACK
6
CONTINUOUS
10
5.5074970866141735
20
-4.0659158267716533
11
5.5058267716535436
21
-4.0666077165354331
0
LINE
8
BLACK
6
CONTINUOUS
10
5.5058267716535436
20
-4.0666077165354331
11
5.5041564566929129
21
-4.0659158267716533
0
LINE
8
BLACK
6
CONTINUOUS
10
5.5041564566929129
20
-4.0659158267716533
11
5.503464566929134
21
-4.0642455118110234
0
LINE
8
BLACK
6
CONTINUOUS
10
5.503464566929134
20
-4.0642455118110234
11
5.503464566929134
21
-4.0557544881889767
0
LINE
8
BLACK
6
CONTINUOUS
10
5.503464566929134
20
-4.0557544881889767
11
5.5041564566929129
21
-4.0540841732283468
0
LINE
8
BLACK
6
CONTINUOUS
10
5.5041564566929129
20
-4.0540841732283468
11
5.5058267716535436
21
-4.053392283464567
0
LINE
8
BLACK
6
CONTINUOUS
10
5.5058267716535436
20
-4.053392283464567
11
5.5074970866141735
21
-4.0540841732283468
0
LINE
8
BLACK
6
CONTINUOUS
10
5.5358435433070863
20
-4.0540841732283468
11
5.536535433070866
21
-4.0557544881889767
0
LINE
8
BLACK
6
CONTINUOUS
10
5.536535433070866
20
-4.0557544881889767
11
5.536535433070866
21
-4.0642455118110234
0
LINE
8
BLACK
6
CONTINUOUS
10
5.536535433070866
20
-4.0642455118110234
11
5.5358435433070863
21
-4.0659158267716533
0
LINE
8
BLACK
6
CONTINUOUS
10
5.5358435433070863
20
-4.0659158267716533
11
5.5341732283464564
21
-4.0666077165354331
0
LINE
8
BLACK
6
CONTINUOUS
10
5.5341732283464564
20
-4.0666077165354331
11
5.5325029133858266
21
-4.0659158267716533
0
LINE
8
BLACK
6
CONTINUOUS
10
5.5325029133858266
20
-4.0659158267716533
11
5.5318110236220468
21
-4.0642455118110234
0
LINE
8
BLACK
6
CONTINUOUS
10
5.5318110236220468
20
-4.0642455118110234
11
5.5318110236220468
21
-4.0557544881889767
0
LINE
8
BLACK
6
CONTINUOUS
10
5.5318110236220468
20
-4.0557544881889767
11
5.5325029133858266
21
-4.0540841732283468
0
LINE
8
BLACK
6
CONTINUOUS
10
5.5325029133858266
20
-4.0540841732283468
11
5.5341732283464564
21
-4.053392283464567
0
LINE
8
BLACK
6
CONTINUOUS
10
5.5341732283464564
20
-4.053392283464567
11
5.5358435433070863
21
-4.0540841732283468
0
LINE
8
BLACK
6
CONTINUOUS
10
5.5853874803149601
20
-4.0191866929133857
11
5.5855227165354329
21
-4.0193001574803144
0
LINE
8
BLACK
6
CONTINUOUS
10
5.5855227165354329
20
-4.0193001574803144
11
5.5856980708661412
21
-4.0193203543307083
0
LINE
8
BLACK
6
CONTINUOUS
10
5.5856980708661412
20
-4.0193203543307083
11
5.5894475984251963
21
-4.0211951181102359
0
LINE
8
BLACK
6
CONTINUOUS
10
5.5894475984251963
20
-4.0211951181102359
11
5.5901566535433069
21
-4.0217210236220469
0
LINE
8
BLACK
6
CONTINUOUS
10
5.5901566535433069
20
-4.0217210236220469
11
5.5902149999999997
21
-4.021748228346457
0
LINE
8
BLACK
6
CONTINUOUS
10
5.5902149999999997
20
-4.021748228346457
11
5.5920897637795273
21
-4.0236229921259845
0
LINE
8
BLACK
6
CONTINUOUS
10
5.5920897637795273
20
-4.0236229921259845
11
5.5923477559055117
21
-4.0239914566929134
0
LINE
8
BLACK
6
CONTINUOUS
10
5.5923477559055117
20
-4.0239914566929134
11
5.5924587007874011
21
-4.0240729921259843
0
LINE
8
BLACK
6
CONTINUOUS
10
5.5924587007874011
20
-4.0240729921259843
11
5.5962082283464563
21
-4.0296973228346458
0
LINE
8
BLACK
6
CONTINUOUS
10
5.5962082283464563
20
-4.0296973228346458
11
5.5966065354330707
21
-4.0306050393700783
0
LINE
8
BLACK
6
CONTINUOUS
10
5.5966065354330707
20
-4.0306050393700783
11
5.5966159842519687
21
-4.0306190551181098
0
LINE
8
BLACK
6
CONTINUOUS
10
5.5966159842519687
20
-4.0306190551181098
11
5.5984907480314963
21
-4.03811811023622
0
LINE
8
BLACK
6
CONTINUOUS
10
5.5984907480314963
20
-4.03811811023622
11
5.5985322047244095
21
-4.0387059842519681
0
LINE
8
BLACK
6
CONTINUOUS
10
5.5985322047244095
20
-4.0387059842519681
11
5.598578897637795
21
-4.0388342519685034
0
LINE
8
BLACK
6
CONTINUOUS
10
5.598578897637795
20
-4.0388342519685034
11
5.598578897637795
21
-4.0538323622047248
0
LINE
8
BLACK
6
CONTINUOUS
10
5.598578897637795
20
-4.0538323622047248
11
5.5984008267716536
21
-4.0548422834645672
0
LINE
8
BLACK
6
CONTINUOUS
10
5.5984008267716536
20
-4.0548422834645672
11
5.5982873228346453
21
-4.0549775196850391
0
LINE
8
BLACK
6
CONTINUOUS
10
5.5982873228346453
20
-4.0549775196850391
11
5.598267165354331
21
-4.0551528740157483
0
LINE
8
BLACK
6
CONTINUOUS
10
5.598267165354331
20
-4.0551528740157483
11
5.5963924015748034
21
-4.0589024015748034
0
LINE
8
BLACK
6
CONTINUOUS
10
5.5963924015748034
20
-4.0589024015748034
11
5.5958664566929128
21
-4.0596114566929131
0
LINE
8
BLACK
6
CONTINUOUS
10
5.5958664566929128
20
-4.0596114566929131
11
5.5958392913385824
21
-4.0596698031496059
0
LINE
8
BLACK
6
CONTINUOUS
10
5.5958392913385824
20
-4.0596698031496059
11
5.5939645669291336
21
-4.0615445669291335
0
LINE
8
BLACK
6
CONTINUOUS
10
5.5939645669291336
20
-4.0615445669291335
11
5.5932413779527561
21
-4.0620509448818893
0
LINE
8
BLACK
6
CONTINUOUS
10
5.5932413779527561
20
-4.0620509448818893
11
5.5931971259842514
21
-4.0620977165354333
0
LINE
8
BLACK
6
CONTINUOUS
10
5.5931971259842514
20
-4.0620977165354333
11
5.5894475984251963
21
-4.0639724803149608
0
LINE
8
BLACK
6
CONTINUOUS
10
5.5894475984251963
20
-4.0639724803149608
11
5.5884646456692915
21
-4.0642648425196848
0
LINE
8
BLACK
6
CONTINUOUS
10
5.5884646456692915
20
-4.0642648425196848
11
5.5882929527559053
21
-4.0642238188976378
0
LINE
8
BLACK
6
CONTINUOUS
10
5.5882929527559053
20
-4.0642238188976378
11
5.5881270866141728
21
-4.0642842125984249
0
LINE
8
BLACK
6
CONTINUOUS
10
5.5881270866141728
20
-4.0642842125984249
11
5.5806280314960626
21
-4.0642842125984249
0
LINE
8
BLACK
6
CONTINUOUS
10
5.5806280314960626
20
-4.0642842125984249
11
5.5796181102362201
21
-4.0641061417322835
0
LINE
8
BLACK
6
CONTINUOUS
10
5.5796181102362201
20
-4.0641061417322835
11
5.5794828346456695
21
-4.0639926377952751
0
LINE
8
BLACK
6
CONTINUOUS
10
5.5794828346456695
20
-4.0639926377952751
11
5.579307519685039
21
-4.0639724803149608
0
LINE
8
BLACK
6
CONTINUOUS
10
5.579307519685039
20
-4.0639724803149608
11
5.5755579921259839
21
-4.0620977165354333
0
LINE
8
BLACK
6
CONTINUOUS
10
5.5755579921259839
20
-4.0620977165354333
11
5.5748488582677167
21
-4.0615717322834648
0
LINE
8
BLACK
6
CONTINUOUS
10
5.5748488582677167
20
-4.0615717322834648
11
5.5747905511811027
21
-4.0615445669291335
0
LINE
8
BLACK
6
CONTINUOUS
10
5.5747905511811027
20
-4.0615445669291335
11
5.5729157874015751
21
-4.0596697637795272
0
LINE
8
BLACK
6
CONTINUOUS
10
5.5729157874015751
20
-4.0596697637795272
11
5.5724094881889759
21
-4.0589466929133859
0
LINE
8
BLACK
6
CONTINUOUS
10
5.5724094881889759
20
-4.0589466929133859
11
5.5723627165354328
21
-4.0589024015748034
0
LINE
8
BLACK
6
CONTINUOUS
10
5.5723627165354328
20
-4.0589024015748034
11
5.5704879527559052
21
-4.0551528740157483
0
LINE
8
BLACK
6
CONTINUOUS
10
5.5704879527559052
20
-4.0551528740157483
11
5.5701955905511813
21
-4.0541699212598425
0
LINE
8
BLACK
6
CONTINUOUS
10
5.5701955905511813
20
-4.0541699212598425
11
5.5702365748031495
21
-4.0539982283464564
0
LINE
8
BLACK
6
CONTINUOUS
10
5.5702365748031495
20
-4.0539982283464564
11
5.5701762204724412
21
-4.0538323622047248
0
LINE
8
BLACK
6
CONTINUOUS
10
5.5701762204724412
20
-4.0538323622047248
11
5.5701762204724412
21
-4.0444585433070861
0
LINE
8
BLACK
6
CONTINUOUS
10
5.5701762204724412
20
-4.0444585433070861
11
5.5703542913385826
21
-4.0434486220472436
0
LINE
8
BLACK
6
CONTINUOUS
10
5.5703542913385826
20
-4.0434486220472436
11
5.5704677559055114
21
-4.043313346456693
0
LINE
8
BLACK
6
CONTINUOUS
10
5.5704677559055114
20
-4.043313346456693
11
5.5704879527559052
21
-4.0431380314960625
0
LINE
8
BLACK
6
CONTINUOUS
10
5.5704879527559052
20
-4.0431380314960625
11
5.5723627165354328
21
-4.0393885039370074
0
LINE
8
BLACK
6
CONTINUOUS
10
5.5723627165354328
20
-4.0393885039370074
11
5.5728886220472438
21
-4.038679409448819
0
LINE
8
BLACK
6
CONTINUOUS
10
5.5728886220472438
20
-4.038679409448819
11
5.572915826771653
21
-4.038621102362205
0
LINE
8
BLACK
6
CONTINUOUS
10
5.572915826771653
20
-4.038621102362205
11
5.5747905905511805
21
-4.0367463385826774
0
LINE
8
BLACK
6
CONTINUOUS
10
5.5747905905511805
20
-4.0367463385826774
11
5.5755136614173226
21
-4.036240039370079
0
LINE
8
BLACK
6
CONTINUOUS
10
5.5755136614173226
20
-4.036240039370079
11
5.5755579921259839
21
-4.0361932283464563
0
LINE
8
BLACK
6
CONTINUOUS
10
5.5755579921259839
20
-4.0361932283464563
11
5.579307519685039
21
-4.0343184645669288
0
LINE
8
BLACK
6
CONTINUOUS
10
5.579307519685039
20
-4.0343184645669288
11
5.580290433070866
21
-4.0340261023622048
0
LINE
8
BLACK
6
CONTINUOUS
10
5.580290433070866
20
-4.0340261023622048
11
5.5804621259842522
21
-4.034067086614173
0
LINE
8
BLACK
6
CONTINUOUS
10
5.5804621259842522
20
-4.034067086614173
11
5.5806280314960626
21
-4.0340067322834647
0
LINE
8
BLACK
6
CONTINUOUS
10
5.5806280314960626
20
-4.0340067322834647
11
5.5881270866141728
21
-4.0340067322834647
0
LINE
8
BLACK
6
CONTINUOUS
10
5.5881270866141728
20
-4.0340067322834647
11
5.5891370078740152
21
-4.0341848031496061
0
LINE
8
BLACK
6
CONTINUOUS
10
5.5891370078740152
20
-4.0341848031496061
11
5.589272244094488
21
-4.0342982677165358
0
LINE
8
BLACK
6
CONTINUOUS
10
5.589272244094488
20
-4.0342982677165358
11
5.5894475984251963
21
-4.0343184645669288
0
LINE
8
BLACK
6
CONTINUOUS
10
5.5894475984251963
20
-4.0343184645669288
11
5.591740118110236
21
-4.035464724409449
0
LINE
8
BLACK
6
CONTINUOUS
10
5.591740118110236
20
-4.035464724409449
11
5.5910108267716536
21
-4.0325475590551179
0
LINE
8
BLACK
6
CONTINUOUS
10
5.5910108267716536
20
-4.0325475590551179
11
5.5877071259842515
21
-4.0275920078740155
0
LINE
8
BLACK
6
CONTINUOUS
10
5.5877071259842515
20
-4.0275920078740155
11
5.5863779921259837
21
-4.0262628740157478
0
LINE
8
BLACK
6
CONTINUOUS
10
5.5863779921259837
20
-4.0262628740157478
11
5.5836805118110231
21
-4.0249141338582675
0
LINE
8
BLACK
6
CONTINUOUS
10
5.5836805118110231
20
-4.0249141338582675
11
5.5768785039370075
21
-4.0249141338582675
0
LINE
8
BLACK
6
CONTINUOUS
10
5.5768785039370075
20
-4.0249141338582675
11
5.575868582677165
21
-4.0247360629921261
0
LINE
8
BLACK
6
CONTINUOUS
10
5.575868582677165
20
-4.0247360629921261
11
5.5743213385826769
21
-4.0234377559055119
0
LINE
8
BLACK
6
CONTINUOUS
10
5.5743213385826769
20
-4.0234377559055119
11
5.5739705905511814
21
-4.0214486220472443
0
LINE
8
BLACK
6
CONTINUOUS
10
5.5739705905511814
20
-4.0214486220472443
11
5.5749805118110238
21
-4.0196994488188977
0
LINE
8
BLACK
6
CONTINUOUS
10
5.5749805118110238
20
-4.0196994488188977
11
5.5768785039370075
21
-4.0190086220472443
0
LINE
8
BLACK
6
CONTINUOUS
10
5.5768785039370075
20
-4.0190086220472443
11
5.5843775590551177
21
-4.0190086220472443
0
LINE
8
BLACK
6
CONTINUOUS
10
5.5843775590551177
20
-4.0190086220472443
11
5.5853874803149601
21
-4.0191866929133857
0
LINE
8
BLACK
6
CONTINUOUS
10
5.5786275984251965
20
-4.0412609842519682
11
5.5774304724409447
21
-4.04245811023622
0
LINE
8
BLACK
6
CONTINUOUS
10
5.5774304724409447
20
-4.04245811023622
11
5.5760817322834644
21
-4.0451555905511807
0
LINE
8
BLACK
6
CONTINUOUS
10
5.5760817322834644
20
-4.0451555905511807
11
5.5760817322834644
21
-4.0531353149606302
0
LINE
8
BLACK
6
CONTINUOUS
10
5.5760817322834644
20
-4.0531353149606302
11
5.5774304724409447
21
-4.0558327952755908
0
LINE
8
BLACK
6
CONTINUOUS
10
5.5774304724409447
20
-4.0558327952755908
11
5.5786275984251965
21
-4.0570299606299214
0
LINE
8
BLACK
6
CONTINUOUS
10
5.5786275984251965
20
-4.0570299606299214
11
5.5813250787401572
21
-4.0583787007874017
0
LINE
8
BLACK
6
CONTINUOUS
10
5.5813250787401572
20
-4.0583787007874017
11
5.5825984251968501
21
-4.0583787007874017
0
LINE
8
BLACK
6
CONTINUOUS
10
5.5825984251968501
20
-4.0583787007874017
11
5.5825984251968501
21
-4.0489511417322834
0
LINE
8
BLACK
6
CONTINUOUS
10
5.5825984251968501
20
-4.0489511417322834
11
5.5832903149606299
21
-4.0472808267716536
0
LINE
8
BLACK
6
CONTINUOUS
10
5.5832903149606299
20
-4.0472808267716536
11
5.5849606299212597
21
-4.0465889370078738
0
LINE
8
BLACK
6
CONTINUOUS
10
5.5849606299212597
20
-4.0465889370078738
11
5.5866309448818896
21
-4.0472808267716536
0
LINE
8
BLACK
6
CONTINUOUS
10
5.5866309448818896
20
-4.0472808267716536
11
5.5873228346456694
21
-4.0489511417322834
0
LINE
8
BLACK
6
CONTINUOUS
10
5.5873228346456694
20
-4.0489511417322834
11
5.5873228346456694
21
-4.0583787007874017
0
LINE
8
BLACK
6
CONTINUOUS
10
5.5873228346456694
20
-4.0583787007874017
11
5.5874300393700782
21
-4.0583787007874017
0
LINE
8
BLACK
6
CONTINUOUS
10
5.5874300393700782
20
-4.0583787007874017
11
5.5901274803149601
21
-4.0570299606299214
0
LINE
8
BLACK
6
CONTINUOUS
10
5.5901274803149601
20
-4.0570299606299214
11
5.5913246062992128
21
-4.0558327952755908
0
LINE
8
BLACK
6
CONTINUOUS
10
5.5913246062992128
20
-4.0558327952755908
11
5.5926733858267719
21
-4.0531353149606302
0
LINE
8
BLACK
6
CONTINUOUS
10
5.5926733858267719
20
-4.0531353149606302
11
5.5926733858267719
21
-4.0451555905511807
0
LINE
8
BLACK
6
CONTINUOUS
10
5.5926733858267719
20
-4.0451555905511807
11
5.5913246456692915
21
-4.04245811023622
0
LINE
8
BLACK
6
CONTINUOUS
10
5.5913246456692915
20
-4.04245811023622
11
5.5901275196850388
21
-4.0412609842519682
0
LINE
8
BLACK
6
CONTINUOUS
10
5.5901275196850388
20
-4.0412609842519682
11
5.5874300393700782
21
-4.0399122440944879
0
LINE
8
BLACK
6
CONTINUOUS
10
5.5874300393700782
20
-4.0399122440944879
11
5.5813250787401572
21
-4.0399122440944879
0
LINE
8
BLACK
6
CONTINUOUS
10
5.5813250787401572
20
-4.0399122440944879
11
5.5786275984251965
21
-4.0412609842519682
0
LINE
8
BLACK
6
CONTINUOUS
10
5.637258149606299
20
-4.0200633858267718
11
5.6379489763779524
21
-4.0219613779527554
0
LINE
8
BLACK
6
CONTINUOUS
10
5.6379489763779524
20
-4.0219613779527554
11
5.6379489763779524
21
-4.0538323622047248
0
LINE
8
BLACK
6
CONTINUOUS
10
5.6379489763779524
20
-4.0538323622047248
11
5.637770905511811
21
-4.0548422834645672
0
LINE
8
BLACK
6
CONTINUOUS
10
5.637770905511811
20
-4.0548422834645672
11
5.6376574015748027
21
-4.0549775196850391
0
LINE
8
BLACK
6
CONTINUOUS
10
5.6376574015748027
20
-4.0549775196850391
11
5.6376372440944884
21
-4.0551528740157483
0
LINE
8
BLACK
6
CONTINUOUS
10
5.6376372440944884
20
-4.0551528740157483
11
5.6357624803149609
21
-4.0589024015748034
0
LINE
8
BLACK
6
CONTINUOUS
10
5.6357624803149609
20
-4.0589024015748034
11
5.6352365354330711
21
-4.0596114566929131
0
LINE
8
BLACK
6
CONTINUOUS
10
5.6352365354330711
20
-4.0596114566929131
11
5.6352093700787398
21
-4.0596698031496059
0
LINE
8
BLACK
6
CONTINUOUS
10
5.6352093700787398
20
-4.0596698031496059
11
5.633334645669291
21
-4.0615445669291335
0
LINE
8
BLACK
6
CONTINUOUS
10
5.633334645669291
20
-4.0615445669291335
11
5.6326114566929135
21
-4.0620509448818893
0
LINE
8
BLACK
6
CONTINUOUS
10
5.6326114566929135
20
-4.0620509448818893
11
5.6325672047244097
21
-4.0620977165354333
0
LINE
8
BLACK
6
CONTINUOUS
10
5.6325672047244097
20
-4.0620977165354333
11
5.6318103543307085
21
-4.0624761023622042
0
LINE
8
BLACK
6
CONTINUOUS
10
5.6318103543307085
20
-4.0624761023622042
11
5.63170968503937
21
-4.0627191732283467
0
LINE
8
BLACK
6
CONTINUOUS
10
5.63170968503937
20
-4.0627191732283467
11
5.6300393700787401
21
-4.0634110629921256
0
LINE
8
BLACK
6
CONTINUOUS
10
5.6300393700787401
20
-4.0634110629921256
11
5.6299852755905508
21
-4.0633886614173225
0
LINE
8
BLACK
6
CONTINUOUS
10
5.6299852755905508
20
-4.0633886614173225
11
5.6288176771653546
21
-4.0639724803149608
0
LINE
8
BLACK
6
CONTINUOUS
10
5.6288176771653546
20
-4.0639724803149608
11
5.6278347244094489
21
-4.0642648425196848
0
LINE
8
BLACK
6
CONTINUOUS
10
5.6278347244094489
20
-4.0642648425196848
11
5.6276630314960627
21
-4.0642238188976378
0
LINE
8
BLACK
6
CONTINUOUS
10
5.6276630314960627
20
-4.0642238188976378
11
5.6274971653543302
21
-4.0642842125984249
0
LINE
8
BLACK
6
CONTINUOUS
10
5.6274971653543302
20
-4.0642842125984249
11
5.61999811023622
21
-4.0642842125984249
0
LINE
8
BLACK
6
CONTINUOUS
10
5.61999811023622
20
-4.0642842125984249
11
5.6189881889763775
21
-4.0641061417322835
0
LINE
8
BLACK
6
CONTINUOUS
10
5.6189881889763775
20
-4.0641061417322835
11
5.6188529133858269
21
-4.0639926377952751
0
LINE
8
BLACK
6
CONTINUOUS
10
5.6188529133858269
20
-4.0639926377952751
11
5.6186775984251964
21
-4.0639724803149608
0
LINE
8
BLACK
6
CONTINUOUS
10
5.6186775984251964
20
-4.0639724803149608
11
5.6149280708661413
21
-4.0620977165354333
0
LINE
8
BLACK
6
CONTINUOUS
10
5.6149280708661413
20
-4.0620977165354333
11
5.6142189370078741
21
-4.0615717322834648
0
LINE
8
BLACK
6
CONTINUOUS
10
5.6142189370078741
20
-4.0615717322834648
11
5.6141606299212601
21
-4.0615445669291335
0
LINE
8
BLACK
6
CONTINUOUS
10
5.6141606299212601
20
-4.0615445669291335
11
5.6122858661417325
21
-4.0596697637795272
0
LINE
8
BLACK
6
CONTINUOUS
10
5.6122858661417325
20
-4.0596697637795272
11
5.6117795669291342
21
-4.0589466929133859
0
LINE
8
BLACK
6
CONTINUOUS
10
5.6117795669291342
20
-4.0589466929133859
11
5.6117327952755902
21
-4.0589024015748034
0
LINE
8
BLACK
6
CONTINUOUS
10
5.6117327952755902
20
-4.0589024015748034
11
5.6098580314960627
21
-4.0551528740157483
0
LINE
8
BLACK
6
CONTINUOUS
10
5.6098580314960627
20
-4.0551528740157483
11
5.6095656692913387
21
-4.0541699212598425
0
LINE
8
BLACK
6
CONTINUOUS
10
5.6095656692913387
20
-4.0541699212598425
11
5.6096066535433069
21
-4.0539982283464564
0
LINE
8
BLACK
6
CONTINUOUS
10
5.6096066535433069
20
-4.0539982283464564
11
5.6095462992125986
21
-4.0538323622047248
0
LINE
8
BLACK
6
CONTINUOUS
10
5.6095462992125986
20
-4.0538323622047248
11
5.6095462992125986
21
-4.0219613779527554
0
LINE
8
BLACK
6
CONTINUOUS
10
5.6095462992125986
20
-4.0219613779527554
11
5.60972437007874
21
-4.020951456692913
0
LINE
8
BLACK
6
CONTINUOUS
10
5.60972437007874
20
-4.020951456692913
11
5.6110226771653542
21
-4.0194042125984248
0
LINE
8
BLACK
6
CONTINUOUS
10
5.6110226771653542
20
-4.0194042125984248
11
5.6130118110236218
21
-4.0190534645669294
0
LINE
8
BLACK
6
CONTINUOUS
10
5.6130118110236218
20
-4.0190534645669294
11
5.6147609842519683
21
-4.0200633858267718
0
LINE
8
BLACK
6
CONTINUOUS
10
5.6147609842519683
20
-4.0200633858267718
11
5.6154518110236218
21
-4.0219613779527554
0
LINE
8
BLACK
6
CONTINUOUS
10
5.6154518110236218
20
-4.0219613779527554
11
5.6154518110236218
21
-4.0531353149606302
0
LINE
8
BLACK
6
CONTINUOUS
10
5.6154518110236218
20
-4.0531353149606302
11
5.6168005511811021
21
-4.0558327952755908
0
LINE
8
BLACK
6
CONTINUOUS
10
5.6168005511811021
20
-4.0558327952755908
11
5.6179976771653539
21
-4.0570299606299214
0
LINE
8
BLACK
6
CONTINUOUS
10
5.6179976771653539
20
-4.0570299606299214
11
5.6206951574803146
21
-4.0583787007874017
0
LINE
8
BLACK
6
CONTINUOUS
10
5.6206951574803146
20
-4.0583787007874017
11
5.6268001181102365
21
-4.0583787007874017
0
LINE
8
BLACK
6
CONTINUOUS
10
5.6268001181102365
20
-4.0583787007874017
11
5.6276771653543305
21
-4.0579401574803144
0
LINE
8
BLACK
6
CONTINUOUS
10
5.6276771653543305
20
-4.0579401574803144
11
5.6276771653543305
21
-4.0489511417322834
0
LINE
8
BLACK
6
CONTINUOUS
10
5.6276771653543305
20
-4.0489511417322834
11
5.6283690551181103
21
-4.0472808267716536
0
LINE
8
BLACK
6
CONTINUOUS
10
5.6283690551181103
20
-4.0472808267716536
11
5.6300393700787401
21
-4.0465889370078738
0
LINE
8
BLACK
6
CONTINUOUS
10
5.6300393700787401
20
-4.0465889370078738
11
5.63170968503937
21
-4.0472808267716536
0
LINE
8
BLACK
6
CONTINUOUS
10
5.63170968503937
20
-4.0472808267716536
11
5.6320434645669293
21
-4.0480866141732283
0
LINE
8
BLACK
6
CONTINUOUS
10
5.6320434645669293
20
-4.0480866141732283
11
5.6320434645669293
21
-4.0219613779527554
0
LINE
8
BLACK
6
CONTINUOUS
10
5.6320434645669293
20
-4.0219613779527554
11
5.6322215354330707
21
-4.020951456692913
0
LINE
8
BLACK
6
CONTINUOUS
10
5.6322215354330707
20
-4.020951456692913
11
5.6335198425196849
21
-4.0194042125984248
0
LINE
8
BLACK
6
CONTINUOUS
10
5.6335198425196849
20
-4.0194042125984248
11
5.6355089763779525
21
-4.0190534645669294
0
LINE
8
BLACK
6
CONTINUOUS
10
5.6355089763779525
20
-4.0190534645669294
11
5.637258149606299
21
-4.0200633858267718
0
LINE
8
BLACK
6
CONTINUOUS
10
5.9624577165354333
20
-3.8263218110236221
11
5.9631496062992122
21
-3.827992125984252
0
LINE
8
BLACK
6
CONTINUOUS
10
5.9631496062992122
20
-3.827992125984252
11
5.9631496062992122
21
-4.061456692913386
0
LINE
8
BLACK
6
CONTINUOUS
10
5.9631496062992122
20
-4.061456692913386
11
5.9624577165354333
21
-4.0631270078740158
0
LINE
8
BLACK
6
CONTINUOUS
10
5.9624577165354333
20
-4.0631270078740158
11
5.9607874015748026
21
-4.0638188976377956
0
LINE
8
BLACK
6
CONTINUOUS
10
5.9607874015748026
20
-4.0638188976377956
11
5.9591170866141727
21
-4.0631270078740158
0
LINE
8
BLACK
6
CONTINUOUS
10
5.9591170866141727
20
-4.0631270078740158
11
5.9584251968503938
21
-4.061456692913386
0
LINE
8
BLACK
6
CONTINUOUS
10
5.9584251968503938
20
-4.061456692913386
11
5.9584251968503938
21
-3.827992125984252
0
LINE
8
BLACK
6
CONTINUOUS
10
5.9584251968503938
20
-3.827992125984252
11
5.9591170866141727
21
-3.8263218110236221
0
LINE
8
BLACK
6
CONTINUOUS
10
5.9591170866141727
20
-3.8263218110236221
11
5.9607874015748026
21
-3.8256299212598424
0
LINE
8
BLACK
6
CONTINUOUS
10
5.9607874015748026
20
-3.8256299212598424
11
5.9624577165354333
21
-3.8263218110236221
0
LINE
8
BLACK
6
CONTINUOUS
10
5.5567096850393698
20
-4.0472808267716536
11
5.5574015748031496
21
-4.0489511417322834
0
LINE
8
BLACK
6
CONTINUOUS
10
5.5574015748031496
20
-4.0489511417322834
11
5.5574015748031496
21
-4.061048858267716
0
LINE
8
BLACK
6
CONTINUOUS
10
5.5574015748031496
20
-4.061048858267716
11
5.5567096850393698
21
-4.0627191732283467
0
LINE
8
BLACK
6
CONTINUOUS
10
5.5567096850393698
20
-4.0627191732283467
11
5.5550393700787399
21
-4.0634110629921256
0
LINE
8
BLACK
6
CONTINUOUS
10
5.5550393700787399
20
-4.0634110629921256
11
5.5533690551181101
21
-4.0627191732283467
0
LINE
8
BLACK
6
CONTINUOUS
10
5.5533690551181101
20
-4.0627191732283467
11
5.5526771653543303
21
-4.061048858267716
0
LINE
8
BLACK
6
CONTINUOUS
10
5.5526771653543303
20
-4.061048858267716
11
5.5526771653543303
21
-4.0489511417322834
0
LINE
8
BLACK
6
CONTINUOUS
10
5.5526771653543303
20
-4.0489511417322834
11
5.5533690551181101
21
-4.0472808267716536
0
LINE
8
BLACK
6
CONTINUOUS
10
5.5533690551181101
20
-4.0472808267716536
11
5.5550393700787399
21
-4.0465889370078738
0
LINE
8
BLACK
6
CONTINUOUS
10
5.5550393700787399
20
-4.0465889370078738
11
5.5567096850393698
21
-4.0472808267716536
0
LINE
8
BLACK
6
CONTINUOUS
10
5.6616309448818898
20
-4.0472808267716536
11
5.6623228346456695
21
-4.0489511417322834
0
LINE
8
BLACK
6
CONTINUOUS
10
5.6623228346456695
20
-4.0489511417322834
11
5.6623228346456695
21
-4.061048858267716
0
LINE
8
BLACK
6
CONTINUOUS
10
5.6623228346456695
20
-4.061048858267716
11
5.6616309448818898
21
-4.0627191732283467
0
LINE
8
BLACK
6
CONTINUOUS
10
5.6616309448818898
20
-4.0627191732283467
11
5.6599606299212599
21
-4.0634110629921256
0
LINE
8
BLACK
6
CONTINUOUS
10
5.6599606299212599
20
-4.0634110629921256
11
5.6582903149606301
21
-4.0627191732283467
0
LINE
8
BLACK
6
CONTINUOUS
10
5.6582903149606301
20
-4.0627191732283467
11
5.6575984251968503
21
-4.061048858267716
0
LINE
8
BLACK
6
CONTINUOUS
10
5.6575984251968503
20
-4.061048858267716
11
5.6575984251968503
21
-4.0489511417322834
0
LINE
8
BLACK
6
CONTINUOUS
10
5.6575984251968503
20
-4.0489511417322834
11
5.6582903149606301
21
-4.0472808267716536
0
LINE
8
BLACK
6
CONTINUOUS
10
5.6582903149606301
20
-4.0472808267716536
11
5.6599606299212599
21
-4.0465889370078738
0
LINE
8
BLACK
6
CONTINUOUS
10
5.6599606299212599
20
-4.0465889370078738
11
5.6616309448818898
21
-4.0472808267716536
0
LINE
8
BLACK
6
CONTINUOUS
10
5.6824970866141733
20
-4.049084173228346
11
5.6831889763779531
21
-4.0507544881889759
0
LINE
8
BLACK
6
CONTINUOUS
10
5.6831889763779531
20
-4.0507544881889759
11
5.6831889763779531
21
-4.0592455118110236
0
LINE
8
BLACK
6
CONTINUOUS
10
5.6831889763779531
20
-4.0592455118110236
11
5.6824970866141733
21
-4.0609158267716534
0
LINE
8
BLACK
6
CONTINUOUS
10
5.6824970866141733
20
-4.0609158267716534
11
5.6808267716535434
21
-4.0616077165354332
0
LINE
8
BLACK
6
CONTINUOUS
10
5.6808267716535434
20
-4.0616077165354332
11
5.6791564566929136
21
-4.0609158267716534
0
LINE
8
BLACK
6
CONTINUOUS
10
5.6791564566929136
20
-4.0609158267716534
11
5.6784645669291338
21
-4.0592455118110236
0
LINE
8
BLACK
6
CONTINUOUS
10
5.6784645669291338
20
-4.0592455118110236
11
5.6784645669291338
21
-4.0507544881889759
0
LINE
8
BLACK
6
CONTINUOUS
10
5.6784645669291338
20
-4.0507544881889759
11
5.6791564566929136
21
-4.049084173228346
0
LINE
8
BLACK
6
CONTINUOUS
10
5.6791564566929136
20
-4.049084173228346
11
5.6808267716535434
21
-4.0483922834645671
0
LINE
8
BLACK
6
CONTINUOUS
10
5.6808267716535434
20
-4.0483922834645671
11
5.6824970866141733
21
-4.049084173228346
0
LINE
8
BLACK
6
CONTINUOUS
10
5.7108435433070861
20
-4.049084173228346
11
5.7115354330708659
21
-4.0507544881889759
0
LINE
8
BLACK
6
CONTINUOUS
10
5.7115354330708659
20
-4.0507544881889759
11
5.7115354330708659
21
-4.0592455118110236
0
LINE
8
BLACK
6
CONTINUOUS
10
5.7115354330708659
20
-4.0592455118110236
11
5.7108435433070861
21
-4.0609158267716534
0
LINE
8
BLACK
6
CONTINUOUS
10
5.7108435433070861
20
-4.0609158267716534
11
5.7091732283464562
21
-4.0616077165354332
0
LINE
8
BLACK
6
CONTINUOUS
10
5.7091732283464562
20
-4.0616077165354332
11
5.7075029133858264
21
-4.0609158267716534
0
LINE
8
BLACK
6
CONTINUOUS
10
5.7075029133858264
20
-4.0609158267716534
11
5.7068110236220475
21
-4.0592455118110236
0
LINE
8
BLACK
6
CONTINUOUS
10
5.7068110236220475
20
-4.0592455118110236
11
5.7068110236220475
21
-4.0507544881889759
0
LINE
8
BLACK
6
CONTINUOUS
10
5.7068110236220475
20
-4.0507544881889759
11
5.7075029133858264
21
-4.049084173228346
0
LINE
8
BLACK
6
CONTINUOUS
10
5.7075029133858264
20
-4.049084173228346
11
5.7091732283464562
21
-4.0483922834645671
0
LINE
8
BLACK
6
CONTINUOUS
10
5.7091732283464562
20
-4.0483922834645671
11
5.7108435433070861
21
-4.049084173228346
0
LINE
8
BLACK
6
CONTINUOUS
10
5.3538659842519687
20
-4.0278394881889765
11
5.3545783464566927
21
-4.0280108661417318
0
LINE
8
BLACK
6
CONTINUOUS
10
5.3545783464566927
20
-4.0280108661417318
11
5.3546797637795276
21
-4.0281765748031493
0
LINE
8
BLACK
6
CONTINUOUS
10
5.3546797637795276
20
-4.0281765748031493
11
5.3548592913385828
21
-4.02825094488189
0
LINE
8
BLACK
6
CONTINUOUS
10
5.3548592913385828
20
-4.02825094488189
11
5.3551396850393695
21
-4.0289279133858269
0
LINE
8
BLACK
6
CONTINUOUS
10
5.3551396850393695
20
-4.0289279133858269
11
5.3555222440944883
21
-4.0295528346456688
0
LINE
8
BLACK
6
CONTINUOUS
10
5.3555222440944883
20
-4.0295528346456688
11
5.3554767716535432
21
-4.0297416929133858
0
LINE
8
BLACK
6
CONTINUOUS
10
5.3554767716535432
20
-4.0297416929133858
11
5.3555511811023617
21
-4.0299212598425198
0
LINE
8
BLACK
6
CONTINUOUS
10
5.3555511811023617
20
-4.0299212598425198
11
5.3552707086614175
21
-4.0305982677165355
0
LINE
8
BLACK
6
CONTINUOUS
10
5.3552707086614175
20
-4.0305982677165355
11
5.3550993700787402
21
-4.0313106299212595
0
LINE
8
BLACK
6
CONTINUOUS
10
5.3550993700787402
20
-4.0313106299212595
11
5.3456505511811025
21
-4.0443027559055116
0
LINE
8
BLACK
6
CONTINUOUS
10
5.3456505511811025
20
-4.0443027559055116
11
5.3453273622047242
21
-4.0445005905511806
0
LINE
8
BLACK
6
CONTINUOUS
10
5.3453273622047242
20
-4.0445005905511806
11
5.3451295275590551
21
-4.044823779527559
0
LINE
8
BLACK
6
CONTINUOUS
10
5.3451295275590551
20
-4.044823779527559
11
5.3445856299212595
21
-4.0449546062992123
0
LINE
8
BLACK
6
CONTINUOUS
10
5.3445856299212595
20
-4.0449546062992123
11
5.3441085826771655
21
-4.0452466535433071
0
LINE
8
BLACK
6
CONTINUOUS
10
5.3441085826771655
20
-4.0452466535433071
11
5.3437401574803145
21
-4.0451579921259846
0
LINE
8
BLACK
6
CONTINUOUS
10
5.3437401574803145
20
-4.0451579921259846
11
5.3433717322834644
21
-4.0452466535433071
0
LINE
8
BLACK
6
CONTINUOUS
10
5.3433717322834644
20
-4.0452466535433071
11
5.3428946456692916
21
-4.0449546062992123
0
LINE
8
BLACK
6
CONTINUOUS
10
5.3428946456692916
20
-4.0449546062992123
11
5.3423507874015748
21
-4.044823779527559
0
LINE
8
BLACK
6
CONTINUOUS
10
5.3423507874015748
20
-4.044823779527559
11
5.342152913385827
21
-4.0445005905511806
0
LINE
8
BLACK
6
CONTINUOUS
10
5.342152913385827
20
-4.0445005905511806
11
5.3418297637795273
21
-4.0443027559055116
0
LINE
8
BLACK
6
CONTINUOUS
10
5.3418297637795273
20
-4.0443027559055116
11
5.3323809448818897
21
-4.0313106299212595
0
LINE
8
BLACK
6
CONTINUOUS
10
5.3323809448818897
20
-4.0313106299212595
11
5.3322095669291336
21
-4.0305982677165355
0
LINE
8
BLACK
6
CONTINUOUS
10
5.3322095669291336
20
-4.0305982677165355
11
5.3319291338582673
21
-4.0299212598425198
0
LINE
8
BLACK
6
CONTINUOUS
10
5.3319291338582673
20
-4.0299212598425198
11
5.3320035039370079
21
-4.0297416929133858
0
LINE
8
BLACK
6
CONTINUOUS
10
5.3320035039370079
20
-4.0297416929133858
11
5.3319580708661416
21
-4.0295528346456688
0
LINE
8
BLACK
6
CONTINUOUS
10
5.3319580708661416
20
-4.0295528346456688
11
5.3323405905511807
21
-4.0289279133858269
0
LINE
8
BLACK
6
CONTINUOUS
10
5.3323405905511807
20
-4.0289279133858269
11
5.332621023622047
21
-4.02825094488189
0
LINE
8
BLACK
6
CONTINUOUS
10
5.332621023622047
20
-4.02825094488189
11
5.3328005118110235
21
-4.0281765748031493
0
LINE
8
BLACK
6
CONTINUOUS
10
5.3328005118110235
20
-4.0281765748031493
11
5.3329019685039372
21
-4.0280108661417318
0
LINE
8
BLACK
6
CONTINUOUS
10
5.3329019685039372
20
-4.0280108661417318
11
5.3336142913385824
21
-4.0278394881889765
0
LINE
8
BLACK
6
CONTINUOUS
10
5.3336142913385824
20
-4.0278394881889765
11
5.3342913385826769
21
-4.0275590551181102
0
LINE
8
BLACK
6
CONTINUOUS
10
5.3342913385826769
20
-4.0275590551181102
11
5.353188976377953
21
-4.0275590551181102
0
LINE
8
BLACK
6
CONTINUOUS
10
5.353188976377953
20
-4.0275590551181102
11
5.3538659842519687
21
-4.0278394881889765
0
LINE
8
BLACK
6
CONTINUOUS
10
5.3257254330708657
20
-4.0345501574803144
11
5.3264173228346454
21
-4.0362204724409452
0
LINE
8
BLACK
6
CONTINUOUS
10
5.3264173228346454
20
-4.0362204724409452
11
5.3257254330708657
21
-4.037890787401575
0
LINE
8
BLACK
6
CONTINUOUS
10
5.3257254330708657
20
-4.037890787401575
11
5.3240551181102358
21
-4.0385826771653539
0
LINE
8
BLACK
6
CONTINUOUS
10
5.3240551181102358
20
-4.0385826771653539
11
5.2059448818897636
21
-4.0385826771653539
0
LINE
8
BLACK
6
CONTINUOUS
10
5.2059448818897636
20
-4.0385826771653539
11
5.2042745669291337
21
-4.037890787401575
0
LINE
8
BLACK
6
CONTINUOUS
10
5.2042745669291337
20
-4.037890787401575
11
5.2035826771653539
21
-4.0362204724409452
0
LINE
8
BLACK
6
CONTINUOUS
10
5.2035826771653539
20
-4.0362204724409452
11
5.2042745669291337
21
-4.0345501574803144
0
LINE
8
BLACK
6
CONTINUOUS
10
5.2042745669291337
20
-4.0345501574803144
11
5.2059448818897636
21
-4.0338582677165356
0
LINE
8
BLACK
6
CONTINUOUS
10
5.2059448818897636
20
-4.0338582677165356
11
5.3240551181102358
21
-4.0338582677165356
0
LINE
8
BLACK
6
CONTINUOUS
10
5.3240551181102358
20
-4.0338582677165356
11
5.3257254330708657
21
-4.0345501574803144
0
LINE
8
BLACK
6
CONTINUOUS
10
4.8375375196850392
20
-3.968416968503937
11
4.8382283464566926
21
-3.9703149606299211
0
LINE
8
BLACK
6
CONTINUOUS
10
4.8382283464566926
20
-3.9703149606299211
11
4.8382283464566926
21
-4.0244488188976373
0
LINE
8
BLACK
6
CONTINUOUS
10
4.8382283464566926
20
-4.0244488188976373
11
4.912047244094488
21
-4.0244488188976373
0
LINE
8
BLACK
6
CONTINUOUS
10
4.912047244094488
20
-4.0244488188976373
11
4.9130571653543305
21
-4.0246268897637796
0
LINE
8
BLACK
6
CONTINUOUS
10
4.9130571653543305
20
-4.0246268897637796
11
4.9146044094488186
21
-4.0259251968503937
0
LINE
8
BLACK
6
CONTINUOUS
10
4.9146044094488186
20
-4.0259251968503937
11
4.914955157480315
21
-4.0279143307086613
0
LINE
8
BLACK
6
CONTINUOUS
10
4.914955157480315
20
-4.0279143307086613
11
4.9139452362204725
21
-4.0296635039370079
0
LINE
8
BLACK
6
CONTINUOUS
10
4.9139452362204725
20
-4.0296635039370079
11
4.912047244094488
21
-4.0303543307086613
0
LINE
8
BLACK
6
CONTINUOUS
10
4.912047244094488
20
-4.0303543307086613
11
4.8352755905511806
21
-4.0303543307086613
0
LINE
8
BLACK
6
CONTINUOUS
10
4.8352755905511806
20
-4.0303543307086613
11
4.8348920472440939
21
-4.0302866929133856
0
LINE
8
BLACK
6
CONTINUOUS
10
4.8348920472440939
20
-4.0302866929133856
11
4.8347628346456695
21
-4.0303094881889763
0
LINE
8
BLACK
6
CONTINUOUS
10
4.8347628346456695
20
-4.0303094881889763
11
4.8346492125984248
21
-4.030243858267716
0
LINE
8
BLACK
6
CONTINUOUS
10
4.8346492125984248
20
-4.030243858267716
11
4.8342656692913382
21
-4.0301762598425199
0
LINE
8
BLACK
6
CONTINUOUS
10
4.8342656692913382
20
-4.0301762598425199
11
4.8336779527559051
21
-4.0296831102362205
0
LINE
8
BLACK
6
CONTINUOUS
10
4.8336779527559051
20
-4.0296831102362205
11
4.8330136614173229
21
-4.0292995669291338
0
LINE
8
BLACK
6
CONTINUOUS
10
4.8330136614173229
20
-4.0292995669291338
11
4.8329225196850389
21
-4.0290492125984247
0
LINE
8
BLACK
6
CONTINUOUS
10
4.8329225196850389
20
-4.0290492125984247
11
4.83271842519685
21
-4.0288779527559058
0
LINE
8
BLACK
6
CONTINUOUS
10
4.83271842519685
20
-4.0288779527559058
11
4.8325851574803149
21
-4.0281223622047246
0
LINE
8
BLACK
6
CONTINUOUS
10
4.8325851574803149
20
-4.0281223622047246
11
4.8323228346456695
21
-4.0274015748031493
0
LINE
8
BLACK
6
CONTINUOUS
10
4.8323228346456695
20
-4.0274015748031493
11
4.8323228346456695
21
-3.9703149606299211
0
LINE
8
BLACK
6
CONTINUOUS
10
4.8323228346456695
20
-3.9703149606299211
11
4.8325009055118109
21
-3.9693050393700786
0
LINE
8
BLACK
6
CONTINUOUS
10
4.8325009055118109
20
-3.9693050393700786
11
4.833799212598425
21
-3.9677577952755905
0
LINE
8
BLACK
6
CONTINUOUS
10
4.833799212598425
20
-3.9677577952755905
11
4.8357883464566926
21
-3.9674070472440945
0
LINE
8
BLACK
6
CONTINUOUS
10
4.8357883464566926
20
-3.9674070472440945
11
4.8375375196850392
21
-3.968416968503937
0
LINE
8
BLACK
6
CONTINUOUS
10
5.1721831889763781
20
-3.968416968503937
11
5.1728740157480315
21
-3.9703149606299211
0
LINE
8
BLACK
6
CONTINUOUS
10
5.1728740157480315
20
-3.9703149606299211
11
5.1728740157480315
21
-4.0274015748031493
0
LINE
8
BLACK
6
CONTINUOUS
10
5.1728740157480315
20
-4.0274015748031493
11
5.1728063779527558
21
-4.0277850787401572
0
LINE
8
BLACK
6
CONTINUOUS
10
5.1728063779527558
20
-4.0277850787401572
11
5.1728291732283465
21
-4.0279143307086613
0
LINE
8
BLACK
6
CONTINUOUS
10
5.1728291732283465
20
-4.0279143307086613
11
5.1727635433070862
21
-4.0280279133858263
0
LINE
8
BLACK
6
CONTINUOUS
10
5.1727635433070862
20
-4.0280279133858263
11
5.1726959448818892
21
-4.0284114960629918
0
LINE
8
BLACK
6
CONTINUOUS
10
5.1726959448818892
20
-4.0284114960629918
11
5.1722027952755907
21
-4.0289991732283461
0
LINE
8
BLACK
6
CONTINUOUS
10
5.1722027952755907
20
-4.0289991732283461
11
5.171819251968504
21
-4.0296635039370079
0
LINE
8
BLACK
6
CONTINUOUS
10
5.171819251968504
20
-4.0296635039370079
11
5.1715688976377949
21
-4.0297546062992122
0
LINE
8
BLACK
6
CONTINUOUS
10
5.1715688976377949
20
-4.0297546062992122
11
5.1713976377952751
21
-4.0299587401574799
0
LINE
8
BLACK
6
CONTINUOUS
10
5.1713976377952751
20
-4.0299587401574799
11
5.1706420472440939
21
-4.0300919685039371
0
LINE
8
BLACK
6
CONTINUOUS
10
5.1706420472440939
20
-4.0300919685039371
11
5.1699212598425195
21
-4.0303543307086613
0
LINE
8
BLACK
6
CONTINUOUS
10
5.1699212598425195
20
-4.0303543307086613
11
5.0931496062992121
21
-4.0303543307086613
0
LINE
8
BLACK
6
CONTINUOUS
10
5.0931496062992121
20
-4.0303543307086613
11
5.0921396850393696
21
-4.0301762598425199
0
LINE
8
BLACK
6
CONTINUOUS
10
5.0921396850393696
20
-4.0301762598425199
11
5.0905924409448815
21
-4.0288779527559058
0
LINE
8
BLACK
6
CONTINUOUS
10
5.0905924409448815
20
-4.0288779527559058
11
5.090241692913386
21
-4.0268888188976373
0
LINE
8
BLACK
6
CONTINUOUS
10
5.090241692913386
20
-4.0268888188976373
11
5.0912516141732285
21
-4.0251396456692916
0
LINE
8
BLACK
6
CONTINUOUS
10
5.0912516141732285
20
-4.0251396456692916
11
5.0931496062992121
21
-4.0244488188976373
0
LINE
8
BLACK
6
CONTINUOUS
10
5.0931496062992121
20
-4.0244488188976373
11
5.1669685039370075
21
-4.0244488188976373
0
LINE
8
BLACK
6
CONTINUOUS
10
5.1669685039370075
20
-4.0244488188976373
11
5.1669685039370075
21
-3.9703149606299211
0
LINE
8
BLACK
6
CONTINUOUS
10
5.1669685039370075
20
-3.9703149606299211
11
5.1671465748031498
21
-3.9693050393700786
0
LINE
8
BLACK
6
CONTINUOUS
10
5.1671465748031498
20
-3.9693050393700786
11
5.1684448818897639
21
-3.9677577952755905
0
LINE
8
BLACK
6
CONTINUOUS
10
5.1684448818897639
20
-3.9677577952755905
11
5.1704340157480315
21
-3.9674070472440945
0
LINE
8
BLACK
6
CONTINUOUS
10
5.1704340157480315
20
-3.9674070472440945
11
5.1721831889763781
21
-3.968416968503937
0
LINE
8
BLACK
6
CONTINUOUS
10
5.3974970866141732
20
-4.0140841732283468
11
5.3981889763779529
21
-4.0157544881889766
0
LINE
8
BLACK
6
CONTINUOUS
10
5.3981889763779529
20
-4.0157544881889766
11
5.3981889763779529
21
-4.0242455118110234
0
LINE
8
BLACK
6
CONTINUOUS
10
5.3981889763779529
20
-4.0242455118110234
11
5.3974970866141732
21
-4.0259158267716533
0
LINE
8
BLACK
6
CONTINUOUS
10
5.3974970866141732
20
-4.0259158267716533
11
5.3958267716535433
21
-4.026607716535433
0
LINE
8
BLACK
6
CONTINUOUS
10
5.3958267716535433
20
-4.026607716535433
11
5.3941564566929134
21
-4.0259158267716533
0
LINE
8
BLACK
6
CONTINUOUS
10
5.3941564566929134
20
-4.0259158267716533
11
5.3934645669291337
21
-4.0242455118110234
0
LINE
8
BLACK
6
CONTINUOUS
10
5.3934645669291337
20
-4.0242455118110234
11
5.3934645669291337
21
-4.0157544881889766
0
LINE
8
BLACK
6
CONTINUOUS
10
5.3934645669291337
20
-4.0157544881889766
11
5.3941564566929134
21
-4.0140841732283468
0
LINE
8
BLACK
6
CONTINUOUS
10
5.3941564566929134
20
-4.0140841732283468
11
5.3958267716535433
21
-4.013392283464567
0
LINE
8
BLACK
6
CONTINUOUS
10
5.3958267716535433
20
-4.013392283464567
11
5.3974970866141732
21
-4.0140841732283468
0
LINE
8
BLACK
6
CONTINUOUS
10
5.4258435433070868
20
-4.0140841732283468
11
5.4265354330708657
21
-4.0157544881889766
0
LINE
8
BLACK
6
CONTINUOUS
10
5.4265354330708657
20
-4.0157544881889766
11
5.4265354330708657
21
-4.0242455118110234
0
LINE
8
BLACK
6
CONTINUOUS
10
5.4265354330708657
20
-4.0242455118110234
11
5.4258435433070868
21
-4.0259158267716533
0
LINE
8
BLACK
6
CONTINUOUS
10
5.4258435433070868
20
-4.0259158267716533
11
5.424173228346457
21
-4.026607716535433
0
LINE
8
BLACK
6
CONTINUOUS
10
5.424173228346457
20
-4.026607716535433
11
5.4225029133858262
21
-4.0259158267716533
0
LINE
8
BLACK
6
CONTINUOUS
10
5.4225029133858262
20
-4.0259158267716533
11
5.4218110236220474
21
-4.0242455118110234
0
LINE
8
BLACK
6
CONTINUOUS
10
5.4218110236220474
20
-4.0242455118110234
11
5.4218110236220474
21
-4.0157544881889766
0
LINE
8
BLACK
6
CONTINUOUS
10
5.4218110236220474
20
-4.0157544881889766
11
5.4225029133858262
21
-4.0140841732283468
0
LINE
8
BLACK
6
CONTINUOUS
10
5.4225029133858262
20
-4.0140841732283468
11
5.424173228346457
21
-4.013392283464567
0
LINE
8
BLACK
6
CONTINUOUS
10
5.424173228346457
20
-4.013392283464567
11
5.4258435433070868
21
-4.0140841732283468
0
LINE
8
BLACK
6
CONTINUOUS
10
5.2585108267716532
20
-3.9773362992125985
11
5.2600580708661413
21
-3.9786346062992126
0
LINE
8
BLACK
6
CONTINUOUS
10
5.2600580708661413
20
-3.9786346062992126
11
5.2604088188976377
21
-3.9806237401574802
0
LINE
8
BLACK
6
CONTINUOUS
10
5.2604088188976377
20
-3.9806237401574802
11
5.2593988976377952
21
-3.9823729133858268
0
LINE
8
BLACK
6
CONTINUOUS
10
5.2593988976377952
20
-3.9823729133858268
11
5.2575009055118107
21
-3.9830637401574802
0
LINE
8
BLACK
6
CONTINUOUS
10
5.2575009055118107
20
-3.9830637401574802
11
5.2396361417322836
21
-3.9830637401574802
0
LINE
8
BLACK
6
CONTINUOUS
10
5.2396361417322836
20
-3.9830637401574802
11
5.2484744881889762
21
-3.9931646850393698
0
LINE
8
BLACK
6
CONTINUOUS
10
5.2484744881889762
20
-3.9931646850393698
11
5.2487043700787401
21
-3.9935445275590551
0
LINE
8
BLACK
6
CONTINUOUS
10
5.2487043700787401
20
-3.9935445275590551
11
5.248809488188976
21
-3.9936327165354331
0
LINE
8
BLACK
6
CONTINUOUS
10
5.248809488188976
20
-3.9936327165354331
11
5.2488307086614174
21
-3.9937532677165355
0
LINE
8
BLACK
6
CONTINUOUS
10
5.2488307086614174
20
-3.9937532677165355
11
5.2490055118110233
21
-3.9940420078740155
0
LINE
8
BLACK
6
CONTINUOUS
10
5.2490055118110233
20
-3.9940420078740155
11
5.2490219685039365
21
-3.994837834645669
0
LINE
8
BLACK
6
CONTINUOUS
10
5.2490219685039365
20
-3.994837834645669
11
5.2491602362204723
21
-3.9956218503937007
0
LINE
8
BLACK
6
CONTINUOUS
10
5.2491602362204723
20
-3.9956218503937007
11
5.2490424409448817
21
-3.9958258267716533
0
LINE
8
BLACK
6
CONTINUOUS
10
5.2490424409448817
20
-3.9958258267716533
11
5.2490473228346453
21
-3.9960613779527558
0
LINE
8
BLACK
6
CONTINUOUS
10
5.2490473228346453
20
-3.9960613779527558
11
5.2485483070866144
21
-3.9966816535433072
0
LINE
8
BLACK
6
CONTINUOUS
10
5.2485483070866144
20
-3.9966816535433072
11
5.2481503149606299
21
-3.9973710236220472
0
LINE
8
BLACK
6
CONTINUOUS
10
5.2481503149606299
20
-3.9973710236220472
11
5.2479289370078739
21
-3.9974515748031494
0
LINE
8
BLACK
6
CONTINUOUS
10
5.2479289370078739
20
-3.9974515748031494
11
5.2477812992125985
21
-3.9976351574803148
0
LINE
8
BLACK
6
CONTINUOUS
10
5.2477812992125985
20
-3.9976351574803148
11
5.2470003149606299
21
-3.9977895669291339
0
LINE
8
BLACK
6
CONTINUOUS
10
5.2470003149606299
20
-3.9977895669291339
11
5.2462523228346454
21
-3.9980618503937007
0
LINE
8
BLACK
6
CONTINUOUS
10
5.2462523228346454
20
-3.9980618503937007
11
5.2413250787401573
21
-3.9980618503937007
0
LINE
8
BLACK
6
CONTINUOUS
10
5.2413250787401573
20
-3.9980618503937007
11
5.2386275984251967
21
-3.999410590551181
0
LINE
8
BLACK
6
CONTINUOUS
10
5.2386275984251967
20
-3.999410590551181
11
5.2374304724409448
21
-4.0006077165354332
0
LINE
8
BLACK
6
CONTINUOUS
10
5.2374304724409448
20
-4.0006077165354332
11
5.2360817322834645
21
-4.0033051968503939
0
LINE
8
BLACK
6
CONTINUOUS
10
5.2360817322834645
20
-4.0033051968503939
11
5.2360817322834645
21
-4.0112849212598425
0
LINE
8
BLACK
6
CONTINUOUS
10
5.2360817322834645
20
-4.0112849212598425
11
5.2374304724409448
21
-4.0139824015748031
0
LINE
8
BLACK
6
CONTINUOUS
10
5.2374304724409448
20
-4.0139824015748031
11
5.2386275984251967
21
-4.0151795669291337
0
LINE
8
BLACK
6
CONTINUOUS
10
5.2386275984251967
20
-4.0151795669291337
11
5.2413250787401573
21
-4.016528307086614
0
LINE
8
BLACK
6
CONTINUOUS
10
5.2413250787401573
20
-4.016528307086614
11
5.2511795669291335
21
-4.016528307086614
0
LINE
8
BLACK
6
CONTINUOUS
10
5.2511795669291335
20
-4.016528307086614
11
5.2538770078740153
21
-4.0151795669291337
0
LINE
8
BLACK
6
CONTINUOUS
10
5.2538770078740153
20
-4.0151795669291337
11
5.255412952755905
21
-4.013643622047244
0
LINE
8
BLACK
6
CONTINUOUS
10
5.255412952755905
20
-4.013643622047244
11
5.256252992125984
21
-4.0130553937007871
0
LINE
8
BLACK
6
CONTINUOUS
10
5.256252992125984
20
-4.0130553937007871
11
5.258265118110236
21
-4.0128793307086612
0
LINE
8
BLACK
6
CONTINUOUS
10
5.258265118110236
20
-4.0128793307086612
11
5.2599196456692914
21
-4.0140378346456691
0
LINE
8
BLACK
6
CONTINUOUS
10
5.2599196456692914
20
-4.0140378346456691
11
5.260442401574803
21
-4.0159888188976378
0
LINE
8
BLACK
6
CONTINUOUS
10
5.260442401574803
20
-4.0159888188976378
11
5.2595888188976376
21
-4.0178194094488191
0
LINE
8
BLACK
6
CONTINUOUS
10
5.2595888188976376
20
-4.0178194094488191
11
5.2577140944881888
21
-4.0196941732283467
0
LINE
8
BLACK
6
CONTINUOUS
10
5.2577140944881888
20
-4.0196941732283467
11
5.2569909055118105
21
-4.0202005511811025
0
LINE
8
BLACK
6
CONTINUOUS
10
5.2569909055118105
20
-4.0202005511811025
11
5.2569466535433067
21
-4.0202473228346456
0
LINE
8
BLACK
6
CONTINUOUS
10
5.2569466535433067
20
-4.0202473228346456
11
5.2531971259842516
21
-4.0221220866141731
0
LINE
8
BLACK
6
CONTINUOUS
10
5.2531971259842516
20
-4.0221220866141731
11
5.2522141732283467
21
-4.022414448818898
0
LINE
8
BLACK
6
CONTINUOUS
10
5.2522141732283467
20
-4.022414448818898
11
5.2520424803149606
21
-4.0223734251968501
0
LINE
8
BLACK
6
CONTINUOUS
10
5.2520424803149606
20
-4.0223734251968501
11
5.251876614173228
21
-4.0224338188976381
0
LINE
8
BLACK
6
CONTINUOUS
10
5.251876614173228
20
-4.0224338188976381
11
5.2406280314960627
21
-4.0224338188976381
0
LINE
8
BLACK
6
CONTINUOUS
10
5.2406280314960627
20
-4.0224338188976381
11
5.2396181102362203
21
-4.0222557480314958
0
LINE
8
BLACK
6
CONTINUOUS
10
5.2396181102362203
20
-4.0222557480314958
11
5.2394828346456688
21
-4.0221422440944883
0
LINE
8
BLACK
6
CONTINUOUS
10
5.2394828346456688
20
-4.0221422440944883
11
5.2393075196850392
21
-4.0221220866141731
0
LINE
8
BLACK
6
CONTINUOUS
10
5.2393075196850392
20
-4.0221220866141731
11
5.2355579921259841
21
-4.0202473228346456
0
LINE
8
BLACK
6
CONTINUOUS
10
5.2355579921259841
20
-4.0202473228346456
11
5.2348488582677168
21
-4.0197213385826771
0
LINE
8
BLACK
6
CONTINUOUS
10
5.2348488582677168
20
-4.0197213385826771
11
5.2347905511811019
21
-4.0196941732283467
0
LINE
8
BLACK
6
CONTINUOUS
10
5.2347905511811019
20
-4.0196941732283467
11
5.2329157874015744
21
-4.0178193700787403
0
LINE
8
BLACK
6
CONTINUOUS
10
5.2329157874015744
20
-4.0178193700787403
11
5.232409488188976
21
-4.0170962992125983
0
LINE
8
BLACK
6
CONTINUOUS
10
5.232409488188976
20
-4.0170962992125983
11
5.2323627165354329
21
-4.0170520078740157
0
LINE
8
BLACK
6
CONTINUOUS
10
5.2323627165354329
20
-4.0170520078740157
11
5.231297598425197
21
-4.0149218110236218
0
LINE
8
BLACK
6
CONTINUOUS
10
5.231297598425197
20
-4.0149218110236218
11
5.2309158267716533
21
-4.0158435433070867
0
LINE
8
BLACK
6
CONTINUOUS
10
5.2309158267716533
20
-4.0158435433070867
11
5.2292455118110235
21
-4.0165354330708665
0
LINE
8
BLACK
6
CONTINUOUS
10
5.2292455118110235
20
-4.0165354330708665
11
5.2207544881889767
21
-4.0165354330708665
0
LINE
8
BLACK
6
CONTINUOUS
10
5.2207544881889767
20
-4.0165354330708665
11
5.2190841732283459
21
-4.0158435433070867
0
LINE
8
BLACK
6
CONTINUOUS
10
5.2190841732283459
20
-4.0158435433070867
11
5.2183922834645671
21
-4.0141732283464568
0
LINE
8
BLACK
6
CONTINUOUS
10
5.2183922834645671
20
-4.0141732283464568
11
5.2190841732283459
21
-4.012502913385827
0
LINE
8
BLACK
6
CONTINUOUS
10
5.2190841732283459
20
-4.012502913385827
11
5.2207544881889767
21
-4.0118110236220472
0
LINE
8
BLACK
6
CONTINUOUS
10
5.2207544881889767
20
-4.0118110236220472
11
5.2292455118110235
21
-4.0118110236220472
0
LINE
8
BLACK
6
CONTINUOUS
10
5.2292455118110235
20
-4.0118110236220472
11
5.2302205511811026
21
-4.0122148818897641
0
LINE
8
BLACK
6
CONTINUOUS
10
5.2302205511811026
20
-4.0122148818897641
11
5.2302365748031496
21
-4.0121478346456696
0
LINE
8
BLACK
6
CONTINUOUS
10
5.2302365748031496
20
-4.0121478346456696
11
5.2301762204724405
21
-4.0119819685039371
0
LINE
8
BLACK
6
CONTINUOUS
10
5.2301762204724405
20
-4.0119819685039371
11
5.2301762204724405
21
-4.0026081496062993
0
LINE
8
BLACK
6
CONTINUOUS
10
5.2301762204724405
20
-4.0026081496062993
11
5.2303542913385828
21
-4.0015982283464568
0
LINE
8
BLACK
6
CONTINUOUS
10
5.2303542913385828
20
-4.0015982283464568
11
5.2304677559055115
21
-4.0014629527559054
0
LINE
8
BLACK
6
CONTINUOUS
10
5.2304677559055115
20
-4.0014629527559054
11
5.2304879527559054
21
-4.0012876377952757
0
LINE
8
BLACK
6
CONTINUOUS
10
5.2304879527559054
20
-4.0012876377952757
11
5.2323627165354329
21
-3.9975381102362202
0
LINE
8
BLACK
6
CONTINUOUS
10
5.2323627165354329
20
-3.9975381102362202
11
5.2328886220472439
21
-3.9968290157480313
0
LINE
8
BLACK
6
CONTINUOUS
10
5.2328886220472439
20
-3.9968290157480313
11
5.2329158267716531
21
-3.9967707086614173
0
LINE
8
BLACK
6
CONTINUOUS
10
5.2329158267716531
20
-3.9967707086614173
11
5.2347905905511807
21
-3.9948959448818897
0
LINE
8
BLACK
6
CONTINUOUS
10
5.2347905905511807
20
-3.9948959448818897
11
5.2355136614173228
21
-3.9943896456692913
0
LINE
8
BLACK
6
CONTINUOUS
10
5.2355136614173228
20
-3.9943896456692913
11
5.2355579921259841
21
-3.9943428346456691
0
LINE
8
BLACK
6
CONTINUOUS
10
5.2355579921259841
20
-3.9943428346456691
11
5.2393075196850392
21
-3.9924680708661415
0
LINE
8
BLACK
6
CONTINUOUS
10
5.2393075196850392
20
-3.9924680708661415
11
5.2398711811023624
21
-3.9923003937007873
0
LINE
8
BLACK
6
CONTINUOUS
10
5.2398711811023624
20
-3.9923003937007873
11
5.2309068110236216
21
-3.9820553937007874
0
LINE
8
BLACK
6
CONTINUOUS
10
5.2309068110236216
20
-3.9820553937007874
11
5.230676889763779
21
-3.9816755118110234
0
LINE
8
BLACK
6
CONTINUOUS
10
5.230676889763779
20
-3.9816755118110234
11
5.2305718110236219
21
-3.9815873622047242
0
LINE
8
BLACK
6
CONTINUOUS
10
5.2305718110236219
20
-3.9815873622047242
11
5.2305505511811026
21
-3.981466771653543
0
LINE
8
BLACK
6
CONTINUOUS
10
5.2305505511811026
20
-3.981466771653543
11
5.2303757874015746
21
-3.9811780708661417
0
LINE
8
BLACK
6
CONTINUOUS
10
5.2303757874015746
20
-3.9811780708661417
11
5.2303592913385826
21
-3.9803822047244095
0
LINE
8
BLACK
6
CONTINUOUS
10
5.2303592913385826
20
-3.9803822047244095
11
5.2302210629921255
21
-3.9795982283464566
0
LINE
8
BLACK
6
CONTINUOUS
10
5.2302210629921255
20
-3.9795982283464566
11
5.2303388188976374
21
-3.9793942125984252
0
LINE
8
BLACK
6
CONTINUOUS
10
5.2303388188976374
20
-3.9793942125984252
11
5.2303339763779526
21
-3.9791587401574802
0
LINE
8
BLACK
6
CONTINUOUS
10
5.2303339763779526
20
-3.9791587401574802
11
5.2308329133858269
21
-3.9785384645669288
0
LINE
8
BLACK
6
CONTINUOUS
10
5.2308329133858269
20
-3.9785384645669288
11
5.231230984251968
21
-3.97784905511811
0
LINE
8
BLACK
6
CONTINUOUS
10
5.231230984251968
20
-3.97784905511811
11
5.2314523228346452
21
-3.9777684645669291
0
LINE
8
BLACK
6
CONTINUOUS
10
5.2314523228346452
20
-3.9777684645669291
11
5.2316000000000003
21
-3.9775849212598424
0
LINE
8
BLACK
6
CONTINUOUS
10
5.2316000000000003
20
-3.9775849212598424
11
5.2323809448818892
21
-3.9774304724409446
0
LINE
8
BLACK
6
CONTINUOUS
10
5.2323809448818892
20
-3.9774304724409446
11
5.2331289763779525
21
-3.9771582283464566
0
LINE
8
BLACK
6
CONTINUOUS
10
5.2331289763779525
20
-3.9771582283464566
11
5.2575009055118107
21
-3.9771582283464566
0
LINE
8
BLACK
6
CONTINUOUS
10
5.2575009055118107
20
-3.9771582283464566
11
5.2585108267716532
21
-3.9773362992125985
0
LINE
8
BLACK
6
CONTINUOUS
10
5.2972581496062991
20
-3.9782129921259841
11
5.2979489763779526
21
-3.9801109842519686
0
LINE
8
BLACK
6
CONTINUOUS
10
5.2979489763779526
20
-3.9801109842519686
11
5.2979489763779526
21
-4.0119819685039371
0
LINE
8
BLACK
6
CONTINUOUS
10
5.2979489763779526
20
-4.0119819685039371
11
5.2977709055118112
21
-4.0129918897637795
0
LINE
8
BLACK
6
CONTINUOUS
10
5.2977709055118112
20
-4.0129918897637795
11
5.2976574015748028
21
-4.0131271259842523
0
LINE
8
BLACK
6
CONTINUOUS
10
5.2976574015748028
20
-4.0131271259842523
11
5.2976372440944877
21
-4.0133024803149606
0
LINE
8
BLACK
6
CONTINUOUS
10
5.2976372440944877
20
-4.0133024803149606
11
5.2957624803149601
21
-4.0170520078740157
0
LINE
8
BLACK
6
CONTINUOUS
10
5.2957624803149601
20
-4.0170520078740157
11
5.2952365354330704
21
-4.0177610629921263
0
LINE
8
BLACK
6
CONTINUOUS
10
5.2952365354330704
20
-4.0177610629921263
11
5.2952093700787399
21
-4.0178194094488191
0
LINE
8
BLACK
6
CONTINUOUS
10
5.2952093700787399
20
-4.0178194094488191
11
5.2933346456692911
21
-4.0196941732283467
0
LINE
8
BLACK
6
CONTINUOUS
10
5.2933346456692911
20
-4.0196941732283467
11
5.2926114566929137
21
-4.0202005511811025
0
LINE
8
BLACK
6
CONTINUOUS
10
5.2926114566929137
20
-4.0202005511811025
11
5.292567204724409
21
-4.0202473228346456
0
LINE
8
BLACK
6
CONTINUOUS
10
5.292567204724409
20
-4.0202473228346456
11
5.2888176771653539
21
-4.0221220866141731
0
LINE
8
BLACK
6
CONTINUOUS
10
5.2888176771653539
20
-4.0221220866141731
11
5.287834724409449
21
-4.022414448818898
0
LINE
8
BLACK
6
CONTINUOUS
10
5.287834724409449
20
-4.022414448818898
11
5.2876630314960629
21
-4.0223734251968501
0
LINE
8
BLACK
6
CONTINUOUS
10
5.2876630314960629
20
-4.0223734251968501
11
5.2874971653543303
21
-4.0224338188976381
0
LINE
8
BLACK
6
CONTINUOUS
10
5.2874971653543303
20
-4.0224338188976381
11
5.2799981102362201
21
-4.0224338188976381
0
LINE
8
BLACK
6
CONTINUOUS
10
5.2799981102362201
20
-4.0224338188976381
11
5.2789881889763777
21
-4.0222557480314958
0
LINE
8
BLACK
6
CONTINUOUS
10
5.2789881889763777
20
-4.0222557480314958
11
5.2788529133858271
21
-4.0221422440944883
0
LINE
8
BLACK
6
CONTINUOUS
10
5.2788529133858271
20
-4.0221422440944883
11
5.2786775984251966
21
-4.0221220866141731
0
LINE
8
BLACK
6
CONTINUOUS
10
5.2786775984251966
20
-4.0221220866141731
11
5.2749280708661415
21
-4.0202473228346456
0
LINE
8
BLACK
6
CONTINUOUS
10
5.2749280708661415
20
-4.0202473228346456
11
5.2742189370078743
21
-4.0197213385826771
0
LINE
8
BLACK
6
CONTINUOUS
10
5.2742189370078743
20
-4.0197213385826771
11
5.2741606299212593
21
-4.0196941732283467
0
LINE
8
BLACK
6
CONTINUOUS
10
5.2741606299212593
20
-4.0196941732283467
11
5.2722858661417318
21
-4.0178193700787403
0
LINE
8
BLACK
6
CONTINUOUS
10
5.2722858661417318
20
-4.0178193700787403
11
5.2717795669291334
21
-4.0170962992125983
0
LINE
8
BLACK
6
CONTINUOUS
10
5.2717795669291334
20
-4.0170962992125983
11
5.2717327952755904
21
-4.0170520078740157
0
LINE
8
BLACK
6
CONTINUOUS
10
5.2717327952755904
20
-4.0170520078740157
11
5.2698580314960628
21
-4.0133024803149606
0
LINE
8
BLACK
6
CONTINUOUS
10
5.2698580314960628
20
-4.0133024803149606
11
5.2695656692913388
21
-4.0123195275590549
0
LINE
8
BLACK
6
CONTINUOUS
10
5.2695656692913388
20
-4.0123195275590549
11
5.269606653543307
21
-4.0121478346456696
0
LINE
8
BLACK
6
CONTINUOUS
10
5.269606653543307
20
-4.0121478346456696
11
5.2695462992125979
21
-4.0119819685039371
0
LINE
8
BLACK
6
CONTINUOUS
10
5.2695462992125979
20
-4.0119819685039371
11
5.2695462992125979
21
-3.9801109842519686
0
LINE
8
BLACK
6
CONTINUOUS
10
5.2695462992125979
20
-3.9801109842519686
11
5.2697243700787402
21
-3.9791010629921257
0
LINE
8
BLACK
6
CONTINUOUS
10
5.2697243700787402
20
-3.9791010629921257
11
5.2710226771653543
21
-3.9775538188976376
0
LINE
8
BLACK
6
CONTINUOUS
10
5.2710226771653543
20
-3.9775538188976376
11
5.2730118110236219
21
-3.9772030708661417
0
LINE
8
BLACK
6
CONTINUOUS
10
5.2730118110236219
20
-3.9772030708661417
11
5.2747609842519685
21
-3.9782129921259841
0
LINE
8
BLACK
6
CONTINUOUS
10
5.2747609842519685
20
-3.9782129921259841
11
5.2754518110236219
21
-3.9801109842519686
0
LINE
8
BLACK
6
CONTINUOUS
10
5.2754518110236219
20
-3.9801109842519686
11
5.2754518110236219
21
-4.0112849212598425
0
LINE
8
BLACK
6
CONTINUOUS
10
5.2754518110236219
20
-4.0112849212598425
11
5.2768005511811023
21
-4.0139824015748031
0
LINE
8
BLACK
6
CONTINUOUS
10
5.2768005511811023
20
-4.0139824015748031
11
5.2779976771653541
21
-4.0151795669291337
0
LINE
8
BLACK
6
CONTINUOUS
10
5.2779976771653541
20
-4.0151795669291337
11
5.2806951574803147
21
-4.016528307086614
0
LINE
8
BLACK
6
CONTINUOUS
10
5.2806951574803147
20
-4.016528307086614
11
5.2868001181102358
21
-4.016528307086614
0
LINE
8
BLACK
6
CONTINUOUS
10
5.2868001181102358
20
-4.016528307086614
11
5.2894975590551176
21
-4.0151795669291337
0
LINE
8
BLACK
6
CONTINUOUS
10
5.2894975590551176
20
-4.0151795669291337
11
5.2906946850393703
21
-4.0139824015748031
0
LINE
8
BLACK
6
CONTINUOUS
10
5.2906946850393703
20
-4.0139824015748031
11
5.2920434645669294
21
-4.0112849212598425
0
LINE
8
BLACK
6
CONTINUOUS
10
5.2920434645669294
20
-4.0112849212598425
11
5.2920434645669294
21
-3.9801109842519686
0
LINE
8
BLACK
6
CONTINUOUS
10
5.2920434645669294
20
-3.9801109842519686
11
5.2922215354330708
21
-3.9791010629921257
0
LINE
8
BLACK
6
CONTINUOUS
10
5.2922215354330708
20
-3.9791010629921257
11
5.293519842519685
21
-3.9775538188976376
0
LINE
8
BLACK
6
CONTINUOUS
10
5.293519842519685
20
-3.9775538188976376
11
5.2955089763779526
21
-3.9772030708661417
0
LINE
8
BLACK
6
CONTINUOUS
10
5.2955089763779526
20
-3.9772030708661417
11
5.2972581496062991
21
-3.9782129921259841
0
LINE
8
BLACK
6
CONTINUOUS
10
5.5271053149606297
20
-4.0000453543307088
11
5.5276492125984253
21
-4.0001762204724409
0
LINE
8
BLACK
6
CONTINUOUS
10
5.5276492125984253
20
-4.0001762204724409
11
5.5278470472440944
21
-4.0004993700787397
0
LINE
8
BLACK
6
CONTINUOUS
10
5.5278470472440944
20
-4.0004993700787397
11
5.5281702362204719
21
-4.0006972440944883
0
LINE
8
BLACK
6
CONTINUOUS
10
5.5281702362204719
20
-4.0006972440944883
11
5.5376190551181104
21
-4.0136893700787404
0
LINE
8
BLACK
6
CONTINUOUS
10
5.5376190551181104
20
-4.0136893700787404
11
5.5377903937007869
21
-4.0144016929133857
0
LINE
8
BLACK
6
CONTINUOUS
10
5.5377903937007869
20
-4.0144016929133857
11
5.5380708661417319
21
-4.0150787401574801
0
LINE
8
BLACK
6
CONTINUOUS
10
5.5380708661417319
20
-4.0150787401574801
11
5.5379964566929134
21
-4.0152582677165354
0
LINE
8
BLACK
6
CONTINUOUS
10
5.5379964566929134
20
-4.0152582677165354
11
5.5380419291338585
21
-4.0154471653543302
0
LINE
8
BLACK
6
CONTINUOUS
10
5.5380419291338585
20
-4.0154471653543302
11
5.5376593700787398
21
-4.0160720472440943
0
LINE
8
BLACK
6
CONTINUOUS
10
5.5376593700787398
20
-4.0160720472440943
11
5.5373789763779531
21
-4.01674905511811
0
LINE
8
BLACK
6
CONTINUOUS
10
5.5373789763779531
20
-4.01674905511811
11
5.5371994488188978
21
-4.0168233858267719
0
LINE
8
BLACK
6
CONTINUOUS
10
5.5371994488188978
20
-4.0168233858267719
11
5.5370980314960629
21
-4.0169891338582673
0
LINE
8
BLACK
6
CONTINUOUS
10
5.5370980314960629
20
-4.0169891338582673
11
5.536385669291338
21
-4.0171604724409447
0
LINE
8
BLACK
6
CONTINUOUS
10
5.536385669291338
20
-4.0171604724409447
11
5.5357086614173223
21
-4.0174409448818897
0
LINE
8
BLACK
6
CONTINUOUS
10
5.5357086614173223
20
-4.0174409448818897
11
5.5168110236220471
21
-4.0174409448818897
0
LINE
8
BLACK
6
CONTINUOUS
10
5.5168110236220471
20
-4.0174409448818897
11
5.5161339763779527
21
-4.0171604724409447
0
LINE
8
BLACK
6
CONTINUOUS
10
5.5161339763779527
20
-4.0171604724409447
11
5.5154216535433074
21
-4.0169891338582673
0
LINE
8
BLACK
6
CONTINUOUS
10
5.5154216535433074
20
-4.0169891338582673
11
5.5153201968503938
21
-4.0168233858267719
0
LINE
8
BLACK
6
CONTINUOUS
10
5.5153201968503938
20
-4.0168233858267719
11
5.5151407086614173
21
-4.01674905511811
0
LINE
8
BLACK
6
CONTINUOUS
10
5.5151407086614173
20
-4.01674905511811
11
5.5148602755905509
21
-4.0160720472440943
0
LINE
8
BLACK
6
CONTINUOUS
10
5.5148602755905509
20
-4.0160720472440943
11
5.5144777559055118
21
-4.0154471653543302
0
LINE
8
BLACK
6
CONTINUOUS
10
5.5144777559055118
20
-4.0154471653543302
11
5.5145231889763782
21
-4.0152582677165354
0
LINE
8
BLACK
6
CONTINUOUS
10
5.5145231889763782
20
-4.0152582677165354
11
5.5144488188976375
21
-4.0150787401574801
0
LINE
8
BLACK
6
CONTINUOUS
10
5.5144488188976375
20
-4.0150787401574801
11
5.5147292519685038
21
-4.0144016929133857
0
LINE
8
BLACK
6
CONTINUOUS
10
5.5147292519685038
20
-4.0144016929133857
11
5.51490062992126
21
-4.0136893700787404
0
LINE
8
BLACK
6
CONTINUOUS
10
5.51490062992126
20
-4.0136893700787404
11
5.5243494488188976
21
-4.0006972440944883
0
LINE
8
BLACK
6
CONTINUOUS
10
5.5243494488188976
20
-4.0006972440944883
11
5.5246725984251963
21
-4.0004993700787397
0
LINE
8
BLACK
6
CONTINUOUS
10
5.5246725984251963
20
-4.0004993700787397
11
5.524870472440945
21
-4.0001762204724409
0
LINE
8
BLACK
6
CONTINUOUS
10
5.524870472440945
20
-4.0001762204724409
11
5.5254143307086609
21
-4.0000453543307088
0
LINE
8
BLACK
6
CONTINUOUS
10
5.5254143307086609
20
-4.0000453543307088
11
5.5258914173228346
21
-3.9997533464566928
0
LINE
8
BLACK
6
CONTINUOUS
10
5.5258914173228346
20
-3.9997533464566928
11
5.5262598425196847
21
-3.999841968503937
0
LINE
8
BLACK
6
CONTINUOUS
10
5.5262598425196847
20
-3.999841968503937
11
5.5266282677165357
21
-3.9997533464566928
0
LINE
8
BLACK
6
CONTINUOUS
10
5.5266282677165357
20
-3.9997533464566928
11
5.5271053149606297
21
-4.0000453543307088
0
LINE
8
BLACK
6
CONTINUOUS
10
5.6657254330708664
20
-4.0071092125984249
11
5.6664173228346453
21
-4.0087795275590548
0
LINE
8
BLACK
6
CONTINUOUS
10
5.6664173228346453
20
-4.0087795275590548
11
5.6657254330708664
21
-4.0104498425196846
0
LINE
8
BLACK
6
CONTINUOUS
10
5.6657254330708664
20
-4.0104498425196846
11
5.6640551181102357
21
-4.0111417322834644
0
LINE
8
BLACK
6
CONTINUOUS
10
5.6640551181102357
20
-4.0111417322834644
11
5.5459448818897634
21
-4.0111417322834644
0
LINE
8
BLACK
6
CONTINUOUS
10
5.5459448818897634
20
-4.0111417322834644
11
5.5442745669291336
21
-4.0104498425196846
0
LINE
8
BLACK
6
CONTINUOUS
10
5.5442745669291336
20
-4.0104498425196846
11
5.5435826771653538
21
-4.0087795275590548
0
LINE
8
BLACK
6
CONTINUOUS
10
5.5435826771653538
20
-4.0087795275590548
11
5.5442745669291336
21
-4.0071092125984249
0
LINE
8
BLACK
6
CONTINUOUS
10
5.5442745669291336
20
-4.0071092125984249
11
5.5459448818897634
21
-4.006417322834646
0
LINE
8
BLACK
6
CONTINUOUS
10
5.5459448818897634
20
-4.006417322834646
11
5.6640551181102357
21
-4.006417322834646
0
LINE
8
BLACK
6
CONTINUOUS
10
5.6640551181102357
20
-4.006417322834646
11
5.6657254330708664
21
-4.0071092125984249
0
LINE
8
BLACK
6
CONTINUOUS
10
5.4417096850393696
20
-3.9922808267716534
11
5.4424015748031493
21
-3.9939511417322833
0
LINE
8
BLACK
6
CONTINUOUS
10
5.4424015748031493
20
-3.9939511417322833
11
5.4424015748031493
21
-4.0060488582677163
0
LINE
8
BLACK
6
CONTINUOUS
10
5.4424015748031493
20
-4.0060488582677163
11
5.4417096850393696
21
-4.0077191732283461
0
LINE
8
BLACK
6
CONTINUOUS
10
5.4417096850393696
20
-4.0077191732283461
11
5.4400393700787397
21
-4.0084110629921259
0
LINE
8
BLACK
6
CONTINUOUS
10
5.4400393700787397
20
-4.0084110629921259
11
5.4383690551181099
21
-4.0077191732283461
0
LINE
8
BLACK
6
CONTINUOUS
10
5.4383690551181099
20
-4.0077191732283461
11
5.437677165354331
21
-4.0060488582677163
0
LINE
8
BLACK
6
CONTINUOUS
10
5.437677165354331
20
-4.0060488582677163
11
5.437677165354331
21
-3.9939511417322833
0
LINE
8
BLACK
6
CONTINUOUS
10
5.437677165354331
20
-3.9939511417322833
11
5.4383690551181099
21
-3.9922808267716534
0
LINE
8
BLACK
6
CONTINUOUS
10
5.4383690551181099
20
-3.9922808267716534
11
5.4400393700787397
21
-3.9915889370078741
0
LINE
8
BLACK
6
CONTINUOUS
10
5.4400393700787397
20
-3.9915889370078741
11
5.4417096850393696
21
-3.9922808267716534
0
LINE
8
BLACK
6
CONTINUOUS
10
5.4716309448818894
20
-3.9922808267716534
11
5.4723228346456692
21
-3.9939511417322833
0
LINE
8
BLACK
6
CONTINUOUS
10
5.4723228346456692
20
-3.9939511417322833
11
5.4723228346456692
21
-4.0060488582677163
0
LINE
8
BLACK
6
CONTINUOUS
10
5.4723228346456692
20
-4.0060488582677163
11
5.4716309448818894
21
-4.0077191732283461
0
LINE
8
BLACK
6
CONTINUOUS
10
5.4716309448818894
20
-4.0077191732283461
11
5.4699606299212595
21
-4.0084110629921259
0
LINE
8
BLACK
6
CONTINUOUS
10
5.4699606299212595
20
-4.0084110629921259
11
5.4682903149606297
21
-4.0077191732283461
0
LINE
8
BLACK
6
CONTINUOUS
10
5.4682903149606297
20
-4.0077191732283461
11
5.4675984251968499
21
-4.0060488582677163
0
LINE
8
BLACK
6
CONTINUOUS
10
5.4675984251968499
20
-4.0060488582677163
11
5.4675984251968499
21
-3.9939511417322833
0
LINE
8
BLACK
6
CONTINUOUS
10
5.4675984251968499
20
-3.9939511417322833
11
5.4682903149606297
21
-3.9922808267716534
0
LINE
8
BLACK
6
CONTINUOUS
10
5.4682903149606297
20
-3.9922808267716534
11
5.4699606299212595
21
-3.9915889370078741
0
LINE
8
BLACK
6
CONTINUOUS
10
5.4699606299212595
20
-3.9915889370078741
11
5.4716309448818894
21
-3.9922808267716534
0
LINE
8
BLACK
6
CONTINUOUS
10
5.2309158267716533
20
-3.9841564566929133
11
5.2316077165354331
21
-3.9858267716535432
0
LINE
8
BLACK
6
CONTINUOUS
10
5.2316077165354331
20
-3.9858267716535432
11
5.2309158267716533
21
-3.987497086614173
0
LINE
8
BLACK
6
CONTINUOUS
10
5.2309158267716533
20
-3.987497086614173
11
5.2292455118110235
21
-3.9881889763779528
0
LINE
8
BLACK
6
CONTINUOUS
10
5.2292455118110235
20
-3.9881889763779528
11
5.2207544881889767
21
-3.9881889763779528
0
LINE
8
BLACK
6
CONTINUOUS
10
5.2207544881889767
20
-3.9881889763779528
11
5.2190841732283459
21
-3.987497086614173
0
LINE
8
BLACK
6
CONTINUOUS
10
5.2190841732283459
20
-3.987497086614173
11
5.2183922834645671
21
-3.9858267716535432
0
LINE
8
BLACK
6
CONTINUOUS
10
5.2183922834645671
20
-3.9858267716535432
11
5.2190841732283459
21
-3.9841564566929133
0
LINE
8
BLACK
6
CONTINUOUS
10
5.2190841732283459
20
-3.9841564566929133
11
5.2207544881889767
21
-3.983464566929134
0
LINE
8
BLACK
6
CONTINUOUS
10
5.2207544881889767
20
-3.983464566929134
11
5.2292455118110235
21
-3.983464566929134
0
LINE
8
BLACK
6
CONTINUOUS
10
5.2292455118110235
20
-3.983464566929134
11
5.2309158267716533
21
-3.9841564566929133
0
LINE
8
BLACK
6
CONTINUOUS
10
5.2637658267716532
20
-3.9252174409448819
11
5.2653130708661413
21
-3.9265157480314961
0
LINE
8
BLACK
6
CONTINUOUS
10
5.2653130708661413
20
-3.9265157480314961
11
5.2656638188976377
21
-3.9285048818897637
0
LINE
8
BLACK
6
CONTINUOUS
10
5.2656638188976377
20
-3.9285048818897637
11
5.2646538976377952
21
-3.9302540551181102
0
LINE
8
BLACK
6
CONTINUOUS
10
5.2646538976377952
20
-3.9302540551181102
11
5.2627559055118107
21
-3.9309448818897637
0
LINE
8
BLACK
6
CONTINUOUS
10
5.2627559055118107
20
-3.9309448818897637
11
5.2470078740157478
21
-3.9309448818897637
0
LINE
8
BLACK
6
CONTINUOUS
10
5.2470078740157478
20
-3.9309448818897637
11
5.2459979527559053
21
-3.9307668110236218
0
LINE
8
BLACK
6
CONTINUOUS
10
5.2459979527559053
20
-3.9307668110236218
11
5.2444507086614172
21
-3.9294685039370076
0
LINE
8
BLACK
6
CONTINUOUS
10
5.2444507086614172
20
-3.9294685039370076
11
5.2440999606299208
21
-3.92747937007874
0
LINE
8
BLACK
6
CONTINUOUS
10
5.2440999606299208
20
-3.92747937007874
11
5.2451098818897632
21
-3.9257301968503935
0
LINE
8
BLACK
6
CONTINUOUS
10
5.2451098818897632
20
-3.9257301968503935
11
5.2470078740157478
21
-3.92503937007874
0
LINE
8
BLACK
6
CONTINUOUS
10
5.2470078740157478
20
-3.92503937007874
11
5.2627559055118107
21
-3.92503937007874
0
LINE
8
BLACK
6
CONTINUOUS
10
5.2627559055118107
20
-3.92503937007874
11
5.2637658267716532
21
-3.9252174409448819
0
LINE
8
BLACK
6
CONTINUOUS
10
5.3752540551181101
20
-3.9103461023622046
11
5.3759448818897635
21
-3.9122440944881891
0
LINE
8
BLACK
6
CONTINUOUS
10
5.3759448818897635
20
-3.9122440944881891
11
5.3759448818897635
21
-3.9279921259842521
0
LINE
8
BLACK
6
CONTINUOUS
10
5.3759448818897635
20
-3.9279921259842521
11
5.3758772440944878
21
-3.9283756299212595
0
LINE
8
BLACK
6
CONTINUOUS
10
5.3758772440944878
20
-3.9283756299212595
11
5.3759000393700784
21
-3.9285048818897637
0
LINE
8
BLACK
6
CONTINUOUS
10
5.3759000393700784
20
-3.9285048818897637
11
5.3758344094488191
21
-3.9286184645669291
0
LINE
8
BLACK
6
CONTINUOUS
10
5.3758344094488191
20
-3.9286184645669291
11
5.3757668110236221
21
-3.9290020472440945
0
LINE
8
BLACK
6
CONTINUOUS
10
5.3757668110236221
20
-3.9290020472440945
11
5.3752736614173227
21
-3.9295897244094489
0
LINE
8
BLACK
6
CONTINUOUS
10
5.3752736614173227
20
-3.9295897244094489
11
5.374890118110236
21
-3.9302540551181102
0
LINE
8
BLACK
6
CONTINUOUS
10
5.374890118110236
20
-3.9302540551181102
11
5.3746397637795278
21
-3.930345157480315
0
LINE
8
BLACK
6
CONTINUOUS
10
5.3746397637795278
20
-3.930345157480315
11
5.3744685039370079
21
-3.9305492913385827
0
LINE
8
BLACK
6
CONTINUOUS
10
5.3744685039370079
20
-3.9305492913385827
11
5.3737129133858268
21
-3.9306825196850395
0
LINE
8
BLACK
6
CONTINUOUS
10
5.3737129133858268
20
-3.9306825196850395
11
5.3729921259842515
21
-3.9309448818897637
0
LINE
8
BLACK
6
CONTINUOUS
10
5.3729921259842515
20
-3.9309448818897637
11
5.3572440944881885
21
-3.9309448818897637
0
LINE
8
BLACK
6
CONTINUOUS
10
5.3572440944881885
20
-3.9309448818897637
11
5.3562341732283461
21
-3.9307668110236218
0
LINE
8
BLACK
6
CONTINUOUS
10
5.3562341732283461
20
-3.9307668110236218
11
5.3546869291338579
21
-3.9294685039370076
0
LINE
8
BLACK
6
CONTINUOUS
10
5.3546869291338579
20
-3.9294685039370076
11
5.3543361811023624
21
-3.92747937007874
0
LINE
8
BLACK
6
CONTINUOUS
10
5.3543361811023624
20
-3.92747937007874
11
5.3553461023622049
21
-3.9257301968503935
0
LINE
8
BLACK
6
CONTINUOUS
10
5.3553461023622049
20
-3.9257301968503935
11
5.3572440944881885
21
-3.92503937007874
0
LINE
8
BLACK
6
CONTINUOUS
10
5.3572440944881885
20
-3.92503937007874
11
5.3700393700787403
21
-3.92503937007874
0
LINE
8
BLACK
6
CONTINUOUS
10
5.3700393700787403
20
-3.92503937007874
11
5.3700393700787403
21
-3.9122440944881891
0
LINE
8
BLACK
6
CONTINUOUS
10
5.3700393700787403
20
-3.9122440944881891
11
5.3702174409448817
21
-3.9112341732283462
0
LINE
8
BLACK
6
CONTINUOUS
10
5.3702174409448817
20
-3.9112341732283462
11
5.3715157480314959
21
-3.9096869291338581
0
LINE
8
BLACK
6
CONTINUOUS
10
5.3715157480314959
20
-3.9096869291338581
11
5.3735048818897635
21
-3.9093361811023621
0
LINE
8
BLACK
6
CONTINUOUS
10
5.3735048818897635
20
-3.9093361811023621
11
5.3752540551181101
21
-3.9103461023622046
0
LINE
8
BLACK
6
CONTINUOUS
10
5.4417096850393696
20
-3.9072808267716534
11
5.4424015748031493
21
-3.9089511417322833
0
LINE
8
BLACK
6
CONTINUOUS
10
5.4424015748031493
20
-3.9089511417322833
11
5.4424015748031493
21
-3.9210488582677163
0
LINE
8
BLACK
6
CONTINUOUS
10
5.4424015748031493
20
-3.9210488582677163
11
5.4417096850393696
21
-3.9227191732283462
0
LINE
8
BLACK
6
CONTINUOUS
10
5.4417096850393696
20
-3.9227191732283462
11
5.4400393700787397
21
-3.9234110629921259
0
LINE
8
BLACK
6
CONTINUOUS
10
5.4400393700787397
20
-3.9234110629921259
11
5.4383690551181099
21
-3.9227191732283462
0
LINE
8
BLACK
6
CONTINUOUS
10
5.4383690551181099
20
-3.9227191732283462
11
5.437677165354331
21
-3.9210488582677163
0
LINE
8
BLACK
6
CONTINUOUS
10
5.437677165354331
20
-3.9210488582677163
11
5.437677165354331
21
-3.9089511417322833
0
LINE
8
BLACK
6
CONTINUOUS
10
5.437677165354331
20
-3.9089511417322833
11
5.4383690551181099
21
-3.9072808267716534
0
LINE
8
BLACK
6
CONTINUOUS
10
5.4383690551181099
20
-3.9072808267716534
11
5.4400393700787397
21
-3.9065889370078741
0
LINE
8
BLACK
6
CONTINUOUS
10
5.4400393700787397
20
-3.9065889370078741
11
5.4417096850393696
21
-3.9072808267716534
0
LINE
8
BLACK
6
CONTINUOUS
10
5.4716309448818894
20
-3.9072808267716534
11
5.4723228346456692
21
-3.9089511417322833
0
LINE
8
BLACK
6
CONTINUOUS
10
5.4723228346456692
20
-3.9089511417322833
11
5.4723228346456692
21
-3.9210488582677163
0
LINE
8
BLACK
6
CONTINUOUS
10
5.4723228346456692
20
-3.9210488582677163
11
5.4716309448818894
21
-3.9227191732283462
0
LINE
8
BLACK
6
CONTINUOUS
10
5.4716309448818894
20
-3.9227191732283462
11
5.4699606299212595
21
-3.9234110629921259
0
LINE
8
BLACK
6
CONTINUOUS
10
5.4699606299212595
20
-3.9234110629921259
11
5.4682903149606297
21
-3.9227191732283462
0
LINE
8
BLACK
6
CONTINUOUS
10
5.4682903149606297
20
-3.9227191732283462
11
5.4675984251968499
21
-3.9210488582677163
0
LINE
8
BLACK
6
CONTINUOUS
10
5.4675984251968499
20
-3.9210488582677163
11
5.4675984251968499
21
-3.9089511417322833
0
LINE
8
BLACK
6
CONTINUOUS
10
5.4675984251968499
20
-3.9089511417322833
11
5.4682903149606297
21
-3.9072808267716534
0
LINE
8
BLACK
6
CONTINUOUS
10
5.4682903149606297
20
-3.9072808267716534
11
5.4699606299212595
21
-3.9065889370078741
0
LINE
8
BLACK
6
CONTINUOUS
10
5.4699606299212595
20
-3.9065889370078741
11
5.4716309448818894
21
-3.9072808267716534
0
LINE
8
BLACK
6
CONTINUOUS
10
5.6657254330708664
20
-3.8795501574803151
11
5.6664173228346453
21
-3.8812204724409449
0
LINE
8
BLACK
6
CONTINUOUS
10
5.6664173228346453
20
-3.8812204724409449
11
5.6657254330708664
21
-3.8828907874015748
0
LINE
8
BLACK
6
CONTINUOUS
10
5.6657254330708664
20
-3.8828907874015748
11
5.6640551181102357
21
-3.8835826771653541
0
LINE
8
BLACK
6
CONTINUOUS
10
5.6640551181102357
20
-3.8835826771653541
11
5.5459448818897634
21
-3.8835826771653541
0
LINE
8
BLACK
6
CONTINUOUS
10
5.5459448818897634
20
-3.8835826771653541
11
5.5442745669291336
21
-3.8828907874015748
0
LINE
8
BLACK
6
CONTINUOUS
10
5.5442745669291336
20
-3.8828907874015748
11
5.5435826771653538
21
-3.8812204724409449
0
LINE
8
BLACK
6
CONTINUOUS
10
5.5435826771653538
20
-3.8812204724409449
11
5.5442745669291336
21
-3.8795501574803151
0
LINE
8
BLACK
6
CONTINUOUS
10
5.5442745669291336
20
-3.8795501574803151
11
5.5459448818897634
21
-3.8788582677165353
0
LINE
8
BLACK
6
CONTINUOUS
10
5.5459448818897634
20
-3.8788582677165353
11
5.6640551181102357
21
-3.8788582677165353
0
LINE
8
BLACK
6
CONTINUOUS
10
5.6640551181102357
20
-3.8788582677165353
11
5.6657254330708664
21
-3.8795501574803151
0
LINE
8
BLACK
6
CONTINUOUS
10
4.9130571653543305
20
-3.8080914566929134
11
4.9146044094488186
21
-3.8093897637795275
0
LINE
8
BLACK
6
CONTINUOUS
10
4.9146044094488186
20
-3.8093897637795275
11
4.914955157480315
21
-3.8113788976377951
0
LINE
8
BLACK
6
CONTINUOUS
10
4.914955157480315
20
-3.8113788976377951
11
4.9139452362204725
21
-3.8131280708661417
0
LINE
8
BLACK
6
CONTINUOUS
10
4.9139452362204725
20
-3.8131280708661417
11
4.912047244094488
21
-3.8138188976377951
0
LINE
8
BLACK
6
CONTINUOUS
10
4.912047244094488
20
-3.8138188976377951
11
4.8382283464566926
21
-3.8138188976377951
0
LINE
8
BLACK
6
CONTINUOUS
10
4.8382283464566926
20
-3.8138188976377951
11
4.8382283464566926
21
-3.8679527559055118
0
LINE
8
BLACK
6
CONTINUOUS
10
4.8382283464566926
20
-3.8679527559055118
11
4.8380502755905512
21
-3.8689626771653542
0
LINE
8
BLACK
6
CONTINUOUS
10
4.8380502755905512
20
-3.8689626771653542
11
4.8367519685039371
21
-3.8705099212598424
0
LINE
8
BLACK
6
CONTINUOUS
10
4.8367519685039371
20
-3.8705099212598424
11
4.8347628346456695
21
-3.8708606692913383
0
LINE
8
BLACK
6
CONTINUOUS
10
4.8347628346456695
20
-3.8708606692913383
11
4.8330136614173229
21
-3.8698507480314959
0
LINE
8
BLACK
6
CONTINUOUS
10
4.8330136614173229
20
-3.8698507480314959
11
4.8323228346456695
21
-3.8679527559055118
0
LINE
8
BLACK
6
CONTINUOUS
10
4.8323228346456695
20
-3.8679527559055118
11
4.8323228346456695
21
-3.8108661417322836
0
LINE
8
BLACK
6
CONTINUOUS
10
4.8323228346456695
20
-3.8108661417322836
11
4.8323904330708665
21
-3.8104825984251969
0
LINE
8
BLACK
6
CONTINUOUS
10
4.8323904330708665
20
-3.8104825984251969
11
4.8323676771653545
21
-3.8103533858267715
0
LINE
8
BLACK
6
CONTINUOUS
10
4.8323676771653545
20
-3.8103533858267715
11
4.8324332677165351
21
-3.8102397637795273
0
LINE
8
BLACK
6
CONTINUOUS
10
4.8324332677165351
20
-3.8102397637795273
11
4.8325009055118109
21
-3.8098562204724407
0
LINE
8
BLACK
6
CONTINUOUS
10
4.8325009055118109
20
-3.8098562204724407
11
4.8329940157480316
21
-3.809268503937008
0
LINE
8
BLACK
6
CONTINUOUS
10
4.8329940157480316
20
-3.809268503937008
11
4.833377598425197
21
-3.808604212598425
0
LINE
8
BLACK
6
CONTINUOUS
10
4.833377598425197
20
-3.808604212598425
11
4.8336279133858264
21
-3.8085130708661414
0
LINE
8
BLACK
6
CONTINUOUS
10
4.8336279133858264
20
-3.8085130708661414
11
4.833799212598425
21
-3.8083089763779525
0
LINE
8
BLACK
6
CONTINUOUS
10
4.833799212598425
20
-3.8083089763779525
11
4.8345547637795274
21
-3.8081757086614174
0
LINE
8
BLACK
6
CONTINUOUS
10
4.8345547637795274
20
-3.8081757086614174
11
4.8352755905511806
21
-3.8079133858267715
0
LINE
8
BLACK
6
CONTINUOUS
10
4.8352755905511806
20
-3.8079133858267715
11
4.912047244094488
21
-3.8079133858267715
0
LINE
8
BLACK
6
CONTINUOUS
10
4.912047244094488
20
-3.8079133858267715
11
4.9130571653543305
21
-3.8080914566929134
0
LINE
8
BLACK
6
CONTINUOUS
10
5.1703047637795274
20
-3.8079809842519685
11
5.1704340157480315
21
-3.8079582283464566
0
LINE
8
BLACK
6
CONTINUOUS
10
5.1704340157480315
20
-3.8079582283464566
11
5.1705475984251965
21
-3.8080238188976376
0
LINE
8
BLACK
6
CONTINUOUS
10
5.1705475984251965
20
-3.8080238188976376
11
5.1709311811023619
21
-3.8080914566929134
0
LINE
8
BLACK
6
CONTINUOUS
10
5.1709311811023619
20
-3.8080914566929134
11
5.1715188582677163
21
-3.8085845669291336
0
LINE
8
BLACK
6
CONTINUOUS
10
5.1715188582677163
20
-3.8085845669291336
11
5.1721831889763781
21
-3.808968149606299
0
LINE
8
BLACK
6
CONTINUOUS
10
5.1721831889763781
20
-3.808968149606299
11
5.1722742913385824
21
-3.8092184645669289
0
LINE
8
BLACK
6
CONTINUOUS
10
5.1722742913385824
20
-3.8092184645669289
11
5.1724784251968501
21
-3.8093897637795275
0
LINE
8
BLACK
6
CONTINUOUS
10
5.1724784251968501
20
-3.8093897637795275
11
5.1726116535433073
21
-3.8101453149606299
0
LINE
8
BLACK
6
CONTINUOUS
10
5.1726116535433073
20
-3.8101453149606299
11
5.1728740157480315
21
-3.8108661417322836
0
LINE
8
BLACK
6
CONTINUOUS
10
5.1728740157480315
20
-3.8108661417322836
11
5.1728740157480315
21
-3.8679527559055118
0
LINE
8
BLACK
6
CONTINUOUS
10
5.1728740157480315
20
-3.8679527559055118
11
5.1726959448818892
21
-3.8689626771653542
0
LINE
8
BLACK
6
CONTINUOUS
10
5.1726959448818892
20
-3.8689626771653542
11
5.1713976377952751
21
-3.8705099212598424
0
LINE
8
BLACK
6
CONTINUOUS
10
5.1713976377952751
20
-3.8705099212598424
11
5.1694085039370075
21
-3.8708606692913383
0
LINE
8
BLACK
6
CONTINUOUS
10
5.1694085039370075
20
-3.8708606692913383
11
5.1676593307086609
21
-3.8698507480314959
0
LINE
8
BLACK
6
CONTINUOUS
10
5.1676593307086609
20
-3.8698507480314959
11
5.1669685039370075
21
-3.8679527559055118
0
LINE
8
BLACK
6
CONTINUOUS
10
5.1669685039370075
20
-3.8679527559055118
11
5.1669685039370075
21
-3.8138188976377951
0
LINE
8
BLACK
6
CONTINUOUS
10
5.1669685039370075
20
-3.8138188976377951
11
5.0931496062992121
21
-3.8138188976377951
0
LINE
8
BLACK
6
CONTINUOUS
10
5.0931496062992121
20
-3.8138188976377951
11
5.0921396850393696
21
-3.8136408267716533
0
LINE
8
BLACK
6
CONTINUOUS
10
5.0921396850393696
20
-3.8136408267716533
11
5.0905924409448815
21
-3.8123425196850391
0
LINE
8
BLACK
6
CONTINUOUS
10
5.0905924409448815
20
-3.8123425196850391
11
5.090241692913386
21
-3.8103533858267715
0
LINE
8
BLACK
6
CONTINUOUS
10
5.090241692913386
20
-3.8103533858267715
11
5.0912516141732285
21
-3.808604212598425
0
LINE
8
BLACK
6
CONTINUOUS
10
5.0912516141732285
20
-3.808604212598425
11
5.0931496062992121
21
-3.8079133858267715
0
LINE
8
BLACK
6
CONTINUOUS
10
5.0931496062992121
20
-3.8079133858267715
11
5.1699212598425195
21
-3.8079133858267715
0
LINE
8
BLACK
6
CONTINUOUS
10
5.1699212598425195
20
-3.8079133858267715
11
5.1703047637795274
21
-3.8079809842519685
0
LINE
8
BLACK
6
CONTINUOUS
10
5.5077191732283461
20
-3.8582903149606298
11
5.5084110629921259
21
-3.8599606299212597
0
LINE
8
BLACK
6
CONTINUOUS
10
5.5084110629921259
20
-3.8599606299212597
11
5.5077191732283461
21
-3.8616309448818895
0
LINE
8
BLACK
6
CONTINUOUS
10
5.5077191732283461
20
-3.8616309448818895
11
5.5060488582677163
21
-3.8623228346456693
0
LINE
8
BLACK
6
CONTINUOUS
10
5.5060488582677163
20
-3.8623228346456693
11
5.4939511417322837
21
-3.8623228346456693
0
LINE
8
BLACK
6
CONTINUOUS
10
5.4939511417322837
20
-3.8623228346456693
11
5.4922808267716539
21
-3.8616309448818895
0
LINE
8
BLACK
6
CONTINUOUS
10
5.4922808267716539
20
-3.8616309448818895
11
5.4915889370078741
21
-3.8599606299212597
0
LINE
8
BLACK
6
CONTINUOUS
10
5.4915889370078741
20
-3.8599606299212597
11
5.4922808267716539
21
-3.8582903149606298
0
LINE
8
BLACK
6
CONTINUOUS
10
5.4922808267716539
20
-3.8582903149606298
11
5.4939511417322837
21
-3.8575984251968505
0
LINE
8
BLACK
6
CONTINUOUS
10
5.4939511417322837
20
-3.8575984251968505
11
5.5060488582677163
21
-3.8575984251968505
0
LINE
8
BLACK
6
CONTINUOUS
10
5.5060488582677163
20
-3.8575984251968505
11
5.5077191732283461
21
-3.8582903149606298
0
LINE
8
BLACK
6
CONTINUOUS
10
5.6277191732283462
20
-3.8582903149606298
11
5.628411062992126
21
-3.8599606299212597
0
LINE
8
BLACK
6
CONTINUOUS
10
5.628411062992126
20
-3.8599606299212597
11
5.6277191732283462
21
-3.8616309448818895
0
LINE
8
BLACK
6
CONTINUOUS
10
5.6277191732283462
20
-3.8616309448818895
11
5.6260488582677164
21
-3.8623228346456693
0
LINE
8
BLACK
6
CONTINUOUS
10
5.6260488582677164
20
-3.8623228346456693
11
5.6139511417322829
21
-3.8623228346456693
0
LINE
8
BLACK
6
CONTINUOUS
10
5.6139511417322829
20
-3.8623228346456693
11
5.6122808267716531
21
-3.8616309448818895
0
LINE
8
BLACK
6
CONTINUOUS
10
5.6122808267716531
20
-3.8616309448818895
11
5.6115889370078742
21
-3.8599606299212597
0
LINE
8
BLACK
6
CONTINUOUS
10
5.6115889370078742
20
-3.8599606299212597
11
5.6122808267716531
21
-3.8582903149606298
0
LINE
8
BLACK
6
CONTINUOUS
10
5.6122808267716531
20
-3.8582903149606298
11
5.6139511417322829
21
-3.8575984251968505
0
LINE
8
BLACK
6
CONTINUOUS
10
5.6139511417322829
20
-3.8575984251968505
11
5.6260488582677164
21
-3.8575984251968505
0
LINE
8
BLACK
6
CONTINUOUS
10
5.6260488582677164
20
-3.8575984251968505
11
5.6277191732283462
21
-3.8582903149606298
0
LINE
8
BLACK
6
CONTINUOUS
10
5.8514340944881891
20
-3.7763218110236219
11
5.8521259842519679
21
-3.7779921259842517
0
LINE
8
BLACK
6
CONTINUOUS
10
5.8521259842519679
20
-3.7779921259842517
11
5.8514340944881891
21
-3.779662440944882
0
LINE
8
BLACK
6
CONTINUOUS
10
5.8514340944881891
20
-3.779662440944882
11
5.8497637795275592
21
-3.7803543307086613
0
LINE
8
BLACK
6
CONTINUOUS
10
5.8497637795275592
20
-3.7803543307086613
11
5.7950393700787401
21
-3.7803543307086613
0
LINE
8
BLACK
6
CONTINUOUS
10
5.7950393700787401
20
-3.7803543307086613
11
5.7950393700787401
21
-3.8488582677165355
0
LINE
8
BLACK
6
CONTINUOUS
10
5.7950393700787401
20
-3.8488582677165355
11
5.7943474803149604
21
-3.8505285826771654
0
LINE
8
BLACK
6
CONTINUOUS
10
5.7943474803149604
20
-3.8505285826771654
11
5.7926771653543305
21
-3.8512204724409447
0
LINE
8
BLACK
6
CONTINUOUS
10
5.7926771653543305
20
-3.8512204724409447
11
5.7537007874015744
21
-3.8512204724409447
0
LINE
8
BLACK
6
CONTINUOUS
10
5.7537007874015744
20
-3.8512204724409447
11
5.7520304724409446
21
-3.8505285826771654
0
LINE
8
BLACK
6
CONTINUOUS
10
5.7520304724409446
20
-3.8505285826771654
11
5.7513385826771648
21
-3.8488582677165355
0
LINE
8
BLACK
6
CONTINUOUS
10
5.7513385826771648
20
-3.8488582677165355
11
5.7520304724409446
21
-3.8471879527559056
0
LINE
8
BLACK
6
CONTINUOUS
10
5.7520304724409446
20
-3.8471879527559056
11
5.7537007874015744
21
-3.8464960629921259
0
LINE
8
BLACK
6
CONTINUOUS
10
5.7537007874015744
20
-3.8464960629921259
11
5.7903149606299209
21
-3.8464960629921259
0
LINE
8
BLACK
6
CONTINUOUS
10
5.7903149606299209
20
-3.8464960629921259
11
5.7903149606299209
21
-3.7779921259842517
0
LINE
8
BLACK
6
CONTINUOUS
10
5.7903149606299209
20
-3.7779921259842517
11
5.7910068503937007
21
-3.7763218110236219
0
LINE
8
BLACK
6
CONTINUOUS
10
5.7910068503937007
20
-3.7763218110236219
11
5.7926771653543305
21
-3.7756299212598425
0
LINE
8
BLACK
6
CONTINUOUS
10
5.7926771653543305
20
-3.7756299212598425
11
5.8497637795275592
21
-3.7756299212598425
0
LINE
8
BLACK
6
CONTINUOUS
10
5.8497637795275592
20
-3.7756299212598425
11
5.8514340944881891
21
-3.7763218110236219
0
LINE
8
BLACK
6
CONTINUOUS
10
5.154074803149606
20
-3.8169164566929132
11
5.1575208267716537
21
-3.819807992125984
0
LINE
8
BLACK
6
CONTINUOUS
10
5.1575208267716537
20
-3.819807992125984
11
5.1597700393700787
21
-3.8237037401574803
0
LINE
8
BLACK
6
CONTINUOUS
10
5.1597700393700787
20
-3.8237037401574803
11
5.1605511811023623
21
-3.8281338582677162
0
LINE
8
BLACK
6
CONTINUOUS
10
5.1605511811023623
20
-3.8281338582677162
11
5.1597700393700787
21
-3.8325639763779527
0
LINE
8
BLACK
6
CONTINUOUS
10
5.1597700393700787
20
-3.8325639763779527
11
5.1575208267716537
21
-3.8364597244094489
0
LINE
8
BLACK
6
CONTINUOUS
10
5.1575208267716537
20
-3.8364597244094489
11
5.154074803149606
21
-3.8393512598425197
0
LINE
8
BLACK
6
CONTINUOUS
10
5.154074803149606
20
-3.8393512598425197
11
5.1498476377952755
21
-3.8408898425196849
0
LINE
8
BLACK
6
CONTINUOUS
10
5.1498476377952755
20
-3.8408898425196849
11
5.1453492125984255
21
-3.8408898425196849
0
LINE
8
BLACK
6
CONTINUOUS
10
5.1453492125984255
20
-3.8408898425196849
11
5.1411220472440942
21
-3.8393512598425197
0
LINE
8
BLACK
6
CONTINUOUS
10
5.1411220472440942
20
-3.8393512598425197
11
5.1376760236220473
21
-3.8364597244094489
0
LINE
8
BLACK
6
CONTINUOUS
10
5.1376760236220473
20
-3.8364597244094489
11
5.1354268110236223
21
-3.8325639763779527
0
LINE
8
BLACK
6
CONTINUOUS
10
5.1354268110236223
20
-3.8325639763779527
11
5.1346456692913387
21
-3.8281338582677162
0
LINE
8
BLACK
6
CONTINUOUS
10
5.1346456692913387
20
-3.8281338582677162
11
5.1354268110236223
21
-3.8237037401574803
0
LINE
8
BLACK
6
CONTINUOUS
10
5.1354268110236223
20
-3.8237037401574803
11
5.1376760236220473
21
-3.819807992125984
0
LINE
8
BLACK
6
CONTINUOUS
10
5.1376760236220473
20
-3.819807992125984
11
5.1411220472440942
21
-3.8169164566929132
0
LINE
8
BLACK
6
CONTINUOUS
10
5.1411220472440942
20
-3.8169164566929132
11
5.1453492125984255
21
-3.815377874015748
0
LINE
8
BLACK
6
CONTINUOUS
10
5.1453492125984255
20
-3.815377874015748
11
5.1498476377952755
21
-3.815377874015748
0
LINE
8
BLACK
6
CONTINUOUS
10
5.1498476377952755
20
-3.815377874015748
11
5.154074803149606
21
-3.8169164566929132
0
LINE
8
BLACK
6
CONTINUOUS
10
5.1410857874015745
20
-3.831270157480315
11
5.1430915354330704
21
-3.8337853149606298
0
LINE
8
BLACK
6
CONTINUOUS
10
5.1430915354330704
20
-3.8337853149606298
11
5.1459899212598428
21
-3.8351811023622044
0
LINE
8
BLACK
6
CONTINUOUS
10
5.1459899212598428
20
-3.8351811023622044
11
5.1492069291338582
21
-3.8351811023622044
0
LINE
8
BLACK
6
CONTINUOUS
10
5.1492069291338582
20
-3.8351811023622044
11
5.1521053149606297
21
-3.8337853149606298
0
LINE
8
BLACK
6
CONTINUOUS
10
5.1521053149606297
20
-3.8337853149606298
11
5.1541110629921256
21
-3.831270157480315
0
LINE
8
BLACK
6
CONTINUOUS
10
5.1541110629921256
20
-3.831270157480315
11
5.154826889763779
21
-3.8281338582677162
0
LINE
8
BLACK
6
CONTINUOUS
10
5.154826889763779
20
-3.8281338582677162
11
5.1541110629921256
21
-3.824997559055118
0
LINE
8
BLACK
6
CONTINUOUS
10
5.1541110629921256
20
-3.824997559055118
11
5.1521053149606297
21
-3.8224824015748031
0
LINE
8
BLACK
6
CONTINUOUS
10
5.1521053149606297
20
-3.8224824015748031
11
5.1492069291338582
21
-3.8210866141732285
0
LINE
8
BLACK
6
CONTINUOUS
10
5.1492069291338582
20
-3.8210866141732285
11
5.1459899212598428
21
-3.8210866141732285
0
LINE
8
BLACK
6
CONTINUOUS
10
5.1459899212598428
20
-3.8210866141732285
11
5.1430915354330704
21
-3.8224824015748031
0
LINE
8
BLACK
6
CONTINUOUS
10
5.1430915354330704
20
-3.8224824015748031
11
5.1410857874015745
21
-3.824997559055118
0
LINE
8
BLACK
6
CONTINUOUS
10
5.1410857874015745
20
-3.824997559055118
11
5.1403699606299211
21
-3.8281338582677162
0
LINE
8
BLACK
6
CONTINUOUS
10
5.1403699606299211
20
-3.8281338582677162
11
5.1410857874015745
21
-3.831270157480315
0
LINE
8
BLACK
6
CONTINUOUS
10
5.4124970866141728
20
-3.8251865354330707
11
5.4131889763779526
21
-3.8268568503937006
0
LINE
8
BLACK
6
CONTINUOUS
10
5.4131889763779526
20
-3.8268568503937006
11
5.4131889763779526
21
-3.8353478740157478
0
LINE
8
BLACK
6
CONTINUOUS
10
5.4131889763779526
20
-3.8353478740157478
11
5.4124970866141728
21
-3.8370181889763777
0
LINE
8
BLACK
6
CONTINUOUS
10
5.4124970866141728
20
-3.8370181889763777
11
5.410826771653543
21
-3.8377100787401575
0
LINE
8
BLACK
6
CONTINUOUS
10
5.410826771653543
20
-3.8377100787401575
11
5.4091564566929131
21
-3.8370181889763777
0
LINE
8
BLACK
6
CONTINUOUS
10
5.4091564566929131
20
-3.8370181889763777
11
5.4084645669291334
21
-3.8353478740157478
0
LINE
8
BLACK
6
CONTINUOUS
10
5.4084645669291334
20
-3.8353478740157478
11
5.4084645669291334
21
-3.8268568503937006
0
LINE
8
BLACK
6
CONTINUOUS
10
5.4084645669291334
20
-3.8268568503937006
11
5.4091564566929131
21
-3.8251865354330707
0
LINE
8
BLACK
6
CONTINUOUS
10
5.4091564566929131
20
-3.8251865354330707
11
5.410826771653543
21
-3.8244946456692914
0
LINE
8
BLACK
6
CONTINUOUS
10
5.410826771653543
20
-3.8244946456692914
11
5.4124970866141728
21
-3.8251865354330707
0
LINE
8
BLACK
6
CONTINUOUS
10
5.4408435433070865
20
-3.8251865354330707
11
5.4415354330708663
21
-3.8268568503937006
0
LINE
8
BLACK
6
CONTINUOUS
10
5.4415354330708663
20
-3.8268568503937006
11
5.4415354330708663
21
-3.8353478740157478
0
LINE
8
BLACK
6
CONTINUOUS
10
5.4415354330708663
20
-3.8353478740157478
11
5.4408435433070865
21
-3.8370181889763777
0
LINE
8
BLACK
6
CONTINUOUS
10
5.4408435433070865
20
-3.8370181889763777
11
5.4391732283464567
21
-3.8377100787401575
0
LINE
8
BLACK
6
CONTINUOUS
10
5.4391732283464567
20
-3.8377100787401575
11
5.4375029133858268
21
-3.8370181889763777
0
LINE
8
BLACK
6
CONTINUOUS
10
5.4375029133858268
20
-3.8370181889763777
11
5.436811023622047
21
-3.8353478740157478
0
LINE
8
BLACK
6
CONTINUOUS
10
5.436811023622047
20
-3.8353478740157478
11
5.436811023622047
21
-3.8268568503937006
0
LINE
8
BLACK
6
CONTINUOUS
10
5.436811023622047
20
-3.8268568503937006
11
5.4375029133858268
21
-3.8251865354330707
0
LINE
8
BLACK
6
CONTINUOUS
10
5.4375029133858268
20
-3.8251865354330707
11
5.4391732283464567
21
-3.8244946456692914
0
LINE
8
BLACK
6
CONTINUOUS
10
5.4391732283464567
20
-3.8244946456692914
11
5.4408435433070865
21
-3.8251865354330707
0
LINE
8
BLACK
6
CONTINUOUS
10
5.5077191732283461
20
-3.82836905511811
11
5.5084110629921259
21
-3.8300393700787403
0
LINE
8
BLACK
6
CONTINUOUS
10
5.5084110629921259
20
-3.8300393700787403
11
5.5077191732283461
21
-3.8317096850393702
0
LINE
8
BLACK
6
CONTINUOUS
10
5.5077191732283461
20
-3.8317096850393702
11
5.5060488582677163
21
-3.8324015748031495
0
LINE
8
BLACK
6
CONTINUOUS
10
5.5060488582677163
20
-3.8324015748031495
11
5.4939511417322837
21
-3.8324015748031495
0
LINE
8
BLACK
6
CONTINUOUS
10
5.4939511417322837
20
-3.8324015748031495
11
5.4922808267716539
21
-3.8317096850393702
0
LINE
8
BLACK
6
CONTINUOUS
10
5.4922808267716539
20
-3.8317096850393702
11
5.4915889370078741
21
-3.8300393700787403
0
LINE
8
BLACK
6
CONTINUOUS
10
5.4915889370078741
20
-3.8300393700787403
11
5.4922808267716539
21
-3.82836905511811
0
LINE
8
BLACK
6
CONTINUOUS
10
5.4922808267716539
20
-3.82836905511811
11
5.4939511417322837
21
-3.8276771653543307
0
LINE
8
BLACK
6
CONTINUOUS
10
5.4939511417322837
20
-3.8276771653543307
11
5.5060488582677163
21
-3.8276771653543307
0
LINE
8
BLACK
6
CONTINUOUS
10
5.5060488582677163
20
-3.8276771653543307
11
5.5077191732283461
21
-3.82836905511811
0
LINE
8
BLACK
6
CONTINUOUS
10
5.6277191732283462
20
-3.82836905511811
11
5.628411062992126
21
-3.8300393700787403
0
LINE
8
BLACK
6
CONTINUOUS
10
5.628411062992126
20
-3.8300393700787403
11
5.6277191732283462
21
-3.8317096850393702
0
LINE
8
BLACK
6
CONTINUOUS
10
5.6277191732283462
20
-3.8317096850393702
11
5.6260488582677164
21
-3.8324015748031495
0
LINE
8
BLACK
6
CONTINUOUS
10
5.6260488582677164
20
-3.8324015748031495
11
5.6139511417322829
21
-3.8324015748031495
0
LINE
8
BLACK
6
CONTINUOUS
10
5.6139511417322829
20
-3.8324015748031495
11
5.6122808267716531
21
-3.8317096850393702
0
LINE
8
BLACK
6
CONTINUOUS
10
5.6122808267716531
20
-3.8317096850393702
11
5.6115889370078742
21
-3.8300393700787403
0
LINE
8
BLACK
6
CONTINUOUS
10
5.6115889370078742
20
-3.8300393700787403
11
5.6122808267716531
21
-3.82836905511811
0
LINE
8
BLACK
6
CONTINUOUS
10
5.6122808267716531
20
-3.82836905511811
11
5.6139511417322829
21
-3.8276771653543307
0
LINE
8
BLACK
6
CONTINUOUS
10
5.6139511417322829
20
-3.8276771653543307
11
5.6260488582677164
21
-3.8276771653543307
0
LINE
8
BLACK
6
CONTINUOUS
10
5.6260488582677164
20
-3.8276771653543307
11
5.6277191732283462
21
-3.82836905511811
0
LINE
8
BLACK
6
CONTINUOUS
10
5.6904970866141733
20
-3.8120841732283464
11
5.6911889763779531
21
-3.8137544881889762
0
LINE
8
BLACK
6
CONTINUOUS
10
5.6911889763779531
20
-3.8137544881889762
11
5.6911889763779531
21
-3.8222455118110235
0
LINE
8
BLACK
6
CONTINUOUS
10
5.6911889763779531
20
-3.8222455118110235
11
5.6904970866141733
21
-3.8239158267716533
0
LINE
8
BLACK
6
CONTINUOUS
10
5.6904970866141733
20
-3.8239158267716533
11
5.6888267716535434
21
-3.8246077165354331
0
LINE
8
BLACK
6
CONTINUOUS
10
5.6888267716535434
20
-3.8246077165354331
11
5.6871564566929136
21
-3.8239158267716533
0
LINE
8
BLACK
6
CONTINUOUS
10
5.6871564566929136
20
-3.8239158267716533
11
5.6864645669291338
21
-3.8222455118110235
0
LINE
8
BLACK
6
CONTINUOUS
10
5.6864645669291338
20
-3.8222455118110235
11
5.6864645669291338
21
-3.8137544881889762
0
LINE
8
BLACK
6
CONTINUOUS
10
5.6864645669291338
20
-3.8137544881889762
11
5.6871564566929136
21
-3.8120841732283464
0
LINE
8
BLACK
6
CONTINUOUS
10
5.6871564566929136
20
-3.8120841732283464
11
5.6888267716535434
21
-3.811392283464567
0
LINE
8
BLACK
6
CONTINUOUS
10
5.6888267716535434
20
-3.811392283464567
11
5.6904970866141733
21
-3.8120841732283464
0
LINE
8
BLACK
6
CONTINUOUS
10
5.7188435433070861
20
-3.8120841732283464
11
5.7195354330708659
21
-3.8137544881889762
0
LINE
8
BLACK
6
CONTINUOUS
10
5.7195354330708659
20
-3.8137544881889762
11
5.7195354330708659
21
-3.8222455118110235
0
LINE
8
BLACK
6
CONTINUOUS
10
5.7195354330708659
20
-3.8222455118110235
11
5.7188435433070861
21
-3.8239158267716533
0
LINE
8
BLACK
6
CONTINUOUS
10
5.7188435433070861
20
-3.8239158267716533
11
5.7171732283464562
21
-3.8246077165354331
0
LINE
8
BLACK
6
CONTINUOUS
10
5.7171732283464562
20
-3.8246077165354331
11
5.7155029133858264
21
-3.8239158267716533
0
LINE
8
BLACK
6
CONTINUOUS
10
5.7155029133858264
20
-3.8239158267716533
11
5.7148110236220475
21
-3.8222455118110235
0
LINE
8
BLACK
6
CONTINUOUS
10
5.7148110236220475
20
-3.8222455118110235
11
5.7148110236220475
21
-3.8137544881889762
0
LINE
8
BLACK
6
CONTINUOUS
10
5.7148110236220475
20
-3.8137544881889762
11
5.7155029133858264
21
-3.8120841732283464
0
LINE
8
BLACK
6
CONTINUOUS
10
5.7155029133858264
20
-3.8120841732283464
11
5.7171732283464562
21
-3.811392283464567
0
LINE
8
BLACK
6
CONTINUOUS
10
5.7171732283464562
20
-3.811392283464567
11
5.7188435433070861
21
-3.8120841732283464
0
LINE
8
BLACK
6
CONTINUOUS
10
5.2637658267716532
20
-3.7992331889763777
11
5.2653130708661413
21
-3.8005314960629919
0
LINE
8
BLACK
6
CONTINUOUS
10
5.2653130708661413
20
-3.8005314960629919
11
5.2656638188976377
21
-3.8025206299212599
0
LINE
8
BLACK
6
CONTINUOUS
10
5.2656638188976377
20
-3.8025206299212599
11
5.2646538976377952
21
-3.8042698031496061
0
LINE
8
BLACK
6
CONTINUOUS
10
5.2646538976377952
20
-3.8042698031496061
11
5.2627559055118107
21
-3.8049606299212599
0
LINE
8
BLACK
6
CONTINUOUS
10
5.2627559055118107
20
-3.8049606299212599
11
5.2499606299212598
21
-3.8049606299212599
0
LINE
8
BLACK
6
CONTINUOUS
10
5.2499606299212598
20
-3.8049606299212599
11
5.2499606299212598
21
-3.8177559055118109
0
LINE
8
BLACK
6
CONTINUOUS
10
5.2499606299212598
20
-3.8177559055118109
11
5.2497825590551184
21
-3.8187658267716533
0
LINE
8
BLACK
6
CONTINUOUS
10
5.2497825590551184
20
-3.8187658267716533
11
5.2484842519685042
21
-3.8203130708661415
0
LINE
8
BLACK
6
CONTINUOUS
10
5.2484842519685042
20
-3.8203130708661415
11
5.2464951181102357
21
-3.8206638188976378
0
LINE
8
BLACK
6
CONTINUOUS
10
5.2464951181102357
20
-3.8206638188976378
11
5.2447459448818901
21
-3.8196538976377954
0
LINE
8
BLACK
6
CONTINUOUS
10
5.2447459448818901
20
-3.8196538976377954
11
5.2440551181102357
21
-3.8177559055118109
0
LINE
8
BLACK
6
CONTINUOUS
10
5.2440551181102357
20
-3.8177559055118109
11
5.2440551181102357
21
-3.8020078740157479
0
LINE
8
BLACK
6
CONTINUOUS
10
5.2440551181102357
20
-3.8020078740157479
11
5.2441227165354327
21
-3.8016243307086612
0
LINE
8
BLACK
6
CONTINUOUS
10
5.2441227165354327
20
-3.8016243307086612
11
5.2440999606299208
21
-3.8014951181102363
0
LINE
8
BLACK
6
CONTINUOUS
10
5.2440999606299208
20
-3.8014951181102363
11
5.2441655511811023
21
-3.8013814960629921
0
LINE
8
BLACK
6
CONTINUOUS
10
5.2441655511811023
20
-3.8013814960629921
11
5.244233188976378
21
-3.8009979527559055
0
LINE
8
BLACK
6
CONTINUOUS
10
5.244233188976378
20
-3.8009979527559055
11
5.2447262992125987
21
-3.8004102362204724
0
LINE
8
BLACK
6
CONTINUOUS
10
5.2447262992125987
20
-3.8004102362204724
11
5.2451098818897632
21
-3.7997459448818898
0
LINE
8
BLACK
6
CONTINUOUS
10
5.2451098818897632
20
-3.7997459448818898
11
5.2453601968503936
21
-3.7996548031496062
0
LINE
8
BLACK
6
CONTINUOUS
10
5.2453601968503936
20
-3.7996548031496062
11
5.2455314960629922
21
-3.7994507086614173
0
LINE
8
BLACK
6
CONTINUOUS
10
5.2455314960629922
20
-3.7994507086614173
11
5.2462870472440946
21
-3.7993174409448818
0
LINE
8
BLACK
6
CONTINUOUS
10
5.2462870472440946
20
-3.7993174409448818
11
5.2470078740157478
21
-3.7990551181102363
0
LINE
8
BLACK
6
CONTINUOUS
10
5.2470078740157478
20
-3.7990551181102363
11
5.2627559055118107
21
-3.7990551181102363
0
LINE
8
BLACK
6
CONTINUOUS
10
5.2627559055118107
20
-3.7990551181102363
11
5.2637658267716532
21
-3.7992331889763777
0
LINE
8
BLACK
6
CONTINUOUS
10
5.3733756299212594
20
-3.7991227165354329
11
5.3735048818897635
21
-3.7990999606299214
0
LINE
8
BLACK
6
CONTINUOUS
10
5.3735048818897635
20
-3.7990999606299214
11
5.3736184645669294
21
-3.7991655511811024
0
LINE
8
BLACK
6
CONTINUOUS
10
5.3736184645669294
20
-3.7991655511811024
11
5.3740020472440948
21
-3.7992331889763777
0
LINE
8
BLACK
6
CONTINUOUS
10
5.3740020472440948
20
-3.7992331889763777
11
5.3745897244094483
21
-3.7997262992125984
0
LINE
8
BLACK
6
CONTINUOUS
10
5.3745897244094483
20
-3.7997262992125984
11
5.3752540551181101
21
-3.8001098818897638
0
LINE
8
BLACK
6
CONTINUOUS
10
5.3752540551181101
20
-3.8001098818897638
11
5.3753451574803153
21
-3.8003601968503937
0
LINE
8
BLACK
6
CONTINUOUS
10
5.3753451574803153
20
-3.8003601968503937
11
5.3755492913385829
21
-3.8005314960629919
0
LINE
8
BLACK
6
CONTINUOUS
10
5.3755492913385829
20
-3.8005314960629919
11
5.3756825196850393
21
-3.8012870472440943
0
LINE
8
BLACK
6
CONTINUOUS
10
5.3756825196850393
20
-3.8012870472440943
11
5.3759448818897635
21
-3.8020078740157479
0
LINE
8
BLACK
6
CONTINUOUS
10
5.3759448818897635
20
-3.8020078740157479
11
5.3759448818897635
21
-3.8177559055118109
0
LINE
8
BLACK
6
CONTINUOUS
10
5.3759448818897635
20
-3.8177559055118109
11
5.3757668110236221
21
-3.8187658267716533
0
LINE
8
BLACK
6
CONTINUOUS
10
5.3757668110236221
20
-3.8187658267716533
11
5.3744685039370079
21
-3.8203130708661415
0
LINE
8
BLACK
6
CONTINUOUS
10
5.3744685039370079
20
-3.8203130708661415
11
5.3724793700787403
21
-3.8206638188976378
0
LINE
8
BLACK
6
CONTINUOUS
10
5.3724793700787403
20
-3.8206638188976378
11
5.3707301968503938
21
-3.8196538976377954
0
LINE
8
BLACK
6
CONTINUOUS
10
5.3707301968503938
20
-3.8196538976377954
11
5.3700393700787403
21
-3.8177559055118109
0
LINE
8
BLACK
6
CONTINUOUS
10
5.3700393700787403
20
-3.8177559055118109
11
5.3700393700787403
21
-3.8049606299212599
0
LINE
8
BLACK
6
CONTINUOUS
10
5.3700393700787403
20
-3.8049606299212599
11
5.3572440944881885
21
-3.8049606299212599
0
LINE
8
BLACK
6
CONTINUOUS
10
5.3572440944881885
20
-3.8049606299212599
11
5.3562341732283461
21
-3.8047825590551181
0
LINE
8
BLACK
6
CONTINUOUS
10
5.3562341732283461
20
-3.8047825590551181
11
5.3546869291338579
21
-3.8034842519685039
0
LINE
8
BLACK
6
CONTINUOUS
10
5.3546869291338579
20
-3.8034842519685039
11
5.3543361811023624
21
-3.8014951181102363
0
LINE
8
BLACK
6
CONTINUOUS
10
5.3543361811023624
20
-3.8014951181102363
11
5.3553461023622049
21
-3.7997459448818898
0
LINE
8
BLACK
6
CONTINUOUS
10
5.3553461023622049
20
-3.7997459448818898
11
5.3572440944881885
21
-3.7990551181102363
0
LINE
8
BLACK
6
CONTINUOUS
10
5.3572440944881885
20
-3.7990551181102363
11
5.3729921259842515
21
-3.7990551181102363
0
LINE
8
BLACK
6
CONTINUOUS
10
5.3729921259842515
20
-3.7990551181102363
11
5.3733756299212594
21
-3.7991227165354329
0
LINE
8
BLACK
6
CONTINUOUS
10
5.5350000000000001
20
-3.794055118110236
11
5.5664960629921261
21
-3.794055118110236
0
LINE
8
BLACK
6
CONTINUOUS
10
5.5664960629921261
20
-3.794055118110236
11
5.5681663779527559
21
-3.7947470078740158
0
LINE
8
BLACK
6
CONTINUOUS
10
5.5681663779527559
20
-3.7947470078740158
11
5.5688582677165357
21
-3.7964173228346456
0
LINE
8
BLACK
6
CONTINUOUS
10
5.5688582677165357
20
-3.7964173228346456
11
5.5681663779527559
21
-3.7980876377952755
0
LINE
8
BLACK
6
CONTINUOUS
10
5.5681663779527559
20
-3.7980876377952755
11
5.5664960629921261
21
-3.7987795275590552
0
LINE
8
BLACK
6
CONTINUOUS
10
5.5664960629921261
20
-3.7987795275590552
11
5.5350000000000001
21
-3.7987795275590552
0
LINE
8
BLACK
6
CONTINUOUS
10
5.5350000000000001
20
-3.7987795275590552
11
5.5035039370078742
21
-3.7987795275590552
0
LINE
8
BLACK
6
CONTINUOUS
10
5.5035039370078742
20
-3.7987795275590552
11
5.5018336220472444
21
-3.7980876377952755
0
LINE
8
BLACK
6
CONTINUOUS
10
5.5018336220472444
20
-3.7980876377952755
11
5.5011417322834646
21
-3.7964173228346456
0
LINE
8
BLACK
6
CONTINUOUS
10
5.5011417322834646
20
-3.7964173228346456
11
5.5018336220472444
21
-3.7947470078740158
0
LINE
8
BLACK
6
CONTINUOUS
10
5.5018336220472444
20
-3.7947470078740158
11
5.5035039370078742
21
-3.794055118110236
0
LINE
8
BLACK
6
CONTINUOUS
10
5.5035039370078742
20
-3.794055118110236
11
5.5350000000000001
21
-3.794055118110236
0
LINE
8
BLACK
6
CONTINUOUS
10
5.2609158267716536
20
-3.7675029133858269
11
5.2616077165354334
21
-3.7691732283464567
0
LINE
8
BLACK
6
CONTINUOUS
10
5.2616077165354334
20
-3.7691732283464567
11
5.2609158267716536
21
-3.7708435433070866
0
LINE
8
BLACK
6
CONTINUOUS
10
5.2609158267716536
20
-3.7708435433070866
11
5.2592455118110237
21
-3.7715354330708659
0
LINE
8
BLACK
6
CONTINUOUS
10
5.2592455118110237
20
-3.7715354330708659
11
5.2507544881889761
21
-3.7715354330708659
0
LINE
8
BLACK
6
CONTINUOUS
10
5.2507544881889761
20
-3.7715354330708659
11
5.2490841732283462
21
-3.7708435433070866
0
LINE
8
BLACK
6
CONTINUOUS
10
5.2490841732283462
20
-3.7708435433070866
11
5.2483922834645664
21
-3.7691732283464567
0
LINE
8
BLACK
6
CONTINUOUS
10
5.2483922834645664
20
-3.7691732283464567
11
5.2490841732283462
21
-3.7675029133858269
0
LINE
8
BLACK
6
CONTINUOUS
10
5.2490841732283462
20
-3.7675029133858269
11
5.2507544881889761
21
-3.7668110236220471
0
LINE
8
BLACK
6
CONTINUOUS
10
5.2507544881889761
20
-3.7668110236220471
11
5.2592455118110237
21
-3.7668110236220471
0
LINE
8
BLACK
6
CONTINUOUS
10
5.2592455118110237
20
-3.7668110236220471
11
5.2609158267716536
21
-3.7675029133858269
0
LINE
8
BLACK
6
CONTINUOUS
10
5.370915826771653
20
-3.7625029133858265
11
5.3716077165354328
21
-3.7641732283464564
0
LINE
8
BLACK
6
CONTINUOUS
10
5.3716077165354328
20
-3.7641732283464564
11
5.370915826771653
21
-3.7658435433070867
0
LINE
8
BLACK
6
CONTINUOUS
10
5.370915826771653
20
-3.7658435433070867
11
5.3692455118110232
21
-3.766535433070866
0
LINE
8
BLACK
6
CONTINUOUS
10
5.3692455118110232
20
-3.766535433070866
11
5.3607544881889764
21
-3.766535433070866
0
LINE
8
BLACK
6
CONTINUOUS
10
5.3607544881889764
20
-3.766535433070866
11
5.3590841732283465
21
-3.7658435433070867
0
LINE
8
BLACK
6
CONTINUOUS
10
5.3590841732283465
20
-3.7658435433070867
11
5.3583922834645668
21
-3.7641732283464564
0
LINE
8
BLACK
6
CONTINUOUS
10
5.3583922834645668
20
-3.7641732283464564
11
5.3590841732283465
21
-3.7625029133858265
0
LINE
8
BLACK
6
CONTINUOUS
10
5.3590841732283465
20
-3.7625029133858265
11
5.3607544881889764
21
-3.7618110236220472
0
LINE
8
BLACK
6
CONTINUOUS
10
5.3607544881889764
20
-3.7618110236220472
11
5.3692455118110232
21
-3.7618110236220472
0
LINE
8
BLACK
6
CONTINUOUS
10
5.3692455118110232
20
-3.7618110236220472
11
5.370915826771653
21
-3.7625029133858265
0
LINE
8
BLACK
6
CONTINUOUS
10
5.1292248031496062
20
-3.7402356692913385
11
5.1296641338582676
21
-3.7412963385826772
0
LINE
8
BLACK
6
CONTINUOUS
10
5.1296641338582676
20
-3.7412963385826772
11
5.1292248031496062
21
-3.7423570078740158
0
LINE
8
BLACK
6
CONTINUOUS
10
5.1292248031496062
20
-3.7423570078740158
11
5.1281641338582675
21
-3.7427963385826772
0
LINE
8
BLACK
6
CONTINUOUS
10
5.1281641338582675
20
-3.7427963385826772
11
5.1176335433070861
21
-3.7427963385826772
0
LINE
8
BLACK
6
CONTINUOUS
10
5.1176335433070861
20
-3.7427963385826772
11
5.1294122047244093
21
-3.7604642913385824
0
LINE
8
BLACK
6
CONTINUOUS
10
5.1294122047244093
20
-3.7604642913385824
11
5.1294969291338584
21
-3.7608927165354329
0
LINE
8
BLACK
6
CONTINUOUS
10
5.1294969291338584
20
-3.7608927165354329
11
5.1296641338582676
21
-3.7612963385826772
0
LINE
8
BLACK
6
CONTINUOUS
10
5.1296641338582676
20
-3.7612963385826772
11
5.1296049999999997
21
-3.7614390157480315
0
LINE
8
BLACK
6
CONTINUOUS
10
5.1296049999999997
20
-3.7614390157480315
11
5.1296349999999995
21
-3.7615905118110233
0
LINE
8
BLACK
6
CONTINUOUS
10
5.1296349999999995
20
-3.7615905118110233
11
5.1293919685039366
21
-3.7619533858267715
0
LINE
8
BLACK
6
CONTINUOUS
10
5.1293919685039366
20
-3.7619533858267715
11
5.1292248031496062
21
-3.7623570078740158
0
LINE
8
BLACK
6
CONTINUOUS
10
5.1292248031496062
20
-3.7623570078740158
11
5.1290820866141731
21
-3.7624161023622045
0
LINE
8
BLACK
6
CONTINUOUS
10
5.1290820866141731
20
-3.7624161023622045
11
5.1289961811023623
21
-3.762544409448819
0
LINE
8
BLACK
6
CONTINUOUS
10
5.1289961811023623
20
-3.762544409448819
11
5.1285677165354331
21
-3.7626291338582676
0
LINE
8
BLACK
6
CONTINUOUS
10
5.1285677165354331
20
-3.7626291338582676
11
5.1281641338582675
21
-3.7627963385826773
0
LINE
8
BLACK
6
CONTINUOUS
10
5.1281641338582675
20
-3.7627963385826773
11
5.1148307874015746
21
-3.7627963385826773
0
LINE
8
BLACK
6
CONTINUOUS
10
5.1148307874015746
20
-3.7627963385826773
11
5.113770118110236
21
-3.7623570078740158
0
LINE
8
BLACK
6
CONTINUOUS
10
5.113770118110236
20
-3.7623570078740158
11
5.1133307874015745
21
-3.7612963385826772
0
LINE
8
BLACK
6
CONTINUOUS
10
5.1133307874015745
20
-3.7612963385826772
11
5.113770118110236
21
-3.7602356692913386
0
LINE
8
BLACK
6
CONTINUOUS
10
5.113770118110236
20
-3.7602356692913386
11
5.1148307874015746
21
-3.7597963385826771
0
LINE
8
BLACK
6
CONTINUOUS
10
5.1148307874015746
20
-3.7597963385826771
11
5.125361377952756
21
-3.7597963385826771
0
LINE
8
BLACK
6
CONTINUOUS
10
5.125361377952756
20
-3.7597963385826771
11
5.1135827165354328
21
-3.7421283858267715
0
LINE
8
BLACK
6
CONTINUOUS
10
5.1135827165354328
20
-3.7421283858267715
11
5.113497952755905
21
-3.7416999212598423
0
LINE
8
BLACK
6
CONTINUOUS
10
5.113497952755905
20
-3.7416999212598423
11
5.1133307874015745
21
-3.7412963385826772
0
LINE
8
BLACK
6
CONTINUOUS
10
5.1133307874015745
20
-3.7412963385826772
11
5.1133898818897636
21
-3.7411536220472441
0
LINE
8
BLACK
6
CONTINUOUS
10
5.1133898818897636
20
-3.7411536220472441
11
5.1133599212598426
21
-3.7410021653543306
0
LINE
8
BLACK
6
CONTINUOUS
10
5.1133599212598426
20
-3.7410021653543306
11
5.1136029133858267
21
-3.7406392519685037
0
LINE
8
BLACK
6
CONTINUOUS
10
5.1136029133858267
20
-3.7406392519685037
11
5.113770118110236
21
-3.7402356692913385
0
LINE
8
BLACK
6
CONTINUOUS
10
5.113770118110236
20
-3.7402356692913385
11
5.1139127952755903
21
-3.7401765354330707
0
LINE
8
BLACK
6
CONTINUOUS
10
5.1139127952755903
20
-3.7401765354330707
11
5.1139987401574798
21
-3.7400482677165354
0
LINE
8
BLACK
6
CONTINUOUS
10
5.1139987401574798
20
-3.7400482677165354
11
5.1144271653543303
21
-3.7399635039370076
0
LINE
8
BLACK
6
CONTINUOUS
10
5.1144271653543303
20
-3.7399635039370076
11
5.1148307874015746
21
-3.7397963385826771
0
LINE
8
BLACK
6
CONTINUOUS
10
5.1148307874015746
20
-3.7397963385826771
11
5.1281641338582675
21
-3.7397963385826771
0
LINE
8
BLACK
6
CONTINUOUS
10
5.1281641338582675
20
-3.7397963385826771
11
5.1292248031496062
21
-3.7402356692913385
0
LINE
8
BLACK
6
CONTINUOUS
10
5.172805708661417
20
-3.7400482677165354
11
5.173444527559055
21
-3.7410021653543306
0
LINE
8
BLACK
6
CONTINUOUS
10
5.173444527559055
20
-3.7410021653543306
11
5.1732217322834648
21
-3.7421283858267715
0
LINE
8
BLACK
6
CONTINUOUS
10
5.1732217322834648
20
-3.7421283858267715
11
5.1671097244094488
21
-3.751296338582677
0
LINE
8
BLACK
6
CONTINUOUS
10
5.1671097244094488
20
-3.751296338582677
11
5.1732217322834648
21
-3.7604642913385824
0
LINE
8
BLACK
6
CONTINUOUS
10
5.1732217322834648
20
-3.7604642913385824
11
5.173444527559055
21
-3.7615905118110233
0
LINE
8
BLACK
6
CONTINUOUS
10
5.173444527559055
20
-3.7615905118110233
11
5.172805708661417
21
-3.762544409448819
0
LINE
8
BLACK
6
CONTINUOUS
10
5.172805708661417
20
-3.762544409448819
11
5.1716794881889765
21
-3.7627672047244092
0
LINE
8
BLACK
6
CONTINUOUS
10
5.1716794881889765
20
-3.7627672047244092
11
5.1707255905511813
21
-3.7621283858267716
0
LINE
8
BLACK
6
CONTINUOUS
10
5.1707255905511813
20
-3.7621283858267716
11
5.1653069685039368
21
-3.7540004724409446
0
LINE
8
BLACK
6
CONTINUOUS
10
5.1653069685039368
20
-3.7540004724409446
11
5.1598883858267719
21
-3.7621283858267716
0
LINE
8
BLACK
6
CONTINUOUS
10
5.1598883858267719
20
-3.7621283858267716
11
5.1589344881889758
21
-3.7627672047244092
0
LINE
8
BLACK
6
CONTINUOUS
10
5.1589344881889758
20
-3.7627672047244092
11
5.1578082677165353
21
-3.762544409448819
0
LINE
8
BLACK
6
CONTINUOUS
10
5.1578082677165353
20
-3.762544409448819
11
5.1571694488188973
21
-3.7615905118110233
0
LINE
8
BLACK
6
CONTINUOUS
10
5.1571694488188973
20
-3.7615905118110233
11
5.1573922440944884
21
-3.7604642913385824
0
LINE
8
BLACK
6
CONTINUOUS
10
5.1573922440944884
20
-3.7604642913385824
11
5.1635042125984247
21
-3.751296338582677
0
LINE
8
BLACK
6
CONTINUOUS
10
5.1635042125984247
20
-3.751296338582677
11
5.1573922440944884
21
-3.7421283858267715
0
LINE
8
BLACK
6
CONTINUOUS
10
5.1573922440944884
20
-3.7421283858267715
11
5.1571694488188973
21
-3.7410021653543306
0
LINE
8
BLACK
6
CONTINUOUS
10
5.1571694488188973
20
-3.7410021653543306
11
5.1578082677165353
21
-3.7400482677165354
0
LINE
8
BLACK
6
CONTINUOUS
10
5.1578082677165353
20
-3.7400482677165354
11
5.1589344881889758
21
-3.7398254724409448
0
LINE
8
BLACK
6
CONTINUOUS
10
5.1589344881889758
20
-3.7398254724409448
11
5.1598883858267719
21
-3.7404642913385824
0
LINE
8
BLACK
6
CONTINUOUS
10
5.1598883858267719
20
-3.7404642913385824
11
5.1653069685039368
21
-3.7485921653543306
0
LINE
8
BLACK
6
CONTINUOUS
10
5.1653069685039368
20
-3.7485921653543306
11
5.1707255905511813
21
-3.7404642913385824
0
LINE
8
BLACK
6
CONTINUOUS
10
5.1707255905511813
20
-3.7404642913385824
11
5.1716794881889765
21
-3.7398254724409448
0
LINE
8
BLACK
6
CONTINUOUS
10
5.1716794881889765
20
-3.7398254724409448
11
5.172805708661417
21
-3.7400482677165354
0
LINE
8
BLACK
6
CONTINUOUS
10
5.1520819291338578
20
-3.7526166141732284
11
5.1525212598425192
21
-3.7536772834645666
0
LINE
8
BLACK
6
CONTINUOUS
10
5.1525212598425192
20
-3.7536772834645666
11
5.1520819291338578
21
-3.7547379527559053
0
LINE
8
BLACK
6
CONTINUOUS
10
5.1520819291338578
20
-3.7547379527559053
11
5.1510212598425191
21
-3.7551772834645667
0
LINE
8
BLACK
6
CONTINUOUS
10
5.1510212598425191
20
-3.7551772834645667
11
5.1357831889763776
21
-3.7551772834645667
0
LINE
8
BLACK
6
CONTINUOUS
10
5.1357831889763776
20
-3.7551772834645667
11
5.134722519685039
21
-3.7547379527559053
0
LINE
8
BLACK
6
CONTINUOUS
10
5.134722519685039
20
-3.7547379527559053
11
5.1342831889763776
21
-3.7536772834645666
0
LINE
8
BLACK
6
CONTINUOUS
10
5.1342831889763776
20
-3.7536772834645666
11
5.134722519685039
21
-3.7526166141732284
0
LINE
8
BLACK
6
CONTINUOUS
10
5.134722519685039
20
-3.7526166141732284
11
5.1357831889763776
21
-3.752177283464567
0
LINE
8
BLACK
6
CONTINUOUS
10
5.1357831889763776
20
-3.752177283464567
11
5.1510212598425191
21
-3.752177283464567
0
LINE
8
BLACK
6
CONTINUOUS
10
5.1510212598425191
20
-3.752177283464567
11
5.1520819291338578
21
-3.7526166141732284
0
LINE
8
BLACK
6
CONTINUOUS
10
5.6719158267716532
20
-3.7495029133858266
11
5.6726077165354329
21
-3.7511732283464565
0
LINE
8
BLACK
6
CONTINUOUS
10
5.6726077165354329
20
-3.7511732283464565
11
5.6719158267716532
21
-3.7528435433070864
0
LINE
8
BLACK
6
CONTINUOUS
10
5.6719158267716532
20
-3.7528435433070864
11
5.6702455118110233
21
-3.7535354330708661
0
LINE
8
BLACK
6
CONTINUOUS
10
5.6702455118110233
20
-3.7535354330708661
11
5.6617544881889765
21
-3.7535354330708661
0
LINE
8
BLACK
6
CONTINUOUS
10
5.6617544881889765
20
-3.7535354330708661
11
5.6600841732283467
21
-3.7528435433070864
0
LINE
8
BLACK
6
CONTINUOUS
10
5.6600841732283467
20
-3.7528435433070864
11
5.6593922834645669
21
-3.7511732283464565
0
LINE
8
BLACK
6
CONTINUOUS
10
5.6593922834645669
20
-3.7511732283464565
11
5.6600841732283467
21
-3.7495029133858266
0
LINE
8
BLACK
6
CONTINUOUS
10
5.6600841732283467
20
-3.7495029133858266
11
5.6617544881889765
21
-3.7488110236220473
0
LINE
8
BLACK
6
CONTINUOUS
10
5.6617544881889765
20
-3.7488110236220473
11
5.6702455118110233
21
-3.7488110236220473
0
LINE
8
BLACK
6
CONTINUOUS
10
5.6702455118110233
20
-3.7488110236220473
11
5.6719158267716532
21
-3.7495029133858266
0
LINE
8
BLACK
6
CONTINUOUS
10
5.82422937007874
20
-3.6947076377952754
11
5.8249212598425197
21
-3.6963779527559053
0
LINE
8
BLACK
6
CONTINUOUS
10
5.8249212598425197
20
-3.6963779527559053
11
5.82422937007874
21
-3.6980482677165352
0
LINE
8
BLACK
6
CONTINUOUS
10
5.82422937007874
20
-3.6980482677165352
11
5.8225590551181101
21
-3.6987401574803149
0
LINE
8
BLACK
6
CONTINUOUS
10
5.8225590551181101
20
-3.6987401574803149
11
5.7520866141732281
21
-3.6987401574803149
0
LINE
8
BLACK
6
CONTINUOUS
10
5.7520866141732281
20
-3.6987401574803149
11
5.7520866141732281
21
-3.741259842519685
0
LINE
8
BLACK
6
CONTINUOUS
10
5.7520866141732281
20
-3.741259842519685
11
5.8225590551181101
21
-3.741259842519685
0
LINE
8
BLACK
6
CONTINUOUS
10
5.8225590551181101
20
-3.741259842519685
11
5.82422937007874
21
-3.7419517322834643
0
LINE
8
BLACK
6
CONTINUOUS
10
5.82422937007874
20
-3.7419517322834643
11
5.8249212598425197
21
-3.7436220472440942
0
LINE
8
BLACK
6
CONTINUOUS
10
5.8249212598425197
20
-3.7436220472440942
11
5.82422937007874
21
-3.7452923622047245
0
LINE
8
BLACK
6
CONTINUOUS
10
5.82422937007874
20
-3.7452923622047245
11
5.8225590551181101
21
-3.7459842519685038
0
LINE
8
BLACK
6
CONTINUOUS
10
5.8225590551181101
20
-3.7459842519685038
11
5.7497244094488185
21
-3.7459842519685038
0
LINE
8
BLACK
6
CONTINUOUS
10
5.7497244094488185
20
-3.7459842519685038
11
5.7480540944881886
21
-3.7452923622047245
0
LINE
8
BLACK
6
CONTINUOUS
10
5.7480540944881886
20
-3.7452923622047245
11
5.7473622047244097
21
-3.7436220472440942
0
LINE
8
BLACK
6
CONTINUOUS
10
5.7473622047244097
20
-3.7436220472440942
11
5.7473622047244097
21
-3.6963779527559053
0
LINE
8
BLACK
6
CONTINUOUS
10
5.7473622047244097
20
-3.6963779527559053
11
5.7480540944881886
21
-3.6947076377952754
0
LINE
8
BLACK
6
CONTINUOUS
10
5.7480540944881886
20
-3.6947076377952754
11
5.7497244094488185
21
-3.6940157480314961
0
LINE
8
BLACK
6
CONTINUOUS
10
5.7497244094488185
20
-3.6940157480314961
11
5.8225590551181101
21
-3.6940157480314961
0
LINE
8
BLACK
6
CONTINUOUS
10
5.8225590551181101
20
-3.6940157480314961
11
5.82422937007874
21
-3.6947076377952754
0
LINE
8
BLACK
6
CONTINUOUS
10
5.8906616535433072
20
-3.7007131496062993
11
5.8908310629921257
21
-3.7007022440944879
0
LINE
8
BLACK
6
CONTINUOUS
10
5.8908310629921257
20
-3.7007022440944879
11
5.8915216535433066
21
-3.7012096850393701
0
LINE
8
BLACK
6
CONTINUOUS
10
5.8915216535433066
20
-3.7012096850393701
11
5.8922637795275588
21
-3.7016381889763781
0
LINE
8
BLACK
6
CONTINUOUS
10
5.8922637795275588
20
-3.7016381889763781
11
5.8923218110236215
21
-3.7017976771653545
0
LINE
8
BLACK
6
CONTINUOUS
10
5.8923218110236215
20
-3.7017976771653545
11
5.8924587007874019
21
-3.7018982677165355
0
LINE
8
BLACK
6
CONTINUOUS
10
5.8924587007874019
20
-3.7018982677165355
11
5.8960460236220475
21
-3.7072792913385828
0
LINE
8
BLACK
6
CONTINUOUS
10
5.8960460236220475
20
-3.7072792913385828
11
5.8992499999999994
21
-3.7104832677165351
0
LINE
8
BLACK
6
CONTINUOUS
10
5.8992499999999994
20
-3.7104832677165351
11
5.9025709448818899
21
-3.7121437401574804
0
LINE
8
BLACK
6
CONTINUOUS
10
5.9025709448818899
20
-3.7121437401574804
11
5.9033946062992122
21
-3.7127546456692913
0
LINE
8
BLACK
6
CONTINUOUS
10
5.9033946062992122
20
-3.7127546456692913
11
5.9041978740157477
21
-3.714607834645669
0
LINE
8
BLACK
6
CONTINUOUS
10
5.9041978740157477
20
-3.714607834645669
11
5.9036220078740156
21
-3.7165438582677166
0
LINE
8
BLACK
6
CONTINUOUS
10
5.9036220078740156
20
-3.7165438582677166
11
5.9019364566929129
21
-3.7176566929133856
0
LINE
8
BLACK
6
CONTINUOUS
10
5.9019364566929129
20
-3.7176566929133856
11
5.8999299212598419
21
-3.7174257874015746
0
LINE
8
BLACK
6
CONTINUOUS
10
5.8999299212598419
20
-3.7174257874015746
11
5.8961803937007868
21
-3.715551023622047
0
LINE
8
BLACK
6
CONTINUOUS
10
5.8961803937007868
20
-3.715551023622047
11
5.8954712992125984
21
-3.7150250787401573
0
LINE
8
BLACK
6
CONTINUOUS
10
5.8954712992125984
20
-3.7150250787401573
11
5.8954129921259844
21
-3.7149979133858269
0
LINE
8
BLACK
6
CONTINUOUS
10
5.8954129921259844
20
-3.7149979133858269
11
5.8929546062992122
21
-3.7125395275590551
0
LINE
8
BLACK
6
CONTINUOUS
10
5.8929546062992122
20
-3.7125395275590551
11
5.8929546062992122
21
-3.739953503937008
0
LINE
8
BLACK
6
CONTINUOUS
10
5.8929546062992122
20
-3.739953503937008
11
5.9012504330708664
21
-3.739953503937008
0
LINE
8
BLACK
6
CONTINUOUS
10
5.9012504330708664
20
-3.739953503937008
11
5.9022603543307088
21
-3.7401315748031494
0
LINE
8
BLACK
6
CONTINUOUS
10
5.9022603543307088
20
-3.7401315748031494
11
5.903807598425197
21
-3.7414298818897636
0
LINE
8
BLACK
6
CONTINUOUS
10
5.903807598425197
20
-3.7414298818897636
11
5.9041583464566925
21
-3.7434190157480316
0
LINE
8
BLACK
6
CONTINUOUS
10
5.9041583464566925
20
-3.7434190157480316
11
5.90314842519685
21
-3.7451681889763777
0
LINE
8
BLACK
6
CONTINUOUS
10
5.90314842519685
20
-3.7451681889763777
11
5.9012504330708664
21
-3.7458590157480316
0
LINE
8
BLACK
6
CONTINUOUS
10
5.9012504330708664
20
-3.7458590157480316
11
5.8787532677165357
21
-3.7458590157480316
0
LINE
8
BLACK
6
CONTINUOUS
10
5.8787532677165357
20
-3.7458590157480316
11
5.8777433464566924
21
-3.7456809448818897
0
LINE
8
BLACK
6
CONTINUOUS
10
5.8777433464566924
20
-3.7456809448818897
11
5.8761961023622042
21
-3.7443826377952756
0
LINE
8
BLACK
6
CONTINUOUS
10
5.8761961023622042
20
-3.7443826377952756
11
5.8758453543307088
21
-3.742393503937008
0
LINE
8
BLACK
6
CONTINUOUS
10
5.8758453543307088
20
-3.742393503937008
11
5.8768552755905512
21
-3.7406443307086614
0
LINE
8
BLACK
6
CONTINUOUS
10
5.8768552755905512
20
-3.7406443307086614
11
5.8787532677165357
21
-3.739953503937008
0
LINE
8
BLACK
6
CONTINUOUS
10
5.8787532677165357
20
-3.739953503937008
11
5.887049094488189
21
-3.739953503937008
0
LINE
8
BLACK
6
CONTINUOUS
10
5.887049094488189
20
-3.739953503937008
11
5.887049094488189
21
-3.7035361811023622
0
LINE
8
BLACK
6
CONTINUOUS
10
5.887049094488189
20
-3.7035361811023622
11
5.8872271653543304
21
-3.7025262598425197
0
LINE
8
BLACK
6
CONTINUOUS
10
5.8872271653543304
20
-3.7025262598425197
11
5.8873362598425194
21
-3.7023961811023622
0
LINE
8
BLACK
6
CONTINUOUS
10
5.8873362598425194
20
-3.7023961811023622
11
5.8873549606299207
21
-3.7022274409448817
0
LINE
8
BLACK
6
CONTINUOUS
10
5.8873549606299207
20
-3.7022274409448817
11
5.8879745669291337
21
-3.7016355118110233
0
LINE
8
BLACK
6
CONTINUOUS
10
5.8879745669291337
20
-3.7016355118110233
11
5.8885254724409446
21
-3.7009790157480316
0
LINE
8
BLACK
6
CONTINUOUS
10
5.8885254724409446
20
-3.7009790157480316
11
5.8886926771653538
21
-3.7009495275590552
0
LINE
8
BLACK
6
CONTINUOUS
10
5.8886926771653538
20
-3.7009495275590552
11
5.8888154724409452
21
-3.7008322440944883
0
LINE
8
BLACK
6
CONTINUOUS
10
5.8888154724409452
20
-3.7008322440944883
11
5.889670590551181
21
-3.7007770866141732
0
LINE
8
BLACK
6
CONTINUOUS
10
5.889670590551181
20
-3.7007770866141732
11
5.8905146062992122
21
-3.7006282677165352
0
LINE
8
BLACK
6
CONTINUOUS
10
5.8905146062992122
20
-3.7006282677165352
11
5.8906616535433072
21
-3.7007131496062993
0
LINE
8
BLACK
6
CONTINUOUS
10
5.9203852755905508
20
-3.7016381889763781
11
5.9210761023622043
21
-3.7035361811023622
0
LINE
8
BLACK
6
CONTINUOUS
10
5.9210761023622043
20
-3.7035361811023622
11
5.9210761023622043
21
-3.7311784645669293
0
LINE
8
BLACK
6
CONTINUOUS
10
5.9210761023622043
20
-3.7311784645669293
11
5.9225788976377949
21
-3.7356868897637794
0
LINE
8
BLACK
6
CONTINUOUS
10
5.9225788976377949
20
-3.7356868897637794
11
5.9253426771653546
21
-3.7384507086614174
0
LINE
8
BLACK
6
CONTINUOUS
10
5.9253426771653546
20
-3.7384507086614174
11
5.9298510629921255
21
-3.739953503937008
0
LINE
8
BLACK
6
CONTINUOUS
10
5.9298510629921255
20
-3.739953503937008
11
5.9331214566929136
21
-3.739953503937008
0
LINE
8
BLACK
6
CONTINUOUS
10
5.9331214566929136
20
-3.739953503937008
11
5.934131377952756
21
-3.7401315748031494
0
LINE
8
BLACK
6
CONTINUOUS
10
5.934131377952756
20
-3.7401315748031494
11
5.9356786220472442
21
-3.7414298818897636
0
LINE
8
BLACK
6
CONTINUOUS
10
5.9356786220472442
20
-3.7414298818897636
11
5.9360293700787397
21
-3.7434190157480316
0
LINE
8
BLACK
6
CONTINUOUS
10
5.9360293700787397
20
-3.7434190157480316
11
5.9350194488188972
21
-3.7451681889763777
0
LINE
8
BLACK
6
CONTINUOUS
10
5.9350194488188972
20
-3.7451681889763777
11
5.9331214566929136
21
-3.7458590157480316
0
LINE
8
BLACK
6
CONTINUOUS
10
5.9331214566929136
20
-3.7458590157480316
11
5.9293719291338585
21
-3.7458590157480316
0
LINE
8
BLACK
6
CONTINUOUS
10
5.9293719291338585
20
-3.7458590157480316
11
5.9285025196850389
21
-3.7457057086614172
0
LINE
8
BLACK
6
CONTINUOUS
10
5.9285025196850389
20
-3.7457057086614172
11
5.9284381496062988
21
-3.7457074803149606
0
LINE
8
BLACK
6
CONTINUOUS
10
5.9284381496062988
20
-3.7457074803149606
11
5.9228138976377949
21
-3.743832716535433
0
LINE
8
BLACK
6
CONTINUOUS
10
5.9228138976377949
20
-3.743832716535433
11
5.9219121259842522
21
-3.7433444094488189
0
LINE
8
BLACK
6
CONTINUOUS
10
5.9219121259842522
20
-3.7433444094488189
11
5.921819724409449
21
-3.7431940157480312
0
LINE
8
BLACK
6
CONTINUOUS
10
5.921819724409449
20
-3.7431940157480312
11
5.9216597244094489
21
-3.7431194094488189
0
LINE
8
BLACK
6
CONTINUOUS
10
5.9216597244094489
20
-3.7431194094488189
11
5.9179101968503938
21
-3.7393698425196851
0
LINE
8
BLACK
6
CONTINUOUS
10
5.9179101968503938
20
-3.7393698425196851
11
5.9173219685039369
21
-3.7385298031496061
0
LINE
8
BLACK
6
CONTINUOUS
10
5.9173219685039369
20
-3.7385298031496061
11
5.917306574803149
21
-3.7383538582677165
0
LINE
8
BLACK
6
CONTINUOUS
10
5.917306574803149
20
-3.7383538582677165
11
5.9171968897637797
21
-3.7382156692913386
0
LINE
8
BLACK
6
CONTINUOUS
10
5.9171968897637797
20
-3.7382156692913386
11
5.9153221259842521
21
-3.732591377952756
0
LINE
8
BLACK
6
CONTINUOUS
10
5.9153221259842521
20
-3.732591377952756
11
5.9151926377952755
21
-3.731718188976378
0
LINE
8
BLACK
6
CONTINUOUS
10
5.9151926377952755
20
-3.731718188976378
11
5.9151705905511811
21
-3.7316576377952755
0
LINE
8
BLACK
6
CONTINUOUS
10
5.9151705905511811
20
-3.7316576377952755
11
5.9151705905511811
21
-3.7035361811023622
0
LINE
8
BLACK
6
CONTINUOUS
10
5.9151705905511811
20
-3.7035361811023622
11
5.9153486614173225
21
-3.7025262598425197
0
LINE
8
BLACK
6
CONTINUOUS
10
5.9153486614173225
20
-3.7025262598425197
11
5.9166469685039367
21
-3.7009790157480316
0
LINE
8
BLACK
6
CONTINUOUS
10
5.9166469685039367
20
-3.7009790157480316
11
5.9186361023622043
21
-3.7006282677165352
0
LINE
8
BLACK
6
CONTINUOUS
10
5.9186361023622043
20
-3.7006282677165352
11
5.9203852755905508
21
-3.7016381889763781
0
LINE
8
BLACK
6
CONTINUOUS
10
5.2609158267716536
20
-3.7391564566929132
11
5.2616077165354334
21
-3.740826771653543
0
LINE
8
BLACK
6
CONTINUOUS
10
5.2616077165354334
20
-3.740826771653543
11
5.2609158267716536
21
-3.7424970866141734
0
LINE
8
BLACK
6
CONTINUOUS
10
5.2609158267716536
20
-3.7424970866141734
11
5.2592455118110237
21
-3.7431889763779527
0
LINE
8
BLACK
6
CONTINUOUS
10
5.2592455118110237
20
-3.7431889763779527
11
5.2507544881889761
21
-3.7431889763779527
0
LINE
8
BLACK
6
CONTINUOUS
10
5.2507544881889761
20
-3.7431889763779527
11
5.2490841732283462
21
-3.7424970866141734
0
LINE
8
BLACK
6
CONTINUOUS
10
5.2490841732283462
20
-3.7424970866141734
11
5.2483922834645664
21
-3.740826771653543
0
LINE
8
BLACK
6
CONTINUOUS
10
5.2483922834645664
20
-3.740826771653543
11
5.2490841732283462
21
-3.7391564566929132
0
LINE
8
BLACK
6
CONTINUOUS
10
5.2490841732283462
20
-3.7391564566929132
11
5.2507544881889761
21
-3.7384645669291339
0
LINE
8
BLACK
6
CONTINUOUS
10
5.2507544881889761
20
-3.7384645669291339
11
5.2592455118110237
21
-3.7384645669291339
0
LINE
8
BLACK
6
CONTINUOUS
10
5.2592455118110237
20
-3.7384645669291339
11
5.2609158267716536
21
-3.7391564566929132
0
LINE
8
BLACK
6
CONTINUOUS
10
5.370915826771653
20
-3.7341564566929133
11
5.3716077165354328
21
-3.7358267716535432
0
LINE
8
BLACK
6
CONTINUOUS
10
5.3716077165354328
20
-3.7358267716535432
11
5.370915826771653
21
-3.737497086614173
0
LINE
8
BLACK
6
CONTINUOUS
10
5.370915826771653
20
-3.737497086614173
11
5.3692455118110232
21
-3.7381889763779528
0
LINE
8
BLACK
6
CONTINUOUS
10
5.3692455118110232
20
-3.7381889763779528
11
5.3607544881889764
21
-3.7381889763779528
0
LINE
8
BLACK
6
CONTINUOUS
10
5.3607544881889764
20
-3.7381889763779528
11
5.3590841732283465
21
-3.737497086614173
0
LINE
8
BLACK
6
CONTINUOUS
10
5.3590841732283465
20
-3.737497086614173
11
5.3583922834645668
21
-3.7358267716535432
0
LINE
8
BLACK
6
CONTINUOUS
10
5.3583922834645668
20
-3.7358267716535432
11
5.3590841732283465
21
-3.7341564566929133
0
LINE
8
BLACK
6
CONTINUOUS
10
5.3590841732283465
20
-3.7341564566929133
11
5.3607544881889764
21
-3.733464566929134
0
LINE
8
BLACK
6
CONTINUOUS
10
5.3607544881889764
20
-3.733464566929134
11
5.3692455118110232
21
-3.733464566929134
0
LINE
8
BLACK
6
CONTINUOUS
10
5.3692455118110232
20
-3.733464566929134
11
5.370915826771653
21
-3.7341564566929133
0
LINE
8
BLACK
6
CONTINUOUS
10
5.1225581496062995
20
-3.7061309055118108
11
5.1229974803149609
21
-3.7071915748031494
0
LINE
8
BLACK
6
CONTINUOUS
10
5.1229974803149609
20
-3.7071915748031494
11
5.1229974803149609
21
-3.7357629921259843
0
LINE
8
BLACK
6
CONTINUOUS
10
5.1229974803149609
20
-3.7357629921259843
11
5.1225581496062995
21
-3.7368236614173229
0
LINE
8
BLACK
6
CONTINUOUS
10
5.1225581496062995
20
-3.7368236614173229
11
5.1214974803149609
21
-3.7372629921259843
0
LINE
8
BLACK
6
CONTINUOUS
10
5.1214974803149609
20
-3.7372629921259843
11
5.1204368110236222
21
-3.7368236614173229
0
LINE
8
BLACK
6
CONTINUOUS
10
5.1204368110236222
20
-3.7368236614173229
11
5.1199974803149608
21
-3.7357629921259843
0
LINE
8
BLACK
6
CONTINUOUS
10
5.1199974803149608
20
-3.7357629921259843
11
5.1199974803149608
21
-3.7071915748031494
0
LINE
8
BLACK
6
CONTINUOUS
10
5.1199974803149608
20
-3.7071915748031494
11
5.1204368110236222
21
-3.7061309055118108
0
LINE
8
BLACK
6
CONTINUOUS
10
5.1204368110236222
20
-3.7061309055118108
11
5.1214974803149609
21
-3.7056915748031494
0
LINE
8
BLACK
6
CONTINUOUS
10
5.1214974803149609
20
-3.7056915748031494
11
5.1225581496062995
21
-3.7061309055118108
0
LINE
8
BLACK
6
CONTINUOUS
10
5.4174970866141727
20
-3.7190841732283464
11
5.4181889763779525
21
-3.7207544881889763
0
LINE
8
BLACK
6
CONTINUOUS
10
5.4181889763779525
20
-3.7207544881889763
11
5.4181889763779525
21
-3.7292455118110235
0
LINE
8
BLACK
6
CONTINUOUS
10
5.4181889763779525
20
-3.7292455118110235
11
5.4174970866141727
21
-3.7309158267716533
0
LINE
8
BLACK
6
CONTINUOUS
10
5.4174970866141727
20
-3.7309158267716533
11
5.4158267716535429
21
-3.7316077165354331
0
LINE
8
BLACK
6
CONTINUOUS
10
5.4158267716535429
20
-3.7316077165354331
11
5.414156456692913
21
-3.7309158267716533
0
LINE
8
BLACK
6
CONTINUOUS
10
5.414156456692913
20
-3.7309158267716533
11
5.4134645669291341
21
-3.7292455118110235
0
LINE
8
BLACK
6
CONTINUOUS
10
5.4134645669291341
20
-3.7292455118110235
11
5.4134645669291341
21
-3.7207544881889763
0
LINE
8
BLACK
6
CONTINUOUS
10
5.4134645669291341
20
-3.7207544881889763
11
5.414156456692913
21
-3.7190841732283464
0
LINE
8
BLACK
6
CONTINUOUS
10
5.414156456692913
20
-3.7190841732283464
11
5.4158267716535429
21
-3.7183922834645666
0
LINE
8
BLACK
6
CONTINUOUS
10
5.4158267716535429
20
-3.7183922834645666
11
5.4174970866141727
21
-3.7190841732283464
0
LINE
8
BLACK
6
CONTINUOUS
10
5.4458435433070864
20
-3.7190841732283464
11
5.4465354330708662
21
-3.7207544881889763
0
LINE
8
BLACK
6
CONTINUOUS
10
5.4465354330708662
20
-3.7207544881889763
11
5.4465354330708662
21
-3.7292455118110235
0
LINE
8
BLACK
6
CONTINUOUS
10
5.4465354330708662
20
-3.7292455118110235
11
5.4458435433070864
21
-3.7309158267716533
0
LINE
8
BLACK
6
CONTINUOUS
10
5.4458435433070864
20
-3.7309158267716533
11
5.4441732283464566
21
-3.7316077165354331
0
LINE
8
BLACK
6
CONTINUOUS
10
5.4441732283464566
20
-3.7316077165354331
11
5.4425029133858267
21
-3.7309158267716533
0
LINE
8
BLACK
6
CONTINUOUS
10
5.4425029133858267
20
-3.7309158267716533
11
5.4418110236220469
21
-3.7292455118110235
0
LINE
8
BLACK
6
CONTINUOUS
10
5.4418110236220469
20
-3.7292455118110235
11
5.4418110236220469
21
-3.7207544881889763
0
LINE
8
BLACK
6
CONTINUOUS
10
5.4418110236220469
20
-3.7207544881889763
11
5.4425029133858267
21
-3.7190841732283464
0
LINE
8
BLACK
6
CONTINUOUS
10
5.4425029133858267
20
-3.7190841732283464
11
5.4441732283464566
21
-3.7183922834645666
0
LINE
8
BLACK
6
CONTINUOUS
10
5.4441732283464566
20
-3.7183922834645666
11
5.4458435433070864
21
-3.7190841732283464
0
LINE
8
BLACK
6
CONTINUOUS
10
5.6719158267716532
20
-3.7211564566929134
11
5.6726077165354329
21
-3.7228267716535433
0
LINE
8
BLACK
6
CONTINUOUS
10
5.6726077165354329
20
-3.7228267716535433
11
5.6719158267716532
21
-3.7244970866141731
0
LINE
8
BLACK
6
CONTINUOUS
10
5.6719158267716532
20
-3.7244970866141731
11
5.6702455118110233
21
-3.7251889763779529
0
LINE
8
BLACK
6
CONTINUOUS
10
5.6702455118110233
20
-3.7251889763779529
11
5.6617544881889765
21
-3.7251889763779529
0
LINE
8
BLACK
6
CONTINUOUS
10
5.6617544881889765
20
-3.7251889763779529
11
5.6600841732283467
21
-3.7244970866141731
0
LINE
8
BLACK
6
CONTINUOUS
10
5.6600841732283467
20
-3.7244970866141731
11
5.6593922834645669
21
-3.7228267716535433
0
LINE
8
BLACK
6
CONTINUOUS
10
5.6593922834645669
20
-3.7228267716535433
11
5.6600841732283467
21
-3.7211564566929134
0
LINE
8
BLACK
6
CONTINUOUS
10
5.6600841732283467
20
-3.7211564566929134
11
5.6617544881889765
21
-3.7204645669291336
0
LINE
8
BLACK
6
CONTINUOUS
10
5.6617544881889765
20
-3.7204645669291336
11
5.6702455118110233
21
-3.7204645669291336
0
LINE
8
BLACK
6
CONTINUOUS
10
5.6702455118110233
20
-3.7204645669291336
11
5.6719158267716532
21
-3.7211564566929134
0
LINE
8
BLACK
6
CONTINUOUS
10
5.1280170866141734
20
-3.6756308661417321
11
5.1286760629921258
21
-3.6765709448818895
0
LINE
8
BLACK
6
CONTINUOUS
10
5.1286760629921258
20
-3.6765709448818895
11
5.1284772440944879
21
-3.6777016535433069
0
LINE
8
BLACK
6
CONTINUOUS
10
5.1284772440944879
20
-3.6777016535433069
11
5.1220450787401575
21
-3.6878092913385827
0
LINE
8
BLACK
6
CONTINUOUS
10
5.1220450787401575
20
-3.6878092913385827
11
5.1220450787401575
21
-3.6968963385826772
0
LINE
8
BLACK
6
CONTINUOUS
10
5.1220450787401575
20
-3.6968963385826772
11
5.121605748031496
21
-3.6979570078740158
0
LINE
8
BLACK
6
CONTINUOUS
10
5.121605748031496
20
-3.6979570078740158
11
5.1205450787401574
21
-3.6983963385826772
0
LINE
8
BLACK
6
CONTINUOUS
10
5.1205450787401574
20
-3.6983963385826772
11
5.1194844094488188
21
-3.6979570078740158
0
LINE
8
BLACK
6
CONTINUOUS
10
5.1194844094488188
20
-3.6979570078740158
11
5.1190450787401574
21
-3.6968963385826772
0
LINE
8
BLACK
6
CONTINUOUS
10
5.1190450787401574
20
-3.6968963385826772
11
5.1190450787401574
21
-3.6878092913385827
0
LINE
8
BLACK
6
CONTINUOUS
10
5.1190450787401574
20
-3.6878092913385827
11
5.1126129133858269
21
-3.6777016535433069
0
LINE
8
BLACK
6
CONTINUOUS
10
5.1126129133858269
20
-3.6777016535433069
11
5.1124141338582678
21
-3.6765709448818895
0
LINE
8
BLACK
6
CONTINUOUS
10
5.1124141338582678
20
-3.6765709448818895
11
5.1130731102362201
21
-3.6756308267716533
0
LINE
8
BLACK
6
CONTINUOUS
10
5.1130731102362201
20
-3.6756308267716533
11
5.1142038188976375
21
-3.6754320472440942
0
LINE
8
BLACK
6
CONTINUOUS
10
5.1142038188976375
20
-3.6754320472440942
11
5.1151439370078737
21
-3.676091023622047
0
LINE
8
BLACK
6
CONTINUOUS
10
5.1151439370078737
20
-3.676091023622047
11
5.1205450787401574
21
-3.6845785433070866
0
LINE
8
BLACK
6
CONTINUOUS
10
5.1205450787401574
20
-3.6845785433070866
11
5.1259462598425198
21
-3.676091023622047
0
LINE
8
BLACK
6
CONTINUOUS
10
5.1259462598425198
20
-3.676091023622047
11
5.126886377952756
21
-3.6754320472440942
0
LINE
8
BLACK
6
CONTINUOUS
10
5.126886377952756
20
-3.6754320472440942
11
5.1280170866141734
21
-3.6756308661417321
0
LINE
8
BLACK
6
CONTINUOUS
10
5.5350000000000001
20
-3.671220472440945
11
5.6058661417322835
21
-3.671220472440945
0
LINE
8
BLACK
6
CONTINUOUS
10
5.6058661417322835
20
-3.671220472440945
11
5.6075364566929133
21
-3.6719123622047243
0
LINE
8
BLACK
6
CONTINUOUS
10
5.6075364566929133
20
-3.6719123622047243
11
5.6082283464566931
21
-3.6735826771653541
0
LINE
8
BLACK
6
CONTINUOUS
10
5.6082283464566931
20
-3.6735826771653541
11
5.6075364566929133
21
-3.675252992125984
0
LINE
8
BLACK
6
CONTINUOUS
10
5.6075364566929133
20
-3.675252992125984
11
5.6058661417322835
21
-3.6759448818897638
0
LINE
8
BLACK
6
CONTINUOUS
10
5.6058661417322835
20
-3.6759448818897638
11
5.5350000000000001
21
-3.6759448818897638
0
LINE
8
BLACK
6
CONTINUOUS
10
5.5350000000000001
20
-3.6759448818897638
11
5.5035039370078742
21
-3.6759448818897638
0
LINE
8
BLACK
6
CONTINUOUS
10
5.5035039370078742
20
-3.6759448818897638
11
5.5018336220472444
21
-3.675252992125984
0
LINE
8
BLACK
6
CONTINUOUS
10
5.5018336220472444
20
-3.675252992125984
11
5.5011417322834646
21
-3.6735826771653541
0
LINE
8
BLACK
6
CONTINUOUS
10
5.5011417322834646
20
-3.6735826771653541
11
5.5018336220472444
21
-3.6719123622047243
0
LINE
8
BLACK
6
CONTINUOUS
10
5.5018336220472444
20
-3.6719123622047243
11
5.5035039370078742
21
-3.671220472440945
0
LINE
8
BLACK
6
CONTINUOUS
10
5.5035039370078742
20
-3.671220472440945
11
5.5350000000000001
21
-3.671220472440945
0
CIRCLE
8
BLACK
10
4.8884251968503936
20
-3.6494488188976377
40
0.0068897637795276
0
CIRCLE
8
BLACK
10
4.8884251968503936
20
-4.2400000000000002
40
0.0068897637795276
0
CIRCLE
8
BLACK
10
5.2821259842519686
20
-4.2400000000000002
40
0.0068897637795276
0
CIRCLE
8
BLACK
10
5.2821259842519686
20
-3.6494488188976377
40
0.0068897637795276
0
CIRCLE
8
BLACK
10
5.146299212598425
20
-4.0037795275590549
40
0.0068897637795276
0
CIRCLE
8
BLACK
10
4.8588976377952751
20
-4.0037795275590549
40
0.0068897637795276
0
CIRCLE
8
BLACK
10
4.8588976377952751
20
-3.834488188976378
40
0.0068897637795276
  0
ENDSEC
  0
EOF
