  0
SECTION
  2
HEADER
  9
$ANGBASE
  50
0.0
  9
$ANGDIR
  70
1
  9
$MEASUREMENT
  70
0
  0
ENDSEC
  0
SECTION
  2
TABLES
  0
TABLE
  2
LTYPE
  70
4
  0
LTYPE
  5
40F
  2
CONTINUOUS
  70
0
  3
Solid line
  72
65
  73
0
  40
0.0
  0
LTYPE
  5
410
  2
DASHDOT
 70
0
  3
Dash Dot ____ _ ____ _
 72
65
 73
4
 40
2.0
 49
1.25
 49
-0.25
 49
0.25
 49
-0.25
  0
LTYPE
  5
411
  2
DASHED
 70
0
  3
Dashed __ __ __ __ __
 72
65
 73
2
 40
0.75
 49
0.5
 49
-0.25
  0
LTYPE
  5
43B
  2
DOTTED
 70
0
  3
Dotted .  .  .  .
 72
65
 73
2
 40
0.2
 49
0.0
 49
-0.2
  0
ENDTAB
  0
TABLE
  2
STYLE
  70
4
  0
STYLE
  2
KICAD
  70
0
  40
0
  41
1
  42
1
  50
0
  71
0
  3
isocp.shx
  0
STYLE
  2
KICADB
  70
0
  40
0
  41
1
  42
1
  50
0
  71
0
  3
isocp.shx
  0
STYLE
  2
KICADI
  70
0
  40
0
  41
1
  42
1
  50
15
  71
0
  3
isocp.shx
  0
STYLE
  2
KICADBI
  70
0
  40
0
  41
1
  42
1
  50
15
  71
0
  3
isocp.shx
  0
ENDTAB
  0
TABLE
  2
LAYER
  70
1
  0
LAYER
  2
BLACK
  70
0
  62
7
  6
CONTINUOUS
  0
ENDTAB
  0
ENDSEC
  0
SECTION
  2
ENTITIES
0
LINE
8
BLACK
6
CONTINUOUS
10
5.0509278346456687
20
-4.0698780708661415
11
5.0514605118110234
21
-4.0704107480314962
0
LINE
8
BLACK
6
CONTINUOUS
10
5.0514605118110234
20
-4.0704107480314962
11
5.0515354330708657
21
-4.1692125984251964
0
LINE
8
BLACK
6
CONTINUOUS
10
5.0515354330708657
20
-4.1692125984251964
11
5.0514605118110234
21
-4.1695892519685041
0
LINE
8
BLACK
6
CONTINUOUS
10
5.0514605118110234
20
-4.1695892519685041
11
5.0509278346456687
21
-4.1701219291338578
0
LINE
8
BLACK
6
CONTINUOUS
10
5.0509278346456687
20
-4.1701219291338578
11
4.8694488188976379
21
-4.170196850393701
0
LINE
8
BLACK
6
CONTINUOUS
10
4.8694488188976379
20
-4.170196850393701
11
4.8690721653543303
21
-4.1701219291338578
0
LINE
8
BLACK
6
CONTINUOUS
10
4.8690721653543303
20
-4.1701219291338578
11
4.8685394881889765
21
-4.1695892519685041
0
LINE
8
BLACK
6
CONTINUOUS
10
4.8685394881889765
20
-4.1695892519685041
11
4.8684645669291333
21
-4.0707874015748029
0
LINE
8
BLACK
6
CONTINUOUS
10
4.8684645669291333
20
-4.0707874015748029
11
4.8685394881889765
21
-4.0704107480314962
0
LINE
8
BLACK
6
CONTINUOUS
10
4.8685394881889765
20
-4.0704107480314962
11
4.8690721653543303
21
-4.0698780708661415
0
LINE
8
BLACK
6
CONTINUOUS
10
4.8690721653543303
20
-4.0698780708661415
11
5.050551181102362
21
-4.0698031496062992
0
LINE
8
BLACK
6
CONTINUOUS
10
5.050551181102362
20
-4.0698031496062992
11
5.0509278346456687
21
-4.0698780708661415
0
LINE
8
BLACK
6
CONTINUOUS
10
4.870359173228346
20
-4.07177125984252
11
4.8704323622047241
21
-4.1683026771653546
0
LINE
8
BLACK
6
CONTINUOUS
10
4.8704323622047241
20
-4.1683026771653546
11
5.0496407874015743
21
-4.1682287007874015
0
LINE
8
BLACK
6
CONTINUOUS
10
5.0496407874015743
20
-4.1682287007874015
11
5.0495675984251971
21
-4.0716972834645668
0
LINE
8
BLACK
6
CONTINUOUS
10
5.0495675984251971
20
-4.0716972834645668
11
4.870359173228346
21
-4.07177125984252
0
LINE
8
BLACK
6
CONTINUOUS
10
5.5195892519685037
20
-3.6685394881889763
11
5.5201219291338584
21
-3.6690721653543306
0
LINE
8
BLACK
6
CONTINUOUS
10
5.5201219291338584
20
-3.6690721653543306
11
5.5201968503937007
21
-3.8505511811023623
0
LINE
8
BLACK
6
CONTINUOUS
10
5.5201968503937007
20
-3.8505511811023623
11
5.5201219291338584
21
-3.850927834645669
0
LINE
8
BLACK
6
CONTINUOUS
10
5.5201219291338584
20
-3.850927834645669
11
5.5195892519685037
21
-3.8514605118110237
0
LINE
8
BLACK
6
CONTINUOUS
10
5.5195892519685037
20
-3.8514605118110237
11
5.4207874015748034
21
-3.851535433070866
0
LINE
8
BLACK
6
CONTINUOUS
10
5.4207874015748034
20
-3.851535433070866
11
5.4204107480314958
21
-3.8514605118110237
0
LINE
8
BLACK
6
CONTINUOUS
10
5.4204107480314958
20
-3.8514605118110237
11
5.419878070866142
21
-3.850927834645669
0
LINE
8
BLACK
6
CONTINUOUS
10
5.419878070866142
20
-3.850927834645669
11
5.4198031496062988
21
-3.6694488188976377
0
LINE
8
BLACK
6
CONTINUOUS
10
5.4198031496062988
20
-3.6694488188976377
11
5.419878070866142
21
-3.6690721653543306
0
LINE
8
BLACK
6
CONTINUOUS
10
5.419878070866142
20
-3.6690721653543306
11
5.4204107480314958
21
-3.6685394881889763
0
LINE
8
BLACK
6
CONTINUOUS
10
5.4204107480314958
20
-3.6685394881889763
11
5.519212598425197
21
-3.6684645669291336
0
LINE
8
BLACK
6
CONTINUOUS
10
5.519212598425197
20
-3.6684645669291336
11
5.5195892519685037
21
-3.6685394881889763
0
LINE
8
BLACK
6
CONTINUOUS
10
5.4216972834645665
20
-3.6704323622047244
11
5.4217712598425196
21
-3.8496407874015746
0
LINE
8
BLACK
6
CONTINUOUS
10
5.4217712598425196
20
-3.8496407874015746
11
5.5183026771653543
21
-3.8495675984251969
0
LINE
8
BLACK
6
CONTINUOUS
10
5.5183026771653543
20
-3.8495675984251969
11
5.5182287007874011
21
-3.6703591732283463
0
LINE
8
BLACK
6
CONTINUOUS
10
5.5182287007874011
20
-3.6703591732283463
11
5.4216972834645665
21
-3.6704323622047244
  0
ENDSEC
  0
EOF
