  0
SECTION
  2
HEADER
  9
$ANGBASE
  50
0.0
  9
$ANGDIR
  70
1
  9
$MEASUREMENT
  70
0
  0
ENDSEC
  0
SECTION
  2
TABLES
  0
TABLE
  2
LTYPE
  70
4
  0
LTYPE
  5
40F
  2
CONTINUOUS
  70
0
  3
Solid line
  72
65
  73
0
  40
0.0
  0
LTYPE
  5
410
  2
DASHDOT
 70
0
  3
Dash Dot ____ _ ____ _
 72
65
 73
4
 40
2.0
 49
1.25
 49
-0.25
 49
0.25
 49
-0.25
  0
LTYPE
  5
411
  2
DASHED
 70
0
  3
Dashed __ __ __ __ __
 72
65
 73
2
 40
0.75
 49
0.5
 49
-0.25
  0
LTYPE
  5
43B
  2
DOTTED
 70
0
  3
Dotted .  .  .  .
 72
65
 73
2
 40
0.2
 49
0.0
 49
-0.2
  0
ENDTAB
  0
TABLE
  2
STYLE
  70
4
  0
STYLE
  2
KICAD
  70
0
  40
0
  41
1
  42
1
  50
0
  71
0
  3
isocp.shx
  0
STYLE
  2
KICADB
  70
0
  40
0
  41
1
  42
1
  50
0
  71
0
  3
isocp.shx
  0
STYLE
  2
KICADI
  70
0
  40
0
  41
1
  42
1
  50
15
  71
0
  3
isocp.shx
  0
STYLE
  2
KICADBI
  70
0
  40
0
  41
1
  42
1
  50
15
  71
0
  3
isocp.shx
  0
ENDTAB
  0
TABLE
  2
LAYER
  70
1
  0
LAYER
  2
BLACK
  70
0
  62
7
  6
CONTINUOUS
  0
ENDTAB
  0
ENDSEC
  0
SECTION
  2
ENTITIES
0
LINE
8
BLACK
6
CONTINUOUS
10
5.5885039370078742
20
-4.0174015748031495
11
5.5891999212598424
21
-4.017689842519685
0
LINE
8
BLACK
6
CONTINUOUS
10
5.5891999212598424
20
-4.017689842519685
11
5.5894881889763779
21
-4.0183858267716532
0
LINE
8
BLACK
6
CONTINUOUS
10
5.5894881889763779
20
-4.0183858267716532
11
5.5894881889763779
21
-4.0916141732283462
0
LINE
8
BLACK
6
CONTINUOUS
10
5.5894881889763779
20
-4.0916141732283462
11
5.5892925196850394
21
-4.0920866141732279
0
LINE
8
BLACK
6
CONTINUOUS
10
5.5892925196850394
20
-4.0920866141732279
11
5.6257074803149605
21
-4.0920866141732279
0
LINE
8
BLACK
6
CONTINUOUS
10
5.6257074803149605
20
-4.0920866141732279
11
5.625511811023622
21
-4.0916141732283462
0
LINE
8
BLACK
6
CONTINUOUS
10
5.625511811023622
20
-4.0916141732283462
11
5.625511811023622
21
-4.0183858267716532
0
LINE
8
BLACK
6
CONTINUOUS
10
5.625511811023622
20
-4.0183858267716532
11
5.6258000787401574
21
-4.017689842519685
0
LINE
8
BLACK
6
CONTINUOUS
10
5.6258000787401574
20
-4.017689842519685
11
5.6264960629921257
21
-4.0174015748031495
0
LINE
8
BLACK
6
CONTINUOUS
10
5.6264960629921257
20
-4.0174015748031495
11
5.6635039370078735
21
-4.0174015748031495
0
LINE
8
BLACK
6
CONTINUOUS
10
5.6635039370078735
20
-4.0174015748031495
11
5.6641999212598426
21
-4.017689842519685
0
LINE
8
BLACK
6
CONTINUOUS
10
5.6641999212598426
20
-4.017689842519685
11
5.6644881889763781
21
-4.0183858267716532
0
LINE
8
BLACK
6
CONTINUOUS
10
5.6644881889763781
20
-4.0183858267716532
11
5.6644881889763781
21
-4.0916141732283462
0
LINE
8
BLACK
6
CONTINUOUS
10
5.6644881889763781
20
-4.0916141732283462
11
5.6642925196850396
21
-4.0920866141732279
0
LINE
8
BLACK
6
CONTINUOUS
10
5.6642925196850396
20
-4.0920866141732279
11
5.7207086614173228
21
-4.0920866141732279
0
LINE
8
BLACK
6
CONTINUOUS
10
5.7207086614173228
20
-4.0920866141732279
11
5.7214046456692911
21
-4.0923748818897634
0
LINE
8
BLACK
6
CONTINUOUS
10
5.7214046456692911
20
-4.0923748818897634
11
5.7216929133858265
21
-4.0930708661417325
0
LINE
8
BLACK
6
CONTINUOUS
10
5.7216929133858265
20
-4.0930708661417325
11
5.7216929133858265
21
-4.2269291338582677
0
LINE
8
BLACK
6
CONTINUOUS
10
5.7216929133858265
20
-4.2269291338582677
11
5.7214046456692911
21
-4.227625118110236
0
LINE
8
BLACK
6
CONTINUOUS
10
5.7214046456692911
20
-4.227625118110236
11
5.7207086614173228
21
-4.2279133858267715
0
LINE
8
BLACK
6
CONTINUOUS
10
5.7207086614173228
20
-4.2279133858267715
11
5.5592913385826774
21
-4.2279133858267715
0
LINE
8
BLACK
6
CONTINUOUS
10
5.5592913385826774
20
-4.2279133858267715
11
5.5585953543307083
21
-4.227625118110236
0
LINE
8
BLACK
6
CONTINUOUS
10
5.5585953543307083
20
-4.227625118110236
11
5.5583070866141728
21
-4.2269291338582677
0
LINE
8
BLACK
6
CONTINUOUS
10
5.5583070866141728
20
-4.2269291338582677
11
5.5583070866141728
21
-4.0930708661417325
0
LINE
8
BLACK
6
CONTINUOUS
10
5.5583070866141728
20
-4.0930708661417325
11
5.5585027559055113
21
-4.0925984251968499
0
LINE
8
BLACK
6
CONTINUOUS
10
5.5585027559055113
20
-4.0925984251968499
11
5.5514960629921255
21
-4.0925984251968499
0
LINE
8
BLACK
6
CONTINUOUS
10
5.5514960629921255
20
-4.0925984251968499
11
5.5508000787401572
21
-4.0923101574803145
0
LINE
8
BLACK
6
CONTINUOUS
10
5.5508000787401572
20
-4.0923101574803145
11
5.5505118110236218
21
-4.0916141732283462
0
LINE
8
BLACK
6
CONTINUOUS
10
5.5505118110236218
20
-4.0916141732283462
11
5.5505118110236218
21
-4.0183858267716532
0
LINE
8
BLACK
6
CONTINUOUS
10
5.5505118110236218
20
-4.0183858267716532
11
5.5508000787401572
21
-4.017689842519685
0
LINE
8
BLACK
6
CONTINUOUS
10
5.5508000787401572
20
-4.017689842519685
11
5.5514960629921255
21
-4.0174015748031495
0
LINE
8
BLACK
6
CONTINUOUS
10
5.5514960629921255
20
-4.0174015748031495
11
5.5885039370078742
21
-4.0174015748031495
0
LINE
8
BLACK
6
CONTINUOUS
10
5.5602755905511811
20
-4.0940551181102363
11
5.5602755905511811
21
-4.225944881889764
0
LINE
8
BLACK
6
CONTINUOUS
10
5.5602755905511811
20
-4.225944881889764
11
5.7197244094488191
21
-4.225944881889764
0
LINE
8
BLACK
6
CONTINUOUS
10
5.7197244094488191
20
-4.225944881889764
11
5.7197244094488191
21
-4.0940551181102363
0
LINE
8
BLACK
6
CONTINUOUS
10
5.7197244094488191
20
-4.0940551181102363
11
5.5602755905511811
21
-4.0940551181102363
0
LINE
8
BLACK
6
CONTINUOUS
10
5.6274803149606294
20
-4.0193700787401569
11
5.6274803149606294
21
-4.0906299212598425
0
LINE
8
BLACK
6
CONTINUOUS
10
5.6274803149606294
20
-4.0906299212598425
11
5.6625196850393698
21
-4.0906299212598425
0
LINE
8
BLACK
6
CONTINUOUS
10
5.6625196850393698
20
-4.0906299212598425
11
5.6625196850393698
21
-4.0193700787401569
0
LINE
8
BLACK
6
CONTINUOUS
10
5.6625196850393698
20
-4.0193700787401569
11
5.6274803149606294
21
-4.0193700787401569
0
LINE
8
BLACK
6
CONTINUOUS
10
5.5524803149606301
20
-4.0193700787401569
11
5.5524803149606301
21
-4.0906299212598425
0
LINE
8
BLACK
6
CONTINUOUS
10
5.5524803149606301
20
-4.0906299212598425
11
5.5875196850393696
21
-4.0906299212598425
0
LINE
8
BLACK
6
CONTINUOUS
10
5.5875196850393696
20
-4.0906299212598425
11
5.5875196850393696
21
-4.0193700787401569
0
LINE
8
BLACK
6
CONTINUOUS
10
5.5875196850393696
20
-4.0193700787401569
11
5.5524803149606301
21
-4.0193700787401569
0
LINE
8
BLACK
6
CONTINUOUS
10
5.0185039370078739
20
-4.1324015748031497
11
5.0191999212598422
21
-4.1326898425196852
0
LINE
8
BLACK
6
CONTINUOUS
10
5.0191999212598422
20
-4.1326898425196852
11
5.0194881889763776
21
-4.1333858267716534
0
LINE
8
BLACK
6
CONTINUOUS
10
5.0194881889763776
20
-4.1333858267716534
11
5.0194881889763776
21
-4.2066141732283464
0
LINE
8
BLACK
6
CONTINUOUS
10
5.0194881889763776
20
-4.2066141732283464
11
5.0191999212598422
21
-4.2073101574803147
0
LINE
8
BLACK
6
CONTINUOUS
10
5.0191999212598422
20
-4.2073101574803147
11
5.0185039370078739
21
-4.2075984251968501
0
LINE
8
BLACK
6
CONTINUOUS
10
5.0185039370078739
20
-4.2075984251968501
11
4.9814960629921261
21
-4.2075984251968501
0
LINE
8
BLACK
6
CONTINUOUS
10
4.9814960629921261
20
-4.2075984251968501
11
4.980800078740157
21
-4.2073101574803147
0
LINE
8
BLACK
6
CONTINUOUS
10
4.980800078740157
20
-4.2073101574803147
11
4.9805118110236215
21
-4.2066141732283464
0
LINE
8
BLACK
6
CONTINUOUS
10
4.9805118110236215
20
-4.2066141732283464
11
4.9805118110236215
21
-4.1333858267716534
0
LINE
8
BLACK
6
CONTINUOUS
10
4.9805118110236215
20
-4.1333858267716534
11
4.980800078740157
21
-4.1326898425196852
0
LINE
8
BLACK
6
CONTINUOUS
10
4.980800078740157
20
-4.1326898425196852
11
4.9814960629921261
21
-4.1324015748031497
0
LINE
8
BLACK
6
CONTINUOUS
10
4.9814960629921261
20
-4.1324015748031497
11
5.0185039370078739
21
-4.1324015748031497
0
LINE
8
BLACK
6
CONTINUOUS
10
4.9824803149606298
20
-4.1343700787401572
11
4.9824803149606298
21
-4.2056299212598427
0
LINE
8
BLACK
6
CONTINUOUS
10
4.9824803149606298
20
-4.2056299212598427
11
5.0175196850393702
21
-4.2056299212598427
0
LINE
8
BLACK
6
CONTINUOUS
10
5.0175196850393702
20
-4.2056299212598427
11
5.0175196850393702
21
-4.1343700787401572
0
LINE
8
BLACK
6
CONTINUOUS
10
5.0175196850393702
20
-4.1343700787401572
11
4.9824803149606298
21
-4.1343700787401572
0
LINE
8
BLACK
6
CONTINUOUS
10
5.8308267716535429
20
-4.1559055118110235
11
5.8315227559055121
21
-4.156193779527559
0
LINE
8
BLACK
6
CONTINUOUS
10
5.8315227559055121
20
-4.156193779527559
11
5.8318110236220475
21
-4.1568897637795272
0
LINE
8
BLACK
6
CONTINUOUS
10
5.8318110236220475
20
-4.1568897637795272
11
5.8318110236220475
21
-4.1931102362204724
0
LINE
8
BLACK
6
CONTINUOUS
10
5.8318110236220475
20
-4.1931102362204724
11
5.8315227559055121
21
-4.1938062204724407
0
LINE
8
BLACK
6
CONTINUOUS
10
5.8315227559055121
20
-4.1938062204724407
11
5.8308267716535429
21
-4.1940944881889761
0
LINE
8
BLACK
6
CONTINUOUS
10
5.8308267716535429
20
-4.1940944881889761
11
5.759173228346457
21
-4.1940944881889761
0
LINE
8
BLACK
6
CONTINUOUS
10
5.759173228346457
20
-4.1940944881889761
11
5.7584772440944878
21
-4.1938062204724407
0
LINE
8
BLACK
6
CONTINUOUS
10
5.7584772440944878
20
-4.1938062204724407
11
5.7581889763779524
21
-4.1931102362204724
0
LINE
8
BLACK
6
CONTINUOUS
10
5.7581889763779524
20
-4.1931102362204724
11
5.7581889763779524
21
-4.1568897637795272
0
LINE
8
BLACK
6
CONTINUOUS
10
5.7581889763779524
20
-4.1568897637795272
11
5.7584772440944878
21
-4.156193779527559
0
LINE
8
BLACK
6
CONTINUOUS
10
5.7584772440944878
20
-4.156193779527559
11
5.759173228346457
21
-4.1559055118110235
0
LINE
8
BLACK
6
CONTINUOUS
10
5.759173228346457
20
-4.1559055118110235
11
5.8308267716535429
21
-4.1559055118110235
0
LINE
8
BLACK
6
CONTINUOUS
10
5.7601574803149607
20
-4.1578740157480318
11
5.7601574803149607
21
-4.1921259842519687
0
LINE
8
BLACK
6
CONTINUOUS
10
5.7601574803149607
20
-4.1921259842519687
11
5.8298425196850392
21
-4.1921259842519687
0
LINE
8
BLACK
6
CONTINUOUS
10
5.8298425196850392
20
-4.1921259842519687
11
5.8298425196850392
21
-4.1578740157480318
0
LINE
8
BLACK
6
CONTINUOUS
10
5.8298425196850392
20
-4.1578740157480318
11
5.7601574803149607
21
-4.1578740157480318
0
LINE
8
BLACK
6
CONTINUOUS
10
5.5381102362204722
20
-4.1131889763779528
11
5.5388062204724404
21
-4.1134772440944882
0
LINE
8
BLACK
6
CONTINUOUS
10
5.5388062204724404
20
-4.1134772440944882
11
5.5390944881889759
21
-4.1141732283464565
0
LINE
8
BLACK
6
CONTINUOUS
10
5.5390944881889759
20
-4.1141732283464565
11
5.5390944881889759
21
-4.1858267716535433
0
LINE
8
BLACK
6
CONTINUOUS
10
5.5390944881889759
20
-4.1858267716535433
11
5.5388062204724404
21
-4.1865227559055116
0
LINE
8
BLACK
6
CONTINUOUS
10
5.5388062204724404
20
-4.1865227559055116
11
5.5381102362204722
21
-4.186811023622047
0
LINE
8
BLACK
6
CONTINUOUS
10
5.5381102362204722
20
-4.186811023622047
11
5.5018897637795279
21
-4.186811023622047
0
LINE
8
BLACK
6
CONTINUOUS
10
5.5018897637795279
20
-4.186811023622047
11
5.5011937795275587
21
-4.1865227559055116
0
LINE
8
BLACK
6
CONTINUOUS
10
5.5011937795275587
20
-4.1865227559055116
11
5.5009055118110233
21
-4.1858267716535433
0
LINE
8
BLACK
6
CONTINUOUS
10
5.5009055118110233
20
-4.1858267716535433
11
5.5009055118110233
21
-4.1141732283464565
0
LINE
8
BLACK
6
CONTINUOUS
10
5.5009055118110233
20
-4.1141732283464565
11
5.5011937795275587
21
-4.1134772440944882
0
LINE
8
BLACK
6
CONTINUOUS
10
5.5011937795275587
20
-4.1134772440944882
11
5.5018897637795279
21
-4.1131889763779528
0
LINE
8
BLACK
6
CONTINUOUS
10
5.5018897637795279
20
-4.1131889763779528
11
5.5381102362204722
21
-4.1131889763779528
0
LINE
8
BLACK
6
CONTINUOUS
10
5.5028740157480316
20
-4.1151574803149602
11
5.5028740157480316
21
-4.1848425196850396
0
LINE
8
BLACK
6
CONTINUOUS
10
5.5028740157480316
20
-4.1848425196850396
11
5.5371259842519684
21
-4.1848425196850396
0
LINE
8
BLACK
6
CONTINUOUS
10
5.5371259842519684
20
-4.1848425196850396
11
5.5371259842519684
21
-4.1151574803149602
0
LINE
8
BLACK
6
CONTINUOUS
10
5.5371259842519684
20
-4.1151574803149602
11
5.5028740157480316
21
-4.1151574803149602
0
LINE
8
BLACK
6
CONTINUOUS
10
5.3811417322834645
20
-4.0281496062992126
11
5.3818377165354327
21
-4.028437874015748
0
LINE
8
BLACK
6
CONTINUOUS
10
5.3818377165354327
20
-4.028437874015748
11
5.3821259842519682
21
-4.0291338582677163
0
LINE
8
BLACK
6
CONTINUOUS
10
5.3821259842519682
20
-4.0291338582677163
11
5.3821259842519682
21
-4.170866141732283
0
LINE
8
BLACK
6
CONTINUOUS
10
5.3821259842519682
20
-4.170866141732283
11
5.3818377165354327
21
-4.1715621259842521
0
LINE
8
BLACK
6
CONTINUOUS
10
5.3818377165354327
20
-4.1715621259842521
11
5.3811417322834645
21
-4.1718503937007876
0
LINE
8
BLACK
6
CONTINUOUS
10
5.3811417322834645
20
-4.1718503937007876
11
5.1488582677165349
21
-4.1718503937007876
0
LINE
8
BLACK
6
CONTINUOUS
10
5.1488582677165349
20
-4.1718503937007876
11
5.1481622834645666
21
-4.1715621259842521
0
LINE
8
BLACK
6
CONTINUOUS
10
5.1481622834645666
20
-4.1715621259842521
11
5.1478740157480312
21
-4.170866141732283
0
LINE
8
BLACK
6
CONTINUOUS
10
5.1478740157480312
20
-4.170866141732283
11
5.1478740157480312
21
-4.0291338582677163
0
LINE
8
BLACK
6
CONTINUOUS
10
5.1478740157480312
20
-4.0291338582677163
11
5.1481622834645666
21
-4.028437874015748
0
LINE
8
BLACK
6
CONTINUOUS
10
5.1481622834645666
20
-4.028437874015748
11
5.1488582677165349
21
-4.0281496062992126
0
LINE
8
BLACK
6
CONTINUOUS
10
5.1488582677165349
20
-4.0281496062992126
11
5.3811417322834645
21
-4.0281496062992126
0
LINE
8
BLACK
6
CONTINUOUS
10
5.1498425196850395
20
-4.03011811023622
11
5.1498425196850395
21
-4.1698818897637793
0
LINE
8
BLACK
6
CONTINUOUS
10
5.1498425196850395
20
-4.1698818897637793
11
5.3801574803149608
21
-4.1698818897637793
0
LINE
8
BLACK
6
CONTINUOUS
10
5.3801574803149608
20
-4.1698818897637793
11
5.3801574803149608
21
-4.03011811023622
0
LINE
8
BLACK
6
CONTINUOUS
10
5.3801574803149608
20
-4.03011811023622
11
5.1498425196850395
21
-4.03011811023622
0
LINE
8
BLACK
6
CONTINUOUS
10
5.0735039370078736
20
-4.0824803149606295
11
5.0741999212598428
21
-4.0827685826771649
0
LINE
8
BLACK
6
CONTINUOUS
10
5.0741999212598428
20
-4.0827685826771649
11
5.0744881889763782
21
-4.0834645669291341
0
LINE
8
BLACK
6
CONTINUOUS
10
5.0744881889763782
20
-4.0834645669291341
11
5.0744881889763782
21
-4.156692913385827
0
LINE
8
BLACK
6
CONTINUOUS
10
5.0744881889763782
20
-4.156692913385827
11
5.0741999212598428
21
-4.1573888976377953
0
LINE
8
BLACK
6
CONTINUOUS
10
5.0741999212598428
20
-4.1573888976377953
11
5.0735039370078736
21
-4.1576771653543307
0
LINE
8
BLACK
6
CONTINUOUS
10
5.0735039370078736
20
-4.1576771653543307
11
5.0364960629921258
21
-4.1576771653543307
0
LINE
8
BLACK
6
CONTINUOUS
10
5.0364960629921258
20
-4.1576771653543307
11
5.0358000787401576
21
-4.1573888976377953
0
LINE
8
BLACK
6
CONTINUOUS
10
5.0358000787401576
20
-4.1573888976377953
11
5.0355118110236221
21
-4.156692913385827
0
LINE
8
BLACK
6
CONTINUOUS
10
5.0355118110236221
20
-4.156692913385827
11
5.0355118110236221
21
-4.0834645669291341
0
LINE
8
BLACK
6
CONTINUOUS
10
5.0355118110236221
20
-4.0834645669291341
11
5.0358000787401576
21
-4.0827685826771649
0
LINE
8
BLACK
6
CONTINUOUS
10
5.0358000787401576
20
-4.0827685826771649
11
5.0364960629921258
21
-4.0824803149606295
0
LINE
8
BLACK
6
CONTINUOUS
10
5.0364960629921258
20
-4.0824803149606295
11
5.0735039370078736
21
-4.0824803149606295
0
LINE
8
BLACK
6
CONTINUOUS
10
5.0374803149606295
20
-4.0844488188976378
11
5.0374803149606295
21
-4.1557086614173224
0
LINE
8
BLACK
6
CONTINUOUS
10
5.0374803149606295
20
-4.1557086614173224
11
5.0725196850393699
21
-4.1557086614173224
0
LINE
8
BLACK
6
CONTINUOUS
10
5.0725196850393699
20
-4.1557086614173224
11
5.0725196850393699
21
-4.0844488188976378
0
LINE
8
BLACK
6
CONTINUOUS
10
5.0725196850393699
20
-4.0844488188976378
11
5.0374803149606295
21
-4.0844488188976378
0
LINE
8
BLACK
6
CONTINUOUS
10
5.4716141732283461
20
-4.1105118110236223
11
5.4723101574803152
21
-4.1108000787401577
0
LINE
8
BLACK
6
CONTINUOUS
10
5.4723101574803152
20
-4.1108000787401577
11
5.4725984251968507
21
-4.111496062992126
0
LINE
8
BLACK
6
CONTINUOUS
10
5.4725984251968507
20
-4.111496062992126
11
5.4725984251968507
21
-4.1485039370078738
0
LINE
8
BLACK
6
CONTINUOUS
10
5.4725984251968507
20
-4.1485039370078738
11
5.4723101574803152
21
-4.149199921259842
0
LINE
8
BLACK
6
CONTINUOUS
10
5.4723101574803152
20
-4.149199921259842
11
5.4716141732283461
21
-4.1494881889763775
0
LINE
8
BLACK
6
CONTINUOUS
10
5.4716141732283461
20
-4.1494881889763775
11
5.3983858267716531
21
-4.1494881889763775
0
LINE
8
BLACK
6
CONTINUOUS
10
5.3983858267716531
20
-4.1494881889763775
11
5.3976898425196849
21
-4.149199921259842
0
LINE
8
BLACK
6
CONTINUOUS
10
5.3976898425196849
20
-4.149199921259842
11
5.3974015748031494
21
-4.1485039370078738
0
LINE
8
BLACK
6
CONTINUOUS
10
5.3974015748031494
20
-4.1485039370078738
11
5.3974015748031494
21
-4.111496062992126
0
LINE
8
BLACK
6
CONTINUOUS
10
5.3974015748031494
20
-4.111496062992126
11
5.3976898425196849
21
-4.1108000787401577
0
LINE
8
BLACK
6
CONTINUOUS
10
5.3976898425196849
20
-4.1108000787401577
11
5.3983858267716531
21
-4.1105118110236223
0
LINE
8
BLACK
6
CONTINUOUS
10
5.3983858267716531
20
-4.1105118110236223
11
5.4716141732283461
21
-4.1105118110236223
0
LINE
8
BLACK
6
CONTINUOUS
10
5.3993700787401577
20
-4.1124803149606297
11
5.3993700787401577
21
-4.1475196850393701
0
LINE
8
BLACK
6
CONTINUOUS
10
5.3993700787401577
20
-4.1475196850393701
11
5.4706299212598424
21
-4.1475196850393701
0
LINE
8
BLACK
6
CONTINUOUS
10
5.4706299212598424
20
-4.1475196850393701
11
5.4706299212598424
21
-4.1124803149606297
0
LINE
8
BLACK
6
CONTINUOUS
10
5.4706299212598424
20
-4.1124803149606297
11
5.3993700787401577
21
-4.1124803149606297
0
LINE
8
BLACK
6
CONTINUOUS
10
4.8735039370078743
20
-4.0724015748031492
11
4.8741999212598426
21
-4.0726898425196847
0
LINE
8
BLACK
6
CONTINUOUS
10
4.8741999212598426
20
-4.0726898425196847
11
4.874488188976378
21
-4.0733858267716538
0
LINE
8
BLACK
6
CONTINUOUS
10
4.874488188976378
20
-4.0733858267716538
11
4.874488188976378
21
-4.1466141732283468
0
LINE
8
BLACK
6
CONTINUOUS
10
4.874488188976378
20
-4.1466141732283468
11
4.8741999212598426
21
-4.1473101574803151
0
LINE
8
BLACK
6
CONTINUOUS
10
4.8741999212598426
20
-4.1473101574803151
11
4.8735039370078743
21
-4.1475984251968505
0
LINE
8
BLACK
6
CONTINUOUS
10
4.8735039370078743
20
-4.1475984251968505
11
4.8364960629921256
21
-4.1475984251968505
0
LINE
8
BLACK
6
CONTINUOUS
10
4.8364960629921256
20
-4.1475984251968505
11
4.8358000787401574
21
-4.1473101574803151
0
LINE
8
BLACK
6
CONTINUOUS
10
4.8358000787401574
20
-4.1473101574803151
11
4.8355118110236219
21
-4.1466141732283468
0
LINE
8
BLACK
6
CONTINUOUS
10
4.8355118110236219
20
-4.1466141732283468
11
4.8355118110236219
21
-4.0733858267716538
0
LINE
8
BLACK
6
CONTINUOUS
10
4.8355118110236219
20
-4.0733858267716538
11
4.8358000787401574
21
-4.0726898425196847
0
LINE
8
BLACK
6
CONTINUOUS
10
4.8358000787401574
20
-4.0726898425196847
11
4.8364960629921256
21
-4.0724015748031492
0
LINE
8
BLACK
6
CONTINUOUS
10
4.8364960629921256
20
-4.0724015748031492
11
4.8735039370078743
21
-4.0724015748031492
0
LINE
8
BLACK
6
CONTINUOUS
10
4.8374803149606302
20
-4.0743700787401576
11
4.8374803149606302
21
-4.1456299212598422
0
LINE
8
BLACK
6
CONTINUOUS
10
4.8374803149606302
20
-4.1456299212598422
11
4.8725196850393697
21
-4.1456299212598422
0
LINE
8
BLACK
6
CONTINUOUS
10
4.8725196850393697
20
-4.1456299212598422
11
4.8725196850393697
21
-4.0743700787401576
0
LINE
8
BLACK
6
CONTINUOUS
10
4.8725196850393697
20
-4.0743700787401576
11
4.8374803149606302
21
-4.0743700787401576
0
LINE
8
BLACK
6
CONTINUOUS
10
5.985984251968504
20
-3.7579133858267717
11
5.9866802362204723
21
-3.7582016535433072
0
LINE
8
BLACK
6
CONTINUOUS
10
5.9866802362204723
20
-3.7582016535433072
11
5.9869685039370077
21
-3.7588976377952754
0
LINE
8
BLACK
6
CONTINUOUS
10
5.9869685039370077
20
-3.7588976377952754
11
5.9869685039370077
21
-4.1305511811023621
0
LINE
8
BLACK
6
CONTINUOUS
10
5.9869685039370077
20
-4.1305511811023621
11
5.9866802362204723
21
-4.1312471653543303
0
LINE
8
BLACK
6
CONTINUOUS
10
5.9866802362204723
20
-4.1312471653543303
11
5.985984251968504
21
-4.1315354330708658
0
LINE
8
BLACK
6
CONTINUOUS
10
5.985984251968504
20
-4.1315354330708658
11
5.7340157480314957
21
-4.1315354330708658
0
LINE
8
BLACK
6
CONTINUOUS
10
5.7340157480314957
20
-4.1315354330708658
11
5.7333197637795275
21
-4.1312471653543303
0
LINE
8
BLACK
6
CONTINUOUS
10
5.7333197637795275
20
-4.1312471653543303
11
5.733031496062992
21
-4.1305511811023621
0
LINE
8
BLACK
6
CONTINUOUS
10
5.733031496062992
20
-4.1305511811023621
11
5.733031496062992
21
-3.7588976377952754
0
LINE
8
BLACK
6
CONTINUOUS
10
5.733031496062992
20
-3.7588976377952754
11
5.7333197637795275
21
-3.7582016535433072
0
LINE
8
BLACK
6
CONTINUOUS
10
5.7333197637795275
20
-3.7582016535433072
11
5.7340157480314957
21
-3.7579133858267717
0
LINE
8
BLACK
6
CONTINUOUS
10
5.7340157480314957
20
-3.7579133858267717
11
5.985984251968504
21
-3.7579133858267717
0
LINE
8
BLACK
6
CONTINUOUS
10
5.7349999999999994
20
-3.7598818897637796
11
5.7349999999999994
21
-4.1295669291338584
0
LINE
8
BLACK
6
CONTINUOUS
10
5.7349999999999994
20
-4.1295669291338584
11
5.9849999999999994
21
-4.1295669291338584
0
LINE
8
BLACK
6
CONTINUOUS
10
5.9849999999999994
20
-4.1295669291338584
11
5.9849999999999994
21
-3.7598818897637796
0
LINE
8
BLACK
6
CONTINUOUS
10
5.9849999999999994
20
-3.7598818897637796
11
5.7349999999999994
21
-3.7598818897637796
0
LINE
8
BLACK
6
CONTINUOUS
10
5.0208267716535433
20
-4.0859055118110232
11
5.0215227559055116
21
-4.0861937795275587
0
LINE
8
BLACK
6
CONTINUOUS
10
5.0215227559055116
20
-4.0861937795275587
11
5.021811023622047
21
-4.0868897637795278
0
LINE
8
BLACK
6
CONTINUOUS
10
5.021811023622047
20
-4.0868897637795278
11
5.021811023622047
21
-4.1231102362204721
0
LINE
8
BLACK
6
CONTINUOUS
10
5.021811023622047
20
-4.1231102362204721
11
5.0215227559055116
21
-4.1238062204724413
0
LINE
8
BLACK
6
CONTINUOUS
10
5.0215227559055116
20
-4.1238062204724413
11
5.0208267716535433
21
-4.1240944881889767
0
LINE
8
BLACK
6
CONTINUOUS
10
5.0208267716535433
20
-4.1240944881889767
11
4.9491732283464565
21
-4.1240944881889767
0
LINE
8
BLACK
6
CONTINUOUS
10
4.9491732283464565
20
-4.1240944881889767
11
4.9484772440944882
21
-4.1238062204724413
0
LINE
8
BLACK
6
CONTINUOUS
10
4.9484772440944882
20
-4.1238062204724413
11
4.9481889763779527
21
-4.1231102362204721
0
LINE
8
BLACK
6
CONTINUOUS
10
4.9481889763779527
20
-4.1231102362204721
11
4.9481889763779527
21
-4.0868897637795278
0
LINE
8
BLACK
6
CONTINUOUS
10
4.9481889763779527
20
-4.0868897637795278
11
4.9484772440944882
21
-4.0861937795275587
0
LINE
8
BLACK
6
CONTINUOUS
10
4.9484772440944882
20
-4.0861937795275587
11
4.9491732283464565
21
-4.0859055118110232
0
LINE
8
BLACK
6
CONTINUOUS
10
4.9491732283464565
20
-4.0859055118110232
11
5.0208267716535433
21
-4.0859055118110232
0
LINE
8
BLACK
6
CONTINUOUS
10
4.9501574803149602
20
-4.0878740157480316
11
4.9501574803149602
21
-4.1221259842519684
0
LINE
8
BLACK
6
CONTINUOUS
10
4.9501574803149602
20
-4.1221259842519684
11
5.0198425196850396
21
-4.1221259842519684
0
LINE
8
BLACK
6
CONTINUOUS
10
5.0198425196850396
20
-4.1221259842519684
11
5.0198425196850396
21
-4.0878740157480316
0
LINE
8
BLACK
6
CONTINUOUS
10
5.0198425196850396
20
-4.0878740157480316
11
4.9501574803149602
21
-4.0878740157480316
0
LINE
8
BLACK
6
CONTINUOUS
10
5.4716141732283461
20
-4.0655118110236224
11
5.4723101574803152
21
-4.0658000787401578
0
LINE
8
BLACK
6
CONTINUOUS
10
5.4723101574803152
20
-4.0658000787401578
11
5.4725984251968507
21
-4.0664960629921261
0
LINE
8
BLACK
6
CONTINUOUS
10
5.4725984251968507
20
-4.0664960629921261
11
5.4725984251968507
21
-4.1035039370078739
0
LINE
8
BLACK
6
CONTINUOUS
10
5.4725984251968507
20
-4.1035039370078739
11
5.4723101574803152
21
-4.1041999212598421
0
LINE
8
BLACK
6
CONTINUOUS
10
5.4723101574803152
20
-4.1041999212598421
11
5.4716141732283461
21
-4.1044881889763776
0
LINE
8
BLACK
6
CONTINUOUS
10
5.4716141732283461
20
-4.1044881889763776
11
5.3983858267716531
21
-4.1044881889763776
0
LINE
8
BLACK
6
CONTINUOUS
10
5.3983858267716531
20
-4.1044881889763776
11
5.3976898425196849
21
-4.1041999212598421
0
LINE
8
BLACK
6
CONTINUOUS
10
5.3976898425196849
20
-4.1041999212598421
11
5.3974015748031494
21
-4.1035039370078739
0
LINE
8
BLACK
6
CONTINUOUS
10
5.3974015748031494
20
-4.1035039370078739
11
5.3974015748031494
21
-4.0664960629921261
0
LINE
8
BLACK
6
CONTINUOUS
10
5.3974015748031494
20
-4.0664960629921261
11
5.3976898425196849
21
-4.0658000787401578
0
LINE
8
BLACK
6
CONTINUOUS
10
5.3976898425196849
20
-4.0658000787401578
11
5.3983858267716531
21
-4.0655118110236224
0
LINE
8
BLACK
6
CONTINUOUS
10
5.3983858267716531
20
-4.0655118110236224
11
5.4716141732283461
21
-4.0655118110236224
0
LINE
8
BLACK
6
CONTINUOUS
10
5.3993700787401577
20
-4.0674803149606298
11
5.3993700787401577
21
-4.1025196850393701
0
LINE
8
BLACK
6
CONTINUOUS
10
5.3993700787401577
20
-4.1025196850393701
11
5.4706299212598424
21
-4.1025196850393701
0
LINE
8
BLACK
6
CONTINUOUS
10
5.4706299212598424
20
-4.1025196850393701
11
5.4706299212598424
21
-4.0674803149606298
0
LINE
8
BLACK
6
CONTINUOUS
10
5.4706299212598424
20
-4.0674803149606298
11
5.3993700787401577
21
-4.0674803149606298
0
LINE
8
BLACK
6
CONTINUOUS
10
5.5381102362204722
20
-4.0231889763779529
11
5.5388062204724404
21
-4.0234772440944884
0
LINE
8
BLACK
6
CONTINUOUS
10
5.5388062204724404
20
-4.0234772440944884
11
5.5390944881889759
21
-4.0241732283464566
0
LINE
8
BLACK
6
CONTINUOUS
10
5.5390944881889759
20
-4.0241732283464566
11
5.5390944881889759
21
-4.0958267716535435
0
LINE
8
BLACK
6
CONTINUOUS
10
5.5390944881889759
20
-4.0958267716535435
11
5.5388062204724404
21
-4.0965227559055117
0
LINE
8
BLACK
6
CONTINUOUS
10
5.5388062204724404
20
-4.0965227559055117
11
5.5381102362204722
21
-4.0968110236220472
0
LINE
8
BLACK
6
CONTINUOUS
10
5.5381102362204722
20
-4.0968110236220472
11
5.5018897637795279
21
-4.0968110236220472
0
LINE
8
BLACK
6
CONTINUOUS
10
5.5018897637795279
20
-4.0968110236220472
11
5.5011937795275587
21
-4.0965227559055117
0
LINE
8
BLACK
6
CONTINUOUS
10
5.5011937795275587
20
-4.0965227559055117
11
5.5009055118110233
21
-4.0958267716535435
0
LINE
8
BLACK
6
CONTINUOUS
10
5.5009055118110233
20
-4.0958267716535435
11
5.5009055118110233
21
-4.0241732283464566
0
LINE
8
BLACK
6
CONTINUOUS
10
5.5009055118110233
20
-4.0241732283464566
11
5.5011937795275587
21
-4.0234772440944884
0
LINE
8
BLACK
6
CONTINUOUS
10
5.5011937795275587
20
-4.0234772440944884
11
5.5018897637795279
21
-4.0231889763779529
0
LINE
8
BLACK
6
CONTINUOUS
10
5.5018897637795279
20
-4.0231889763779529
11
5.5381102362204722
21
-4.0231889763779529
0
LINE
8
BLACK
6
CONTINUOUS
10
5.5028740157480316
20
-4.0251574803149603
11
5.5028740157480316
21
-4.0948425196850389
0
LINE
8
BLACK
6
CONTINUOUS
10
5.5028740157480316
20
-4.0948425196850389
11
5.5371259842519684
21
-4.0948425196850389
0
LINE
8
BLACK
6
CONTINUOUS
10
5.5371259842519684
20
-4.0948425196850389
11
5.5371259842519684
21
-4.0251574803149603
0
LINE
8
BLACK
6
CONTINUOUS
10
5.5371259842519684
20
-4.0251574803149603
11
5.5028740157480316
21
-4.0251574803149603
0
LINE
8
BLACK
6
CONTINUOUS
10
5.713110236220472
20
-4.018188976377953
11
5.7138062204724411
21
-4.0184772440944885
0
LINE
8
BLACK
6
CONTINUOUS
10
5.7138062204724411
20
-4.0184772440944885
11
5.7140944881889766
21
-4.0191732283464567
0
LINE
8
BLACK
6
CONTINUOUS
10
5.7140944881889766
20
-4.0191732283464567
11
5.7140944881889766
21
-4.0908267716535436
0
LINE
8
BLACK
6
CONTINUOUS
10
5.7140944881889766
20
-4.0908267716535436
11
5.7138062204724411
21
-4.0915227559055118
0
LINE
8
BLACK
6
CONTINUOUS
10
5.7138062204724411
20
-4.0915227559055118
11
5.713110236220472
21
-4.0918110236220473
0
LINE
8
BLACK
6
CONTINUOUS
10
5.713110236220472
20
-4.0918110236220473
11
5.6768897637795277
21
-4.0918110236220473
0
LINE
8
BLACK
6
CONTINUOUS
10
5.6768897637795277
20
-4.0918110236220473
11
5.6761937795275585
21
-4.0915227559055118
0
LINE
8
BLACK
6
CONTINUOUS
10
5.6761937795275585
20
-4.0915227559055118
11
5.6759055118110231
21
-4.0908267716535436
0
LINE
8
BLACK
6
CONTINUOUS
10
5.6759055118110231
20
-4.0908267716535436
11
5.6759055118110231
21
-4.0191732283464567
0
LINE
8
BLACK
6
CONTINUOUS
10
5.6759055118110231
20
-4.0191732283464567
11
5.6761937795275585
21
-4.0184772440944885
0
LINE
8
BLACK
6
CONTINUOUS
10
5.6761937795275585
20
-4.0184772440944885
11
5.6768897637795277
21
-4.018188976377953
0
LINE
8
BLACK
6
CONTINUOUS
10
5.6768897637795277
20
-4.018188976377953
11
5.713110236220472
21
-4.018188976377953
0
LINE
8
BLACK
6
CONTINUOUS
10
5.6778740157480314
20
-4.0201574803149605
11
5.6778740157480314
21
-4.089842519685039
0
LINE
8
BLACK
6
CONTINUOUS
10
5.6778740157480314
20
-4.089842519685039
11
5.7121259842519683
21
-4.089842519685039
0
LINE
8
BLACK
6
CONTINUOUS
10
5.7121259842519683
20
-4.089842519685039
11
5.7121259842519683
21
-4.0201574803149605
0
LINE
8
BLACK
6
CONTINUOUS
10
5.7121259842519683
20
-4.0201574803149605
11
5.6778740157480314
21
-4.0201574803149605
0
LINE
8
BLACK
6
CONTINUOUS
10
5.4281102362204727
20
-3.9831889763779529
11
5.428806220472441
21
-3.9834772440944879
0
LINE
8
BLACK
6
CONTINUOUS
10
5.428806220472441
20
-3.9834772440944879
11
5.4290944881889764
21
-3.9841732283464566
0
LINE
8
BLACK
6
CONTINUOUS
10
5.4290944881889764
20
-3.9841732283464566
11
5.4290944881889764
21
-4.0558267716535434
0
LINE
8
BLACK
6
CONTINUOUS
10
5.4290944881889764
20
-4.0558267716535434
11
5.428806220472441
21
-4.0565227559055117
0
LINE
8
BLACK
6
CONTINUOUS
10
5.428806220472441
20
-4.0565227559055117
11
5.4281102362204727
21
-4.0568110236220472
0
LINE
8
BLACK
6
CONTINUOUS
10
5.4281102362204727
20
-4.0568110236220472
11
5.3918897637795276
21
-4.0568110236220472
0
LINE
8
BLACK
6
CONTINUOUS
10
5.3918897637795276
20
-4.0568110236220472
11
5.3911937795275593
21
-4.0565227559055117
0
LINE
8
BLACK
6
CONTINUOUS
10
5.3911937795275593
20
-4.0565227559055117
11
5.3909055118110238
21
-4.0558267716535434
0
LINE
8
BLACK
6
CONTINUOUS
10
5.3909055118110238
20
-4.0558267716535434
11
5.3909055118110238
21
-3.9841732283464566
0
LINE
8
BLACK
6
CONTINUOUS
10
5.3909055118110238
20
-3.9841732283464566
11
5.3911937795275593
21
-3.9834772440944879
0
LINE
8
BLACK
6
CONTINUOUS
10
5.3911937795275593
20
-3.9834772440944879
11
5.3918897637795276
21
-3.9831889763779529
0
LINE
8
BLACK
6
CONTINUOUS
10
5.3918897637795276
20
-3.9831889763779529
11
5.4281102362204727
21
-3.9831889763779529
0
LINE
8
BLACK
6
CONTINUOUS
10
5.3928740157480313
20
-3.9851574803149608
11
5.3928740157480313
21
-4.0548425196850388
0
LINE
8
BLACK
6
CONTINUOUS
10
5.3928740157480313
20
-4.0548425196850388
11
5.4271259842519681
21
-4.0548425196850388
0
LINE
8
BLACK
6
CONTINUOUS
10
5.4271259842519681
20
-4.0548425196850388
11
5.4271259842519681
21
-3.9851574803149608
0
LINE
8
BLACK
6
CONTINUOUS
10
5.4271259842519681
20
-3.9851574803149608
11
5.3928740157480313
21
-3.9851574803149608
0
LINE
8
BLACK
6
CONTINUOUS
10
5.473503937007874
20
-3.9624015748031494
11
5.4741999212598422
21
-3.9626898425196848
0
LINE
8
BLACK
6
CONTINUOUS
10
5.4741999212598422
20
-3.9626898425196848
11
5.4744881889763777
21
-3.9633858267716535
0
LINE
8
BLACK
6
CONTINUOUS
10
5.4744881889763777
20
-3.9633858267716535
11
5.4744881889763777
21
-4.0366141732283465
0
LINE
8
BLACK
6
CONTINUOUS
10
5.4744881889763777
20
-4.0366141732283465
11
5.4741999212598422
21
-4.0373101574803147
0
LINE
8
BLACK
6
CONTINUOUS
10
5.4741999212598422
20
-4.0373101574803147
11
5.473503937007874
21
-4.0375984251968502
0
LINE
8
BLACK
6
CONTINUOUS
10
5.473503937007874
20
-4.0375984251968502
11
5.4364960629921262
21
-4.0375984251968502
0
LINE
8
BLACK
6
CONTINUOUS
10
5.4364960629921262
20
-4.0375984251968502
11
5.435800078740157
21
-4.0373101574803147
0
LINE
8
BLACK
6
CONTINUOUS
10
5.435800078740157
20
-4.0373101574803147
11
5.4355118110236216
21
-4.0366141732283465
0
LINE
8
BLACK
6
CONTINUOUS
10
5.4355118110236216
20
-4.0366141732283465
11
5.4355118110236216
21
-3.9633858267716535
0
LINE
8
BLACK
6
CONTINUOUS
10
5.4355118110236216
20
-3.9633858267716535
11
5.435800078740157
21
-3.9626898425196848
0
LINE
8
BLACK
6
CONTINUOUS
10
5.435800078740157
20
-3.9626898425196848
11
5.4364960629921262
21
-3.9624015748031494
0
LINE
8
BLACK
6
CONTINUOUS
10
5.4364960629921262
20
-3.9624015748031494
11
5.473503937007874
21
-3.9624015748031494
0
LINE
8
BLACK
6
CONTINUOUS
10
5.4374803149606299
20
-3.9643700787401572
11
5.4374803149606299
21
-4.0356299212598428
0
LINE
8
BLACK
6
CONTINUOUS
10
5.4374803149606299
20
-4.0356299212598428
11
5.4725196850393703
21
-4.0356299212598428
0
LINE
8
BLACK
6
CONTINUOUS
10
5.4725196850393703
20
-4.0356299212598428
11
5.4725196850393703
21
-3.9643700787401572
0
LINE
8
BLACK
6
CONTINUOUS
10
5.4725196850393703
20
-3.9643700787401572
11
5.4374803149606299
21
-3.9643700787401572
0
LINE
8
BLACK
6
CONTINUOUS
10
5.2608267716535435
20
-3.9809055118110237
11
5.2615227559055118
21
-3.9811937795275592
0
LINE
8
BLACK
6
CONTINUOUS
10
5.2615227559055118
20
-3.9811937795275592
11
5.2618110236220472
21
-3.9818897637795274
0
LINE
8
BLACK
6
CONTINUOUS
10
5.2618110236220472
20
-3.9818897637795274
11
5.2618110236220472
21
-4.0181102362204726
0
LINE
8
BLACK
6
CONTINUOUS
10
5.2618110236220472
20
-4.0181102362204726
11
5.2615227559055118
21
-4.0188062204724408
0
LINE
8
BLACK
6
CONTINUOUS
10
5.2615227559055118
20
-4.0188062204724408
11
5.2608267716535435
21
-4.0190944881889763
0
LINE
8
BLACK
6
CONTINUOUS
10
5.2608267716535435
20
-4.0190944881889763
11
5.1891732283464567
21
-4.0190944881889763
0
LINE
8
BLACK
6
CONTINUOUS
10
5.1891732283464567
20
-4.0190944881889763
11
5.1884772440944884
21
-4.0188062204724408
0
LINE
8
BLACK
6
CONTINUOUS
10
5.1884772440944884
20
-4.0188062204724408
11
5.188188976377953
21
-4.0181102362204726
0
LINE
8
BLACK
6
CONTINUOUS
10
5.188188976377953
20
-4.0181102362204726
11
5.188188976377953
21
-3.9818897637795274
0
LINE
8
BLACK
6
CONTINUOUS
10
5.188188976377953
20
-3.9818897637795274
11
5.1884772440944884
21
-3.9811937795275592
0
LINE
8
BLACK
6
CONTINUOUS
10
5.1884772440944884
20
-3.9811937795275592
11
5.1891732283464567
21
-3.9809055118110237
0
LINE
8
BLACK
6
CONTINUOUS
10
5.1891732283464567
20
-3.9809055118110237
11
5.2608267716535435
21
-3.9809055118110237
0
LINE
8
BLACK
6
CONTINUOUS
10
5.1901574803149604
20
-3.9828740157480316
11
5.1901574803149604
21
-4.017125984251968
0
LINE
8
BLACK
6
CONTINUOUS
10
5.1901574803149604
20
-4.017125984251968
11
5.2598425196850389
21
-4.017125984251968
0
LINE
8
BLACK
6
CONTINUOUS
10
5.2598425196850389
20
-4.017125984251968
11
5.2598425196850389
21
-3.9828740157480316
0
LINE
8
BLACK
6
CONTINUOUS
10
5.2598425196850389
20
-3.9828740157480316
11
5.1901574803149604
21
-3.9828740157480316
0
LINE
8
BLACK
6
CONTINUOUS
10
5.7211417322834643
20
-3.8731496062992123
11
5.7218377165354326
21
-3.8734378740157478
0
LINE
8
BLACK
6
CONTINUOUS
10
5.7218377165354326
20
-3.8734378740157478
11
5.7221259842519681
21
-3.8741338582677165
0
LINE
8
BLACK
6
CONTINUOUS
10
5.7221259842519681
20
-3.8741338582677165
11
5.7221259842519681
21
-4.0158661417322836
0
LINE
8
BLACK
6
CONTINUOUS
10
5.7221259842519681
20
-4.0158661417322836
11
5.7218377165354326
21
-4.0165621259842519
0
LINE
8
BLACK
6
CONTINUOUS
10
5.7218377165354326
20
-4.0165621259842519
11
5.7211417322834643
21
-4.0168503937007873
0
LINE
8
BLACK
6
CONTINUOUS
10
5.7211417322834643
20
-4.0168503937007873
11
5.4888582677165356
21
-4.0168503937007873
0
LINE
8
BLACK
6
CONTINUOUS
10
5.4888582677165356
20
-4.0168503937007873
11
5.4881622834645665
21
-4.0165621259842519
0
LINE
8
BLACK
6
CONTINUOUS
10
5.4881622834645665
20
-4.0165621259842519
11
5.487874015748031
21
-4.0158661417322836
0
LINE
8
BLACK
6
CONTINUOUS
10
5.487874015748031
20
-4.0158661417322836
11
5.487874015748031
21
-3.8741338582677165
0
LINE
8
BLACK
6
CONTINUOUS
10
5.487874015748031
20
-3.8741338582677165
11
5.4881622834645665
21
-3.8734378740157478
0
LINE
8
BLACK
6
CONTINUOUS
10
5.4881622834645665
20
-3.8734378740157478
11
5.4888582677165356
21
-3.8731496062992123
0
LINE
8
BLACK
6
CONTINUOUS
10
5.4888582677165356
20
-3.8731496062992123
11
5.7211417322834643
21
-3.8731496062992123
0
LINE
8
BLACK
6
CONTINUOUS
10
5.4898425196850393
20
-3.8751181102362202
11
5.4898425196850393
21
-4.014881889763779
0
LINE
8
BLACK
6
CONTINUOUS
10
5.4898425196850393
20
-4.014881889763779
11
5.7201574803149606
21
-4.014881889763779
0
LINE
8
BLACK
6
CONTINUOUS
10
5.7201574803149606
20
-4.014881889763779
11
5.7201574803149606
21
-3.8751181102362202
0
LINE
8
BLACK
6
CONTINUOUS
10
5.7201574803149606
20
-3.8751181102362202
11
5.4898425196850393
21
-3.8751181102362202
0
LINE
8
BLACK
6
CONTINUOUS
10
5.473503937007874
20
-3.8774015748031494
11
5.4741999212598422
21
-3.8776898425196848
0
LINE
8
BLACK
6
CONTINUOUS
10
5.4741999212598422
20
-3.8776898425196848
11
5.4744881889763777
21
-3.8783858267716536
0
LINE
8
BLACK
6
CONTINUOUS
10
5.4744881889763777
20
-3.8783858267716536
11
5.4744881889763777
21
-3.9516141732283465
0
LINE
8
BLACK
6
CONTINUOUS
10
5.4744881889763777
20
-3.9516141732283465
11
5.4741999212598422
21
-3.9523101574803148
0
LINE
8
BLACK
6
CONTINUOUS
10
5.4741999212598422
20
-3.9523101574803148
11
5.473503937007874
21
-3.9525984251968502
0
LINE
8
BLACK
6
CONTINUOUS
10
5.473503937007874
20
-3.9525984251968502
11
5.4364960629921262
21
-3.9525984251968502
0
LINE
8
BLACK
6
CONTINUOUS
10
5.4364960629921262
20
-3.9525984251968502
11
5.435800078740157
21
-3.9523101574803148
0
LINE
8
BLACK
6
CONTINUOUS
10
5.435800078740157
20
-3.9523101574803148
11
5.4355118110236216
21
-3.9516141732283465
0
LINE
8
BLACK
6
CONTINUOUS
10
5.4355118110236216
20
-3.9516141732283465
11
5.4355118110236216
21
-3.8783858267716536
0
LINE
8
BLACK
6
CONTINUOUS
10
5.4355118110236216
20
-3.8783858267716536
11
5.435800078740157
21
-3.8776898425196848
0
LINE
8
BLACK
6
CONTINUOUS
10
5.435800078740157
20
-3.8776898425196848
11
5.4364960629921262
21
-3.8774015748031494
0
LINE
8
BLACK
6
CONTINUOUS
10
5.4364960629921262
20
-3.8774015748031494
11
5.473503937007874
21
-3.8774015748031494
0
LINE
8
BLACK
6
CONTINUOUS
10
5.4374803149606299
20
-3.8793700787401573
11
5.4374803149606299
21
-3.9506299212598424
0
LINE
8
BLACK
6
CONTINUOUS
10
5.4374803149606299
20
-3.9506299212598424
11
5.4725196850393703
21
-3.9506299212598424
0
LINE
8
BLACK
6
CONTINUOUS
10
5.4725196850393703
20
-3.9506299212598424
11
5.4725196850393703
21
-3.8793700787401573
0
LINE
8
BLACK
6
CONTINUOUS
10
5.4725196850393703
20
-3.8793700787401573
11
5.4374803149606299
21
-3.8793700787401573
0
LINE
8
BLACK
6
CONTINUOUS
10
5.3907086614173227
20
-3.7833070866141729
11
5.391404645669291
21
-3.7835953543307084
0
LINE
8
BLACK
6
CONTINUOUS
10
5.391404645669291
20
-3.7835953543307084
11
5.3916929133858265
21
-3.7842913385826771
0
LINE
8
BLACK
6
CONTINUOUS
10
5.3916929133858265
20
-3.7842913385826771
11
5.3916929133858265
21
-3.9457086614173229
0
LINE
8
BLACK
6
CONTINUOUS
10
5.3916929133858265
20
-3.9457086614173229
11
5.391404645669291
21
-3.9464046456692912
0
LINE
8
BLACK
6
CONTINUOUS
10
5.391404645669291
20
-3.9464046456692912
11
5.3907086614173227
21
-3.9466929133858266
0
LINE
8
BLACK
6
CONTINUOUS
10
5.3907086614173227
20
-3.9466929133858266
11
5.2292913385826774
21
-3.9466929133858266
0
LINE
8
BLACK
6
CONTINUOUS
10
5.2292913385826774
20
-3.9466929133858266
11
5.2285953543307082
21
-3.9464046456692912
0
LINE
8
BLACK
6
CONTINUOUS
10
5.2285953543307082
20
-3.9464046456692912
11
5.2283070866141728
21
-3.9457086614173229
0
LINE
8
BLACK
6
CONTINUOUS
10
5.2283070866141728
20
-3.9457086614173229
11
5.2283070866141728
21
-3.7842913385826771
0
LINE
8
BLACK
6
CONTINUOUS
10
5.2283070866141728
20
-3.7842913385826771
11
5.2285953543307082
21
-3.7835953543307084
0
LINE
8
BLACK
6
CONTINUOUS
10
5.2285953543307082
20
-3.7835953543307084
11
5.2292913385826774
21
-3.7833070866141729
0
LINE
8
BLACK
6
CONTINUOUS
10
5.2292913385826774
20
-3.7833070866141729
11
5.3907086614173227
21
-3.7833070866141729
0
LINE
8
BLACK
6
CONTINUOUS
10
5.2302755905511811
20
-3.7852755905511812
11
5.2302755905511811
21
-3.9447244094488187
0
LINE
8
BLACK
6
CONTINUOUS
10
5.2302755905511811
20
-3.9447244094488187
11
5.389724409448819
21
-3.9447244094488187
0
LINE
8
BLACK
6
CONTINUOUS
10
5.389724409448819
20
-3.9447244094488187
11
5.389724409448819
21
-3.7852755905511812
0
LINE
8
BLACK
6
CONTINUOUS
10
5.389724409448819
20
-3.7852755905511812
11
5.2302755905511811
21
-3.7852755905511812
0
LINE
8
BLACK
6
CONTINUOUS
10
5.4431102362204724
20
-3.7942913385826769
11
5.4438062204724407
21
-3.7945796062992123
0
LINE
8
BLACK
6
CONTINUOUS
10
5.4438062204724407
20
-3.7945796062992123
11
5.4440944881889761
21
-3.795275590551181
0
LINE
8
BLACK
6
CONTINUOUS
10
5.4440944881889761
20
-3.795275590551181
11
5.4440944881889761
21
-3.8669291338582674
0
LINE
8
BLACK
6
CONTINUOUS
10
5.4440944881889761
20
-3.8669291338582674
11
5.4438062204724407
21
-3.8676251181102361
0
LINE
8
BLACK
6
CONTINUOUS
10
5.4438062204724407
20
-3.8676251181102361
11
5.4431102362204724
21
-3.8679133858267716
0
LINE
8
BLACK
6
CONTINUOUS
10
5.4431102362204724
20
-3.8679133858267716
11
5.4068897637795272
21
-3.8679133858267716
0
LINE
8
BLACK
6
CONTINUOUS
10
5.4068897637795272
20
-3.8679133858267716
11
5.406193779527559
21
-3.8676251181102361
0
LINE
8
BLACK
6
CONTINUOUS
10
5.406193779527559
20
-3.8676251181102361
11
5.4059055118110235
21
-3.8669291338582674
0
LINE
8
BLACK
6
CONTINUOUS
10
5.4059055118110235
20
-3.8669291338582674
11
5.4059055118110235
21
-3.795275590551181
0
LINE
8
BLACK
6
CONTINUOUS
10
5.4059055118110235
20
-3.795275590551181
11
5.406193779527559
21
-3.7945796062992123
0
LINE
8
BLACK
6
CONTINUOUS
10
5.406193779527559
20
-3.7945796062992123
11
5.4068897637795272
21
-3.7942913385826769
0
LINE
8
BLACK
6
CONTINUOUS
10
5.4068897637795272
20
-3.7942913385826769
11
5.4431102362204724
21
-3.7942913385826769
0
LINE
8
BLACK
6
CONTINUOUS
10
5.4078740157480309
20
-3.7962598425196847
11
5.4078740157480309
21
-3.8659448818897637
0
LINE
8
BLACK
6
CONTINUOUS
10
5.4078740157480309
20
-3.8659448818897637
11
5.4421259842519687
21
-3.8659448818897637
0
LINE
8
BLACK
6
CONTINUOUS
10
5.4421259842519687
20
-3.8659448818897637
11
5.4421259842519687
21
-3.7962598425196847
0
LINE
8
BLACK
6
CONTINUOUS
10
5.4421259842519687
20
-3.7962598425196847
11
5.4078740157480309
21
-3.7962598425196847
0
LINE
8
BLACK
6
CONTINUOUS
10
5.5366141732283465
20
-3.8255118110236221
11
5.5373101574803147
21
-3.8258000787401576
0
LINE
8
BLACK
6
CONTINUOUS
10
5.5373101574803147
20
-3.8258000787401576
11
5.5375984251968502
21
-3.8264960629921259
0
LINE
8
BLACK
6
CONTINUOUS
10
5.5375984251968502
20
-3.8264960629921259
11
5.5375984251968502
21
-3.8635039370078741
0
LINE
8
BLACK
6
CONTINUOUS
10
5.5375984251968502
20
-3.8635039370078741
11
5.5373101574803147
21
-3.8641999212598424
0
LINE
8
BLACK
6
CONTINUOUS
10
5.5373101574803147
20
-3.8641999212598424
11
5.5366141732283465
21
-3.8644881889763778
0
LINE
8
BLACK
6
CONTINUOUS
10
5.5366141732283465
20
-3.8644881889763778
11
5.4633858267716535
21
-3.8644881889763778
0
LINE
8
BLACK
6
CONTINUOUS
10
5.4633858267716535
20
-3.8644881889763778
11
5.4626898425196853
21
-3.8641999212598424
0
LINE
8
BLACK
6
CONTINUOUS
10
5.4626898425196853
20
-3.8641999212598424
11
5.4624015748031498
21
-3.8635039370078741
0
LINE
8
BLACK
6
CONTINUOUS
10
5.4624015748031498
20
-3.8635039370078741
11
5.4624015748031498
21
-3.8264960629921259
0
LINE
8
BLACK
6
CONTINUOUS
10
5.4624015748031498
20
-3.8264960629921259
11
5.4626898425196853
21
-3.8258000787401576
0
LINE
8
BLACK
6
CONTINUOUS
10
5.4626898425196853
20
-3.8258000787401576
11
5.4633858267716535
21
-3.8255118110236221
0
LINE
8
BLACK
6
CONTINUOUS
10
5.4633858267716535
20
-3.8255118110236221
11
5.5366141732283465
21
-3.8255118110236221
0
LINE
8
BLACK
6
CONTINUOUS
10
5.4643700787401572
20
-3.82748031496063
11
5.4643700787401572
21
-3.8625196850393699
0
LINE
8
BLACK
6
CONTINUOUS
10
5.4643700787401572
20
-3.8625196850393699
11
5.5356299212598428
21
-3.8625196850393699
0
LINE
8
BLACK
6
CONTINUOUS
10
5.5356299212598428
20
-3.8625196850393699
11
5.5356299212598428
21
-3.82748031496063
0
LINE
8
BLACK
6
CONTINUOUS
10
5.5356299212598428
20
-3.82748031496063
11
5.4643700787401572
21
-3.82748031496063
0
LINE
8
BLACK
6
CONTINUOUS
10
5.6566141732283466
20
-3.8255118110236221
11
5.6573101574803148
21
-3.8258000787401576
0
LINE
8
BLACK
6
CONTINUOUS
10
5.6573101574803148
20
-3.8258000787401576
11
5.6575984251968503
21
-3.8264960629921259
0
LINE
8
BLACK
6
CONTINUOUS
10
5.6575984251968503
20
-3.8264960629921259
11
5.6575984251968503
21
-3.8635039370078741
0
LINE
8
BLACK
6
CONTINUOUS
10
5.6575984251968503
20
-3.8635039370078741
11
5.6573101574803148
21
-3.8641999212598424
0
LINE
8
BLACK
6
CONTINUOUS
10
5.6573101574803148
20
-3.8641999212598424
11
5.6566141732283466
21
-3.8644881889763778
0
LINE
8
BLACK
6
CONTINUOUS
10
5.6566141732283466
20
-3.8644881889763778
11
5.5833858267716536
21
-3.8644881889763778
0
LINE
8
BLACK
6
CONTINUOUS
10
5.5833858267716536
20
-3.8644881889763778
11
5.5826898425196845
21
-3.8641999212598424
0
LINE
8
BLACK
6
CONTINUOUS
10
5.5826898425196845
20
-3.8641999212598424
11
5.5824015748031499
21
-3.8635039370078741
0
LINE
8
BLACK
6
CONTINUOUS
10
5.5824015748031499
20
-3.8635039370078741
11
5.5824015748031499
21
-3.8264960629921259
0
LINE
8
BLACK
6
CONTINUOUS
10
5.5824015748031499
20
-3.8264960629921259
11
5.5826898425196845
21
-3.8258000787401576
0
LINE
8
BLACK
6
CONTINUOUS
10
5.5826898425196845
20
-3.8258000787401576
11
5.5833858267716536
21
-3.8255118110236221
0
LINE
8
BLACK
6
CONTINUOUS
10
5.5833858267716536
20
-3.8255118110236221
11
5.6566141732283466
21
-3.8255118110236221
0
LINE
8
BLACK
6
CONTINUOUS
10
5.5843700787401573
20
-3.82748031496063
11
5.5843700787401573
21
-3.8625196850393699
0
LINE
8
BLACK
6
CONTINUOUS
10
5.5843700787401573
20
-3.8625196850393699
11
5.655629921259842
21
-3.8625196850393699
0
LINE
8
BLACK
6
CONTINUOUS
10
5.655629921259842
20
-3.8625196850393699
11
5.655629921259842
21
-3.82748031496063
0
LINE
8
BLACK
6
CONTINUOUS
10
5.655629921259842
20
-3.82748031496063
11
5.5843700787401573
21
-3.82748031496063
0
LINE
8
BLACK
6
CONTINUOUS
10
5.7258267716535434
20
-3.7809055118110235
11
5.7265227559055116
21
-3.781193779527559
0
LINE
8
BLACK
6
CONTINUOUS
10
5.7265227559055116
20
-3.781193779527559
11
5.7268110236220471
21
-3.7818897637795277
0
LINE
8
BLACK
6
CONTINUOUS
10
5.7268110236220471
20
-3.7818897637795277
11
5.7268110236220471
21
-3.8181102362204724
0
LINE
8
BLACK
6
CONTINUOUS
10
5.7268110236220471
20
-3.8181102362204724
11
5.7265227559055116
21
-3.8188062204724407
0
LINE
8
BLACK
6
CONTINUOUS
10
5.7265227559055116
20
-3.8188062204724407
11
5.7258267716535434
21
-3.8190944881889761
0
LINE
8
BLACK
6
CONTINUOUS
10
5.7258267716535434
20
-3.8190944881889761
11
5.6541732283464565
21
-3.8190944881889761
0
LINE
8
BLACK
6
CONTINUOUS
10
5.6541732283464565
20
-3.8190944881889761
11
5.6534772440944883
21
-3.8188062204724407
0
LINE
8
BLACK
6
CONTINUOUS
10
5.6534772440944883
20
-3.8188062204724407
11
5.6531889763779528
21
-3.8181102362204724
0
LINE
8
BLACK
6
CONTINUOUS
10
5.6531889763779528
20
-3.8181102362204724
11
5.6531889763779528
21
-3.7818897637795277
0
LINE
8
BLACK
6
CONTINUOUS
10
5.6531889763779528
20
-3.7818897637795277
11
5.6534772440944883
21
-3.781193779527559
0
LINE
8
BLACK
6
CONTINUOUS
10
5.6534772440944883
20
-3.781193779527559
11
5.6541732283464565
21
-3.7809055118110235
0
LINE
8
BLACK
6
CONTINUOUS
10
5.6541732283464565
20
-3.7809055118110235
11
5.7258267716535434
21
-3.7809055118110235
0
LINE
8
BLACK
6
CONTINUOUS
10
5.6551574803149602
20
-3.7828740157480314
11
5.6551574803149602
21
-3.8171259842519683
0
LINE
8
BLACK
6
CONTINUOUS
10
5.6551574803149602
20
-3.8171259842519683
11
5.7248425196850397
21
-3.8171259842519683
0
LINE
8
BLACK
6
CONTINUOUS
10
5.7248425196850397
20
-3.8171259842519683
11
5.7248425196850397
21
-3.7828740157480314
0
LINE
8
BLACK
6
CONTINUOUS
10
5.7248425196850397
20
-3.7828740157480314
11
5.6551574803149602
21
-3.7828740157480314
0
LINE
8
BLACK
6
CONTINUOUS
10
5.6157086614173224
20
-3.6670866141732281
11
5.6164046456692915
21
-3.6673748818897636
0
LINE
8
BLACK
6
CONTINUOUS
10
5.6164046456692915
20
-3.6673748818897636
11
5.616692913385827
21
-3.6680708661417323
0
LINE
8
BLACK
6
CONTINUOUS
10
5.616692913385827
20
-3.6680708661417323
11
5.616692913385827
21
-3.8019291338582675
0
LINE
8
BLACK
6
CONTINUOUS
10
5.616692913385827
20
-3.8019291338582675
11
5.6164046456692915
21
-3.8026251181102362
0
LINE
8
BLACK
6
CONTINUOUS
10
5.6164046456692915
20
-3.8026251181102362
11
5.6157086614173224
21
-3.8029133858267716
0
LINE
8
BLACK
6
CONTINUOUS
10
5.6157086614173224
20
-3.8029133858267716
11
5.454291338582677
21
-3.8029133858267716
0
LINE
8
BLACK
6
CONTINUOUS
10
5.454291338582677
20
-3.8029133858267716
11
5.4535953543307087
21
-3.8026251181102362
0
LINE
8
BLACK
6
CONTINUOUS
10
5.4535953543307087
20
-3.8026251181102362
11
5.4533070866141733
21
-3.8019291338582675
0
LINE
8
BLACK
6
CONTINUOUS
10
5.4533070866141733
20
-3.8019291338582675
11
5.4533070866141733
21
-3.6680708661417323
0
LINE
8
BLACK
6
CONTINUOUS
10
5.4533070866141733
20
-3.6680708661417323
11
5.4535953543307087
21
-3.6673748818897636
0
LINE
8
BLACK
6
CONTINUOUS
10
5.4535953543307087
20
-3.6673748818897636
11
5.454291338582677
21
-3.6670866141732281
0
LINE
8
BLACK
6
CONTINUOUS
10
5.454291338582677
20
-3.6670866141732281
11
5.6157086614173224
21
-3.6670866141732281
0
LINE
8
BLACK
6
CONTINUOUS
10
5.4552755905511807
20
-3.669055118110236
11
5.4552755905511807
21
-3.8009448818897638
0
LINE
8
BLACK
6
CONTINUOUS
10
5.4552755905511807
20
-3.8009448818897638
11
5.6147244094488187
21
-3.8009448818897638
0
LINE
8
BLACK
6
CONTINUOUS
10
5.6147244094488187
20
-3.8009448818897638
11
5.6147244094488187
21
-3.669055118110236
0
LINE
8
BLACK
6
CONTINUOUS
10
5.6147244094488187
20
-3.669055118110236
11
5.4552755905511807
21
-3.669055118110236
0
LINE
8
BLACK
6
CONTINUOUS
10
5.2908267716535429
20
-3.7359055118110236
11
5.291522755905512
21
-3.736193779527559
0
LINE
8
BLACK
6
CONTINUOUS
10
5.291522755905512
20
-3.736193779527559
11
5.2918110236220475
21
-3.7368897637795273
0
LINE
8
BLACK
6
CONTINUOUS
10
5.2918110236220475
20
-3.7368897637795273
11
5.2918110236220475
21
-3.7731102362204725
0
LINE
8
BLACK
6
CONTINUOUS
10
5.2918110236220475
20
-3.7731102362204725
11
5.291522755905512
21
-3.7738062204724407
0
LINE
8
BLACK
6
CONTINUOUS
10
5.291522755905512
20
-3.7738062204724407
11
5.2908267716535429
21
-3.7740944881889762
0
LINE
8
BLACK
6
CONTINUOUS
10
5.2908267716535429
20
-3.7740944881889762
11
5.2191732283464569
21
-3.7740944881889762
0
LINE
8
BLACK
6
CONTINUOUS
10
5.2191732283464569
20
-3.7740944881889762
11
5.2184772440944878
21
-3.7738062204724407
0
LINE
8
BLACK
6
CONTINUOUS
10
5.2184772440944878
20
-3.7738062204724407
11
5.2181889763779523
21
-3.7731102362204725
0
LINE
8
BLACK
6
CONTINUOUS
10
5.2181889763779523
20
-3.7731102362204725
11
5.2181889763779523
21
-3.7368897637795273
0
LINE
8
BLACK
6
CONTINUOUS
10
5.2181889763779523
20
-3.7368897637795273
11
5.2184772440944878
21
-3.736193779527559
0
LINE
8
BLACK
6
CONTINUOUS
10
5.2184772440944878
20
-3.736193779527559
11
5.2191732283464569
21
-3.7359055118110236
0
LINE
8
BLACK
6
CONTINUOUS
10
5.2191732283464569
20
-3.7359055118110236
11
5.2908267716535429
21
-3.7359055118110236
0
LINE
8
BLACK
6
CONTINUOUS
10
5.2201574803149606
20
-3.7378740157480315
11
5.2201574803149606
21
-3.7721259842519683
0
LINE
8
BLACK
6
CONTINUOUS
10
5.2201574803149606
20
-3.7721259842519683
11
5.2898425196850392
21
-3.7721259842519683
0
LINE
8
BLACK
6
CONTINUOUS
10
5.2898425196850392
20
-3.7721259842519683
11
5.2898425196850392
21
-3.7378740157480315
0
LINE
8
BLACK
6
CONTINUOUS
10
5.2898425196850392
20
-3.7378740157480315
11
5.2201574803149606
21
-3.7378740157480315
0
LINE
8
BLACK
6
CONTINUOUS
10
5.4008267716535432
20
-3.7309055118110237
11
5.4015227559055115
21
-3.7311937795275592
0
LINE
8
BLACK
6
CONTINUOUS
10
5.4015227559055115
20
-3.7311937795275592
11
5.4018110236220469
21
-3.7318897637795274
0
LINE
8
BLACK
6
CONTINUOUS
10
5.4018110236220469
20
-3.7318897637795274
11
5.4018110236220469
21
-3.7681102362204721
0
LINE
8
BLACK
6
CONTINUOUS
10
5.4018110236220469
20
-3.7681102362204721
11
5.4015227559055115
21
-3.7688062204724408
0
LINE
8
BLACK
6
CONTINUOUS
10
5.4015227559055115
20
-3.7688062204724408
11
5.4008267716535432
21
-3.7690944881889763
0
LINE
8
BLACK
6
CONTINUOUS
10
5.4008267716535432
20
-3.7690944881889763
11
5.3291732283464563
21
-3.7690944881889763
0
LINE
8
BLACK
6
CONTINUOUS
10
5.3291732283464563
20
-3.7690944881889763
11
5.3284772440944881
21
-3.7688062204724408
0
LINE
8
BLACK
6
CONTINUOUS
10
5.3284772440944881
20
-3.7688062204724408
11
5.3281889763779526
21
-3.7681102362204721
0
LINE
8
BLACK
6
CONTINUOUS
10
5.3281889763779526
20
-3.7681102362204721
11
5.3281889763779526
21
-3.7318897637795274
0
LINE
8
BLACK
6
CONTINUOUS
10
5.3281889763779526
20
-3.7318897637795274
11
5.3284772440944881
21
-3.7311937795275592
0
LINE
8
BLACK
6
CONTINUOUS
10
5.3284772440944881
20
-3.7311937795275592
11
5.3291732283464563
21
-3.7309055118110237
0
LINE
8
BLACK
6
CONTINUOUS
10
5.3291732283464563
20
-3.7309055118110237
11
5.4008267716535432
21
-3.7309055118110237
0
LINE
8
BLACK
6
CONTINUOUS
10
5.3301574803149609
20
-3.7328740157480316
11
5.3301574803149609
21
-3.7671259842519684
0
LINE
8
BLACK
6
CONTINUOUS
10
5.3301574803149609
20
-3.7671259842519684
11
5.3998425196850395
21
-3.7671259842519684
0
LINE
8
BLACK
6
CONTINUOUS
10
5.3998425196850395
20
-3.7671259842519684
11
5.3998425196850395
21
-3.7328740157480316
0
LINE
8
BLACK
6
CONTINUOUS
10
5.3998425196850395
20
-3.7328740157480316
11
5.3301574803149609
21
-3.7328740157480316
0
LINE
8
BLACK
6
CONTINUOUS
10
5.7258267716535434
20
-3.7259055118110234
11
5.7265227559055116
21
-3.7261937795275588
0
LINE
8
BLACK
6
CONTINUOUS
10
5.7265227559055116
20
-3.7261937795275588
11
5.7268110236220471
21
-3.7268897637795275
0
LINE
8
BLACK
6
CONTINUOUS
10
5.7268110236220471
20
-3.7268897637795275
11
5.7268110236220471
21
-3.7631102362204722
0
LINE
8
BLACK
6
CONTINUOUS
10
5.7268110236220471
20
-3.7631102362204722
11
5.7265227559055116
21
-3.763806220472441
0
LINE
8
BLACK
6
CONTINUOUS
10
5.7265227559055116
20
-3.763806220472441
11
5.7258267716535434
21
-3.7640944881889764
0
LINE
8
BLACK
6
CONTINUOUS
10
5.7258267716535434
20
-3.7640944881889764
11
5.6541732283464565
21
-3.7640944881889764
0
LINE
8
BLACK
6
CONTINUOUS
10
5.6541732283464565
20
-3.7640944881889764
11
5.6534772440944883
21
-3.763806220472441
0
LINE
8
BLACK
6
CONTINUOUS
10
5.6534772440944883
20
-3.763806220472441
11
5.6531889763779528
21
-3.7631102362204722
0
LINE
8
BLACK
6
CONTINUOUS
10
5.6531889763779528
20
-3.7631102362204722
11
5.6531889763779528
21
-3.7268897637795275
0
LINE
8
BLACK
6
CONTINUOUS
10
5.6531889763779528
20
-3.7268897637795275
11
5.6534772440944883
21
-3.7261937795275588
0
LINE
8
BLACK
6
CONTINUOUS
10
5.6534772440944883
20
-3.7261937795275588
11
5.6541732283464565
21
-3.7259055118110234
0
LINE
8
BLACK
6
CONTINUOUS
10
5.6541732283464565
20
-3.7259055118110234
11
5.7258267716535434
21
-3.7259055118110234
0
LINE
8
BLACK
6
CONTINUOUS
10
5.6551574803149602
20
-3.7278740157480312
11
5.6551574803149602
21
-3.7621259842519685
0
LINE
8
BLACK
6
CONTINUOUS
10
5.6551574803149602
20
-3.7621259842519685
11
5.7248425196850397
21
-3.7621259842519685
0
LINE
8
BLACK
6
CONTINUOUS
10
5.7248425196850397
20
-3.7621259842519685
11
5.7248425196850397
21
-3.7278740157480312
0
LINE
8
BLACK
6
CONTINUOUS
10
5.7248425196850397
20
-3.7278740157480312
11
5.6551574803149602
21
-3.7278740157480312
0
LINE
8
BLACK
6
CONTINUOUS
10
5.4481102362204723
20
-3.6881889763779525
11
5.4488062204724406
21
-3.688477244094488
0
LINE
8
BLACK
6
CONTINUOUS
10
5.4488062204724406
20
-3.688477244094488
11
5.449094488188976
21
-3.6891732283464567
0
LINE
8
BLACK
6
CONTINUOUS
10
5.449094488188976
20
-3.6891732283464567
11
5.449094488188976
21
-3.7608267716535431
0
LINE
8
BLACK
6
CONTINUOUS
10
5.449094488188976
20
-3.7608267716535431
11
5.4488062204724406
21
-3.7615227559055118
0
LINE
8
BLACK
6
CONTINUOUS
10
5.4488062204724406
20
-3.7615227559055118
11
5.4481102362204723
21
-3.7618110236220472
0
LINE
8
BLACK
6
CONTINUOUS
10
5.4481102362204723
20
-3.7618110236220472
11
5.4118897637795271
21
-3.7618110236220472
0
LINE
8
BLACK
6
CONTINUOUS
10
5.4118897637795271
20
-3.7618110236220472
11
5.4111937795275589
21
-3.7615227559055118
0
LINE
8
BLACK
6
CONTINUOUS
10
5.4111937795275589
20
-3.7615227559055118
11
5.4109055118110234
21
-3.7608267716535431
0
LINE
8
BLACK
6
CONTINUOUS
10
5.4109055118110234
20
-3.7608267716535431
11
5.4109055118110234
21
-3.6891732283464567
0
LINE
8
BLACK
6
CONTINUOUS
10
5.4109055118110234
20
-3.6891732283464567
11
5.4111937795275589
21
-3.688477244094488
0
LINE
8
BLACK
6
CONTINUOUS
10
5.4111937795275589
20
-3.688477244094488
11
5.4118897637795271
21
-3.6881889763779525
0
LINE
8
BLACK
6
CONTINUOUS
10
5.4118897637795271
20
-3.6881889763779525
11
5.4481102362204723
21
-3.6881889763779525
0
LINE
8
BLACK
6
CONTINUOUS
10
5.4128740157480317
20
-3.6901574803149604
11
5.4128740157480317
21
-3.7598425196850394
0
LINE
8
BLACK
6
CONTINUOUS
10
5.4128740157480317
20
-3.7598425196850394
11
5.4471259842519686
21
-3.7598425196850394
0
LINE
8
BLACK
6
CONTINUOUS
10
5.4471259842519686
20
-3.7598425196850394
11
5.4471259842519686
21
-3.6901574803149604
0
LINE
8
BLACK
6
CONTINUOUS
10
5.4471259842519686
20
-3.6901574803149604
11
5.4128740157480317
21
-3.6901574803149604
0
LINE
8
BLACK
6
CONTINUOUS
10
5.8442125984251971
20
-3.6914566929133859
11
5.8449085826771654
21
-3.6917449606299213
0
LINE
8
BLACK
6
CONTINUOUS
10
5.8449085826771654
20
-3.6917449606299213
11
5.8451968503937008
21
-3.6924409448818896
0
LINE
8
BLACK
6
CONTINUOUS
10
5.8451968503937008
20
-3.6924409448818896
11
5.8451968503937008
21
-3.7475590551181099
0
LINE
8
BLACK
6
CONTINUOUS
10
5.8451968503937008
20
-3.7475590551181099
11
5.8449085826771654
21
-3.7482550393700786
0
LINE
8
BLACK
6
CONTINUOUS
10
5.8449085826771654
20
-3.7482550393700786
11
5.8442125984251971
21
-3.7485433070866141
0
LINE
8
BLACK
6
CONTINUOUS
10
5.8442125984251971
20
-3.7485433070866141
11
5.7457874015748027
21
-3.7485433070866141
0
LINE
8
BLACK
6
CONTINUOUS
10
5.7457874015748027
20
-3.7485433070866141
11
5.7450914173228345
21
-3.7482550393700786
0
LINE
8
BLACK
6
CONTINUOUS
10
5.7450914173228345
20
-3.7482550393700786
11
5.744803149606299
21
-3.7475590551181099
0
LINE
8
BLACK
6
CONTINUOUS
10
5.744803149606299
20
-3.7475590551181099
11
5.744803149606299
21
-3.6924409448818896
0
LINE
8
BLACK
6
CONTINUOUS
10
5.744803149606299
20
-3.6924409448818896
11
5.7450914173228345
21
-3.6917449606299213
0
LINE
8
BLACK
6
CONTINUOUS
10
5.7450914173228345
20
-3.6917449606299213
11
5.7457874015748027
21
-3.6914566929133859
0
LINE
8
BLACK
6
CONTINUOUS
10
5.7457874015748027
20
-3.6914566929133859
11
5.8442125984251971
21
-3.6914566929133859
0
LINE
8
BLACK
6
CONTINUOUS
10
5.7467716535433073
20
-3.6934251968503937
11
5.7467716535433073
21
-3.7465748031496062
0
LINE
8
BLACK
6
CONTINUOUS
10
5.7467716535433073
20
-3.7465748031496062
11
5.8432283464566925
21
-3.7465748031496062
0
LINE
8
BLACK
6
CONTINUOUS
10
5.8432283464566925
20
-3.7465748031496062
11
5.8432283464566925
21
-3.6934251968503937
0
LINE
8
BLACK
6
CONTINUOUS
10
5.8432283464566925
20
-3.6934251968503937
11
5.7467716535433073
21
-3.6934251968503937
  0
ENDSEC
  0
EOF
