  0
SECTION
  2
HEADER
  9
$ANGBASE
  50
0.0
  9
$ANGDIR
  70
1
  9
$MEASUREMENT
  70
0
  0
ENDSEC
  0
SECTION
  2
TABLES
  0
TABLE
  2
LTYPE
  70
4
  0
LTYPE
  5
40F
  2
CONTINUOUS
  70
0
  3
Solid line
  72
65
  73
0
  40
0.0
  0
LTYPE
  5
410
  2
DASHDOT
 70
0
  3
Dash Dot ____ _ ____ _
 72
65
 73
4
 40
2.0
 49
1.25
 49
-0.25
 49
0.25
 49
-0.25
  0
LTYPE
  5
411
  2
DASHED
 70
0
  3
Dashed __ __ __ __ __
 72
65
 73
2
 40
0.75
 49
0.5
 49
-0.25
  0
LTYPE
  5
43B
  2
DOTTED
 70
0
  3
Dotted .  .  .  .
 72
65
 73
2
 40
0.2
 49
0.0
 49
-0.2
  0
ENDTAB
  0
TABLE
  2
STYLE
  70
4
  0
STYLE
  2
KICAD
  70
0
  40
0
  41
1
  42
1
  50
0
  71
0
  3
isocp.shx
  0
STYLE
  2
KICADB
  70
0
  40
0
  41
1
  42
1
  50
0
  71
0
  3
isocp.shx
  0
STYLE
  2
KICADI
  70
0
  40
0
  41
1
  42
1
  50
15
  71
0
  3
isocp.shx
  0
STYLE
  2
KICADBI
  70
0
  40
0
  41
1
  42
1
  50
15
  71
0
  3
isocp.shx
  0
ENDTAB
  0
TABLE
  2
LAYER
  70
1
  0
LAYER
  2
BLACK
  70
0
  62
7
  6
CONTINUOUS
  0
ENDTAB
  0
ENDSEC
  0
SECTION
  2
ENTITIES
0
LINE
8
BLACK
6
CONTINUOUS
10
5.971485866141732
20
-3.6465636614173227
11
5.9716151181102362
21
-3.6465409055118108
0
LINE
8
BLACK
6
CONTINUOUS
10
5.9716151181102362
20
-3.6465409055118108
11
5.9717287007874011
21
-3.6466064960629923
0
LINE
8
BLACK
6
CONTINUOUS
10
5.9717287007874011
20
-3.6466064960629923
11
5.9721122834645666
21
-3.6466741338582676
0
LINE
8
BLACK
6
CONTINUOUS
10
5.9721122834645666
20
-3.6466741338582676
11
5.9726999606299209
21
-3.6471672440944882
0
LINE
8
BLACK
6
CONTINUOUS
10
5.9726999606299209
20
-3.6471672440944882
11
5.9733642913385827
21
-3.6475508267716537
0
LINE
8
BLACK
6
CONTINUOUS
10
5.9733642913385827
20
-3.6475508267716537
11
5.973455393700787
21
-3.6478011417322835
0
LINE
8
BLACK
6
CONTINUOUS
10
5.973455393700787
20
-3.6478011417322835
11
5.9736595275590547
21
-3.6479724409448817
0
LINE
8
BLACK
6
CONTINUOUS
10
5.9736595275590547
20
-3.6479724409448817
11
5.973792755905512
21
-3.6487279921259841
0
LINE
8
BLACK
6
CONTINUOUS
10
5.973792755905512
20
-3.6487279921259841
11
5.9740551181102362
21
-3.6494488188976377
0
LINE
8
BLACK
6
CONTINUOUS
10
5.9740551181102362
20
-3.6494488188976377
11
5.9740551181102362
21
-4.2400000000000002
0
LINE
8
BLACK
6
CONTINUOUS
10
5.9740551181102362
20
-4.2400000000000002
11
5.9739874803149604
21
-4.2403835039370081
0
LINE
8
BLACK
6
CONTINUOUS
10
5.9739874803149604
20
-4.2403835039370081
11
5.9740102755905511
21
-4.2405127559055114
0
LINE
8
BLACK
6
CONTINUOUS
10
5.9740102755905511
20
-4.2405127559055114
11
5.9739446456692908
21
-4.2406263385826772
0
LINE
8
BLACK
6
CONTINUOUS
10
5.9739446456692908
20
-4.2406263385826772
11
5.9738770472440947
21
-4.2410099212598427
0
LINE
8
BLACK
6
CONTINUOUS
10
5.9738770472440947
20
-4.2410099212598427
11
5.9733838976377953
21
-4.241597598425197
0
LINE
8
BLACK
6
CONTINUOUS
10
5.9733838976377953
20
-4.241597598425197
11
5.9730003543307086
21
-4.2422619291338579
0
LINE
8
BLACK
6
CONTINUOUS
10
5.9730003543307086
20
-4.2422619291338579
11
5.9727499999999996
21
-4.2423530314960631
0
LINE
8
BLACK
6
CONTINUOUS
10
5.9727499999999996
20
-4.2423530314960631
11
5.9725787401574806
21
-4.2425571653543308
0
LINE
8
BLACK
6
CONTINUOUS
10
5.9725787401574806
20
-4.2425571653543308
11
5.9718231496062995
21
-4.2426903937007872
0
LINE
8
BLACK
6
CONTINUOUS
10
5.9718231496062995
20
-4.2426903937007872
11
5.9711023622047241
21
-4.2429527559055114
0
LINE
8
BLACK
6
CONTINUOUS
10
5.9711023622047241
20
-4.2429527559055114
11
4.79
21
-4.2429527559055114
0
LINE
8
BLACK
6
CONTINUOUS
10
4.79
20
-4.2429527559055114
11
4.7896164566929134
21
-4.2428851181102365
0
LINE
8
BLACK
6
CONTINUOUS
10
4.7896164566929134
20
-4.2428851181102365
11
4.789487244094488
21
-4.2429079133858263
0
LINE
8
BLACK
6
CONTINUOUS
10
4.789487244094488
20
-4.2429079133858263
11
4.7893736220472443
21
-4.2428422834645669
0
LINE
8
BLACK
6
CONTINUOUS
10
4.7893736220472443
20
-4.2428422834645669
11
4.7889900787401576
21
-4.2427746850393699
0
LINE
8
BLACK
6
CONTINUOUS
10
4.7889900787401576
20
-4.2427746850393699
11
4.7884023622047245
21
-4.2422815354330705
0
LINE
8
BLACK
6
CONTINUOUS
10
4.7884023622047245
20
-4.2422815354330705
11
4.7877380708661414
21
-4.2418979921259838
0
LINE
8
BLACK
6
CONTINUOUS
10
4.7877380708661414
20
-4.2418979921259838
11
4.7876469291338584
21
-4.2416476377952756
0
LINE
8
BLACK
6
CONTINUOUS
10
4.7876469291338584
20
-4.2416476377952756
11
4.7874428346456694
21
-4.2414763779527558
0
LINE
8
BLACK
6
CONTINUOUS
10
4.7874428346456694
20
-4.2414763779527558
11
4.7873095669291335
21
-4.2407207874015747
0
LINE
8
BLACK
6
CONTINUOUS
10
4.7873095669291335
20
-4.2407207874015747
11
4.787047244094488
21
-4.2400000000000002
0
LINE
8
BLACK
6
CONTINUOUS
10
4.787047244094488
20
-4.2400000000000002
11
4.787047244094488
21
-3.6494488188976377
0
LINE
8
BLACK
6
CONTINUOUS
10
4.787047244094488
20
-3.6494488188976377
11
4.787114842519685
21
-3.649065275590551
0
LINE
8
BLACK
6
CONTINUOUS
10
4.787114842519685
20
-3.649065275590551
11
4.7870920866141731
21
-3.6489360629921257
0
LINE
8
BLACK
6
CONTINUOUS
10
4.7870920866141731
20
-3.6489360629921257
11
4.7871576771653546
21
-3.648822440944882
0
LINE
8
BLACK
6
CONTINUOUS
10
4.7871576771653546
20
-3.648822440944882
11
4.7872253149606294
21
-3.6484388976377953
0
LINE
8
BLACK
6
CONTINUOUS
10
4.7872253149606294
20
-3.6484388976377953
11
4.7877184251968501
21
-3.6478511811023622
0
LINE
8
BLACK
6
CONTINUOUS
10
4.7877184251968501
20
-3.6478511811023622
11
4.7881020078740155
21
-3.6471868897637796
0
LINE
8
BLACK
6
CONTINUOUS
10
4.7881020078740155
20
-3.6471868897637796
11
4.7883523228346458
21
-3.6470957480314961
0
LINE
8
BLACK
6
CONTINUOUS
10
4.7883523228346458
20
-3.6470957480314961
11
4.7885236220472436
21
-3.6468916535433071
0
LINE
8
BLACK
6
CONTINUOUS
10
4.7885236220472436
20
-3.6468916535433071
11
4.789279173228346
21
-3.6467583858267716
0
LINE
8
BLACK
6
CONTINUOUS
10
4.789279173228346
20
-3.6467583858267716
11
4.79
21
-3.6464960629921257
0
LINE
8
BLACK
6
CONTINUOUS
10
4.79
20
-3.6464960629921257
11
5.9711023622047241
21
-3.6464960629921257
0
LINE
8
BLACK
6
CONTINUOUS
10
5.9711023622047241
20
-3.6464960629921257
11
5.971485866141732
21
-3.6465636614173227
0
LINE
8
BLACK
6
CONTINUOUS
10
4.7929527559055121
20
-3.6524015748031493
11
4.7929527559055121
21
-4.2370472440944882
0
LINE
8
BLACK
6
CONTINUOUS
10
4.7929527559055121
20
-4.2370472440944882
11
5.9681496062992121
21
-4.2370472440944882
0
LINE
8
BLACK
6
CONTINUOUS
10
5.9681496062992121
20
-4.2370472440944882
11
5.9681496062992121
21
-3.6524015748031493
0
LINE
8
BLACK
6
CONTINUOUS
10
5.9681496062992121
20
-3.6524015748031493
11
4.7929527559055121
21
-3.6524015748031493
  0
ENDSEC
  0
EOF
