%TF.GenerationSoftware,KiCad,Pcbnew,7.0.11+1*%
%TF.CreationDate,2024-06-02T16:05:35+00:00*%
%TF.ProjectId,TFASPDIMU02,54464153-5044-4494-9d55-30322e6b6963,rev?*%
%TF.SameCoordinates,Original*%
%TF.FileFunction,Soldermask,Bot*%
%TF.FilePolarity,Negative*%
%FSLAX46Y46*%
G04 Gerber Fmt 4.6, Leading zero omitted, Abs format (unit mm)*
G04 Created by KiCad (PCBNEW 7.0.11+1) date 2024-06-02 16:05:35*
%MOMM*%
%LPD*%
G01*
G04 APERTURE LIST*
G04 Aperture macros list*
%AMRoundRect*
0 Rectangle with rounded corners*
0 $1 Rounding radius*
0 $2 $3 $4 $5 $6 $7 $8 $9 X,Y pos of 4 corners*
0 Add a 4 corners polygon primitive as box body*
4,1,4,$2,$3,$4,$5,$6,$7,$8,$9,$2,$3,0*
0 Add four circle primitives for the rounded corners*
1,1,$1+$1,$2,$3*
1,1,$1+$1,$4,$5*
1,1,$1+$1,$6,$7*
1,1,$1+$1,$8,$9*
0 Add four rect primitives between the rounded corners*
20,1,$1+$1,$2,$3,$4,$5,0*
20,1,$1+$1,$4,$5,$6,$7,0*
20,1,$1+$1,$6,$7,$8,$9,0*
20,1,$1+$1,$8,$9,$2,$3,0*%
%AMFreePoly0*
4,1,21,1.086777,0.430194,1.156366,0.374698,1.194986,0.294504,1.200000,0.250000,1.200000,-0.250000,1.180194,-0.336777,1.124698,-0.406366,1.044504,-0.444986,1.000000,-0.450000,-1.000000,-0.450000,-1.086777,-0.430194,-1.156366,-0.374698,-1.194986,-0.294504,-1.200000,-0.250000,-1.200000,0.250000,-1.180194,0.336777,-1.124698,0.406366,-1.044504,0.444986,-1.000000,0.450000,1.000000,0.450000,
1.086777,0.430194,1.086777,0.430194,$1*%
%AMFreePoly1*
4,1,21,0.986777,0.630194,1.056366,0.574698,1.094986,0.494504,1.100000,0.450000,1.100000,-0.450000,1.080194,-0.536777,1.024698,-0.606366,0.944504,-0.644986,0.900000,-0.650000,-0.900000,-0.650000,-0.986777,-0.630194,-1.056366,-0.574698,-1.094986,-0.494504,-1.100000,-0.450000,-1.100000,0.450000,-1.080194,0.536777,-1.024698,0.606366,-0.944504,0.644986,-0.900000,0.650000,0.900000,0.650000,
0.986777,0.630194,0.986777,0.630194,$1*%
G04 Aperture macros list end*
%ADD10C,3.000000*%
%ADD11RoundRect,0.240000X-0.240000X-0.270000X0.240000X-0.270000X0.240000X0.270000X-0.240000X0.270000X0*%
%ADD12RoundRect,0.235000X0.235000X0.285000X-0.235000X0.285000X-0.235000X-0.285000X0.235000X-0.285000X0*%
%ADD13RoundRect,0.240000X-0.270000X0.240000X-0.270000X-0.240000X0.270000X-0.240000X0.270000X0.240000X0*%
%ADD14RoundRect,0.240000X0.270000X-0.240000X0.270000X0.240000X-0.270000X0.240000X-0.270000X-0.240000X0*%
%ADD15C,2.000000*%
%ADD16RoundRect,0.235000X-0.285000X0.235000X-0.285000X-0.235000X0.285000X-0.235000X0.285000X0.235000X0*%
%ADD17RoundRect,0.235000X-0.235000X-0.285000X0.235000X-0.285000X0.235000X0.285000X-0.235000X0.285000X0*%
%ADD18RoundRect,0.200000X0.300000X0.350000X-0.300000X0.350000X-0.300000X-0.350000X0.300000X-0.350000X0*%
%ADD19RoundRect,0.200000X-0.725000X0.225000X-0.725000X-0.225000X0.725000X-0.225000X0.725000X0.225000X0*%
%ADD20RoundRect,0.235000X0.285000X-0.235000X0.285000X0.235000X-0.285000X0.235000X-0.285000X-0.235000X0*%
%ADD21C,1.100000*%
%ADD22FreePoly0,180.000000*%
%ADD23FreePoly0,90.000000*%
%ADD24FreePoly1,180.000000*%
%ADD25RoundRect,0.250000X-0.800000X0.250000X-0.800000X-0.250000X0.800000X-0.250000X0.800000X0.250000X0*%
%ADD26RoundRect,0.350000X-1.200000X0.350000X-1.200000X-0.350000X1.200000X-0.350000X1.200000X0.350000X0*%
%ADD27RoundRect,0.240000X0.240000X0.270000X-0.240000X0.270000X-0.240000X-0.270000X0.240000X-0.270000X0*%
%ADD28RoundRect,0.200000X0.725000X-0.225000X0.725000X0.225000X-0.725000X0.225000X-0.725000X-0.225000X0*%
%ADD29RoundRect,0.250000X0.612500X0.250000X-0.612500X0.250000X-0.612500X-0.250000X0.612500X-0.250000X0*%
%ADD30RoundRect,0.150000X-0.325000X-0.150000X0.325000X-0.150000X0.325000X0.150000X-0.325000X0.150000X0*%
%ADD31RoundRect,0.150000X-0.150000X0.325000X-0.150000X-0.325000X0.150000X-0.325000X0.150000X0.325000X0*%
G04 APERTURE END LIST*
D10*
%TO.C,M3*%
X124166000Y-92696000D03*
%TD*%
%TO.C,M2*%
X124166000Y-107696000D03*
%TD*%
%TO.C,M1*%
X134166000Y-107696000D03*
%TD*%
%TO.C,M7*%
X134166000Y-92696000D03*
%TD*%
D11*
%TO.C,C5*%
X146713000Y-106045000D03*
X147673000Y-106045000D03*
%TD*%
D12*
%TO.C,R11*%
X143258000Y-97663000D03*
X142238000Y-97663000D03*
%TD*%
D13*
%TO.C,C9*%
X137414000Y-101628000D03*
X137414000Y-102588000D03*
%TD*%
D14*
%TO.C,C3*%
X137795000Y-97790000D03*
X137795000Y-96830000D03*
%TD*%
D15*
%TO.C,FID2*%
X149885400Y-106045000D03*
%TD*%
D16*
%TO.C,R4*%
X138557000Y-98931000D03*
X138557000Y-99951000D03*
%TD*%
D14*
%TO.C,C11*%
X144856200Y-97457200D03*
X144856200Y-96497200D03*
%TD*%
D11*
%TO.C,C10*%
X132235000Y-101600000D03*
X133195000Y-101600000D03*
%TD*%
D17*
%TO.C,R3*%
X139190000Y-97663000D03*
X140210000Y-97663000D03*
%TD*%
D15*
%TO.C,FID1*%
X128524000Y-94208600D03*
%TD*%
D18*
%TO.C,D2*%
X146493000Y-94488000D03*
X147893000Y-94488000D03*
%TD*%
D14*
%TO.C,C12*%
X140208000Y-103604000D03*
X140208000Y-102644000D03*
%TD*%
D13*
%TO.C,C13*%
X144653000Y-102517000D03*
X144653000Y-103477000D03*
%TD*%
D19*
%TO.C,U3*%
X135931000Y-103165000D03*
X135931000Y-103815000D03*
X135931000Y-104465000D03*
X135931000Y-105115000D03*
X131531000Y-105115000D03*
X131531000Y-104465000D03*
X131531000Y-103815000D03*
X131531000Y-103165000D03*
%TD*%
D20*
%TO.C,R10*%
X123317000Y-104904000D03*
X123317000Y-103884000D03*
%TD*%
D16*
%TO.C,R1*%
X141478000Y-102487000D03*
X141478000Y-103507000D03*
%TD*%
D11*
%TO.C,C6*%
X143436400Y-94919800D03*
X144396400Y-94919800D03*
%TD*%
D16*
%TO.C,R2*%
X143383000Y-102487000D03*
X143383000Y-103507000D03*
%TD*%
D21*
%TO.C,U1*%
X130716000Y-101696000D03*
X123416000Y-101696000D03*
X123416000Y-97396000D03*
D22*
X130516000Y-98546000D03*
X130516000Y-99546000D03*
X130516000Y-100546000D03*
D23*
X129066000Y-102246000D03*
X128066000Y-102246000D03*
X127066000Y-102246000D03*
X126066000Y-102246000D03*
X125066000Y-102246000D03*
D22*
X123616000Y-100546000D03*
X123616000Y-99546000D03*
X123616000Y-98546000D03*
D23*
X125066000Y-96846000D03*
X126066000Y-96846000D03*
X127066000Y-96846000D03*
X128066000Y-96846000D03*
X129066000Y-96846000D03*
D24*
X127066000Y-98696000D03*
X127066000Y-100396000D03*
%TD*%
D25*
%TO.C,J1*%
X146994000Y-98321000D03*
X146994000Y-99571000D03*
X146994000Y-100821000D03*
X146994000Y-102071000D03*
D26*
X150194000Y-96471000D03*
X150194000Y-103921000D03*
%TD*%
D27*
%TO.C,C2*%
X133957000Y-95377000D03*
X132997000Y-95377000D03*
%TD*%
D11*
%TO.C,C4*%
X135791000Y-95250000D03*
X136751000Y-95250000D03*
%TD*%
D12*
%TO.C,R8*%
X138559000Y-104902000D03*
X137539000Y-104902000D03*
%TD*%
D11*
%TO.C,C1*%
X126139000Y-104267000D03*
X127099000Y-104267000D03*
%TD*%
D13*
%TO.C,C8*%
X137922000Y-94135000D03*
X137922000Y-95095000D03*
%TD*%
D20*
%TO.C,R5*%
X138557000Y-102110000D03*
X138557000Y-101090000D03*
%TD*%
D16*
%TO.C,R6*%
X127000000Y-105408000D03*
X127000000Y-106428000D03*
%TD*%
D28*
%TO.C,U6*%
X140167000Y-101178000D03*
X140167000Y-100528000D03*
X140167000Y-99878000D03*
X140167000Y-99228000D03*
X144567000Y-99228000D03*
X144567000Y-99878000D03*
X144567000Y-100528000D03*
X144567000Y-101178000D03*
%TD*%
D20*
%TO.C,R7*%
X128397000Y-105160000D03*
X128397000Y-104140000D03*
%TD*%
D29*
%TO.C,U5*%
X141726500Y-93919000D03*
X141726500Y-94869000D03*
X141726500Y-95819000D03*
X139451500Y-95819000D03*
X139451500Y-93919000D03*
%TD*%
D12*
%TO.C,R9*%
X138559000Y-103759000D03*
X137539000Y-103759000D03*
%TD*%
D29*
%TO.C,U4*%
X144393500Y-104714000D03*
X144393500Y-105664000D03*
X144393500Y-106614000D03*
X142118500Y-106614000D03*
X142118500Y-104714000D03*
%TD*%
D13*
%TO.C,C7*%
X140208000Y-104930000D03*
X140208000Y-105890000D03*
%TD*%
D30*
%TO.C,U2*%
X133374000Y-99171000D03*
X133374000Y-98771000D03*
X133374000Y-98371000D03*
X133374000Y-97971000D03*
X133374000Y-97571000D03*
X133374000Y-97171000D03*
D31*
X133874000Y-96671000D03*
X134274000Y-96671000D03*
X134674000Y-96671000D03*
X135074000Y-96671000D03*
X135474000Y-96671000D03*
X135874000Y-96671000D03*
D30*
X136374000Y-97171000D03*
X136374000Y-97571000D03*
X136374000Y-97971000D03*
X136374000Y-98371000D03*
X136374000Y-98771000D03*
X136374000Y-99171000D03*
D31*
X135874000Y-99671000D03*
X135474000Y-99671000D03*
X135074000Y-99671000D03*
X134674000Y-99671000D03*
X134274000Y-99671000D03*
X133874000Y-99671000D03*
%TD*%
M02*
