%TF.GenerationSoftware,KiCad,Pcbnew,7.0.11+1*%
%TF.CreationDate,2024-06-05T21:25:00+00:00*%
%TF.ProjectId,TFASPDIMU02,54464153-5044-4494-9d55-30322e6b6963,rev?*%
%TF.SameCoordinates,Original*%
%TF.FileFunction,Copper,L2,Bot*%
%TF.FilePolarity,Positive*%
%FSLAX46Y46*%
G04 Gerber Fmt 4.6, Leading zero omitted, Abs format (unit mm)*
G04 Created by KiCad (PCBNEW 7.0.11+1) date 2024-06-05 21:25:00*
%MOMM*%
%LPD*%
G01*
G04 APERTURE LIST*
G04 Aperture macros list*
%AMRoundRect*
0 Rectangle with rounded corners*
0 $1 Rounding radius*
0 $2 $3 $4 $5 $6 $7 $8 $9 X,Y pos of 4 corners*
0 Add a 4 corners polygon primitive as box body*
4,1,4,$2,$3,$4,$5,$6,$7,$8,$9,$2,$3,0*
0 Add four circle primitives for the rounded corners*
1,1,$1+$1,$2,$3*
1,1,$1+$1,$4,$5*
1,1,$1+$1,$6,$7*
1,1,$1+$1,$8,$9*
0 Add four rect primitives between the rounded corners*
20,1,$1+$1,$2,$3,$4,$5,0*
20,1,$1+$1,$4,$5,$6,$7,0*
20,1,$1+$1,$6,$7,$8,$9,0*
20,1,$1+$1,$8,$9,$2,$3,0*%
%AMOutline4P*
0 Free polygon, 4 corners , with rotation*
0 The origin of the aperture is its center*
0 number of corners: always 4*
0 $1 to $8 corner X, Y*
0 $9 Rotation angle, in degrees counterclockwise*
0 create outline with 4 corners*
4,1,4,$1,$2,$3,$4,$5,$6,$7,$8,$1,$2,$9*%
G04 Aperture macros list end*
%TA.AperFunction,SMDPad,CuDef*%
%ADD10RoundRect,0.140000X0.170000X-0.140000X0.170000X0.140000X-0.170000X0.140000X-0.170000X-0.140000X0*%
%TD*%
%TA.AperFunction,SMDPad,CuDef*%
%ADD11RoundRect,0.135000X0.135000X0.185000X-0.135000X0.185000X-0.135000X-0.185000X0.135000X-0.185000X0*%
%TD*%
%TA.AperFunction,SMDPad,CuDef*%
%ADD12RoundRect,0.140000X-0.170000X0.140000X-0.170000X-0.140000X0.170000X-0.140000X0.170000X0.140000X0*%
%TD*%
%TA.AperFunction,SMDPad,CuDef*%
%ADD13C,1.000000*%
%TD*%
%TA.AperFunction,SMDPad,CuDef*%
%ADD14RoundRect,0.135000X-0.185000X0.135000X-0.185000X-0.135000X0.185000X-0.135000X0.185000X0.135000X0*%
%TD*%
%TA.AperFunction,SMDPad,CuDef*%
%ADD15RoundRect,0.140000X-0.140000X-0.170000X0.140000X-0.170000X0.140000X0.170000X-0.140000X0.170000X0*%
%TD*%
%TA.AperFunction,SMDPad,CuDef*%
%ADD16RoundRect,0.135000X-0.135000X-0.185000X0.135000X-0.185000X0.135000X0.185000X-0.135000X0.185000X0*%
%TD*%
%TA.AperFunction,SMDPad,CuDef*%
%ADD17R,0.600000X0.700000*%
%TD*%
%TA.AperFunction,SMDPad,CuDef*%
%ADD18R,1.100000X0.400000*%
%TD*%
%TA.AperFunction,SMDPad,CuDef*%
%ADD19RoundRect,0.135000X0.185000X-0.135000X0.185000X0.135000X-0.185000X0.135000X-0.185000X-0.135000X0*%
%TD*%
%TA.AperFunction,SMDPad,CuDef*%
%ADD20RoundRect,0.237500X-0.287500X-0.237500X0.287500X-0.237500X0.287500X0.237500X-0.287500X0.237500X0*%
%TD*%
%TA.AperFunction,SMDPad,CuDef*%
%ADD21Outline4P,-1.000000X-0.250000X1.000000X-0.250000X1.000000X0.250000X-1.000000X0.250000X180.000000*%
%TD*%
%TA.AperFunction,SMDPad,CuDef*%
%ADD22Outline4P,-1.000000X-0.250000X1.000000X-0.250000X1.000000X0.250000X-1.000000X0.250000X90.000000*%
%TD*%
%TA.AperFunction,SMDPad,CuDef*%
%ADD23Outline4P,-0.900000X-0.450000X0.900000X-0.450000X0.900000X0.450000X-0.900000X0.450000X180.000000*%
%TD*%
%TA.AperFunction,SMDPad,CuDef*%
%ADD24RoundRect,0.150000X-0.700000X0.150000X-0.700000X-0.150000X0.700000X-0.150000X0.700000X0.150000X0*%
%TD*%
%TA.AperFunction,SMDPad,CuDef*%
%ADD25RoundRect,0.250000X-1.100000X0.250000X-1.100000X-0.250000X1.100000X-0.250000X1.100000X0.250000X0*%
%TD*%
%TA.AperFunction,SMDPad,CuDef*%
%ADD26RoundRect,0.140000X0.140000X0.170000X-0.140000X0.170000X-0.140000X-0.170000X0.140000X-0.170000X0*%
%TD*%
%TA.AperFunction,SMDPad,CuDef*%
%ADD27RoundRect,0.150000X0.512500X0.150000X-0.512500X0.150000X-0.512500X-0.150000X0.512500X-0.150000X0*%
%TD*%
%TA.AperFunction,SMDPad,CuDef*%
%ADD28RoundRect,0.050000X-0.225000X-0.050000X0.225000X-0.050000X0.225000X0.050000X-0.225000X0.050000X0*%
%TD*%
%TA.AperFunction,SMDPad,CuDef*%
%ADD29RoundRect,0.050000X-0.050000X0.225000X-0.050000X-0.225000X0.050000X-0.225000X0.050000X0.225000X0*%
%TD*%
%TA.AperFunction,ViaPad*%
%ADD30C,0.800000*%
%TD*%
%TA.AperFunction,Conductor*%
%ADD31C,0.300000*%
%TD*%
%TA.AperFunction,Conductor*%
%ADD32C,0.400000*%
%TD*%
%TA.AperFunction,Conductor*%
%ADD33C,0.200000*%
%TD*%
%TA.AperFunction,Conductor*%
%ADD34C,0.500000*%
%TD*%
G04 APERTURE END LIST*
D10*
%TO.P,C5,1*%
%TO.N,+5V*%
X146075400Y-106601200D03*
%TO.P,C5,2*%
%TO.N,GND*%
X146075400Y-105641200D03*
%TD*%
D11*
%TO.P,R11,1*%
%TO.N,Net-(U6-SDAB)*%
X143258000Y-97663000D03*
%TO.P,R11,2*%
%TO.N,/SDA_3V3*%
X142238000Y-97663000D03*
%TD*%
D12*
%TO.P,C9,1*%
%TO.N,GND*%
X137414000Y-101628000D03*
%TO.P,C9,2*%
%TO.N,+1V8*%
X137414000Y-102588000D03*
%TD*%
D10*
%TO.P,C3,1*%
%TO.N,+3.3V*%
X137795000Y-97790000D03*
%TO.P,C3,2*%
%TO.N,GND*%
X137795000Y-96830000D03*
%TD*%
D13*
%TO.P,FID2,*%
%TO.N,*%
X149885400Y-106045000D03*
%TD*%
D14*
%TO.P,R4,1*%
%TO.N,+1V8*%
X138557000Y-98931000D03*
%TO.P,R4,2*%
%TO.N,/SDA_1V8*%
X138557000Y-99951000D03*
%TD*%
D12*
%TO.P,C11,1*%
%TO.N,+5V*%
X147193000Y-105641200D03*
%TO.P,C11,2*%
%TO.N,GND*%
X147193000Y-106601200D03*
%TD*%
D15*
%TO.P,C10,1*%
%TO.N,+3.3V*%
X132235000Y-101600000D03*
%TO.P,C10,2*%
%TO.N,GND*%
X133195000Y-101600000D03*
%TD*%
D16*
%TO.P,R3,1*%
%TO.N,+3.3V*%
X139190000Y-97663000D03*
%TO.P,R3,2*%
%TO.N,/SDA_3V3*%
X140210000Y-97663000D03*
%TD*%
D13*
%TO.P,FID1,*%
%TO.N,*%
X128524000Y-94208600D03*
%TD*%
D17*
%TO.P,D2,1,K*%
%TO.N,+5V*%
X149083800Y-94234000D03*
%TO.P,D2,2,A*%
%TO.N,GND*%
X150483800Y-94234000D03*
%TD*%
D10*
%TO.P,C12,1*%
%TO.N,GND*%
X140208000Y-103604000D03*
%TO.P,C12,2*%
%TO.N,+1V8*%
X140208000Y-102644000D03*
%TD*%
D12*
%TO.P,C13,1*%
%TO.N,+3.3V*%
X144653000Y-102517000D03*
%TO.P,C13,2*%
%TO.N,GND*%
X144653000Y-103477000D03*
%TD*%
D18*
%TO.P,U3,1,VCCA*%
%TO.N,+1V8*%
X135881000Y-103165000D03*
%TO.P,U3,2,SCLA*%
%TO.N,/P_SCL_1V8*%
X135881000Y-103815000D03*
%TO.P,U3,3,SDAA*%
%TO.N,/P_SDA_1V8*%
X135881000Y-104465000D03*
%TO.P,U3,4,GND*%
%TO.N,GND*%
X135881000Y-105115000D03*
%TO.P,U3,5,EN*%
%TO.N,unconnected-(U3-EN-Pad5)*%
X131581000Y-105115000D03*
%TO.P,U3,6,SDAB*%
%TO.N,Net-(U1-SDA)*%
X131581000Y-104465000D03*
%TO.P,U3,7,SCLB*%
%TO.N,Net-(U1-SCL)*%
X131581000Y-103815000D03*
%TO.P,U3,8,VCCB*%
%TO.N,+3.3V*%
X131581000Y-103165000D03*
%TD*%
D19*
%TO.P,R10,1*%
%TO.N,Net-(JP2-B)*%
X123317000Y-104904000D03*
%TO.P,R10,2*%
%TO.N,GND*%
X123317000Y-103884000D03*
%TD*%
D14*
%TO.P,R1,1*%
%TO.N,Net-(U6-SCLB)*%
X141478000Y-102487000D03*
%TO.P,R1,2*%
%TO.N,/SCL_3V3*%
X141478000Y-103507000D03*
%TD*%
D12*
%TO.P,C6,1*%
%TO.N,+5V*%
X143332200Y-93906400D03*
%TO.P,C6,2*%
%TO.N,GND*%
X143332200Y-94866400D03*
%TD*%
D14*
%TO.P,R2,1*%
%TO.N,+3.3V*%
X143383000Y-102487000D03*
%TO.P,R2,2*%
%TO.N,/SCL_3V3*%
X143383000Y-103507000D03*
%TD*%
D20*
%TO.P,D1,1,K*%
%TO.N,Net-(D1-K)*%
X145810000Y-94234000D03*
%TO.P,D1,2,A*%
%TO.N,+5V*%
X147560000Y-94234000D03*
%TD*%
D21*
%TO.P,U1,1,GND*%
%TO.N,GND*%
X130516000Y-98546000D03*
%TO.P,U1,2,GND*%
X130516000Y-99546000D03*
%TO.P,U1,3,GND*%
X130516000Y-100546000D03*
D22*
%TO.P,U1,4,IRQn*%
%TO.N,unconnected-(U1-IRQn-Pad4)*%
X129066000Y-102246000D03*
%TO.P,U1,5,SCL*%
%TO.N,Net-(U1-SCL)*%
X128066000Y-102246000D03*
%TO.P,U1,6,GND*%
%TO.N,GND*%
X127066000Y-102246000D03*
%TO.P,U1,7,VDD*%
%TO.N,+3.3V*%
X126066000Y-102246000D03*
%TO.P,U1,8,SDA*%
%TO.N,Net-(U1-SDA)*%
X125066000Y-102246000D03*
D21*
%TO.P,U1,9,ADDR*%
%TO.N,Net-(JP2-C)*%
X123616000Y-100546000D03*
%TO.P,U1,10,GND*%
%TO.N,GND*%
X123616000Y-99546000D03*
%TO.P,U1,11,GND*%
X123616000Y-98546000D03*
D22*
%TO.P,U1,12*%
%TO.N,N/C*%
X125066000Y-96846000D03*
%TO.P,U1,13*%
X126066000Y-96846000D03*
%TO.P,U1,14*%
X127066000Y-96846000D03*
%TO.P,U1,15*%
X128066000Y-96846000D03*
%TO.P,U1,16*%
X129066000Y-96846000D03*
D23*
%TO.P,U1,17,GND*%
%TO.N,GND*%
X127066000Y-98696000D03*
%TO.P,U1,18,GND*%
X127066000Y-100396000D03*
%TD*%
D24*
%TO.P,J1,1*%
%TO.N,+5V*%
X146994000Y-98321000D03*
%TO.P,J1,2*%
%TO.N,/SCL_3V3*%
X146994000Y-99571000D03*
%TO.P,J1,3*%
%TO.N,/SDA_3V3*%
X146994000Y-100821000D03*
%TO.P,J1,4*%
%TO.N,GND*%
X146994000Y-102071000D03*
D25*
%TO.P,J1,MP*%
X150194000Y-96471000D03*
X150194000Y-103921000D03*
%TD*%
D26*
%TO.P,C2,1*%
%TO.N,+1V8*%
X133957000Y-95377000D03*
%TO.P,C2,2*%
%TO.N,GND*%
X132997000Y-95377000D03*
%TD*%
D15*
%TO.P,C4,1*%
%TO.N,Net-(U2-REGOUT)*%
X135791000Y-95250000D03*
%TO.P,C4,2*%
%TO.N,GND*%
X136751000Y-95250000D03*
%TD*%
D11*
%TO.P,R8,1*%
%TO.N,+1V8*%
X138559000Y-104902000D03*
%TO.P,R8,2*%
%TO.N,/P_SDA_1V8*%
X137539000Y-104902000D03*
%TD*%
D14*
%TO.P,R12,1*%
%TO.N,Net-(D1-K)*%
X144856200Y-95629000D03*
%TO.P,R12,2*%
%TO.N,GND*%
X144856200Y-96649000D03*
%TD*%
D15*
%TO.P,C1,1*%
%TO.N,+3.3V*%
X126139000Y-104267000D03*
%TO.P,C1,2*%
%TO.N,GND*%
X127099000Y-104267000D03*
%TD*%
D12*
%TO.P,C8,1*%
%TO.N,+1V8*%
X137922000Y-94135000D03*
%TO.P,C8,2*%
%TO.N,GND*%
X137922000Y-95095000D03*
%TD*%
D19*
%TO.P,R5,1*%
%TO.N,+1V8*%
X138557000Y-102110000D03*
%TO.P,R5,2*%
%TO.N,/SCL_1V8*%
X138557000Y-101090000D03*
%TD*%
D14*
%TO.P,R6,1*%
%TO.N,+3.3V*%
X127000000Y-105408000D03*
%TO.P,R6,2*%
%TO.N,Net-(U1-SDA)*%
X127000000Y-106428000D03*
%TD*%
D18*
%TO.P,U6,1,VCCA*%
%TO.N,+1V8*%
X140217000Y-101178000D03*
%TO.P,U6,2,SCLA*%
%TO.N,/SCL_1V8*%
X140217000Y-100528000D03*
%TO.P,U6,3,SDAA*%
%TO.N,/SDA_1V8*%
X140217000Y-99878000D03*
%TO.P,U6,4,GND*%
%TO.N,GND*%
X140217000Y-99228000D03*
%TO.P,U6,5,EN*%
%TO.N,unconnected-(U6-EN-Pad5)*%
X144517000Y-99228000D03*
%TO.P,U6,6,SDAB*%
%TO.N,Net-(U6-SDAB)*%
X144517000Y-99878000D03*
%TO.P,U6,7,SCLB*%
%TO.N,Net-(U6-SCLB)*%
X144517000Y-100528000D03*
%TO.P,U6,8,VCCB*%
%TO.N,+3.3V*%
X144517000Y-101178000D03*
%TD*%
D19*
%TO.P,R7,1*%
%TO.N,+3.3V*%
X128397000Y-105160000D03*
%TO.P,R7,2*%
%TO.N,Net-(U1-SCL)*%
X128397000Y-104140000D03*
%TD*%
D27*
%TO.P,U5,1,VIN*%
%TO.N,+5V*%
X141726500Y-93919000D03*
%TO.P,U5,2,GND*%
%TO.N,GND*%
X141726500Y-94869000D03*
%TO.P,U5,3,EN*%
%TO.N,+5V*%
X141726500Y-95819000D03*
%TO.P,U5,4,NC*%
%TO.N,unconnected-(U5-NC-Pad4)*%
X139451500Y-95819000D03*
%TO.P,U5,5,VOUT*%
%TO.N,+1V8*%
X139451500Y-93919000D03*
%TD*%
D11*
%TO.P,R9,1*%
%TO.N,+1V8*%
X138559000Y-103759000D03*
%TO.P,R9,2*%
%TO.N,/P_SCL_1V8*%
X137539000Y-103759000D03*
%TD*%
D27*
%TO.P,U4,1,VIN*%
%TO.N,+5V*%
X144393500Y-104714000D03*
%TO.P,U4,2,GND*%
%TO.N,GND*%
X144393500Y-105664000D03*
%TO.P,U4,3,EN*%
%TO.N,+5V*%
X144393500Y-106614000D03*
%TO.P,U4,4,NC*%
%TO.N,unconnected-(U4-NC-Pad4)*%
X142118500Y-106614000D03*
%TO.P,U4,5,VOUT*%
%TO.N,+3.3V*%
X142118500Y-104714000D03*
%TD*%
D12*
%TO.P,C7,1*%
%TO.N,+3.3V*%
X140208000Y-104930000D03*
%TO.P,C7,2*%
%TO.N,GND*%
X140208000Y-105890000D03*
%TD*%
D28*
%TO.P,U2,1,NC*%
%TO.N,unconnected-(U2-NC-Pad1)*%
X133374000Y-99171000D03*
%TO.P,U2,2,NC*%
%TO.N,unconnected-(U2-NC-Pad2)*%
X133374000Y-98771000D03*
%TO.P,U2,3,NC*%
%TO.N,unconnected-(U2-NC-Pad3)*%
X133374000Y-98371000D03*
%TO.P,U2,4,NC*%
%TO.N,unconnected-(U2-NC-Pad4)*%
X133374000Y-97971000D03*
%TO.P,U2,5,NC*%
%TO.N,unconnected-(U2-NC-Pad5)*%
X133374000Y-97571000D03*
%TO.P,U2,6,NC*%
%TO.N,unconnected-(U2-NC-Pad6)*%
X133374000Y-97171000D03*
D29*
%TO.P,U2,7,AUX_CL*%
%TO.N,/P_SCL_1V8*%
X133874000Y-96671000D03*
%TO.P,U2,8,VDDIO*%
%TO.N,+1V8*%
X134274000Y-96671000D03*
%TO.P,U2,9,SDO/AD0*%
%TO.N,Net-(JP1-C)*%
X134674000Y-96671000D03*
%TO.P,U2,10,REGOUT*%
%TO.N,Net-(U2-REGOUT)*%
X135074000Y-96671000D03*
%TO.P,U2,11,FSYNC*%
%TO.N,GND*%
X135474000Y-96671000D03*
%TO.P,U2,12,INT1*%
%TO.N,unconnected-(U2-INT1-Pad12)*%
X135874000Y-96671000D03*
D28*
%TO.P,U2,13,VDD*%
%TO.N,+3.3V*%
X136374000Y-97171000D03*
%TO.P,U2,14,NC*%
%TO.N,unconnected-(U2-NC-Pad14)*%
X136374000Y-97571000D03*
%TO.P,U2,15,NC*%
%TO.N,unconnected-(U2-NC-Pad15)*%
X136374000Y-97971000D03*
%TO.P,U2,16,NC*%
%TO.N,unconnected-(U2-NC-Pad16)*%
X136374000Y-98371000D03*
%TO.P,U2,17,NC*%
%TO.N,unconnected-(U2-NC-Pad17)*%
X136374000Y-98771000D03*
%TO.P,U2,18,GND*%
%TO.N,GND*%
X136374000Y-99171000D03*
D29*
%TO.P,U2,19,RESV*%
%TO.N,unconnected-(U2-RESV-Pad19)*%
X135874000Y-99671000D03*
%TO.P,U2,20,GND*%
%TO.N,GND*%
X135474000Y-99671000D03*
%TO.P,U2,21,AUX_DA*%
%TO.N,/P_SDA_1V8*%
X135074000Y-99671000D03*
%TO.P,U2,22,~{CS}*%
%TO.N,+1V8*%
X134674000Y-99671000D03*
%TO.P,U2,23,SCL/SCLK*%
%TO.N,/SCL_1V8*%
X134274000Y-99671000D03*
%TO.P,U2,24,SDA/SDI*%
%TO.N,/SDA_1V8*%
X133874000Y-99671000D03*
%TD*%
D30*
%TO.N,GND*%
X130556000Y-96012000D03*
X150749000Y-96494600D03*
X143179800Y-96596200D03*
X150698200Y-97866200D03*
X124129800Y-95072200D03*
X150749000Y-103936800D03*
X130048000Y-106680000D03*
X148285200Y-106654600D03*
X149733000Y-102616000D03*
X141524561Y-99617529D03*
X132207000Y-94488000D03*
X136525000Y-106553000D03*
X132791200Y-103733600D03*
X150749000Y-100330000D03*
X133121400Y-104546400D03*
X122682000Y-102743000D03*
X150749000Y-99060000D03*
X137541000Y-98806000D03*
X149479000Y-96469200D03*
X130886200Y-94183200D03*
X142966000Y-100396000D03*
X132207000Y-106680000D03*
X122936000Y-96012000D03*
X142976600Y-105664000D03*
X139192000Y-106553000D03*
X150749000Y-101600000D03*
X122682000Y-106045000D03*
X136880600Y-96291400D03*
X145897600Y-103530400D03*
X126136400Y-94589600D03*
X146024600Y-97180400D03*
X147167600Y-103149400D03*
X139446000Y-104267000D03*
X128676400Y-99517200D03*
X148564600Y-101320600D03*
X149326600Y-103936800D03*
X137922000Y-106553000D03*
X131191000Y-106680000D03*
X145872200Y-95656400D03*
X147955000Y-97028000D03*
X125425200Y-99568000D03*
X144266000Y-98296000D03*
X144475200Y-93726000D03*
X136398000Y-101981000D03*
X136575800Y-100533200D03*
X150749000Y-102616000D03*
X141300200Y-105664000D03*
X141732000Y-94869000D03*
%TO.N,+1V8*%
X141417942Y-98623729D03*
X136779000Y-94107000D03*
%TO.N,Net-(JP1-C)*%
X134836500Y-95267964D03*
%TO.N,/SCL_3V3*%
X142519406Y-103609204D03*
X148566000Y-99596000D03*
%TO.N,/SDA_3V3*%
X141220163Y-97643990D03*
X145669000Y-100838000D03*
%TO.N,/SDA_1V8*%
X137541000Y-99805503D03*
X133197595Y-99872795D03*
%TO.N,/SCL_1V8*%
X137810950Y-100767860D03*
X134074511Y-101473000D03*
%TO.N,Net-(JP2-C)*%
X123825000Y-102870000D03*
%TO.N,Net-(JP2-B)*%
X124316500Y-104619958D03*
%TO.N,/P_SDA_1V8*%
X134131944Y-104076898D03*
X135473511Y-102362000D03*
%TO.N,/P_SCL_1V8*%
X133731000Y-103124000D03*
X132003800Y-96672400D03*
%TO.N,+3.3V*%
X138534069Y-97893979D03*
X142553609Y-102609339D03*
X140866000Y-104394000D03*
X129518166Y-104626166D03*
X130175000Y-103065500D03*
%TD*%
D31*
%TO.N,GND*%
X147271800Y-106603800D02*
X147195600Y-106603800D01*
X141732000Y-94869000D02*
X143329600Y-94869000D01*
D32*
X145665342Y-105641200D02*
X146075400Y-105641200D01*
D33*
X135677640Y-96096000D02*
X136454000Y-96096000D01*
D31*
X143329600Y-94869000D02*
X143332200Y-94866400D01*
D33*
X136374000Y-99171000D02*
X137176000Y-99171000D01*
D31*
X147195600Y-106603800D02*
X147193000Y-106601200D01*
X127066000Y-104234000D02*
X127099000Y-104267000D01*
D33*
X135474000Y-96671000D02*
X135474000Y-96299640D01*
X136454000Y-96096000D02*
X136751000Y-96393000D01*
X137176000Y-99171000D02*
X137541000Y-98806000D01*
D32*
X145642542Y-105664000D02*
X145643167Y-105664625D01*
X144393500Y-105664000D02*
X145642542Y-105664000D01*
D33*
X135474000Y-96299640D02*
X135677640Y-96096000D01*
D31*
X142866000Y-100396000D02*
X142966000Y-100396000D01*
D32*
X145642542Y-105664000D02*
X145665342Y-105641200D01*
D31*
X127066000Y-102246000D02*
X127066000Y-104234000D01*
%TO.N,+5V*%
X144046000Y-95834200D02*
X141741700Y-95834200D01*
X148361400Y-102870000D02*
X148005800Y-103225600D01*
X147647600Y-105641200D02*
X147193000Y-105641200D01*
X147193000Y-105641200D02*
X147193000Y-105601800D01*
X149402800Y-101828600D02*
X148361400Y-102870000D01*
D34*
X146994000Y-94800000D02*
X147560000Y-94234000D01*
D31*
X141741700Y-95834200D02*
X141726500Y-95819000D01*
X144046000Y-96956999D02*
X144046000Y-95576246D01*
X142306000Y-93919000D02*
X141726500Y-93919000D01*
D34*
X146994000Y-98321000D02*
X146994000Y-94800000D01*
D31*
X144046000Y-94490600D02*
X143461800Y-93906400D01*
X144546201Y-97457200D02*
X144046000Y-96956999D01*
X144856200Y-97457200D02*
X144546201Y-97457200D01*
X146305200Y-104714000D02*
X144393500Y-104714000D01*
X148005800Y-105283000D02*
X147647600Y-105641200D01*
X144046000Y-95576246D02*
X144046000Y-94490600D01*
X148005800Y-103225600D02*
X148005800Y-105283000D01*
X144046000Y-95576246D02*
X144046000Y-95834200D01*
X143319600Y-93919000D02*
X141726500Y-93919000D01*
X146144000Y-106614000D02*
X144393500Y-106614000D01*
X145720000Y-98321000D02*
X144856200Y-97457200D01*
X149402800Y-99314000D02*
X149402800Y-101828600D01*
X143461800Y-93906400D02*
X143332200Y-93906400D01*
X143332200Y-93906400D02*
X143319600Y-93919000D01*
D34*
X147560000Y-94234000D02*
X149083800Y-94234000D01*
D31*
X147193000Y-105601800D02*
X146305200Y-104714000D01*
X146994000Y-98321000D02*
X145720000Y-98321000D01*
X146994000Y-98321000D02*
X148409800Y-98321000D01*
X148409800Y-98321000D02*
X149402800Y-99314000D01*
X147193000Y-105565000D02*
X146144000Y-106614000D01*
X142435600Y-93919000D02*
X141726500Y-93919000D01*
D33*
%TO.N,+1V8*%
X134774011Y-102897011D02*
X135042000Y-103165000D01*
D31*
X138559000Y-102903000D02*
X138557000Y-102901000D01*
X135881000Y-103165000D02*
X136837000Y-103165000D01*
X140208000Y-102644000D02*
X140208000Y-101187000D01*
X133957000Y-95038187D02*
X133957000Y-95377000D01*
X137894000Y-94107000D02*
X137922000Y-94135000D01*
X142057729Y-98623729D02*
X141417942Y-98623729D01*
D33*
X134674000Y-99671000D02*
X134674000Y-101088995D01*
D31*
X136837000Y-103165000D02*
X137414000Y-102588000D01*
X141084000Y-101178000D02*
X141616000Y-100646000D01*
X138557000Y-102901000D02*
X138557000Y-102110000D01*
X140217000Y-101178000D02*
X140217000Y-102099000D01*
X142367000Y-99835044D02*
X142367000Y-98933000D01*
D33*
X134774011Y-101189006D02*
X134774011Y-102897011D01*
D31*
X140206000Y-102110000D02*
X140217000Y-102099000D01*
X138171000Y-102901000D02*
X137858000Y-102588000D01*
X140217000Y-102635000D02*
X140208000Y-102644000D01*
X138559000Y-102603000D02*
X138559000Y-102463000D01*
X141616000Y-100646000D02*
X141616000Y-100586044D01*
X138559000Y-104902000D02*
X138559000Y-103759000D01*
X139063000Y-98425000D02*
X141224000Y-98425000D01*
X137414000Y-102588000D02*
X137858000Y-102588000D01*
X138557000Y-102901000D02*
X138171000Y-102901000D01*
X139714000Y-102644000D02*
X140208000Y-102644000D01*
D33*
X134674000Y-101088995D02*
X134774011Y-101189006D01*
D31*
X139451500Y-93919000D02*
X138138000Y-93919000D01*
X136367547Y-94518453D02*
X134476734Y-94518453D01*
X138559000Y-102903000D02*
X138559000Y-102603000D01*
X140217000Y-101178000D02*
X141084000Y-101178000D01*
X141616000Y-100586044D02*
X142367000Y-99835044D01*
X134476734Y-94518453D02*
X133957000Y-95038187D01*
X140217000Y-102099000D02*
X140217000Y-102635000D01*
X138138000Y-93919000D02*
X137922000Y-94135000D01*
X138557000Y-102110000D02*
X139180000Y-102110000D01*
X138557000Y-98931000D02*
X139063000Y-98425000D01*
X138559000Y-103759000D02*
X138559000Y-102903000D01*
X136779000Y-94107000D02*
X136367547Y-94518453D01*
X142367000Y-98933000D02*
X142057729Y-98623729D01*
X138912000Y-102110000D02*
X138557000Y-102110000D01*
D33*
X134274000Y-95870499D02*
X133957000Y-95553499D01*
D31*
X136779000Y-94107000D02*
X137894000Y-94107000D01*
X139180000Y-102110000D02*
X139714000Y-102644000D01*
X140208000Y-101187000D02*
X140217000Y-101178000D01*
D33*
X135042000Y-103165000D02*
X135881000Y-103165000D01*
X134274000Y-96671000D02*
X134274000Y-95870499D01*
X133957000Y-95553499D02*
X133957000Y-95377000D01*
D31*
X141224000Y-98425000D02*
X141605000Y-98806000D01*
D33*
%TO.N,Net-(U2-REGOUT)*%
X135791000Y-95416955D02*
X135074000Y-96133955D01*
X135791000Y-95250000D02*
X135791000Y-95416955D01*
X135074000Y-96133955D02*
X135074000Y-96671000D01*
%TO.N,Net-(JP1-C)*%
X134848600Y-95757427D02*
X134674000Y-95932028D01*
X134836500Y-95267964D02*
X134848600Y-95280064D01*
X134848600Y-95280064D02*
X134848600Y-95757427D01*
X134674000Y-95932028D02*
X134674000Y-96671000D01*
D31*
%TO.N,/SCL_3V3*%
X142417202Y-103507000D02*
X142519406Y-103609204D01*
X143383000Y-103507000D02*
X142621610Y-103507000D01*
X146994000Y-99571000D02*
X148541000Y-99571000D01*
X142621610Y-103507000D02*
X142519406Y-103609204D01*
X148541000Y-99571000D02*
X148566000Y-99596000D01*
X141478000Y-103507000D02*
X142417202Y-103507000D01*
%TO.N,/SDA_3V3*%
X141478000Y-97663000D02*
X140210000Y-97663000D01*
X146994000Y-100821000D02*
X145686000Y-100821000D01*
X142238000Y-97663000D02*
X141239173Y-97663000D01*
X145686000Y-100821000D02*
X145669000Y-100838000D01*
X141239173Y-97663000D02*
X141220163Y-97643990D01*
D33*
%TO.N,/SDA_1V8*%
X133874000Y-99671000D02*
X133874000Y-99872795D01*
D31*
X137686497Y-99951000D02*
X138557000Y-99951000D01*
X137541000Y-99805503D02*
X137686497Y-99951000D01*
X140144000Y-99951000D02*
X138557000Y-99951000D01*
D33*
X133874000Y-99872795D02*
X133197595Y-99872795D01*
D31*
X140217000Y-99878000D02*
X140144000Y-99951000D01*
%TO.N,/SCL_1V8*%
X139119000Y-100528000D02*
X138557000Y-101090000D01*
X138465480Y-100998480D02*
X138557000Y-101090000D01*
X137810950Y-100767860D02*
X138041570Y-100998480D01*
D33*
X134274000Y-101273511D02*
X134274000Y-99671000D01*
D31*
X140217000Y-100528000D02*
X139119000Y-100528000D01*
D33*
X134074511Y-101473000D02*
X134274000Y-101273511D01*
D31*
X138041570Y-100998480D02*
X138465480Y-100998480D01*
%TO.N,Net-(JP2-C)*%
X123825000Y-102870000D02*
X124206000Y-102489000D01*
X124168000Y-100546000D02*
X124206000Y-100584000D01*
X123616000Y-100546000D02*
X124168000Y-100546000D01*
X124206000Y-100584000D02*
X124206000Y-102489000D01*
%TO.N,Net-(JP2-B)*%
X124032458Y-104904000D02*
X124316500Y-104619958D01*
X123317000Y-104904000D02*
X124032458Y-104904000D01*
%TO.N,Net-(U6-SCLB)*%
X141478000Y-102487000D02*
X142819499Y-101145501D01*
X142819499Y-101145501D02*
X143276455Y-101145501D01*
X143276455Y-101145501D02*
X143893956Y-100528000D01*
X143893956Y-100528000D02*
X144517000Y-100528000D01*
D33*
%TO.N,/P_SDA_1V8*%
X135173531Y-100756531D02*
X135074000Y-100657000D01*
X135173531Y-102062020D02*
X135173531Y-100756531D01*
X135473511Y-102362000D02*
X135173531Y-102062020D01*
D31*
X134520046Y-104465000D02*
X135881000Y-104465000D01*
X135881000Y-104465000D02*
X137102000Y-104465000D01*
D33*
X135074000Y-100657000D02*
X135074000Y-99671000D01*
D31*
X134131944Y-104076898D02*
X134520046Y-104465000D01*
X137102000Y-104465000D02*
X137539000Y-104902000D01*
%TO.N,/P_SCL_1V8*%
X137483000Y-103815000D02*
X137539000Y-103759000D01*
X135881000Y-103815000D02*
X134930000Y-103815000D01*
X134930000Y-103815000D02*
X134239000Y-103124000D01*
X135881000Y-103815000D02*
X137483000Y-103815000D01*
D33*
X133874000Y-96671000D02*
X132005200Y-96671000D01*
D31*
X134239000Y-103124000D02*
X133731000Y-103124000D01*
D33*
X132005200Y-96671000D02*
X132003800Y-96672400D01*
D31*
%TO.N,Net-(U1-SDA)*%
X125066000Y-105254000D02*
X126240000Y-106428000D01*
X126240000Y-106428000D02*
X127000000Y-106428000D01*
X127000000Y-106428000D02*
X128776286Y-106428000D01*
X128776286Y-106428000D02*
X130739286Y-104465000D01*
X130739286Y-104465000D02*
X131581000Y-104465000D01*
X125066000Y-102146000D02*
X125066000Y-105254000D01*
%TO.N,Net-(U1-SCL)*%
X131581000Y-103815000D02*
X129847000Y-103815000D01*
X128066000Y-103809000D02*
X128072000Y-103815000D01*
X129147000Y-103815000D02*
X128822000Y-104140000D01*
X128072000Y-103815000D02*
X128397000Y-104140000D01*
X129847000Y-103815000D02*
X129147000Y-103815000D01*
X128822000Y-104140000D02*
X128397000Y-104140000D01*
X128066000Y-102146000D02*
X128066000Y-103809000D01*
%TO.N,Net-(U6-SDAB)*%
X143693000Y-99878000D02*
X144517000Y-99878000D01*
X143258000Y-99443000D02*
X143693000Y-99878000D01*
X143258000Y-97663000D02*
X143258000Y-99443000D01*
%TO.N,+3.3V*%
X127554000Y-105408000D02*
X127000000Y-105408000D01*
D32*
X141186000Y-104714000D02*
X140866000Y-104394000D01*
D31*
X130274500Y-103165000D02*
X130175000Y-103065500D01*
X131581000Y-103165000D02*
X131988200Y-103165000D01*
X131988200Y-103165000D02*
X132235000Y-102918200D01*
D32*
X143383000Y-102487000D02*
X144623000Y-102487000D01*
D31*
X126878000Y-105408000D02*
X126139000Y-104669000D01*
D32*
X140330000Y-104930000D02*
X140866000Y-104394000D01*
D33*
X136374000Y-97171000D02*
X137176000Y-97171000D01*
D31*
X128397000Y-105160000D02*
X128984332Y-105160000D01*
X127000000Y-105408000D02*
X126878000Y-105408000D01*
X126139000Y-104267000D02*
X126139000Y-104669000D01*
D32*
X142675948Y-102487000D02*
X142553609Y-102609339D01*
D33*
X137176000Y-97171000D02*
X137795000Y-97790000D01*
D31*
X132235000Y-102918200D02*
X132235000Y-101600000D01*
X128397000Y-105160000D02*
X127802000Y-105160000D01*
D32*
X142118500Y-104714000D02*
X141186000Y-104714000D01*
X140208000Y-104930000D02*
X140330000Y-104930000D01*
D31*
X144517000Y-101178000D02*
X144517000Y-102381000D01*
D32*
X144623000Y-102487000D02*
X144653000Y-102517000D01*
D31*
X127802000Y-105160000D02*
X127554000Y-105408000D01*
D33*
X137795000Y-97790000D02*
X139063000Y-97790000D01*
X138430090Y-97790000D02*
X138534069Y-97893979D01*
D31*
X126066000Y-102146000D02*
X126066000Y-104194000D01*
D33*
X137795000Y-97790000D02*
X138430090Y-97790000D01*
D31*
X131581000Y-103165000D02*
X130274500Y-103165000D01*
X128984332Y-105160000D02*
X129518166Y-104626166D01*
D32*
X143383000Y-102487000D02*
X142675948Y-102487000D01*
D31*
X144517000Y-102381000D02*
X144653000Y-102517000D01*
D33*
X139063000Y-97790000D02*
X139190000Y-97663000D01*
D31*
%TO.N,Net-(D1-K)*%
X144856200Y-95187800D02*
X145810000Y-94234000D01*
X144856200Y-95629000D02*
X144856200Y-95187800D01*
%TD*%
%TA.AperFunction,Conductor*%
%TO.N,GND*%
G36*
X127961655Y-93215407D02*
G01*
X127997619Y-93264907D01*
X127997619Y-93326093D01*
X127966269Y-93372028D01*
X127813121Y-93497712D01*
X127813112Y-93497721D01*
X127688093Y-93650057D01*
X127688087Y-93650067D01*
X127595188Y-93823867D01*
X127595187Y-93823869D01*
X127537975Y-94012470D01*
X127537974Y-94012473D01*
X127518659Y-94208596D01*
X127518659Y-94208603D01*
X127537974Y-94404726D01*
X127537975Y-94404729D01*
X127595187Y-94593330D01*
X127595188Y-94593332D01*
X127662359Y-94718999D01*
X127688090Y-94767138D01*
X127688092Y-94767140D01*
X127688093Y-94767142D01*
X127813112Y-94919478D01*
X127813121Y-94919487D01*
X127965457Y-95044506D01*
X127965462Y-95044510D01*
X128076012Y-95103600D01*
X128138002Y-95136735D01*
X128139273Y-95137414D01*
X128327868Y-95194624D01*
X128327870Y-95194624D01*
X128327873Y-95194625D01*
X128523997Y-95213941D01*
X128524000Y-95213941D01*
X128524003Y-95213941D01*
X128720126Y-95194625D01*
X128720127Y-95194624D01*
X128720132Y-95194624D01*
X128908727Y-95137414D01*
X129082538Y-95044510D01*
X129234883Y-94919483D01*
X129359910Y-94767138D01*
X129452814Y-94593327D01*
X129510024Y-94404732D01*
X129510766Y-94397205D01*
X129529341Y-94208603D01*
X129529341Y-94208596D01*
X129510025Y-94012473D01*
X129510024Y-94012470D01*
X129510024Y-94012468D01*
X129452814Y-93823873D01*
X129451071Y-93820613D01*
X129405706Y-93735740D01*
X129359910Y-93650062D01*
X129343283Y-93629802D01*
X129234887Y-93497721D01*
X129234878Y-93497712D01*
X129081731Y-93372028D01*
X129048744Y-93320497D01*
X129052346Y-93259418D01*
X129091161Y-93212121D01*
X129144536Y-93196500D01*
X151066500Y-93196500D01*
X151124691Y-93215407D01*
X151160655Y-93264907D01*
X151165500Y-93295500D01*
X151165500Y-93602428D01*
X151146593Y-93660619D01*
X151097093Y-93696583D01*
X151035907Y-93696583D01*
X150996496Y-93672432D01*
X150956277Y-93632213D01*
X150853672Y-93586909D01*
X150828597Y-93584000D01*
X150633801Y-93584000D01*
X150633800Y-93584001D01*
X150633800Y-94883998D01*
X150633801Y-94883999D01*
X150828590Y-94883999D01*
X150828591Y-94883998D01*
X150853674Y-94881090D01*
X150956277Y-94835786D01*
X150996496Y-94795568D01*
X151051013Y-94767791D01*
X151111445Y-94777362D01*
X151154710Y-94820627D01*
X151165500Y-94865572D01*
X151165500Y-95572000D01*
X151146593Y-95630191D01*
X151097093Y-95666155D01*
X151066500Y-95671000D01*
X150344001Y-95671000D01*
X150344000Y-95671001D01*
X150344000Y-97270999D01*
X150344001Y-97271000D01*
X151066500Y-97271000D01*
X151124691Y-97289907D01*
X151160655Y-97339407D01*
X151165500Y-97370000D01*
X151165500Y-103022000D01*
X151146593Y-103080191D01*
X151097093Y-103116155D01*
X151066500Y-103121000D01*
X150344001Y-103121000D01*
X150344000Y-103121001D01*
X150344000Y-104720999D01*
X150344001Y-104721000D01*
X151066500Y-104721000D01*
X151124691Y-104739907D01*
X151160655Y-104789407D01*
X151165500Y-104820000D01*
X151165500Y-107096500D01*
X151146593Y-107154691D01*
X151097093Y-107190655D01*
X151066500Y-107195500D01*
X150206730Y-107195500D01*
X150148539Y-107176593D01*
X150112575Y-107127093D01*
X150112575Y-107065907D01*
X150148539Y-107016407D01*
X150177989Y-107001763D01*
X150270127Y-106973814D01*
X150443938Y-106880910D01*
X150596283Y-106755883D01*
X150721310Y-106603538D01*
X150814214Y-106429727D01*
X150871424Y-106241132D01*
X150871741Y-106237920D01*
X150890741Y-106045003D01*
X150890741Y-106044996D01*
X150871425Y-105848873D01*
X150871424Y-105848870D01*
X150871424Y-105848868D01*
X150814214Y-105660273D01*
X150721310Y-105486462D01*
X150709653Y-105472258D01*
X150596287Y-105334121D01*
X150596278Y-105334112D01*
X150443942Y-105209093D01*
X150443940Y-105209092D01*
X150443938Y-105209090D01*
X150364855Y-105166819D01*
X150270132Y-105116188D01*
X150270130Y-105116187D01*
X150264565Y-105114499D01*
X150145287Y-105078316D01*
X150081529Y-105058975D01*
X150081526Y-105058974D01*
X149885403Y-105039659D01*
X149885397Y-105039659D01*
X149689273Y-105058974D01*
X149689270Y-105058975D01*
X149500669Y-105116187D01*
X149500667Y-105116188D01*
X149326867Y-105209087D01*
X149326857Y-105209093D01*
X149174521Y-105334112D01*
X149174512Y-105334121D01*
X149049493Y-105486457D01*
X149049487Y-105486467D01*
X148956588Y-105660267D01*
X148956587Y-105660269D01*
X148899375Y-105848870D01*
X148899374Y-105848873D01*
X148880059Y-106044996D01*
X148880059Y-106045003D01*
X148899374Y-106241126D01*
X148899375Y-106241129D01*
X148956587Y-106429730D01*
X148956588Y-106429732D01*
X148989876Y-106492009D01*
X149049490Y-106603538D01*
X149049492Y-106603540D01*
X149049493Y-106603542D01*
X149174512Y-106755878D01*
X149174521Y-106755887D01*
X149307957Y-106865395D01*
X149326862Y-106880910D01*
X149500673Y-106973814D01*
X149592809Y-107001763D01*
X149643005Y-107036748D01*
X149663051Y-107094557D01*
X149645290Y-107153107D01*
X149596505Y-107190036D01*
X149564070Y-107195500D01*
X147770676Y-107195500D01*
X147712485Y-107176593D01*
X147676521Y-107127093D01*
X147676521Y-107065907D01*
X147691021Y-107037711D01*
X147756405Y-106949120D01*
X147800212Y-106823927D01*
X147803000Y-106794200D01*
X147803000Y-106751201D01*
X147802999Y-106751200D01*
X147142000Y-106751200D01*
X147083809Y-106732293D01*
X147047845Y-106682793D01*
X147043000Y-106652200D01*
X147043000Y-106550200D01*
X147061907Y-106492009D01*
X147111407Y-106456045D01*
X147142000Y-106451200D01*
X147802998Y-106451200D01*
X147802999Y-106451199D01*
X147802999Y-106408196D01*
X147800213Y-106378478D01*
X147800212Y-106378473D01*
X147756405Y-106253279D01*
X147673235Y-106140590D01*
X147675858Y-106138653D01*
X147654444Y-106096623D01*
X147664015Y-106036191D01*
X147707280Y-105992926D01*
X147739980Y-105982896D01*
X147748993Y-105981773D01*
X147748996Y-105981771D01*
X147756029Y-105979677D01*
X147762975Y-105977292D01*
X147762981Y-105977292D01*
X147806255Y-105953871D01*
X147809879Y-105952007D01*
X147854082Y-105930399D01*
X147854082Y-105930398D01*
X147854084Y-105930398D01*
X147854085Y-105930396D01*
X147860070Y-105926123D01*
X147865855Y-105921620D01*
X147865855Y-105921619D01*
X147865858Y-105921618D01*
X147899179Y-105885420D01*
X147901964Y-105882516D01*
X148220684Y-105563796D01*
X148236534Y-105550926D01*
X148246469Y-105544437D01*
X148265251Y-105520303D01*
X148273377Y-105511104D01*
X148274175Y-105510307D01*
X148285672Y-105494201D01*
X148288073Y-105490981D01*
X148318317Y-105452126D01*
X148318317Y-105452123D01*
X148321808Y-105445673D01*
X148325037Y-105439070D01*
X148325037Y-105439067D01*
X148325039Y-105439066D01*
X148339078Y-105391905D01*
X148340323Y-105388022D01*
X148356300Y-105341488D01*
X148356300Y-105341484D01*
X148357506Y-105334259D01*
X148358417Y-105326954D01*
X148356385Y-105277824D01*
X148356300Y-105273733D01*
X148356300Y-104305754D01*
X148375207Y-104247563D01*
X148424707Y-104211599D01*
X148485893Y-104211599D01*
X148535393Y-104247563D01*
X148553594Y-104293950D01*
X148554613Y-104302443D01*
X148610080Y-104443095D01*
X148701435Y-104563564D01*
X148821904Y-104654919D01*
X148962556Y-104710386D01*
X149050935Y-104720999D01*
X149050942Y-104721000D01*
X150043999Y-104721000D01*
X150044000Y-104720999D01*
X150044000Y-103121001D01*
X150043999Y-103121000D01*
X149050935Y-103121000D01*
X148962556Y-103131613D01*
X148821901Y-103187081D01*
X148821899Y-103187082D01*
X148808698Y-103197093D01*
X148750906Y-103217187D01*
X148692341Y-103199474D01*
X148655372Y-103150721D01*
X148654120Y-103089548D01*
X148678875Y-103048206D01*
X149617684Y-102109396D01*
X149633534Y-102096526D01*
X149643469Y-102090037D01*
X149662251Y-102065903D01*
X149670377Y-102056704D01*
X149671175Y-102055907D01*
X149682686Y-102039782D01*
X149685088Y-102036562D01*
X149715317Y-101997726D01*
X149715317Y-101997723D01*
X149718823Y-101991245D01*
X149722037Y-101984671D01*
X149722037Y-101984669D01*
X149722040Y-101984666D01*
X149736087Y-101937481D01*
X149737312Y-101933654D01*
X149753300Y-101887088D01*
X149753300Y-101887083D01*
X149754507Y-101879854D01*
X149755417Y-101872554D01*
X149753385Y-101823423D01*
X149753300Y-101819332D01*
X149753300Y-99360618D01*
X149755407Y-99340302D01*
X149756324Y-99335929D01*
X149757843Y-99328685D01*
X149754060Y-99298336D01*
X149753300Y-99286092D01*
X149753300Y-99284959D01*
X149750049Y-99265478D01*
X149749459Y-99261430D01*
X149747405Y-99244952D01*
X149743373Y-99212607D01*
X149743372Y-99212605D01*
X149743372Y-99212603D01*
X149741279Y-99205575D01*
X149738891Y-99198616D01*
X149715487Y-99155371D01*
X149713613Y-99151730D01*
X149691999Y-99107517D01*
X149687748Y-99101562D01*
X149683219Y-99095743D01*
X149678010Y-99090948D01*
X149647021Y-99062420D01*
X149644094Y-99059612D01*
X148690601Y-98106119D01*
X148677725Y-98090262D01*
X148671237Y-98080331D01*
X148657916Y-98069963D01*
X148647104Y-98061548D01*
X148637919Y-98053437D01*
X148637107Y-98052625D01*
X148621025Y-98041143D01*
X148617761Y-98038710D01*
X148578926Y-98008483D01*
X148578924Y-98008482D01*
X148572477Y-98004993D01*
X148565870Y-98001763D01*
X148565866Y-98001760D01*
X148518709Y-97987720D01*
X148514815Y-97986472D01*
X148468287Y-97970499D01*
X148461060Y-97969293D01*
X148453755Y-97968383D01*
X148453754Y-97968383D01*
X148453752Y-97968383D01*
X148404624Y-97970415D01*
X148400533Y-97970500D01*
X148030188Y-97970500D01*
X147971997Y-97951593D01*
X147960190Y-97941509D01*
X147900483Y-97881802D01*
X147900481Y-97881801D01*
X147795395Y-97830427D01*
X147768139Y-97826456D01*
X147727260Y-97820500D01*
X147727257Y-97820500D01*
X147543500Y-97820500D01*
X147485309Y-97801593D01*
X147449345Y-97752093D01*
X147444500Y-97721500D01*
X147444500Y-96764064D01*
X148544000Y-96764064D01*
X148554613Y-96852443D01*
X148610080Y-96993095D01*
X148701435Y-97113564D01*
X148821904Y-97204919D01*
X148962556Y-97260386D01*
X149050935Y-97270999D01*
X149050942Y-97271000D01*
X150043999Y-97271000D01*
X150044000Y-97270999D01*
X150044000Y-96621001D01*
X150043999Y-96621000D01*
X148544001Y-96621000D01*
X148544000Y-96621001D01*
X148544000Y-96764064D01*
X147444500Y-96764064D01*
X147444500Y-96320999D01*
X148544000Y-96320999D01*
X148544001Y-96321000D01*
X150043999Y-96321000D01*
X150044000Y-96320999D01*
X150044000Y-95671001D01*
X150043999Y-95671000D01*
X149050935Y-95671000D01*
X148962556Y-95681613D01*
X148821904Y-95737080D01*
X148701435Y-95828435D01*
X148610080Y-95948904D01*
X148554613Y-96089556D01*
X148544000Y-96177935D01*
X148544000Y-96320999D01*
X147444500Y-96320999D01*
X147444500Y-95027610D01*
X147463407Y-94969419D01*
X147473498Y-94957605D01*
X147492609Y-94938495D01*
X147547127Y-94910718D01*
X147562611Y-94909500D01*
X147900262Y-94909500D01*
X147900265Y-94909499D01*
X147929849Y-94906725D01*
X148054475Y-94863116D01*
X148160711Y-94784711D01*
X148204992Y-94724711D01*
X148254759Y-94689119D01*
X148284647Y-94684500D01*
X148556897Y-94684500D01*
X148615088Y-94703407D01*
X148639211Y-94728497D01*
X148639248Y-94728552D01*
X148705569Y-94772867D01*
X148750031Y-94781711D01*
X148764041Y-94784498D01*
X148764046Y-94784498D01*
X148764052Y-94784500D01*
X148764053Y-94784500D01*
X149403547Y-94784500D01*
X149403548Y-94784500D01*
X149462031Y-94772867D01*
X149528352Y-94728552D01*
X149572667Y-94662231D01*
X149579319Y-94628791D01*
X149883801Y-94628791D01*
X149886709Y-94653874D01*
X149932013Y-94756477D01*
X150011322Y-94835786D01*
X150113927Y-94881090D01*
X150139003Y-94883999D01*
X150333800Y-94883999D01*
X150333800Y-94384001D01*
X150333799Y-94384000D01*
X149883802Y-94384000D01*
X149883801Y-94384001D01*
X149883801Y-94628791D01*
X149579319Y-94628791D01*
X149584300Y-94603748D01*
X149584300Y-94083999D01*
X149883800Y-94083999D01*
X149883801Y-94084000D01*
X150333799Y-94084000D01*
X150333800Y-94083999D01*
X150333800Y-93584001D01*
X150333799Y-93584000D01*
X150139010Y-93584000D01*
X150139007Y-93584001D01*
X150113925Y-93586909D01*
X150011322Y-93632213D01*
X149932013Y-93711522D01*
X149886709Y-93814127D01*
X149883800Y-93839202D01*
X149883800Y-94083999D01*
X149584300Y-94083999D01*
X149584300Y-93864252D01*
X149572667Y-93805769D01*
X149528352Y-93739448D01*
X149525576Y-93737593D01*
X149462033Y-93695134D01*
X149462031Y-93695133D01*
X149462028Y-93695132D01*
X149462027Y-93695132D01*
X149403558Y-93683501D01*
X149403548Y-93683500D01*
X148764052Y-93683500D01*
X148764051Y-93683500D01*
X148764041Y-93683501D01*
X148705572Y-93695132D01*
X148705566Y-93695134D01*
X148639251Y-93739445D01*
X148639247Y-93739449D01*
X148639213Y-93739501D01*
X148639132Y-93739564D01*
X148632354Y-93746343D01*
X148631551Y-93745540D01*
X148591163Y-93777381D01*
X148556897Y-93783500D01*
X148284647Y-93783500D01*
X148226456Y-93764593D01*
X148204993Y-93743290D01*
X148160711Y-93683289D01*
X148160706Y-93683285D01*
X148054476Y-93604884D01*
X147929852Y-93561276D01*
X147929851Y-93561275D01*
X147929849Y-93561275D01*
X147929847Y-93561274D01*
X147929844Y-93561274D01*
X147900266Y-93558500D01*
X147900256Y-93558500D01*
X147219744Y-93558500D01*
X147219733Y-93558500D01*
X147190155Y-93561274D01*
X147190147Y-93561276D01*
X147065523Y-93604884D01*
X146959293Y-93683285D01*
X146959285Y-93683293D01*
X146880884Y-93789523D01*
X146837276Y-93914147D01*
X146837274Y-93914155D01*
X146834500Y-93943733D01*
X146834500Y-94281388D01*
X146815593Y-94339579D01*
X146805504Y-94351392D01*
X146704504Y-94452392D01*
X146649987Y-94480169D01*
X146589555Y-94470598D01*
X146546290Y-94427333D01*
X146535500Y-94382388D01*
X146535500Y-93943738D01*
X146535499Y-93943733D01*
X146532725Y-93914155D01*
X146532725Y-93914151D01*
X146489116Y-93789525D01*
X146484669Y-93783500D01*
X146410714Y-93683293D01*
X146410713Y-93683292D01*
X146410711Y-93683289D01*
X146410706Y-93683285D01*
X146304476Y-93604884D01*
X146179852Y-93561276D01*
X146179851Y-93561275D01*
X146179849Y-93561275D01*
X146179847Y-93561274D01*
X146179844Y-93561274D01*
X146150266Y-93558500D01*
X146150256Y-93558500D01*
X145469744Y-93558500D01*
X145469733Y-93558500D01*
X145440155Y-93561274D01*
X145440147Y-93561276D01*
X145315523Y-93604884D01*
X145209293Y-93683285D01*
X145209285Y-93683293D01*
X145130884Y-93789523D01*
X145087276Y-93914147D01*
X145087274Y-93914155D01*
X145084500Y-93943733D01*
X145084500Y-94422810D01*
X145065593Y-94481001D01*
X145055503Y-94492814D01*
X144641320Y-94906996D01*
X144625469Y-94919869D01*
X144615532Y-94926361D01*
X144606088Y-94938495D01*
X144597480Y-94949555D01*
X144596748Y-94950495D01*
X144588637Y-94959680D01*
X144587827Y-94960489D01*
X144587819Y-94960498D01*
X144576333Y-94976586D01*
X144573959Y-94979773D01*
X144573695Y-94980113D01*
X144523073Y-95014480D01*
X144461919Y-95012528D01*
X144413592Y-94975003D01*
X144396500Y-94919397D01*
X144396500Y-94537219D01*
X144398607Y-94516903D01*
X144399332Y-94513446D01*
X144401043Y-94505286D01*
X144397260Y-94474937D01*
X144396500Y-94462693D01*
X144396500Y-94461556D01*
X144393250Y-94442090D01*
X144392662Y-94438058D01*
X144386573Y-94389208D01*
X144386571Y-94389205D01*
X144384477Y-94382167D01*
X144382091Y-94375216D01*
X144358682Y-94331962D01*
X144356808Y-94328321D01*
X144335199Y-94284118D01*
X144330930Y-94278138D01*
X144326417Y-94272341D01*
X144290211Y-94239010D01*
X144287258Y-94236177D01*
X143871695Y-93820613D01*
X143843918Y-93766097D01*
X143842699Y-93750610D01*
X143842699Y-93726503D01*
X143842698Y-93726492D01*
X143836172Y-93676913D01*
X143836172Y-93676911D01*
X143785425Y-93568086D01*
X143785424Y-93568085D01*
X143785424Y-93568084D01*
X143700516Y-93483176D01*
X143700514Y-93483175D01*
X143700513Y-93483174D01*
X143591689Y-93432429D01*
X143591688Y-93432428D01*
X143575158Y-93430252D01*
X143542101Y-93425900D01*
X143542099Y-93425900D01*
X143122303Y-93425900D01*
X143122292Y-93425901D01*
X143072713Y-93432427D01*
X143072711Y-93432427D01*
X142963886Y-93483174D01*
X142963883Y-93483176D01*
X142907555Y-93539504D01*
X142853038Y-93567281D01*
X142837552Y-93568500D01*
X142575188Y-93568500D01*
X142516997Y-93549593D01*
X142505190Y-93539509D01*
X142445483Y-93479802D01*
X142445481Y-93479801D01*
X142340395Y-93428427D01*
X142313139Y-93424456D01*
X142272260Y-93418500D01*
X141180740Y-93418500D01*
X141146673Y-93423463D01*
X141112604Y-93428427D01*
X141007518Y-93479801D01*
X140924801Y-93562518D01*
X140873427Y-93667604D01*
X140871111Y-93683500D01*
X140863500Y-93735740D01*
X140863500Y-94102260D01*
X140864191Y-94107000D01*
X140873427Y-94170394D01*
X140890722Y-94205770D01*
X140923648Y-94273123D01*
X140932219Y-94333703D01*
X140903544Y-94387753D01*
X140893503Y-94396251D01*
X140892210Y-94397205D01*
X140892205Y-94397210D01*
X140811655Y-94506350D01*
X140766850Y-94634398D01*
X140764000Y-94664788D01*
X140764000Y-94718999D01*
X140764001Y-94719000D01*
X142704610Y-94719000D01*
X142707320Y-94717619D01*
X142722807Y-94716400D01*
X143383200Y-94716400D01*
X143441391Y-94735307D01*
X143477355Y-94784807D01*
X143482200Y-94815400D01*
X143482200Y-94917400D01*
X143463293Y-94975591D01*
X143413793Y-95011555D01*
X143383200Y-95016400D01*
X142706590Y-95016400D01*
X142703880Y-95017781D01*
X142688393Y-95019000D01*
X140764002Y-95019000D01*
X140764001Y-95019001D01*
X140764001Y-95073203D01*
X140766850Y-95103600D01*
X140766850Y-95103602D01*
X140811654Y-95231647D01*
X140892207Y-95340790D01*
X140892211Y-95340794D01*
X140893494Y-95341741D01*
X140894337Y-95342920D01*
X140897455Y-95346038D01*
X140896937Y-95346555D01*
X140929087Y-95391508D01*
X140928631Y-95452692D01*
X140923648Y-95464877D01*
X140873427Y-95567604D01*
X140873427Y-95567607D01*
X140863500Y-95635740D01*
X140863500Y-96002260D01*
X140867796Y-96031747D01*
X140873427Y-96070395D01*
X140911299Y-96147862D01*
X140924802Y-96175483D01*
X141007517Y-96258198D01*
X141059683Y-96283700D01*
X141112604Y-96309572D01*
X141112605Y-96309572D01*
X141112607Y-96309573D01*
X141180740Y-96319500D01*
X141180743Y-96319500D01*
X142272257Y-96319500D01*
X142272260Y-96319500D01*
X142340393Y-96309573D01*
X142445483Y-96258198D01*
X142467735Y-96235946D01*
X142489986Y-96213696D01*
X142544503Y-96185919D01*
X142559989Y-96184700D01*
X143596500Y-96184700D01*
X143654691Y-96203607D01*
X143690655Y-96253107D01*
X143695500Y-96283700D01*
X143695500Y-96910380D01*
X143693393Y-96930695D01*
X143690957Y-96942312D01*
X143694740Y-96972661D01*
X143695500Y-96984906D01*
X143695500Y-96986041D01*
X143698751Y-97005527D01*
X143699337Y-97009546D01*
X143704721Y-97052727D01*
X143705427Y-97058392D01*
X143707530Y-97065457D01*
X143709160Y-97070204D01*
X143709214Y-97073517D01*
X143711056Y-97079264D01*
X143711255Y-97080455D01*
X143709334Y-97080775D01*
X143710169Y-97131381D01*
X143675027Y-97181468D01*
X143617156Y-97201333D01*
X143573684Y-97192071D01*
X143550946Y-97181468D01*
X143481173Y-97148932D01*
X143432316Y-97142500D01*
X143083684Y-97142500D01*
X143067398Y-97144644D01*
X143034825Y-97148932D01*
X143034824Y-97148932D01*
X142927598Y-97198933D01*
X142843933Y-97282598D01*
X142837724Y-97295915D01*
X142795995Y-97340663D01*
X142735934Y-97352337D01*
X142680482Y-97326478D01*
X142658276Y-97295915D01*
X142652066Y-97282598D01*
X142652065Y-97282597D01*
X142652065Y-97282596D01*
X142568404Y-97198935D01*
X142568402Y-97198934D01*
X142568401Y-97198933D01*
X142461175Y-97148932D01*
X142428601Y-97144644D01*
X142412316Y-97142500D01*
X142063684Y-97142500D01*
X142047398Y-97144644D01*
X142014825Y-97148932D01*
X142014824Y-97148932D01*
X141907598Y-97198933D01*
X141907595Y-97198935D01*
X141833502Y-97273028D01*
X141778985Y-97300805D01*
X141718553Y-97291233D01*
X141684957Y-97263291D01*
X141648449Y-97215713D01*
X141648448Y-97215712D01*
X141648445Y-97215708D01*
X141648440Y-97215704D01*
X141648439Y-97215703D01*
X141569329Y-97155000D01*
X141523004Y-97119454D01*
X141523003Y-97119453D01*
X141523001Y-97119452D01*
X141376929Y-97058947D01*
X141376921Y-97058945D01*
X141220164Y-97038308D01*
X141220162Y-97038308D01*
X141063404Y-97058945D01*
X141063396Y-97058947D01*
X140917324Y-97119452D01*
X140917323Y-97119452D01*
X140791886Y-97215703D01*
X140791875Y-97215714D01*
X140758699Y-97258950D01*
X140708275Y-97293605D01*
X140647110Y-97292003D01*
X140610156Y-97268687D01*
X140540404Y-97198935D01*
X140540402Y-97198934D01*
X140540401Y-97198933D01*
X140433175Y-97148932D01*
X140400601Y-97144644D01*
X140384316Y-97142500D01*
X140035684Y-97142500D01*
X140019398Y-97144644D01*
X139986825Y-97148932D01*
X139986824Y-97148932D01*
X139879598Y-97198933D01*
X139795933Y-97282598D01*
X139789724Y-97295915D01*
X139747995Y-97340663D01*
X139687934Y-97352337D01*
X139632482Y-97326478D01*
X139610276Y-97295915D01*
X139604066Y-97282598D01*
X139604065Y-97282597D01*
X139604065Y-97282596D01*
X139520404Y-97198935D01*
X139520402Y-97198934D01*
X139520401Y-97198933D01*
X139413175Y-97148932D01*
X139380601Y-97144644D01*
X139364316Y-97142500D01*
X139015684Y-97142500D01*
X138999398Y-97144644D01*
X138966825Y-97148932D01*
X138966824Y-97148932D01*
X138859598Y-97198933D01*
X138859595Y-97198935D01*
X138777280Y-97281250D01*
X138722763Y-97309027D01*
X138694355Y-97309399D01*
X138534070Y-97288297D01*
X138534067Y-97288297D01*
X138468934Y-97296871D01*
X138408773Y-97285720D01*
X138366656Y-97241337D01*
X138358671Y-97180675D01*
X138362569Y-97166020D01*
X138402212Y-97052727D01*
X138405000Y-97023000D01*
X138405000Y-96980001D01*
X138404999Y-96980000D01*
X137450979Y-96980000D01*
X137392788Y-96961093D01*
X137380978Y-96951006D01*
X137368800Y-96938829D01*
X137368796Y-96938825D01*
X137368693Y-96938755D01*
X137357962Y-96930255D01*
X137336933Y-96911084D01*
X137327762Y-96907531D01*
X137307586Y-96896895D01*
X137299484Y-96891345D01*
X137299479Y-96891343D01*
X137271797Y-96884832D01*
X137258703Y-96880777D01*
X137234278Y-96871315D01*
X137198768Y-96842379D01*
X137181438Y-96859710D01*
X137136493Y-96870500D01*
X136273500Y-96870500D01*
X136215309Y-96851593D01*
X136179345Y-96802093D01*
X136174500Y-96771500D01*
X136174500Y-96679999D01*
X137185000Y-96679999D01*
X137206497Y-96701496D01*
X137208969Y-96706349D01*
X137244711Y-96683295D01*
X137270040Y-96680000D01*
X137644999Y-96680000D01*
X137645000Y-96679999D01*
X137945000Y-96679999D01*
X137945001Y-96680000D01*
X138404998Y-96680000D01*
X138404999Y-96679999D01*
X138404999Y-96636996D01*
X138402213Y-96607278D01*
X138402212Y-96607273D01*
X138358405Y-96482079D01*
X138279641Y-96375360D01*
X138279639Y-96375358D01*
X138172920Y-96296594D01*
X138047727Y-96252787D01*
X138018000Y-96250000D01*
X137945001Y-96250000D01*
X137945000Y-96250001D01*
X137945000Y-96679999D01*
X137645000Y-96679999D01*
X137645000Y-96249999D01*
X137571996Y-96250000D01*
X137542278Y-96252786D01*
X137542273Y-96252787D01*
X137417079Y-96296594D01*
X137310360Y-96375358D01*
X137310358Y-96375360D01*
X137231594Y-96482079D01*
X137187787Y-96607272D01*
X137185000Y-96636999D01*
X137185000Y-96679999D01*
X136174500Y-96679999D01*
X136174500Y-96421327D01*
X136174498Y-96421315D01*
X136171015Y-96403808D01*
X136159966Y-96348260D01*
X136133363Y-96308445D01*
X136104602Y-96265400D01*
X136104599Y-96265397D01*
X136021742Y-96210035D01*
X136021740Y-96210034D01*
X136021737Y-96210033D01*
X136021736Y-96210033D01*
X135948684Y-96195501D01*
X135948674Y-96195500D01*
X135809482Y-96195500D01*
X135751291Y-96176593D01*
X135739478Y-96166504D01*
X135730187Y-96157213D01*
X135683838Y-96134555D01*
X135639864Y-96092012D01*
X135629294Y-96031747D01*
X135656166Y-95976778D01*
X135657315Y-95975610D01*
X135843431Y-95789495D01*
X135897947Y-95761718D01*
X135913434Y-95760499D01*
X135970897Y-95760499D01*
X135970900Y-95760499D01*
X136020487Y-95753972D01*
X136020488Y-95753972D01*
X136108321Y-95713014D01*
X136129316Y-95703224D01*
X136130737Y-95701802D01*
X136132972Y-95700663D01*
X136136411Y-95698256D01*
X136136749Y-95698739D01*
X136185250Y-95674023D01*
X136245682Y-95683590D01*
X136280398Y-95713014D01*
X136296358Y-95734639D01*
X136296360Y-95734641D01*
X136403079Y-95813405D01*
X136528272Y-95857212D01*
X136557999Y-95859999D01*
X136601000Y-95859998D01*
X136601000Y-95199000D01*
X136619907Y-95140809D01*
X136669407Y-95104845D01*
X136700000Y-95100000D01*
X136802000Y-95100000D01*
X136860191Y-95118907D01*
X136896155Y-95168407D01*
X136901000Y-95199000D01*
X136901000Y-95859998D01*
X136901001Y-95859999D01*
X136944004Y-95859999D01*
X136973721Y-95857213D01*
X136973726Y-95857212D01*
X137098920Y-95813405D01*
X137205639Y-95734641D01*
X137205641Y-95734639D01*
X137284403Y-95627922D01*
X137293263Y-95602604D01*
X137330328Y-95553923D01*
X137388929Y-95536326D01*
X137445497Y-95555647D01*
X137544077Y-95628404D01*
X137669272Y-95672212D01*
X137698999Y-95674999D01*
X137771999Y-95674998D01*
X137772000Y-95674998D01*
X138072000Y-95674998D01*
X138072001Y-95674999D01*
X138145004Y-95674999D01*
X138174721Y-95672213D01*
X138174726Y-95672212D01*
X138299920Y-95628405D01*
X138406639Y-95549641D01*
X138406645Y-95549635D01*
X138414287Y-95539281D01*
X138464053Y-95503687D01*
X138525237Y-95504143D01*
X138574467Y-95540475D01*
X138592940Y-95598805D01*
X138591909Y-95612338D01*
X138589377Y-95629721D01*
X138588500Y-95635740D01*
X138588500Y-96002260D01*
X138592796Y-96031747D01*
X138598427Y-96070395D01*
X138636299Y-96147862D01*
X138649802Y-96175483D01*
X138732517Y-96258198D01*
X138784683Y-96283700D01*
X138837604Y-96309572D01*
X138837605Y-96309572D01*
X138837607Y-96309573D01*
X138905740Y-96319500D01*
X138905743Y-96319500D01*
X139997257Y-96319500D01*
X139997260Y-96319500D01*
X140065393Y-96309573D01*
X140170483Y-96258198D01*
X140253198Y-96175483D01*
X140304573Y-96070393D01*
X140314500Y-96002260D01*
X140314500Y-95635740D01*
X140304573Y-95567607D01*
X140298726Y-95555647D01*
X140276160Y-95509487D01*
X140253198Y-95462517D01*
X140170483Y-95379802D01*
X140170481Y-95379801D01*
X140065395Y-95328427D01*
X140038139Y-95324456D01*
X139997260Y-95318500D01*
X138905740Y-95318500D01*
X138871673Y-95323463D01*
X138837604Y-95328427D01*
X138732518Y-95379801D01*
X138732515Y-95379803D01*
X138693073Y-95419245D01*
X138638556Y-95447022D01*
X138578124Y-95437450D01*
X138534860Y-95394185D01*
X138525289Y-95333753D01*
X138528460Y-95321173D01*
X138529211Y-95317732D01*
X138532000Y-95288000D01*
X138532000Y-95245001D01*
X138531999Y-95245000D01*
X138072001Y-95245000D01*
X138072000Y-95245001D01*
X138072000Y-95674998D01*
X137772000Y-95674998D01*
X137772000Y-95044000D01*
X137790907Y-94985809D01*
X137840407Y-94949845D01*
X137871000Y-94945000D01*
X138531998Y-94945000D01*
X138531999Y-94944999D01*
X138531999Y-94901996D01*
X138529213Y-94872278D01*
X138529212Y-94872273D01*
X138485405Y-94747079D01*
X138406641Y-94640360D01*
X138406639Y-94640358D01*
X138385014Y-94624398D01*
X138349422Y-94574630D01*
X138349880Y-94513446D01*
X138370284Y-94480430D01*
X138370256Y-94480411D01*
X138370597Y-94479922D01*
X138373802Y-94474737D01*
X138375224Y-94473316D01*
X138425972Y-94364487D01*
X138427145Y-94355574D01*
X138453488Y-94300351D01*
X138507260Y-94271157D01*
X138525298Y-94269500D01*
X138602812Y-94269500D01*
X138661003Y-94288407D01*
X138672809Y-94298490D01*
X138732517Y-94358198D01*
X138777875Y-94380372D01*
X138837604Y-94409572D01*
X138837605Y-94409572D01*
X138837607Y-94409573D01*
X138905740Y-94419500D01*
X138905743Y-94419500D01*
X139997257Y-94419500D01*
X139997260Y-94419500D01*
X140065393Y-94409573D01*
X140170483Y-94358198D01*
X140253198Y-94275483D01*
X140304573Y-94170393D01*
X140314500Y-94102260D01*
X140314500Y-93735740D01*
X140304573Y-93667607D01*
X140301356Y-93661027D01*
X140279483Y-93616285D01*
X140253198Y-93562517D01*
X140170483Y-93479802D01*
X140170481Y-93479801D01*
X140065395Y-93428427D01*
X140038139Y-93424456D01*
X139997260Y-93418500D01*
X138905740Y-93418500D01*
X138871673Y-93423463D01*
X138837604Y-93428427D01*
X138732518Y-93479801D01*
X138732517Y-93479801D01*
X138732517Y-93479802D01*
X138672813Y-93539505D01*
X138618299Y-93567281D01*
X138602812Y-93568500D01*
X138184613Y-93568500D01*
X138164298Y-93566393D01*
X138152685Y-93563958D01*
X138122343Y-93567740D01*
X138110099Y-93568500D01*
X138108959Y-93568500D01*
X138089481Y-93571750D01*
X138085436Y-93572339D01*
X138036608Y-93578426D01*
X138029575Y-93580519D01*
X138022616Y-93582908D01*
X137979361Y-93606317D01*
X137975724Y-93608189D01*
X137931520Y-93629799D01*
X137924842Y-93634567D01*
X137924634Y-93634275D01*
X137923113Y-93634819D01*
X137913635Y-93641887D01*
X137912574Y-93642462D01*
X137910815Y-93639217D01*
X137868201Y-93654458D01*
X137865303Y-93654500D01*
X137712104Y-93654500D01*
X137712092Y-93654501D01*
X137662513Y-93661027D01*
X137662511Y-93661027D01*
X137553686Y-93711774D01*
X137553684Y-93711775D01*
X137553684Y-93711776D01*
X137537954Y-93727505D01*
X137483440Y-93755281D01*
X137467953Y-93756500D01*
X137315787Y-93756500D01*
X137257596Y-93737593D01*
X137237245Y-93717767D01*
X137232646Y-93711774D01*
X137207282Y-93678718D01*
X137207277Y-93678714D01*
X137207276Y-93678713D01*
X137136104Y-93624101D01*
X137081841Y-93582464D01*
X137081840Y-93582463D01*
X137081838Y-93582462D01*
X136935766Y-93521957D01*
X136935758Y-93521955D01*
X136779001Y-93501318D01*
X136778999Y-93501318D01*
X136622241Y-93521955D01*
X136622233Y-93521957D01*
X136476161Y-93582462D01*
X136476160Y-93582462D01*
X136350723Y-93678713D01*
X136350713Y-93678723D01*
X136254462Y-93804160D01*
X136254462Y-93804161D01*
X136193957Y-93950233D01*
X136193955Y-93950240D01*
X136176626Y-94081875D01*
X136150285Y-94137100D01*
X136096514Y-94166295D01*
X136078473Y-94167953D01*
X134523353Y-94167953D01*
X134503038Y-94165846D01*
X134491419Y-94163410D01*
X134468276Y-94166295D01*
X134461072Y-94167193D01*
X134448827Y-94167953D01*
X134447694Y-94167953D01*
X134428204Y-94171204D01*
X134424165Y-94171792D01*
X134375341Y-94177879D01*
X134368315Y-94179970D01*
X134361350Y-94182361D01*
X134318095Y-94205770D01*
X134314458Y-94207642D01*
X134270254Y-94229252D01*
X134264276Y-94233519D01*
X134258478Y-94238033D01*
X134258476Y-94238034D01*
X134258476Y-94238035D01*
X134254271Y-94242601D01*
X134225165Y-94274218D01*
X134222335Y-94277168D01*
X133742118Y-94757385D01*
X133726265Y-94770258D01*
X133716335Y-94776746D01*
X133716332Y-94776748D01*
X133697548Y-94800882D01*
X133689437Y-94810067D01*
X133688627Y-94810876D01*
X133688619Y-94810885D01*
X133677133Y-94826973D01*
X133674690Y-94830250D01*
X133644482Y-94869061D01*
X133640981Y-94875530D01*
X133634157Y-94889491D01*
X133632092Y-94888481D01*
X133603992Y-94929225D01*
X133546283Y-94949555D01*
X133487646Y-94932082D01*
X133464198Y-94909373D01*
X133451644Y-94892363D01*
X133451639Y-94892358D01*
X133344920Y-94813594D01*
X133219727Y-94769787D01*
X133190000Y-94767000D01*
X133147001Y-94767000D01*
X133147000Y-94767001D01*
X133147000Y-95986998D01*
X133147001Y-95986999D01*
X133190004Y-95986999D01*
X133219721Y-95984213D01*
X133219726Y-95984212D01*
X133344920Y-95940405D01*
X133451639Y-95861641D01*
X133451642Y-95861638D01*
X133467600Y-95840016D01*
X133517367Y-95804423D01*
X133578550Y-95804879D01*
X133611570Y-95825283D01*
X133611589Y-95825256D01*
X133612059Y-95825585D01*
X133617257Y-95828797D01*
X133618684Y-95830224D01*
X133727513Y-95880972D01*
X133777099Y-95887500D01*
X133825020Y-95887499D01*
X133883210Y-95906405D01*
X133895025Y-95916495D01*
X133944504Y-95965974D01*
X133972281Y-96020491D01*
X133973500Y-96035978D01*
X133973500Y-96096500D01*
X133954593Y-96154691D01*
X133905093Y-96190655D01*
X133874500Y-96195500D01*
X133799326Y-96195500D01*
X133799325Y-96195500D01*
X133799315Y-96195501D01*
X133726263Y-96210033D01*
X133726257Y-96210035D01*
X133643400Y-96265397D01*
X133643397Y-96265400D01*
X133602572Y-96326501D01*
X133554522Y-96364381D01*
X133520256Y-96370500D01*
X132577879Y-96370500D01*
X132519688Y-96351593D01*
X132499337Y-96331767D01*
X132495296Y-96326501D01*
X132448412Y-96265400D01*
X132432086Y-96244123D01*
X132432085Y-96244122D01*
X132432082Y-96244118D01*
X132432077Y-96244114D01*
X132432076Y-96244113D01*
X132315538Y-96154691D01*
X132306641Y-96147864D01*
X132306640Y-96147863D01*
X132306638Y-96147862D01*
X132160566Y-96087357D01*
X132160558Y-96087355D01*
X132003801Y-96066718D01*
X132003799Y-96066718D01*
X131847041Y-96087355D01*
X131847033Y-96087357D01*
X131700961Y-96147862D01*
X131700960Y-96147862D01*
X131575523Y-96244113D01*
X131575513Y-96244123D01*
X131479262Y-96369560D01*
X131479262Y-96369561D01*
X131418757Y-96515633D01*
X131418755Y-96515641D01*
X131398118Y-96672399D01*
X131398118Y-96672400D01*
X131418755Y-96829158D01*
X131418757Y-96829166D01*
X131479262Y-96975238D01*
X131479262Y-96975239D01*
X131575513Y-97100676D01*
X131575518Y-97100682D01*
X131700959Y-97196936D01*
X131700960Y-97196936D01*
X131700961Y-97196937D01*
X131808152Y-97241337D01*
X131847038Y-97257444D01*
X131949999Y-97270999D01*
X132003799Y-97278082D01*
X132003800Y-97278082D01*
X132003801Y-97278082D01*
X132057593Y-97271000D01*
X132160562Y-97257444D01*
X132306641Y-97196936D01*
X132432082Y-97100682D01*
X132501486Y-97010233D01*
X132551910Y-96975577D01*
X132580028Y-96971500D01*
X132802697Y-96971500D01*
X132860888Y-96990407D01*
X132896852Y-97039907D01*
X132899795Y-97089813D01*
X132898500Y-97096320D01*
X132898500Y-97245672D01*
X132898501Y-97245684D01*
X132913033Y-97318736D01*
X132913034Y-97318740D01*
X132913035Y-97318742D01*
X132916766Y-97327749D01*
X132914751Y-97328583D01*
X132927811Y-97374888D01*
X132915227Y-97413613D01*
X132916766Y-97414251D01*
X132913033Y-97423263D01*
X132898501Y-97496315D01*
X132898500Y-97496327D01*
X132898500Y-97645672D01*
X132898501Y-97645684D01*
X132912618Y-97716648D01*
X132913034Y-97718740D01*
X132913035Y-97718742D01*
X132916766Y-97727749D01*
X132914751Y-97728583D01*
X132927811Y-97774888D01*
X132915227Y-97813613D01*
X132916766Y-97814251D01*
X132913033Y-97823263D01*
X132898501Y-97896315D01*
X132898500Y-97896327D01*
X132898500Y-98045672D01*
X132898501Y-98045684D01*
X132913033Y-98118736D01*
X132913034Y-98118740D01*
X132913035Y-98118742D01*
X132916766Y-98127749D01*
X132914751Y-98128583D01*
X132927811Y-98174888D01*
X132915227Y-98213613D01*
X132916766Y-98214251D01*
X132913033Y-98223263D01*
X132898501Y-98296315D01*
X132898500Y-98296327D01*
X132898500Y-98445672D01*
X132898501Y-98445684D01*
X132912675Y-98516935D01*
X132913034Y-98518740D01*
X132913035Y-98518742D01*
X132916766Y-98527749D01*
X132914751Y-98528583D01*
X132927811Y-98574888D01*
X132915227Y-98613613D01*
X132916766Y-98614251D01*
X132913033Y-98623263D01*
X132898501Y-98696315D01*
X132898500Y-98696327D01*
X132898500Y-98845672D01*
X132898501Y-98845684D01*
X132910030Y-98903639D01*
X132913034Y-98918740D01*
X132913035Y-98918742D01*
X132916766Y-98927749D01*
X132914751Y-98928583D01*
X132927811Y-98974888D01*
X132915227Y-99013613D01*
X132916766Y-99014251D01*
X132913033Y-99023263D01*
X132898501Y-99096315D01*
X132898500Y-99096327D01*
X132898500Y-99245674D01*
X132903697Y-99271800D01*
X132896505Y-99332562D01*
X132866867Y-99369657D01*
X132769315Y-99444511D01*
X132769308Y-99444518D01*
X132673057Y-99569955D01*
X132673057Y-99569956D01*
X132612552Y-99716028D01*
X132612550Y-99716036D01*
X132591913Y-99872794D01*
X132591913Y-99872795D01*
X132612550Y-100029553D01*
X132612552Y-100029561D01*
X132673057Y-100175633D01*
X132673057Y-100175634D01*
X132769308Y-100301071D01*
X132769313Y-100301077D01*
X132769317Y-100301080D01*
X132769318Y-100301081D01*
X132778662Y-100308251D01*
X132894754Y-100397331D01*
X132894755Y-100397331D01*
X132894756Y-100397332D01*
X132973578Y-100429981D01*
X133040833Y-100457839D01*
X133158404Y-100473317D01*
X133197594Y-100478477D01*
X133197595Y-100478477D01*
X133197596Y-100478477D01*
X133228947Y-100474349D01*
X133354357Y-100457839D01*
X133500436Y-100397331D01*
X133625877Y-100301077D01*
X133677512Y-100233785D01*
X133694207Y-100212028D01*
X133744632Y-100177372D01*
X133772749Y-100173295D01*
X133818273Y-100173295D01*
X133845364Y-100177074D01*
X133845793Y-100177196D01*
X133865366Y-100175382D01*
X133925053Y-100188840D01*
X133965430Y-100234811D01*
X133973500Y-100273960D01*
X133973500Y-100798713D01*
X133954593Y-100856904D01*
X133912386Y-100890177D01*
X133771671Y-100948463D01*
X133660085Y-101034085D01*
X133602409Y-101054509D01*
X133550046Y-101038998D01*
X133549484Y-101040063D01*
X133544181Y-101037261D01*
X133543743Y-101037131D01*
X133543188Y-101036735D01*
X133542922Y-101036595D01*
X133417727Y-100992787D01*
X133388000Y-100990000D01*
X133345001Y-100990000D01*
X133345000Y-100990001D01*
X133345000Y-102209998D01*
X133345001Y-102209999D01*
X133388004Y-102209999D01*
X133417721Y-102207213D01*
X133417726Y-102207212D01*
X133542920Y-102163405D01*
X133649639Y-102084641D01*
X133649642Y-102084638D01*
X133681456Y-102041532D01*
X133731224Y-102005938D01*
X133792407Y-102006396D01*
X133798982Y-102008849D01*
X133917749Y-102058044D01*
X134026050Y-102072302D01*
X134074510Y-102078682D01*
X134074511Y-102078682D01*
X134074512Y-102078682D01*
X134122972Y-102072302D01*
X134231273Y-102058044D01*
X134336627Y-102014404D01*
X134397622Y-102009604D01*
X134449791Y-102041573D01*
X134473206Y-102098101D01*
X134473511Y-102105869D01*
X134473511Y-102695270D01*
X134454604Y-102753461D01*
X134405104Y-102789425D01*
X134343918Y-102789425D01*
X134342366Y-102788906D01*
X134297487Y-102773499D01*
X134290260Y-102772293D01*
X134282957Y-102771383D01*
X134282954Y-102771383D01*
X134270703Y-102771889D01*
X134211783Y-102755402D01*
X134188077Y-102733245D01*
X134159282Y-102695718D01*
X134159277Y-102695714D01*
X134159276Y-102695713D01*
X134060605Y-102620001D01*
X134033841Y-102599464D01*
X134033840Y-102599463D01*
X134033838Y-102599462D01*
X133887766Y-102538957D01*
X133887758Y-102538955D01*
X133731001Y-102518318D01*
X133730999Y-102518318D01*
X133574241Y-102538955D01*
X133574233Y-102538957D01*
X133428161Y-102599462D01*
X133428160Y-102599462D01*
X133302723Y-102695713D01*
X133302713Y-102695723D01*
X133206462Y-102821160D01*
X133206462Y-102821161D01*
X133145957Y-102967233D01*
X133145955Y-102967241D01*
X133125318Y-103123999D01*
X133125318Y-103124000D01*
X133145955Y-103280758D01*
X133145957Y-103280766D01*
X133206462Y-103426838D01*
X133206462Y-103426839D01*
X133301021Y-103550071D01*
X133302718Y-103552282D01*
X133428159Y-103648536D01*
X133534071Y-103692406D01*
X133580597Y-103732142D01*
X133594881Y-103791637D01*
X133587650Y-103821755D01*
X133546901Y-103920130D01*
X133546899Y-103920139D01*
X133526262Y-104076897D01*
X133526262Y-104076898D01*
X133546899Y-104233656D01*
X133546901Y-104233664D01*
X133607406Y-104379736D01*
X133607406Y-104379737D01*
X133692702Y-104490897D01*
X133703662Y-104505180D01*
X133703666Y-104505183D01*
X133703667Y-104505184D01*
X133725056Y-104521596D01*
X133829103Y-104601434D01*
X133829104Y-104601434D01*
X133829105Y-104601435D01*
X133895235Y-104628827D01*
X133975182Y-104661942D01*
X134131944Y-104682580D01*
X134175007Y-104676910D01*
X134235166Y-104688059D01*
X134251819Y-104701038D01*
X134252136Y-104700631D01*
X134282736Y-104724448D01*
X134291923Y-104732560D01*
X134292737Y-104733374D01*
X134292741Y-104733377D01*
X134308801Y-104744843D01*
X134312085Y-104747291D01*
X134341767Y-104770393D01*
X134350920Y-104777517D01*
X134350924Y-104777518D01*
X134357400Y-104781022D01*
X134363980Y-104784240D01*
X134411148Y-104798282D01*
X134415010Y-104799520D01*
X134425357Y-104803072D01*
X134461558Y-104815500D01*
X134461560Y-104815500D01*
X134468782Y-104816705D01*
X134476085Y-104817615D01*
X134476092Y-104817617D01*
X134525222Y-104815585D01*
X134529313Y-104815500D01*
X134932000Y-104815500D01*
X134990191Y-104834407D01*
X135026155Y-104883907D01*
X135031000Y-104914500D01*
X135031000Y-104964999D01*
X135031001Y-104965000D01*
X136730998Y-104965000D01*
X136730999Y-104964999D01*
X136730999Y-104914500D01*
X136749906Y-104856309D01*
X136799406Y-104820345D01*
X136829999Y-104815500D01*
X136915810Y-104815500D01*
X136974001Y-104834407D01*
X136985814Y-104844496D01*
X137039504Y-104898186D01*
X137067281Y-104952703D01*
X137068500Y-104968190D01*
X137068500Y-105126316D01*
X137069368Y-105132907D01*
X137074932Y-105175174D01*
X137074932Y-105175175D01*
X137124933Y-105282401D01*
X137124934Y-105282402D01*
X137124935Y-105282404D01*
X137208596Y-105366065D01*
X137208597Y-105366065D01*
X137208598Y-105366066D01*
X137315824Y-105416067D01*
X137315825Y-105416067D01*
X137315827Y-105416068D01*
X137364684Y-105422500D01*
X137364685Y-105422500D01*
X137713314Y-105422500D01*
X137713316Y-105422500D01*
X137762173Y-105416068D01*
X137869404Y-105366065D01*
X137953065Y-105282404D01*
X137959275Y-105269085D01*
X138001003Y-105224337D01*
X138061064Y-105212662D01*
X138116517Y-105238519D01*
X138138724Y-105269084D01*
X138144935Y-105282404D01*
X138228596Y-105366065D01*
X138228597Y-105366065D01*
X138228598Y-105366066D01*
X138335824Y-105416067D01*
X138335825Y-105416067D01*
X138335827Y-105416068D01*
X138384684Y-105422500D01*
X138384685Y-105422500D01*
X138733314Y-105422500D01*
X138733316Y-105422500D01*
X138782173Y-105416068D01*
X138889404Y-105366065D01*
X138973065Y-105282404D01*
X139023068Y-105175173D01*
X139029500Y-105126316D01*
X139029500Y-104677684D01*
X139023068Y-104628827D01*
X139021827Y-104626166D01*
X138973066Y-104521598D01*
X138973064Y-104521595D01*
X138938496Y-104487026D01*
X138910719Y-104432509D01*
X138909500Y-104417023D01*
X138909500Y-104243976D01*
X138928407Y-104185785D01*
X138938490Y-104173978D01*
X138973065Y-104139404D01*
X139023068Y-104032173D01*
X139029500Y-103983316D01*
X139029500Y-103797003D01*
X139598001Y-103797003D01*
X139600786Y-103826721D01*
X139600787Y-103826726D01*
X139644594Y-103951920D01*
X139723358Y-104058639D01*
X139723360Y-104058641D01*
X139830079Y-104137405D01*
X139955272Y-104181212D01*
X139984999Y-104183999D01*
X140057999Y-104183998D01*
X140058000Y-104183998D01*
X140058000Y-103754001D01*
X140057999Y-103754000D01*
X139598002Y-103754000D01*
X139598001Y-103754001D01*
X139598001Y-103797003D01*
X139029500Y-103797003D01*
X139029500Y-103534684D01*
X139023068Y-103485827D01*
X139018337Y-103475682D01*
X138973066Y-103378598D01*
X138973064Y-103378595D01*
X138938496Y-103344026D01*
X138910719Y-103289509D01*
X138909500Y-103274023D01*
X138909500Y-102949613D01*
X138911607Y-102929297D01*
X138912499Y-102925044D01*
X138914042Y-102917685D01*
X138911271Y-102895461D01*
X138910850Y-102875056D01*
X138911132Y-102871656D01*
X138911130Y-102871650D01*
X138911131Y-102871647D01*
X138910455Y-102863477D01*
X138910818Y-102863446D01*
X138909500Y-102852869D01*
X138909500Y-102592977D01*
X138928407Y-102534786D01*
X138938493Y-102522977D01*
X138947886Y-102513583D01*
X139002401Y-102485803D01*
X139062833Y-102495371D01*
X139087897Y-102513579D01*
X139433199Y-102858881D01*
X139446074Y-102874737D01*
X139452563Y-102884669D01*
X139476690Y-102903448D01*
X139485877Y-102911560D01*
X139486691Y-102912374D01*
X139486695Y-102912377D01*
X139502755Y-102923843D01*
X139506039Y-102926291D01*
X139544090Y-102955907D01*
X139544874Y-102956517D01*
X139544878Y-102956518D01*
X139551354Y-102960022D01*
X139557934Y-102963240D01*
X139605102Y-102977282D01*
X139608964Y-102978520D01*
X139619311Y-102982072D01*
X139655512Y-102994500D01*
X139655514Y-102994500D01*
X139658471Y-102994994D01*
X139661422Y-102996528D01*
X139663270Y-102997163D01*
X139663174Y-102997440D01*
X139712755Y-103023222D01*
X139740080Y-103077967D01*
X139730008Y-103138318D01*
X139721829Y-103151432D01*
X139644594Y-103256079D01*
X139600787Y-103381272D01*
X139598000Y-103410999D01*
X139598000Y-103453999D01*
X139598001Y-103454000D01*
X140259000Y-103454000D01*
X140317191Y-103472907D01*
X140353155Y-103522407D01*
X140358000Y-103553000D01*
X140358000Y-104036003D01*
X140342347Y-104084176D01*
X140344708Y-104085539D01*
X140341466Y-104091154D01*
X140341464Y-104091159D01*
X140282437Y-104233664D01*
X140280957Y-104237236D01*
X140280955Y-104237240D01*
X140264343Y-104363423D01*
X140238002Y-104418647D01*
X140184231Y-104447842D01*
X140166191Y-104449500D01*
X139998104Y-104449500D01*
X139998092Y-104449501D01*
X139948513Y-104456027D01*
X139948511Y-104456027D01*
X139839686Y-104506774D01*
X139754774Y-104591686D01*
X139704029Y-104700510D01*
X139704028Y-104700511D01*
X139697500Y-104750100D01*
X139697500Y-105109895D01*
X139697501Y-105109907D01*
X139704027Y-105159486D01*
X139704027Y-105159488D01*
X139754774Y-105268313D01*
X139754775Y-105268314D01*
X139754776Y-105268316D01*
X139756201Y-105269741D01*
X139757342Y-105271981D01*
X139759744Y-105275411D01*
X139759261Y-105275748D01*
X139783977Y-105324256D01*
X139774406Y-105384688D01*
X139744986Y-105419397D01*
X139723362Y-105435356D01*
X139723358Y-105435360D01*
X139644594Y-105542079D01*
X139600787Y-105667272D01*
X139598000Y-105696999D01*
X139598000Y-105739999D01*
X139598001Y-105740000D01*
X140817998Y-105740000D01*
X140817999Y-105739999D01*
X140817999Y-105696996D01*
X140815213Y-105667278D01*
X140815212Y-105667273D01*
X140771405Y-105542079D01*
X140692641Y-105435360D01*
X140692639Y-105435358D01*
X140671014Y-105419398D01*
X140635422Y-105369630D01*
X140635880Y-105308446D01*
X140656284Y-105275430D01*
X140656256Y-105275411D01*
X140656597Y-105274922D01*
X140659802Y-105269737D01*
X140661224Y-105268316D01*
X140711972Y-105159487D01*
X140714418Y-105140904D01*
X140740759Y-105085680D01*
X140742522Y-105083868D01*
X140795998Y-105030393D01*
X140850512Y-105002618D01*
X140910944Y-105012189D01*
X140936001Y-105030393D01*
X140947658Y-105042050D01*
X140959332Y-105047997D01*
X140969149Y-105053000D01*
X140982395Y-105061117D01*
X141001910Y-105075296D01*
X141001912Y-105075296D01*
X141001913Y-105075297D01*
X141024852Y-105082750D01*
X141039195Y-105088690D01*
X141060696Y-105099646D01*
X141084524Y-105103419D01*
X141099633Y-105107047D01*
X141102234Y-105107892D01*
X141122567Y-105114499D01*
X141150379Y-105114499D01*
X141150403Y-105114500D01*
X141154481Y-105114500D01*
X141319812Y-105114500D01*
X141378003Y-105133407D01*
X141389809Y-105143490D01*
X141399517Y-105153198D01*
X141444468Y-105175173D01*
X141504604Y-105204572D01*
X141504605Y-105204572D01*
X141504607Y-105204573D01*
X141572740Y-105214500D01*
X141572743Y-105214500D01*
X142664257Y-105214500D01*
X142664260Y-105214500D01*
X142732393Y-105204573D01*
X142837483Y-105153198D01*
X142920198Y-105070483D01*
X142971573Y-104965393D01*
X142981500Y-104897260D01*
X142981500Y-104530740D01*
X142971573Y-104462607D01*
X142968356Y-104456027D01*
X142946483Y-104411285D01*
X142920198Y-104357517D01*
X142837483Y-104274802D01*
X142837481Y-104274801D01*
X142831682Y-104269002D01*
X142834105Y-104266578D01*
X142806830Y-104229698D01*
X142806312Y-104168515D01*
X142840454Y-104119769D01*
X142947688Y-104037486D01*
X142979579Y-103995924D01*
X143030002Y-103961268D01*
X143091167Y-103962869D01*
X143099955Y-103966464D01*
X143109827Y-103971068D01*
X143158684Y-103977500D01*
X143158685Y-103977500D01*
X143607314Y-103977500D01*
X143607316Y-103977500D01*
X143656173Y-103971068D01*
X143763404Y-103921065D01*
X143847065Y-103837404D01*
X143885303Y-103755402D01*
X143927028Y-103710658D01*
X143987089Y-103698983D01*
X144042542Y-103724840D01*
X144068469Y-103764547D01*
X144089594Y-103824920D01*
X144168358Y-103931639D01*
X144168360Y-103931641D01*
X144275077Y-104010404D01*
X144305517Y-104021055D01*
X144354198Y-104058121D01*
X144371795Y-104116721D01*
X144351587Y-104174473D01*
X144301293Y-104209317D01*
X144272820Y-104213500D01*
X143847740Y-104213500D01*
X143813673Y-104218463D01*
X143779604Y-104223427D01*
X143674518Y-104274801D01*
X143591801Y-104357518D01*
X143540427Y-104462604D01*
X143536886Y-104486912D01*
X143530500Y-104530740D01*
X143530500Y-104897260D01*
X143534860Y-104927182D01*
X143540427Y-104965394D01*
X143541794Y-104968190D01*
X143590648Y-105068123D01*
X143599219Y-105128703D01*
X143570544Y-105182753D01*
X143560503Y-105191251D01*
X143559210Y-105192205D01*
X143559205Y-105192210D01*
X143478655Y-105301350D01*
X143433850Y-105429398D01*
X143431000Y-105459788D01*
X143431000Y-105513999D01*
X143431001Y-105514000D01*
X144444500Y-105514000D01*
X144502691Y-105532907D01*
X144538655Y-105582407D01*
X144543500Y-105613000D01*
X144543500Y-105715000D01*
X144524593Y-105773191D01*
X144475093Y-105809155D01*
X144444500Y-105814000D01*
X143431002Y-105814000D01*
X143431001Y-105814001D01*
X143431001Y-105868203D01*
X143433850Y-105898600D01*
X143433850Y-105898602D01*
X143478654Y-106026647D01*
X143559207Y-106135790D01*
X143559211Y-106135794D01*
X143560494Y-106136741D01*
X143561337Y-106137920D01*
X143564455Y-106141038D01*
X143563937Y-106141555D01*
X143596087Y-106186508D01*
X143595631Y-106247692D01*
X143590648Y-106259877D01*
X143540427Y-106362604D01*
X143535463Y-106396673D01*
X143530500Y-106430740D01*
X143530500Y-106797260D01*
X143535370Y-106830687D01*
X143540427Y-106865395D01*
X143591801Y-106970481D01*
X143591802Y-106970483D01*
X143647817Y-107026498D01*
X143675593Y-107081013D01*
X143666022Y-107141445D01*
X143622757Y-107184710D01*
X143577812Y-107195500D01*
X142934188Y-107195500D01*
X142875997Y-107176593D01*
X142840033Y-107127093D01*
X142840033Y-107065907D01*
X142864182Y-107026498D01*
X142920198Y-106970483D01*
X142971573Y-106865393D01*
X142981500Y-106797260D01*
X142981500Y-106430740D01*
X142971573Y-106362607D01*
X142920198Y-106257517D01*
X142837483Y-106174802D01*
X142837481Y-106174801D01*
X142732395Y-106123427D01*
X142705139Y-106119456D01*
X142664260Y-106113500D01*
X141572740Y-106113500D01*
X141538673Y-106118463D01*
X141504604Y-106123427D01*
X141399518Y-106174801D01*
X141316801Y-106257518D01*
X141265427Y-106362604D01*
X141260463Y-106396673D01*
X141255500Y-106430740D01*
X141255500Y-106797260D01*
X141260370Y-106830687D01*
X141265427Y-106865395D01*
X141316801Y-106970481D01*
X141316802Y-106970483D01*
X141372817Y-107026498D01*
X141400593Y-107081013D01*
X141391022Y-107141445D01*
X141347757Y-107184710D01*
X141302812Y-107195500D01*
X122265500Y-107195500D01*
X122207309Y-107176593D01*
X122171345Y-107127093D01*
X122166500Y-107096500D01*
X122166500Y-99990011D01*
X122185407Y-99931820D01*
X122234907Y-99895856D01*
X122296093Y-99895856D01*
X122345593Y-99931820D01*
X122356065Y-99950023D01*
X122364213Y-99968477D01*
X122444333Y-100048597D01*
X122472110Y-100103114D01*
X122462539Y-100163546D01*
X122456644Y-100173603D01*
X122427134Y-100217766D01*
X122427132Y-100217772D01*
X122415501Y-100276241D01*
X122415500Y-100276253D01*
X122415500Y-100815746D01*
X122415501Y-100815758D01*
X122427132Y-100874227D01*
X122427134Y-100874233D01*
X122464776Y-100930567D01*
X122471448Y-100940552D01*
X122537769Y-100984867D01*
X122577586Y-100992787D01*
X122596241Y-100996498D01*
X122596246Y-100996498D01*
X122596252Y-100996500D01*
X123756500Y-100996500D01*
X123814691Y-101015407D01*
X123850655Y-101064907D01*
X123855500Y-101095500D01*
X123855500Y-102173481D01*
X123836593Y-102231672D01*
X123787093Y-102267636D01*
X123769423Y-102271634D01*
X123668240Y-102284955D01*
X123668233Y-102284957D01*
X123522161Y-102345462D01*
X123522160Y-102345462D01*
X123396723Y-102441713D01*
X123396713Y-102441723D01*
X123300462Y-102567160D01*
X123300462Y-102567161D01*
X123239957Y-102713233D01*
X123239955Y-102713241D01*
X123219318Y-102869999D01*
X123219318Y-102870000D01*
X123239489Y-103023222D01*
X123239956Y-103026762D01*
X123291596Y-103151432D01*
X123302234Y-103177114D01*
X123307035Y-103238111D01*
X123275065Y-103290280D01*
X123218537Y-103313695D01*
X123210770Y-103314000D01*
X123079596Y-103314000D01*
X123050216Y-103316755D01*
X122926445Y-103360064D01*
X122820936Y-103437934D01*
X122820934Y-103437936D01*
X122743064Y-103543445D01*
X122699755Y-103667216D01*
X122697000Y-103696596D01*
X122697000Y-103733999D01*
X122697001Y-103734000D01*
X123936999Y-103734000D01*
X123937000Y-103733999D01*
X123937000Y-103696600D01*
X123936999Y-103696596D01*
X123934244Y-103667216D01*
X123905588Y-103585322D01*
X123904215Y-103524152D01*
X123939058Y-103473857D01*
X123976007Y-103458638D01*
X123975494Y-103456723D01*
X123981755Y-103455044D01*
X123981762Y-103455044D01*
X124127841Y-103394536D01*
X124253282Y-103298282D01*
X124349536Y-103172841D01*
X124384959Y-103087323D01*
X124410043Y-103026765D01*
X124410043Y-103026764D01*
X124410044Y-103026762D01*
X124418347Y-102963693D01*
X124444688Y-102908469D01*
X124498459Y-102879274D01*
X124559121Y-102887260D01*
X124603503Y-102929377D01*
X124615500Y-102976616D01*
X124615500Y-103265746D01*
X124615501Y-103265758D01*
X124627132Y-103324227D01*
X124627134Y-103324233D01*
X124671445Y-103390548D01*
X124671448Y-103390552D01*
X124671501Y-103390587D01*
X124671564Y-103390667D01*
X124678343Y-103397446D01*
X124677540Y-103398248D01*
X124709381Y-103438637D01*
X124715500Y-103472903D01*
X124715500Y-103987088D01*
X124696593Y-104045279D01*
X124647093Y-104081243D01*
X124585907Y-104081243D01*
X124578615Y-104078552D01*
X124473266Y-104034915D01*
X124473258Y-104034913D01*
X124316501Y-104014276D01*
X124316499Y-104014276D01*
X124159741Y-104034913D01*
X124159732Y-104034915D01*
X124063998Y-104074570D01*
X124003001Y-104079371D01*
X123956109Y-104053110D01*
X123936999Y-104034000D01*
X122697001Y-104034000D01*
X122697000Y-104034001D01*
X122697000Y-104071403D01*
X122699755Y-104100783D01*
X122743064Y-104224554D01*
X122820934Y-104330063D01*
X122820938Y-104330067D01*
X122886904Y-104378752D01*
X122922497Y-104428519D01*
X122922039Y-104489703D01*
X122898120Y-104528410D01*
X122852935Y-104573595D01*
X122852933Y-104573598D01*
X122802932Y-104680824D01*
X122802932Y-104680825D01*
X122802932Y-104680827D01*
X122796500Y-104729684D01*
X122796500Y-105078316D01*
X122797867Y-105088696D01*
X122802932Y-105127174D01*
X122802932Y-105127175D01*
X122852933Y-105234401D01*
X122852934Y-105234402D01*
X122852935Y-105234404D01*
X122936596Y-105318065D01*
X122936597Y-105318065D01*
X122936598Y-105318066D01*
X123043824Y-105368067D01*
X123043825Y-105368067D01*
X123043827Y-105368068D01*
X123092684Y-105374500D01*
X123092685Y-105374500D01*
X123541314Y-105374500D01*
X123541316Y-105374500D01*
X123590173Y-105368068D01*
X123697404Y-105318065D01*
X123722191Y-105293278D01*
X123731974Y-105283496D01*
X123786491Y-105255719D01*
X123801977Y-105254500D01*
X123985839Y-105254500D01*
X124006154Y-105256607D01*
X124008064Y-105257007D01*
X124017773Y-105259043D01*
X124048120Y-105255259D01*
X124060365Y-105254500D01*
X124061501Y-105254500D01*
X124080979Y-105251249D01*
X124085010Y-105250661D01*
X124133851Y-105244573D01*
X124133854Y-105244571D01*
X124140887Y-105242477D01*
X124147833Y-105240092D01*
X124147839Y-105240092D01*
X124174094Y-105225882D01*
X124234136Y-105214796D01*
X124316500Y-105225640D01*
X124473262Y-105205002D01*
X124575168Y-105162790D01*
X124636164Y-105157990D01*
X124688333Y-105189959D01*
X124711292Y-105242008D01*
X124712371Y-105250658D01*
X124714740Y-105269661D01*
X124715500Y-105281907D01*
X124715500Y-105283042D01*
X124718751Y-105302528D01*
X124719337Y-105306547D01*
X124725157Y-105353224D01*
X124725427Y-105355393D01*
X124727527Y-105362448D01*
X124729907Y-105369380D01*
X124753322Y-105412646D01*
X124755195Y-105416285D01*
X124776801Y-105460482D01*
X124781078Y-105466472D01*
X124785581Y-105472258D01*
X124821764Y-105505567D01*
X124824717Y-105508399D01*
X125959199Y-106642881D01*
X125972074Y-106658737D01*
X125978563Y-106668669D01*
X126002690Y-106687448D01*
X126011877Y-106695560D01*
X126012690Y-106696372D01*
X126012694Y-106696376D01*
X126028784Y-106707864D01*
X126032048Y-106710298D01*
X126035421Y-106712923D01*
X126070874Y-106740517D01*
X126070875Y-106740517D01*
X126070876Y-106740518D01*
X126077337Y-106744014D01*
X126083934Y-106747240D01*
X126131102Y-106761282D01*
X126134964Y-106762520D01*
X126143100Y-106765313D01*
X126181512Y-106778500D01*
X126181514Y-106778500D01*
X126188733Y-106779705D01*
X126196039Y-106780615D01*
X126196046Y-106780617D01*
X126245186Y-106778584D01*
X126249276Y-106778500D01*
X126515023Y-106778500D01*
X126573214Y-106797407D01*
X126585026Y-106807496D01*
X126619595Y-106842064D01*
X126619598Y-106842066D01*
X126726824Y-106892067D01*
X126726825Y-106892067D01*
X126726827Y-106892068D01*
X126775684Y-106898500D01*
X126775685Y-106898500D01*
X127224314Y-106898500D01*
X127224316Y-106898500D01*
X127273173Y-106892068D01*
X127380404Y-106842065D01*
X127398542Y-106823927D01*
X127414974Y-106807496D01*
X127469491Y-106779719D01*
X127484977Y-106778500D01*
X128729667Y-106778500D01*
X128749982Y-106780607D01*
X128751892Y-106781007D01*
X128761601Y-106783043D01*
X128791948Y-106779259D01*
X128804193Y-106778500D01*
X128805329Y-106778500D01*
X128824807Y-106775249D01*
X128828838Y-106774661D01*
X128877679Y-106768573D01*
X128877682Y-106768571D01*
X128884715Y-106766477D01*
X128891661Y-106764092D01*
X128891667Y-106764092D01*
X128934941Y-106740671D01*
X128938565Y-106738807D01*
X128982768Y-106717199D01*
X128982768Y-106717198D01*
X128982770Y-106717198D01*
X128982771Y-106717196D01*
X128988756Y-106712923D01*
X128994541Y-106708420D01*
X128994541Y-106708419D01*
X128994544Y-106708418D01*
X129027865Y-106672220D01*
X129030650Y-106669316D01*
X129616963Y-106083003D01*
X139598001Y-106083003D01*
X139600786Y-106112721D01*
X139600787Y-106112726D01*
X139644594Y-106237920D01*
X139723358Y-106344639D01*
X139723360Y-106344641D01*
X139830079Y-106423405D01*
X139955272Y-106467212D01*
X139984999Y-106469999D01*
X140057999Y-106469998D01*
X140058000Y-106469998D01*
X140358000Y-106469998D01*
X140358001Y-106469999D01*
X140431004Y-106469999D01*
X140460721Y-106467213D01*
X140460726Y-106467212D01*
X140585920Y-106423405D01*
X140692639Y-106344641D01*
X140692641Y-106344639D01*
X140771405Y-106237920D01*
X140815212Y-106112727D01*
X140818000Y-106083000D01*
X140818000Y-106040001D01*
X140817999Y-106040000D01*
X140358001Y-106040000D01*
X140358000Y-106040001D01*
X140358000Y-106469998D01*
X140058000Y-106469998D01*
X140058000Y-106040001D01*
X140057999Y-106040000D01*
X139598002Y-106040000D01*
X139598001Y-106040001D01*
X139598001Y-106083003D01*
X129616963Y-106083003D01*
X130661496Y-105038471D01*
X130716013Y-105010694D01*
X130776445Y-105020265D01*
X130819710Y-105063530D01*
X130830500Y-105108475D01*
X130830500Y-105334746D01*
X130830501Y-105334758D01*
X130842132Y-105393227D01*
X130842134Y-105393233D01*
X130886445Y-105459548D01*
X130886448Y-105459552D01*
X130952769Y-105503867D01*
X130989117Y-105511097D01*
X131011241Y-105515498D01*
X131011246Y-105515498D01*
X131011252Y-105515500D01*
X131011253Y-105515500D01*
X132150747Y-105515500D01*
X132150748Y-105515500D01*
X132209231Y-105503867D01*
X132275552Y-105459552D01*
X132319867Y-105393231D01*
X132326519Y-105359791D01*
X135031001Y-105359791D01*
X135033909Y-105384874D01*
X135079213Y-105487477D01*
X135158522Y-105566786D01*
X135261127Y-105612090D01*
X135286203Y-105614999D01*
X135730998Y-105614999D01*
X135731000Y-105614998D01*
X136031000Y-105614998D01*
X136031001Y-105614999D01*
X136475790Y-105614999D01*
X136475791Y-105614998D01*
X136500874Y-105612090D01*
X136603477Y-105566786D01*
X136682786Y-105487477D01*
X136728090Y-105384872D01*
X136730999Y-105359797D01*
X136731000Y-105359795D01*
X136731000Y-105265001D01*
X136730999Y-105265000D01*
X136031001Y-105265000D01*
X136031000Y-105265001D01*
X136031000Y-105614998D01*
X135731000Y-105614998D01*
X135731000Y-105265001D01*
X135730999Y-105265000D01*
X135031002Y-105265000D01*
X135031001Y-105265001D01*
X135031001Y-105359791D01*
X132326519Y-105359791D01*
X132331500Y-105334748D01*
X132331500Y-104895252D01*
X132319867Y-104836769D01*
X132319864Y-104836765D01*
X132316187Y-104827887D01*
X132311386Y-104766890D01*
X132316187Y-104752113D01*
X132319863Y-104743236D01*
X132319867Y-104743231D01*
X132331500Y-104684748D01*
X132331500Y-104245252D01*
X132319867Y-104186769D01*
X132319864Y-104186765D01*
X132316187Y-104177887D01*
X132311386Y-104116890D01*
X132316187Y-104102113D01*
X132319863Y-104093236D01*
X132319867Y-104093231D01*
X132331500Y-104034748D01*
X132331500Y-103595252D01*
X132319867Y-103536769D01*
X132319864Y-103536765D01*
X132316187Y-103527887D01*
X132311386Y-103466890D01*
X132316187Y-103452113D01*
X132319863Y-103443236D01*
X132319867Y-103443231D01*
X132331500Y-103384748D01*
X132331500Y-103358389D01*
X132350407Y-103300198D01*
X132360496Y-103288386D01*
X132449877Y-103199004D01*
X132465735Y-103186126D01*
X132475669Y-103179637D01*
X132494454Y-103155499D01*
X132502573Y-103146307D01*
X132503375Y-103145506D01*
X132514884Y-103129384D01*
X132517253Y-103126207D01*
X132547517Y-103087326D01*
X132547518Y-103087322D01*
X132551023Y-103080845D01*
X132554237Y-103074271D01*
X132554237Y-103074269D01*
X132554240Y-103074266D01*
X132568287Y-103027081D01*
X132569512Y-103023254D01*
X132585500Y-102976688D01*
X132585500Y-102976683D01*
X132586707Y-102969454D01*
X132587617Y-102962154D01*
X132585585Y-102913023D01*
X132585500Y-102908932D01*
X132585500Y-102166457D01*
X132604407Y-102108266D01*
X132653907Y-102072302D01*
X132715093Y-102072302D01*
X132743289Y-102086803D01*
X132847077Y-102163404D01*
X132972272Y-102207212D01*
X133001999Y-102209999D01*
X133045000Y-102209998D01*
X133045000Y-100989999D01*
X133001997Y-100990000D01*
X132972278Y-100992786D01*
X132972273Y-100992787D01*
X132847079Y-101036594D01*
X132740360Y-101115358D01*
X132740356Y-101115362D01*
X132724397Y-101136986D01*
X132674628Y-101172577D01*
X132613445Y-101172118D01*
X132580430Y-101151716D01*
X132580411Y-101151744D01*
X132579936Y-101151411D01*
X132574741Y-101148201D01*
X132573316Y-101146776D01*
X132573314Y-101146775D01*
X132573313Y-101146774D01*
X132464489Y-101096029D01*
X132464488Y-101096028D01*
X132442170Y-101093090D01*
X132414901Y-101089500D01*
X132414899Y-101089500D01*
X132055104Y-101089500D01*
X132055092Y-101089501D01*
X132005513Y-101096027D01*
X132005511Y-101096027D01*
X131896686Y-101146774D01*
X131811774Y-101231686D01*
X131761029Y-101340510D01*
X131761028Y-101340511D01*
X131754500Y-101390100D01*
X131754500Y-101809896D01*
X131754501Y-101809907D01*
X131761027Y-101859486D01*
X131761027Y-101859488D01*
X131811774Y-101968313D01*
X131811775Y-101968314D01*
X131811776Y-101968316D01*
X131855505Y-102012045D01*
X131883281Y-102066560D01*
X131884500Y-102082047D01*
X131884500Y-102665500D01*
X131865593Y-102723691D01*
X131816093Y-102759655D01*
X131785500Y-102764500D01*
X131011252Y-102764500D01*
X131011251Y-102764500D01*
X131011241Y-102764501D01*
X130952772Y-102776132D01*
X130952766Y-102776134D01*
X130920320Y-102797815D01*
X130865318Y-102814500D01*
X130786624Y-102814500D01*
X130728433Y-102795593D01*
X130700889Y-102765002D01*
X130699537Y-102762660D01*
X130603286Y-102637223D01*
X130603285Y-102637222D01*
X130603282Y-102637218D01*
X130603277Y-102637214D01*
X130603276Y-102637213D01*
X130480223Y-102542792D01*
X130477841Y-102540964D01*
X130477840Y-102540963D01*
X130477838Y-102540962D01*
X130331766Y-102480457D01*
X130331758Y-102480455D01*
X130175001Y-102459818D01*
X130174999Y-102459818D01*
X130018241Y-102480455D01*
X130018233Y-102480457D01*
X129872161Y-102540962D01*
X129872160Y-102540962D01*
X129746723Y-102637213D01*
X129746717Y-102637219D01*
X129722985Y-102668148D01*
X129701830Y-102695718D01*
X129694042Y-102705867D01*
X129643617Y-102740522D01*
X129582453Y-102738920D01*
X129533911Y-102701673D01*
X129516500Y-102645599D01*
X129516500Y-101226253D01*
X129516499Y-101226244D01*
X129514126Y-101214315D01*
X129521316Y-101153554D01*
X129562848Y-101108623D01*
X129611223Y-101095999D01*
X130365999Y-101095999D01*
X130366000Y-101095998D01*
X130666000Y-101095998D01*
X130666001Y-101095999D01*
X131560790Y-101095999D01*
X131560791Y-101095998D01*
X131585874Y-101093090D01*
X131688477Y-101047786D01*
X131767786Y-100968477D01*
X131813090Y-100865872D01*
X131815999Y-100840797D01*
X131816000Y-100840795D01*
X131816000Y-100696001D01*
X131815999Y-100696000D01*
X130666001Y-100696000D01*
X130666000Y-100696001D01*
X130666000Y-101095998D01*
X130366000Y-101095998D01*
X130366000Y-100696001D01*
X130365999Y-100696000D01*
X129216002Y-100696000D01*
X129216001Y-100696001D01*
X129216001Y-100840791D01*
X129218909Y-100865874D01*
X129236853Y-100906512D01*
X129243061Y-100967382D01*
X129212305Y-101020275D01*
X129156333Y-101044989D01*
X129146288Y-101045500D01*
X128796252Y-101045500D01*
X128796251Y-101045500D01*
X128796241Y-101045501D01*
X128737772Y-101057132D01*
X128737766Y-101057134D01*
X128671451Y-101101445D01*
X128671445Y-101101451D01*
X128648315Y-101136068D01*
X128600264Y-101173947D01*
X128539126Y-101176349D01*
X128488253Y-101142355D01*
X128483685Y-101136068D01*
X128460554Y-101101451D01*
X128460552Y-101101448D01*
X128460548Y-101101445D01*
X128394233Y-101057134D01*
X128394231Y-101057133D01*
X128394228Y-101057132D01*
X128394227Y-101057132D01*
X128337432Y-101045834D01*
X128284048Y-101015937D01*
X128258433Y-100960372D01*
X128261221Y-100922742D01*
X128263090Y-100915872D01*
X128265999Y-100890797D01*
X128266000Y-100890795D01*
X128266000Y-100546001D01*
X128265999Y-100546000D01*
X127216001Y-100546000D01*
X127216000Y-100546001D01*
X127216000Y-102297000D01*
X127197093Y-102355191D01*
X127147593Y-102391155D01*
X127117000Y-102396000D01*
X127015000Y-102396000D01*
X126956809Y-102377093D01*
X126920845Y-102327593D01*
X126916000Y-102297000D01*
X126916000Y-100546001D01*
X126915999Y-100546000D01*
X125866002Y-100546000D01*
X125866001Y-100546001D01*
X125866001Y-100890791D01*
X125868910Y-100915879D01*
X125870780Y-100922753D01*
X125867809Y-100983867D01*
X125829483Y-101031561D01*
X125794567Y-101045834D01*
X125737772Y-101057132D01*
X125737766Y-101057134D01*
X125671451Y-101101445D01*
X125671445Y-101101451D01*
X125648315Y-101136068D01*
X125600264Y-101173947D01*
X125539126Y-101176349D01*
X125488253Y-101142355D01*
X125483685Y-101136068D01*
X125460554Y-101101451D01*
X125460552Y-101101448D01*
X125460548Y-101101445D01*
X125394233Y-101057134D01*
X125394231Y-101057133D01*
X125394228Y-101057132D01*
X125394227Y-101057132D01*
X125335758Y-101045501D01*
X125335748Y-101045500D01*
X124875644Y-101045500D01*
X124817453Y-101026593D01*
X124781489Y-100977093D01*
X124781489Y-100915907D01*
X124793326Y-100891502D01*
X124804867Y-100874231D01*
X124816500Y-100815748D01*
X124816500Y-100395999D01*
X129216000Y-100395999D01*
X129216001Y-100396000D01*
X130365999Y-100396000D01*
X130366000Y-100395999D01*
X130666000Y-100395999D01*
X130666001Y-100396000D01*
X131815998Y-100396000D01*
X131815999Y-100395999D01*
X131815999Y-100251210D01*
X131815998Y-100251208D01*
X131813090Y-100226125D01*
X131767786Y-100123522D01*
X131760268Y-100116004D01*
X131732491Y-100061487D01*
X131742062Y-100001055D01*
X131760268Y-99975996D01*
X131767786Y-99968477D01*
X131813090Y-99865872D01*
X131815999Y-99840797D01*
X131816000Y-99840795D01*
X131816000Y-99696001D01*
X131815999Y-99696000D01*
X130666001Y-99696000D01*
X130666000Y-99696001D01*
X130666000Y-100395999D01*
X130366000Y-100395999D01*
X130366000Y-99696001D01*
X130365999Y-99696000D01*
X129216002Y-99696000D01*
X129216001Y-99696001D01*
X129216001Y-99840791D01*
X129218909Y-99865874D01*
X129264214Y-99968479D01*
X129271733Y-99975999D01*
X129299509Y-100030516D01*
X129289935Y-100090948D01*
X129271733Y-100116001D01*
X129264214Y-100123520D01*
X129218909Y-100226127D01*
X129216000Y-100251202D01*
X129216000Y-100395999D01*
X124816500Y-100395999D01*
X124816500Y-100276252D01*
X124810482Y-100245999D01*
X125866000Y-100245999D01*
X125866001Y-100246000D01*
X126915999Y-100246000D01*
X126916000Y-100245999D01*
X127216000Y-100245999D01*
X127216001Y-100246000D01*
X128265998Y-100246000D01*
X128265999Y-100245999D01*
X128265999Y-99901210D01*
X128265998Y-99901208D01*
X128263090Y-99876125D01*
X128217786Y-99773522D01*
X128138477Y-99694213D01*
X128035872Y-99648909D01*
X128010797Y-99646000D01*
X127216001Y-99646000D01*
X127216000Y-99646001D01*
X127216000Y-100245999D01*
X126916000Y-100245999D01*
X126916000Y-99646001D01*
X126915999Y-99646000D01*
X126121210Y-99646000D01*
X126121207Y-99646001D01*
X126096125Y-99648909D01*
X125993522Y-99694213D01*
X125914213Y-99773522D01*
X125868909Y-99876127D01*
X125866000Y-99901202D01*
X125866000Y-100245999D01*
X124810482Y-100245999D01*
X124804867Y-100217769D01*
X124775353Y-100173600D01*
X124758746Y-100114716D01*
X124779923Y-100057312D01*
X124787667Y-100048597D01*
X124867785Y-99968478D01*
X124913090Y-99865872D01*
X124915999Y-99840797D01*
X124916000Y-99840795D01*
X124916000Y-99696001D01*
X124915999Y-99696000D01*
X123565000Y-99696000D01*
X123506809Y-99677093D01*
X123470845Y-99627593D01*
X123466000Y-99597000D01*
X123466000Y-99395999D01*
X123766000Y-99395999D01*
X123766001Y-99396000D01*
X124915998Y-99396000D01*
X124915999Y-99395999D01*
X124915999Y-99251210D01*
X124915998Y-99251208D01*
X124913090Y-99226125D01*
X124897488Y-99190791D01*
X125866001Y-99190791D01*
X125868909Y-99215874D01*
X125914213Y-99318477D01*
X125993522Y-99397786D01*
X126096127Y-99443090D01*
X126121203Y-99445999D01*
X126915998Y-99445999D01*
X126916000Y-99445998D01*
X127216000Y-99445998D01*
X127216001Y-99445999D01*
X128010790Y-99445999D01*
X128010791Y-99445998D01*
X128035874Y-99443090D01*
X128138477Y-99397786D01*
X128140264Y-99395999D01*
X129216000Y-99395999D01*
X129216001Y-99396000D01*
X130365999Y-99396000D01*
X130366000Y-99395999D01*
X130666000Y-99395999D01*
X130666001Y-99396000D01*
X131815998Y-99396000D01*
X131815999Y-99395999D01*
X131815999Y-99251210D01*
X131815998Y-99251208D01*
X131813090Y-99226125D01*
X131767786Y-99123522D01*
X131760268Y-99116004D01*
X131732491Y-99061487D01*
X131742062Y-99001055D01*
X131760268Y-98975996D01*
X131767786Y-98968477D01*
X131813090Y-98865872D01*
X131815999Y-98840797D01*
X131816000Y-98840795D01*
X131816000Y-98696001D01*
X131815999Y-98696000D01*
X130666001Y-98696000D01*
X130666000Y-98696001D01*
X130666000Y-99395999D01*
X130366000Y-99395999D01*
X130366000Y-98696001D01*
X130365999Y-98696000D01*
X129216002Y-98696000D01*
X129216001Y-98696001D01*
X129216001Y-98840791D01*
X129218909Y-98865874D01*
X129264214Y-98968479D01*
X129271733Y-98975999D01*
X129299509Y-99030516D01*
X129289935Y-99090948D01*
X129271733Y-99116001D01*
X129264214Y-99123520D01*
X129218909Y-99226127D01*
X129216000Y-99251202D01*
X129216000Y-99395999D01*
X128140264Y-99395999D01*
X128217786Y-99318477D01*
X128263090Y-99215872D01*
X128265999Y-99190797D01*
X128266000Y-99190795D01*
X128266000Y-98846001D01*
X128265999Y-98846000D01*
X127216001Y-98846000D01*
X127216000Y-98846001D01*
X127216000Y-99445998D01*
X126916000Y-99445998D01*
X126916000Y-98846001D01*
X126915999Y-98846000D01*
X125866002Y-98846000D01*
X125866001Y-98846001D01*
X125866001Y-99190791D01*
X124897488Y-99190791D01*
X124867786Y-99123522D01*
X124860268Y-99116004D01*
X124832491Y-99061487D01*
X124842062Y-99001055D01*
X124860268Y-98975996D01*
X124867786Y-98968477D01*
X124913090Y-98865872D01*
X124915999Y-98840797D01*
X124916000Y-98840795D01*
X124916000Y-98696001D01*
X124915999Y-98696000D01*
X123766001Y-98696000D01*
X123766000Y-98696001D01*
X123766000Y-99395999D01*
X123466000Y-99395999D01*
X123466000Y-98395999D01*
X123766000Y-98395999D01*
X123766001Y-98396000D01*
X124915998Y-98396000D01*
X124915999Y-98395999D01*
X124915999Y-98251210D01*
X124915998Y-98251208D01*
X124913090Y-98226125D01*
X124895147Y-98185488D01*
X124888939Y-98124618D01*
X124919695Y-98071725D01*
X124975667Y-98047011D01*
X124985712Y-98046500D01*
X125335747Y-98046500D01*
X125335748Y-98046500D01*
X125394231Y-98034867D01*
X125460552Y-97990552D01*
X125483685Y-97955930D01*
X125531735Y-97918052D01*
X125592873Y-97915650D01*
X125643746Y-97949643D01*
X125648310Y-97955924D01*
X125671448Y-97990552D01*
X125737769Y-98034867D01*
X125794567Y-98046164D01*
X125847950Y-98076061D01*
X125873566Y-98131626D01*
X125870780Y-98169249D01*
X125868910Y-98176122D01*
X125866000Y-98201202D01*
X125866000Y-98545999D01*
X125866001Y-98546000D01*
X128265998Y-98546000D01*
X128265999Y-98545999D01*
X128265999Y-98201210D01*
X128265998Y-98201208D01*
X128263089Y-98176123D01*
X128261220Y-98169250D01*
X128264189Y-98108137D01*
X128302512Y-98060440D01*
X128337430Y-98046165D01*
X128394231Y-98034867D01*
X128460552Y-97990552D01*
X128483685Y-97955930D01*
X128531735Y-97918052D01*
X128592873Y-97915650D01*
X128643746Y-97949643D01*
X128648310Y-97955924D01*
X128671448Y-97990552D01*
X128737769Y-98034867D01*
X128780672Y-98043401D01*
X128796241Y-98046498D01*
X128796246Y-98046498D01*
X128796252Y-98046500D01*
X128796253Y-98046500D01*
X129146288Y-98046500D01*
X129204479Y-98065407D01*
X129240443Y-98114907D01*
X129240443Y-98176093D01*
X129236853Y-98185487D01*
X129218910Y-98226124D01*
X129218909Y-98226127D01*
X129216000Y-98251202D01*
X129216000Y-98395999D01*
X129216001Y-98396000D01*
X130365999Y-98396000D01*
X130366000Y-98395999D01*
X130666000Y-98395999D01*
X130666001Y-98396000D01*
X131815998Y-98396000D01*
X131815999Y-98395999D01*
X131815999Y-98251210D01*
X131815998Y-98251208D01*
X131813090Y-98226125D01*
X131767786Y-98123522D01*
X131688477Y-98044213D01*
X131585872Y-97998909D01*
X131560797Y-97996000D01*
X130666001Y-97996000D01*
X130666000Y-97996001D01*
X130666000Y-98395999D01*
X130366000Y-98395999D01*
X130366000Y-97996001D01*
X130365999Y-97996000D01*
X129611223Y-97996000D01*
X129553032Y-97977093D01*
X129517068Y-97927593D01*
X129514126Y-97877683D01*
X129516499Y-97865753D01*
X129516500Y-97865746D01*
X129516500Y-95826253D01*
X129516498Y-95826241D01*
X129511937Y-95803314D01*
X129504867Y-95767769D01*
X129460552Y-95701448D01*
X129460548Y-95701445D01*
X129394233Y-95657134D01*
X129394231Y-95657133D01*
X129394228Y-95657132D01*
X129394227Y-95657132D01*
X129335758Y-95645501D01*
X129335748Y-95645500D01*
X128796252Y-95645500D01*
X128796251Y-95645500D01*
X128796241Y-95645501D01*
X128737772Y-95657132D01*
X128737766Y-95657134D01*
X128671451Y-95701445D01*
X128671445Y-95701451D01*
X128648315Y-95736068D01*
X128600264Y-95773947D01*
X128539126Y-95776349D01*
X128488253Y-95742355D01*
X128483685Y-95736068D01*
X128460554Y-95701451D01*
X128460552Y-95701448D01*
X128460548Y-95701445D01*
X128394233Y-95657134D01*
X128394231Y-95657133D01*
X128394228Y-95657132D01*
X128394227Y-95657132D01*
X128335758Y-95645501D01*
X128335748Y-95645500D01*
X127796252Y-95645500D01*
X127796251Y-95645500D01*
X127796241Y-95645501D01*
X127737772Y-95657132D01*
X127737766Y-95657134D01*
X127671451Y-95701445D01*
X127671445Y-95701451D01*
X127648315Y-95736068D01*
X127600264Y-95773947D01*
X127539126Y-95776349D01*
X127488253Y-95742355D01*
X127483685Y-95736068D01*
X127460554Y-95701451D01*
X127460552Y-95701448D01*
X127460548Y-95701445D01*
X127394233Y-95657134D01*
X127394231Y-95657133D01*
X127394228Y-95657132D01*
X127394227Y-95657132D01*
X127335758Y-95645501D01*
X127335748Y-95645500D01*
X126796252Y-95645500D01*
X126796251Y-95645500D01*
X126796241Y-95645501D01*
X126737772Y-95657132D01*
X126737766Y-95657134D01*
X126671451Y-95701445D01*
X126671445Y-95701451D01*
X126648315Y-95736068D01*
X126600264Y-95773947D01*
X126539126Y-95776349D01*
X126488253Y-95742355D01*
X126483685Y-95736068D01*
X126460554Y-95701451D01*
X126460552Y-95701448D01*
X126460548Y-95701445D01*
X126394233Y-95657134D01*
X126394231Y-95657133D01*
X126394228Y-95657132D01*
X126394227Y-95657132D01*
X126335758Y-95645501D01*
X126335748Y-95645500D01*
X125796252Y-95645500D01*
X125796251Y-95645500D01*
X125796241Y-95645501D01*
X125737772Y-95657132D01*
X125737766Y-95657134D01*
X125671451Y-95701445D01*
X125671445Y-95701451D01*
X125648315Y-95736068D01*
X125600264Y-95773947D01*
X125539126Y-95776349D01*
X125488253Y-95742355D01*
X125483685Y-95736068D01*
X125460554Y-95701451D01*
X125460552Y-95701448D01*
X125460548Y-95701445D01*
X125394233Y-95657134D01*
X125394231Y-95657133D01*
X125394228Y-95657132D01*
X125394227Y-95657132D01*
X125335758Y-95645501D01*
X125335748Y-95645500D01*
X124796252Y-95645500D01*
X124796251Y-95645500D01*
X124796241Y-95645501D01*
X124737772Y-95657132D01*
X124737766Y-95657134D01*
X124671451Y-95701445D01*
X124671445Y-95701451D01*
X124627134Y-95767766D01*
X124627132Y-95767772D01*
X124615501Y-95826241D01*
X124615500Y-95826253D01*
X124615500Y-97865753D01*
X124617874Y-97877683D01*
X124610685Y-97938444D01*
X124569153Y-97983376D01*
X124520777Y-97996000D01*
X123766001Y-97996000D01*
X123766000Y-97996001D01*
X123766000Y-98395999D01*
X123466000Y-98395999D01*
X123466000Y-97996001D01*
X123465999Y-97996000D01*
X122571210Y-97996000D01*
X122571208Y-97996001D01*
X122546125Y-97998909D01*
X122443522Y-98044213D01*
X122364213Y-98123522D01*
X122356065Y-98141977D01*
X122315264Y-98187572D01*
X122255455Y-98200478D01*
X122199483Y-98175764D01*
X122168727Y-98122871D01*
X122166500Y-98101989D01*
X122166500Y-95600003D01*
X132417001Y-95600003D01*
X132419786Y-95629721D01*
X132419787Y-95629726D01*
X132463594Y-95754920D01*
X132542358Y-95861639D01*
X132542360Y-95861641D01*
X132649079Y-95940405D01*
X132774272Y-95984212D01*
X132803999Y-95986999D01*
X132847000Y-95986998D01*
X132847000Y-95527001D01*
X132846999Y-95527000D01*
X132417002Y-95527000D01*
X132417001Y-95527001D01*
X132417001Y-95600003D01*
X122166500Y-95600003D01*
X122166500Y-95226999D01*
X132417000Y-95226999D01*
X132417001Y-95227000D01*
X132846999Y-95227000D01*
X132847000Y-95226999D01*
X132847000Y-94766999D01*
X132803997Y-94767000D01*
X132774278Y-94769786D01*
X132774273Y-94769787D01*
X132649079Y-94813594D01*
X132542360Y-94892358D01*
X132542358Y-94892360D01*
X132463594Y-94999079D01*
X132419787Y-95124272D01*
X132417000Y-95153999D01*
X132417000Y-95226999D01*
X122166500Y-95226999D01*
X122166500Y-93295500D01*
X122185407Y-93237309D01*
X122234907Y-93201345D01*
X122265500Y-93196500D01*
X127903464Y-93196500D01*
X127961655Y-93215407D01*
G37*
%TD.AperFunction*%
%TA.AperFunction,Conductor*%
G36*
X143878407Y-97286209D02*
G01*
X143887806Y-97294487D01*
X144265400Y-97672081D01*
X144278275Y-97687937D01*
X144284764Y-97697869D01*
X144308891Y-97716648D01*
X144318078Y-97724760D01*
X144318892Y-97725574D01*
X144318896Y-97725577D01*
X144334956Y-97737043D01*
X144338240Y-97739491D01*
X144373738Y-97767120D01*
X144377075Y-97769717D01*
X144377079Y-97769718D01*
X144383555Y-97773222D01*
X144390135Y-97776440D01*
X144437303Y-97790482D01*
X144441165Y-97791720D01*
X144451512Y-97795272D01*
X144487713Y-97807700D01*
X144487715Y-97807700D01*
X144494937Y-97808905D01*
X144502240Y-97809815D01*
X144502247Y-97809817D01*
X144551377Y-97807785D01*
X144555468Y-97807700D01*
X144670010Y-97807700D01*
X144728201Y-97826607D01*
X144740014Y-97836696D01*
X145439199Y-98535881D01*
X145452074Y-98551737D01*
X145458563Y-98561669D01*
X145482690Y-98580448D01*
X145491877Y-98588560D01*
X145492690Y-98589372D01*
X145492694Y-98589376D01*
X145508784Y-98600864D01*
X145512048Y-98603298D01*
X145550874Y-98633517D01*
X145550875Y-98633517D01*
X145550876Y-98633518D01*
X145557337Y-98637014D01*
X145563934Y-98640240D01*
X145611102Y-98654282D01*
X145614964Y-98655520D01*
X145625311Y-98659072D01*
X145661512Y-98671500D01*
X145661514Y-98671500D01*
X145668733Y-98672705D01*
X145676039Y-98673615D01*
X145676046Y-98673617D01*
X145725186Y-98671584D01*
X145729276Y-98671500D01*
X145957812Y-98671500D01*
X146016003Y-98690407D01*
X146027809Y-98700490D01*
X146087517Y-98760198D01*
X146141285Y-98786483D01*
X146192604Y-98811572D01*
X146192605Y-98811572D01*
X146192607Y-98811573D01*
X146260740Y-98821500D01*
X146260743Y-98821500D01*
X147727257Y-98821500D01*
X147727260Y-98821500D01*
X147795393Y-98811573D01*
X147900483Y-98760198D01*
X147960186Y-98700494D01*
X148014701Y-98672719D01*
X148030188Y-98671500D01*
X148223610Y-98671500D01*
X148281801Y-98690407D01*
X148293614Y-98700496D01*
X148442240Y-98849122D01*
X148470017Y-98903639D01*
X148460446Y-98964071D01*
X148417181Y-99007336D01*
X148410122Y-99010590D01*
X148409238Y-99010955D01*
X148409238Y-99010956D01*
X148401283Y-99014251D01*
X148263160Y-99071463D01*
X148137723Y-99167713D01*
X148137715Y-99167721D01*
X148126939Y-99181766D01*
X148076515Y-99216423D01*
X148048396Y-99220500D01*
X148030188Y-99220500D01*
X147971997Y-99201593D01*
X147960190Y-99191509D01*
X147900483Y-99131802D01*
X147897576Y-99130381D01*
X147795395Y-99080427D01*
X147767377Y-99076345D01*
X147727260Y-99070500D01*
X146260740Y-99070500D01*
X146226673Y-99075463D01*
X146192604Y-99080427D01*
X146087518Y-99131801D01*
X146004801Y-99214518D01*
X145953427Y-99319604D01*
X145953427Y-99319607D01*
X145943500Y-99387740D01*
X145943500Y-99754260D01*
X145950118Y-99799682D01*
X145953427Y-99822395D01*
X145991954Y-99901202D01*
X146004802Y-99927483D01*
X146087517Y-100010198D01*
X146141285Y-100036483D01*
X146192604Y-100061572D01*
X146192605Y-100061572D01*
X146192607Y-100061573D01*
X146260740Y-100071500D01*
X146260743Y-100071500D01*
X147727257Y-100071500D01*
X147727260Y-100071500D01*
X147795393Y-100061573D01*
X147900483Y-100010198D01*
X147948779Y-99961901D01*
X148003293Y-99934125D01*
X148063725Y-99943696D01*
X148097323Y-99971638D01*
X148137718Y-100024282D01*
X148137722Y-100024285D01*
X148137723Y-100024286D01*
X148144598Y-100029561D01*
X148263159Y-100120536D01*
X148263160Y-100120536D01*
X148263161Y-100120537D01*
X148399946Y-100177195D01*
X148409238Y-100181044D01*
X148507862Y-100194028D01*
X148565999Y-100201682D01*
X148566000Y-100201682D01*
X148566001Y-100201682D01*
X148597352Y-100197554D01*
X148722762Y-100181044D01*
X148868841Y-100120536D01*
X148893033Y-100101972D01*
X148950707Y-100081548D01*
X149009373Y-100098925D01*
X149046621Y-100147466D01*
X149052300Y-100180514D01*
X149052300Y-101642410D01*
X149033393Y-101700601D01*
X149023304Y-101712414D01*
X148292317Y-102443400D01*
X148237800Y-102471177D01*
X148177368Y-102461606D01*
X148134103Y-102418341D01*
X148124532Y-102357909D01*
X148128869Y-102340697D01*
X148141149Y-102305602D01*
X148143999Y-102275211D01*
X148144000Y-102275210D01*
X148144000Y-102221001D01*
X148143999Y-102221000D01*
X147144001Y-102221000D01*
X147144000Y-102221001D01*
X147144000Y-102670998D01*
X147144001Y-102670999D01*
X147748203Y-102670999D01*
X147778600Y-102668149D01*
X147778606Y-102668148D01*
X147813699Y-102655869D01*
X147874869Y-102654496D01*
X147925164Y-102689340D01*
X147945372Y-102747091D01*
X147927775Y-102805692D01*
X147916400Y-102819317D01*
X147790920Y-102944796D01*
X147775069Y-102957669D01*
X147765132Y-102964161D01*
X147755438Y-102976616D01*
X147751002Y-102982316D01*
X147746348Y-102988295D01*
X147738237Y-102997480D01*
X147737427Y-102998289D01*
X147737419Y-102998298D01*
X147725933Y-103014386D01*
X147723490Y-103017663D01*
X147693282Y-103056474D01*
X147689781Y-103062943D01*
X147686559Y-103069534D01*
X147672518Y-103116696D01*
X147671270Y-103120590D01*
X147655300Y-103167110D01*
X147654093Y-103174343D01*
X147653183Y-103181646D01*
X147655104Y-103228100D01*
X147655215Y-103230769D01*
X147655300Y-103234861D01*
X147655300Y-105096810D01*
X147636393Y-105155001D01*
X147626298Y-105166819D01*
X147619755Y-105173361D01*
X147565237Y-105201134D01*
X147507918Y-105193076D01*
X147452487Y-105167228D01*
X147452488Y-105167228D01*
X147418784Y-105162791D01*
X147402901Y-105160700D01*
X147402900Y-105160700D01*
X147288590Y-105160700D01*
X147230399Y-105141793D01*
X147218586Y-105131704D01*
X146586001Y-104499119D01*
X146573125Y-104483262D01*
X146569238Y-104477313D01*
X146566637Y-104473331D01*
X146542504Y-104454548D01*
X146533319Y-104446437D01*
X146532507Y-104445625D01*
X146516425Y-104434143D01*
X146513161Y-104431710D01*
X146474326Y-104401483D01*
X146474324Y-104401482D01*
X146467877Y-104397993D01*
X146461270Y-104394763D01*
X146461266Y-104394760D01*
X146414109Y-104380720D01*
X146410215Y-104379472D01*
X146363687Y-104363499D01*
X146356460Y-104362293D01*
X146349155Y-104361383D01*
X146349154Y-104361383D01*
X146349152Y-104361383D01*
X146300024Y-104363415D01*
X146295933Y-104363500D01*
X145242188Y-104363500D01*
X145183997Y-104344593D01*
X145172190Y-104334509D01*
X145112483Y-104274802D01*
X145007393Y-104223427D01*
X145007391Y-104223426D01*
X145007393Y-104223426D01*
X144993403Y-104221388D01*
X144938547Y-104194288D01*
X144910096Y-104140120D01*
X144918919Y-104079574D01*
X144961644Y-104035777D01*
X144974981Y-104029978D01*
X145030922Y-104010403D01*
X145137639Y-103931641D01*
X145137641Y-103931639D01*
X145216405Y-103824920D01*
X145260212Y-103699727D01*
X145263000Y-103670000D01*
X145263000Y-103627001D01*
X145262999Y-103627000D01*
X144602000Y-103627000D01*
X144543809Y-103608093D01*
X144507845Y-103558593D01*
X144503000Y-103528000D01*
X144503000Y-103426000D01*
X144521907Y-103367809D01*
X144571407Y-103331845D01*
X144602000Y-103327000D01*
X145262998Y-103327000D01*
X145262999Y-103326999D01*
X145262999Y-103283996D01*
X145260213Y-103254278D01*
X145260212Y-103254273D01*
X145216405Y-103129079D01*
X145137641Y-103022360D01*
X145137639Y-103022358D01*
X145116014Y-103006398D01*
X145080422Y-102956630D01*
X145080880Y-102895446D01*
X145101284Y-102862430D01*
X145101256Y-102862411D01*
X145101597Y-102861922D01*
X145104802Y-102856737D01*
X145106224Y-102855316D01*
X145156972Y-102746487D01*
X145163500Y-102696901D01*
X145163499Y-102337100D01*
X145156972Y-102287513D01*
X145156972Y-102287511D01*
X145151233Y-102275203D01*
X145844001Y-102275203D01*
X145846850Y-102305600D01*
X145846850Y-102305602D01*
X145891654Y-102433647D01*
X145972207Y-102542790D01*
X145972209Y-102542792D01*
X146081352Y-102623345D01*
X146209398Y-102668149D01*
X146239789Y-102670999D01*
X146843998Y-102670999D01*
X146844000Y-102670998D01*
X146844000Y-102221001D01*
X146843999Y-102221000D01*
X145844002Y-102221000D01*
X145844001Y-102221001D01*
X145844001Y-102275203D01*
X145151233Y-102275203D01*
X145106225Y-102178686D01*
X145106224Y-102178685D01*
X145106224Y-102178684D01*
X145021316Y-102093776D01*
X145021314Y-102093775D01*
X145021313Y-102093774D01*
X144924660Y-102048704D01*
X144879912Y-102006976D01*
X144867500Y-101958980D01*
X144867500Y-101677500D01*
X144886407Y-101619309D01*
X144935907Y-101583345D01*
X144966500Y-101578500D01*
X145086747Y-101578500D01*
X145086748Y-101578500D01*
X145145231Y-101566867D01*
X145211552Y-101522552D01*
X145255867Y-101456231D01*
X145257947Y-101445772D01*
X145287843Y-101392391D01*
X145343408Y-101366775D01*
X145392930Y-101373625D01*
X145512238Y-101423044D01*
X145600775Y-101434700D01*
X145668999Y-101443682D01*
X145669000Y-101443682D01*
X145669001Y-101443682D01*
X145700352Y-101439554D01*
X145825762Y-101423044D01*
X145954777Y-101369603D01*
X146015773Y-101364803D01*
X146067942Y-101396772D01*
X146091357Y-101453300D01*
X146077074Y-101512795D01*
X146051451Y-101540722D01*
X145972213Y-101599203D01*
X145972207Y-101599209D01*
X145891654Y-101708352D01*
X145846850Y-101836398D01*
X145844000Y-101866788D01*
X145844000Y-101920999D01*
X145844001Y-101921000D01*
X148143998Y-101921000D01*
X148143999Y-101920999D01*
X148143999Y-101866796D01*
X148141149Y-101836399D01*
X148141149Y-101836397D01*
X148096345Y-101708352D01*
X148015792Y-101599209D01*
X148015790Y-101599207D01*
X147906645Y-101518653D01*
X147818645Y-101487861D01*
X147769965Y-101450796D01*
X147752368Y-101392196D01*
X147772576Y-101334444D01*
X147807860Y-101305478D01*
X147900483Y-101260198D01*
X147983198Y-101177483D01*
X148034573Y-101072393D01*
X148044500Y-101004260D01*
X148044500Y-100637740D01*
X148034573Y-100569607D01*
X148034128Y-100568697D01*
X148002530Y-100504062D01*
X147983198Y-100464517D01*
X147900483Y-100381802D01*
X147889601Y-100376482D01*
X147795395Y-100330427D01*
X147768139Y-100326456D01*
X147727260Y-100320500D01*
X146260740Y-100320500D01*
X146226673Y-100325463D01*
X146192604Y-100330427D01*
X146126353Y-100362816D01*
X146065771Y-100371387D01*
X146022606Y-100352417D01*
X145986358Y-100324603D01*
X145971841Y-100313464D01*
X145963584Y-100310044D01*
X145938746Y-100299755D01*
X145825762Y-100252956D01*
X145825759Y-100252955D01*
X145825758Y-100252955D01*
X145669001Y-100232318D01*
X145668999Y-100232318D01*
X145512241Y-100252955D01*
X145512232Y-100252957D01*
X145386001Y-100305244D01*
X145325004Y-100310044D01*
X145272835Y-100278075D01*
X145256651Y-100251664D01*
X145255867Y-100249773D01*
X145255867Y-100249769D01*
X145255864Y-100249765D01*
X145252186Y-100240884D01*
X145247387Y-100179887D01*
X145252187Y-100165113D01*
X145255863Y-100156236D01*
X145255867Y-100156231D01*
X145267500Y-100097748D01*
X145267500Y-99658252D01*
X145255867Y-99599769D01*
X145255864Y-99599765D01*
X145252187Y-99590887D01*
X145247386Y-99529890D01*
X145252187Y-99515113D01*
X145255863Y-99506236D01*
X145255867Y-99506231D01*
X145267500Y-99447748D01*
X145267500Y-99008252D01*
X145266068Y-99001055D01*
X145260759Y-98974364D01*
X145255867Y-98949769D01*
X145211552Y-98883448D01*
X145202326Y-98877283D01*
X145145233Y-98839134D01*
X145145231Y-98839133D01*
X145145228Y-98839132D01*
X145145227Y-98839132D01*
X145086758Y-98827501D01*
X145086748Y-98827500D01*
X143947252Y-98827500D01*
X143947251Y-98827500D01*
X143947241Y-98827501D01*
X143888772Y-98839132D01*
X143888766Y-98839134D01*
X143822451Y-98883445D01*
X143822447Y-98883449D01*
X143789815Y-98932286D01*
X143741764Y-98970164D01*
X143680626Y-98972566D01*
X143629753Y-98938572D01*
X143608576Y-98881168D01*
X143608500Y-98877283D01*
X143608500Y-98147976D01*
X143627407Y-98089785D01*
X143637490Y-98077978D01*
X143672065Y-98043404D01*
X143722068Y-97936173D01*
X143728500Y-97887316D01*
X143728500Y-97438684D01*
X143722068Y-97389827D01*
X143722067Y-97389825D01*
X143721079Y-97382319D01*
X143723068Y-97382057D01*
X143724624Y-97331043D01*
X143762079Y-97282662D01*
X143820819Y-97265537D01*
X143878407Y-97286209D01*
G37*
%TD.AperFunction*%
%TA.AperFunction,Conductor*%
G36*
X127822445Y-104070296D02*
G01*
X127865710Y-104113561D01*
X127876500Y-104158506D01*
X127876500Y-104314316D01*
X127877686Y-104323325D01*
X127882932Y-104363174D01*
X127882932Y-104363175D01*
X127932933Y-104470401D01*
X127932934Y-104470402D01*
X127932935Y-104470404D01*
X128016596Y-104554065D01*
X128016597Y-104554065D01*
X128016598Y-104554066D01*
X128029915Y-104560276D01*
X128074663Y-104602005D01*
X128086337Y-104662066D01*
X128060478Y-104717518D01*
X128029915Y-104739724D01*
X128016596Y-104745934D01*
X127982026Y-104780504D01*
X127927509Y-104808281D01*
X127912023Y-104809500D01*
X127848619Y-104809500D01*
X127828304Y-104807393D01*
X127816685Y-104804957D01*
X127797144Y-104807393D01*
X127786338Y-104808740D01*
X127774093Y-104809500D01*
X127772960Y-104809500D01*
X127753470Y-104812751D01*
X127749430Y-104813339D01*
X127712503Y-104817943D01*
X127652420Y-104806381D01*
X127610609Y-104761710D01*
X127603039Y-104700995D01*
X127620601Y-104660914D01*
X127632405Y-104644920D01*
X127676212Y-104519727D01*
X127679000Y-104490000D01*
X127679000Y-104417001D01*
X127678999Y-104417000D01*
X127048000Y-104417000D01*
X126989809Y-104398093D01*
X126953845Y-104348593D01*
X126949000Y-104318000D01*
X126949000Y-104216000D01*
X126967907Y-104157809D01*
X127017407Y-104121845D01*
X127048000Y-104117000D01*
X127678998Y-104117000D01*
X127707496Y-104088502D01*
X127762013Y-104060725D01*
X127822445Y-104070296D01*
G37*
%TD.AperFunction*%
%TA.AperFunction,Conductor*%
G36*
X142896593Y-99476892D02*
G01*
X142914739Y-99522835D01*
X142916266Y-99535083D01*
X142917427Y-99544393D01*
X142919527Y-99551448D01*
X142921907Y-99558380D01*
X142945322Y-99601646D01*
X142947195Y-99605285D01*
X142968801Y-99649482D01*
X142973078Y-99655472D01*
X142977581Y-99661257D01*
X142977582Y-99661258D01*
X143013380Y-99694213D01*
X143013764Y-99694566D01*
X143016717Y-99697399D01*
X143215174Y-99895856D01*
X143412194Y-100092875D01*
X143425070Y-100108731D01*
X143431563Y-100118669D01*
X143455694Y-100137451D01*
X143464878Y-100145560D01*
X143465689Y-100146370D01*
X143465694Y-100146375D01*
X143469133Y-100148830D01*
X143481773Y-100157856D01*
X143485051Y-100160300D01*
X143516511Y-100184786D01*
X143523874Y-100190517D01*
X143523878Y-100190518D01*
X143530364Y-100194028D01*
X143541393Y-100199421D01*
X143585364Y-100241967D01*
X143595929Y-100302233D01*
X143569052Y-100357200D01*
X143567910Y-100358361D01*
X143160269Y-100766004D01*
X143105752Y-100793782D01*
X143090265Y-100795001D01*
X142866118Y-100795001D01*
X142845803Y-100792894D01*
X142834184Y-100790458D01*
X142814643Y-100792894D01*
X142803837Y-100794241D01*
X142791592Y-100795001D01*
X142790459Y-100795001D01*
X142770969Y-100798252D01*
X142766930Y-100798840D01*
X142718106Y-100804927D01*
X142711080Y-100807018D01*
X142704115Y-100809409D01*
X142660860Y-100832818D01*
X142657223Y-100834690D01*
X142613019Y-100856300D01*
X142607041Y-100860567D01*
X142601243Y-100865081D01*
X142567930Y-100901266D01*
X142565100Y-100904216D01*
X141481814Y-101987504D01*
X141427297Y-102015281D01*
X141411810Y-102016500D01*
X141253684Y-102016500D01*
X141240011Y-102018300D01*
X141204825Y-102022932D01*
X141204824Y-102022932D01*
X141097598Y-102072933D01*
X141013933Y-102156598D01*
X140963932Y-102263824D01*
X140963932Y-102263825D01*
X140961150Y-102284956D01*
X140957500Y-102312684D01*
X140957500Y-102661316D01*
X140958400Y-102668149D01*
X140963932Y-102710174D01*
X140963932Y-102710175D01*
X141013933Y-102817401D01*
X141013934Y-102817402D01*
X141013935Y-102817404D01*
X141097596Y-102901065D01*
X141097597Y-102901065D01*
X141097598Y-102901066D01*
X141110915Y-102907276D01*
X141155663Y-102949005D01*
X141167337Y-103009066D01*
X141141478Y-103064518D01*
X141110915Y-103086724D01*
X141097598Y-103092933D01*
X141013933Y-103176598D01*
X140962304Y-103287316D01*
X140920575Y-103332064D01*
X140860514Y-103343738D01*
X140805061Y-103317879D01*
X140779135Y-103278172D01*
X140771404Y-103256078D01*
X140692641Y-103149360D01*
X140692639Y-103149358D01*
X140671014Y-103133398D01*
X140635422Y-103083630D01*
X140635880Y-103022446D01*
X140656284Y-102989430D01*
X140656256Y-102989411D01*
X140656597Y-102988922D01*
X140659802Y-102983737D01*
X140661224Y-102982316D01*
X140711972Y-102873487D01*
X140718500Y-102823901D01*
X140718499Y-102464100D01*
X140711972Y-102414513D01*
X140711972Y-102414511D01*
X140661225Y-102305686D01*
X140661224Y-102305685D01*
X140661224Y-102305684D01*
X140596494Y-102240954D01*
X140568719Y-102186440D01*
X140567500Y-102170953D01*
X140567500Y-102164490D01*
X140569437Y-102151204D01*
X140568602Y-102151100D01*
X140569617Y-102142954D01*
X140567585Y-102093824D01*
X140567500Y-102089733D01*
X140567500Y-101677500D01*
X140586407Y-101619309D01*
X140635907Y-101583345D01*
X140666500Y-101578500D01*
X140786747Y-101578500D01*
X140786748Y-101578500D01*
X140845231Y-101566867D01*
X140877680Y-101545185D01*
X140932682Y-101528500D01*
X141037381Y-101528500D01*
X141057696Y-101530607D01*
X141059606Y-101531007D01*
X141069315Y-101533043D01*
X141099662Y-101529259D01*
X141111907Y-101528500D01*
X141113043Y-101528500D01*
X141132521Y-101525249D01*
X141136552Y-101524661D01*
X141185393Y-101518573D01*
X141185396Y-101518571D01*
X141192429Y-101516477D01*
X141199375Y-101514092D01*
X141199381Y-101514092D01*
X141242655Y-101490671D01*
X141246279Y-101488807D01*
X141290482Y-101467199D01*
X141290482Y-101467198D01*
X141290484Y-101467198D01*
X141290485Y-101467196D01*
X141296470Y-101462923D01*
X141302255Y-101458420D01*
X141302255Y-101458419D01*
X141302258Y-101458418D01*
X141335579Y-101422220D01*
X141338364Y-101419316D01*
X141830884Y-100926796D01*
X141846734Y-100913926D01*
X141856669Y-100907437D01*
X141875451Y-100883303D01*
X141883577Y-100874104D01*
X141884376Y-100873306D01*
X141895875Y-100857198D01*
X141898309Y-100853936D01*
X141928517Y-100815126D01*
X141928518Y-100815122D01*
X141932022Y-100808650D01*
X141935237Y-100802071D01*
X141935237Y-100802069D01*
X141935240Y-100802066D01*
X141944865Y-100769733D01*
X141969743Y-100727981D01*
X142581884Y-100115840D01*
X142597734Y-100102970D01*
X142607669Y-100096481D01*
X142626451Y-100072347D01*
X142634577Y-100063148D01*
X142635375Y-100062351D01*
X142646857Y-100046267D01*
X142649290Y-100043005D01*
X142679517Y-100004170D01*
X142679517Y-100004167D01*
X142683014Y-99997706D01*
X142686239Y-99991111D01*
X142692036Y-99971638D01*
X142700281Y-99943940D01*
X142701512Y-99940098D01*
X142717500Y-99893532D01*
X142717500Y-99893528D01*
X142718706Y-99886303D01*
X142719617Y-99878998D01*
X142717585Y-99829868D01*
X142717500Y-99825777D01*
X142717500Y-99535083D01*
X142736407Y-99476892D01*
X142785907Y-99440928D01*
X142847093Y-99440928D01*
X142896593Y-99476892D01*
G37*
%TD.AperFunction*%
%TA.AperFunction,Conductor*%
G36*
X137068712Y-97490407D02*
G01*
X137080525Y-97500496D01*
X137255504Y-97675475D01*
X137283281Y-97729992D01*
X137284500Y-97745479D01*
X137284500Y-97969895D01*
X137284501Y-97969907D01*
X137291027Y-98019486D01*
X137291027Y-98019488D01*
X137341774Y-98128313D01*
X137341775Y-98128314D01*
X137341776Y-98128316D01*
X137426684Y-98213224D01*
X137535513Y-98263972D01*
X137585099Y-98270500D01*
X138004900Y-98270499D01*
X138004903Y-98270498D01*
X138008130Y-98270287D01*
X138008207Y-98271467D01*
X138063937Y-98281789D01*
X138095250Y-98308530D01*
X138105781Y-98322254D01*
X138105783Y-98322256D01*
X138105787Y-98322261D01*
X138166446Y-98368806D01*
X138201100Y-98419228D01*
X138199499Y-98480392D01*
X138176181Y-98517349D01*
X138092935Y-98600595D01*
X138092933Y-98600598D01*
X138042932Y-98707824D01*
X138042932Y-98707825D01*
X138040471Y-98726517D01*
X138036500Y-98756684D01*
X138036500Y-99105316D01*
X138042932Y-99154173D01*
X138073861Y-99220500D01*
X138074946Y-99222826D01*
X138082402Y-99283555D01*
X138052739Y-99337069D01*
X137997286Y-99362927D01*
X137937225Y-99351252D01*
X137924954Y-99343207D01*
X137866477Y-99298336D01*
X137843841Y-99280967D01*
X137843840Y-99280966D01*
X137843838Y-99280965D01*
X137697766Y-99220460D01*
X137697758Y-99220458D01*
X137541001Y-99199821D01*
X137540999Y-99199821D01*
X137384241Y-99220458D01*
X137384233Y-99220460D01*
X137238161Y-99280965D01*
X137238160Y-99280965D01*
X137112715Y-99377222D01*
X137111083Y-99378855D01*
X137109611Y-99379604D01*
X137107570Y-99381171D01*
X137107279Y-99380792D01*
X137056564Y-99406628D01*
X136996133Y-99397052D01*
X136952872Y-99353784D01*
X136943120Y-99294571D01*
X136946555Y-99271000D01*
X136474001Y-99271000D01*
X136474000Y-99271001D01*
X136474000Y-99570998D01*
X136474001Y-99570999D01*
X136632213Y-99570999D01*
X136632216Y-99570998D01*
X136700250Y-99561087D01*
X136805188Y-99509785D01*
X136808885Y-99506089D01*
X136863400Y-99478309D01*
X136923832Y-99487877D01*
X136967099Y-99531139D01*
X136976674Y-99591571D01*
X136970357Y-99613973D01*
X136955956Y-99648739D01*
X136955955Y-99648744D01*
X136935318Y-99805502D01*
X136935318Y-99805503D01*
X136955955Y-99962261D01*
X136955957Y-99962269D01*
X137016462Y-100108341D01*
X137016462Y-100108342D01*
X137110287Y-100230617D01*
X137112718Y-100233785D01*
X137112722Y-100233788D01*
X137112723Y-100233789D01*
X137238157Y-100330038D01*
X137243780Y-100333284D01*
X137242759Y-100335051D01*
X137282222Y-100368756D01*
X137296506Y-100428250D01*
X137287183Y-100458315D01*
X137288897Y-100459025D01*
X137286414Y-100465018D01*
X137286414Y-100465019D01*
X137243092Y-100569607D01*
X137225907Y-100611096D01*
X137225905Y-100611101D01*
X137207916Y-100747748D01*
X137205268Y-100767860D01*
X137225658Y-100922742D01*
X137225906Y-100924621D01*
X137227499Y-100930567D01*
X137224296Y-100991669D01*
X137185790Y-101039218D01*
X137164570Y-101049633D01*
X137036079Y-101094594D01*
X136929360Y-101173358D01*
X136929358Y-101173360D01*
X136850594Y-101280079D01*
X136806787Y-101405272D01*
X136804000Y-101434999D01*
X136804000Y-101477999D01*
X136804001Y-101478000D01*
X138030483Y-101478000D01*
X138071778Y-101456960D01*
X138132210Y-101466531D01*
X138157265Y-101484734D01*
X138176596Y-101504065D01*
X138176597Y-101504065D01*
X138176598Y-101504066D01*
X138189915Y-101510276D01*
X138234663Y-101552005D01*
X138246337Y-101612066D01*
X138220478Y-101667518D01*
X138189915Y-101689724D01*
X138176598Y-101695933D01*
X138176596Y-101695934D01*
X138176596Y-101695935D01*
X138123525Y-101749005D01*
X138069011Y-101776781D01*
X138053524Y-101778000D01*
X136804002Y-101778000D01*
X136804001Y-101778001D01*
X136804001Y-101821003D01*
X136806786Y-101850721D01*
X136806787Y-101850726D01*
X136850594Y-101975920D01*
X136929358Y-102082639D01*
X136929363Y-102082644D01*
X136950984Y-102098601D01*
X136986577Y-102148368D01*
X136986119Y-102209552D01*
X136965716Y-102242569D01*
X136965744Y-102242589D01*
X136965412Y-102243061D01*
X136962204Y-102248255D01*
X136960777Y-102249681D01*
X136960774Y-102249686D01*
X136910029Y-102358510D01*
X136910028Y-102358511D01*
X136903500Y-102408100D01*
X136903500Y-102561810D01*
X136884593Y-102620001D01*
X136874504Y-102631813D01*
X136720815Y-102785503D01*
X136666298Y-102813281D01*
X136650811Y-102814500D01*
X136596682Y-102814500D01*
X136541680Y-102797815D01*
X136509233Y-102776134D01*
X136509231Y-102776133D01*
X136509228Y-102776132D01*
X136509227Y-102776132D01*
X136450758Y-102764501D01*
X136450748Y-102764500D01*
X136450747Y-102764500D01*
X136104931Y-102764500D01*
X136046740Y-102745593D01*
X136010776Y-102696093D01*
X136010776Y-102634907D01*
X136013467Y-102627614D01*
X136025128Y-102599462D01*
X136058555Y-102518762D01*
X136079193Y-102362000D01*
X136078654Y-102357909D01*
X136067766Y-102275203D01*
X136058555Y-102205238D01*
X136015852Y-102102143D01*
X135998048Y-102059161D01*
X135998048Y-102059160D01*
X135901797Y-101933723D01*
X135901796Y-101933722D01*
X135901793Y-101933718D01*
X135901788Y-101933714D01*
X135901787Y-101933713D01*
X135788486Y-101846775D01*
X135776352Y-101837464D01*
X135776351Y-101837463D01*
X135776349Y-101837462D01*
X135630273Y-101776956D01*
X135560108Y-101767718D01*
X135504883Y-101741376D01*
X135475689Y-101687605D01*
X135474031Y-101669565D01*
X135474031Y-100821699D01*
X135476262Y-100808026D01*
X135475036Y-100807855D01*
X135476304Y-100798763D01*
X135474137Y-100751888D01*
X135474031Y-100747316D01*
X135474031Y-100728691D01*
X135474031Y-100728687D01*
X135474009Y-100728573D01*
X135472429Y-100714961D01*
X135471116Y-100686539D01*
X135467146Y-100677548D01*
X135460395Y-100655746D01*
X135458592Y-100646099D01*
X135458592Y-100646098D01*
X135443616Y-100621910D01*
X135437229Y-100609793D01*
X135425737Y-100583766D01*
X135425736Y-100583764D01*
X135418787Y-100576815D01*
X135404621Y-100558930D01*
X135394621Y-100542779D01*
X135395983Y-100541935D01*
X135375107Y-100495803D01*
X135374500Y-100484856D01*
X135374500Y-99670000D01*
X135393407Y-99611809D01*
X135442907Y-99575845D01*
X135473500Y-99571000D01*
X135474500Y-99571000D01*
X135532691Y-99589907D01*
X135568655Y-99639407D01*
X135573500Y-99670000D01*
X135573500Y-99920670D01*
X135573523Y-99920904D01*
X135574000Y-99930613D01*
X135574000Y-100243553D01*
X135625252Y-100236086D01*
X135730188Y-100184786D01*
X135730189Y-100184785D01*
X135739476Y-100175499D01*
X135793992Y-100147719D01*
X135809482Y-100146500D01*
X135948673Y-100146500D01*
X135948674Y-100146500D01*
X136021740Y-100131966D01*
X136104601Y-100076601D01*
X136159966Y-99993740D01*
X136174500Y-99920674D01*
X136174500Y-99669999D01*
X136193407Y-99611808D01*
X136242907Y-99575844D01*
X136273500Y-99570999D01*
X136273999Y-99570999D01*
X136274000Y-99570998D01*
X136274000Y-99170500D01*
X136292907Y-99112309D01*
X136342407Y-99076345D01*
X136373000Y-99071500D01*
X136623670Y-99071500D01*
X136623674Y-99071500D01*
X136623677Y-99071499D01*
X136623914Y-99071476D01*
X136633615Y-99071000D01*
X136946553Y-99071000D01*
X136939087Y-99019749D01*
X136887785Y-98914810D01*
X136887783Y-98914808D01*
X136878494Y-98905518D01*
X136850718Y-98851001D01*
X136849500Y-98835517D01*
X136849500Y-98696327D01*
X136849498Y-98696315D01*
X136841252Y-98654861D01*
X136834966Y-98623260D01*
X136834962Y-98623255D01*
X136831233Y-98614248D01*
X136833248Y-98613413D01*
X136820189Y-98567120D01*
X136832773Y-98528389D01*
X136831233Y-98527752D01*
X136834961Y-98518746D01*
X136834966Y-98518740D01*
X136849500Y-98445674D01*
X136849500Y-98296326D01*
X136834966Y-98223260D01*
X136834962Y-98223255D01*
X136831233Y-98214248D01*
X136833248Y-98213413D01*
X136820189Y-98167120D01*
X136832773Y-98128389D01*
X136831233Y-98127752D01*
X136834961Y-98118746D01*
X136834966Y-98118740D01*
X136849500Y-98045674D01*
X136849500Y-97896326D01*
X136834966Y-97823260D01*
X136834962Y-97823255D01*
X136831233Y-97814248D01*
X136833248Y-97813413D01*
X136820189Y-97767120D01*
X136832773Y-97728389D01*
X136831233Y-97727752D01*
X136834961Y-97718746D01*
X136834966Y-97718740D01*
X136849500Y-97645674D01*
X136849500Y-97570500D01*
X136868407Y-97512309D01*
X136917907Y-97476345D01*
X136948500Y-97471500D01*
X137010521Y-97471500D01*
X137068712Y-97490407D01*
G37*
%TD.AperFunction*%
%TA.AperFunction,Conductor*%
G36*
X139356804Y-98794407D02*
G01*
X139392768Y-98843907D01*
X139392768Y-98905093D01*
X139389178Y-98914488D01*
X139369909Y-98958127D01*
X139367000Y-98983202D01*
X139367000Y-99077999D01*
X139367001Y-99078000D01*
X140989924Y-99078000D01*
X141048115Y-99096907D01*
X141050157Y-99098432D01*
X141115101Y-99148265D01*
X141115102Y-99148265D01*
X141115103Y-99148266D01*
X141217777Y-99190795D01*
X141261180Y-99208773D01*
X141367924Y-99222826D01*
X141417941Y-99229411D01*
X141417942Y-99229411D01*
X141417943Y-99229411D01*
X141467960Y-99222826D01*
X141574704Y-99208773D01*
X141720783Y-99148265D01*
X141739331Y-99134031D01*
X141763608Y-99120347D01*
X141786897Y-99111261D01*
X141853516Y-99054836D01*
X141910139Y-99031655D01*
X141969575Y-99046183D01*
X142009119Y-99092873D01*
X142016500Y-99130381D01*
X142016500Y-99648853D01*
X141997593Y-99707044D01*
X141987504Y-99718857D01*
X141401118Y-100305242D01*
X141385265Y-100318115D01*
X141375335Y-100324603D01*
X141375332Y-100324605D01*
X141356548Y-100348739D01*
X141348437Y-100357924D01*
X141347627Y-100358733D01*
X141347619Y-100358742D01*
X141336133Y-100374830D01*
X141333690Y-100378107D01*
X141303482Y-100416918D01*
X141299981Y-100423387D01*
X141296758Y-100429981D01*
X141287132Y-100462311D01*
X141262253Y-100504062D01*
X141136504Y-100629812D01*
X141081987Y-100657590D01*
X141021555Y-100648019D01*
X140978291Y-100604754D01*
X140967500Y-100559809D01*
X140967500Y-100308253D01*
X140967500Y-100308252D01*
X140955867Y-100249769D01*
X140955864Y-100249765D01*
X140952187Y-100240887D01*
X140947386Y-100179890D01*
X140952187Y-100165113D01*
X140955863Y-100156236D01*
X140955867Y-100156231D01*
X140967500Y-100097748D01*
X140967500Y-99692771D01*
X140986407Y-99634580D01*
X140996498Y-99622766D01*
X141018786Y-99600478D01*
X141064090Y-99497872D01*
X141066999Y-99472797D01*
X141067000Y-99472795D01*
X141067000Y-99378001D01*
X141066999Y-99378000D01*
X139367002Y-99378000D01*
X139367001Y-99378001D01*
X139367001Y-99472789D01*
X139369008Y-99490095D01*
X139356930Y-99550076D01*
X139311903Y-99591503D01*
X139270667Y-99600500D01*
X139041977Y-99600500D01*
X138983786Y-99581593D01*
X138971974Y-99571504D01*
X138937404Y-99536935D01*
X138929926Y-99533448D01*
X138924085Y-99530724D01*
X138879337Y-99488997D01*
X138867662Y-99428936D01*
X138893519Y-99373483D01*
X138924084Y-99351275D01*
X138937404Y-99345065D01*
X139021065Y-99261404D01*
X139071068Y-99154173D01*
X139077500Y-99105316D01*
X139077500Y-98947190D01*
X139096407Y-98888999D01*
X139106496Y-98877186D01*
X139179186Y-98804496D01*
X139233703Y-98776719D01*
X139249190Y-98775500D01*
X139298613Y-98775500D01*
X139356804Y-98794407D01*
G37*
%TD.AperFunction*%
%TA.AperFunction,Conductor*%
G36*
X146502090Y-94802290D02*
G01*
X146538423Y-94851520D01*
X146543500Y-94882816D01*
X146543500Y-97721500D01*
X146524593Y-97779691D01*
X146475093Y-97815655D01*
X146444500Y-97820500D01*
X146260740Y-97820500D01*
X146226673Y-97825463D01*
X146192604Y-97830427D01*
X146087518Y-97881801D01*
X146087517Y-97881801D01*
X146087517Y-97881802D01*
X146027813Y-97941505D01*
X145973299Y-97969281D01*
X145957812Y-97970500D01*
X145906189Y-97970500D01*
X145847998Y-97951593D01*
X145836185Y-97941504D01*
X145224409Y-97329727D01*
X145196632Y-97275210D01*
X145206203Y-97214778D01*
X145241773Y-97178673D01*
X145240788Y-97177339D01*
X145352263Y-97095065D01*
X145352265Y-97095063D01*
X145430135Y-96989554D01*
X145473444Y-96865783D01*
X145476199Y-96836403D01*
X145476200Y-96836400D01*
X145476200Y-96799001D01*
X145476199Y-96799000D01*
X144805200Y-96799000D01*
X144747009Y-96780093D01*
X144711045Y-96730593D01*
X144706200Y-96700000D01*
X144706200Y-96598000D01*
X144725107Y-96539809D01*
X144774607Y-96503845D01*
X144805200Y-96499000D01*
X145476199Y-96499000D01*
X145476200Y-96498999D01*
X145476200Y-96461600D01*
X145476199Y-96461596D01*
X145473444Y-96432216D01*
X145430135Y-96308445D01*
X145352265Y-96202936D01*
X145352260Y-96202931D01*
X145286295Y-96154247D01*
X145250702Y-96104480D01*
X145251160Y-96043296D01*
X145275078Y-96004590D01*
X145320265Y-95959404D01*
X145370268Y-95852173D01*
X145376700Y-95803316D01*
X145376700Y-95454684D01*
X145370268Y-95405827D01*
X145364839Y-95394185D01*
X145324381Y-95307422D01*
X145316924Y-95246693D01*
X145344102Y-95195579D01*
X145601186Y-94938496D01*
X145655702Y-94910719D01*
X145671189Y-94909500D01*
X146150262Y-94909500D01*
X146150265Y-94909499D01*
X146179849Y-94906725D01*
X146304475Y-94863116D01*
X146385712Y-94803161D01*
X146443759Y-94783819D01*
X146502090Y-94802290D01*
G37*
%TD.AperFunction*%
%TD*%
M02*
