%TF.GenerationSoftware,KiCad,Pcbnew,7.0.11+1*%
%TF.CreationDate,2024-06-09T21:06:59+00:00*%
%TF.ProjectId,TFASPDIMU02,54464153-5044-4494-9d55-30322e6b6963,rev?*%
%TF.SameCoordinates,Original*%
%TF.FileFunction,Copper,L1,Top*%
%TF.FilePolarity,Positive*%
%FSLAX46Y46*%
G04 Gerber Fmt 4.6, Leading zero omitted, Abs format (unit mm)*
G04 Created by KiCad (PCBNEW 7.0.11+1) date 2024-06-09 21:06:59*
%MOMM*%
%LPD*%
G01*
G04 APERTURE LIST*
G04 Aperture macros list*
%AMFreePoly0*
4,1,19,0.550000,-0.750000,0.000000,-0.750000,0.000000,-0.744911,-0.071157,-0.744911,-0.207708,-0.704816,-0.327430,-0.627875,-0.420627,-0.520320,-0.479746,-0.390866,-0.500000,-0.250000,-0.500000,0.250000,-0.479746,0.390866,-0.420627,0.520320,-0.327430,0.627875,-0.207708,0.704816,-0.071157,0.744911,0.000000,0.744911,0.000000,0.750000,0.550000,0.750000,0.550000,-0.750000,0.550000,-0.750000,
$1*%
%AMFreePoly1*
4,1,19,0.000000,0.744911,0.071157,0.744911,0.207708,0.704816,0.327430,0.627875,0.420627,0.520320,0.479746,0.390866,0.500000,0.250000,0.500000,-0.250000,0.479746,-0.390866,0.420627,-0.520320,0.327430,-0.627875,0.207708,-0.704816,0.071157,-0.744911,0.000000,-0.744911,0.000000,-0.750000,-0.550000,-0.750000,-0.550000,0.750000,0.000000,0.750000,0.000000,0.744911,0.000000,0.744911,
$1*%
G04 Aperture macros list end*
%TA.AperFunction,SMDPad,CuDef*%
%ADD10FreePoly0,180.000000*%
%TD*%
%TA.AperFunction,SMDPad,CuDef*%
%ADD11R,1.000000X1.500000*%
%TD*%
%TA.AperFunction,SMDPad,CuDef*%
%ADD12FreePoly1,180.000000*%
%TD*%
%TA.AperFunction,SMDPad,CuDef*%
%ADD13FreePoly0,90.000000*%
%TD*%
%TA.AperFunction,SMDPad,CuDef*%
%ADD14R,1.500000X1.000000*%
%TD*%
%TA.AperFunction,SMDPad,CuDef*%
%ADD15FreePoly1,90.000000*%
%TD*%
%TA.AperFunction,ViaPad*%
%ADD16C,0.800000*%
%TD*%
%TA.AperFunction,Conductor*%
%ADD17C,0.300000*%
%TD*%
%TA.AperFunction,Conductor*%
%ADD18C,0.400000*%
%TD*%
G04 APERTURE END LIST*
%TA.AperFunction,EtchedComponent*%
%TO.C,JP2*%
G36*
X126884000Y-104948000D02*
G01*
X126384000Y-104948000D01*
X126384000Y-104348000D01*
X126884000Y-104348000D01*
X126884000Y-104948000D01*
G37*
%TD.AperFunction*%
%TA.AperFunction,EtchedComponent*%
%TO.C,JP1*%
G36*
X139238000Y-96404000D02*
G01*
X138638000Y-96404000D01*
X138638000Y-95904000D01*
X139238000Y-95904000D01*
X139238000Y-96404000D01*
G37*
%TD.AperFunction*%
%TD*%
D10*
%TO.P,JP2,1,A*%
%TO.N,GND*%
X127284000Y-104648000D03*
D11*
%TO.P,JP2,2,C*%
%TO.N,Net-(JP2-C)*%
X125984000Y-104648000D03*
D12*
%TO.P,JP2,3,B*%
%TO.N,Net-(JP2-B)*%
X124684000Y-104648000D03*
%TD*%
D13*
%TO.P,JP1,1,A*%
%TO.N,GND*%
X138938000Y-96804000D03*
D14*
%TO.P,JP1,2,C*%
%TO.N,Net-(JP1-C)*%
X138938000Y-95504000D03*
D15*
%TO.P,JP1,3,B*%
%TO.N,+1V8*%
X138938000Y-94204000D03*
%TD*%
D16*
%TO.N,GND*%
X130556000Y-96012000D03*
X150749000Y-96494600D03*
X143179800Y-96596200D03*
X150698200Y-97866200D03*
X124129800Y-95072200D03*
X150749000Y-103936800D03*
X130048000Y-106680000D03*
X148285200Y-106654600D03*
X149733000Y-102616000D03*
X141524561Y-99617529D03*
X132207000Y-94488000D03*
X136525000Y-106553000D03*
X132791200Y-103733600D03*
X150749000Y-100330000D03*
X133121400Y-104546400D03*
X122682000Y-102743000D03*
X150749000Y-99060000D03*
X137541000Y-98806000D03*
X149479000Y-96469200D03*
X130886200Y-94183200D03*
X142966000Y-100396000D03*
X132207000Y-106680000D03*
X122936000Y-96012000D03*
X142976600Y-105664000D03*
X139192000Y-106553000D03*
X150749000Y-101600000D03*
X122682000Y-106045000D03*
X136751001Y-96393001D03*
X145897600Y-103530400D03*
X126136400Y-94589600D03*
X146024600Y-97180400D03*
X147167600Y-103149400D03*
X139446000Y-104267000D03*
X128676400Y-99517200D03*
X148564600Y-101320600D03*
X149326600Y-103936800D03*
X137922000Y-106553000D03*
X131191000Y-106680000D03*
X145872200Y-95656400D03*
X147955000Y-97028000D03*
X125425200Y-99568000D03*
X144266000Y-98296000D03*
X144475200Y-93726000D03*
X136507451Y-102369947D03*
X136525000Y-100660200D03*
X150749000Y-102616000D03*
X141305352Y-105706855D03*
X141732000Y-94869000D03*
%TO.N,+1V8*%
X141417942Y-98623729D03*
X136779000Y-94107000D03*
%TO.N,Net-(JP1-C)*%
X134836500Y-95267964D03*
%TO.N,/SCL_3V3*%
X142471341Y-103533135D03*
X148566000Y-99596000D03*
%TO.N,/SDA_3V3*%
X141220163Y-97643990D03*
X145669000Y-100838000D03*
%TO.N,/SDA_1V8*%
X137541000Y-99805503D03*
X133197595Y-99872795D03*
%TO.N,/SCL_1V8*%
X137810950Y-100767860D03*
X134074511Y-101473000D03*
%TO.N,Net-(JP2-C)*%
X123825000Y-102870000D03*
%TO.N,Net-(JP2-B)*%
X124316500Y-104619958D03*
%TO.N,/P_SDA_1V8*%
X134131944Y-104076898D03*
X135473511Y-102362000D03*
%TO.N,/P_SCL_1V8*%
X133731000Y-103124000D03*
X132003800Y-96672400D03*
%TO.N,+3.3V*%
X138486990Y-98061001D03*
X142397999Y-102475105D03*
X141057701Y-104585701D03*
X129518166Y-104626166D03*
X130175000Y-103065500D03*
%TD*%
D17*
%TO.N,GND*%
X142966000Y-100396000D02*
X142966000Y-100096000D01*
%TO.N,+1V8*%
X140474489Y-94440489D02*
X140474489Y-97329708D01*
X136779000Y-94107000D02*
X138841000Y-94107000D01*
X138938000Y-94204000D02*
X140238000Y-94204000D01*
X140474489Y-97329708D02*
X140470662Y-97333535D01*
X138841000Y-94107000D02*
X138938000Y-94204000D01*
X140470662Y-97333535D02*
X140470662Y-98200662D01*
X140893729Y-98623729D02*
X141417942Y-98623729D01*
X140470662Y-98200662D02*
X140893729Y-98623729D01*
X140238000Y-94204000D02*
X140474489Y-94440489D01*
%TO.N,Net-(JP1-C)*%
X138938000Y-95504000D02*
X138701964Y-95267964D01*
X138701964Y-95267964D02*
X134836500Y-95267964D01*
%TO.N,/SCL_3V3*%
X144628865Y-103533135D02*
X142471341Y-103533135D01*
X148566000Y-99596000D02*
X144628865Y-103533135D01*
%TO.N,/SDA_3V3*%
X141986000Y-97663000D02*
X145161000Y-100838000D01*
X141478000Y-97663000D02*
X141986000Y-97663000D01*
X145161000Y-100838000D02*
X145669000Y-100838000D01*
%TO.N,/SDA_1V8*%
X137518697Y-99783200D02*
X133287190Y-99783200D01*
X133287190Y-99783200D02*
X133197595Y-99872795D01*
X137541000Y-99805503D02*
X137518697Y-99783200D01*
%TO.N,/SCL_1V8*%
X137810950Y-100767860D02*
X137105810Y-101473000D01*
X137105810Y-101473000D02*
X134074511Y-101473000D01*
%TO.N,Net-(JP2-C)*%
X123825000Y-102870000D02*
X125256000Y-102870000D01*
X125984000Y-103598000D02*
X125984000Y-104648000D01*
X125256000Y-102870000D02*
X125984000Y-103598000D01*
%TO.N,Net-(JP2-B)*%
X124250500Y-104902000D02*
X124430000Y-104902000D01*
X124430000Y-104902000D02*
X124684000Y-104648000D01*
%TO.N,/P_SDA_1V8*%
X135473511Y-102362000D02*
X135473511Y-102888489D01*
X134285102Y-104076898D02*
X134131944Y-104076898D01*
X135473511Y-102888489D02*
X134285102Y-104076898D01*
%TO.N,/P_SCL_1V8*%
X132003800Y-101396800D02*
X132003800Y-96672400D01*
X133731000Y-103124000D02*
X132003800Y-101396800D01*
D18*
%TO.N,+3.3V*%
X140267918Y-105375484D02*
X141057701Y-104585701D01*
X130267484Y-105375484D02*
X140267918Y-105375484D01*
X141057701Y-103815403D02*
X141057701Y-104585701D01*
X129518166Y-104626166D02*
X129518166Y-103722334D01*
X142397999Y-102475105D02*
X141057701Y-103815403D01*
X138486990Y-98542720D02*
X138486990Y-98061001D01*
X142397999Y-102475105D02*
X142397999Y-102453729D01*
X129518166Y-104626166D02*
X130267484Y-105375484D01*
X129518166Y-103722334D02*
X130175000Y-103065500D01*
X142397999Y-102453729D02*
X138486990Y-98542720D01*
%TD*%
%TA.AperFunction,Conductor*%
%TO.N,GND*%
G36*
X151324691Y-93015407D02*
G01*
X151360655Y-93064907D01*
X151365500Y-93095500D01*
X151365500Y-107296500D01*
X151346593Y-107354691D01*
X151297093Y-107390655D01*
X151266500Y-107395500D01*
X122065500Y-107395500D01*
X122007309Y-107376593D01*
X121971345Y-107327093D01*
X121966500Y-107296500D01*
X121966500Y-102870000D01*
X123219318Y-102870000D01*
X123239955Y-103026758D01*
X123239957Y-103026766D01*
X123300462Y-103172838D01*
X123300462Y-103172839D01*
X123396713Y-103298276D01*
X123396718Y-103298282D01*
X123396722Y-103298285D01*
X123396723Y-103298286D01*
X123426082Y-103320813D01*
X123522159Y-103394536D01*
X123668238Y-103455044D01*
X123785809Y-103470522D01*
X123824999Y-103475682D01*
X123825000Y-103475682D01*
X123825001Y-103475682D01*
X123856352Y-103471554D01*
X123981762Y-103455044D01*
X124127841Y-103394536D01*
X124253282Y-103298282D01*
X124283245Y-103259232D01*
X124333669Y-103224577D01*
X124361787Y-103220500D01*
X125069810Y-103220500D01*
X125128001Y-103239407D01*
X125139814Y-103249496D01*
X125437955Y-103547637D01*
X125465732Y-103602154D01*
X125456161Y-103662586D01*
X125412896Y-103705851D01*
X125405831Y-103709107D01*
X125396880Y-103712814D01*
X125335883Y-103717611D01*
X125321115Y-103712812D01*
X125312233Y-103709133D01*
X125234002Y-103693572D01*
X125234000Y-103693572D01*
X124612111Y-103693572D01*
X124600488Y-103695243D01*
X124554520Y-103701852D01*
X124554515Y-103701853D01*
X124416564Y-103742359D01*
X124363631Y-103766532D01*
X124363624Y-103766536D01*
X124242689Y-103844255D01*
X124242681Y-103844261D01*
X124198713Y-103882360D01*
X124198696Y-103882377D01*
X124104554Y-103991023D01*
X124104545Y-103991036D01*
X124073100Y-104039966D01*
X124073090Y-104039984D01*
X124071908Y-104042573D01*
X124030530Y-104087646D01*
X124019754Y-104092896D01*
X124013659Y-104095421D01*
X123888223Y-104191671D01*
X123888213Y-104191681D01*
X123791962Y-104317118D01*
X123791962Y-104317119D01*
X123731457Y-104463191D01*
X123731455Y-104463199D01*
X123710818Y-104619957D01*
X123710818Y-104619958D01*
X123731455Y-104776716D01*
X123731457Y-104776724D01*
X123791962Y-104922796D01*
X123791962Y-104922797D01*
X123888213Y-105048234D01*
X123888218Y-105048240D01*
X123888222Y-105048243D01*
X123953342Y-105098211D01*
X123975954Y-105122605D01*
X123989060Y-105142665D01*
X123989063Y-105142669D01*
X124019957Y-105166714D01*
X124049204Y-105203713D01*
X124073091Y-105256018D01*
X124073099Y-105256031D01*
X124104545Y-105304963D01*
X124104554Y-105304976D01*
X124198696Y-105413622D01*
X124198705Y-105413632D01*
X124198712Y-105413638D01*
X124198713Y-105413639D01*
X124242681Y-105451738D01*
X124242689Y-105451744D01*
X124363624Y-105529463D01*
X124363629Y-105529466D01*
X124363634Y-105529469D01*
X124416562Y-105553640D01*
X124554517Y-105594147D01*
X124612111Y-105602428D01*
X124612112Y-105602428D01*
X125233999Y-105602428D01*
X125234000Y-105602428D01*
X125312231Y-105586867D01*
X125312238Y-105586862D01*
X125321112Y-105583187D01*
X125382109Y-105578386D01*
X125396884Y-105583187D01*
X125405764Y-105586865D01*
X125405766Y-105586865D01*
X125405769Y-105586867D01*
X125464252Y-105598500D01*
X125464253Y-105598500D01*
X126503747Y-105598500D01*
X126503748Y-105598500D01*
X126562231Y-105586867D01*
X126628552Y-105542552D01*
X126672867Y-105476231D01*
X126684500Y-105417748D01*
X126684500Y-104626166D01*
X128912484Y-104626166D01*
X128933121Y-104782924D01*
X128933123Y-104782932D01*
X128993628Y-104929004D01*
X128993628Y-104929005D01*
X129089879Y-105054442D01*
X129089884Y-105054448D01*
X129215325Y-105150702D01*
X129215326Y-105150702D01*
X129215327Y-105150703D01*
X129361399Y-105211208D01*
X129361404Y-105211210D01*
X129518166Y-105231848D01*
X129524599Y-105232695D01*
X129524371Y-105234422D01*
X129574638Y-105250755D01*
X129586450Y-105260844D01*
X130006576Y-105680969D01*
X130029140Y-105703532D01*
X130029142Y-105703534D01*
X130050629Y-105714482D01*
X130063870Y-105722596D01*
X130083392Y-105736778D01*
X130083393Y-105736778D01*
X130083395Y-105736780D01*
X130106345Y-105744236D01*
X130120685Y-105750177D01*
X130142180Y-105761130D01*
X130166018Y-105764905D01*
X130181095Y-105768525D01*
X130204051Y-105775984D01*
X130204054Y-105775984D01*
X140331350Y-105775984D01*
X140331351Y-105775984D01*
X140354300Y-105768527D01*
X140369383Y-105764905D01*
X140393222Y-105761130D01*
X140414720Y-105750174D01*
X140429069Y-105744232D01*
X140452008Y-105736780D01*
X140471530Y-105722595D01*
X140484767Y-105714484D01*
X140506260Y-105703534D01*
X140523178Y-105686614D01*
X140523190Y-105686605D01*
X140989415Y-105220380D01*
X141043932Y-105192602D01*
X141055148Y-105191719D01*
X141057700Y-105191382D01*
X141057701Y-105191383D01*
X141214463Y-105170745D01*
X141360542Y-105110237D01*
X141485983Y-105013983D01*
X141582237Y-104888542D01*
X141642745Y-104742463D01*
X141663383Y-104585701D01*
X141642745Y-104428939D01*
X141622365Y-104379737D01*
X141582238Y-104282862D01*
X141582238Y-104282861D01*
X141482033Y-104152271D01*
X141483414Y-104151210D01*
X141459420Y-104104117D01*
X141458201Y-104088630D01*
X141458201Y-104022302D01*
X141477108Y-103964111D01*
X141487191Y-103952305D01*
X141741492Y-103698003D01*
X141796007Y-103670227D01*
X141856439Y-103679798D01*
X141899704Y-103723063D01*
X141902958Y-103730122D01*
X141940092Y-103819769D01*
X141946805Y-103835976D01*
X142002095Y-103908032D01*
X142036062Y-103952299D01*
X142043059Y-103961417D01*
X142168500Y-104057671D01*
X142168501Y-104057671D01*
X142168502Y-104057672D01*
X142259636Y-104095421D01*
X142314579Y-104118179D01*
X142432150Y-104133657D01*
X142471340Y-104138817D01*
X142471341Y-104138817D01*
X142471342Y-104138817D01*
X142502693Y-104134689D01*
X142628103Y-104118179D01*
X142774182Y-104057671D01*
X142899623Y-103961417D01*
X142929586Y-103922367D01*
X142980010Y-103887712D01*
X143008128Y-103883635D01*
X144582246Y-103883635D01*
X144602561Y-103885742D01*
X144604471Y-103886142D01*
X144614180Y-103888178D01*
X144644527Y-103884394D01*
X144656772Y-103883635D01*
X144657908Y-103883635D01*
X144677386Y-103880384D01*
X144681417Y-103879796D01*
X144730258Y-103873708D01*
X144730261Y-103873706D01*
X144737294Y-103871612D01*
X144744240Y-103869227D01*
X144744246Y-103869227D01*
X144787520Y-103845806D01*
X144791144Y-103843942D01*
X144835347Y-103822334D01*
X144835347Y-103822333D01*
X144835349Y-103822333D01*
X144835350Y-103822331D01*
X144841335Y-103818058D01*
X144847120Y-103813555D01*
X144847120Y-103813554D01*
X144847123Y-103813553D01*
X144880444Y-103777355D01*
X144883229Y-103774451D01*
X148434276Y-100223404D01*
X148488791Y-100195629D01*
X148517197Y-100195257D01*
X148566000Y-100201682D01*
X148722762Y-100181044D01*
X148868841Y-100120536D01*
X148994282Y-100024282D01*
X149090536Y-99898841D01*
X149151044Y-99752762D01*
X149171682Y-99596000D01*
X149151044Y-99439238D01*
X149113359Y-99348259D01*
X149090537Y-99293161D01*
X149090537Y-99293160D01*
X148994286Y-99167723D01*
X148994285Y-99167722D01*
X148994282Y-99167718D01*
X148994277Y-99167714D01*
X148994276Y-99167713D01*
X148868838Y-99071462D01*
X148722766Y-99010957D01*
X148722758Y-99010955D01*
X148566001Y-98990318D01*
X148565999Y-98990318D01*
X148409241Y-99010955D01*
X148409233Y-99010957D01*
X148263161Y-99071462D01*
X148263160Y-99071462D01*
X148137723Y-99167713D01*
X148137713Y-99167723D01*
X148041462Y-99293160D01*
X148041462Y-99293161D01*
X147980957Y-99439233D01*
X147980955Y-99439241D01*
X147960318Y-99595999D01*
X147960318Y-99596000D01*
X147966742Y-99644798D01*
X147955592Y-99704959D01*
X147938593Y-99727724D01*
X144512679Y-103153639D01*
X144458162Y-103181416D01*
X144442675Y-103182635D01*
X143008128Y-103182635D01*
X142949937Y-103163728D01*
X142929586Y-103143902D01*
X142911971Y-103120946D01*
X142899623Y-103104853D01*
X142899618Y-103104849D01*
X142899617Y-103104848D01*
X142833689Y-103054260D01*
X142799033Y-103003836D01*
X142800634Y-102942671D01*
X142823957Y-102905709D01*
X142826272Y-102903393D01*
X142826281Y-102903387D01*
X142922535Y-102777946D01*
X142983043Y-102631867D01*
X143003681Y-102475105D01*
X143001668Y-102459818D01*
X142996623Y-102421497D01*
X142983043Y-102318343D01*
X142922536Y-102172266D01*
X142922536Y-102172265D01*
X142826285Y-102046828D01*
X142826284Y-102046827D01*
X142826281Y-102046823D01*
X142826276Y-102046819D01*
X142826275Y-102046818D01*
X142700837Y-101950567D01*
X142554765Y-101890062D01*
X142554758Y-101890060D01*
X142410688Y-101871093D01*
X142355464Y-101844752D01*
X142353607Y-101842944D01*
X139013426Y-98502763D01*
X138985649Y-98448246D01*
X138995220Y-98387814D01*
X139004884Y-98372497D01*
X139011526Y-98363842D01*
X139012660Y-98361106D01*
X139067088Y-98229704D01*
X139072034Y-98217763D01*
X139092672Y-98061001D01*
X139072034Y-97904239D01*
X139011527Y-97758162D01*
X139011527Y-97758161D01*
X138915276Y-97632724D01*
X138915275Y-97632723D01*
X138915272Y-97632719D01*
X138915267Y-97632715D01*
X138915266Y-97632714D01*
X138789828Y-97536463D01*
X138643756Y-97475958D01*
X138643748Y-97475956D01*
X138486991Y-97455319D01*
X138486989Y-97455319D01*
X138330231Y-97475956D01*
X138330223Y-97475958D01*
X138184151Y-97536463D01*
X138184150Y-97536463D01*
X138058713Y-97632714D01*
X138058703Y-97632724D01*
X137962452Y-97758161D01*
X137962452Y-97758162D01*
X137901947Y-97904234D01*
X137901945Y-97904242D01*
X137881308Y-98061000D01*
X137881308Y-98061001D01*
X137901945Y-98217759D01*
X137901947Y-98217767D01*
X137962452Y-98363839D01*
X137962452Y-98363840D01*
X138062658Y-98494432D01*
X138061273Y-98495494D01*
X138085269Y-98542570D01*
X138086490Y-98558072D01*
X138086490Y-98606157D01*
X138093943Y-98629094D01*
X138097569Y-98644194D01*
X138101344Y-98668026D01*
X138112291Y-98689508D01*
X138118237Y-98703862D01*
X138125693Y-98726808D01*
X138125692Y-98726808D01*
X138139874Y-98746328D01*
X138147987Y-98759567D01*
X138158940Y-98781062D01*
X138158941Y-98781063D01*
X138179020Y-98801143D01*
X138179021Y-98801143D01*
X138181503Y-98803625D01*
X138181506Y-98803629D01*
X139988970Y-100611093D01*
X141764852Y-102386975D01*
X141792629Y-102441492D01*
X141793002Y-102469891D01*
X141791471Y-102481529D01*
X141789744Y-102481301D01*
X141773410Y-102531576D01*
X141763321Y-102543389D01*
X140752217Y-103554494D01*
X140752216Y-103554495D01*
X140729651Y-103577061D01*
X140729649Y-103577063D01*
X140718698Y-103598554D01*
X140710588Y-103611788D01*
X140696407Y-103631309D01*
X140696402Y-103631318D01*
X140688950Y-103654255D01*
X140683006Y-103668605D01*
X140672056Y-103690094D01*
X140672053Y-103690104D01*
X140668278Y-103713932D01*
X140664654Y-103729027D01*
X140657202Y-103751965D01*
X140657201Y-103751972D01*
X140657201Y-104088630D01*
X140638294Y-104146821D01*
X140630977Y-104155388D01*
X140533163Y-104282861D01*
X140533163Y-104282862D01*
X140472658Y-104428934D01*
X140472656Y-104428942D01*
X140451172Y-104592134D01*
X140449444Y-104591906D01*
X140433112Y-104642173D01*
X140423023Y-104653985D01*
X140131022Y-104945987D01*
X140076505Y-104973765D01*
X140061018Y-104974984D01*
X130474385Y-104974984D01*
X130416194Y-104956077D01*
X130404381Y-104945988D01*
X130152844Y-104694451D01*
X130125067Y-104639934D01*
X130124184Y-104628720D01*
X130123091Y-104620419D01*
X130103210Y-104469404D01*
X130100639Y-104463196D01*
X130042703Y-104323327D01*
X130042703Y-104323326D01*
X129942498Y-104192736D01*
X129943879Y-104191675D01*
X129919885Y-104144582D01*
X129918666Y-104129095D01*
X129918666Y-103929233D01*
X129937573Y-103871042D01*
X129947651Y-103859241D01*
X130106715Y-103700176D01*
X130161230Y-103672401D01*
X130172448Y-103671517D01*
X130174996Y-103671181D01*
X130175000Y-103671182D01*
X130331762Y-103650544D01*
X130477841Y-103590036D01*
X130603282Y-103493782D01*
X130699536Y-103368341D01*
X130760044Y-103222262D01*
X130780682Y-103065500D01*
X130760044Y-102908738D01*
X130743627Y-102869104D01*
X130699537Y-102762661D01*
X130699537Y-102762660D01*
X130603286Y-102637223D01*
X130603285Y-102637222D01*
X130603282Y-102637218D01*
X130603277Y-102637214D01*
X130603276Y-102637213D01*
X130499369Y-102557483D01*
X130477841Y-102540964D01*
X130477840Y-102540963D01*
X130477838Y-102540962D01*
X130331766Y-102480457D01*
X130331758Y-102480455D01*
X130175001Y-102459818D01*
X130174999Y-102459818D01*
X130018241Y-102480455D01*
X130018233Y-102480457D01*
X129872161Y-102540962D01*
X129872160Y-102540962D01*
X129746723Y-102637213D01*
X129746713Y-102637223D01*
X129650462Y-102762660D01*
X129650462Y-102762661D01*
X129589957Y-102908733D01*
X129589955Y-102908741D01*
X129568471Y-103071933D01*
X129566743Y-103071705D01*
X129550411Y-103121972D01*
X129540327Y-103133778D01*
X129393092Y-103281015D01*
X129212681Y-103461426D01*
X129190116Y-103483992D01*
X129190114Y-103483994D01*
X129179163Y-103505485D01*
X129171053Y-103518719D01*
X129156872Y-103538240D01*
X129156867Y-103538249D01*
X129149415Y-103561186D01*
X129143471Y-103575536D01*
X129132521Y-103597025D01*
X129132518Y-103597035D01*
X129128743Y-103620863D01*
X129125119Y-103635958D01*
X129117667Y-103658896D01*
X129117666Y-103658903D01*
X129117666Y-104129095D01*
X129098759Y-104187286D01*
X129091442Y-104195853D01*
X128993628Y-104323326D01*
X128993628Y-104323327D01*
X128933123Y-104469399D01*
X128933121Y-104469407D01*
X128912484Y-104626165D01*
X128912484Y-104626166D01*
X126684500Y-104626166D01*
X126684500Y-103878252D01*
X126672867Y-103819769D01*
X126628552Y-103753448D01*
X126628548Y-103753445D01*
X126562233Y-103709134D01*
X126562231Y-103709133D01*
X126562228Y-103709132D01*
X126562227Y-103709132D01*
X126503758Y-103697501D01*
X126503748Y-103697500D01*
X126503747Y-103697500D01*
X126437040Y-103697500D01*
X126378849Y-103678593D01*
X126342885Y-103629093D01*
X126338800Y-103610745D01*
X126338145Y-103605493D01*
X126335260Y-103582343D01*
X126334500Y-103570098D01*
X126334500Y-103568959D01*
X126333933Y-103565565D01*
X126331243Y-103549447D01*
X126330658Y-103545429D01*
X126329763Y-103538249D01*
X126324573Y-103496607D01*
X126324571Y-103496604D01*
X126322477Y-103489569D01*
X126320091Y-103482616D01*
X126296687Y-103439371D01*
X126294813Y-103435730D01*
X126273199Y-103391517D01*
X126268948Y-103385562D01*
X126264419Y-103379743D01*
X126247159Y-103363854D01*
X126228221Y-103346420D01*
X126225294Y-103343612D01*
X125536801Y-102655119D01*
X125523925Y-102639262D01*
X125517437Y-102629331D01*
X125493308Y-102610551D01*
X125484119Y-102602437D01*
X125483307Y-102601625D01*
X125467225Y-102590143D01*
X125463961Y-102587710D01*
X125425126Y-102557483D01*
X125425124Y-102557482D01*
X125418677Y-102553993D01*
X125412070Y-102550763D01*
X125412066Y-102550760D01*
X125364909Y-102536720D01*
X125361015Y-102535472D01*
X125314487Y-102519499D01*
X125307260Y-102518293D01*
X125299955Y-102517383D01*
X125299954Y-102517383D01*
X125299952Y-102517383D01*
X125250824Y-102519415D01*
X125246733Y-102519500D01*
X124361787Y-102519500D01*
X124303596Y-102500593D01*
X124283245Y-102480767D01*
X124283006Y-102480456D01*
X124253282Y-102441718D01*
X124253277Y-102441714D01*
X124253276Y-102441713D01*
X124127838Y-102345462D01*
X123981766Y-102284957D01*
X123981758Y-102284955D01*
X123825001Y-102264318D01*
X123824999Y-102264318D01*
X123668241Y-102284955D01*
X123668233Y-102284957D01*
X123522161Y-102345462D01*
X123522160Y-102345462D01*
X123396723Y-102441713D01*
X123396713Y-102441723D01*
X123300462Y-102567160D01*
X123300462Y-102567161D01*
X123239957Y-102713233D01*
X123239955Y-102713241D01*
X123219318Y-102869999D01*
X123219318Y-102870000D01*
X121966500Y-102870000D01*
X121966500Y-96672400D01*
X131398118Y-96672400D01*
X131418755Y-96829158D01*
X131418757Y-96829166D01*
X131479262Y-96975238D01*
X131479262Y-96975239D01*
X131575513Y-97100676D01*
X131575518Y-97100682D01*
X131575522Y-97100685D01*
X131614567Y-97130645D01*
X131649223Y-97181069D01*
X131653300Y-97209187D01*
X131653300Y-101350181D01*
X131651193Y-101370496D01*
X131650555Y-101373542D01*
X131648757Y-101382115D01*
X131651710Y-101405807D01*
X131652540Y-101412462D01*
X131653300Y-101424707D01*
X131653300Y-101425842D01*
X131656551Y-101445328D01*
X131657137Y-101449347D01*
X131660086Y-101472999D01*
X131663227Y-101498193D01*
X131665327Y-101505248D01*
X131667707Y-101512180D01*
X131691122Y-101555446D01*
X131692995Y-101559085D01*
X131714601Y-101603282D01*
X131718878Y-101609272D01*
X131723381Y-101615058D01*
X131759564Y-101648367D01*
X131762517Y-101651199D01*
X133103592Y-102992274D01*
X133131369Y-103046791D01*
X133131741Y-103075197D01*
X133125318Y-103123995D01*
X133125318Y-103124000D01*
X133145955Y-103280758D01*
X133145957Y-103280766D01*
X133206462Y-103426838D01*
X133206462Y-103426839D01*
X133302713Y-103552276D01*
X133302718Y-103552282D01*
X133302722Y-103552285D01*
X133302723Y-103552286D01*
X133314322Y-103561186D01*
X133428159Y-103648536D01*
X133428160Y-103648536D01*
X133428161Y-103648537D01*
X133441966Y-103654255D01*
X133534071Y-103692406D01*
X133580597Y-103732142D01*
X133594881Y-103791637D01*
X133587650Y-103821755D01*
X133546901Y-103920130D01*
X133546899Y-103920139D01*
X133526262Y-104076897D01*
X133526262Y-104076898D01*
X133546899Y-104233656D01*
X133546901Y-104233664D01*
X133607406Y-104379736D01*
X133607406Y-104379737D01*
X133671449Y-104463199D01*
X133703662Y-104505180D01*
X133829103Y-104601434D01*
X133829104Y-104601434D01*
X133829105Y-104601435D01*
X133888809Y-104626165D01*
X133975182Y-104661942D01*
X134092753Y-104677420D01*
X134131943Y-104682580D01*
X134131944Y-104682580D01*
X134131945Y-104682580D01*
X134163296Y-104678452D01*
X134288706Y-104661942D01*
X134434785Y-104601434D01*
X134560226Y-104505180D01*
X134656480Y-104379739D01*
X134716988Y-104233660D01*
X134726695Y-104159917D01*
X134753035Y-104104694D01*
X134754807Y-104102873D01*
X135688395Y-103169285D01*
X135704245Y-103156415D01*
X135714180Y-103149926D01*
X135732962Y-103125792D01*
X135741088Y-103116593D01*
X135741886Y-103115796D01*
X135753397Y-103099671D01*
X135755799Y-103096451D01*
X135786028Y-103057615D01*
X135786028Y-103057612D01*
X135789534Y-103051134D01*
X135792748Y-103044560D01*
X135792748Y-103044558D01*
X135792751Y-103044555D01*
X135806798Y-102997370D01*
X135808023Y-102993543D01*
X135824011Y-102946977D01*
X135824011Y-102946972D01*
X135825218Y-102939743D01*
X135826126Y-102932448D01*
X135826128Y-102932443D01*
X135824880Y-102902275D01*
X135841366Y-102843354D01*
X135863526Y-102819645D01*
X135901793Y-102790282D01*
X135998047Y-102664841D01*
X136058555Y-102518762D01*
X136079193Y-102362000D01*
X136058555Y-102205238D01*
X135998048Y-102059161D01*
X135998048Y-102059160D01*
X135939430Y-101982767D01*
X135919006Y-101925091D01*
X135936384Y-101866425D01*
X135984926Y-101829178D01*
X136017972Y-101823500D01*
X137059191Y-101823500D01*
X137079506Y-101825607D01*
X137081416Y-101826007D01*
X137091125Y-101828043D01*
X137121472Y-101824259D01*
X137133717Y-101823500D01*
X137134853Y-101823500D01*
X137154331Y-101820249D01*
X137158362Y-101819661D01*
X137207203Y-101813573D01*
X137207206Y-101813571D01*
X137214239Y-101811477D01*
X137221185Y-101809092D01*
X137221191Y-101809092D01*
X137264465Y-101785671D01*
X137268089Y-101783807D01*
X137312292Y-101762199D01*
X137312292Y-101762198D01*
X137312294Y-101762198D01*
X137312295Y-101762196D01*
X137318280Y-101757923D01*
X137324065Y-101753420D01*
X137324065Y-101753419D01*
X137324068Y-101753418D01*
X137357389Y-101717220D01*
X137360174Y-101714316D01*
X137679226Y-101395264D01*
X137733741Y-101367489D01*
X137762147Y-101367117D01*
X137810950Y-101373542D01*
X137967712Y-101352904D01*
X138113791Y-101292396D01*
X138239232Y-101196142D01*
X138335486Y-101070701D01*
X138395994Y-100924622D01*
X138416632Y-100767860D01*
X138395994Y-100611098D01*
X138364540Y-100535161D01*
X138335487Y-100465021D01*
X138335487Y-100465020D01*
X138239236Y-100339583D01*
X138239235Y-100339582D01*
X138239232Y-100339578D01*
X138239227Y-100339574D01*
X138239226Y-100339573D01*
X138113789Y-100243322D01*
X138108168Y-100240077D01*
X138109186Y-100238312D01*
X138069720Y-100204594D01*
X138055445Y-100145098D01*
X138064783Y-100115056D01*
X138063053Y-100114340D01*
X138126042Y-99962269D01*
X138126044Y-99962265D01*
X138146682Y-99805503D01*
X138126044Y-99648741D01*
X138065537Y-99502664D01*
X138065537Y-99502663D01*
X137969286Y-99377226D01*
X137969285Y-99377225D01*
X137969282Y-99377221D01*
X137969277Y-99377217D01*
X137969276Y-99377216D01*
X137898104Y-99322604D01*
X137843841Y-99280967D01*
X137843840Y-99280966D01*
X137843838Y-99280965D01*
X137697766Y-99220460D01*
X137697758Y-99220458D01*
X137541001Y-99199821D01*
X137540999Y-99199821D01*
X137384241Y-99220458D01*
X137384233Y-99220460D01*
X137238161Y-99280965D01*
X137238160Y-99280965D01*
X137112723Y-99377216D01*
X137112716Y-99377223D01*
X137099868Y-99393968D01*
X137049443Y-99428623D01*
X137021326Y-99432700D01*
X133644087Y-99432700D01*
X133585896Y-99413793D01*
X133583840Y-99412257D01*
X133500436Y-99348259D01*
X133500435Y-99348258D01*
X133500433Y-99348257D01*
X133354361Y-99287752D01*
X133354353Y-99287750D01*
X133197596Y-99267113D01*
X133197594Y-99267113D01*
X133040836Y-99287750D01*
X133040828Y-99287752D01*
X132894756Y-99348257D01*
X132894755Y-99348257D01*
X132769318Y-99444508D01*
X132769308Y-99444518D01*
X132673057Y-99569955D01*
X132673057Y-99569956D01*
X132612552Y-99716028D01*
X132612550Y-99716036D01*
X132591913Y-99872794D01*
X132591913Y-99872795D01*
X132612550Y-100029553D01*
X132612552Y-100029561D01*
X132673057Y-100175633D01*
X132673057Y-100175634D01*
X132732389Y-100252957D01*
X132769313Y-100301077D01*
X132894754Y-100397331D01*
X132894755Y-100397331D01*
X132894756Y-100397332D01*
X132924671Y-100409723D01*
X133040833Y-100457839D01*
X133158404Y-100473317D01*
X133197594Y-100478477D01*
X133197595Y-100478477D01*
X133197596Y-100478477D01*
X133228947Y-100474349D01*
X133354357Y-100457839D01*
X133500436Y-100397331D01*
X133625877Y-100301077D01*
X133711965Y-100188885D01*
X133724589Y-100172433D01*
X133775013Y-100137777D01*
X133803131Y-100133700D01*
X136987099Y-100133700D01*
X137045290Y-100152607D01*
X137065640Y-100172432D01*
X137112718Y-100233785D01*
X137112722Y-100233788D01*
X137112723Y-100233789D01*
X137238157Y-100330038D01*
X137243780Y-100333284D01*
X137242759Y-100335051D01*
X137282222Y-100368756D01*
X137296506Y-100428250D01*
X137287183Y-100458315D01*
X137288897Y-100459025D01*
X137225907Y-100611096D01*
X137225905Y-100611101D01*
X137205268Y-100767859D01*
X137205268Y-100767861D01*
X137211692Y-100816660D01*
X137200541Y-100876821D01*
X137183543Y-100899584D01*
X136989625Y-101093503D01*
X136935108Y-101121281D01*
X136919621Y-101122500D01*
X134611298Y-101122500D01*
X134553107Y-101103593D01*
X134532756Y-101083767D01*
X134502796Y-101044722D01*
X134502793Y-101044718D01*
X134502788Y-101044714D01*
X134502787Y-101044713D01*
X134377349Y-100948462D01*
X134231277Y-100887957D01*
X134231269Y-100887955D01*
X134074512Y-100867318D01*
X134074510Y-100867318D01*
X133917752Y-100887955D01*
X133917744Y-100887957D01*
X133771672Y-100948462D01*
X133771671Y-100948462D01*
X133646234Y-101044713D01*
X133646224Y-101044723D01*
X133549973Y-101170160D01*
X133549973Y-101170161D01*
X133489468Y-101316233D01*
X133489466Y-101316241D01*
X133468829Y-101472999D01*
X133468829Y-101473000D01*
X133489466Y-101629758D01*
X133489468Y-101629766D01*
X133549973Y-101775838D01*
X133549973Y-101775839D01*
X133639035Y-101891907D01*
X133646229Y-101901282D01*
X133771670Y-101997536D01*
X133917749Y-102058044D01*
X134035320Y-102073522D01*
X134074510Y-102078682D01*
X134074511Y-102078682D01*
X134074512Y-102078682D01*
X134105863Y-102074554D01*
X134231273Y-102058044D01*
X134377352Y-101997536D01*
X134502793Y-101901282D01*
X134532756Y-101862232D01*
X134583180Y-101827577D01*
X134611298Y-101823500D01*
X134929050Y-101823500D01*
X134987241Y-101842407D01*
X135023205Y-101891907D01*
X135023205Y-101953093D01*
X135007592Y-101982767D01*
X134948973Y-102059160D01*
X134948973Y-102059161D01*
X134888468Y-102205233D01*
X134888466Y-102205241D01*
X134867829Y-102361999D01*
X134867829Y-102362000D01*
X134888466Y-102518758D01*
X134888468Y-102518766D01*
X134948972Y-102664836D01*
X134948974Y-102664838D01*
X134948975Y-102664841D01*
X134986114Y-102713241D01*
X135005751Y-102738833D01*
X135026174Y-102796509D01*
X135008796Y-102855175D01*
X134997212Y-102869104D01*
X134477403Y-103388913D01*
X134422886Y-103416690D01*
X134362454Y-103407119D01*
X134319189Y-103363854D01*
X134309618Y-103303422D01*
X134315935Y-103281024D01*
X134316044Y-103280762D01*
X134336682Y-103124000D01*
X134316044Y-102967238D01*
X134304655Y-102939743D01*
X134255537Y-102821161D01*
X134255537Y-102821160D01*
X134159286Y-102695723D01*
X134159285Y-102695722D01*
X134159282Y-102695718D01*
X134159277Y-102695714D01*
X134159276Y-102695713D01*
X134076075Y-102631871D01*
X134033841Y-102599464D01*
X134033840Y-102599463D01*
X134033838Y-102599462D01*
X133887766Y-102538957D01*
X133887758Y-102538955D01*
X133731001Y-102518318D01*
X133730998Y-102518318D01*
X133682199Y-102524742D01*
X133622038Y-102513591D01*
X133599274Y-102496593D01*
X132992743Y-101890062D01*
X132383296Y-101280614D01*
X132355519Y-101226097D01*
X132354300Y-101210610D01*
X132354300Y-97209187D01*
X132373207Y-97150996D01*
X132393033Y-97130645D01*
X132432082Y-97100682D01*
X132528336Y-96975241D01*
X132588844Y-96829162D01*
X132609482Y-96672400D01*
X132588844Y-96515638D01*
X132528337Y-96369561D01*
X132528337Y-96369560D01*
X132432086Y-96244123D01*
X132432085Y-96244122D01*
X132432082Y-96244118D01*
X132432077Y-96244114D01*
X132432076Y-96244113D01*
X132307540Y-96148554D01*
X132306641Y-96147864D01*
X132306640Y-96147863D01*
X132306638Y-96147862D01*
X132160566Y-96087357D01*
X132160558Y-96087355D01*
X132003801Y-96066718D01*
X132003799Y-96066718D01*
X131847041Y-96087355D01*
X131847033Y-96087357D01*
X131700961Y-96147862D01*
X131700960Y-96147862D01*
X131575523Y-96244113D01*
X131575513Y-96244123D01*
X131479262Y-96369560D01*
X131479262Y-96369561D01*
X131418757Y-96515633D01*
X131418755Y-96515641D01*
X131398118Y-96672399D01*
X131398118Y-96672400D01*
X121966500Y-96672400D01*
X121966500Y-95267964D01*
X134230818Y-95267964D01*
X134251455Y-95424722D01*
X134251457Y-95424730D01*
X134311962Y-95570802D01*
X134311962Y-95570803D01*
X134401024Y-95686871D01*
X134408218Y-95696246D01*
X134533659Y-95792500D01*
X134679738Y-95853008D01*
X134797309Y-95868486D01*
X134836499Y-95873646D01*
X134836500Y-95873646D01*
X134836501Y-95873646D01*
X134867852Y-95869518D01*
X134993262Y-95853008D01*
X135139341Y-95792500D01*
X135264782Y-95696246D01*
X135294745Y-95657196D01*
X135345169Y-95622541D01*
X135373287Y-95618464D01*
X137888500Y-95618464D01*
X137946691Y-95637371D01*
X137982655Y-95686871D01*
X137987500Y-95717464D01*
X137987500Y-96023746D01*
X137987501Y-96023758D01*
X137999132Y-96082227D01*
X137999134Y-96082233D01*
X138002557Y-96087356D01*
X138043448Y-96148552D01*
X138109769Y-96192867D01*
X138154231Y-96201711D01*
X138168241Y-96204498D01*
X138168246Y-96204498D01*
X138168252Y-96204500D01*
X138168253Y-96204500D01*
X139707747Y-96204500D01*
X139707748Y-96204500D01*
X139766231Y-96192867D01*
X139832552Y-96148552D01*
X139876867Y-96082231D01*
X139888500Y-96023748D01*
X139888500Y-94984252D01*
X139876867Y-94925769D01*
X139876865Y-94925766D01*
X139876865Y-94925764D01*
X139873187Y-94916884D01*
X139868386Y-94855887D01*
X139873187Y-94841112D01*
X139876862Y-94832238D01*
X139876867Y-94832231D01*
X139892428Y-94754000D01*
X139892428Y-94653500D01*
X139911335Y-94595309D01*
X139960835Y-94559345D01*
X139991428Y-94554500D01*
X140024989Y-94554500D01*
X140083180Y-94573407D01*
X140119144Y-94622907D01*
X140123989Y-94653500D01*
X140123989Y-97247378D01*
X140120743Y-97266824D01*
X140121512Y-97266953D01*
X140118955Y-97282274D01*
X140118045Y-97289582D01*
X140120077Y-97338710D01*
X140120162Y-97342801D01*
X140120162Y-98154043D01*
X140118055Y-98174358D01*
X140115619Y-98185975D01*
X140119402Y-98216324D01*
X140120162Y-98228569D01*
X140120162Y-98229704D01*
X140123413Y-98249190D01*
X140123999Y-98253209D01*
X140128951Y-98292930D01*
X140130089Y-98302055D01*
X140132189Y-98309110D01*
X140134569Y-98316042D01*
X140157984Y-98359308D01*
X140159857Y-98362947D01*
X140181463Y-98407144D01*
X140185740Y-98413134D01*
X140190243Y-98418920D01*
X140226426Y-98452229D01*
X140229379Y-98455061D01*
X140612928Y-98838610D01*
X140625803Y-98854466D01*
X140632292Y-98864398D01*
X140656419Y-98883177D01*
X140665606Y-98891289D01*
X140666420Y-98892103D01*
X140666424Y-98892106D01*
X140682484Y-98903572D01*
X140685768Y-98906020D01*
X140712171Y-98926570D01*
X140724603Y-98936246D01*
X140724607Y-98936247D01*
X140731083Y-98939751D01*
X140737663Y-98942969D01*
X140784831Y-98957011D01*
X140788693Y-98958249D01*
X140799040Y-98961801D01*
X140835241Y-98974229D01*
X140835243Y-98974229D01*
X140842465Y-98975434D01*
X140849769Y-98976344D01*
X140849775Y-98976346D01*
X140877735Y-98975189D01*
X140936656Y-98991674D01*
X140960368Y-99013837D01*
X140989660Y-99052011D01*
X141115101Y-99148265D01*
X141115102Y-99148265D01*
X141115103Y-99148266D01*
X141239568Y-99199821D01*
X141261180Y-99208773D01*
X141378751Y-99224251D01*
X141417941Y-99229411D01*
X141417942Y-99229411D01*
X141417943Y-99229411D01*
X141449294Y-99225283D01*
X141574704Y-99208773D01*
X141720783Y-99148265D01*
X141846224Y-99052011D01*
X141942478Y-98926570D01*
X142002986Y-98780491D01*
X142023624Y-98623729D01*
X142002986Y-98466967D01*
X141987470Y-98429510D01*
X141982670Y-98368514D01*
X142014640Y-98316345D01*
X142071168Y-98292930D01*
X142130662Y-98307214D01*
X142148939Y-98321621D01*
X144880199Y-101052881D01*
X144893074Y-101068737D01*
X144899563Y-101078669D01*
X144923690Y-101097448D01*
X144932877Y-101105560D01*
X144933691Y-101106374D01*
X144933695Y-101106377D01*
X144949755Y-101117843D01*
X144953039Y-101120291D01*
X144979442Y-101140841D01*
X144991874Y-101150517D01*
X144991878Y-101150518D01*
X144998354Y-101154022D01*
X145004934Y-101157240D01*
X145052102Y-101171282D01*
X145055964Y-101172520D01*
X145066311Y-101176072D01*
X145102512Y-101188500D01*
X145102514Y-101188500D01*
X145109736Y-101189705D01*
X145117040Y-101190615D01*
X145117046Y-101190617D01*
X145129290Y-101190110D01*
X145188212Y-101206595D01*
X145211924Y-101228757D01*
X145240718Y-101266282D01*
X145366159Y-101362536D01*
X145366160Y-101362536D01*
X145366161Y-101362537D01*
X145445176Y-101395266D01*
X145512238Y-101423044D01*
X145629809Y-101438522D01*
X145668999Y-101443682D01*
X145669000Y-101443682D01*
X145669001Y-101443682D01*
X145700352Y-101439554D01*
X145825762Y-101423044D01*
X145971841Y-101362536D01*
X146097282Y-101266282D01*
X146193536Y-101140841D01*
X146254044Y-100994762D01*
X146274682Y-100838000D01*
X146254044Y-100681238D01*
X146193537Y-100535161D01*
X146193537Y-100535160D01*
X146097286Y-100409723D01*
X146097285Y-100409722D01*
X146097282Y-100409718D01*
X146097277Y-100409714D01*
X146097276Y-100409713D01*
X146005880Y-100339583D01*
X145971841Y-100313464D01*
X145971840Y-100313463D01*
X145971838Y-100313462D01*
X145825766Y-100252957D01*
X145825758Y-100252955D01*
X145669001Y-100232318D01*
X145668999Y-100232318D01*
X145512241Y-100252955D01*
X145512233Y-100252957D01*
X145366161Y-100313462D01*
X145302626Y-100362213D01*
X145244950Y-100382636D01*
X145186284Y-100365257D01*
X145172356Y-100353674D01*
X142266801Y-97448119D01*
X142253925Y-97432262D01*
X142247437Y-97422331D01*
X142223308Y-97403551D01*
X142214119Y-97395437D01*
X142213307Y-97394625D01*
X142197225Y-97383143D01*
X142193961Y-97380710D01*
X142155126Y-97350483D01*
X142155124Y-97350482D01*
X142148677Y-97346993D01*
X142142070Y-97343763D01*
X142142066Y-97343760D01*
X142094909Y-97329720D01*
X142091015Y-97328472D01*
X142044487Y-97312499D01*
X142037260Y-97311293D01*
X142029955Y-97310383D01*
X142029954Y-97310383D01*
X142029952Y-97310383D01*
X141980824Y-97312415D01*
X141976733Y-97312500D01*
X141771537Y-97312500D01*
X141713346Y-97293593D01*
X141692995Y-97273767D01*
X141687766Y-97266953D01*
X141648445Y-97215708D01*
X141648440Y-97215704D01*
X141648439Y-97215703D01*
X141523001Y-97119452D01*
X141376929Y-97058947D01*
X141376921Y-97058945D01*
X141220164Y-97038308D01*
X141220162Y-97038308D01*
X141063404Y-97058945D01*
X141063395Y-97058947D01*
X140961874Y-97100999D01*
X140900877Y-97105800D01*
X140848708Y-97073830D01*
X140825294Y-97017302D01*
X140824989Y-97009535D01*
X140824989Y-94487107D01*
X140827096Y-94466791D01*
X140828189Y-94461577D01*
X140829532Y-94455174D01*
X140825749Y-94424825D01*
X140824989Y-94412581D01*
X140824989Y-94411448D01*
X140821738Y-94391967D01*
X140821148Y-94387919D01*
X140815062Y-94339096D01*
X140815061Y-94339094D01*
X140815061Y-94339092D01*
X140812968Y-94332064D01*
X140810580Y-94325105D01*
X140787176Y-94281860D01*
X140785302Y-94278219D01*
X140763688Y-94234006D01*
X140759437Y-94228051D01*
X140754908Y-94222232D01*
X140754907Y-94222231D01*
X140718710Y-94188909D01*
X140715783Y-94186101D01*
X140518801Y-93989119D01*
X140505925Y-93973262D01*
X140499437Y-93963331D01*
X140482615Y-93950238D01*
X140475304Y-93944548D01*
X140466119Y-93936437D01*
X140465307Y-93935625D01*
X140449225Y-93924143D01*
X140445961Y-93921710D01*
X140407126Y-93891483D01*
X140407124Y-93891482D01*
X140400677Y-93887993D01*
X140394070Y-93884763D01*
X140394066Y-93884760D01*
X140346909Y-93870720D01*
X140343015Y-93869472D01*
X140296487Y-93853499D01*
X140289260Y-93852293D01*
X140281955Y-93851383D01*
X140281954Y-93851383D01*
X140281952Y-93851383D01*
X140232824Y-93853415D01*
X140228733Y-93853500D01*
X139854161Y-93853500D01*
X139795970Y-93834593D01*
X139770876Y-93808022D01*
X139741741Y-93762685D01*
X139741738Y-93762681D01*
X139703639Y-93718713D01*
X139703638Y-93718712D01*
X139703632Y-93718705D01*
X139703622Y-93718696D01*
X139594976Y-93624554D01*
X139594963Y-93624545D01*
X139546032Y-93593099D01*
X139546019Y-93593092D01*
X139521211Y-93581763D01*
X139415238Y-93533366D01*
X139415233Y-93533364D01*
X139415232Y-93533364D01*
X139359409Y-93516973D01*
X139359405Y-93516972D01*
X139217097Y-93496511D01*
X139217093Y-93496511D01*
X139158907Y-93496511D01*
X139158905Y-93496511D01*
X139149738Y-93497829D01*
X139144626Y-93498564D01*
X139130537Y-93499572D01*
X138745463Y-93499572D01*
X138731373Y-93498564D01*
X138726261Y-93497829D01*
X138717095Y-93496511D01*
X138717093Y-93496511D01*
X138658907Y-93496511D01*
X138658903Y-93496511D01*
X138516594Y-93516972D01*
X138516590Y-93516973D01*
X138460767Y-93533364D01*
X138460763Y-93533365D01*
X138460762Y-93533366D01*
X138420180Y-93551899D01*
X138329980Y-93593092D01*
X138329967Y-93593099D01*
X138281036Y-93624545D01*
X138281023Y-93624554D01*
X138172377Y-93718696D01*
X138172361Y-93718712D01*
X138169227Y-93722330D01*
X138116831Y-93753927D01*
X138094407Y-93756500D01*
X137315787Y-93756500D01*
X137257596Y-93737593D01*
X137237245Y-93717767D01*
X137207285Y-93678722D01*
X137207282Y-93678718D01*
X137207277Y-93678714D01*
X137207276Y-93678713D01*
X137095694Y-93593094D01*
X137081841Y-93582464D01*
X137081840Y-93582463D01*
X137081838Y-93582462D01*
X136935766Y-93521957D01*
X136935758Y-93521955D01*
X136779001Y-93501318D01*
X136778999Y-93501318D01*
X136622241Y-93521955D01*
X136622233Y-93521957D01*
X136476161Y-93582462D01*
X136476160Y-93582462D01*
X136350723Y-93678713D01*
X136350713Y-93678723D01*
X136254462Y-93804160D01*
X136254462Y-93804161D01*
X136193957Y-93950233D01*
X136193955Y-93950241D01*
X136173318Y-94106999D01*
X136173318Y-94107000D01*
X136193955Y-94263758D01*
X136193957Y-94263766D01*
X136254462Y-94409838D01*
X136254462Y-94409839D01*
X136343524Y-94525907D01*
X136350718Y-94535282D01*
X136476159Y-94631536D01*
X136476160Y-94631536D01*
X136476161Y-94631537D01*
X136550386Y-94662282D01*
X136622238Y-94692044D01*
X136739809Y-94707522D01*
X136778999Y-94712682D01*
X136779000Y-94712682D01*
X136779001Y-94712682D01*
X136810352Y-94708554D01*
X136935762Y-94692044D01*
X137081841Y-94631536D01*
X137207282Y-94535282D01*
X137237245Y-94496232D01*
X137287669Y-94461577D01*
X137315787Y-94457500D01*
X137884572Y-94457500D01*
X137942763Y-94476407D01*
X137978727Y-94525907D01*
X137983572Y-94556500D01*
X137983572Y-94754002D01*
X137992553Y-94799150D01*
X137985361Y-94859911D01*
X137943829Y-94904841D01*
X137895455Y-94917464D01*
X135373287Y-94917464D01*
X135315096Y-94898557D01*
X135294745Y-94878731D01*
X135264785Y-94839686D01*
X135264782Y-94839682D01*
X135264777Y-94839678D01*
X135264776Y-94839677D01*
X135153121Y-94754002D01*
X135139341Y-94743428D01*
X135139340Y-94743427D01*
X135139338Y-94743426D01*
X134993266Y-94682921D01*
X134993258Y-94682919D01*
X134836501Y-94662282D01*
X134836499Y-94662282D01*
X134679741Y-94682919D01*
X134679733Y-94682921D01*
X134533661Y-94743426D01*
X134533660Y-94743426D01*
X134408223Y-94839677D01*
X134408213Y-94839687D01*
X134311962Y-94965124D01*
X134311962Y-94965125D01*
X134251457Y-95111197D01*
X134251455Y-95111205D01*
X134230818Y-95267963D01*
X134230818Y-95267964D01*
X121966500Y-95267964D01*
X121966500Y-93095500D01*
X121985407Y-93037309D01*
X122034907Y-93001345D01*
X122065500Y-92996500D01*
X151266500Y-92996500D01*
X151324691Y-93015407D01*
G37*
%TD.AperFunction*%
%TD*%
M02*
