%TF.GenerationSoftware,KiCad,Pcbnew,7.0.11+1*%
%TF.CreationDate,2024-06-02T16:05:35+00:00*%
%TF.ProjectId,TFASPDIMU02,54464153-5044-4494-9d55-30322e6b6963,rev?*%
%TF.SameCoordinates,Original*%
%TF.FileFunction,Paste,Bot*%
%TF.FilePolarity,Positive*%
%FSLAX46Y46*%
G04 Gerber Fmt 4.6, Leading zero omitted, Abs format (unit mm)*
G04 Created by KiCad (PCBNEW 7.0.11+1) date 2024-06-02 16:05:35*
%MOMM*%
%LPD*%
G01*
G04 APERTURE LIST*
G04 Aperture macros list*
%AMRoundRect*
0 Rectangle with rounded corners*
0 $1 Rounding radius*
0 $2 $3 $4 $5 $6 $7 $8 $9 X,Y pos of 4 corners*
0 Add a 4 corners polygon primitive as box body*
4,1,4,$2,$3,$4,$5,$6,$7,$8,$9,$2,$3,0*
0 Add four circle primitives for the rounded corners*
1,1,$1+$1,$2,$3*
1,1,$1+$1,$4,$5*
1,1,$1+$1,$6,$7*
1,1,$1+$1,$8,$9*
0 Add four rect primitives between the rounded corners*
20,1,$1+$1,$2,$3,$4,$5,0*
20,1,$1+$1,$4,$5,$6,$7,0*
20,1,$1+$1,$6,$7,$8,$9,0*
20,1,$1+$1,$8,$9,$2,$3,0*%
%AMOutline4P*
0 Free polygon, 4 corners , with rotation*
0 The origin of the aperture is its center*
0 number of corners: always 4*
0 $1 to $8 corner X, Y*
0 $9 Rotation angle, in degrees counterclockwise*
0 create outline with 4 corners*
4,1,4,$1,$2,$3,$4,$5,$6,$7,$8,$1,$2,$9*%
G04 Aperture macros list end*
%ADD10RoundRect,0.140000X-0.140000X-0.170000X0.140000X-0.170000X0.140000X0.170000X-0.140000X0.170000X0*%
%ADD11RoundRect,0.135000X0.135000X0.185000X-0.135000X0.185000X-0.135000X-0.185000X0.135000X-0.185000X0*%
%ADD12RoundRect,0.140000X-0.170000X0.140000X-0.170000X-0.140000X0.170000X-0.140000X0.170000X0.140000X0*%
%ADD13RoundRect,0.140000X0.170000X-0.140000X0.170000X0.140000X-0.170000X0.140000X-0.170000X-0.140000X0*%
%ADD14RoundRect,0.135000X-0.185000X0.135000X-0.185000X-0.135000X0.185000X-0.135000X0.185000X0.135000X0*%
%ADD15RoundRect,0.135000X-0.135000X-0.185000X0.135000X-0.185000X0.135000X0.185000X-0.135000X0.185000X0*%
%ADD16R,0.600000X0.700000*%
%ADD17R,1.450000X0.450000*%
%ADD18RoundRect,0.135000X0.185000X-0.135000X0.185000X0.135000X-0.185000X0.135000X-0.185000X-0.135000X0*%
%ADD19Outline4P,-1.000000X-0.250000X1.000000X-0.250000X1.000000X0.250000X-1.000000X0.250000X180.000000*%
%ADD20Outline4P,-1.000000X-0.250000X1.000000X-0.250000X1.000000X0.250000X-1.000000X0.250000X90.000000*%
%ADD21Outline4P,-0.900000X-0.450000X0.900000X-0.450000X0.900000X0.450000X-0.900000X0.450000X180.000000*%
%ADD22RoundRect,0.150000X-0.700000X0.150000X-0.700000X-0.150000X0.700000X-0.150000X0.700000X0.150000X0*%
%ADD23RoundRect,0.250000X-1.100000X0.250000X-1.100000X-0.250000X1.100000X-0.250000X1.100000X0.250000X0*%
%ADD24RoundRect,0.140000X0.140000X0.170000X-0.140000X0.170000X-0.140000X-0.170000X0.140000X-0.170000X0*%
%ADD25RoundRect,0.150000X0.512500X0.150000X-0.512500X0.150000X-0.512500X-0.150000X0.512500X-0.150000X0*%
%ADD26RoundRect,0.050000X-0.225000X-0.050000X0.225000X-0.050000X0.225000X0.050000X-0.225000X0.050000X0*%
%ADD27RoundRect,0.050000X-0.050000X0.225000X-0.050000X-0.225000X0.050000X-0.225000X0.050000X0.225000X0*%
G04 APERTURE END LIST*
D10*
%TO.C,C5*%
X146713000Y-106045000D03*
X147673000Y-106045000D03*
%TD*%
D11*
%TO.C,R11*%
X143258000Y-97663000D03*
X142238000Y-97663000D03*
%TD*%
D12*
%TO.C,C9*%
X137414000Y-101628000D03*
X137414000Y-102588000D03*
%TD*%
D13*
%TO.C,C3*%
X137795000Y-97790000D03*
X137795000Y-96830000D03*
%TD*%
D14*
%TO.C,R4*%
X138557000Y-98931000D03*
X138557000Y-99951000D03*
%TD*%
D13*
%TO.C,C11*%
X144856200Y-97457200D03*
X144856200Y-96497200D03*
%TD*%
D10*
%TO.C,C10*%
X132235000Y-101600000D03*
X133195000Y-101600000D03*
%TD*%
D15*
%TO.C,R3*%
X139190000Y-97663000D03*
X140210000Y-97663000D03*
%TD*%
D16*
%TO.C,D2*%
X146493000Y-94488000D03*
X147893000Y-94488000D03*
%TD*%
D13*
%TO.C,C12*%
X140208000Y-103604000D03*
X140208000Y-102644000D03*
%TD*%
D12*
%TO.C,C13*%
X144653000Y-102517000D03*
X144653000Y-103477000D03*
%TD*%
D17*
%TO.C,U3*%
X135931000Y-103165000D03*
X135931000Y-103815000D03*
X135931000Y-104465000D03*
X135931000Y-105115000D03*
X131531000Y-105115000D03*
X131531000Y-104465000D03*
X131531000Y-103815000D03*
X131531000Y-103165000D03*
%TD*%
D18*
%TO.C,R10*%
X123317000Y-104904000D03*
X123317000Y-103884000D03*
%TD*%
D14*
%TO.C,R1*%
X141478000Y-102487000D03*
X141478000Y-103507000D03*
%TD*%
D10*
%TO.C,C6*%
X143436400Y-94919800D03*
X144396400Y-94919800D03*
%TD*%
D14*
%TO.C,R2*%
X143383000Y-102487000D03*
X143383000Y-103507000D03*
%TD*%
D19*
%TO.C,U1*%
X130516000Y-98546000D03*
X130516000Y-99546000D03*
X130516000Y-100546000D03*
D20*
X129066000Y-102246000D03*
X128066000Y-102246000D03*
X127066000Y-102246000D03*
X126066000Y-102246000D03*
X125066000Y-102246000D03*
D19*
X123616000Y-100546000D03*
X123616000Y-99546000D03*
X123616000Y-98546000D03*
D20*
X125066000Y-96846000D03*
X126066000Y-96846000D03*
X127066000Y-96846000D03*
X128066000Y-96846000D03*
X129066000Y-96846000D03*
D21*
X127066000Y-98696000D03*
X127066000Y-100396000D03*
%TD*%
D22*
%TO.C,J1*%
X146994000Y-98321000D03*
X146994000Y-99571000D03*
X146994000Y-100821000D03*
X146994000Y-102071000D03*
D23*
X150194000Y-96471000D03*
X150194000Y-103921000D03*
%TD*%
D24*
%TO.C,C2*%
X133957000Y-95377000D03*
X132997000Y-95377000D03*
%TD*%
D10*
%TO.C,C4*%
X135791000Y-95250000D03*
X136751000Y-95250000D03*
%TD*%
D11*
%TO.C,R8*%
X138559000Y-104902000D03*
X137539000Y-104902000D03*
%TD*%
D10*
%TO.C,C1*%
X126139000Y-104267000D03*
X127099000Y-104267000D03*
%TD*%
D12*
%TO.C,C8*%
X137922000Y-94135000D03*
X137922000Y-95095000D03*
%TD*%
D18*
%TO.C,R5*%
X138557000Y-102110000D03*
X138557000Y-101090000D03*
%TD*%
D14*
%TO.C,R6*%
X127000000Y-105408000D03*
X127000000Y-106428000D03*
%TD*%
D17*
%TO.C,U6*%
X140167000Y-101178000D03*
X140167000Y-100528000D03*
X140167000Y-99878000D03*
X140167000Y-99228000D03*
X144567000Y-99228000D03*
X144567000Y-99878000D03*
X144567000Y-100528000D03*
X144567000Y-101178000D03*
%TD*%
D18*
%TO.C,R7*%
X128397000Y-105160000D03*
X128397000Y-104140000D03*
%TD*%
D25*
%TO.C,U5*%
X141726500Y-93919000D03*
X141726500Y-94869000D03*
X141726500Y-95819000D03*
X139451500Y-95819000D03*
X139451500Y-93919000D03*
%TD*%
D11*
%TO.C,R9*%
X138559000Y-103759000D03*
X137539000Y-103759000D03*
%TD*%
D25*
%TO.C,U4*%
X144393500Y-104714000D03*
X144393500Y-105664000D03*
X144393500Y-106614000D03*
X142118500Y-106614000D03*
X142118500Y-104714000D03*
%TD*%
D12*
%TO.C,C7*%
X140208000Y-104930000D03*
X140208000Y-105890000D03*
%TD*%
D26*
%TO.C,U2*%
X133374000Y-99171000D03*
X133374000Y-98771000D03*
X133374000Y-98371000D03*
X133374000Y-97971000D03*
X133374000Y-97571000D03*
X133374000Y-97171000D03*
D27*
X133874000Y-96671000D03*
X134274000Y-96671000D03*
X134674000Y-96671000D03*
X135074000Y-96671000D03*
X135474000Y-96671000D03*
X135874000Y-96671000D03*
D26*
X136374000Y-97171000D03*
X136374000Y-97571000D03*
X136374000Y-97971000D03*
X136374000Y-98371000D03*
X136374000Y-98771000D03*
X136374000Y-99171000D03*
D27*
X135874000Y-99671000D03*
X135474000Y-99671000D03*
X135074000Y-99671000D03*
X134674000Y-99671000D03*
X134274000Y-99671000D03*
X133874000Y-99671000D03*
%TD*%
M02*
