M48
; DRILL file {KiCad 7.0.11+1} date Thu May 30 20:05:54 2024
; FORMAT={3:3/ absolute / metric / suppress leading zeros}
; #@! TF.CreationDate,2024-05-30T20:05:54+00:00
; #@! TF.GenerationSoftware,Kicad,Pcbnew,7.0.11+1
; #@! TF.FileFunction,Plated,1,2,PTH
FMAT,2
METRIC,TZ
; #@! TA.AperFunction,Plated,PTH,ViaDrill
T1C0.400
%
G90
G05
T1
X122682Y-102743
X122682Y-106045
X122936Y-94996
X122936Y-96012
X123825Y-102870
X124206Y-94996
X124317Y-104620
X125476Y-94996
X126746Y-93853
X126746Y-94996
X129518Y-104626
X130048Y-106680
X130175Y-103066
X130556Y-94996
X130556Y-96012
X131191Y-106680
X132207Y-106680
X132334Y-96647
X132969Y-103886
X133575Y-100560
X133731Y-103124
X134075Y-101473
X134132Y-104077
X134837Y-95268
X135474Y-102362
X136398Y-101981
X136525Y-106553
X136779Y-94107
X136779Y-96393
X137541Y-98806
X137541Y-99806
X137811Y-100768
X137922Y-106553
X138534Y-97894
X139192Y-106553
X139446Y-104267
X140866Y-104394
X141220Y-97644
X141418Y-98624
X141525Y-99618
X142348Y-103609
X142554Y-102631
X142966Y-100396
X143002Y-96647
X144266Y-98296
X145669Y-100838
X145766Y-105596
X146050Y-95885
X146050Y-96901
X146304Y-103505
X147828Y-104775
X147955Y-95885
X147955Y-97028
X148566Y-99596
X149098Y-100711
X149098Y-105283
X149098Y-106299
X149225Y-93980
X149225Y-94996
X149733Y-102616
X150368Y-93980
X150368Y-94996
X150495Y-97917
X150495Y-105283
X150495Y-106299
X150749Y-99060
X150749Y-100330
X150749Y-101600
X150749Y-102616
M30
