%TF.GenerationSoftware,KiCad,Pcbnew,7.0.11+1*%
%TF.CreationDate,2024-06-09T20:56:50+00:00*%
%TF.ProjectId,TFASPDIMU02,54464153-5044-4494-9d55-30322e6b6963,rev?*%
%TF.SameCoordinates,Original*%
%TF.FileFunction,Paste,Bot*%
%TF.FilePolarity,Positive*%
%FSLAX46Y46*%
G04 Gerber Fmt 4.6, Leading zero omitted, Abs format (unit mm)*
G04 Created by KiCad (PCBNEW 7.0.11+1) date 2024-06-09 20:56:50*
%MOMM*%
%LPD*%
G01*
G04 APERTURE LIST*
G04 Aperture macros list*
%AMRoundRect*
0 Rectangle with rounded corners*
0 $1 Rounding radius*
0 $2 $3 $4 $5 $6 $7 $8 $9 X,Y pos of 4 corners*
0 Add a 4 corners polygon primitive as box body*
4,1,4,$2,$3,$4,$5,$6,$7,$8,$9,$2,$3,0*
0 Add four circle primitives for the rounded corners*
1,1,$1+$1,$2,$3*
1,1,$1+$1,$4,$5*
1,1,$1+$1,$6,$7*
1,1,$1+$1,$8,$9*
0 Add four rect primitives between the rounded corners*
20,1,$1+$1,$2,$3,$4,$5,0*
20,1,$1+$1,$4,$5,$6,$7,0*
20,1,$1+$1,$6,$7,$8,$9,0*
20,1,$1+$1,$8,$9,$2,$3,0*%
%AMOutline4P*
0 Free polygon, 4 corners , with rotation*
0 The origin of the aperture is its center*
0 number of corners: always 4*
0 $1 to $8 corner X, Y*
0 $9 Rotation angle, in degrees counterclockwise*
0 create outline with 4 corners*
4,1,4,$1,$2,$3,$4,$5,$6,$7,$8,$1,$2,$9*%
G04 Aperture macros list end*
%ADD10RoundRect,0.140000X0.170000X-0.140000X0.170000X0.140000X-0.170000X0.140000X-0.170000X-0.140000X0*%
%ADD11RoundRect,0.135000X0.135000X0.185000X-0.135000X0.185000X-0.135000X-0.185000X0.135000X-0.185000X0*%
%ADD12RoundRect,0.140000X-0.170000X0.140000X-0.170000X-0.140000X0.170000X-0.140000X0.170000X0.140000X0*%
%ADD13RoundRect,0.135000X-0.185000X0.135000X-0.185000X-0.135000X0.185000X-0.135000X0.185000X0.135000X0*%
%ADD14RoundRect,0.140000X-0.140000X-0.170000X0.140000X-0.170000X0.140000X0.170000X-0.140000X0.170000X0*%
%ADD15RoundRect,0.135000X-0.135000X-0.185000X0.135000X-0.185000X0.135000X0.185000X-0.135000X0.185000X0*%
%ADD16RoundRect,0.150000X0.150000X0.200000X-0.150000X0.200000X-0.150000X-0.200000X0.150000X-0.200000X0*%
%ADD17R,1.100000X0.400000*%
%ADD18RoundRect,0.135000X0.185000X-0.135000X0.185000X0.135000X-0.185000X0.135000X-0.185000X-0.135000X0*%
%ADD19RoundRect,0.237500X-0.287500X-0.237500X0.287500X-0.237500X0.287500X0.237500X-0.287500X0.237500X0*%
%ADD20Outline4P,-1.000000X-0.250000X1.000000X-0.250000X1.000000X0.250000X-1.000000X0.250000X180.000000*%
%ADD21Outline4P,-1.000000X-0.250000X1.000000X-0.250000X1.000000X0.250000X-1.000000X0.250000X90.000000*%
%ADD22Outline4P,-0.900000X-0.450000X0.900000X-0.450000X0.900000X0.450000X-0.900000X0.450000X180.000000*%
%ADD23RoundRect,0.150000X-0.700000X0.150000X-0.700000X-0.150000X0.700000X-0.150000X0.700000X0.150000X0*%
%ADD24RoundRect,0.250000X-1.100000X0.250000X-1.100000X-0.250000X1.100000X-0.250000X1.100000X0.250000X0*%
%ADD25RoundRect,0.140000X0.140000X0.170000X-0.140000X0.170000X-0.140000X-0.170000X0.140000X-0.170000X0*%
%ADD26RoundRect,0.150000X0.512500X0.150000X-0.512500X0.150000X-0.512500X-0.150000X0.512500X-0.150000X0*%
%ADD27RoundRect,0.050000X-0.225000X-0.050000X0.225000X-0.050000X0.225000X0.050000X-0.225000X0.050000X0*%
%ADD28RoundRect,0.050000X-0.050000X0.225000X-0.050000X-0.225000X0.050000X-0.225000X0.050000X0.225000X0*%
G04 APERTURE END LIST*
D10*
%TO.C,C5*%
X146075400Y-106601200D03*
X146075400Y-105641200D03*
%TD*%
D11*
%TO.C,R11*%
X143131000Y-97688400D03*
X142111000Y-97688400D03*
%TD*%
D12*
%TO.C,C9*%
X137414000Y-101628000D03*
X137414000Y-102588000D03*
%TD*%
D10*
%TO.C,C3*%
X137769600Y-97609600D03*
X137769600Y-96649600D03*
%TD*%
D13*
%TO.C,R4*%
X138557000Y-98931000D03*
X138557000Y-99951000D03*
%TD*%
D12*
%TO.C,C11*%
X147193000Y-105641200D03*
X147193000Y-106601200D03*
%TD*%
D14*
%TO.C,C10*%
X132235000Y-101600000D03*
X133195000Y-101600000D03*
%TD*%
D15*
%TO.C,R3*%
X139291600Y-97739200D03*
X140311600Y-97739200D03*
%TD*%
D16*
%TO.C,D2*%
X149083800Y-94234000D03*
X150483800Y-94234000D03*
%TD*%
D10*
%TO.C,C12*%
X140208000Y-103604000D03*
X140208000Y-102644000D03*
%TD*%
D12*
%TO.C,C13*%
X144526000Y-102466200D03*
X144526000Y-103426200D03*
%TD*%
D17*
%TO.C,U3*%
X135881000Y-103165000D03*
X135881000Y-103815000D03*
X135881000Y-104465000D03*
X135881000Y-105115000D03*
X131581000Y-105115000D03*
X131581000Y-104465000D03*
X131581000Y-103815000D03*
X131581000Y-103165000D03*
%TD*%
D18*
%TO.C,R10*%
X123317000Y-104904000D03*
X123317000Y-103884000D03*
%TD*%
D13*
%TO.C,R1*%
X141478000Y-102487000D03*
X141478000Y-103507000D03*
%TD*%
D12*
%TO.C,C6*%
X143332200Y-93906400D03*
X143332200Y-94866400D03*
%TD*%
D13*
%TO.C,R2*%
X143383000Y-102487000D03*
X143383000Y-103507000D03*
%TD*%
D19*
%TO.C,D1*%
X145810000Y-94234000D03*
X147560000Y-94234000D03*
%TD*%
D20*
%TO.C,U1*%
X130516000Y-98546000D03*
X130516000Y-99546000D03*
X130516000Y-100546000D03*
D21*
X129066000Y-102246000D03*
X128066000Y-102246000D03*
X127066000Y-102246000D03*
X126066000Y-102246000D03*
X125066000Y-102246000D03*
D20*
X123616000Y-100546000D03*
X123616000Y-99546000D03*
X123616000Y-98546000D03*
D21*
X125066000Y-96846000D03*
X126066000Y-96846000D03*
X127066000Y-96846000D03*
X128066000Y-96846000D03*
X129066000Y-96846000D03*
D22*
X127066000Y-98696000D03*
X127066000Y-100396000D03*
%TD*%
D23*
%TO.C,J1*%
X146816000Y-98321000D03*
X146816000Y-99571000D03*
X146816000Y-100821000D03*
X146816000Y-102071000D03*
D24*
X150016000Y-96471000D03*
X150016000Y-103921000D03*
%TD*%
D25*
%TO.C,C2*%
X133957000Y-95377000D03*
X132997000Y-95377000D03*
%TD*%
D14*
%TO.C,C4*%
X135740200Y-95326200D03*
X136700200Y-95326200D03*
%TD*%
D11*
%TO.C,R8*%
X138559000Y-104902000D03*
X137539000Y-104902000D03*
%TD*%
D13*
%TO.C,R12*%
X144856200Y-95629000D03*
X144856200Y-96649000D03*
%TD*%
D14*
%TO.C,C1*%
X126139000Y-104267000D03*
X127099000Y-104267000D03*
%TD*%
D12*
%TO.C,C8*%
X137922000Y-94135000D03*
X137922000Y-95095000D03*
%TD*%
D18*
%TO.C,R5*%
X138557000Y-102110000D03*
X138557000Y-101090000D03*
%TD*%
D13*
%TO.C,R6*%
X127000000Y-105408000D03*
X127000000Y-106428000D03*
%TD*%
D17*
%TO.C,U6*%
X140217000Y-101178000D03*
X140217000Y-100528000D03*
X140217000Y-99878000D03*
X140217000Y-99228000D03*
X144517000Y-99228000D03*
X144517000Y-99878000D03*
X144517000Y-100528000D03*
X144517000Y-101178000D03*
%TD*%
D18*
%TO.C,R7*%
X128397000Y-105160000D03*
X128397000Y-104140000D03*
%TD*%
D26*
%TO.C,U5*%
X141726500Y-93919000D03*
X141726500Y-94869000D03*
X141726500Y-95819000D03*
X139451500Y-95819000D03*
X139451500Y-93919000D03*
%TD*%
D11*
%TO.C,R9*%
X138559000Y-103759000D03*
X137539000Y-103759000D03*
%TD*%
D26*
%TO.C,U4*%
X144393500Y-104714000D03*
X144393500Y-105664000D03*
X144393500Y-106614000D03*
X142118500Y-106614000D03*
X142118500Y-104714000D03*
%TD*%
D12*
%TO.C,C7*%
X140208000Y-104930000D03*
X140208000Y-105890000D03*
%TD*%
D27*
%TO.C,U2*%
X133374000Y-99171000D03*
X133374000Y-98771000D03*
X133374000Y-98371000D03*
X133374000Y-97971000D03*
X133374000Y-97571000D03*
X133374000Y-97171000D03*
D28*
X133874000Y-96671000D03*
X134274000Y-96671000D03*
X134674000Y-96671000D03*
X135074000Y-96671000D03*
X135474000Y-96671000D03*
X135874000Y-96671000D03*
D27*
X136374000Y-97171000D03*
X136374000Y-97571000D03*
X136374000Y-97971000D03*
X136374000Y-98371000D03*
X136374000Y-98771000D03*
X136374000Y-99171000D03*
D28*
X135874000Y-99671000D03*
X135474000Y-99671000D03*
X135074000Y-99671000D03*
X134674000Y-99671000D03*
X134274000Y-99671000D03*
X133874000Y-99671000D03*
%TD*%
M02*
