%TF.GenerationSoftware,KiCad,Pcbnew,7.0.11+1*%
%TF.CreationDate,2024-06-05T21:25:00+00:00*%
%TF.ProjectId,TFASPDIMU02,54464153-5044-4494-9d55-30322e6b6963,rev?*%
%TF.SameCoordinates,Original*%
%TF.FileFunction,Legend,Bot*%
%TF.FilePolarity,Positive*%
%FSLAX46Y46*%
G04 Gerber Fmt 4.6, Leading zero omitted, Abs format (unit mm)*
G04 Created by KiCad (PCBNEW 7.0.11+1) date 2024-06-05 21:25:00*
%MOMM*%
%LPD*%
G01*
G04 APERTURE LIST*
%ADD10C,0.076200*%
%ADD11C,0.150000*%
%ADD12C,0.120000*%
G04 APERTURE END LIST*
D10*
X130061845Y-93659262D02*
X130061845Y-93901167D01*
X130231179Y-93393167D02*
X130061845Y-93659262D01*
X130061845Y-93659262D02*
X129892512Y-93393167D01*
X130086036Y-94888380D02*
X130086036Y-94162666D01*
X131368131Y-95028927D02*
X131029464Y-95536927D01*
X131029464Y-95028927D02*
X131368131Y-95536927D01*
X130835940Y-95343403D02*
X130448893Y-95343403D01*
X130255369Y-95028927D02*
X129916702Y-95028927D01*
X129916702Y-95028927D02*
X130255369Y-95536927D01*
X130255369Y-95536927D02*
X129916702Y-95536927D01*
D11*
X147423094Y-96118819D02*
X147423094Y-95118819D01*
X147423094Y-95118819D02*
X147184999Y-95118819D01*
X147184999Y-95118819D02*
X147042142Y-95166438D01*
X147042142Y-95166438D02*
X146946904Y-95261676D01*
X146946904Y-95261676D02*
X146899285Y-95356914D01*
X146899285Y-95356914D02*
X146851666Y-95547390D01*
X146851666Y-95547390D02*
X146851666Y-95690247D01*
X146851666Y-95690247D02*
X146899285Y-95880723D01*
X146899285Y-95880723D02*
X146946904Y-95975961D01*
X146946904Y-95975961D02*
X147042142Y-96071200D01*
X147042142Y-96071200D02*
X147184999Y-96118819D01*
X147184999Y-96118819D02*
X147423094Y-96118819D01*
X145899285Y-96118819D02*
X146470713Y-96118819D01*
X146184999Y-96118819D02*
X146184999Y-95118819D01*
X146184999Y-95118819D02*
X146280237Y-95261676D01*
X146280237Y-95261676D02*
X146375475Y-95356914D01*
X146375475Y-95356914D02*
X146470713Y-95404533D01*
X150320333Y-94069819D02*
X150320333Y-94784104D01*
X150320333Y-94784104D02*
X150367952Y-94926961D01*
X150367952Y-94926961D02*
X150463190Y-95022200D01*
X150463190Y-95022200D02*
X150606047Y-95069819D01*
X150606047Y-95069819D02*
X150701285Y-95069819D01*
X149320333Y-95069819D02*
X149891761Y-95069819D01*
X149606047Y-95069819D02*
X149606047Y-94069819D01*
X149606047Y-94069819D02*
X149701285Y-94212676D01*
X149701285Y-94212676D02*
X149796523Y-94307914D01*
X149796523Y-94307914D02*
X149891761Y-94355533D01*
X144141019Y-95496142D02*
X143664828Y-95162809D01*
X144141019Y-94924714D02*
X143141019Y-94924714D01*
X143141019Y-94924714D02*
X143141019Y-95305666D01*
X143141019Y-95305666D02*
X143188638Y-95400904D01*
X143188638Y-95400904D02*
X143236257Y-95448523D01*
X143236257Y-95448523D02*
X143331495Y-95496142D01*
X143331495Y-95496142D02*
X143474352Y-95496142D01*
X143474352Y-95496142D02*
X143569590Y-95448523D01*
X143569590Y-95448523D02*
X143617209Y-95400904D01*
X143617209Y-95400904D02*
X143664828Y-95305666D01*
X143664828Y-95305666D02*
X143664828Y-94924714D01*
X144141019Y-96448523D02*
X144141019Y-95877095D01*
X144141019Y-96162809D02*
X143141019Y-96162809D01*
X143141019Y-96162809D02*
X143283876Y-96067571D01*
X143283876Y-96067571D02*
X143379114Y-95972333D01*
X143379114Y-95972333D02*
X143426733Y-95877095D01*
X143236257Y-96829476D02*
X143188638Y-96877095D01*
X143188638Y-96877095D02*
X143141019Y-96972333D01*
X143141019Y-96972333D02*
X143141019Y-97210428D01*
X143141019Y-97210428D02*
X143188638Y-97305666D01*
X143188638Y-97305666D02*
X143236257Y-97353285D01*
X143236257Y-97353285D02*
X143331495Y-97400904D01*
X143331495Y-97400904D02*
X143426733Y-97400904D01*
X143426733Y-97400904D02*
X143569590Y-97353285D01*
X143569590Y-97353285D02*
X144141019Y-96781857D01*
X144141019Y-96781857D02*
X144141019Y-97400904D01*
D12*
%TO.C,C5*%
X145715400Y-106229036D02*
X145715400Y-106013364D01*
X146435400Y-106229036D02*
X146435400Y-106013364D01*
%TO.C,R11*%
X142901641Y-98043000D02*
X142594359Y-98043000D01*
X142901641Y-97283000D02*
X142594359Y-97283000D01*
%TO.C,C9*%
X137774000Y-102000164D02*
X137774000Y-102215836D01*
X137054000Y-102000164D02*
X137054000Y-102215836D01*
%TO.C,C3*%
X137435000Y-97417836D02*
X137435000Y-97202164D01*
X138155000Y-97417836D02*
X138155000Y-97202164D01*
%TO.C,R4*%
X138937000Y-99287359D02*
X138937000Y-99594641D01*
X138177000Y-99287359D02*
X138177000Y-99594641D01*
%TO.C,C11*%
X147553000Y-106013364D02*
X147553000Y-106229036D01*
X146833000Y-106013364D02*
X146833000Y-106229036D01*
%TO.C,C10*%
X132607164Y-101240000D02*
X132822836Y-101240000D01*
X132607164Y-101960000D02*
X132822836Y-101960000D01*
%TO.C,R3*%
X139546359Y-97283000D02*
X139853641Y-97283000D01*
X139546359Y-98043000D02*
X139853641Y-98043000D01*
%TO.C,D2*%
X148633800Y-94834000D02*
X148633800Y-93634000D01*
X150483800Y-93634000D02*
X148633800Y-93634000D01*
X150483800Y-94834000D02*
X148633800Y-94834000D01*
%TO.C,C12*%
X139848000Y-103231836D02*
X139848000Y-103016164D01*
X140568000Y-103231836D02*
X140568000Y-103016164D01*
%TO.C,C13*%
X145013000Y-102889164D02*
X145013000Y-103104836D01*
X144293000Y-102889164D02*
X144293000Y-103104836D01*
D11*
%TO.C,U3*%
X135356000Y-105765000D02*
X132106000Y-105765000D01*
X135356000Y-105590000D02*
X135356000Y-105765000D01*
X135356000Y-102515000D02*
X135356000Y-102690000D01*
X135356000Y-102515000D02*
X132106000Y-102515000D01*
X132106000Y-105590000D02*
X132106000Y-105765000D01*
X132106000Y-102515000D02*
X132106000Y-102690000D01*
D12*
X135831000Y-102690000D02*
X135591000Y-102360000D01*
X136071000Y-102360000D01*
X135831000Y-102690000D01*
G36*
X135831000Y-102690000D02*
G01*
X135591000Y-102360000D01*
X136071000Y-102360000D01*
X135831000Y-102690000D01*
G37*
%TO.C,R10*%
X122937000Y-104547641D02*
X122937000Y-104240359D01*
X123697000Y-104547641D02*
X123697000Y-104240359D01*
%TO.C,R1*%
X141858000Y-102843359D02*
X141858000Y-103150641D01*
X141098000Y-102843359D02*
X141098000Y-103150641D01*
%TO.C,C6*%
X143692200Y-94278564D02*
X143692200Y-94494236D01*
X142972200Y-94278564D02*
X142972200Y-94494236D01*
%TO.C,R2*%
X143763000Y-102843359D02*
X143763000Y-103150641D01*
X143003000Y-102843359D02*
X143003000Y-103150641D01*
%TO.C,D1*%
X145025000Y-93499000D02*
X147485000Y-93499000D01*
X145025000Y-94969000D02*
X145025000Y-93499000D01*
X147485000Y-94969000D02*
X145025000Y-94969000D01*
D11*
%TO.C,U1*%
X131316000Y-102296000D02*
X129366000Y-102296000D01*
X131316000Y-100846000D02*
X131316000Y-102296000D01*
X131316000Y-96796000D02*
X131316000Y-98246000D01*
X131316000Y-96796000D02*
X129366000Y-96796000D01*
X124766000Y-96796000D02*
X122816000Y-96796000D01*
X122816000Y-102296000D02*
X124766000Y-102296000D01*
X122816000Y-100846000D02*
X122816000Y-102296000D01*
X122816000Y-96796000D02*
X122816000Y-98246000D01*
X131003000Y-97234600D02*
G75*
G03*
X130495000Y-97234600I-254000J0D01*
G01*
X130495000Y-97234600D02*
G75*
G03*
X131003000Y-97234600I254000J0D01*
G01*
D12*
%TO.C,J1*%
X148584000Y-95961000D02*
X147134000Y-95961000D01*
X147134000Y-95961000D02*
X147134000Y-97761000D01*
X151404000Y-97231000D02*
X151404000Y-103161000D01*
X147134000Y-97761000D02*
X146144000Y-97761000D01*
X148584000Y-104431000D02*
X147134000Y-104431000D01*
X147134000Y-104431000D02*
X147134000Y-102631000D01*
%TO.C,C2*%
X133584836Y-95737000D02*
X133369164Y-95737000D01*
X133584836Y-95017000D02*
X133369164Y-95017000D01*
%TO.C,C4*%
X136163164Y-94890000D02*
X136378836Y-94890000D01*
X136163164Y-95610000D02*
X136378836Y-95610000D01*
%TO.C,R8*%
X138202641Y-105282000D02*
X137895359Y-105282000D01*
X138202641Y-104522000D02*
X137895359Y-104522000D01*
%TO.C,R12*%
X145236200Y-95985359D02*
X145236200Y-96292641D01*
X144476200Y-95985359D02*
X144476200Y-96292641D01*
%TO.C,C1*%
X126511164Y-103907000D02*
X126726836Y-103907000D01*
X126511164Y-104627000D02*
X126726836Y-104627000D01*
%TO.C,C8*%
X138282000Y-94507164D02*
X138282000Y-94722836D01*
X137562000Y-94507164D02*
X137562000Y-94722836D01*
%TO.C,R5*%
X138177000Y-101753641D02*
X138177000Y-101446359D01*
X138937000Y-101753641D02*
X138937000Y-101446359D01*
%TO.C,R6*%
X127380000Y-105764359D02*
X127380000Y-106071641D01*
X126620000Y-105764359D02*
X126620000Y-106071641D01*
D11*
%TO.C,U6*%
X140742000Y-98578000D02*
X143992000Y-98578000D01*
X140742000Y-98753000D02*
X140742000Y-98578000D01*
X140742000Y-101828000D02*
X140742000Y-101653000D01*
X140742000Y-101828000D02*
X143992000Y-101828000D01*
X143992000Y-98753000D02*
X143992000Y-98578000D01*
X143992000Y-101828000D02*
X143992000Y-101653000D01*
D12*
X140507000Y-101983000D02*
X140027000Y-101983000D01*
X140267000Y-101653000D01*
X140507000Y-101983000D01*
G36*
X140507000Y-101983000D02*
G01*
X140027000Y-101983000D01*
X140267000Y-101653000D01*
X140507000Y-101983000D01*
G37*
%TO.C,R7*%
X128017000Y-104803641D02*
X128017000Y-104496359D01*
X128777000Y-104803641D02*
X128777000Y-104496359D01*
%TO.C,U5*%
X140589000Y-96429000D02*
X141389000Y-96429000D01*
X140589000Y-96429000D02*
X139789000Y-96429000D01*
X140589000Y-93309000D02*
X142389000Y-93309000D01*
X140589000Y-93309000D02*
X139789000Y-93309000D01*
%TO.C,R9*%
X138202641Y-104139000D02*
X137895359Y-104139000D01*
X138202641Y-103379000D02*
X137895359Y-103379000D01*
%TO.C,U4*%
X143256000Y-107224000D02*
X144056000Y-107224000D01*
X143256000Y-107224000D02*
X142456000Y-107224000D01*
X143256000Y-104104000D02*
X145056000Y-104104000D01*
X143256000Y-104104000D02*
X142456000Y-104104000D01*
%TO.C,C7*%
X140568000Y-105302164D02*
X140568000Y-105517836D01*
X139848000Y-105302164D02*
X139848000Y-105517836D01*
D11*
%TO.C,U2*%
X133274000Y-96571000D02*
X133274000Y-96971000D01*
X133274000Y-96571000D02*
X133674000Y-96571000D01*
X133274000Y-99771000D02*
X133674000Y-99771000D01*
X136474000Y-96571000D02*
X136074000Y-96571000D01*
X136474000Y-96571000D02*
X136474000Y-96971000D01*
X136474000Y-99771000D02*
X136074000Y-99771000D01*
X136474000Y-99771000D02*
X136474000Y-99371000D01*
%TD*%
M02*
