%TF.GenerationSoftware,KiCad,Pcbnew,7.0.11+1*%
%TF.CreationDate,2024-05-30T20:05:54+00:00*%
%TF.ProjectId,TFASPDIMU02,54464153-5044-4494-9d55-30322e6b6963,rev?*%
%TF.SameCoordinates,Original*%
%TF.FileFunction,Copper,L2,Bot*%
%TF.FilePolarity,Positive*%
%FSLAX46Y46*%
G04 Gerber Fmt 4.6, Leading zero omitted, Abs format (unit mm)*
G04 Created by KiCad (PCBNEW 7.0.11+1) date 2024-05-30 20:05:54*
%MOMM*%
%LPD*%
G01*
G04 APERTURE LIST*
G04 Aperture macros list*
%AMRoundRect*
0 Rectangle with rounded corners*
0 $1 Rounding radius*
0 $2 $3 $4 $5 $6 $7 $8 $9 X,Y pos of 4 corners*
0 Add a 4 corners polygon primitive as box body*
4,1,4,$2,$3,$4,$5,$6,$7,$8,$9,$2,$3,0*
0 Add four circle primitives for the rounded corners*
1,1,$1+$1,$2,$3*
1,1,$1+$1,$4,$5*
1,1,$1+$1,$6,$7*
1,1,$1+$1,$8,$9*
0 Add four rect primitives between the rounded corners*
20,1,$1+$1,$2,$3,$4,$5,0*
20,1,$1+$1,$4,$5,$6,$7,0*
20,1,$1+$1,$6,$7,$8,$9,0*
20,1,$1+$1,$8,$9,$2,$3,0*%
%AMOutline4P*
0 Free polygon, 4 corners , with rotation*
0 The origin of the aperture is its center*
0 number of corners: always 4*
0 $1 to $8 corner X, Y*
0 $9 Rotation angle, in degrees counterclockwise*
0 create outline with 4 corners*
4,1,4,$1,$2,$3,$4,$5,$6,$7,$8,$1,$2,$9*%
G04 Aperture macros list end*
%TA.AperFunction,SMDPad,CuDef*%
%ADD10RoundRect,0.140000X-0.140000X-0.170000X0.140000X-0.170000X0.140000X0.170000X-0.140000X0.170000X0*%
%TD*%
%TA.AperFunction,SMDPad,CuDef*%
%ADD11RoundRect,0.135000X0.135000X0.185000X-0.135000X0.185000X-0.135000X-0.185000X0.135000X-0.185000X0*%
%TD*%
%TA.AperFunction,SMDPad,CuDef*%
%ADD12RoundRect,0.140000X-0.170000X0.140000X-0.170000X-0.140000X0.170000X-0.140000X0.170000X0.140000X0*%
%TD*%
%TA.AperFunction,SMDPad,CuDef*%
%ADD13RoundRect,0.140000X0.170000X-0.140000X0.170000X0.140000X-0.170000X0.140000X-0.170000X-0.140000X0*%
%TD*%
%TA.AperFunction,SMDPad,CuDef*%
%ADD14RoundRect,0.135000X-0.185000X0.135000X-0.185000X-0.135000X0.185000X-0.135000X0.185000X0.135000X0*%
%TD*%
%TA.AperFunction,SMDPad,CuDef*%
%ADD15RoundRect,0.135000X-0.135000X-0.185000X0.135000X-0.185000X0.135000X0.185000X-0.135000X0.185000X0*%
%TD*%
%TA.AperFunction,SMDPad,CuDef*%
%ADD16R,0.600000X0.700000*%
%TD*%
%TA.AperFunction,SMDPad,CuDef*%
%ADD17R,1.100000X0.400000*%
%TD*%
%TA.AperFunction,SMDPad,CuDef*%
%ADD18RoundRect,0.135000X0.185000X-0.135000X0.185000X0.135000X-0.185000X0.135000X-0.185000X-0.135000X0*%
%TD*%
%TA.AperFunction,SMDPad,CuDef*%
%ADD19Outline4P,-1.000000X-0.250000X1.000000X-0.250000X1.000000X0.250000X-1.000000X0.250000X180.000000*%
%TD*%
%TA.AperFunction,SMDPad,CuDef*%
%ADD20Outline4P,-1.000000X-0.250000X1.000000X-0.250000X1.000000X0.250000X-1.000000X0.250000X90.000000*%
%TD*%
%TA.AperFunction,SMDPad,CuDef*%
%ADD21Outline4P,-0.900000X-0.450000X0.900000X-0.450000X0.900000X0.450000X-0.900000X0.450000X180.000000*%
%TD*%
%TA.AperFunction,SMDPad,CuDef*%
%ADD22RoundRect,0.150000X-0.700000X0.150000X-0.700000X-0.150000X0.700000X-0.150000X0.700000X0.150000X0*%
%TD*%
%TA.AperFunction,SMDPad,CuDef*%
%ADD23RoundRect,0.250000X-1.100000X0.250000X-1.100000X-0.250000X1.100000X-0.250000X1.100000X0.250000X0*%
%TD*%
%TA.AperFunction,SMDPad,CuDef*%
%ADD24RoundRect,0.140000X0.140000X0.170000X-0.140000X0.170000X-0.140000X-0.170000X0.140000X-0.170000X0*%
%TD*%
%TA.AperFunction,SMDPad,CuDef*%
%ADD25RoundRect,0.150000X0.512500X0.150000X-0.512500X0.150000X-0.512500X-0.150000X0.512500X-0.150000X0*%
%TD*%
%TA.AperFunction,SMDPad,CuDef*%
%ADD26RoundRect,0.050000X-0.225000X-0.050000X0.225000X-0.050000X0.225000X0.050000X-0.225000X0.050000X0*%
%TD*%
%TA.AperFunction,SMDPad,CuDef*%
%ADD27RoundRect,0.050000X-0.050000X0.225000X-0.050000X-0.225000X0.050000X-0.225000X0.050000X0.225000X0*%
%TD*%
%TA.AperFunction,ViaPad*%
%ADD28C,0.800000*%
%TD*%
%TA.AperFunction,Conductor*%
%ADD29C,0.200000*%
%TD*%
%TA.AperFunction,Conductor*%
%ADD30C,0.400000*%
%TD*%
%TA.AperFunction,Conductor*%
%ADD31C,0.300000*%
%TD*%
%TA.AperFunction,Conductor*%
%ADD32C,0.500000*%
%TD*%
G04 APERTURE END LIST*
D10*
%TO.P,C5,1*%
%TO.N,+5V*%
X146713000Y-106045000D03*
%TO.P,C5,2*%
%TO.N,GND*%
X147673000Y-106045000D03*
%TD*%
D11*
%TO.P,R11,1*%
%TO.N,Net-(R11-Pad1)*%
X143258000Y-97663000D03*
%TO.P,R11,2*%
%TO.N,/SDA_3V3*%
X142238000Y-97663000D03*
%TD*%
D12*
%TO.P,C9,1*%
%TO.N,GND*%
X137414000Y-101628000D03*
%TO.P,C9,2*%
%TO.N,+1V8*%
X137414000Y-102588000D03*
%TD*%
D13*
%TO.P,C3,1*%
%TO.N,+3V3*%
X137795000Y-97790000D03*
%TO.P,C3,2*%
%TO.N,GND*%
X137795000Y-96830000D03*
%TD*%
D14*
%TO.P,R4,1*%
%TO.N,+1V8*%
X138557000Y-98931000D03*
%TO.P,R4,2*%
%TO.N,/SDA_1V8*%
X138557000Y-99951000D03*
%TD*%
D10*
%TO.P,C11,1*%
%TO.N,+5V*%
X144046000Y-96520000D03*
%TO.P,C11,2*%
%TO.N,GND*%
X145006000Y-96520000D03*
%TD*%
%TO.P,C10,1*%
%TO.N,+3V3*%
X132235000Y-101600000D03*
%TO.P,C10,2*%
%TO.N,GND*%
X133195000Y-101600000D03*
%TD*%
D15*
%TO.P,R3,1*%
%TO.N,+3V3*%
X139190000Y-97663000D03*
%TO.P,R3,2*%
%TO.N,/SDA_3V3*%
X140210000Y-97663000D03*
%TD*%
D16*
%TO.P,D2,1,K*%
%TO.N,+5V*%
X146493000Y-94488000D03*
%TO.P,D2,2,A*%
%TO.N,GND*%
X147893000Y-94488000D03*
%TD*%
D13*
%TO.P,C12,1*%
%TO.N,GND*%
X140208000Y-103604000D03*
%TO.P,C12,2*%
%TO.N,+1V8*%
X140208000Y-102644000D03*
%TD*%
D12*
%TO.P,C13,1*%
%TO.N,+3V3*%
X144653000Y-102517000D03*
%TO.P,C13,2*%
%TO.N,GND*%
X144653000Y-103477000D03*
%TD*%
D17*
%TO.P,U3,1,VCCA*%
%TO.N,+1V8*%
X135881000Y-103165000D03*
%TO.P,U3,2,SCLA*%
%TO.N,/P_SCL_1V8*%
X135881000Y-103815000D03*
%TO.P,U3,3,SDAA*%
%TO.N,/P_SDA_1V8*%
X135881000Y-104465000D03*
%TO.P,U3,4,GND*%
%TO.N,GND*%
X135881000Y-105115000D03*
%TO.P,U3,5,EN*%
%TO.N,unconnected-(U3-Pad5)*%
X131581000Y-105115000D03*
%TO.P,U3,6,SDAB*%
%TO.N,Net-(R6-Pad2)*%
X131581000Y-104465000D03*
%TO.P,U3,7,SCLB*%
%TO.N,Net-(R7-Pad2)*%
X131581000Y-103815000D03*
%TO.P,U3,8,VCCB*%
%TO.N,+3V3*%
X131581000Y-103165000D03*
%TD*%
D18*
%TO.P,R10,1*%
%TO.N,Net-(JP2-Pad3)*%
X123317000Y-104904000D03*
%TO.P,R10,2*%
%TO.N,GND*%
X123317000Y-103884000D03*
%TD*%
D14*
%TO.P,R1,1*%
%TO.N,Net-(R1-Pad1)*%
X141478000Y-102487000D03*
%TO.P,R1,2*%
%TO.N,/SCL_3V3*%
X141478000Y-103507000D03*
%TD*%
D10*
%TO.P,C6,1*%
%TO.N,+5V*%
X144046000Y-95123000D03*
%TO.P,C6,2*%
%TO.N,GND*%
X145006000Y-95123000D03*
%TD*%
D14*
%TO.P,R2,1*%
%TO.N,+3V3*%
X143383000Y-102487000D03*
%TO.P,R2,2*%
%TO.N,/SCL_3V3*%
X143383000Y-103507000D03*
%TD*%
D19*
%TO.P,U1,1,GND*%
%TO.N,GND*%
X130516000Y-98546000D03*
%TO.P,U1,2,GND*%
X130516000Y-99546000D03*
%TO.P,U1,3,GND*%
X130516000Y-100546000D03*
D20*
%TO.P,U1,4,IRQn*%
%TO.N,unconnected-(U1-Pad4)*%
X129066000Y-102246000D03*
%TO.P,U1,5,SCL*%
%TO.N,Net-(R7-Pad2)*%
X128066000Y-102246000D03*
%TO.P,U1,6,GND*%
%TO.N,GND*%
X127066000Y-102246000D03*
%TO.P,U1,7,VDD*%
%TO.N,+3V3*%
X126066000Y-102246000D03*
%TO.P,U1,8,SDA*%
%TO.N,Net-(R6-Pad2)*%
X125066000Y-102246000D03*
D19*
%TO.P,U1,9,ADDR*%
%TO.N,Net-(JP2-Pad2)*%
X123616000Y-100546000D03*
%TO.P,U1,10,GND*%
%TO.N,GND*%
X123616000Y-99546000D03*
%TO.P,U1,11,GND*%
X123616000Y-98546000D03*
D20*
%TO.P,U1,12*%
%TO.N,N/C*%
X125066000Y-96846000D03*
%TO.P,U1,13*%
X126066000Y-96846000D03*
%TO.P,U1,14*%
X127066000Y-96846000D03*
%TO.P,U1,15*%
X128066000Y-96846000D03*
%TO.P,U1,16*%
X129066000Y-96846000D03*
D21*
%TO.P,U1,17,GND*%
%TO.N,GND*%
X127066000Y-98696000D03*
%TO.P,U1,18,GND*%
X127066000Y-100396000D03*
%TD*%
D22*
%TO.P,J1,1*%
%TO.N,+5V*%
X146994000Y-98321000D03*
%TO.P,J1,2*%
%TO.N,/SCL_3V3*%
X146994000Y-99571000D03*
%TO.P,J1,3*%
%TO.N,/SDA_3V3*%
X146994000Y-100821000D03*
%TO.P,J1,4*%
%TO.N,GND*%
X146994000Y-102071000D03*
D23*
%TO.P,J1,MP*%
X150194000Y-96471000D03*
X150194000Y-103921000D03*
%TD*%
D24*
%TO.P,C2,1*%
%TO.N,+1V8*%
X133957000Y-95377000D03*
%TO.P,C2,2*%
%TO.N,GND*%
X132997000Y-95377000D03*
%TD*%
D10*
%TO.P,C4,1*%
%TO.N,Net-(C4-Pad1)*%
X135791000Y-95250000D03*
%TO.P,C4,2*%
%TO.N,GND*%
X136751000Y-95250000D03*
%TD*%
D11*
%TO.P,R8,1*%
%TO.N,+1V8*%
X138559000Y-104902000D03*
%TO.P,R8,2*%
%TO.N,/P_SDA_1V8*%
X137539000Y-104902000D03*
%TD*%
D10*
%TO.P,C1,1*%
%TO.N,+3V3*%
X126139000Y-104267000D03*
%TO.P,C1,2*%
%TO.N,GND*%
X127099000Y-104267000D03*
%TD*%
D12*
%TO.P,C8,1*%
%TO.N,+1V8*%
X137922000Y-94135000D03*
%TO.P,C8,2*%
%TO.N,GND*%
X137922000Y-95095000D03*
%TD*%
D18*
%TO.P,R5,1*%
%TO.N,+1V8*%
X138557000Y-102110000D03*
%TO.P,R5,2*%
%TO.N,/SCL_1V8*%
X138557000Y-101090000D03*
%TD*%
D14*
%TO.P,R6,1*%
%TO.N,+3V3*%
X127000000Y-105408000D03*
%TO.P,R6,2*%
%TO.N,Net-(R6-Pad2)*%
X127000000Y-106428000D03*
%TD*%
D17*
%TO.P,U6,1,VCCA*%
%TO.N,+1V8*%
X140217000Y-101178000D03*
%TO.P,U6,2,SCLA*%
%TO.N,/SCL_1V8*%
X140217000Y-100528000D03*
%TO.P,U6,3,SDAA*%
%TO.N,/SDA_1V8*%
X140217000Y-99878000D03*
%TO.P,U6,4,GND*%
%TO.N,GND*%
X140217000Y-99228000D03*
%TO.P,U6,5,EN*%
%TO.N,unconnected-(U6-Pad5)*%
X144517000Y-99228000D03*
%TO.P,U6,6,SDAB*%
%TO.N,Net-(R11-Pad1)*%
X144517000Y-99878000D03*
%TO.P,U6,7,SCLB*%
%TO.N,Net-(R1-Pad1)*%
X144517000Y-100528000D03*
%TO.P,U6,8,VCCB*%
%TO.N,+3V3*%
X144517000Y-101178000D03*
%TD*%
D18*
%TO.P,R7,1*%
%TO.N,+3V3*%
X128397000Y-105160000D03*
%TO.P,R7,2*%
%TO.N,Net-(R7-Pad2)*%
X128397000Y-104140000D03*
%TD*%
D25*
%TO.P,U5,1,VIN*%
%TO.N,+5V*%
X141726500Y-93919000D03*
%TO.P,U5,2,GND*%
%TO.N,GND*%
X141726500Y-94869000D03*
%TO.P,U5,3,EN*%
%TO.N,+5V*%
X141726500Y-95819000D03*
%TO.P,U5,4,NC*%
%TO.N,unconnected-(U5-Pad4)*%
X139451500Y-95819000D03*
%TO.P,U5,5,VOUT*%
%TO.N,+1V8*%
X139451500Y-93919000D03*
%TD*%
D11*
%TO.P,R9,1*%
%TO.N,+1V8*%
X138559000Y-103759000D03*
%TO.P,R9,2*%
%TO.N,/P_SCL_1V8*%
X137539000Y-103759000D03*
%TD*%
D25*
%TO.P,U4,1,VIN*%
%TO.N,+5V*%
X144393500Y-104714000D03*
%TO.P,U4,2,GND*%
%TO.N,GND*%
X144393500Y-105664000D03*
%TO.P,U4,3,EN*%
%TO.N,+5V*%
X144393500Y-106614000D03*
%TO.P,U4,4,NC*%
%TO.N,unconnected-(U4-Pad4)*%
X142118500Y-106614000D03*
%TO.P,U4,5,VOUT*%
%TO.N,+3V3*%
X142118500Y-104714000D03*
%TD*%
D12*
%TO.P,C7,1*%
%TO.N,+3V3*%
X140208000Y-104930000D03*
%TO.P,C7,2*%
%TO.N,GND*%
X140208000Y-105890000D03*
%TD*%
D26*
%TO.P,U2,1,NC*%
%TO.N,unconnected-(U2-Pad1)*%
X133374000Y-99171000D03*
%TO.P,U2,2,NC*%
%TO.N,unconnected-(U2-Pad2)*%
X133374000Y-98771000D03*
%TO.P,U2,3,NC*%
%TO.N,unconnected-(U2-Pad3)*%
X133374000Y-98371000D03*
%TO.P,U2,4,NC*%
%TO.N,unconnected-(U2-Pad4)*%
X133374000Y-97971000D03*
%TO.P,U2,5,NC*%
%TO.N,unconnected-(U2-Pad5)*%
X133374000Y-97571000D03*
%TO.P,U2,6,NC*%
%TO.N,unconnected-(U2-Pad6)*%
X133374000Y-97171000D03*
D27*
%TO.P,U2,7,AUX_CL*%
%TO.N,/P_SCL_1V8*%
X133874000Y-96671000D03*
%TO.P,U2,8,VDDIO*%
%TO.N,+1V8*%
X134274000Y-96671000D03*
%TO.P,U2,9,SDO/AD0*%
%TO.N,Net-(JP1-Pad2)*%
X134674000Y-96671000D03*
%TO.P,U2,10,REGOUT*%
%TO.N,Net-(C4-Pad1)*%
X135074000Y-96671000D03*
%TO.P,U2,11,FSYNC*%
%TO.N,GND*%
X135474000Y-96671000D03*
%TO.P,U2,12,INT1*%
%TO.N,unconnected-(U2-Pad12)*%
X135874000Y-96671000D03*
D26*
%TO.P,U2,13,VDD*%
%TO.N,+3V3*%
X136374000Y-97171000D03*
%TO.P,U2,14,NC*%
%TO.N,unconnected-(U2-Pad14)*%
X136374000Y-97571000D03*
%TO.P,U2,15,NC*%
%TO.N,unconnected-(U2-Pad15)*%
X136374000Y-97971000D03*
%TO.P,U2,16,NC*%
%TO.N,unconnected-(U2-Pad16)*%
X136374000Y-98371000D03*
%TO.P,U2,17,NC*%
%TO.N,unconnected-(U2-Pad17)*%
X136374000Y-98771000D03*
%TO.P,U2,18,GND*%
%TO.N,GND*%
X136374000Y-99171000D03*
D27*
%TO.P,U2,19,RESV*%
%TO.N,unconnected-(U2-Pad19)*%
X135874000Y-99671000D03*
%TO.P,U2,20,GND*%
%TO.N,GND*%
X135474000Y-99671000D03*
%TO.P,U2,21,AUX_DA*%
%TO.N,/P_SDA_1V8*%
X135074000Y-99671000D03*
%TO.P,U2,22,~{CS}*%
%TO.N,+1V8*%
X134674000Y-99671000D03*
%TO.P,U2,23,SCL/SCLK*%
%TO.N,/SCL_1V8*%
X134274000Y-99671000D03*
%TO.P,U2,24,SDA/SDI*%
%TO.N,/SDA_1V8*%
X133874000Y-99671000D03*
%TD*%
D28*
%TO.N,GND*%
X130556000Y-96012000D03*
X149225000Y-94996000D03*
X143002000Y-96647000D03*
X150495000Y-97917000D03*
X122936000Y-94996000D03*
X149225000Y-93980000D03*
X130048000Y-106680000D03*
X149098000Y-106299000D03*
X149733000Y-102616000D03*
X141524561Y-99617529D03*
X126746000Y-93853000D03*
X136525000Y-106553000D03*
X132969000Y-103886000D03*
X150749000Y-100330000D03*
X149098000Y-105283000D03*
X122682000Y-102743000D03*
X150749000Y-99060000D03*
X137541000Y-98806000D03*
X150368000Y-94996000D03*
X130556000Y-94996000D03*
X142966000Y-100396000D03*
X132207000Y-106680000D03*
X122936000Y-96012000D03*
X150495000Y-105283000D03*
X139192000Y-106553000D03*
X150749000Y-101600000D03*
X122682000Y-106045000D03*
X136779000Y-96393000D03*
X146304000Y-103505000D03*
X124206000Y-94996000D03*
X146050000Y-96901000D03*
X147828000Y-104775000D03*
X139446000Y-104267000D03*
X126746000Y-94996000D03*
X149098000Y-100711000D03*
X147955000Y-95885000D03*
X137922000Y-106553000D03*
X131191000Y-106680000D03*
X146050000Y-95885000D03*
X147955000Y-97028000D03*
X125476000Y-94996000D03*
X144266000Y-98296000D03*
X150368000Y-93980000D03*
X136398000Y-101981000D03*
X150749000Y-102616000D03*
X150495000Y-106299000D03*
X145766000Y-105596000D03*
%TO.N,+3V3*%
X138534069Y-97893979D03*
X142553970Y-102631111D03*
X140866000Y-104394000D03*
X129518166Y-104626166D03*
X130175000Y-103065500D03*
%TO.N,+1V8*%
X141417942Y-98623729D03*
X136779000Y-94107000D03*
%TO.N,Net-(JP1-Pad2)*%
X134836500Y-95267964D03*
%TO.N,/SCL_3V3*%
X142348203Y-103609204D03*
X148566000Y-99596000D03*
%TO.N,/SDA_3V3*%
X141220163Y-97643990D03*
X145669000Y-100838000D03*
%TO.N,/SDA_1V8*%
X137541000Y-99805503D03*
X133574500Y-100559600D03*
%TO.N,/SCL_1V8*%
X137810950Y-100767860D03*
X134074511Y-101473000D03*
%TO.N,/P_SDA_1V8*%
X134131944Y-104076898D03*
X135473511Y-102362000D03*
%TO.N,/P_SCL_1V8*%
X133731000Y-103124000D03*
X132334000Y-96647000D03*
%TO.N,Net-(JP2-Pad2)*%
X123825000Y-102870000D03*
%TO.N,Net-(JP2-Pad3)*%
X124316500Y-104619958D03*
%TD*%
D29*
%TO.N,GND*%
X136116000Y-95885000D02*
X136751000Y-95250000D01*
X135474000Y-96294632D02*
X135883632Y-95885000D01*
X135474000Y-96671000D02*
X135474000Y-96294632D01*
X136374000Y-99171000D02*
X137176000Y-99171000D01*
X137176000Y-99171000D02*
X137541000Y-98806000D01*
D30*
X145642542Y-105664000D02*
X145643167Y-105664625D01*
X144393500Y-105664000D02*
X145642542Y-105664000D01*
D31*
X142866000Y-100396000D02*
X142966000Y-100396000D01*
D29*
X135883632Y-95885000D02*
X136116000Y-95885000D01*
D31*
%TO.N,+5V*%
X143510000Y-95123000D02*
X142306000Y-93919000D01*
X145989000Y-104714000D02*
X145603000Y-104714000D01*
X142306000Y-93919000D02*
X141726500Y-93919000D01*
D32*
X146994000Y-94989000D02*
X146493000Y-94488000D01*
D31*
X145603000Y-104714000D02*
X144393500Y-104714000D01*
X146144000Y-106614000D02*
X144393500Y-106614000D01*
X143764000Y-95123000D02*
X143510000Y-95123000D01*
X146713000Y-106045000D02*
X146144000Y-106614000D01*
X144046000Y-96520000D02*
X144046000Y-96830000D01*
X145537000Y-98321000D02*
X146994000Y-98321000D01*
X146492000Y-104714000D02*
X146713000Y-104935000D01*
X143792000Y-95659000D02*
X144046000Y-95659000D01*
X146492000Y-104714000D02*
X145989000Y-104714000D01*
D32*
X146994000Y-98321000D02*
X146994000Y-94989000D01*
D31*
X144046000Y-95857000D02*
X144046000Y-96520000D01*
X144046000Y-96830000D02*
X145537000Y-98321000D01*
X146713000Y-104935000D02*
X146713000Y-106045000D01*
X144046000Y-95123000D02*
X144046000Y-95659000D01*
X143764000Y-95631000D02*
X143792000Y-95659000D01*
X149248000Y-98321000D02*
X149987000Y-99060000D01*
X149987000Y-99060000D02*
X149987000Y-101219000D01*
X144046000Y-95659000D02*
X144046000Y-95857000D01*
X149987000Y-101219000D02*
X146492000Y-104714000D01*
X144046000Y-95123000D02*
X143764000Y-95123000D01*
X141726500Y-95819000D02*
X144008000Y-95819000D01*
X143764000Y-95123000D02*
X143764000Y-95631000D01*
X146994000Y-98321000D02*
X149248000Y-98321000D01*
X144008000Y-95819000D02*
X144046000Y-95857000D01*
%TO.N,+3V3*%
X127554000Y-105408000D02*
X127000000Y-105408000D01*
D30*
X141186000Y-104714000D02*
X140866000Y-104394000D01*
D31*
X130274500Y-103165000D02*
X130175000Y-103065500D01*
D30*
X143383000Y-102487000D02*
X144623000Y-102487000D01*
X143383000Y-102487000D02*
X142698081Y-102487000D01*
D31*
X126878000Y-105408000D02*
X126139000Y-104669000D01*
D30*
X140330000Y-104930000D02*
X140866000Y-104394000D01*
D29*
X136374000Y-97171000D02*
X137176000Y-97171000D01*
D31*
X128397000Y-105160000D02*
X128984332Y-105160000D01*
X127000000Y-105408000D02*
X126878000Y-105408000D01*
X126139000Y-104267000D02*
X126139000Y-104669000D01*
X131581000Y-103165000D02*
X131785000Y-103165000D01*
D29*
X137176000Y-97171000D02*
X137795000Y-97790000D01*
D31*
X131785000Y-103165000D02*
X132235000Y-102715000D01*
X128397000Y-105160000D02*
X127802000Y-105160000D01*
D30*
X142118500Y-104714000D02*
X141186000Y-104714000D01*
X142698081Y-102487000D02*
X142553970Y-102631111D01*
X140208000Y-104930000D02*
X140330000Y-104930000D01*
D31*
X144517000Y-101178000D02*
X144517000Y-102381000D01*
D30*
X144623000Y-102487000D02*
X144653000Y-102517000D01*
D31*
X132235000Y-102715000D02*
X132235000Y-101600000D01*
X127802000Y-105160000D02*
X127554000Y-105408000D01*
D29*
X137795000Y-97790000D02*
X139063000Y-97790000D01*
X138430090Y-97790000D02*
X138534069Y-97893979D01*
D31*
X126066000Y-102146000D02*
X126066000Y-104194000D01*
D29*
X137795000Y-97790000D02*
X138430090Y-97790000D01*
D31*
X131581000Y-103165000D02*
X130274500Y-103165000D01*
X128984332Y-105160000D02*
X129518166Y-104626166D01*
X144517000Y-102381000D02*
X144653000Y-102517000D01*
D29*
X139063000Y-97790000D02*
X139190000Y-97663000D01*
D31*
%TO.N,+1V8*%
X138559000Y-102903000D02*
X138557000Y-102901000D01*
X135881000Y-103165000D02*
X136837000Y-103165000D01*
X140208000Y-102644000D02*
X140208000Y-101187000D01*
X133957000Y-95038187D02*
X133957000Y-95377000D01*
X137894000Y-94107000D02*
X137922000Y-94135000D01*
D29*
X134674000Y-101088995D02*
X134774011Y-101189006D01*
D31*
X142057729Y-98623729D02*
X141417942Y-98623729D01*
X136837000Y-103165000D02*
X137414000Y-102588000D01*
X141084000Y-101178000D02*
X141616000Y-100646000D01*
X138557000Y-102901000D02*
X138557000Y-102110000D01*
X140217000Y-101178000D02*
X140217000Y-102099000D01*
X142367000Y-99835044D02*
X142367000Y-98933000D01*
X140206000Y-102110000D02*
X140217000Y-102099000D01*
X138171000Y-102901000D02*
X137858000Y-102588000D01*
X140217000Y-102635000D02*
X140208000Y-102644000D01*
X138559000Y-102603000D02*
X138559000Y-102463000D01*
X141616000Y-100646000D02*
X141616000Y-100586044D01*
X138559000Y-104902000D02*
X138559000Y-103759000D01*
D29*
X134674000Y-99671000D02*
X134674000Y-101088995D01*
D31*
X139063000Y-98425000D02*
X141224000Y-98425000D01*
X137414000Y-102588000D02*
X137858000Y-102588000D01*
X138557000Y-102901000D02*
X138171000Y-102901000D01*
X139714000Y-102644000D02*
X140208000Y-102644000D01*
X139451500Y-93919000D02*
X138138000Y-93919000D01*
D29*
X134774011Y-101189006D02*
X134774011Y-102897011D01*
D31*
X136367547Y-94518453D02*
X134476734Y-94518453D01*
X138559000Y-102903000D02*
X138559000Y-102603000D01*
X140217000Y-101178000D02*
X141084000Y-101178000D01*
X141616000Y-100586044D02*
X142367000Y-99835044D01*
X134476734Y-94518453D02*
X133957000Y-95038187D01*
X140217000Y-102099000D02*
X140217000Y-102635000D01*
X138138000Y-93919000D02*
X137922000Y-94135000D01*
X138557000Y-102110000D02*
X139180000Y-102110000D01*
X138557000Y-98931000D02*
X139063000Y-98425000D01*
X138559000Y-103759000D02*
X138559000Y-102903000D01*
X136779000Y-94107000D02*
X136367547Y-94518453D01*
X142367000Y-98933000D02*
X142057729Y-98623729D01*
X138912000Y-102110000D02*
X138557000Y-102110000D01*
D29*
X134274000Y-95870499D02*
X133957000Y-95553499D01*
X135042000Y-103165000D02*
X134774011Y-102897011D01*
D31*
X136779000Y-94107000D02*
X137894000Y-94107000D01*
X139180000Y-102110000D02*
X139714000Y-102644000D01*
X140208000Y-101187000D02*
X140217000Y-101178000D01*
D29*
X134274000Y-96671000D02*
X134274000Y-95870499D01*
X135881000Y-103165000D02*
X135042000Y-103165000D01*
X133957000Y-95553499D02*
X133957000Y-95377000D01*
D31*
X141224000Y-98425000D02*
X141605000Y-98806000D01*
D29*
%TO.N,Net-(C4-Pad1)*%
X135791000Y-95380713D02*
X135074000Y-96097713D01*
X135074000Y-96097713D02*
X135074000Y-96671000D01*
X135791000Y-95250000D02*
X135791000Y-95380713D01*
%TO.N,Net-(JP1-Pad2)*%
X134674000Y-95430464D02*
X134674000Y-96671000D01*
X134836500Y-95267964D02*
X134674000Y-95430464D01*
D31*
%TO.N,/SCL_3V3*%
X141478000Y-103507000D02*
X142245999Y-103507000D01*
X142450407Y-103507000D02*
X142348203Y-103609204D01*
X142245999Y-103507000D02*
X142348203Y-103609204D01*
X143383000Y-103507000D02*
X142450407Y-103507000D01*
X146994000Y-99571000D02*
X148541000Y-99571000D01*
X148541000Y-99571000D02*
X148566000Y-99596000D01*
%TO.N,/SDA_3V3*%
X141478000Y-97663000D02*
X140210000Y-97663000D01*
X146994000Y-100821000D02*
X145686000Y-100821000D01*
X142238000Y-97663000D02*
X141239173Y-97663000D01*
X145686000Y-100821000D02*
X145669000Y-100838000D01*
X141239173Y-97663000D02*
X141220163Y-97643990D01*
%TO.N,/SDA_1V8*%
X137686497Y-99951000D02*
X138557000Y-99951000D01*
D29*
X133574500Y-100559600D02*
X133874000Y-100260100D01*
D31*
X137541000Y-99805503D02*
X137686497Y-99951000D01*
X140144000Y-99951000D02*
X138557000Y-99951000D01*
X140217000Y-99878000D02*
X140144000Y-99951000D01*
D29*
X133874000Y-100260100D02*
X133874000Y-99671000D01*
D31*
%TO.N,/SCL_1V8*%
X139119000Y-100528000D02*
X138557000Y-101090000D01*
X138465480Y-100998480D02*
X138557000Y-101090000D01*
D29*
X134074511Y-101473000D02*
X134274000Y-101273511D01*
D31*
X137810950Y-100767860D02*
X138041570Y-100998480D01*
X140217000Y-100528000D02*
X139119000Y-100528000D01*
X138041570Y-100998480D02*
X138465480Y-100998480D01*
D29*
X134274000Y-101273511D02*
X134274000Y-99671000D01*
D31*
%TO.N,Net-(R6-Pad2)*%
X125066000Y-105254000D02*
X126240000Y-106428000D01*
X126240000Y-106428000D02*
X127000000Y-106428000D01*
X127000000Y-106428000D02*
X128776286Y-106428000D01*
X128776286Y-106428000D02*
X130739286Y-104465000D01*
X130739286Y-104465000D02*
X131581000Y-104465000D01*
X125066000Y-102146000D02*
X125066000Y-105254000D01*
%TO.N,Net-(R7-Pad2)*%
X131581000Y-103815000D02*
X129847000Y-103815000D01*
X128066000Y-103809000D02*
X128072000Y-103815000D01*
X129147000Y-103815000D02*
X128822000Y-104140000D01*
X128072000Y-103815000D02*
X128397000Y-104140000D01*
X129847000Y-103815000D02*
X129147000Y-103815000D01*
X128822000Y-104140000D02*
X128397000Y-104140000D01*
X128066000Y-102146000D02*
X128066000Y-103809000D01*
D29*
%TO.N,/P_SDA_1V8*%
X135173531Y-100756531D02*
X135074000Y-100657000D01*
X135173531Y-102062020D02*
X135173531Y-100756531D01*
X135473511Y-102362000D02*
X135173531Y-102062020D01*
D31*
X134520046Y-104465000D02*
X135881000Y-104465000D01*
X135881000Y-104465000D02*
X137102000Y-104465000D01*
D29*
X135074000Y-100657000D02*
X135074000Y-99671000D01*
D31*
X134131944Y-104076898D02*
X134520046Y-104465000D01*
X137102000Y-104465000D02*
X137539000Y-104902000D01*
D29*
%TO.N,/P_SCL_1V8*%
X132334000Y-96647000D02*
X133850000Y-96647000D01*
D31*
X137483000Y-103815000D02*
X137539000Y-103759000D01*
X135881000Y-103815000D02*
X134930000Y-103815000D01*
X134930000Y-103815000D02*
X134239000Y-103124000D01*
X135881000Y-103815000D02*
X137483000Y-103815000D01*
D29*
X133850000Y-96647000D02*
X133874000Y-96671000D01*
D31*
X134239000Y-103124000D02*
X133731000Y-103124000D01*
%TO.N,Net-(R1-Pad1)*%
X141478000Y-102487000D02*
X142819499Y-101145501D01*
X142819499Y-101145501D02*
X143276455Y-101145501D01*
X143276455Y-101145501D02*
X143893956Y-100528000D01*
X143893956Y-100528000D02*
X144517000Y-100528000D01*
%TO.N,Net-(R11-Pad1)*%
X143693000Y-99878000D02*
X144517000Y-99878000D01*
X143258000Y-99443000D02*
X143693000Y-99878000D01*
X143258000Y-97663000D02*
X143258000Y-99443000D01*
%TO.N,Net-(JP2-Pad2)*%
X123825000Y-102870000D02*
X124206000Y-102489000D01*
X124168000Y-100546000D02*
X124206000Y-100584000D01*
X123616000Y-100546000D02*
X124168000Y-100546000D01*
X124206000Y-100584000D02*
X124206000Y-102489000D01*
%TO.N,Net-(JP2-Pad3)*%
X124032458Y-104904000D02*
X124316500Y-104619958D01*
X123317000Y-104904000D02*
X124032458Y-104904000D01*
%TD*%
%TA.AperFunction,Conductor*%
%TO.N,GND*%
G36*
X137068712Y-97490407D02*
G01*
X137080525Y-97500496D01*
X137255504Y-97675475D01*
X137283281Y-97729992D01*
X137284500Y-97745479D01*
X137284500Y-97969895D01*
X137284501Y-97969907D01*
X137291027Y-98019486D01*
X137291027Y-98019488D01*
X137341774Y-98128313D01*
X137341775Y-98128314D01*
X137341776Y-98128316D01*
X137426684Y-98213224D01*
X137535513Y-98263972D01*
X137585099Y-98270500D01*
X138004900Y-98270499D01*
X138004903Y-98270498D01*
X138008130Y-98270287D01*
X138008207Y-98271467D01*
X138063937Y-98281789D01*
X138095250Y-98308530D01*
X138105781Y-98322254D01*
X138105783Y-98322256D01*
X138105787Y-98322261D01*
X138166446Y-98368806D01*
X138201100Y-98419228D01*
X138199499Y-98480392D01*
X138176181Y-98517349D01*
X138092935Y-98600595D01*
X138092933Y-98600598D01*
X138042932Y-98707824D01*
X138042932Y-98707825D01*
X138040471Y-98726517D01*
X138036500Y-98756684D01*
X138036500Y-99105316D01*
X138042932Y-99154173D01*
X138073861Y-99220500D01*
X138074946Y-99222826D01*
X138082402Y-99283555D01*
X138052739Y-99337069D01*
X137997286Y-99362927D01*
X137937225Y-99351252D01*
X137924954Y-99343207D01*
X137890270Y-99316593D01*
X137843841Y-99280967D01*
X137843840Y-99280966D01*
X137843838Y-99280965D01*
X137697766Y-99220460D01*
X137697758Y-99220458D01*
X137541001Y-99199821D01*
X137540999Y-99199821D01*
X137384241Y-99220458D01*
X137384233Y-99220460D01*
X137238161Y-99280965D01*
X137238160Y-99280965D01*
X137112723Y-99377216D01*
X137112713Y-99377226D01*
X137016462Y-99502663D01*
X137016462Y-99502664D01*
X136955957Y-99648736D01*
X136955955Y-99648744D01*
X136935318Y-99805502D01*
X136935318Y-99805503D01*
X136955955Y-99962261D01*
X136955957Y-99962269D01*
X137016462Y-100108341D01*
X137016462Y-100108342D01*
X137110287Y-100230617D01*
X137112718Y-100233785D01*
X137112722Y-100233788D01*
X137112723Y-100233789D01*
X137238157Y-100330038D01*
X137243780Y-100333284D01*
X137242759Y-100335051D01*
X137282222Y-100368756D01*
X137296506Y-100428250D01*
X137287183Y-100458315D01*
X137288897Y-100459025D01*
X137286414Y-100465018D01*
X137286414Y-100465019D01*
X137243092Y-100569607D01*
X137225907Y-100611096D01*
X137225905Y-100611101D01*
X137205268Y-100767859D01*
X137205268Y-100767860D01*
X137225905Y-100924618D01*
X137225907Y-100924626D01*
X137286412Y-101070698D01*
X137286412Y-101070699D01*
X137364118Y-101171967D01*
X137382668Y-101196142D01*
X137382672Y-101196145D01*
X137382673Y-101196146D01*
X137405712Y-101213824D01*
X137508109Y-101292396D01*
X137508110Y-101292396D01*
X137508111Y-101292397D01*
X137652768Y-101352316D01*
X137654188Y-101352904D01*
X137766932Y-101367747D01*
X137810949Y-101373542D01*
X137810950Y-101373542D01*
X137810951Y-101373542D01*
X137974146Y-101352057D01*
X137974317Y-101353361D01*
X137989445Y-101352316D01*
X137989409Y-101351436D01*
X137993484Y-101351267D01*
X137995692Y-101351884D01*
X138001000Y-101351518D01*
X138005757Y-101352111D01*
X138005445Y-101354612D01*
X138052408Y-101367747D01*
X138087310Y-101408342D01*
X138092933Y-101420401D01*
X138092934Y-101420402D01*
X138092935Y-101420404D01*
X138176596Y-101504065D01*
X138176597Y-101504065D01*
X138176598Y-101504066D01*
X138189915Y-101510276D01*
X138234663Y-101552005D01*
X138246337Y-101612066D01*
X138220478Y-101667518D01*
X138189915Y-101689724D01*
X138176598Y-101695933D01*
X138092933Y-101779598D01*
X138042932Y-101886824D01*
X138042932Y-101886825D01*
X138041030Y-101901276D01*
X138036760Y-101933713D01*
X138036500Y-101935685D01*
X138036500Y-102140637D01*
X138017593Y-102198828D01*
X137968093Y-102234792D01*
X137921208Y-102238287D01*
X137909263Y-102236294D01*
X137901954Y-102235383D01*
X137901953Y-102235383D01*
X137898252Y-102235536D01*
X137894296Y-102234428D01*
X137893816Y-102234369D01*
X137893824Y-102234296D01*
X137839331Y-102219045D01*
X137824165Y-102206624D01*
X137782316Y-102164776D01*
X137782313Y-102164774D01*
X137673489Y-102114029D01*
X137673488Y-102114028D01*
X137656958Y-102111852D01*
X137623901Y-102107500D01*
X137623899Y-102107500D01*
X137204103Y-102107500D01*
X137204092Y-102107501D01*
X137154513Y-102114027D01*
X137154511Y-102114027D01*
X137045686Y-102164774D01*
X136960774Y-102249686D01*
X136910029Y-102358510D01*
X136910028Y-102358511D01*
X136903500Y-102408100D01*
X136903500Y-102561810D01*
X136884593Y-102620001D01*
X136874504Y-102631813D01*
X136720815Y-102785503D01*
X136666298Y-102813281D01*
X136650811Y-102814500D01*
X136596682Y-102814500D01*
X136541680Y-102797815D01*
X136509233Y-102776134D01*
X136509231Y-102776133D01*
X136509228Y-102776132D01*
X136509227Y-102776132D01*
X136450758Y-102764501D01*
X136450748Y-102764500D01*
X136450747Y-102764500D01*
X136104931Y-102764500D01*
X136046740Y-102745593D01*
X136010776Y-102696093D01*
X136010776Y-102634907D01*
X136013467Y-102627614D01*
X136025396Y-102598814D01*
X136058555Y-102518762D01*
X136079193Y-102362000D01*
X136058555Y-102205238D01*
X136003753Y-102072935D01*
X135998048Y-102059161D01*
X135998048Y-102059160D01*
X135901797Y-101933723D01*
X135901796Y-101933722D01*
X135901793Y-101933718D01*
X135901788Y-101933714D01*
X135901787Y-101933713D01*
X135817882Y-101869331D01*
X135776352Y-101837464D01*
X135776351Y-101837463D01*
X135776349Y-101837462D01*
X135630273Y-101776956D01*
X135560108Y-101767718D01*
X135504883Y-101741376D01*
X135475689Y-101687605D01*
X135474031Y-101669565D01*
X135474031Y-100821699D01*
X135476262Y-100808026D01*
X135475036Y-100807855D01*
X135476304Y-100798763D01*
X135474137Y-100751888D01*
X135474031Y-100747316D01*
X135474031Y-100728691D01*
X135474031Y-100728687D01*
X135474009Y-100728573D01*
X135472429Y-100714961D01*
X135471116Y-100686539D01*
X135467146Y-100677548D01*
X135460395Y-100655746D01*
X135458592Y-100646099D01*
X135458592Y-100646098D01*
X135443616Y-100621910D01*
X135437229Y-100609793D01*
X135425737Y-100583766D01*
X135425736Y-100583764D01*
X135418787Y-100576815D01*
X135404621Y-100558930D01*
X135394621Y-100542779D01*
X135395983Y-100541935D01*
X135375107Y-100495803D01*
X135374500Y-100484856D01*
X135374500Y-99421327D01*
X135374498Y-99421315D01*
X135364983Y-99373483D01*
X135359966Y-99348260D01*
X135355116Y-99341001D01*
X135338508Y-99282112D01*
X135359686Y-99224709D01*
X135410560Y-99190717D01*
X135437432Y-99187000D01*
X135510568Y-99187000D01*
X135568759Y-99205907D01*
X135604723Y-99255407D01*
X135604723Y-99316593D01*
X135592884Y-99341001D01*
X135588035Y-99348257D01*
X135588033Y-99348263D01*
X135573501Y-99421315D01*
X135573500Y-99421327D01*
X135573500Y-99920672D01*
X135573501Y-99920684D01*
X135588033Y-99993736D01*
X135588035Y-99993742D01*
X135643397Y-100076599D01*
X135643400Y-100076602D01*
X135709155Y-100120537D01*
X135726260Y-100131966D01*
X135781808Y-100143015D01*
X135799315Y-100146498D01*
X135799320Y-100146498D01*
X135799326Y-100146500D01*
X135799327Y-100146500D01*
X135948673Y-100146500D01*
X135948674Y-100146500D01*
X136021740Y-100131966D01*
X136104601Y-100076601D01*
X136159966Y-99993740D01*
X136174500Y-99920674D01*
X136174500Y-99421326D01*
X136159966Y-99348260D01*
X136138807Y-99316593D01*
X136104602Y-99265400D01*
X136104600Y-99265398D01*
X136093970Y-99258296D01*
X136085769Y-99252816D01*
X136047890Y-99204767D01*
X136045486Y-99143629D01*
X136079478Y-99092755D01*
X136136881Y-99071576D01*
X136140770Y-99071500D01*
X136623673Y-99071500D01*
X136623674Y-99071500D01*
X136696740Y-99056966D01*
X136779601Y-99001601D01*
X136834966Y-98918740D01*
X136849500Y-98845674D01*
X136849500Y-98696326D01*
X136834966Y-98623260D01*
X136834962Y-98623255D01*
X136831233Y-98614248D01*
X136833248Y-98613413D01*
X136820189Y-98567120D01*
X136832773Y-98528389D01*
X136831233Y-98527752D01*
X136834961Y-98518746D01*
X136834966Y-98518740D01*
X136849500Y-98445674D01*
X136849500Y-98296326D01*
X136834966Y-98223260D01*
X136834962Y-98223255D01*
X136831233Y-98214248D01*
X136833248Y-98213413D01*
X136820189Y-98167120D01*
X136832773Y-98128389D01*
X136831233Y-98127752D01*
X136834961Y-98118746D01*
X136834966Y-98118740D01*
X136849500Y-98045674D01*
X136849500Y-97896326D01*
X136834966Y-97823260D01*
X136834962Y-97823255D01*
X136831233Y-97814248D01*
X136833248Y-97813413D01*
X136820189Y-97767120D01*
X136832773Y-97728389D01*
X136831233Y-97727752D01*
X136834961Y-97718746D01*
X136834966Y-97718740D01*
X136849500Y-97645674D01*
X136849500Y-97570500D01*
X136868407Y-97512309D01*
X136917907Y-97476345D01*
X136948500Y-97471500D01*
X137010521Y-97471500D01*
X137068712Y-97490407D01*
G37*
%TD.AperFunction*%
%TA.AperFunction,Conductor*%
G36*
X140822872Y-98794407D02*
G01*
X140856145Y-98836615D01*
X140893404Y-98926567D01*
X140893404Y-98926568D01*
X140985188Y-99046183D01*
X140989660Y-99052011D01*
X141115101Y-99148265D01*
X141115102Y-99148265D01*
X141115103Y-99148266D01*
X141252508Y-99205181D01*
X141261180Y-99208773D01*
X141367924Y-99222826D01*
X141417941Y-99229411D01*
X141417942Y-99229411D01*
X141417943Y-99229411D01*
X141467960Y-99222826D01*
X141574704Y-99208773D01*
X141720783Y-99148265D01*
X141739331Y-99134031D01*
X141763608Y-99120347D01*
X141786897Y-99111261D01*
X141853516Y-99054836D01*
X141910139Y-99031655D01*
X141969575Y-99046183D01*
X142009119Y-99092873D01*
X142016500Y-99130381D01*
X142016500Y-99648853D01*
X141997593Y-99707044D01*
X141987504Y-99718857D01*
X141401118Y-100305242D01*
X141385265Y-100318115D01*
X141375335Y-100324603D01*
X141375332Y-100324605D01*
X141356548Y-100348739D01*
X141348437Y-100357924D01*
X141347627Y-100358733D01*
X141347619Y-100358742D01*
X141336133Y-100374830D01*
X141333690Y-100378107D01*
X141303482Y-100416918D01*
X141299981Y-100423387D01*
X141296758Y-100429981D01*
X141287132Y-100462311D01*
X141262253Y-100504062D01*
X141136504Y-100629812D01*
X141081987Y-100657590D01*
X141021555Y-100648019D01*
X140978291Y-100604754D01*
X140967500Y-100559809D01*
X140967500Y-100308253D01*
X140967500Y-100308252D01*
X140955867Y-100249769D01*
X140955864Y-100249765D01*
X140952187Y-100240887D01*
X140947386Y-100179890D01*
X140952187Y-100165113D01*
X140955863Y-100156236D01*
X140955867Y-100156231D01*
X140967500Y-100097748D01*
X140967500Y-99658252D01*
X140955867Y-99599769D01*
X140911552Y-99533448D01*
X140907477Y-99530725D01*
X140845233Y-99489134D01*
X140845231Y-99489133D01*
X140845228Y-99489132D01*
X140845227Y-99489132D01*
X140786758Y-99477501D01*
X140786748Y-99477500D01*
X139647252Y-99477500D01*
X139647251Y-99477500D01*
X139647241Y-99477501D01*
X139588772Y-99489132D01*
X139588766Y-99489134D01*
X139522451Y-99533445D01*
X139522444Y-99533452D01*
X139507042Y-99556503D01*
X139458992Y-99594382D01*
X139424728Y-99600500D01*
X139041977Y-99600500D01*
X138983786Y-99581593D01*
X138971974Y-99571504D01*
X138937404Y-99536935D01*
X138933432Y-99535083D01*
X138924085Y-99530724D01*
X138879337Y-99488997D01*
X138867662Y-99428936D01*
X138893519Y-99373483D01*
X138924084Y-99351275D01*
X138937404Y-99345065D01*
X139021065Y-99261404D01*
X139071068Y-99154173D01*
X139077500Y-99105316D01*
X139077500Y-98947190D01*
X139096407Y-98888999D01*
X139106496Y-98877186D01*
X139179186Y-98804496D01*
X139233703Y-98776719D01*
X139249190Y-98775500D01*
X140764681Y-98775500D01*
X140822872Y-98794407D01*
G37*
%TD.AperFunction*%
%TA.AperFunction,Conductor*%
G36*
X151124691Y-93215407D02*
G01*
X151160655Y-93264907D01*
X151165500Y-93295500D01*
X151165500Y-107096500D01*
X151146593Y-107154691D01*
X151097093Y-107190655D01*
X151066500Y-107195500D01*
X145209188Y-107195500D01*
X145150997Y-107176593D01*
X145115033Y-107127093D01*
X145115033Y-107065907D01*
X145139182Y-107026498D01*
X145172186Y-106993494D01*
X145226701Y-106965719D01*
X145242188Y-106964500D01*
X146097381Y-106964500D01*
X146117696Y-106966607D01*
X146119606Y-106967007D01*
X146129315Y-106969043D01*
X146159662Y-106965259D01*
X146171907Y-106964500D01*
X146173043Y-106964500D01*
X146192521Y-106961249D01*
X146196552Y-106960661D01*
X146245393Y-106954573D01*
X146245396Y-106954571D01*
X146252429Y-106952477D01*
X146259375Y-106950092D01*
X146259381Y-106950092D01*
X146302655Y-106926671D01*
X146306279Y-106924807D01*
X146350482Y-106903199D01*
X146350482Y-106903198D01*
X146350484Y-106903198D01*
X146350485Y-106903196D01*
X146356470Y-106898923D01*
X146362255Y-106894420D01*
X146362255Y-106894419D01*
X146362258Y-106894418D01*
X146395578Y-106858220D01*
X146398389Y-106855292D01*
X146669187Y-106584495D01*
X146723703Y-106556718D01*
X146739190Y-106555499D01*
X146892897Y-106555499D01*
X146892900Y-106555499D01*
X146942487Y-106548972D01*
X146942488Y-106548972D01*
X147001137Y-106521622D01*
X147051316Y-106498224D01*
X147136224Y-106413316D01*
X147186972Y-106304487D01*
X147193500Y-106254901D01*
X147193499Y-105835100D01*
X147186972Y-105785513D01*
X147186972Y-105785511D01*
X147136225Y-105676686D01*
X147136223Y-105676683D01*
X147092496Y-105632955D01*
X147064719Y-105578438D01*
X147063500Y-105562952D01*
X147063500Y-104981613D01*
X147065607Y-104961297D01*
X147068042Y-104949685D01*
X147064260Y-104919342D01*
X147063500Y-104907098D01*
X147063500Y-104905959D01*
X147062933Y-104902565D01*
X147060243Y-104886447D01*
X147059658Y-104882429D01*
X147059539Y-104881472D01*
X147053573Y-104833607D01*
X147053571Y-104833604D01*
X147051477Y-104826569D01*
X147049090Y-104819614D01*
X147025687Y-104776371D01*
X147023792Y-104772688D01*
X147023688Y-104772475D01*
X147015147Y-104711889D01*
X147042644Y-104659036D01*
X150201884Y-101499796D01*
X150217734Y-101486926D01*
X150227669Y-101480437D01*
X150246451Y-101456303D01*
X150254577Y-101447104D01*
X150255375Y-101446307D01*
X150266857Y-101430223D01*
X150269290Y-101426961D01*
X150272959Y-101422247D01*
X150299517Y-101388126D01*
X150299517Y-101388123D01*
X150303014Y-101381662D01*
X150306239Y-101375067D01*
X150308418Y-101367747D01*
X150320281Y-101327896D01*
X150321512Y-101324054D01*
X150337500Y-101277488D01*
X150337500Y-101277484D01*
X150338706Y-101270259D01*
X150339617Y-101262954D01*
X150337585Y-101213824D01*
X150337500Y-101209733D01*
X150337500Y-99106618D01*
X150339607Y-99086302D01*
X150339617Y-99086253D01*
X150342043Y-99074685D01*
X150338260Y-99044336D01*
X150337500Y-99032092D01*
X150337500Y-99030959D01*
X150334249Y-99011478D01*
X150333659Y-99007430D01*
X150327573Y-98958607D01*
X150327572Y-98958605D01*
X150327572Y-98958603D01*
X150325479Y-98951575D01*
X150323091Y-98944616D01*
X150299687Y-98901371D01*
X150297813Y-98897730D01*
X150276199Y-98853517D01*
X150271948Y-98847562D01*
X150267419Y-98841743D01*
X150264583Y-98839132D01*
X150231221Y-98808420D01*
X150228294Y-98805612D01*
X149528801Y-98106119D01*
X149515925Y-98090262D01*
X149509437Y-98080331D01*
X149485308Y-98061551D01*
X149476119Y-98053437D01*
X149475307Y-98052625D01*
X149459225Y-98041143D01*
X149455961Y-98038710D01*
X149417126Y-98008483D01*
X149417124Y-98008482D01*
X149410677Y-98004993D01*
X149404070Y-98001763D01*
X149404066Y-98001760D01*
X149356909Y-97987720D01*
X149353015Y-97986472D01*
X149306487Y-97970499D01*
X149299260Y-97969293D01*
X149291955Y-97968383D01*
X149291954Y-97968383D01*
X149291952Y-97968383D01*
X149242824Y-97970415D01*
X149238733Y-97970500D01*
X148030188Y-97970500D01*
X147971997Y-97951593D01*
X147960190Y-97941509D01*
X147900483Y-97881802D01*
X147900481Y-97881801D01*
X147795395Y-97830427D01*
X147768139Y-97826456D01*
X147727260Y-97820500D01*
X147727257Y-97820500D01*
X147543500Y-97820500D01*
X147485309Y-97801593D01*
X147449345Y-97752093D01*
X147444500Y-97721500D01*
X147444500Y-95019862D01*
X147445122Y-95008779D01*
X147449270Y-94971965D01*
X147439468Y-94920161D01*
X147438553Y-94915326D01*
X147437933Y-94911675D01*
X147432485Y-94875530D01*
X147429348Y-94854713D01*
X147429346Y-94854709D01*
X147427160Y-94847622D01*
X147427582Y-94847491D01*
X147426890Y-94845388D01*
X147426474Y-94845534D01*
X147424022Y-94838526D01*
X147409408Y-94810876D01*
X147397071Y-94787533D01*
X147395444Y-94784312D01*
X147370425Y-94732358D01*
X147370423Y-94732356D01*
X147366247Y-94726230D01*
X147366610Y-94725982D01*
X147365324Y-94724168D01*
X147364970Y-94724430D01*
X147360567Y-94718465D01*
X147360566Y-94718462D01*
X147341989Y-94699885D01*
X147319799Y-94677694D01*
X147317230Y-94675027D01*
X147278059Y-94632810D01*
X147278057Y-94632809D01*
X147278055Y-94632806D01*
X147278051Y-94632803D01*
X147272259Y-94628185D01*
X147272533Y-94627840D01*
X147261400Y-94619296D01*
X147022496Y-94380392D01*
X146994719Y-94325875D01*
X146993500Y-94310388D01*
X146993500Y-94118253D01*
X146993498Y-94118241D01*
X146986264Y-94081875D01*
X146981867Y-94059769D01*
X146937552Y-93993448D01*
X146872885Y-93950238D01*
X146871233Y-93949134D01*
X146871231Y-93949133D01*
X146871228Y-93949132D01*
X146871227Y-93949132D01*
X146812758Y-93937501D01*
X146812748Y-93937500D01*
X146173252Y-93937500D01*
X146173251Y-93937500D01*
X146173241Y-93937501D01*
X146114772Y-93949132D01*
X146114766Y-93949134D01*
X146048451Y-93993445D01*
X146048445Y-93993451D01*
X146004134Y-94059766D01*
X146004132Y-94059772D01*
X145992501Y-94118241D01*
X145992500Y-94118253D01*
X145992500Y-94857746D01*
X145992501Y-94857758D01*
X146004132Y-94916227D01*
X146004134Y-94916233D01*
X146041372Y-94971962D01*
X146048448Y-94982552D01*
X146114769Y-95026867D01*
X146159231Y-95035711D01*
X146173241Y-95038498D01*
X146173246Y-95038498D01*
X146173252Y-95038500D01*
X146365389Y-95038500D01*
X146423580Y-95057407D01*
X146435392Y-95067496D01*
X146514503Y-95146606D01*
X146542281Y-95201122D01*
X146543500Y-95216610D01*
X146543500Y-97721500D01*
X146524593Y-97779691D01*
X146475093Y-97815655D01*
X146444500Y-97820500D01*
X146260740Y-97820500D01*
X146226673Y-97825463D01*
X146192604Y-97830427D01*
X146087518Y-97881801D01*
X146087517Y-97881801D01*
X146087517Y-97881802D01*
X146027813Y-97941505D01*
X145973299Y-97969281D01*
X145957812Y-97970500D01*
X145723190Y-97970500D01*
X145664999Y-97951593D01*
X145653186Y-97941504D01*
X144551142Y-96839460D01*
X144523365Y-96784943D01*
X144522993Y-96756539D01*
X144526500Y-96729901D01*
X144526499Y-96310100D01*
X144519972Y-96260513D01*
X144519972Y-96260511D01*
X144469225Y-96151686D01*
X144469223Y-96151683D01*
X144425496Y-96107955D01*
X144397719Y-96053438D01*
X144396500Y-96037952D01*
X144396500Y-95903613D01*
X144398607Y-95883297D01*
X144401042Y-95871685D01*
X144397260Y-95841342D01*
X144396500Y-95829098D01*
X144396500Y-95677586D01*
X144396838Y-95669412D01*
X144398819Y-95645500D01*
X144400132Y-95629656D01*
X144399949Y-95628933D01*
X144400003Y-95628113D01*
X144399454Y-95621483D01*
X144400447Y-95621400D01*
X144403989Y-95567884D01*
X144425913Y-95534626D01*
X144469224Y-95491316D01*
X144519972Y-95382487D01*
X144526500Y-95332901D01*
X144526499Y-94913100D01*
X144519972Y-94863513D01*
X144519972Y-94863511D01*
X144469225Y-94754686D01*
X144469224Y-94754685D01*
X144469224Y-94754684D01*
X144384316Y-94669776D01*
X144384314Y-94669775D01*
X144384313Y-94669774D01*
X144275489Y-94619029D01*
X144275488Y-94619028D01*
X144258958Y-94616852D01*
X144225901Y-94612500D01*
X144225899Y-94612500D01*
X143866104Y-94612500D01*
X143866092Y-94612501D01*
X143816513Y-94619027D01*
X143816511Y-94619027D01*
X143707686Y-94669774D01*
X143707682Y-94669777D01*
X143700072Y-94677387D01*
X143645554Y-94705163D01*
X143585123Y-94695589D01*
X143560067Y-94677385D01*
X142607792Y-93725110D01*
X142582180Y-93674843D01*
X142581841Y-93674949D01*
X142581234Y-93672987D01*
X142580015Y-93670593D01*
X142579858Y-93669563D01*
X142579573Y-93667607D01*
X142576356Y-93661027D01*
X142555110Y-93617567D01*
X142528198Y-93562517D01*
X142445483Y-93479802D01*
X142445481Y-93479801D01*
X142340395Y-93428427D01*
X142313139Y-93424456D01*
X142272260Y-93418500D01*
X141180740Y-93418500D01*
X141146673Y-93423463D01*
X141112604Y-93428427D01*
X141007518Y-93479801D01*
X140924801Y-93562518D01*
X140873427Y-93667604D01*
X140871807Y-93678723D01*
X140863500Y-93735740D01*
X140863500Y-94102260D01*
X140868576Y-94137100D01*
X140873427Y-94170395D01*
X140904287Y-94233519D01*
X140924802Y-94275483D01*
X141007517Y-94358198D01*
X141020386Y-94364489D01*
X141112604Y-94409572D01*
X141112605Y-94409572D01*
X141112607Y-94409573D01*
X141180740Y-94419500D01*
X141180743Y-94419500D01*
X142269810Y-94419500D01*
X142328001Y-94438407D01*
X142339814Y-94448496D01*
X143190814Y-95299496D01*
X143218591Y-95354013D01*
X143209020Y-95414445D01*
X143165755Y-95457710D01*
X143120810Y-95468500D01*
X142575188Y-95468500D01*
X142516997Y-95449593D01*
X142505190Y-95439509D01*
X142445483Y-95379802D01*
X142445481Y-95379801D01*
X142340395Y-95328427D01*
X142313139Y-95324456D01*
X142272260Y-95318500D01*
X141180740Y-95318500D01*
X141146673Y-95323463D01*
X141112604Y-95328427D01*
X141007518Y-95379801D01*
X140924801Y-95462518D01*
X140873427Y-95567604D01*
X140870616Y-95586900D01*
X140863500Y-95635740D01*
X140863500Y-96002260D01*
X140868413Y-96035978D01*
X140873427Y-96070395D01*
X140913167Y-96151683D01*
X140924802Y-96175483D01*
X141007517Y-96258198D01*
X141055027Y-96281424D01*
X141112604Y-96309572D01*
X141112605Y-96309572D01*
X141112607Y-96309573D01*
X141180740Y-96319500D01*
X141180743Y-96319500D01*
X142272257Y-96319500D01*
X142272260Y-96319500D01*
X142340393Y-96309573D01*
X142445483Y-96258198D01*
X142505186Y-96198494D01*
X142559701Y-96170719D01*
X142575188Y-96169500D01*
X143471123Y-96169500D01*
X143529314Y-96188407D01*
X143565278Y-96237907D01*
X143569275Y-96281419D01*
X143565501Y-96310092D01*
X143565500Y-96310101D01*
X143565500Y-96729896D01*
X143565501Y-96729907D01*
X143572027Y-96779486D01*
X143572027Y-96779488D01*
X143622774Y-96888313D01*
X143622776Y-96888316D01*
X143707680Y-96973221D01*
X143714406Y-96977930D01*
X143746568Y-97015549D01*
X143756802Y-97036484D01*
X143761078Y-97042472D01*
X143765581Y-97048258D01*
X143801764Y-97081567D01*
X143804717Y-97084399D01*
X145256199Y-98535881D01*
X145269074Y-98551737D01*
X145275563Y-98561669D01*
X145299690Y-98580448D01*
X145308877Y-98588560D01*
X145309689Y-98589371D01*
X145309693Y-98589375D01*
X145325794Y-98600870D01*
X145329055Y-98603303D01*
X145367874Y-98633517D01*
X145374323Y-98637007D01*
X145380930Y-98640237D01*
X145380933Y-98640239D01*
X145380935Y-98640239D01*
X145380936Y-98640240D01*
X145428058Y-98654269D01*
X145431955Y-98655517D01*
X145452227Y-98662476D01*
X145478512Y-98671500D01*
X145478514Y-98671500D01*
X145485736Y-98672705D01*
X145493039Y-98673615D01*
X145493046Y-98673617D01*
X145542176Y-98671585D01*
X145546267Y-98671500D01*
X145957812Y-98671500D01*
X146016003Y-98690407D01*
X146027809Y-98700490D01*
X146087517Y-98760198D01*
X146141285Y-98786483D01*
X146192604Y-98811572D01*
X146192605Y-98811572D01*
X146192607Y-98811573D01*
X146260740Y-98821500D01*
X146260743Y-98821500D01*
X147727257Y-98821500D01*
X147727260Y-98821500D01*
X147795393Y-98811573D01*
X147900483Y-98760198D01*
X147960186Y-98700494D01*
X148014701Y-98672719D01*
X148030188Y-98671500D01*
X149061810Y-98671500D01*
X149120001Y-98690407D01*
X149131813Y-98700496D01*
X149607503Y-99176185D01*
X149635281Y-99230702D01*
X149636500Y-99246189D01*
X149636500Y-101032810D01*
X149617593Y-101091001D01*
X149607504Y-101102814D01*
X146375814Y-104334504D01*
X146321297Y-104362281D01*
X146305810Y-104363500D01*
X145242188Y-104363500D01*
X145183997Y-104344593D01*
X145172190Y-104334509D01*
X145112483Y-104274802D01*
X145088307Y-104262983D01*
X145007395Y-104223427D01*
X144980139Y-104219456D01*
X144939260Y-104213500D01*
X143847740Y-104213500D01*
X143813673Y-104218463D01*
X143779604Y-104223427D01*
X143674518Y-104274801D01*
X143591801Y-104357518D01*
X143540427Y-104462604D01*
X143537809Y-104480573D01*
X143530500Y-104530740D01*
X143530500Y-104897260D01*
X143534860Y-104927182D01*
X143540427Y-104965395D01*
X143577902Y-105042050D01*
X143591802Y-105070483D01*
X143674517Y-105153198D01*
X143719468Y-105175173D01*
X143779604Y-105204572D01*
X143779605Y-105204572D01*
X143779607Y-105204573D01*
X143847740Y-105214500D01*
X143847743Y-105214500D01*
X144939257Y-105214500D01*
X144939260Y-105214500D01*
X145007393Y-105204573D01*
X145112483Y-105153198D01*
X145172186Y-105093494D01*
X145226701Y-105065719D01*
X145242188Y-105064500D01*
X145544512Y-105064500D01*
X145930512Y-105064500D01*
X146263500Y-105064500D01*
X146321691Y-105083407D01*
X146357655Y-105132907D01*
X146362500Y-105163500D01*
X146362500Y-105562952D01*
X146343593Y-105621143D01*
X146333504Y-105632955D01*
X146289776Y-105676683D01*
X146289774Y-105676686D01*
X146239029Y-105785510D01*
X146239028Y-105785511D01*
X146232500Y-105835100D01*
X146232500Y-105988810D01*
X146213593Y-106047001D01*
X146203504Y-106058813D01*
X146027815Y-106234503D01*
X145973298Y-106262281D01*
X145957811Y-106263500D01*
X145242188Y-106263500D01*
X145183997Y-106244593D01*
X145172190Y-106234509D01*
X145112483Y-106174802D01*
X145112481Y-106174801D01*
X145007395Y-106123427D01*
X144980139Y-106119456D01*
X144939260Y-106113500D01*
X143847740Y-106113500D01*
X143813673Y-106118463D01*
X143779604Y-106123427D01*
X143674518Y-106174801D01*
X143591801Y-106257518D01*
X143540427Y-106362604D01*
X143540427Y-106362607D01*
X143530500Y-106430740D01*
X143530500Y-106797260D01*
X143537028Y-106842064D01*
X143540427Y-106865395D01*
X143584024Y-106954573D01*
X143591802Y-106970483D01*
X143647817Y-107026498D01*
X143675593Y-107081013D01*
X143666022Y-107141445D01*
X143622757Y-107184710D01*
X143577812Y-107195500D01*
X142934188Y-107195500D01*
X142875997Y-107176593D01*
X142840033Y-107127093D01*
X142840033Y-107065907D01*
X142864182Y-107026498D01*
X142920198Y-106970483D01*
X142971573Y-106865393D01*
X142981500Y-106797260D01*
X142981500Y-106430740D01*
X142971573Y-106362607D01*
X142920198Y-106257517D01*
X142837483Y-106174802D01*
X142837481Y-106174801D01*
X142732395Y-106123427D01*
X142705139Y-106119456D01*
X142664260Y-106113500D01*
X141572740Y-106113500D01*
X141538673Y-106118463D01*
X141504604Y-106123427D01*
X141399518Y-106174801D01*
X141316801Y-106257518D01*
X141265427Y-106362604D01*
X141265427Y-106362607D01*
X141255500Y-106430740D01*
X141255500Y-106797260D01*
X141262028Y-106842064D01*
X141265427Y-106865395D01*
X141309024Y-106954573D01*
X141316802Y-106970483D01*
X141372817Y-107026498D01*
X141400593Y-107081013D01*
X141391022Y-107141445D01*
X141347757Y-107184710D01*
X141302812Y-107195500D01*
X122265500Y-107195500D01*
X122207309Y-107176593D01*
X122171345Y-107127093D01*
X122166500Y-107096500D01*
X122166500Y-100815746D01*
X122415500Y-100815746D01*
X122415501Y-100815758D01*
X122427132Y-100874227D01*
X122427134Y-100874233D01*
X122471445Y-100940548D01*
X122471448Y-100940552D01*
X122537769Y-100984867D01*
X122582231Y-100993711D01*
X122596241Y-100996498D01*
X122596246Y-100996498D01*
X122596252Y-100996500D01*
X123756500Y-100996500D01*
X123814691Y-101015407D01*
X123850655Y-101064907D01*
X123855500Y-101095500D01*
X123855500Y-102173481D01*
X123836593Y-102231672D01*
X123787093Y-102267636D01*
X123769423Y-102271634D01*
X123668240Y-102284955D01*
X123668233Y-102284957D01*
X123522161Y-102345462D01*
X123522160Y-102345462D01*
X123396723Y-102441713D01*
X123396713Y-102441723D01*
X123300462Y-102567160D01*
X123300462Y-102567161D01*
X123239957Y-102713233D01*
X123239955Y-102713241D01*
X123219318Y-102869999D01*
X123219318Y-102870000D01*
X123239955Y-103026758D01*
X123239957Y-103026766D01*
X123300462Y-103172838D01*
X123300462Y-103172839D01*
X123396713Y-103298276D01*
X123396718Y-103298282D01*
X123522159Y-103394536D01*
X123522160Y-103394536D01*
X123522161Y-103394537D01*
X123668233Y-103455042D01*
X123668238Y-103455044D01*
X123777724Y-103469458D01*
X123824999Y-103475682D01*
X123825000Y-103475682D01*
X123825001Y-103475682D01*
X123872276Y-103469458D01*
X123981762Y-103455044D01*
X124127841Y-103394536D01*
X124253282Y-103298282D01*
X124349536Y-103172841D01*
X124410044Y-103026762D01*
X124418347Y-102963693D01*
X124444688Y-102908469D01*
X124498459Y-102879274D01*
X124559121Y-102887260D01*
X124603503Y-102929377D01*
X124615500Y-102976616D01*
X124615500Y-103265746D01*
X124615501Y-103265758D01*
X124627132Y-103324227D01*
X124627134Y-103324233D01*
X124671445Y-103390548D01*
X124671448Y-103390552D01*
X124671501Y-103390587D01*
X124671564Y-103390667D01*
X124678343Y-103397446D01*
X124677540Y-103398248D01*
X124709381Y-103438637D01*
X124715500Y-103472903D01*
X124715500Y-103987088D01*
X124696593Y-104045279D01*
X124647093Y-104081243D01*
X124585907Y-104081243D01*
X124578615Y-104078552D01*
X124473266Y-104034915D01*
X124473258Y-104034913D01*
X124316501Y-104014276D01*
X124316499Y-104014276D01*
X124159741Y-104034913D01*
X124159733Y-104034915D01*
X124013661Y-104095420D01*
X124013660Y-104095420D01*
X123888223Y-104191671D01*
X123888213Y-104191681D01*
X123791963Y-104317118D01*
X123756236Y-104403370D01*
X123716499Y-104449896D01*
X123657004Y-104464179D01*
X123622933Y-104455208D01*
X123590175Y-104439932D01*
X123557601Y-104435644D01*
X123541316Y-104433500D01*
X123092684Y-104433500D01*
X123076398Y-104435644D01*
X123043825Y-104439932D01*
X123043824Y-104439932D01*
X122936598Y-104489933D01*
X122852933Y-104573598D01*
X122802932Y-104680824D01*
X122802932Y-104680825D01*
X122802932Y-104680827D01*
X122796500Y-104729684D01*
X122796500Y-105078316D01*
X122799308Y-105099646D01*
X122802932Y-105127174D01*
X122802932Y-105127175D01*
X122852933Y-105234401D01*
X122852934Y-105234402D01*
X122852935Y-105234404D01*
X122936596Y-105318065D01*
X122936597Y-105318065D01*
X122936598Y-105318066D01*
X123043824Y-105368067D01*
X123043825Y-105368067D01*
X123043827Y-105368068D01*
X123092684Y-105374500D01*
X123092685Y-105374500D01*
X123541314Y-105374500D01*
X123541316Y-105374500D01*
X123590173Y-105368068D01*
X123697404Y-105318065D01*
X123714689Y-105300780D01*
X123731974Y-105283496D01*
X123786491Y-105255719D01*
X123801977Y-105254500D01*
X123985839Y-105254500D01*
X124006154Y-105256607D01*
X124008064Y-105257007D01*
X124017773Y-105259043D01*
X124048120Y-105255259D01*
X124060365Y-105254500D01*
X124061501Y-105254500D01*
X124080979Y-105251249D01*
X124085010Y-105250661D01*
X124133851Y-105244573D01*
X124133854Y-105244571D01*
X124140887Y-105242477D01*
X124147833Y-105240092D01*
X124147839Y-105240092D01*
X124174094Y-105225882D01*
X124234136Y-105214796D01*
X124316500Y-105225640D01*
X124473262Y-105205002D01*
X124575168Y-105162790D01*
X124636164Y-105157990D01*
X124688333Y-105189959D01*
X124711292Y-105242008D01*
X124712371Y-105250658D01*
X124714740Y-105269661D01*
X124715500Y-105281907D01*
X124715500Y-105283042D01*
X124718751Y-105302528D01*
X124719337Y-105306547D01*
X124725157Y-105353224D01*
X124725427Y-105355393D01*
X124727527Y-105362448D01*
X124729907Y-105369380D01*
X124753322Y-105412646D01*
X124755195Y-105416285D01*
X124776801Y-105460482D01*
X124781078Y-105466472D01*
X124785581Y-105472258D01*
X124821764Y-105505567D01*
X124824717Y-105508399D01*
X125959199Y-106642881D01*
X125972074Y-106658737D01*
X125978563Y-106668669D01*
X126002690Y-106687448D01*
X126011877Y-106695560D01*
X126012690Y-106696372D01*
X126012694Y-106696376D01*
X126028784Y-106707864D01*
X126032048Y-106710298D01*
X126035421Y-106712923D01*
X126070874Y-106740517D01*
X126070875Y-106740517D01*
X126070876Y-106740518D01*
X126077337Y-106744014D01*
X126083934Y-106747240D01*
X126131102Y-106761282D01*
X126134964Y-106762520D01*
X126143100Y-106765313D01*
X126181512Y-106778500D01*
X126181514Y-106778500D01*
X126188733Y-106779705D01*
X126196039Y-106780615D01*
X126196046Y-106780617D01*
X126245186Y-106778584D01*
X126249276Y-106778500D01*
X126515023Y-106778500D01*
X126573214Y-106797407D01*
X126585026Y-106807496D01*
X126619595Y-106842064D01*
X126619598Y-106842066D01*
X126726824Y-106892067D01*
X126726825Y-106892067D01*
X126726827Y-106892068D01*
X126775684Y-106898500D01*
X126775685Y-106898500D01*
X127224314Y-106898500D01*
X127224316Y-106898500D01*
X127273173Y-106892068D01*
X127380404Y-106842065D01*
X127397689Y-106824780D01*
X127414974Y-106807496D01*
X127469491Y-106779719D01*
X127484977Y-106778500D01*
X128729667Y-106778500D01*
X128749982Y-106780607D01*
X128751892Y-106781007D01*
X128761601Y-106783043D01*
X128791948Y-106779259D01*
X128804193Y-106778500D01*
X128805329Y-106778500D01*
X128824807Y-106775249D01*
X128828838Y-106774661D01*
X128877679Y-106768573D01*
X128877682Y-106768571D01*
X128884715Y-106766477D01*
X128891661Y-106764092D01*
X128891667Y-106764092D01*
X128934941Y-106740671D01*
X128938565Y-106738807D01*
X128982768Y-106717199D01*
X128982768Y-106717198D01*
X128982770Y-106717198D01*
X128982771Y-106717196D01*
X128988756Y-106712923D01*
X128994541Y-106708420D01*
X128994541Y-106708419D01*
X128994544Y-106708418D01*
X129027865Y-106672220D01*
X129030650Y-106669316D01*
X130661496Y-105038471D01*
X130716013Y-105010694D01*
X130776445Y-105020265D01*
X130819710Y-105063530D01*
X130830500Y-105108475D01*
X130830500Y-105334746D01*
X130830501Y-105334758D01*
X130842132Y-105393227D01*
X130842134Y-105393233D01*
X130886445Y-105459548D01*
X130886448Y-105459552D01*
X130952769Y-105503867D01*
X130992244Y-105511719D01*
X131011241Y-105515498D01*
X131011246Y-105515498D01*
X131011252Y-105515500D01*
X131011253Y-105515500D01*
X132150747Y-105515500D01*
X132150748Y-105515500D01*
X132209231Y-105503867D01*
X132275552Y-105459552D01*
X132319867Y-105393231D01*
X132331500Y-105334748D01*
X132331500Y-104895252D01*
X132319867Y-104836769D01*
X132319864Y-104836765D01*
X132316187Y-104827887D01*
X132311386Y-104766890D01*
X132316187Y-104752113D01*
X132319863Y-104743236D01*
X132319867Y-104743231D01*
X132331500Y-104684748D01*
X132331500Y-104245252D01*
X132319867Y-104186769D01*
X132319864Y-104186765D01*
X132316187Y-104177887D01*
X132311386Y-104116890D01*
X132316187Y-104102113D01*
X132319863Y-104093236D01*
X132319867Y-104093231D01*
X132331500Y-104034748D01*
X132331500Y-103595252D01*
X132319867Y-103536769D01*
X132319864Y-103536765D01*
X132316187Y-103527887D01*
X132311386Y-103466890D01*
X132316187Y-103452113D01*
X132319863Y-103443236D01*
X132319867Y-103443231D01*
X132331500Y-103384748D01*
X132331500Y-103155188D01*
X132350407Y-103096997D01*
X132360491Y-103085190D01*
X132449881Y-102995799D01*
X132465732Y-102982928D01*
X132475669Y-102976437D01*
X132494451Y-102952303D01*
X132502577Y-102943104D01*
X132503375Y-102942307D01*
X132514886Y-102926182D01*
X132517288Y-102922962D01*
X132547517Y-102884126D01*
X132547517Y-102884123D01*
X132551023Y-102877645D01*
X132554237Y-102871071D01*
X132554237Y-102871069D01*
X132554240Y-102871066D01*
X132568287Y-102823881D01*
X132569512Y-102820054D01*
X132585500Y-102773488D01*
X132585500Y-102773483D01*
X132586707Y-102766254D01*
X132587617Y-102758954D01*
X132585585Y-102709824D01*
X132585500Y-102705733D01*
X132585500Y-102082047D01*
X132604407Y-102023856D01*
X132614490Y-102012049D01*
X132658224Y-101968316D01*
X132708972Y-101859487D01*
X132715500Y-101809901D01*
X132715499Y-101390100D01*
X132708972Y-101340513D01*
X132708972Y-101340511D01*
X132658225Y-101231686D01*
X132658224Y-101231685D01*
X132658224Y-101231684D01*
X132573316Y-101146776D01*
X132573314Y-101146775D01*
X132573313Y-101146774D01*
X132464489Y-101096029D01*
X132464488Y-101096028D01*
X132447958Y-101093852D01*
X132414901Y-101089500D01*
X132414899Y-101089500D01*
X132055104Y-101089500D01*
X132055092Y-101089501D01*
X132005513Y-101096027D01*
X132005511Y-101096027D01*
X131896686Y-101146774D01*
X131811774Y-101231686D01*
X131761029Y-101340510D01*
X131761028Y-101340511D01*
X131754500Y-101390100D01*
X131754500Y-101809896D01*
X131754501Y-101809907D01*
X131761027Y-101859486D01*
X131761027Y-101859488D01*
X131811774Y-101968313D01*
X131811775Y-101968314D01*
X131811776Y-101968316D01*
X131855505Y-102012045D01*
X131883281Y-102066560D01*
X131884500Y-102082047D01*
X131884500Y-102528810D01*
X131865593Y-102587001D01*
X131855504Y-102598814D01*
X131718814Y-102735504D01*
X131664297Y-102763281D01*
X131648810Y-102764500D01*
X131011252Y-102764500D01*
X131011251Y-102764500D01*
X131011241Y-102764501D01*
X130952772Y-102776132D01*
X130952766Y-102776134D01*
X130920320Y-102797815D01*
X130865318Y-102814500D01*
X130786624Y-102814500D01*
X130728433Y-102795593D01*
X130700889Y-102765002D01*
X130699537Y-102762660D01*
X130603286Y-102637223D01*
X130603285Y-102637222D01*
X130603282Y-102637218D01*
X130603277Y-102637214D01*
X130603276Y-102637213D01*
X130477838Y-102540962D01*
X130331766Y-102480457D01*
X130331758Y-102480455D01*
X130175001Y-102459818D01*
X130174999Y-102459818D01*
X130018241Y-102480455D01*
X130018233Y-102480457D01*
X129872161Y-102540962D01*
X129872160Y-102540962D01*
X129746723Y-102637213D01*
X129746717Y-102637219D01*
X129728227Y-102661316D01*
X129701830Y-102695718D01*
X129694042Y-102705867D01*
X129643617Y-102740522D01*
X129582453Y-102738920D01*
X129533911Y-102701673D01*
X129516500Y-102645599D01*
X129516500Y-101226253D01*
X129516498Y-101226241D01*
X129513214Y-101209733D01*
X129504867Y-101167769D01*
X129460552Y-101101448D01*
X129460548Y-101101445D01*
X129394233Y-101057134D01*
X129394231Y-101057133D01*
X129394228Y-101057132D01*
X129394227Y-101057132D01*
X129335758Y-101045501D01*
X129335748Y-101045500D01*
X128796252Y-101045500D01*
X128796251Y-101045500D01*
X128796241Y-101045501D01*
X128737772Y-101057132D01*
X128737766Y-101057134D01*
X128671451Y-101101445D01*
X128671445Y-101101451D01*
X128648315Y-101136068D01*
X128600264Y-101173947D01*
X128539126Y-101176349D01*
X128488253Y-101142355D01*
X128483685Y-101136068D01*
X128460554Y-101101451D01*
X128460552Y-101101448D01*
X128460548Y-101101445D01*
X128394233Y-101057134D01*
X128394231Y-101057133D01*
X128394228Y-101057132D01*
X128394227Y-101057132D01*
X128335758Y-101045501D01*
X128335748Y-101045500D01*
X127796252Y-101045500D01*
X127796251Y-101045500D01*
X127796241Y-101045501D01*
X127737772Y-101057132D01*
X127737766Y-101057134D01*
X127671451Y-101101445D01*
X127671445Y-101101451D01*
X127627134Y-101167766D01*
X127627132Y-101167772D01*
X127615501Y-101226241D01*
X127615500Y-101226253D01*
X127615500Y-103265746D01*
X127615501Y-103265758D01*
X127627132Y-103324227D01*
X127627134Y-103324233D01*
X127671445Y-103390548D01*
X127671448Y-103390552D01*
X127671501Y-103390587D01*
X127671564Y-103390667D01*
X127678343Y-103397446D01*
X127677540Y-103398248D01*
X127709381Y-103438637D01*
X127715500Y-103472903D01*
X127715500Y-103762381D01*
X127713393Y-103782696D01*
X127710957Y-103794313D01*
X127714740Y-103824662D01*
X127715500Y-103836907D01*
X127715500Y-103838042D01*
X127718751Y-103857528D01*
X127719337Y-103861547D01*
X127724041Y-103899275D01*
X127725427Y-103910393D01*
X127727527Y-103917448D01*
X127729907Y-103924380D01*
X127753322Y-103967646D01*
X127755195Y-103971285D01*
X127776801Y-104015482D01*
X127781078Y-104021472D01*
X127785581Y-104027258D01*
X127821764Y-104060567D01*
X127824717Y-104063399D01*
X127847504Y-104086186D01*
X127875281Y-104140703D01*
X127876500Y-104156190D01*
X127876500Y-104314316D01*
X127877686Y-104323325D01*
X127882932Y-104363174D01*
X127882932Y-104363175D01*
X127932933Y-104470401D01*
X127932934Y-104470402D01*
X127932935Y-104470404D01*
X128016596Y-104554065D01*
X128016597Y-104554065D01*
X128016598Y-104554066D01*
X128029915Y-104560276D01*
X128074663Y-104602005D01*
X128086337Y-104662066D01*
X128060478Y-104717518D01*
X128029915Y-104739724D01*
X128016596Y-104745934D01*
X127982026Y-104780504D01*
X127927509Y-104808281D01*
X127912023Y-104809500D01*
X127848619Y-104809500D01*
X127828304Y-104807393D01*
X127816685Y-104804957D01*
X127797144Y-104807393D01*
X127786338Y-104808740D01*
X127774093Y-104809500D01*
X127772960Y-104809500D01*
X127753470Y-104812751D01*
X127749431Y-104813339D01*
X127700607Y-104819426D01*
X127693581Y-104821517D01*
X127686616Y-104823908D01*
X127643361Y-104847317D01*
X127639724Y-104849189D01*
X127595520Y-104870799D01*
X127589542Y-104875066D01*
X127583744Y-104879580D01*
X127550431Y-104915765D01*
X127547601Y-104918715D01*
X127492148Y-104974168D01*
X127437631Y-105001945D01*
X127380305Y-104993889D01*
X127273173Y-104943932D01*
X127224316Y-104937500D01*
X127224315Y-104937500D01*
X126944190Y-104937500D01*
X126885999Y-104918593D01*
X126874186Y-104908504D01*
X126623571Y-104657889D01*
X126595794Y-104603372D01*
X126603852Y-104546044D01*
X126612970Y-104526491D01*
X126612969Y-104526491D01*
X126612972Y-104526487D01*
X126619500Y-104476901D01*
X126619499Y-104057100D01*
X126612972Y-104007513D01*
X126612972Y-104007511D01*
X126562225Y-103898686D01*
X126562224Y-103898685D01*
X126562224Y-103898684D01*
X126477316Y-103813776D01*
X126477314Y-103813775D01*
X126477311Y-103813773D01*
X126473657Y-103812069D01*
X126428910Y-103770339D01*
X126416500Y-103722347D01*
X126416500Y-103472903D01*
X126435407Y-103414712D01*
X126460497Y-103390588D01*
X126460552Y-103390552D01*
X126504867Y-103324231D01*
X126516500Y-103265748D01*
X126516500Y-101226252D01*
X126516397Y-101225736D01*
X126513214Y-101209733D01*
X126504867Y-101167769D01*
X126460552Y-101101448D01*
X126460548Y-101101445D01*
X126394233Y-101057134D01*
X126394231Y-101057133D01*
X126394228Y-101057132D01*
X126394227Y-101057132D01*
X126335758Y-101045501D01*
X126335748Y-101045500D01*
X125796252Y-101045500D01*
X125796251Y-101045500D01*
X125796241Y-101045501D01*
X125737772Y-101057132D01*
X125737766Y-101057134D01*
X125671451Y-101101445D01*
X125671445Y-101101451D01*
X125648315Y-101136068D01*
X125600264Y-101173947D01*
X125539126Y-101176349D01*
X125488253Y-101142355D01*
X125483685Y-101136068D01*
X125460554Y-101101451D01*
X125460552Y-101101448D01*
X125460548Y-101101445D01*
X125394233Y-101057134D01*
X125394231Y-101057133D01*
X125394228Y-101057132D01*
X125394227Y-101057132D01*
X125335758Y-101045501D01*
X125335748Y-101045500D01*
X124875644Y-101045500D01*
X124817453Y-101026593D01*
X124781489Y-100977093D01*
X124781489Y-100915907D01*
X124793326Y-100891502D01*
X124804867Y-100874231D01*
X124816500Y-100815748D01*
X124816500Y-100276252D01*
X124804867Y-100217769D01*
X124760552Y-100151448D01*
X124752960Y-100146375D01*
X124694233Y-100107134D01*
X124694231Y-100107133D01*
X124694228Y-100107132D01*
X124694227Y-100107132D01*
X124635758Y-100095501D01*
X124635748Y-100095500D01*
X122596252Y-100095500D01*
X122596251Y-100095500D01*
X122596241Y-100095501D01*
X122537772Y-100107132D01*
X122537766Y-100107134D01*
X122471451Y-100151445D01*
X122471445Y-100151451D01*
X122427134Y-100217766D01*
X122427132Y-100217772D01*
X122415501Y-100276241D01*
X122415500Y-100276253D01*
X122415500Y-100815746D01*
X122166500Y-100815746D01*
X122166500Y-97865746D01*
X124615500Y-97865746D01*
X124615501Y-97865758D01*
X124627132Y-97924227D01*
X124627134Y-97924233D01*
X124671445Y-97990548D01*
X124671448Y-97990552D01*
X124737769Y-98034867D01*
X124780672Y-98043401D01*
X124796241Y-98046498D01*
X124796246Y-98046498D01*
X124796252Y-98046500D01*
X124796253Y-98046500D01*
X125335747Y-98046500D01*
X125335748Y-98046500D01*
X125394231Y-98034867D01*
X125460552Y-97990552D01*
X125483685Y-97955930D01*
X125531735Y-97918052D01*
X125592873Y-97915650D01*
X125643746Y-97949643D01*
X125648310Y-97955924D01*
X125671448Y-97990552D01*
X125737769Y-98034867D01*
X125780672Y-98043401D01*
X125796241Y-98046498D01*
X125796246Y-98046498D01*
X125796252Y-98046500D01*
X125796253Y-98046500D01*
X126335747Y-98046500D01*
X126335748Y-98046500D01*
X126394231Y-98034867D01*
X126460552Y-97990552D01*
X126483685Y-97955930D01*
X126531735Y-97918052D01*
X126592873Y-97915650D01*
X126643746Y-97949643D01*
X126648310Y-97955924D01*
X126671448Y-97990552D01*
X126737769Y-98034867D01*
X126780672Y-98043401D01*
X126796241Y-98046498D01*
X126796246Y-98046498D01*
X126796252Y-98046500D01*
X126796253Y-98046500D01*
X127335747Y-98046500D01*
X127335748Y-98046500D01*
X127394231Y-98034867D01*
X127460552Y-97990552D01*
X127483685Y-97955930D01*
X127531735Y-97918052D01*
X127592873Y-97915650D01*
X127643746Y-97949643D01*
X127648310Y-97955924D01*
X127671448Y-97990552D01*
X127737769Y-98034867D01*
X127780672Y-98043401D01*
X127796241Y-98046498D01*
X127796246Y-98046498D01*
X127796252Y-98046500D01*
X127796253Y-98046500D01*
X128335747Y-98046500D01*
X128335748Y-98046500D01*
X128394231Y-98034867D01*
X128460552Y-97990552D01*
X128483685Y-97955930D01*
X128531735Y-97918052D01*
X128592873Y-97915650D01*
X128643746Y-97949643D01*
X128648310Y-97955924D01*
X128671448Y-97990552D01*
X128737769Y-98034867D01*
X128780672Y-98043401D01*
X128796241Y-98046498D01*
X128796246Y-98046498D01*
X128796252Y-98046500D01*
X128796253Y-98046500D01*
X129335747Y-98046500D01*
X129335748Y-98046500D01*
X129394231Y-98034867D01*
X129460552Y-97990552D01*
X129504867Y-97924231D01*
X129516500Y-97865748D01*
X129516500Y-96647000D01*
X131728318Y-96647000D01*
X131748955Y-96803758D01*
X131748957Y-96803766D01*
X131809462Y-96949838D01*
X131809462Y-96949839D01*
X131903617Y-97072544D01*
X131905718Y-97075282D01*
X131905722Y-97075285D01*
X131905723Y-97075286D01*
X131920459Y-97086593D01*
X132031159Y-97171536D01*
X132031160Y-97171536D01*
X132031161Y-97171537D01*
X132137814Y-97215714D01*
X132177238Y-97232044D01*
X132280769Y-97245674D01*
X132333999Y-97252682D01*
X132334000Y-97252682D01*
X132334001Y-97252682D01*
X132387231Y-97245674D01*
X132490762Y-97232044D01*
X132636841Y-97171536D01*
X132739233Y-97092967D01*
X132796909Y-97072544D01*
X132855574Y-97089922D01*
X132892822Y-97138463D01*
X132898500Y-97171510D01*
X132898500Y-97245672D01*
X132898501Y-97245684D01*
X132913033Y-97318736D01*
X132913034Y-97318740D01*
X132913035Y-97318742D01*
X132916766Y-97327749D01*
X132914751Y-97328583D01*
X132927811Y-97374888D01*
X132915227Y-97413613D01*
X132916766Y-97414251D01*
X132913033Y-97423263D01*
X132898501Y-97496315D01*
X132898500Y-97496327D01*
X132898500Y-97645672D01*
X132898501Y-97645684D01*
X132913033Y-97718736D01*
X132913034Y-97718740D01*
X132913035Y-97718742D01*
X132916766Y-97727749D01*
X132914751Y-97728583D01*
X132927811Y-97774888D01*
X132915227Y-97813613D01*
X132916766Y-97814251D01*
X132913033Y-97823263D01*
X132898501Y-97896315D01*
X132898500Y-97896327D01*
X132898500Y-98045672D01*
X132898501Y-98045684D01*
X132913033Y-98118736D01*
X132913034Y-98118740D01*
X132913035Y-98118742D01*
X132916766Y-98127749D01*
X132914751Y-98128583D01*
X132927811Y-98174888D01*
X132915227Y-98213613D01*
X132916766Y-98214251D01*
X132913033Y-98223263D01*
X132898501Y-98296315D01*
X132898500Y-98296327D01*
X132898500Y-98445672D01*
X132898501Y-98445684D01*
X132912675Y-98516935D01*
X132913034Y-98518740D01*
X132913035Y-98518742D01*
X132916766Y-98527749D01*
X132914751Y-98528583D01*
X132927811Y-98574888D01*
X132915227Y-98613613D01*
X132916766Y-98614251D01*
X132913033Y-98623263D01*
X132898501Y-98696315D01*
X132898500Y-98696327D01*
X132898500Y-98845672D01*
X132898501Y-98845684D01*
X132909579Y-98901371D01*
X132913034Y-98918740D01*
X132913035Y-98918742D01*
X132916766Y-98927749D01*
X132914751Y-98928583D01*
X132927811Y-98974888D01*
X132915227Y-99013613D01*
X132916766Y-99014251D01*
X132913033Y-99023263D01*
X132898501Y-99096315D01*
X132898500Y-99096327D01*
X132898500Y-99245672D01*
X132898501Y-99245684D01*
X132913033Y-99318736D01*
X132913035Y-99318742D01*
X132968397Y-99401599D01*
X132968400Y-99401602D01*
X133008380Y-99428315D01*
X133051260Y-99456966D01*
X133106808Y-99468015D01*
X133124315Y-99471498D01*
X133124320Y-99471498D01*
X133124326Y-99471500D01*
X133474500Y-99471500D01*
X133532691Y-99490407D01*
X133568655Y-99539907D01*
X133573500Y-99570500D01*
X133573500Y-99867228D01*
X133554593Y-99925419D01*
X133505093Y-99961383D01*
X133487423Y-99965381D01*
X133417737Y-99974556D01*
X133271661Y-100035062D01*
X133271660Y-100035062D01*
X133146223Y-100131313D01*
X133146213Y-100131323D01*
X133049962Y-100256760D01*
X133049962Y-100256761D01*
X132989457Y-100402833D01*
X132989455Y-100402841D01*
X132968818Y-100559599D01*
X132968818Y-100559600D01*
X132989455Y-100716358D01*
X132989457Y-100716366D01*
X133049962Y-100862438D01*
X133049962Y-100862439D01*
X133146213Y-100987876D01*
X133146218Y-100987882D01*
X133146222Y-100987885D01*
X133146223Y-100987886D01*
X133157449Y-100996500D01*
X133271659Y-101084136D01*
X133271660Y-101084136D01*
X133271661Y-101084137D01*
X133324902Y-101106190D01*
X133417738Y-101144644D01*
X133425239Y-101145631D01*
X133480463Y-101171967D01*
X133509662Y-101225736D01*
X133503786Y-101281668D01*
X133489467Y-101316236D01*
X133489466Y-101316241D01*
X133468829Y-101472999D01*
X133468829Y-101473000D01*
X133489466Y-101629758D01*
X133489468Y-101629766D01*
X133549973Y-101775838D01*
X133549973Y-101775839D01*
X133641500Y-101895119D01*
X133646229Y-101901282D01*
X133771670Y-101997536D01*
X133771671Y-101997536D01*
X133771672Y-101997537D01*
X133888834Y-102046067D01*
X133917749Y-102058044D01*
X134030843Y-102072933D01*
X134074510Y-102078682D01*
X134074511Y-102078682D01*
X134074512Y-102078682D01*
X134118179Y-102072933D01*
X134231273Y-102058044D01*
X134336627Y-102014404D01*
X134397622Y-102009604D01*
X134449791Y-102041573D01*
X134473206Y-102098101D01*
X134473511Y-102105869D01*
X134473511Y-102695270D01*
X134454604Y-102753461D01*
X134405104Y-102789425D01*
X134343918Y-102789425D01*
X134342366Y-102788906D01*
X134297487Y-102773499D01*
X134290260Y-102772293D01*
X134282957Y-102771383D01*
X134282954Y-102771383D01*
X134270703Y-102771889D01*
X134211783Y-102755402D01*
X134188077Y-102733245D01*
X134159282Y-102695718D01*
X134159277Y-102695714D01*
X134159276Y-102695713D01*
X134060605Y-102620001D01*
X134033841Y-102599464D01*
X134033840Y-102599463D01*
X134033838Y-102599462D01*
X133887766Y-102538957D01*
X133887758Y-102538955D01*
X133731001Y-102518318D01*
X133730999Y-102518318D01*
X133574241Y-102538955D01*
X133574233Y-102538957D01*
X133428161Y-102599462D01*
X133428160Y-102599462D01*
X133302723Y-102695713D01*
X133302713Y-102695723D01*
X133206462Y-102821160D01*
X133206462Y-102821161D01*
X133145957Y-102967233D01*
X133145955Y-102967241D01*
X133125318Y-103123999D01*
X133125318Y-103124000D01*
X133145955Y-103280758D01*
X133145957Y-103280766D01*
X133206462Y-103426838D01*
X133206462Y-103426839D01*
X133289215Y-103534685D01*
X133302718Y-103552282D01*
X133428159Y-103648536D01*
X133534071Y-103692406D01*
X133580597Y-103732142D01*
X133594881Y-103791637D01*
X133587650Y-103821755D01*
X133546901Y-103920130D01*
X133546899Y-103920139D01*
X133526262Y-104076897D01*
X133526262Y-104076898D01*
X133546899Y-104233656D01*
X133546901Y-104233664D01*
X133607406Y-104379736D01*
X133607406Y-104379737D01*
X133692702Y-104490897D01*
X133703662Y-104505180D01*
X133703666Y-104505183D01*
X133703667Y-104505184D01*
X133725056Y-104521596D01*
X133829103Y-104601434D01*
X133829104Y-104601434D01*
X133829105Y-104601435D01*
X133895235Y-104628827D01*
X133975182Y-104661942D01*
X134131944Y-104682580D01*
X134175007Y-104676910D01*
X134235166Y-104688059D01*
X134251819Y-104701038D01*
X134252136Y-104700631D01*
X134282736Y-104724448D01*
X134291923Y-104732560D01*
X134292737Y-104733374D01*
X134292741Y-104733377D01*
X134308801Y-104744843D01*
X134312085Y-104747291D01*
X134350333Y-104777060D01*
X134350920Y-104777517D01*
X134350924Y-104777518D01*
X134357400Y-104781022D01*
X134363980Y-104784240D01*
X134411148Y-104798282D01*
X134415010Y-104799520D01*
X134425357Y-104803072D01*
X134461558Y-104815500D01*
X134461560Y-104815500D01*
X134468782Y-104816705D01*
X134476085Y-104817615D01*
X134476092Y-104817617D01*
X134525222Y-104815585D01*
X134529313Y-104815500D01*
X135165318Y-104815500D01*
X135220320Y-104832185D01*
X135242966Y-104847317D01*
X135252769Y-104853867D01*
X135297231Y-104862711D01*
X135311241Y-104865498D01*
X135311246Y-104865498D01*
X135311252Y-104865500D01*
X135311253Y-104865500D01*
X136450747Y-104865500D01*
X136450748Y-104865500D01*
X136509231Y-104853867D01*
X136541680Y-104832185D01*
X136596682Y-104815500D01*
X136915810Y-104815500D01*
X136974001Y-104834407D01*
X136985814Y-104844496D01*
X137039504Y-104898186D01*
X137067281Y-104952703D01*
X137068500Y-104968190D01*
X137068500Y-105126314D01*
X137074932Y-105175174D01*
X137074932Y-105175175D01*
X137124933Y-105282401D01*
X137124934Y-105282402D01*
X137124935Y-105282404D01*
X137208596Y-105366065D01*
X137208597Y-105366065D01*
X137208598Y-105366066D01*
X137315824Y-105416067D01*
X137315825Y-105416067D01*
X137315827Y-105416068D01*
X137364684Y-105422500D01*
X137364685Y-105422500D01*
X137713314Y-105422500D01*
X137713316Y-105422500D01*
X137762173Y-105416068D01*
X137869404Y-105366065D01*
X137953065Y-105282404D01*
X137959275Y-105269085D01*
X138001003Y-105224337D01*
X138061064Y-105212662D01*
X138116517Y-105238519D01*
X138138724Y-105269084D01*
X138144935Y-105282404D01*
X138228596Y-105366065D01*
X138228597Y-105366065D01*
X138228598Y-105366066D01*
X138335824Y-105416067D01*
X138335825Y-105416067D01*
X138335827Y-105416068D01*
X138384684Y-105422500D01*
X138384685Y-105422500D01*
X138733314Y-105422500D01*
X138733316Y-105422500D01*
X138782173Y-105416068D01*
X138889404Y-105366065D01*
X138973065Y-105282404D01*
X139023068Y-105175173D01*
X139029500Y-105126316D01*
X139029500Y-104677684D01*
X139023068Y-104628827D01*
X139021827Y-104626166D01*
X138973066Y-104521598D01*
X138973064Y-104521595D01*
X138938496Y-104487026D01*
X138910719Y-104432509D01*
X138909500Y-104417023D01*
X138909500Y-104243976D01*
X138928407Y-104185785D01*
X138938490Y-104173978D01*
X138973065Y-104139404D01*
X139023068Y-104032173D01*
X139029500Y-103983316D01*
X139029500Y-103534684D01*
X139023068Y-103485827D01*
X139018337Y-103475682D01*
X138973066Y-103378598D01*
X138973064Y-103378595D01*
X138938496Y-103344026D01*
X138910719Y-103289509D01*
X138909500Y-103274023D01*
X138909500Y-102949613D01*
X138911607Y-102929297D01*
X138912600Y-102924561D01*
X138914042Y-102917685D01*
X138911271Y-102895461D01*
X138910850Y-102875056D01*
X138911132Y-102871656D01*
X138911130Y-102871650D01*
X138911131Y-102871647D01*
X138910455Y-102863477D01*
X138910818Y-102863446D01*
X138909500Y-102852869D01*
X138909500Y-102592977D01*
X138928407Y-102534786D01*
X138938493Y-102522977D01*
X138947886Y-102513583D01*
X139002401Y-102485803D01*
X139062833Y-102495371D01*
X139087897Y-102513579D01*
X139433199Y-102858881D01*
X139446074Y-102874737D01*
X139452563Y-102884669D01*
X139476690Y-102903448D01*
X139485877Y-102911560D01*
X139486691Y-102912374D01*
X139486695Y-102912377D01*
X139502755Y-102923843D01*
X139506039Y-102926291D01*
X139544870Y-102956514D01*
X139544874Y-102956517D01*
X139544878Y-102956518D01*
X139551354Y-102960022D01*
X139557934Y-102963240D01*
X139605102Y-102977282D01*
X139608964Y-102978520D01*
X139619311Y-102982072D01*
X139655512Y-102994500D01*
X139655514Y-102994500D01*
X139662736Y-102995705D01*
X139670039Y-102996615D01*
X139670046Y-102996617D01*
X139719176Y-102994585D01*
X139723267Y-102994500D01*
X139725952Y-102994500D01*
X139784143Y-103013407D01*
X139795955Y-103023496D01*
X139825784Y-103053324D01*
X139839684Y-103067224D01*
X139948513Y-103117972D01*
X139998099Y-103124500D01*
X140417900Y-103124499D01*
X140467487Y-103117972D01*
X140467488Y-103117972D01*
X140534498Y-103086724D01*
X140576316Y-103067224D01*
X140661224Y-102982316D01*
X140711972Y-102873487D01*
X140718500Y-102823901D01*
X140718499Y-102464100D01*
X140711972Y-102414513D01*
X140711972Y-102414511D01*
X140661225Y-102305686D01*
X140661224Y-102305685D01*
X140661224Y-102305684D01*
X140596494Y-102240954D01*
X140568719Y-102186440D01*
X140567500Y-102170953D01*
X140567500Y-102164490D01*
X140569437Y-102151204D01*
X140568602Y-102151100D01*
X140569617Y-102142954D01*
X140567585Y-102093824D01*
X140567500Y-102089733D01*
X140567500Y-101677500D01*
X140586407Y-101619309D01*
X140635907Y-101583345D01*
X140666500Y-101578500D01*
X140786747Y-101578500D01*
X140786748Y-101578500D01*
X140845231Y-101566867D01*
X140877680Y-101545185D01*
X140932682Y-101528500D01*
X141037381Y-101528500D01*
X141057696Y-101530607D01*
X141059606Y-101531007D01*
X141069315Y-101533043D01*
X141099662Y-101529259D01*
X141111907Y-101528500D01*
X141113043Y-101528500D01*
X141132521Y-101525249D01*
X141136552Y-101524661D01*
X141185393Y-101518573D01*
X141185396Y-101518571D01*
X141192429Y-101516477D01*
X141199375Y-101514092D01*
X141199381Y-101514092D01*
X141242655Y-101490671D01*
X141246279Y-101488807D01*
X141290482Y-101467199D01*
X141290482Y-101467198D01*
X141290484Y-101467198D01*
X141290485Y-101467196D01*
X141296470Y-101462923D01*
X141302255Y-101458420D01*
X141302255Y-101458419D01*
X141302258Y-101458418D01*
X141335579Y-101422220D01*
X141338364Y-101419316D01*
X141830884Y-100926796D01*
X141846734Y-100913926D01*
X141856669Y-100907437D01*
X141875451Y-100883303D01*
X141883577Y-100874104D01*
X141884376Y-100873306D01*
X141895875Y-100857198D01*
X141898309Y-100853936D01*
X141913289Y-100834690D01*
X141928517Y-100815126D01*
X141928518Y-100815122D01*
X141932022Y-100808650D01*
X141935237Y-100802071D01*
X141935237Y-100802069D01*
X141935240Y-100802066D01*
X141944865Y-100769733D01*
X141969743Y-100727981D01*
X142581884Y-100115840D01*
X142597734Y-100102970D01*
X142607669Y-100096481D01*
X142626451Y-100072347D01*
X142634577Y-100063148D01*
X142635375Y-100062351D01*
X142646857Y-100046267D01*
X142649290Y-100043005D01*
X142655472Y-100035062D01*
X142679517Y-100004170D01*
X142679517Y-100004167D01*
X142683014Y-99997706D01*
X142686239Y-99991111D01*
X142700281Y-99943940D01*
X142701512Y-99940098D01*
X142717500Y-99893532D01*
X142717500Y-99893528D01*
X142718706Y-99886303D01*
X142719617Y-99878998D01*
X142717585Y-99829868D01*
X142717500Y-99825777D01*
X142717500Y-99535083D01*
X142736407Y-99476892D01*
X142785907Y-99440928D01*
X142847093Y-99440928D01*
X142896593Y-99476892D01*
X142914739Y-99522835D01*
X142916063Y-99533451D01*
X142917427Y-99544393D01*
X142919527Y-99551448D01*
X142921907Y-99558380D01*
X142945322Y-99601646D01*
X142947195Y-99605285D01*
X142968801Y-99649482D01*
X142973078Y-99655472D01*
X142977581Y-99661257D01*
X143013764Y-99694566D01*
X143016717Y-99697399D01*
X143412194Y-100092875D01*
X143425070Y-100108731D01*
X143431563Y-100118669D01*
X143455694Y-100137451D01*
X143464878Y-100145560D01*
X143465689Y-100146370D01*
X143465694Y-100146375D01*
X143465869Y-100146500D01*
X143481773Y-100157856D01*
X143485051Y-100160300D01*
X143511703Y-100181044D01*
X143523874Y-100190517D01*
X143523878Y-100190518D01*
X143530364Y-100194028D01*
X143541393Y-100199421D01*
X143585364Y-100241967D01*
X143595929Y-100302233D01*
X143569052Y-100357200D01*
X143567910Y-100358361D01*
X143160269Y-100766004D01*
X143105752Y-100793782D01*
X143090265Y-100795001D01*
X142866118Y-100795001D01*
X142845803Y-100792894D01*
X142834184Y-100790458D01*
X142814643Y-100792894D01*
X142803837Y-100794241D01*
X142791592Y-100795001D01*
X142790459Y-100795001D01*
X142770969Y-100798252D01*
X142766930Y-100798840D01*
X142718106Y-100804927D01*
X142711080Y-100807018D01*
X142704115Y-100809409D01*
X142660860Y-100832818D01*
X142657223Y-100834690D01*
X142613019Y-100856300D01*
X142607041Y-100860567D01*
X142601243Y-100865081D01*
X142567930Y-100901266D01*
X142565100Y-100904216D01*
X141481814Y-101987504D01*
X141427297Y-102015281D01*
X141411810Y-102016500D01*
X141253684Y-102016500D01*
X141237398Y-102018644D01*
X141204825Y-102022932D01*
X141204824Y-102022932D01*
X141097598Y-102072933D01*
X141013933Y-102156598D01*
X140963932Y-102263824D01*
X140963932Y-102263825D01*
X140957500Y-102312685D01*
X140957500Y-102661314D01*
X140963932Y-102710174D01*
X140963932Y-102710175D01*
X141013933Y-102817401D01*
X141013934Y-102817402D01*
X141013935Y-102817404D01*
X141097596Y-102901065D01*
X141097597Y-102901065D01*
X141097598Y-102901066D01*
X141110915Y-102907276D01*
X141155663Y-102949005D01*
X141167337Y-103009066D01*
X141141478Y-103064518D01*
X141110915Y-103086724D01*
X141097598Y-103092933D01*
X141013933Y-103176598D01*
X140963932Y-103283824D01*
X140963932Y-103283825D01*
X140957500Y-103332685D01*
X140957500Y-103681316D01*
X140957606Y-103682934D01*
X140957500Y-103683351D01*
X140957500Y-103684557D01*
X140957194Y-103684557D01*
X140942545Y-103742237D01*
X140895503Y-103781361D01*
X140871740Y-103787562D01*
X140709241Y-103808955D01*
X140709233Y-103808957D01*
X140563161Y-103869462D01*
X140563160Y-103869462D01*
X140437723Y-103965713D01*
X140437713Y-103965723D01*
X140341462Y-104091160D01*
X140341462Y-104091161D01*
X140280957Y-104237233D01*
X140280955Y-104237240D01*
X140264343Y-104363423D01*
X140238002Y-104418647D01*
X140184231Y-104447842D01*
X140166191Y-104449500D01*
X139998104Y-104449500D01*
X139998092Y-104449501D01*
X139948513Y-104456027D01*
X139948511Y-104456027D01*
X139839686Y-104506774D01*
X139754774Y-104591686D01*
X139704029Y-104700510D01*
X139704028Y-104700511D01*
X139697500Y-104750100D01*
X139697500Y-105109895D01*
X139697501Y-105109907D01*
X139704027Y-105159486D01*
X139704027Y-105159488D01*
X139754774Y-105268313D01*
X139754775Y-105268314D01*
X139754776Y-105268316D01*
X139839684Y-105353224D01*
X139948513Y-105403972D01*
X139998099Y-105410500D01*
X140417900Y-105410499D01*
X140467487Y-105403972D01*
X140467488Y-105403972D01*
X140557367Y-105362060D01*
X140576316Y-105353224D01*
X140661224Y-105268316D01*
X140711972Y-105159487D01*
X140714418Y-105140904D01*
X140740759Y-105085680D01*
X140742522Y-105083868D01*
X140795998Y-105030393D01*
X140850512Y-105002618D01*
X140910944Y-105012189D01*
X140936001Y-105030393D01*
X140947658Y-105042050D01*
X140959332Y-105047997D01*
X140969149Y-105053000D01*
X140982395Y-105061117D01*
X141001910Y-105075296D01*
X141001912Y-105075296D01*
X141001913Y-105075297D01*
X141024852Y-105082750D01*
X141039195Y-105088690D01*
X141060696Y-105099646D01*
X141084524Y-105103419D01*
X141099633Y-105107047D01*
X141102234Y-105107892D01*
X141122567Y-105114499D01*
X141150379Y-105114499D01*
X141150403Y-105114500D01*
X141154481Y-105114500D01*
X141319812Y-105114500D01*
X141378003Y-105133407D01*
X141389809Y-105143490D01*
X141399517Y-105153198D01*
X141444468Y-105175173D01*
X141504604Y-105204572D01*
X141504605Y-105204572D01*
X141504607Y-105204573D01*
X141572740Y-105214500D01*
X141572743Y-105214500D01*
X142664257Y-105214500D01*
X142664260Y-105214500D01*
X142732393Y-105204573D01*
X142837483Y-105153198D01*
X142920198Y-105070483D01*
X142971573Y-104965393D01*
X142981500Y-104897260D01*
X142981500Y-104530740D01*
X142971573Y-104462607D01*
X142968356Y-104456027D01*
X142931922Y-104381500D01*
X142920198Y-104357517D01*
X142837483Y-104274802D01*
X142754886Y-104234423D01*
X142710912Y-104191880D01*
X142700342Y-104131614D01*
X142727214Y-104076646D01*
X142738093Y-104066944D01*
X142776485Y-104037486D01*
X142856482Y-103933230D01*
X142906905Y-103898576D01*
X142968069Y-103900177D01*
X142994827Y-103917059D01*
X142995501Y-103916097D01*
X143002594Y-103921063D01*
X143002596Y-103921065D01*
X143002597Y-103921065D01*
X143002598Y-103921066D01*
X143109824Y-103971067D01*
X143109825Y-103971067D01*
X143109827Y-103971068D01*
X143158684Y-103977500D01*
X143158685Y-103977500D01*
X143607314Y-103977500D01*
X143607316Y-103977500D01*
X143656173Y-103971068D01*
X143763404Y-103921065D01*
X143847065Y-103837404D01*
X143897068Y-103730173D01*
X143903500Y-103681316D01*
X143903500Y-103332684D01*
X143897068Y-103283827D01*
X143892496Y-103274023D01*
X143847066Y-103176598D01*
X143847065Y-103176597D01*
X143847065Y-103176596D01*
X143763404Y-103092935D01*
X143750085Y-103086724D01*
X143705337Y-103044997D01*
X143693662Y-102984936D01*
X143719519Y-102929483D01*
X143750084Y-102907275D01*
X143763404Y-102901065D01*
X143763404Y-102901064D01*
X143771255Y-102897404D01*
X143772708Y-102900520D01*
X143813991Y-102887500D01*
X144190952Y-102887500D01*
X144249143Y-102906407D01*
X144260954Y-102916495D01*
X144273757Y-102929297D01*
X144284684Y-102940224D01*
X144393513Y-102990972D01*
X144443099Y-102997500D01*
X144862900Y-102997499D01*
X144912487Y-102990972D01*
X144912488Y-102990972D01*
X144978859Y-102960022D01*
X145021316Y-102940224D01*
X145106224Y-102855316D01*
X145156972Y-102746487D01*
X145163500Y-102696901D01*
X145163499Y-102337100D01*
X145156972Y-102287513D01*
X145156972Y-102287511D01*
X145106225Y-102178686D01*
X145106224Y-102178685D01*
X145106224Y-102178684D01*
X145021316Y-102093776D01*
X145021314Y-102093775D01*
X145021313Y-102093774D01*
X144924660Y-102048704D01*
X144879912Y-102006976D01*
X144867500Y-101958980D01*
X144867500Y-101677500D01*
X144886407Y-101619309D01*
X144935907Y-101583345D01*
X144966500Y-101578500D01*
X145086747Y-101578500D01*
X145086748Y-101578500D01*
X145145231Y-101566867D01*
X145211552Y-101522552D01*
X145255867Y-101456231D01*
X145257947Y-101445772D01*
X145287843Y-101392391D01*
X145343408Y-101366775D01*
X145392930Y-101373625D01*
X145512238Y-101423044D01*
X145600775Y-101434700D01*
X145668999Y-101443682D01*
X145669000Y-101443682D01*
X145669001Y-101443682D01*
X145700352Y-101439554D01*
X145825762Y-101423044D01*
X145971841Y-101362536D01*
X146049672Y-101302813D01*
X146107348Y-101282390D01*
X146153418Y-101292414D01*
X146192607Y-101311573D01*
X146260740Y-101321500D01*
X146260743Y-101321500D01*
X147727257Y-101321500D01*
X147727260Y-101321500D01*
X147795393Y-101311573D01*
X147900483Y-101260198D01*
X147983198Y-101177483D01*
X148034573Y-101072393D01*
X148044500Y-101004260D01*
X148044500Y-100637740D01*
X148034573Y-100569607D01*
X148034128Y-100568697D01*
X148002530Y-100504062D01*
X147983198Y-100464517D01*
X147900483Y-100381802D01*
X147889601Y-100376482D01*
X147795395Y-100330427D01*
X147768139Y-100326456D01*
X147727260Y-100320500D01*
X146260740Y-100320500D01*
X146226673Y-100325463D01*
X146192604Y-100330427D01*
X146126353Y-100362816D01*
X146065771Y-100371387D01*
X146022606Y-100352417D01*
X145986358Y-100324603D01*
X145971841Y-100313464D01*
X145963584Y-100310044D01*
X145938746Y-100299755D01*
X145825762Y-100252956D01*
X145825759Y-100252955D01*
X145825758Y-100252955D01*
X145669001Y-100232318D01*
X145668999Y-100232318D01*
X145512241Y-100252955D01*
X145512232Y-100252957D01*
X145386001Y-100305244D01*
X145325004Y-100310044D01*
X145272835Y-100278075D01*
X145256651Y-100251664D01*
X145255867Y-100249773D01*
X145255867Y-100249769D01*
X145255864Y-100249765D01*
X145252186Y-100240884D01*
X145247387Y-100179887D01*
X145252187Y-100165113D01*
X145255863Y-100156236D01*
X145255867Y-100156231D01*
X145267500Y-100097748D01*
X145267500Y-99754260D01*
X145943500Y-99754260D01*
X145950118Y-99799682D01*
X145953427Y-99822395D01*
X145988204Y-99893532D01*
X146004802Y-99927483D01*
X146087517Y-100010198D01*
X146138382Y-100035064D01*
X146192604Y-100061572D01*
X146192605Y-100061572D01*
X146192607Y-100061573D01*
X146260740Y-100071500D01*
X146260743Y-100071500D01*
X147727257Y-100071500D01*
X147727260Y-100071500D01*
X147795393Y-100061573D01*
X147900483Y-100010198D01*
X147948779Y-99961901D01*
X148003293Y-99934125D01*
X148063725Y-99943696D01*
X148097323Y-99971638D01*
X148137718Y-100024282D01*
X148263159Y-100120536D01*
X148263160Y-100120536D01*
X148263161Y-100120537D01*
X148370777Y-100165113D01*
X148409238Y-100181044D01*
X148507862Y-100194028D01*
X148565999Y-100201682D01*
X148566000Y-100201682D01*
X148566001Y-100201682D01*
X148597352Y-100197554D01*
X148722762Y-100181044D01*
X148868841Y-100120536D01*
X148994282Y-100024282D01*
X149090536Y-99898841D01*
X149151044Y-99752762D01*
X149171682Y-99596000D01*
X149151044Y-99439238D01*
X149119435Y-99362927D01*
X149090537Y-99293161D01*
X149090537Y-99293160D01*
X148994286Y-99167723D01*
X148994284Y-99167721D01*
X148994282Y-99167718D01*
X148994277Y-99167714D01*
X148994276Y-99167713D01*
X148901242Y-99096326D01*
X148868841Y-99071464D01*
X148868840Y-99071463D01*
X148868838Y-99071462D01*
X148722766Y-99010957D01*
X148722758Y-99010955D01*
X148566001Y-98990318D01*
X148565999Y-98990318D01*
X148409241Y-99010955D01*
X148409233Y-99010957D01*
X148263161Y-99071462D01*
X148263160Y-99071462D01*
X148137723Y-99167713D01*
X148137715Y-99167721D01*
X148126939Y-99181766D01*
X148076515Y-99216423D01*
X148048396Y-99220500D01*
X148030188Y-99220500D01*
X147971997Y-99201593D01*
X147960190Y-99191509D01*
X147900483Y-99131802D01*
X147897576Y-99130381D01*
X147795395Y-99080427D01*
X147768139Y-99076456D01*
X147727260Y-99070500D01*
X146260740Y-99070500D01*
X146232017Y-99074685D01*
X146192604Y-99080427D01*
X146087518Y-99131801D01*
X146004801Y-99214518D01*
X145953427Y-99319604D01*
X145953427Y-99319607D01*
X145943500Y-99387740D01*
X145943500Y-99754260D01*
X145267500Y-99754260D01*
X145267500Y-99658252D01*
X145255867Y-99599769D01*
X145255864Y-99599765D01*
X145252187Y-99590887D01*
X145247386Y-99529890D01*
X145252187Y-99515113D01*
X145255863Y-99506236D01*
X145255867Y-99506231D01*
X145267500Y-99447748D01*
X145267500Y-99008252D01*
X145267336Y-99007430D01*
X145260759Y-98974364D01*
X145255867Y-98949769D01*
X145211552Y-98883448D01*
X145202326Y-98877283D01*
X145145233Y-98839134D01*
X145145231Y-98839133D01*
X145145228Y-98839132D01*
X145145227Y-98839132D01*
X145086758Y-98827501D01*
X145086748Y-98827500D01*
X143947252Y-98827500D01*
X143947251Y-98827500D01*
X143947241Y-98827501D01*
X143888772Y-98839132D01*
X143888766Y-98839134D01*
X143822451Y-98883445D01*
X143822447Y-98883449D01*
X143789815Y-98932286D01*
X143741764Y-98970164D01*
X143680626Y-98972566D01*
X143629753Y-98938572D01*
X143608576Y-98881168D01*
X143608500Y-98877283D01*
X143608500Y-98147976D01*
X143627407Y-98089785D01*
X143637490Y-98077978D01*
X143672065Y-98043404D01*
X143722068Y-97936173D01*
X143728500Y-97887316D01*
X143728500Y-97438684D01*
X143722068Y-97389827D01*
X143713389Y-97371216D01*
X143672066Y-97282598D01*
X143672065Y-97282597D01*
X143672065Y-97282596D01*
X143588404Y-97198935D01*
X143588402Y-97198934D01*
X143588401Y-97198933D01*
X143481175Y-97148932D01*
X143448601Y-97144644D01*
X143432316Y-97142500D01*
X143083684Y-97142500D01*
X143067398Y-97144644D01*
X143034825Y-97148932D01*
X143034824Y-97148932D01*
X142927598Y-97198933D01*
X142843933Y-97282598D01*
X142837724Y-97295915D01*
X142795995Y-97340663D01*
X142735934Y-97352337D01*
X142680482Y-97326478D01*
X142658276Y-97295915D01*
X142652066Y-97282598D01*
X142652065Y-97282597D01*
X142652065Y-97282596D01*
X142568404Y-97198935D01*
X142568402Y-97198934D01*
X142568401Y-97198933D01*
X142461175Y-97148932D01*
X142428601Y-97144644D01*
X142412316Y-97142500D01*
X142063684Y-97142500D01*
X142047398Y-97144644D01*
X142014825Y-97148932D01*
X142014824Y-97148932D01*
X141907598Y-97198933D01*
X141907595Y-97198935D01*
X141833502Y-97273028D01*
X141778985Y-97300805D01*
X141718553Y-97291233D01*
X141684957Y-97263291D01*
X141648449Y-97215713D01*
X141648448Y-97215712D01*
X141648445Y-97215708D01*
X141648440Y-97215704D01*
X141648439Y-97215703D01*
X141564484Y-97151283D01*
X141523004Y-97119454D01*
X141523003Y-97119453D01*
X141523001Y-97119452D01*
X141376929Y-97058947D01*
X141376921Y-97058945D01*
X141220164Y-97038308D01*
X141220162Y-97038308D01*
X141063404Y-97058945D01*
X141063396Y-97058947D01*
X140917324Y-97119452D01*
X140917323Y-97119452D01*
X140791886Y-97215703D01*
X140791875Y-97215714D01*
X140758699Y-97258950D01*
X140708275Y-97293605D01*
X140647110Y-97292003D01*
X140610156Y-97268687D01*
X140540404Y-97198935D01*
X140540402Y-97198934D01*
X140540401Y-97198933D01*
X140433175Y-97148932D01*
X140400601Y-97144644D01*
X140384316Y-97142500D01*
X140035684Y-97142500D01*
X140019398Y-97144644D01*
X139986825Y-97148932D01*
X139986824Y-97148932D01*
X139879598Y-97198933D01*
X139795933Y-97282598D01*
X139789724Y-97295915D01*
X139747995Y-97340663D01*
X139687934Y-97352337D01*
X139632482Y-97326478D01*
X139610276Y-97295915D01*
X139604066Y-97282598D01*
X139604065Y-97282597D01*
X139604065Y-97282596D01*
X139520404Y-97198935D01*
X139520402Y-97198934D01*
X139520401Y-97198933D01*
X139413175Y-97148932D01*
X139380601Y-97144644D01*
X139364316Y-97142500D01*
X139015684Y-97142500D01*
X138999398Y-97144644D01*
X138966825Y-97148932D01*
X138966824Y-97148932D01*
X138859598Y-97198933D01*
X138859595Y-97198935D01*
X138777280Y-97281250D01*
X138722763Y-97309027D01*
X138694355Y-97309399D01*
X138534070Y-97288297D01*
X138534068Y-97288297D01*
X138377310Y-97308934D01*
X138377302Y-97308936D01*
X138238536Y-97366415D01*
X138177540Y-97371216D01*
X138158814Y-97364676D01*
X138054487Y-97316028D01*
X138004901Y-97309500D01*
X138004900Y-97309500D01*
X137780479Y-97309500D01*
X137722288Y-97290593D01*
X137710475Y-97280504D01*
X137434565Y-97004594D01*
X137426479Y-96993344D01*
X137425487Y-96994094D01*
X137419958Y-96986772D01*
X137385272Y-96955151D01*
X137381968Y-96951996D01*
X137368800Y-96938828D01*
X137368796Y-96938825D01*
X137368693Y-96938755D01*
X137357962Y-96930255D01*
X137336933Y-96911084D01*
X137327762Y-96907531D01*
X137307586Y-96896895D01*
X137299484Y-96891345D01*
X137299479Y-96891343D01*
X137271797Y-96884832D01*
X137258703Y-96880777D01*
X137232177Y-96870500D01*
X137232173Y-96870500D01*
X137222348Y-96870500D01*
X137199683Y-96867870D01*
X137190119Y-96865621D01*
X137190118Y-96865621D01*
X137161946Y-96869551D01*
X137148269Y-96870500D01*
X136273500Y-96870500D01*
X136215309Y-96851593D01*
X136179345Y-96802093D01*
X136174500Y-96771500D01*
X136174500Y-96421327D01*
X136174498Y-96421315D01*
X136171015Y-96403808D01*
X136159966Y-96348260D01*
X136134471Y-96310103D01*
X136104602Y-96265400D01*
X136104599Y-96265397D01*
X136021742Y-96210035D01*
X136021740Y-96210034D01*
X136021737Y-96210033D01*
X136021736Y-96210033D01*
X135948684Y-96195501D01*
X135948674Y-96195500D01*
X135799326Y-96195500D01*
X135799325Y-96195500D01*
X135799315Y-96195501D01*
X135726263Y-96210033D01*
X135726257Y-96210035D01*
X135643400Y-96265397D01*
X135643397Y-96265400D01*
X135588035Y-96348257D01*
X135588033Y-96348263D01*
X135573501Y-96421315D01*
X135573500Y-96421327D01*
X135573500Y-96920672D01*
X135573501Y-96920684D01*
X135588033Y-96993736D01*
X135588035Y-96993742D01*
X135592884Y-97000999D01*
X135609492Y-97059888D01*
X135588314Y-97117291D01*
X135537440Y-97151283D01*
X135510568Y-97155000D01*
X135437432Y-97155000D01*
X135379241Y-97136093D01*
X135343277Y-97086593D01*
X135343277Y-97025407D01*
X135355116Y-97000999D01*
X135359729Y-96994094D01*
X135359966Y-96993740D01*
X135374500Y-96920674D01*
X135374500Y-96421326D01*
X135374500Y-96263190D01*
X135393407Y-96204999D01*
X135403484Y-96193199D01*
X135594423Y-96002260D01*
X138588500Y-96002260D01*
X138593413Y-96035978D01*
X138598427Y-96070395D01*
X138638167Y-96151683D01*
X138649802Y-96175483D01*
X138732517Y-96258198D01*
X138780027Y-96281424D01*
X138837604Y-96309572D01*
X138837605Y-96309572D01*
X138837607Y-96309573D01*
X138905740Y-96319500D01*
X138905743Y-96319500D01*
X139997257Y-96319500D01*
X139997260Y-96319500D01*
X140065393Y-96309573D01*
X140170483Y-96258198D01*
X140253198Y-96175483D01*
X140304573Y-96070393D01*
X140314500Y-96002260D01*
X140314500Y-95635740D01*
X140304573Y-95567607D01*
X140302829Y-95564040D01*
X140276161Y-95509489D01*
X140253198Y-95462517D01*
X140170483Y-95379802D01*
X140170481Y-95379801D01*
X140065395Y-95328427D01*
X140038139Y-95324456D01*
X139997260Y-95318500D01*
X138905740Y-95318500D01*
X138871673Y-95323463D01*
X138837604Y-95328427D01*
X138732518Y-95379801D01*
X138649801Y-95462518D01*
X138598427Y-95567604D01*
X138595616Y-95586900D01*
X138588500Y-95635740D01*
X138588500Y-96002260D01*
X135594423Y-96002260D01*
X135807189Y-95789493D01*
X135861704Y-95761718D01*
X135877191Y-95760499D01*
X135970897Y-95760499D01*
X135970900Y-95760499D01*
X136020487Y-95753972D01*
X136020488Y-95753972D01*
X136079137Y-95726622D01*
X136129316Y-95703224D01*
X136214224Y-95618316D01*
X136264972Y-95509487D01*
X136271500Y-95459901D01*
X136271499Y-95040100D01*
X136264972Y-94990513D01*
X136264971Y-94990511D01*
X136264245Y-94984993D01*
X136275396Y-94924833D01*
X136319779Y-94882716D01*
X136350154Y-94873833D01*
X136352860Y-94873495D01*
X136352862Y-94873496D01*
X136378672Y-94870278D01*
X136383210Y-94869713D01*
X136395454Y-94868953D01*
X136396590Y-94868953D01*
X136416068Y-94865702D01*
X136420099Y-94865114D01*
X136468940Y-94859026D01*
X136468943Y-94859024D01*
X136475976Y-94856930D01*
X136482922Y-94854545D01*
X136482928Y-94854545D01*
X136526202Y-94831124D01*
X136529826Y-94829260D01*
X136574029Y-94807652D01*
X136574029Y-94807651D01*
X136574031Y-94807651D01*
X136574032Y-94807649D01*
X136580017Y-94803376D01*
X136585802Y-94798873D01*
X136585802Y-94798872D01*
X136585805Y-94798871D01*
X136619126Y-94762673D01*
X136621911Y-94759769D01*
X136647276Y-94734404D01*
X136701791Y-94706629D01*
X136730197Y-94706257D01*
X136779000Y-94712682D01*
X136935762Y-94692044D01*
X137081841Y-94631536D01*
X137207282Y-94535282D01*
X137237245Y-94496232D01*
X137287669Y-94461577D01*
X137315787Y-94457500D01*
X137411953Y-94457500D01*
X137470144Y-94476407D01*
X137481950Y-94486490D01*
X137553684Y-94558224D01*
X137662513Y-94608972D01*
X137712099Y-94615500D01*
X138131900Y-94615499D01*
X138181487Y-94608972D01*
X138181488Y-94608972D01*
X138240137Y-94581622D01*
X138290316Y-94558224D01*
X138375224Y-94473316D01*
X138425972Y-94364487D01*
X138427145Y-94355574D01*
X138453488Y-94300351D01*
X138507260Y-94271157D01*
X138525298Y-94269500D01*
X138602812Y-94269500D01*
X138661003Y-94288407D01*
X138672809Y-94298490D01*
X138732517Y-94358198D01*
X138745386Y-94364489D01*
X138837604Y-94409572D01*
X138837605Y-94409572D01*
X138837607Y-94409573D01*
X138905740Y-94419500D01*
X138905743Y-94419500D01*
X139997257Y-94419500D01*
X139997260Y-94419500D01*
X140065393Y-94409573D01*
X140170483Y-94358198D01*
X140253198Y-94275483D01*
X140304573Y-94170393D01*
X140314500Y-94102260D01*
X140314500Y-93735740D01*
X140304573Y-93667607D01*
X140301356Y-93661027D01*
X140279483Y-93616285D01*
X140253198Y-93562517D01*
X140170483Y-93479802D01*
X140170481Y-93479801D01*
X140065395Y-93428427D01*
X140038139Y-93424456D01*
X139997260Y-93418500D01*
X138905740Y-93418500D01*
X138871673Y-93423463D01*
X138837604Y-93428427D01*
X138732518Y-93479801D01*
X138732517Y-93479801D01*
X138732517Y-93479802D01*
X138672813Y-93539505D01*
X138618299Y-93567281D01*
X138602812Y-93568500D01*
X138184613Y-93568500D01*
X138164298Y-93566393D01*
X138152685Y-93563958D01*
X138122343Y-93567740D01*
X138110099Y-93568500D01*
X138108959Y-93568500D01*
X138089481Y-93571750D01*
X138085436Y-93572339D01*
X138036608Y-93578426D01*
X138029575Y-93580519D01*
X138022616Y-93582908D01*
X137979361Y-93606317D01*
X137975724Y-93608189D01*
X137931520Y-93629799D01*
X137924842Y-93634567D01*
X137924634Y-93634275D01*
X137923113Y-93634819D01*
X137913635Y-93641887D01*
X137912574Y-93642462D01*
X137910815Y-93639217D01*
X137868201Y-93654458D01*
X137865303Y-93654500D01*
X137712104Y-93654500D01*
X137712092Y-93654501D01*
X137662513Y-93661027D01*
X137662511Y-93661027D01*
X137553686Y-93711774D01*
X137553684Y-93711775D01*
X137553684Y-93711776D01*
X137537954Y-93727505D01*
X137483440Y-93755281D01*
X137467953Y-93756500D01*
X137315787Y-93756500D01*
X137257596Y-93737593D01*
X137237245Y-93717767D01*
X137232646Y-93711774D01*
X137207282Y-93678718D01*
X137207277Y-93678714D01*
X137207276Y-93678713D01*
X137136104Y-93624101D01*
X137081841Y-93582464D01*
X137081840Y-93582463D01*
X137081838Y-93582462D01*
X136935766Y-93521957D01*
X136935758Y-93521955D01*
X136779001Y-93501318D01*
X136778999Y-93501318D01*
X136622241Y-93521955D01*
X136622233Y-93521957D01*
X136476161Y-93582462D01*
X136476160Y-93582462D01*
X136350723Y-93678713D01*
X136350713Y-93678723D01*
X136254462Y-93804160D01*
X136254462Y-93804161D01*
X136193957Y-93950233D01*
X136193955Y-93950240D01*
X136188267Y-93993448D01*
X136179537Y-94059766D01*
X136176626Y-94081875D01*
X136150285Y-94137100D01*
X136096514Y-94166295D01*
X136078473Y-94167953D01*
X134523353Y-94167953D01*
X134503038Y-94165846D01*
X134491419Y-94163410D01*
X134468276Y-94166295D01*
X134461072Y-94167193D01*
X134448827Y-94167953D01*
X134447694Y-94167953D01*
X134428204Y-94171204D01*
X134424165Y-94171792D01*
X134375341Y-94177879D01*
X134368315Y-94179970D01*
X134361350Y-94182361D01*
X134318095Y-94205770D01*
X134314458Y-94207642D01*
X134270254Y-94229252D01*
X134264276Y-94233519D01*
X134258478Y-94238033D01*
X134225165Y-94274218D01*
X134222335Y-94277168D01*
X133742118Y-94757385D01*
X133726265Y-94770258D01*
X133716335Y-94776746D01*
X133716332Y-94776748D01*
X133704194Y-94792342D01*
X133699112Y-94798873D01*
X133697548Y-94800882D01*
X133689437Y-94810067D01*
X133688627Y-94810876D01*
X133688619Y-94810885D01*
X133677133Y-94826973D01*
X133674690Y-94830250D01*
X133644482Y-94869061D01*
X133640981Y-94875530D01*
X133637759Y-94882122D01*
X133635339Y-94890250D01*
X133610460Y-94931999D01*
X133533776Y-95008683D01*
X133533774Y-95008686D01*
X133483029Y-95117510D01*
X133483028Y-95117511D01*
X133476500Y-95167100D01*
X133476500Y-95586896D01*
X133476501Y-95586907D01*
X133483027Y-95636486D01*
X133483027Y-95636488D01*
X133533774Y-95745313D01*
X133533775Y-95745314D01*
X133533776Y-95745316D01*
X133618684Y-95830224D01*
X133727513Y-95880972D01*
X133777099Y-95887500D01*
X133825020Y-95887499D01*
X133883210Y-95906405D01*
X133895025Y-95916495D01*
X133944504Y-95965974D01*
X133972281Y-96020491D01*
X133973500Y-96035978D01*
X133973500Y-96096500D01*
X133954593Y-96154691D01*
X133905093Y-96190655D01*
X133874500Y-96195500D01*
X133799326Y-96195500D01*
X133799325Y-96195500D01*
X133799315Y-96195501D01*
X133726263Y-96210033D01*
X133726257Y-96210035D01*
X133643400Y-96265397D01*
X133643397Y-96265400D01*
X133618608Y-96302501D01*
X133570558Y-96340381D01*
X133536292Y-96346500D01*
X132909154Y-96346500D01*
X132850963Y-96327593D01*
X132830612Y-96307767D01*
X132762286Y-96218723D01*
X132762285Y-96218722D01*
X132762282Y-96218718D01*
X132762277Y-96218714D01*
X132762276Y-96218713D01*
X132636838Y-96122462D01*
X132490766Y-96061957D01*
X132490758Y-96061955D01*
X132334001Y-96041318D01*
X132333999Y-96041318D01*
X132177241Y-96061955D01*
X132177233Y-96061957D01*
X132031161Y-96122462D01*
X132031160Y-96122462D01*
X131905723Y-96218713D01*
X131905713Y-96218723D01*
X131809462Y-96344160D01*
X131809462Y-96344161D01*
X131748957Y-96490233D01*
X131748955Y-96490241D01*
X131728318Y-96646999D01*
X131728318Y-96647000D01*
X129516500Y-96647000D01*
X129516500Y-95826252D01*
X129504867Y-95767769D01*
X129460552Y-95701448D01*
X129424841Y-95677586D01*
X129394233Y-95657134D01*
X129394231Y-95657133D01*
X129394228Y-95657132D01*
X129394227Y-95657132D01*
X129335758Y-95645501D01*
X129335748Y-95645500D01*
X128796252Y-95645500D01*
X128796251Y-95645500D01*
X128796241Y-95645501D01*
X128737772Y-95657132D01*
X128737766Y-95657134D01*
X128671451Y-95701445D01*
X128671445Y-95701451D01*
X128648315Y-95736068D01*
X128600264Y-95773947D01*
X128539126Y-95776349D01*
X128488253Y-95742355D01*
X128483685Y-95736068D01*
X128460554Y-95701451D01*
X128460552Y-95701448D01*
X128424841Y-95677586D01*
X128394233Y-95657134D01*
X128394231Y-95657133D01*
X128394228Y-95657132D01*
X128394227Y-95657132D01*
X128335758Y-95645501D01*
X128335748Y-95645500D01*
X127796252Y-95645500D01*
X127796251Y-95645500D01*
X127796241Y-95645501D01*
X127737772Y-95657132D01*
X127737766Y-95657134D01*
X127671451Y-95701445D01*
X127671445Y-95701451D01*
X127648315Y-95736068D01*
X127600264Y-95773947D01*
X127539126Y-95776349D01*
X127488253Y-95742355D01*
X127483685Y-95736068D01*
X127460554Y-95701451D01*
X127460552Y-95701448D01*
X127424841Y-95677586D01*
X127394233Y-95657134D01*
X127394231Y-95657133D01*
X127394228Y-95657132D01*
X127394227Y-95657132D01*
X127335758Y-95645501D01*
X127335748Y-95645500D01*
X126796252Y-95645500D01*
X126796251Y-95645500D01*
X126796241Y-95645501D01*
X126737772Y-95657132D01*
X126737766Y-95657134D01*
X126671451Y-95701445D01*
X126671445Y-95701451D01*
X126648315Y-95736068D01*
X126600264Y-95773947D01*
X126539126Y-95776349D01*
X126488253Y-95742355D01*
X126483685Y-95736068D01*
X126460554Y-95701451D01*
X126460552Y-95701448D01*
X126424841Y-95677586D01*
X126394233Y-95657134D01*
X126394231Y-95657133D01*
X126394228Y-95657132D01*
X126394227Y-95657132D01*
X126335758Y-95645501D01*
X126335748Y-95645500D01*
X125796252Y-95645500D01*
X125796251Y-95645500D01*
X125796241Y-95645501D01*
X125737772Y-95657132D01*
X125737766Y-95657134D01*
X125671451Y-95701445D01*
X125671445Y-95701451D01*
X125648315Y-95736068D01*
X125600264Y-95773947D01*
X125539126Y-95776349D01*
X125488253Y-95742355D01*
X125483685Y-95736068D01*
X125460554Y-95701451D01*
X125460552Y-95701448D01*
X125424841Y-95677586D01*
X125394233Y-95657134D01*
X125394231Y-95657133D01*
X125394228Y-95657132D01*
X125394227Y-95657132D01*
X125335758Y-95645501D01*
X125335748Y-95645500D01*
X124796252Y-95645500D01*
X124796251Y-95645500D01*
X124796241Y-95645501D01*
X124737772Y-95657132D01*
X124737766Y-95657134D01*
X124671451Y-95701445D01*
X124671445Y-95701451D01*
X124627134Y-95767766D01*
X124627132Y-95767772D01*
X124615501Y-95826241D01*
X124615500Y-95826253D01*
X124615500Y-97865746D01*
X122166500Y-97865746D01*
X122166500Y-93295500D01*
X122185407Y-93237309D01*
X122234907Y-93201345D01*
X122265500Y-93196500D01*
X151066500Y-93196500D01*
X151124691Y-93215407D01*
G37*
%TD.AperFunction*%
%TD*%
M02*
