%TF.GenerationSoftware,KiCad,Pcbnew,7.0.11+1*%
%TF.CreationDate,2024-06-02T16:05:35+00:00*%
%TF.ProjectId,TFASPDIMU02,54464153-5044-4494-9d55-30322e6b6963,rev?*%
%TF.SameCoordinates,Original*%
%TF.FileFunction,Copper,L1,Top*%
%TF.FilePolarity,Positive*%
%FSLAX46Y46*%
G04 Gerber Fmt 4.6, Leading zero omitted, Abs format (unit mm)*
G04 Created by KiCad (PCBNEW 7.0.11+1) date 2024-06-02 16:05:35*
%MOMM*%
%LPD*%
G01*
G04 APERTURE LIST*
G04 Aperture macros list*
%AMFreePoly0*
4,1,19,0.550000,-0.750000,0.000000,-0.750000,0.000000,-0.744911,-0.071157,-0.744911,-0.207708,-0.704816,-0.327430,-0.627875,-0.420627,-0.520320,-0.479746,-0.390866,-0.500000,-0.250000,-0.500000,0.250000,-0.479746,0.390866,-0.420627,0.520320,-0.327430,0.627875,-0.207708,0.704816,-0.071157,0.744911,0.000000,0.744911,0.000000,0.750000,0.550000,0.750000,0.550000,-0.750000,0.550000,-0.750000,
$1*%
%AMFreePoly1*
4,1,19,0.000000,0.744911,0.071157,0.744911,0.207708,0.704816,0.327430,0.627875,0.420627,0.520320,0.479746,0.390866,0.500000,0.250000,0.500000,-0.250000,0.479746,-0.390866,0.420627,-0.520320,0.327430,-0.627875,0.207708,-0.704816,0.071157,-0.744911,0.000000,-0.744911,0.000000,-0.750000,-0.550000,-0.750000,-0.550000,0.750000,0.000000,0.750000,0.000000,0.744911,0.000000,0.744911,
$1*%
G04 Aperture macros list end*
%TA.AperFunction,SMDPad,CuDef*%
%ADD10FreePoly0,180.000000*%
%TD*%
%TA.AperFunction,SMDPad,CuDef*%
%ADD11R,1.000000X1.500000*%
%TD*%
%TA.AperFunction,SMDPad,CuDef*%
%ADD12FreePoly1,180.000000*%
%TD*%
%TA.AperFunction,SMDPad,CuDef*%
%ADD13FreePoly0,90.000000*%
%TD*%
%TA.AperFunction,SMDPad,CuDef*%
%ADD14R,1.500000X1.000000*%
%TD*%
%TA.AperFunction,SMDPad,CuDef*%
%ADD15FreePoly1,90.000000*%
%TD*%
%TA.AperFunction,ViaPad*%
%ADD16C,0.800000*%
%TD*%
%TA.AperFunction,Conductor*%
%ADD17C,0.300000*%
%TD*%
%TA.AperFunction,Conductor*%
%ADD18C,0.400000*%
%TD*%
G04 APERTURE END LIST*
%TA.AperFunction,EtchedComponent*%
%TO.C,JP2*%
G36*
X126884000Y-104948000D02*
G01*
X126384000Y-104948000D01*
X126384000Y-104348000D01*
X126884000Y-104348000D01*
X126884000Y-104948000D01*
G37*
%TD.AperFunction*%
%TA.AperFunction,EtchedComponent*%
%TO.C,JP1*%
G36*
X139238000Y-96404000D02*
G01*
X138638000Y-96404000D01*
X138638000Y-95904000D01*
X139238000Y-95904000D01*
X139238000Y-96404000D01*
G37*
%TD.AperFunction*%
%TD*%
D10*
%TO.P,JP2,1,A*%
%TO.N,GND*%
X127284000Y-104648000D03*
D11*
%TO.P,JP2,2,C*%
%TO.N,Net-(JP2-C)*%
X125984000Y-104648000D03*
D12*
%TO.P,JP2,3,B*%
%TO.N,Net-(JP2-B)*%
X124684000Y-104648000D03*
%TD*%
D13*
%TO.P,JP1,1,A*%
%TO.N,GND*%
X138938000Y-96804000D03*
D14*
%TO.P,JP1,2,C*%
%TO.N,Net-(JP1-C)*%
X138938000Y-95504000D03*
D15*
%TO.P,JP1,3,B*%
%TO.N,+1V8*%
X138938000Y-94204000D03*
%TD*%
D16*
%TO.N,GND*%
X130556000Y-96012000D03*
X148996400Y-94259400D03*
X143002000Y-96647000D03*
X150495000Y-97917000D03*
X124129800Y-95072200D03*
X143433800Y-93776800D03*
X130048000Y-106680000D03*
X148488400Y-106756200D03*
X149733000Y-102616000D03*
X141524561Y-99617529D03*
X132207000Y-94488000D03*
X136525000Y-106553000D03*
X132791200Y-103733600D03*
X150749000Y-100330000D03*
X133121400Y-104546400D03*
X122682000Y-102743000D03*
X150749000Y-99060000D03*
X137541000Y-98806000D03*
X150749000Y-94589600D03*
X130886200Y-94183200D03*
X142966000Y-100396000D03*
X132207000Y-106680000D03*
X122936000Y-96012000D03*
X142976600Y-105664000D03*
X139192000Y-106553000D03*
X150749000Y-101600000D03*
X122682000Y-106045000D03*
X136880600Y-96291400D03*
X146304000Y-103505000D03*
X126136400Y-94589600D03*
X146050000Y-96901000D03*
X148031200Y-104800400D03*
X139446000Y-104267000D03*
X128676400Y-99517200D03*
X148564600Y-101320600D03*
X147955000Y-95885000D03*
X137922000Y-106553000D03*
X131191000Y-106680000D03*
X146050000Y-95885000D03*
X147955000Y-97028000D03*
X125425200Y-99568000D03*
X144266000Y-98296000D03*
X144754600Y-93776800D03*
X136398000Y-101981000D03*
X136575800Y-100533200D03*
X150749000Y-102616000D03*
X141300200Y-105664000D03*
X141732000Y-94869000D03*
%TO.N,+1V8*%
X141417942Y-98623729D03*
X136779000Y-94107000D03*
%TO.N,Net-(JP1-C)*%
X134836500Y-95267964D03*
%TO.N,/SCL_3V3*%
X142519406Y-103609204D03*
X148566000Y-99596000D03*
%TO.N,/SDA_3V3*%
X141220163Y-97643990D03*
X145669000Y-100838000D03*
%TO.N,/SDA_1V8*%
X137541000Y-99805503D03*
X133197595Y-99872795D03*
%TO.N,/SCL_1V8*%
X137810950Y-100767860D03*
X134074511Y-101473000D03*
%TO.N,Net-(JP2-C)*%
X123825000Y-102870000D03*
%TO.N,Net-(JP2-B)*%
X124316500Y-104619958D03*
%TO.N,/P_SDA_1V8*%
X134131944Y-104076898D03*
X135473511Y-102362000D03*
%TO.N,/P_SCL_1V8*%
X133731000Y-103124000D03*
X132003800Y-96672400D03*
%TO.N,+3.3V*%
X138534069Y-97893979D03*
X142553609Y-102609339D03*
X140866000Y-104394000D03*
X129518166Y-104626166D03*
X130175000Y-103065500D03*
%TD*%
D17*
%TO.N,GND*%
X142966000Y-100396000D02*
X142966000Y-100096000D01*
%TO.N,+1V8*%
X140474489Y-94440489D02*
X140474489Y-97329708D01*
X136779000Y-94107000D02*
X138841000Y-94107000D01*
X138938000Y-94204000D02*
X140238000Y-94204000D01*
X140474489Y-97329708D02*
X140470662Y-97333535D01*
X138841000Y-94107000D02*
X138938000Y-94204000D01*
X140470662Y-97333535D02*
X140470662Y-98200662D01*
X140893729Y-98623729D02*
X141417942Y-98623729D01*
X140470662Y-98200662D02*
X140893729Y-98623729D01*
X140238000Y-94204000D02*
X140474489Y-94440489D01*
%TO.N,Net-(JP1-C)*%
X138938000Y-95504000D02*
X138701964Y-95267964D01*
X138701964Y-95267964D02*
X134836500Y-95267964D01*
%TO.N,/SCL_3V3*%
X148566000Y-99596000D02*
X144552796Y-103609204D01*
X144552796Y-103609204D02*
X142519406Y-103609204D01*
%TO.N,/SDA_3V3*%
X141986000Y-97663000D02*
X145161000Y-100838000D01*
X141478000Y-97663000D02*
X141986000Y-97663000D01*
X145161000Y-100838000D02*
X145669000Y-100838000D01*
%TO.N,/SDA_1V8*%
X137518697Y-99783200D02*
X133287190Y-99783200D01*
X133287190Y-99783200D02*
X133197595Y-99872795D01*
X137541000Y-99805503D02*
X137518697Y-99783200D01*
%TO.N,/SCL_1V8*%
X134421188Y-101126323D02*
X134074511Y-101473000D01*
X137810950Y-100767860D02*
X137452487Y-101126323D01*
X137452487Y-101126323D02*
X134421188Y-101126323D01*
%TO.N,Net-(JP2-C)*%
X123825000Y-102870000D02*
X125256000Y-102870000D01*
X125984000Y-103598000D02*
X125984000Y-104648000D01*
X125256000Y-102870000D02*
X125984000Y-103598000D01*
%TO.N,Net-(JP2-B)*%
X124250500Y-104902000D02*
X124430000Y-104902000D01*
X124430000Y-104902000D02*
X124684000Y-104648000D01*
%TO.N,/P_SDA_1V8*%
X135473511Y-102362000D02*
X135473511Y-102888489D01*
X134285102Y-104076898D02*
X134131944Y-104076898D01*
X135473511Y-102888489D02*
X134285102Y-104076898D01*
%TO.N,/P_SCL_1V8*%
X132003800Y-101396800D02*
X132003800Y-96672400D01*
X133731000Y-103124000D02*
X132003800Y-101396800D01*
D18*
%TO.N,+3.3V*%
X140866000Y-104394000D02*
X140866000Y-103822723D01*
X138534069Y-97893979D02*
X142553609Y-101913519D01*
X142079384Y-102609339D02*
X142553609Y-102609339D01*
X139850000Y-105410000D02*
X140866000Y-104394000D01*
X129518166Y-104626166D02*
X130302000Y-105410000D01*
X130302000Y-105410000D02*
X139850000Y-105410000D01*
X142553609Y-101913519D02*
X142553609Y-102609339D01*
X129518166Y-104626166D02*
X129518166Y-103722334D01*
X140866000Y-103822723D02*
X142079384Y-102609339D01*
X129518166Y-103722334D02*
X130175000Y-103065500D01*
%TD*%
%TA.AperFunction,Conductor*%
%TO.N,GND*%
G36*
X151124691Y-93215407D02*
G01*
X151160655Y-93264907D01*
X151165500Y-93295500D01*
X151165500Y-107096500D01*
X151146593Y-107154691D01*
X151097093Y-107190655D01*
X151066500Y-107195500D01*
X122265500Y-107195500D01*
X122207309Y-107176593D01*
X122171345Y-107127093D01*
X122166500Y-107096500D01*
X122166500Y-102870000D01*
X123219318Y-102870000D01*
X123239955Y-103026758D01*
X123239957Y-103026766D01*
X123300462Y-103172838D01*
X123300462Y-103172839D01*
X123396713Y-103298276D01*
X123396718Y-103298282D01*
X123396722Y-103298285D01*
X123396723Y-103298286D01*
X123407249Y-103306363D01*
X123522159Y-103394536D01*
X123668238Y-103455044D01*
X123785809Y-103470522D01*
X123824999Y-103475682D01*
X123825000Y-103475682D01*
X123825001Y-103475682D01*
X123856352Y-103471554D01*
X123981762Y-103455044D01*
X124127841Y-103394536D01*
X124253282Y-103298282D01*
X124283245Y-103259232D01*
X124333669Y-103224577D01*
X124361787Y-103220500D01*
X125069810Y-103220500D01*
X125128001Y-103239407D01*
X125139814Y-103249496D01*
X125437955Y-103547637D01*
X125465732Y-103602154D01*
X125456161Y-103662586D01*
X125412896Y-103705851D01*
X125405831Y-103709107D01*
X125396880Y-103712814D01*
X125335883Y-103717611D01*
X125321115Y-103712812D01*
X125312233Y-103709133D01*
X125234002Y-103693572D01*
X125234000Y-103693572D01*
X124612111Y-103693572D01*
X124600488Y-103695243D01*
X124554520Y-103701852D01*
X124554515Y-103701853D01*
X124416564Y-103742359D01*
X124363631Y-103766532D01*
X124363624Y-103766536D01*
X124242689Y-103844255D01*
X124242681Y-103844261D01*
X124198713Y-103882360D01*
X124198696Y-103882377D01*
X124104554Y-103991023D01*
X124104545Y-103991036D01*
X124073100Y-104039966D01*
X124073090Y-104039984D01*
X124071908Y-104042573D01*
X124030530Y-104087646D01*
X124019754Y-104092896D01*
X124013659Y-104095421D01*
X123888223Y-104191671D01*
X123888213Y-104191681D01*
X123791962Y-104317118D01*
X123791962Y-104317119D01*
X123731457Y-104463191D01*
X123731455Y-104463199D01*
X123710818Y-104619957D01*
X123710818Y-104619958D01*
X123731455Y-104776716D01*
X123731457Y-104776724D01*
X123791962Y-104922796D01*
X123791962Y-104922797D01*
X123886977Y-105046623D01*
X123888218Y-105048240D01*
X123888222Y-105048243D01*
X123953342Y-105098211D01*
X123975954Y-105122605D01*
X123984681Y-105135962D01*
X123989063Y-105142669D01*
X124019957Y-105166714D01*
X124049204Y-105203713D01*
X124073091Y-105256018D01*
X124073099Y-105256031D01*
X124104545Y-105304963D01*
X124104554Y-105304976D01*
X124198696Y-105413622D01*
X124198705Y-105413632D01*
X124198712Y-105413638D01*
X124198713Y-105413639D01*
X124242681Y-105451738D01*
X124242689Y-105451744D01*
X124363624Y-105529463D01*
X124363629Y-105529466D01*
X124363634Y-105529469D01*
X124416562Y-105553640D01*
X124554517Y-105594147D01*
X124612111Y-105602428D01*
X124612112Y-105602428D01*
X125233999Y-105602428D01*
X125234000Y-105602428D01*
X125312231Y-105586867D01*
X125312238Y-105586862D01*
X125321112Y-105583187D01*
X125382109Y-105578386D01*
X125396884Y-105583187D01*
X125405764Y-105586865D01*
X125405766Y-105586865D01*
X125405769Y-105586867D01*
X125464252Y-105598500D01*
X125464253Y-105598500D01*
X126503747Y-105598500D01*
X126503748Y-105598500D01*
X126562231Y-105586867D01*
X126628552Y-105542552D01*
X126672867Y-105476231D01*
X126684500Y-105417748D01*
X126684500Y-105247500D01*
X126703407Y-105189309D01*
X126752907Y-105153345D01*
X126783500Y-105148500D01*
X126929762Y-105148500D01*
X126929763Y-105148500D01*
X126940590Y-105143285D01*
X126961511Y-105135964D01*
X126973231Y-105133290D01*
X126982626Y-105125797D01*
X127001394Y-105114002D01*
X127012224Y-105108788D01*
X127019719Y-105099388D01*
X127035388Y-105083719D01*
X127044788Y-105076224D01*
X127050002Y-105065394D01*
X127061797Y-105046626D01*
X127069290Y-105037231D01*
X127071964Y-105025511D01*
X127079285Y-105004590D01*
X127084500Y-104993763D01*
X127084500Y-104902237D01*
X127084500Y-104626166D01*
X128912484Y-104626166D01*
X128933121Y-104782924D01*
X128933123Y-104782932D01*
X128993628Y-104929004D01*
X128993628Y-104929005D01*
X129089879Y-105054442D01*
X129089884Y-105054448D01*
X129215325Y-105150702D01*
X129215326Y-105150702D01*
X129215327Y-105150703D01*
X129361399Y-105211208D01*
X129361404Y-105211210D01*
X129518166Y-105231848D01*
X129524599Y-105232695D01*
X129524371Y-105234422D01*
X129574638Y-105250755D01*
X129586450Y-105260844D01*
X130041092Y-105715485D01*
X130063656Y-105738048D01*
X130063658Y-105738050D01*
X130085145Y-105748998D01*
X130098386Y-105757112D01*
X130117908Y-105771294D01*
X130117909Y-105771294D01*
X130117911Y-105771296D01*
X130140861Y-105778752D01*
X130155201Y-105784693D01*
X130176696Y-105795646D01*
X130200534Y-105799421D01*
X130215611Y-105803041D01*
X130238567Y-105810500D01*
X130238570Y-105810500D01*
X139913432Y-105810500D01*
X139913433Y-105810500D01*
X139936382Y-105803043D01*
X139951465Y-105799421D01*
X139975304Y-105795646D01*
X139996802Y-105784690D01*
X140011151Y-105778748D01*
X140034090Y-105771296D01*
X140053612Y-105757111D01*
X140066849Y-105749000D01*
X140088342Y-105738050D01*
X140105261Y-105721129D01*
X140105267Y-105721125D01*
X140110907Y-105715485D01*
X140110909Y-105715484D01*
X140797714Y-105028677D01*
X140852231Y-105000901D01*
X140863447Y-105000018D01*
X140865999Y-104999681D01*
X140866000Y-104999682D01*
X141022762Y-104979044D01*
X141168841Y-104918536D01*
X141294282Y-104822282D01*
X141390536Y-104696841D01*
X141451044Y-104550762D01*
X141471682Y-104394000D01*
X141451044Y-104237238D01*
X141443811Y-104219775D01*
X141390537Y-104091161D01*
X141390537Y-104091160D01*
X141345014Y-104031833D01*
X141324590Y-103974157D01*
X141341968Y-103915491D01*
X141353547Y-103901567D01*
X141748103Y-103507010D01*
X141802620Y-103479234D01*
X141863052Y-103488805D01*
X141906317Y-103532070D01*
X141916260Y-103589935D01*
X141913724Y-103609200D01*
X141913724Y-103609204D01*
X141934361Y-103765962D01*
X141934363Y-103765970D01*
X141994868Y-103912042D01*
X141994868Y-103912043D01*
X142086786Y-104031833D01*
X142091124Y-104037486D01*
X142091128Y-104037489D01*
X142091129Y-104037490D01*
X142105478Y-104048500D01*
X142216565Y-104133740D01*
X142216566Y-104133740D01*
X142216567Y-104133741D01*
X142356447Y-104191681D01*
X142362644Y-104194248D01*
X142480215Y-104209726D01*
X142519405Y-104214886D01*
X142519406Y-104214886D01*
X142519407Y-104214886D01*
X142550758Y-104210758D01*
X142676168Y-104194248D01*
X142822247Y-104133740D01*
X142947688Y-104037486D01*
X142977651Y-103998436D01*
X143028075Y-103963781D01*
X143056193Y-103959704D01*
X144506177Y-103959704D01*
X144526492Y-103961811D01*
X144528402Y-103962211D01*
X144538111Y-103964247D01*
X144568458Y-103960463D01*
X144580703Y-103959704D01*
X144581839Y-103959704D01*
X144601317Y-103956453D01*
X144605348Y-103955865D01*
X144654189Y-103949777D01*
X144654192Y-103949775D01*
X144661225Y-103947681D01*
X144668171Y-103945296D01*
X144668177Y-103945296D01*
X144711451Y-103921875D01*
X144715075Y-103920011D01*
X144759278Y-103898403D01*
X144759278Y-103898402D01*
X144759280Y-103898402D01*
X144759281Y-103898400D01*
X144765266Y-103894127D01*
X144771051Y-103889624D01*
X144771051Y-103889623D01*
X144771054Y-103889622D01*
X144804375Y-103853424D01*
X144807160Y-103850520D01*
X148434276Y-100223404D01*
X148488791Y-100195629D01*
X148517197Y-100195257D01*
X148566000Y-100201682D01*
X148722762Y-100181044D01*
X148868841Y-100120536D01*
X148994282Y-100024282D01*
X149090536Y-99898841D01*
X149151044Y-99752762D01*
X149171682Y-99596000D01*
X149151044Y-99439238D01*
X149113359Y-99348259D01*
X149090537Y-99293161D01*
X149090537Y-99293160D01*
X148994286Y-99167723D01*
X148994285Y-99167722D01*
X148994282Y-99167718D01*
X148994277Y-99167714D01*
X148994276Y-99167713D01*
X148868838Y-99071462D01*
X148722766Y-99010957D01*
X148722758Y-99010955D01*
X148566001Y-98990318D01*
X148565999Y-98990318D01*
X148409241Y-99010955D01*
X148409233Y-99010957D01*
X148263161Y-99071462D01*
X148263160Y-99071462D01*
X148137723Y-99167713D01*
X148137713Y-99167723D01*
X148041462Y-99293160D01*
X148041462Y-99293161D01*
X147980957Y-99439233D01*
X147980955Y-99439241D01*
X147960318Y-99595999D01*
X147960318Y-99596002D01*
X147966741Y-99644800D01*
X147955590Y-99704961D01*
X147938592Y-99727724D01*
X144436610Y-103229708D01*
X144382093Y-103257485D01*
X144366606Y-103258704D01*
X143056193Y-103258704D01*
X142998002Y-103239797D01*
X142977651Y-103219971D01*
X142951421Y-103185787D01*
X142930997Y-103128111D01*
X142948375Y-103069445D01*
X142969695Y-103046979D01*
X142981891Y-103037621D01*
X143078145Y-102912180D01*
X143138653Y-102766101D01*
X143159291Y-102609339D01*
X143158953Y-102606775D01*
X143150025Y-102538955D01*
X143138653Y-102452577D01*
X143094285Y-102345464D01*
X143078146Y-102306500D01*
X143078146Y-102306499D01*
X142977941Y-102175909D01*
X142979322Y-102174848D01*
X142955328Y-102127755D01*
X142954109Y-102112268D01*
X142954109Y-101850088D01*
X142954109Y-101850086D01*
X142946651Y-101827132D01*
X142943027Y-101812033D01*
X142939255Y-101788218D01*
X142939255Y-101788215D01*
X142939253Y-101788212D01*
X142939253Y-101788210D01*
X142928303Y-101766720D01*
X142922358Y-101752370D01*
X142914905Y-101729429D01*
X142900724Y-101709910D01*
X142892607Y-101696664D01*
X142881659Y-101675177D01*
X142881657Y-101675175D01*
X142859095Y-101652612D01*
X142859095Y-101652613D01*
X142859093Y-101652610D01*
X139168747Y-97962264D01*
X139140970Y-97907747D01*
X139140087Y-97896533D01*
X139119113Y-97737220D01*
X139119113Y-97737217D01*
X139058606Y-97591140D01*
X139058606Y-97591139D01*
X138962355Y-97465702D01*
X138962354Y-97465701D01*
X138962351Y-97465697D01*
X138962346Y-97465693D01*
X138962345Y-97465692D01*
X138891173Y-97411080D01*
X138836910Y-97369443D01*
X138836909Y-97369442D01*
X138836907Y-97369441D01*
X138690835Y-97308936D01*
X138690827Y-97308934D01*
X138534070Y-97288297D01*
X138534068Y-97288297D01*
X138377310Y-97308934D01*
X138377302Y-97308936D01*
X138231230Y-97369441D01*
X138231229Y-97369441D01*
X138105792Y-97465692D01*
X138105782Y-97465702D01*
X138009531Y-97591139D01*
X138009531Y-97591140D01*
X137949026Y-97737212D01*
X137949024Y-97737220D01*
X137928387Y-97893978D01*
X137928387Y-97893979D01*
X137949024Y-98050737D01*
X137949026Y-98050745D01*
X138009531Y-98196817D01*
X138009531Y-98196818D01*
X138104733Y-98320888D01*
X138105787Y-98322261D01*
X138231228Y-98418515D01*
X138231229Y-98418515D01*
X138231230Y-98418516D01*
X138377302Y-98479021D01*
X138377307Y-98479023D01*
X138534069Y-98499661D01*
X138540502Y-98500508D01*
X138540274Y-98502235D01*
X138590541Y-98518568D01*
X138602354Y-98528657D01*
X142113532Y-102039835D01*
X142141309Y-102094352D01*
X142131738Y-102154784D01*
X142088473Y-102198049D01*
X142043528Y-102208839D01*
X142015951Y-102208839D01*
X142015949Y-102208839D01*
X142015946Y-102208840D01*
X141993008Y-102216292D01*
X141977913Y-102219916D01*
X141954085Y-102223691D01*
X141954075Y-102223694D01*
X141932586Y-102234644D01*
X141918237Y-102240587D01*
X141911916Y-102242641D01*
X141895295Y-102248042D01*
X141875777Y-102262223D01*
X141862534Y-102270338D01*
X141841042Y-102281289D01*
X141841040Y-102281290D01*
X141818474Y-102303855D01*
X141818475Y-102303856D01*
X140560516Y-103561814D01*
X140560515Y-103561815D01*
X140537950Y-103584381D01*
X140537948Y-103584383D01*
X140526997Y-103605874D01*
X140518887Y-103619108D01*
X140504706Y-103638629D01*
X140504701Y-103638638D01*
X140497249Y-103661575D01*
X140491305Y-103675925D01*
X140480355Y-103697414D01*
X140480352Y-103697424D01*
X140476577Y-103721252D01*
X140472953Y-103736347D01*
X140465501Y-103759285D01*
X140465500Y-103759292D01*
X140465500Y-103896929D01*
X140446593Y-103955120D01*
X140439276Y-103963687D01*
X140341462Y-104091160D01*
X140341462Y-104091161D01*
X140280957Y-104237233D01*
X140280955Y-104237241D01*
X140259471Y-104400433D01*
X140257742Y-104400205D01*
X140241411Y-104450471D01*
X140231322Y-104462284D01*
X139713103Y-104980504D01*
X139658586Y-105008281D01*
X139643099Y-105009500D01*
X130508901Y-105009500D01*
X130450710Y-104990593D01*
X130438897Y-104980504D01*
X130152844Y-104694451D01*
X130125067Y-104639934D01*
X130124184Y-104628720D01*
X130123848Y-104626165D01*
X130103210Y-104469404D01*
X130100639Y-104463196D01*
X130042703Y-104323327D01*
X130042703Y-104323326D01*
X129942498Y-104192736D01*
X129943879Y-104191675D01*
X129919885Y-104144582D01*
X129918666Y-104129095D01*
X129918666Y-103929233D01*
X129937573Y-103871042D01*
X129947651Y-103859241D01*
X130106715Y-103700176D01*
X130161230Y-103672401D01*
X130172448Y-103671517D01*
X130174996Y-103671181D01*
X130175000Y-103671182D01*
X130331762Y-103650544D01*
X130477841Y-103590036D01*
X130603282Y-103493782D01*
X130699536Y-103368341D01*
X130760044Y-103222262D01*
X130780682Y-103065500D01*
X130760044Y-102908738D01*
X130743627Y-102869104D01*
X130699537Y-102762661D01*
X130699537Y-102762660D01*
X130603286Y-102637223D01*
X130603285Y-102637222D01*
X130603282Y-102637218D01*
X130603277Y-102637214D01*
X130603276Y-102637213D01*
X130499369Y-102557483D01*
X130477841Y-102540964D01*
X130477840Y-102540963D01*
X130477838Y-102540962D01*
X130331766Y-102480457D01*
X130331758Y-102480455D01*
X130175001Y-102459818D01*
X130174999Y-102459818D01*
X130018241Y-102480455D01*
X130018233Y-102480457D01*
X129872161Y-102540962D01*
X129872160Y-102540962D01*
X129746723Y-102637213D01*
X129746713Y-102637223D01*
X129650462Y-102762660D01*
X129650462Y-102762661D01*
X129589957Y-102908733D01*
X129589955Y-102908741D01*
X129568471Y-103071933D01*
X129566743Y-103071705D01*
X129550411Y-103121972D01*
X129540327Y-103133778D01*
X129393092Y-103281015D01*
X129212681Y-103461426D01*
X129190116Y-103483992D01*
X129190114Y-103483994D01*
X129179163Y-103505485D01*
X129171053Y-103518719D01*
X129156872Y-103538240D01*
X129156867Y-103538249D01*
X129149415Y-103561186D01*
X129143471Y-103575536D01*
X129132521Y-103597025D01*
X129132518Y-103597035D01*
X129128743Y-103620863D01*
X129125119Y-103635958D01*
X129117667Y-103658896D01*
X129117666Y-103658903D01*
X129117666Y-104129095D01*
X129098759Y-104187286D01*
X129091442Y-104195853D01*
X128993628Y-104323326D01*
X128993628Y-104323327D01*
X128933123Y-104469399D01*
X128933121Y-104469407D01*
X128912484Y-104626165D01*
X128912484Y-104626166D01*
X127084500Y-104626166D01*
X127084500Y-104325410D01*
X127084500Y-104302237D01*
X127079284Y-104291408D01*
X127071964Y-104270486D01*
X127069290Y-104258769D01*
X127069289Y-104258768D01*
X127069289Y-104258767D01*
X127061796Y-104249372D01*
X127050001Y-104230601D01*
X127044788Y-104219776D01*
X127044787Y-104219775D01*
X127035389Y-104212280D01*
X127019714Y-104196604D01*
X127012225Y-104187213D01*
X127012223Y-104187211D01*
X127001394Y-104181996D01*
X126982627Y-104170203D01*
X126973231Y-104162709D01*
X126961513Y-104160035D01*
X126940594Y-104152715D01*
X126929764Y-104147500D01*
X126929763Y-104147500D01*
X126906590Y-104147500D01*
X126783500Y-104147500D01*
X126725309Y-104128593D01*
X126689345Y-104079093D01*
X126684500Y-104048500D01*
X126684500Y-103878253D01*
X126684498Y-103878241D01*
X126677739Y-103844263D01*
X126672867Y-103819769D01*
X126628552Y-103753448D01*
X126611958Y-103742360D01*
X126562233Y-103709134D01*
X126562231Y-103709133D01*
X126562228Y-103709132D01*
X126562227Y-103709132D01*
X126503758Y-103697501D01*
X126503748Y-103697500D01*
X126503747Y-103697500D01*
X126437040Y-103697500D01*
X126378849Y-103678593D01*
X126342885Y-103629093D01*
X126338800Y-103610745D01*
X126338607Y-103609200D01*
X126335260Y-103582343D01*
X126334500Y-103570098D01*
X126334500Y-103568959D01*
X126333308Y-103561817D01*
X126331243Y-103549447D01*
X126330658Y-103545429D01*
X126329763Y-103538249D01*
X126324573Y-103496607D01*
X126324571Y-103496604D01*
X126322477Y-103489569D01*
X126320091Y-103482616D01*
X126296687Y-103439371D01*
X126294813Y-103435730D01*
X126273199Y-103391517D01*
X126268948Y-103385562D01*
X126264419Y-103379743D01*
X126247159Y-103363854D01*
X126228221Y-103346420D01*
X126225294Y-103343612D01*
X125536801Y-102655119D01*
X125523925Y-102639262D01*
X125517437Y-102629331D01*
X125493308Y-102610551D01*
X125484119Y-102602437D01*
X125483307Y-102601625D01*
X125467225Y-102590143D01*
X125463961Y-102587710D01*
X125425126Y-102557483D01*
X125425124Y-102557482D01*
X125418677Y-102553993D01*
X125412070Y-102550763D01*
X125412066Y-102550760D01*
X125364909Y-102536720D01*
X125361015Y-102535472D01*
X125314487Y-102519499D01*
X125307260Y-102518293D01*
X125299955Y-102517383D01*
X125299954Y-102517383D01*
X125299952Y-102517383D01*
X125250824Y-102519415D01*
X125246733Y-102519500D01*
X124361787Y-102519500D01*
X124303596Y-102500593D01*
X124283245Y-102480767D01*
X124283006Y-102480456D01*
X124253282Y-102441718D01*
X124253277Y-102441714D01*
X124253276Y-102441713D01*
X124127838Y-102345462D01*
X123981766Y-102284957D01*
X123981758Y-102284955D01*
X123825001Y-102264318D01*
X123824999Y-102264318D01*
X123668241Y-102284955D01*
X123668233Y-102284957D01*
X123522161Y-102345462D01*
X123522160Y-102345462D01*
X123396723Y-102441713D01*
X123396713Y-102441723D01*
X123300462Y-102567160D01*
X123300462Y-102567161D01*
X123239957Y-102713233D01*
X123239955Y-102713241D01*
X123219318Y-102869999D01*
X123219318Y-102870000D01*
X122166500Y-102870000D01*
X122166500Y-96672400D01*
X131398118Y-96672400D01*
X131418755Y-96829158D01*
X131418757Y-96829166D01*
X131479262Y-96975238D01*
X131479262Y-96975239D01*
X131575513Y-97100676D01*
X131575518Y-97100682D01*
X131575522Y-97100685D01*
X131614567Y-97130645D01*
X131649223Y-97181069D01*
X131653300Y-97209187D01*
X131653300Y-101350181D01*
X131651193Y-101370496D01*
X131648757Y-101382113D01*
X131652540Y-101412462D01*
X131653300Y-101424707D01*
X131653300Y-101425842D01*
X131656551Y-101445328D01*
X131657137Y-101449347D01*
X131661129Y-101481364D01*
X131663227Y-101498193D01*
X131665327Y-101505248D01*
X131667707Y-101512180D01*
X131691122Y-101555446D01*
X131692995Y-101559085D01*
X131714601Y-101603282D01*
X131718878Y-101609272D01*
X131723381Y-101615058D01*
X131759564Y-101648367D01*
X131762517Y-101651199D01*
X133103592Y-102992274D01*
X133131369Y-103046791D01*
X133131741Y-103075197D01*
X133125318Y-103123995D01*
X133125318Y-103124000D01*
X133145955Y-103280758D01*
X133145957Y-103280766D01*
X133206462Y-103426838D01*
X133206462Y-103426839D01*
X133302713Y-103552276D01*
X133302718Y-103552282D01*
X133428159Y-103648536D01*
X133428160Y-103648536D01*
X133428161Y-103648537D01*
X133453170Y-103658896D01*
X133534071Y-103692406D01*
X133580597Y-103732142D01*
X133594881Y-103791637D01*
X133587650Y-103821755D01*
X133546901Y-103920130D01*
X133546899Y-103920139D01*
X133526262Y-104076897D01*
X133526262Y-104076898D01*
X133546899Y-104233656D01*
X133546901Y-104233664D01*
X133607406Y-104379736D01*
X133607406Y-104379737D01*
X133671449Y-104463199D01*
X133703662Y-104505180D01*
X133829103Y-104601434D01*
X133829104Y-104601434D01*
X133829105Y-104601435D01*
X133888809Y-104626165D01*
X133975182Y-104661942D01*
X134092753Y-104677420D01*
X134131943Y-104682580D01*
X134131944Y-104682580D01*
X134131945Y-104682580D01*
X134163296Y-104678452D01*
X134288706Y-104661942D01*
X134434785Y-104601434D01*
X134560226Y-104505180D01*
X134656480Y-104379739D01*
X134716988Y-104233660D01*
X134726695Y-104159917D01*
X134753035Y-104104694D01*
X134754807Y-104102873D01*
X135688395Y-103169285D01*
X135704245Y-103156415D01*
X135714180Y-103149926D01*
X135732962Y-103125792D01*
X135741088Y-103116593D01*
X135741886Y-103115796D01*
X135753397Y-103099671D01*
X135755799Y-103096451D01*
X135786028Y-103057615D01*
X135786028Y-103057612D01*
X135789534Y-103051134D01*
X135792748Y-103044560D01*
X135792748Y-103044558D01*
X135792751Y-103044555D01*
X135806798Y-102997370D01*
X135808023Y-102993543D01*
X135824011Y-102946977D01*
X135824011Y-102946972D01*
X135825218Y-102939743D01*
X135826126Y-102932448D01*
X135826128Y-102932443D01*
X135824880Y-102902275D01*
X135841366Y-102843354D01*
X135863526Y-102819645D01*
X135901793Y-102790282D01*
X135998047Y-102664841D01*
X136058555Y-102518762D01*
X136079193Y-102362000D01*
X136058555Y-102205238D01*
X136037656Y-102154784D01*
X135998048Y-102059161D01*
X135998048Y-102059160D01*
X135901797Y-101933723D01*
X135901796Y-101933722D01*
X135901793Y-101933718D01*
X135901788Y-101933714D01*
X135901787Y-101933713D01*
X135776349Y-101837462D01*
X135630277Y-101776957D01*
X135630269Y-101776955D01*
X135473512Y-101756318D01*
X135473510Y-101756318D01*
X135316752Y-101776955D01*
X135316744Y-101776957D01*
X135170672Y-101837462D01*
X135170671Y-101837462D01*
X135045234Y-101933713D01*
X135045224Y-101933723D01*
X134948973Y-102059160D01*
X134948973Y-102059161D01*
X134888468Y-102205233D01*
X134888466Y-102205241D01*
X134867829Y-102361999D01*
X134867829Y-102362000D01*
X134888466Y-102518758D01*
X134888468Y-102518766D01*
X134948972Y-102664836D01*
X134948974Y-102664838D01*
X134948975Y-102664841D01*
X134986114Y-102713241D01*
X135005751Y-102738833D01*
X135026174Y-102796509D01*
X135008796Y-102855175D01*
X134997212Y-102869104D01*
X134477403Y-103388913D01*
X134422886Y-103416690D01*
X134362454Y-103407119D01*
X134319189Y-103363854D01*
X134309618Y-103303422D01*
X134315935Y-103281024D01*
X134316044Y-103280762D01*
X134336682Y-103124000D01*
X134336470Y-103122393D01*
X134326517Y-103046791D01*
X134316044Y-102967238D01*
X134304655Y-102939743D01*
X134255537Y-102821161D01*
X134255537Y-102821160D01*
X134159286Y-102695723D01*
X134159285Y-102695722D01*
X134159282Y-102695718D01*
X134159277Y-102695714D01*
X134159276Y-102695713D01*
X134083037Y-102637213D01*
X134033841Y-102599464D01*
X134033840Y-102599463D01*
X134033838Y-102599462D01*
X133887766Y-102538957D01*
X133887758Y-102538955D01*
X133731001Y-102518318D01*
X133730998Y-102518318D01*
X133682199Y-102524742D01*
X133622038Y-102513591D01*
X133599274Y-102496593D01*
X132383296Y-101280614D01*
X132355519Y-101226097D01*
X132354300Y-101210610D01*
X132354300Y-99872795D01*
X132591913Y-99872795D01*
X132612550Y-100029553D01*
X132612552Y-100029561D01*
X132673057Y-100175633D01*
X132673057Y-100175634D01*
X132732389Y-100252957D01*
X132769313Y-100301077D01*
X132894754Y-100397331D01*
X132894755Y-100397331D01*
X132894756Y-100397332D01*
X132924671Y-100409723D01*
X133040833Y-100457839D01*
X133158404Y-100473317D01*
X133197594Y-100478477D01*
X133197595Y-100478477D01*
X133197596Y-100478477D01*
X133228947Y-100474349D01*
X133354357Y-100457839D01*
X133500436Y-100397331D01*
X133625877Y-100301077D01*
X133711965Y-100188885D01*
X133724589Y-100172433D01*
X133775013Y-100137777D01*
X133803131Y-100133700D01*
X136987099Y-100133700D01*
X137045290Y-100152607D01*
X137065640Y-100172432D01*
X137112718Y-100233785D01*
X137112722Y-100233788D01*
X137112723Y-100233789D01*
X137238157Y-100330038D01*
X137243780Y-100333284D01*
X137242759Y-100335051D01*
X137282222Y-100368756D01*
X137296506Y-100428250D01*
X137287183Y-100458315D01*
X137288897Y-100459025D01*
X137225907Y-100611096D01*
X137225905Y-100611101D01*
X137215552Y-100689745D01*
X137189211Y-100744970D01*
X137135440Y-100774165D01*
X137117399Y-100775823D01*
X134467801Y-100775823D01*
X134447486Y-100773716D01*
X134435873Y-100771281D01*
X134405531Y-100775063D01*
X134393287Y-100775823D01*
X134392147Y-100775823D01*
X134372669Y-100779073D01*
X134368624Y-100779662D01*
X134319796Y-100785749D01*
X134312763Y-100787842D01*
X134305804Y-100790231D01*
X134262549Y-100813640D01*
X134258912Y-100815512D01*
X134214708Y-100837122D01*
X134208740Y-100841382D01*
X134196455Y-100850945D01*
X134194753Y-100848758D01*
X134152936Y-100872282D01*
X134120516Y-100873374D01*
X134074512Y-100867318D01*
X134074510Y-100867318D01*
X133917752Y-100887955D01*
X133917744Y-100887957D01*
X133771672Y-100948462D01*
X133771671Y-100948462D01*
X133646234Y-101044713D01*
X133646224Y-101044723D01*
X133549973Y-101170160D01*
X133549973Y-101170161D01*
X133489468Y-101316233D01*
X133489466Y-101316241D01*
X133468829Y-101472999D01*
X133468829Y-101473000D01*
X133489466Y-101629758D01*
X133489468Y-101629766D01*
X133549973Y-101775838D01*
X133549973Y-101775839D01*
X133631433Y-101882000D01*
X133646229Y-101901282D01*
X133771670Y-101997536D01*
X133771671Y-101997536D01*
X133771672Y-101997537D01*
X133917744Y-102058042D01*
X133917749Y-102058044D01*
X134035320Y-102073522D01*
X134074510Y-102078682D01*
X134074511Y-102078682D01*
X134074512Y-102078682D01*
X134105863Y-102074554D01*
X134231273Y-102058044D01*
X134377352Y-101997536D01*
X134502793Y-101901282D01*
X134599047Y-101775841D01*
X134659555Y-101629762D01*
X134668357Y-101562899D01*
X134694698Y-101507676D01*
X134748468Y-101478481D01*
X134766510Y-101476823D01*
X137405868Y-101476823D01*
X137426183Y-101478930D01*
X137428093Y-101479330D01*
X137437802Y-101481366D01*
X137468149Y-101477582D01*
X137480394Y-101476823D01*
X137481530Y-101476823D01*
X137501008Y-101473572D01*
X137505039Y-101472984D01*
X137553880Y-101466896D01*
X137553883Y-101466894D01*
X137560916Y-101464800D01*
X137567862Y-101462415D01*
X137567868Y-101462415D01*
X137611142Y-101438994D01*
X137614766Y-101437130D01*
X137658969Y-101415522D01*
X137658969Y-101415521D01*
X137658971Y-101415521D01*
X137658972Y-101415519D01*
X137664957Y-101411246D01*
X137670741Y-101406744D01*
X137670742Y-101406742D01*
X137670745Y-101406741D01*
X137678350Y-101398479D01*
X137731669Y-101368471D01*
X137764107Y-101367375D01*
X137810950Y-101373542D01*
X137967712Y-101352904D01*
X138113791Y-101292396D01*
X138239232Y-101196142D01*
X138335486Y-101070701D01*
X138395994Y-100924622D01*
X138416632Y-100767860D01*
X138413618Y-100744970D01*
X138395994Y-100611101D01*
X138395994Y-100611098D01*
X138364540Y-100535161D01*
X138335487Y-100465021D01*
X138335487Y-100465020D01*
X138239236Y-100339583D01*
X138239235Y-100339582D01*
X138239232Y-100339578D01*
X138239227Y-100339574D01*
X138239226Y-100339573D01*
X138113789Y-100243322D01*
X138108168Y-100240077D01*
X138109186Y-100238312D01*
X138069720Y-100204594D01*
X138055445Y-100145098D01*
X138064783Y-100115056D01*
X138063053Y-100114340D01*
X138126042Y-99962269D01*
X138126044Y-99962265D01*
X138146682Y-99805503D01*
X138126044Y-99648741D01*
X138065537Y-99502664D01*
X138065537Y-99502663D01*
X137969286Y-99377226D01*
X137969285Y-99377225D01*
X137969282Y-99377221D01*
X137969277Y-99377217D01*
X137969276Y-99377216D01*
X137898104Y-99322604D01*
X137843841Y-99280967D01*
X137843840Y-99280966D01*
X137843838Y-99280965D01*
X137697766Y-99220460D01*
X137697758Y-99220458D01*
X137541001Y-99199821D01*
X137540999Y-99199821D01*
X137384241Y-99220458D01*
X137384233Y-99220460D01*
X137238161Y-99280965D01*
X137238160Y-99280965D01*
X137112723Y-99377216D01*
X137112716Y-99377223D01*
X137099868Y-99393968D01*
X137049443Y-99428623D01*
X137021326Y-99432700D01*
X133644087Y-99432700D01*
X133585896Y-99413793D01*
X133583840Y-99412257D01*
X133500436Y-99348259D01*
X133500435Y-99348258D01*
X133500433Y-99348257D01*
X133354361Y-99287752D01*
X133354353Y-99287750D01*
X133197596Y-99267113D01*
X133197594Y-99267113D01*
X133040836Y-99287750D01*
X133040828Y-99287752D01*
X132894756Y-99348257D01*
X132894755Y-99348257D01*
X132769318Y-99444508D01*
X132769308Y-99444518D01*
X132673057Y-99569955D01*
X132673057Y-99569956D01*
X132612552Y-99716028D01*
X132612550Y-99716036D01*
X132591913Y-99872794D01*
X132591913Y-99872795D01*
X132354300Y-99872795D01*
X132354300Y-97209187D01*
X132373207Y-97150996D01*
X132393033Y-97130645D01*
X132432082Y-97100682D01*
X132528336Y-96975241D01*
X132588844Y-96829162D01*
X132609482Y-96672400D01*
X132588844Y-96515638D01*
X132579563Y-96493231D01*
X132528337Y-96369561D01*
X132528337Y-96369560D01*
X132432086Y-96244123D01*
X132432085Y-96244122D01*
X132432082Y-96244118D01*
X132432077Y-96244114D01*
X132432076Y-96244113D01*
X132307540Y-96148554D01*
X132306641Y-96147864D01*
X132306640Y-96147863D01*
X132306638Y-96147862D01*
X132160566Y-96087357D01*
X132160558Y-96087355D01*
X132003801Y-96066718D01*
X132003799Y-96066718D01*
X131847041Y-96087355D01*
X131847033Y-96087357D01*
X131700961Y-96147862D01*
X131700960Y-96147862D01*
X131575523Y-96244113D01*
X131575513Y-96244123D01*
X131479262Y-96369560D01*
X131479262Y-96369561D01*
X131418757Y-96515633D01*
X131418755Y-96515641D01*
X131398118Y-96672399D01*
X131398118Y-96672400D01*
X122166500Y-96672400D01*
X122166500Y-95267964D01*
X134230818Y-95267964D01*
X134251455Y-95424722D01*
X134251457Y-95424730D01*
X134311962Y-95570802D01*
X134311962Y-95570803D01*
X134401024Y-95686871D01*
X134408218Y-95696246D01*
X134533659Y-95792500D01*
X134679738Y-95853008D01*
X134797309Y-95868486D01*
X134836499Y-95873646D01*
X134836500Y-95873646D01*
X134836501Y-95873646D01*
X134867852Y-95869518D01*
X134993262Y-95853008D01*
X135139341Y-95792500D01*
X135264782Y-95696246D01*
X135294745Y-95657196D01*
X135345169Y-95622541D01*
X135373287Y-95618464D01*
X137888500Y-95618464D01*
X137946691Y-95637371D01*
X137982655Y-95686871D01*
X137987500Y-95717464D01*
X137987500Y-96023746D01*
X137987501Y-96023758D01*
X137999132Y-96082227D01*
X137999134Y-96082233D01*
X138002557Y-96087356D01*
X138043448Y-96148552D01*
X138109769Y-96192867D01*
X138154231Y-96201711D01*
X138168241Y-96204498D01*
X138168246Y-96204498D01*
X138168252Y-96204500D01*
X138338500Y-96204500D01*
X138396691Y-96223407D01*
X138432655Y-96272907D01*
X138437500Y-96303500D01*
X138437500Y-96449764D01*
X138442715Y-96460594D01*
X138450035Y-96481513D01*
X138452709Y-96493231D01*
X138460203Y-96502627D01*
X138471996Y-96521394D01*
X138477211Y-96532223D01*
X138477213Y-96532225D01*
X138486604Y-96539714D01*
X138502280Y-96555389D01*
X138509775Y-96564787D01*
X138509776Y-96564788D01*
X138520597Y-96569999D01*
X138520601Y-96570001D01*
X138539372Y-96581796D01*
X138548767Y-96589289D01*
X138548768Y-96589289D01*
X138548769Y-96589290D01*
X138560486Y-96591964D01*
X138581408Y-96599284D01*
X138592237Y-96604500D01*
X139283762Y-96604500D01*
X139283763Y-96604500D01*
X139294590Y-96599285D01*
X139315511Y-96591964D01*
X139327231Y-96589290D01*
X139336626Y-96581797D01*
X139355394Y-96570002D01*
X139366224Y-96564788D01*
X139373719Y-96555388D01*
X139389388Y-96539719D01*
X139398788Y-96532224D01*
X139404002Y-96521394D01*
X139415797Y-96502626D01*
X139423290Y-96493231D01*
X139425964Y-96481511D01*
X139433285Y-96460590D01*
X139438500Y-96449763D01*
X139438500Y-96358237D01*
X139438500Y-96303500D01*
X139457407Y-96245309D01*
X139506907Y-96209345D01*
X139537500Y-96204500D01*
X139707747Y-96204500D01*
X139707748Y-96204500D01*
X139766231Y-96192867D01*
X139832552Y-96148552D01*
X139876867Y-96082231D01*
X139888500Y-96023748D01*
X139888500Y-94984252D01*
X139876867Y-94925769D01*
X139876865Y-94925766D01*
X139876865Y-94925764D01*
X139873187Y-94916884D01*
X139868386Y-94855887D01*
X139873187Y-94841112D01*
X139876862Y-94832238D01*
X139876867Y-94832231D01*
X139892428Y-94754000D01*
X139892428Y-94653500D01*
X139911335Y-94595309D01*
X139960835Y-94559345D01*
X139991428Y-94554500D01*
X140024989Y-94554500D01*
X140083180Y-94573407D01*
X140119144Y-94622907D01*
X140123989Y-94653500D01*
X140123989Y-97247378D01*
X140120743Y-97266824D01*
X140121512Y-97266953D01*
X140118955Y-97282274D01*
X140118045Y-97289582D01*
X140120077Y-97338710D01*
X140120162Y-97342801D01*
X140120162Y-98154043D01*
X140118055Y-98174358D01*
X140116775Y-98180466D01*
X140115619Y-98185977D01*
X140116971Y-98196820D01*
X140119402Y-98216324D01*
X140120162Y-98228569D01*
X140120162Y-98229704D01*
X140123413Y-98249190D01*
X140123999Y-98253209D01*
X140128951Y-98292930D01*
X140130089Y-98302055D01*
X140132189Y-98309110D01*
X140134569Y-98316042D01*
X140157984Y-98359308D01*
X140159857Y-98362947D01*
X140181463Y-98407144D01*
X140185740Y-98413134D01*
X140190243Y-98418920D01*
X140226426Y-98452229D01*
X140229379Y-98455061D01*
X140612928Y-98838610D01*
X140625803Y-98854466D01*
X140632292Y-98864398D01*
X140656419Y-98883177D01*
X140665606Y-98891289D01*
X140666420Y-98892103D01*
X140666424Y-98892106D01*
X140682484Y-98903572D01*
X140685768Y-98906020D01*
X140712171Y-98926570D01*
X140724603Y-98936246D01*
X140724607Y-98936247D01*
X140731083Y-98939751D01*
X140737663Y-98942969D01*
X140784831Y-98957011D01*
X140788693Y-98958249D01*
X140799040Y-98961801D01*
X140835241Y-98974229D01*
X140835243Y-98974229D01*
X140842465Y-98975434D01*
X140849769Y-98976344D01*
X140849775Y-98976346D01*
X140877735Y-98975189D01*
X140936656Y-98991674D01*
X140960368Y-99013837D01*
X140989660Y-99052011D01*
X141115101Y-99148265D01*
X141115102Y-99148265D01*
X141115103Y-99148266D01*
X141239568Y-99199821D01*
X141261180Y-99208773D01*
X141378751Y-99224251D01*
X141417941Y-99229411D01*
X141417942Y-99229411D01*
X141417943Y-99229411D01*
X141449294Y-99225283D01*
X141574704Y-99208773D01*
X141720783Y-99148265D01*
X141846224Y-99052011D01*
X141942478Y-98926570D01*
X142002986Y-98780491D01*
X142023624Y-98623729D01*
X142002986Y-98466967D01*
X141987470Y-98429510D01*
X141982670Y-98368514D01*
X142014640Y-98316345D01*
X142071168Y-98292930D01*
X142130662Y-98307214D01*
X142148939Y-98321621D01*
X144880199Y-101052881D01*
X144893074Y-101068737D01*
X144899563Y-101078669D01*
X144923690Y-101097448D01*
X144932877Y-101105560D01*
X144933691Y-101106374D01*
X144933695Y-101106377D01*
X144949755Y-101117843D01*
X144953039Y-101120291D01*
X144979442Y-101140841D01*
X144991874Y-101150517D01*
X144991878Y-101150518D01*
X144998354Y-101154022D01*
X145004934Y-101157240D01*
X145052102Y-101171282D01*
X145055964Y-101172520D01*
X145066311Y-101176072D01*
X145102512Y-101188500D01*
X145102514Y-101188500D01*
X145109736Y-101189705D01*
X145117040Y-101190615D01*
X145117046Y-101190617D01*
X145129290Y-101190110D01*
X145188212Y-101206595D01*
X145211924Y-101228757D01*
X145240718Y-101266282D01*
X145366159Y-101362536D01*
X145366160Y-101362536D01*
X145366161Y-101362537D01*
X145483755Y-101411246D01*
X145512238Y-101423044D01*
X145626046Y-101438027D01*
X145668999Y-101443682D01*
X145669000Y-101443682D01*
X145669001Y-101443682D01*
X145711954Y-101438027D01*
X145825762Y-101423044D01*
X145971841Y-101362536D01*
X146097282Y-101266282D01*
X146193536Y-101140841D01*
X146254044Y-100994762D01*
X146274682Y-100838000D01*
X146274566Y-100837122D01*
X146254044Y-100681241D01*
X146254044Y-100681238D01*
X146193537Y-100535161D01*
X146193537Y-100535160D01*
X146097286Y-100409723D01*
X146097285Y-100409722D01*
X146097282Y-100409718D01*
X146097277Y-100409714D01*
X146097276Y-100409713D01*
X146005880Y-100339583D01*
X145971841Y-100313464D01*
X145971840Y-100313463D01*
X145971838Y-100313462D01*
X145825766Y-100252957D01*
X145825758Y-100252955D01*
X145669001Y-100232318D01*
X145668999Y-100232318D01*
X145512241Y-100252955D01*
X145512233Y-100252957D01*
X145366161Y-100313462D01*
X145302626Y-100362213D01*
X145244950Y-100382636D01*
X145186284Y-100365257D01*
X145172356Y-100353674D01*
X142266801Y-97448119D01*
X142253925Y-97432262D01*
X142247437Y-97422331D01*
X142223308Y-97403551D01*
X142214119Y-97395437D01*
X142213307Y-97394625D01*
X142197225Y-97383143D01*
X142193961Y-97380710D01*
X142155126Y-97350483D01*
X142155124Y-97350482D01*
X142148677Y-97346993D01*
X142142070Y-97343763D01*
X142142066Y-97343760D01*
X142094909Y-97329720D01*
X142091015Y-97328472D01*
X142044487Y-97312499D01*
X142037260Y-97311293D01*
X142029955Y-97310383D01*
X142029954Y-97310383D01*
X142029952Y-97310383D01*
X141980824Y-97312415D01*
X141976733Y-97312500D01*
X141771537Y-97312500D01*
X141713346Y-97293593D01*
X141692995Y-97273767D01*
X141687766Y-97266953D01*
X141648445Y-97215708D01*
X141648440Y-97215704D01*
X141648439Y-97215703D01*
X141523001Y-97119452D01*
X141376929Y-97058947D01*
X141376921Y-97058945D01*
X141220164Y-97038308D01*
X141220162Y-97038308D01*
X141063404Y-97058945D01*
X141063395Y-97058947D01*
X140961874Y-97100999D01*
X140900877Y-97105800D01*
X140848708Y-97073830D01*
X140825294Y-97017302D01*
X140824989Y-97009535D01*
X140824989Y-94487107D01*
X140827096Y-94466791D01*
X140828189Y-94461577D01*
X140829532Y-94455174D01*
X140825749Y-94424825D01*
X140824989Y-94412581D01*
X140824989Y-94411448D01*
X140821738Y-94391967D01*
X140821148Y-94387919D01*
X140815062Y-94339096D01*
X140815061Y-94339094D01*
X140815061Y-94339092D01*
X140812968Y-94332064D01*
X140810580Y-94325105D01*
X140787176Y-94281860D01*
X140785302Y-94278219D01*
X140763688Y-94234006D01*
X140759437Y-94228051D01*
X140754908Y-94222232D01*
X140754907Y-94222231D01*
X140718710Y-94188909D01*
X140715783Y-94186101D01*
X140518801Y-93989119D01*
X140505925Y-93973262D01*
X140499437Y-93963331D01*
X140482615Y-93950238D01*
X140475304Y-93944548D01*
X140466119Y-93936437D01*
X140465307Y-93935625D01*
X140449225Y-93924143D01*
X140445961Y-93921710D01*
X140407126Y-93891483D01*
X140407124Y-93891482D01*
X140400677Y-93887993D01*
X140394070Y-93884763D01*
X140394066Y-93884760D01*
X140346909Y-93870720D01*
X140343015Y-93869472D01*
X140296487Y-93853499D01*
X140289260Y-93852293D01*
X140281955Y-93851383D01*
X140281954Y-93851383D01*
X140281952Y-93851383D01*
X140232824Y-93853415D01*
X140228733Y-93853500D01*
X139854161Y-93853500D01*
X139795970Y-93834593D01*
X139770876Y-93808022D01*
X139741741Y-93762685D01*
X139741738Y-93762681D01*
X139703639Y-93718713D01*
X139703638Y-93718712D01*
X139703632Y-93718705D01*
X139703622Y-93718696D01*
X139594976Y-93624554D01*
X139594963Y-93624545D01*
X139546032Y-93593099D01*
X139546019Y-93593092D01*
X139521211Y-93581763D01*
X139415238Y-93533366D01*
X139415233Y-93533364D01*
X139415232Y-93533364D01*
X139359409Y-93516973D01*
X139359405Y-93516972D01*
X139217097Y-93496511D01*
X139217093Y-93496511D01*
X139158907Y-93496511D01*
X139158905Y-93496511D01*
X139149738Y-93497829D01*
X139144626Y-93498564D01*
X139130537Y-93499572D01*
X138745463Y-93499572D01*
X138731373Y-93498564D01*
X138726261Y-93497829D01*
X138717095Y-93496511D01*
X138717093Y-93496511D01*
X138658907Y-93496511D01*
X138658903Y-93496511D01*
X138516594Y-93516972D01*
X138516590Y-93516973D01*
X138460767Y-93533364D01*
X138460763Y-93533365D01*
X138460762Y-93533366D01*
X138420180Y-93551899D01*
X138329980Y-93593092D01*
X138329967Y-93593099D01*
X138281036Y-93624545D01*
X138281023Y-93624554D01*
X138172377Y-93718696D01*
X138172361Y-93718712D01*
X138169227Y-93722330D01*
X138116831Y-93753927D01*
X138094407Y-93756500D01*
X137315787Y-93756500D01*
X137257596Y-93737593D01*
X137237245Y-93717767D01*
X137207285Y-93678722D01*
X137207282Y-93678718D01*
X137207277Y-93678714D01*
X137207276Y-93678713D01*
X137095694Y-93593094D01*
X137081841Y-93582464D01*
X137081840Y-93582463D01*
X137081838Y-93582462D01*
X136935766Y-93521957D01*
X136935758Y-93521955D01*
X136779001Y-93501318D01*
X136778999Y-93501318D01*
X136622241Y-93521955D01*
X136622233Y-93521957D01*
X136476161Y-93582462D01*
X136476160Y-93582462D01*
X136350723Y-93678713D01*
X136350713Y-93678723D01*
X136254462Y-93804160D01*
X136254462Y-93804161D01*
X136193957Y-93950233D01*
X136193955Y-93950241D01*
X136173318Y-94106999D01*
X136173318Y-94107000D01*
X136193955Y-94263758D01*
X136193957Y-94263766D01*
X136254462Y-94409838D01*
X136254462Y-94409839D01*
X136343524Y-94525907D01*
X136350718Y-94535282D01*
X136476159Y-94631536D01*
X136476160Y-94631536D01*
X136476161Y-94631537D01*
X136550386Y-94662282D01*
X136622238Y-94692044D01*
X136739809Y-94707522D01*
X136778999Y-94712682D01*
X136779000Y-94712682D01*
X136779001Y-94712682D01*
X136810352Y-94708554D01*
X136935762Y-94692044D01*
X137081841Y-94631536D01*
X137207282Y-94535282D01*
X137237245Y-94496232D01*
X137287669Y-94461577D01*
X137315787Y-94457500D01*
X137884572Y-94457500D01*
X137942763Y-94476407D01*
X137978727Y-94525907D01*
X137983572Y-94556500D01*
X137983572Y-94754002D01*
X137992553Y-94799150D01*
X137985361Y-94859911D01*
X137943829Y-94904841D01*
X137895455Y-94917464D01*
X135373287Y-94917464D01*
X135315096Y-94898557D01*
X135294745Y-94878731D01*
X135264785Y-94839686D01*
X135264782Y-94839682D01*
X135264777Y-94839678D01*
X135264776Y-94839677D01*
X135153121Y-94754002D01*
X135139341Y-94743428D01*
X135139340Y-94743427D01*
X135139338Y-94743426D01*
X134993266Y-94682921D01*
X134993258Y-94682919D01*
X134836501Y-94662282D01*
X134836499Y-94662282D01*
X134679741Y-94682919D01*
X134679733Y-94682921D01*
X134533661Y-94743426D01*
X134533660Y-94743426D01*
X134408223Y-94839677D01*
X134408213Y-94839687D01*
X134311962Y-94965124D01*
X134311962Y-94965125D01*
X134251457Y-95111197D01*
X134251455Y-95111205D01*
X134230818Y-95267963D01*
X134230818Y-95267964D01*
X122166500Y-95267964D01*
X122166500Y-93295500D01*
X122185407Y-93237309D01*
X122234907Y-93201345D01*
X122265500Y-93196500D01*
X151066500Y-93196500D01*
X151124691Y-93215407D01*
G37*
%TD.AperFunction*%
%TD*%
M02*
