M48
; DRILL file {KiCad 7.0.11+1} date Sun Jun  9 20:56:50 2024
; FORMAT={3:3/ absolute / metric / suppress leading zeros}
; #@! TF.CreationDate,2024-06-09T20:56:50+00:00
; #@! TF.GenerationSoftware,Kicad,Pcbnew,7.0.11+1
; #@! TF.FileFunction,Plated,1,2,PTH
FMAT,2
METRIC,TZ
; #@! TA.AperFunction,Plated,PTH,ViaDrill
T1C0.400
%
G90
G05
T1
X122682Y-102743
X122682Y-106045
X122936Y-96012
X123825Y-102870
X124130Y-95072
X124317Y-104620
X125425Y-99568
X126136Y-94590
X128676Y-99517
X129518Y-104626
X130048Y-106680
X130175Y-103066
X130556Y-96012
X130886Y-94183
X131191Y-106680
X132004Y-96672
X132207Y-94488
X132207Y-106680
X132791Y-103734
X133121Y-104546
X133198Y-99873
X133731Y-103124
X134075Y-101473
X134132Y-104077
X134837Y-95268
X135474Y-102362
X136507Y-102370
X136525Y-100660
X136525Y-106553
X136751Y-96393
X136779Y-94107
X137541Y-98806
X137541Y-99806
X137811Y-100768
X137922Y-106553
X138487Y-98061
X139192Y-106553
X139446Y-104267
X141058Y-104586
X141220Y-97644
X141305Y-105707
X141418Y-98624
X141525Y-99618
X141732Y-94869
X142398Y-102475
X142471Y-103533
X142966Y-100396
X142977Y-105664
X143180Y-96596
X144266Y-98296
X144475Y-93726
X145669Y-100838
X145872Y-95656
X145898Y-103530
X146025Y-97180
X147168Y-103149
X147955Y-97028
X148285Y-106655
X148565Y-101321
X148566Y-99596
X149327Y-103937
X149479Y-96469
X149733Y-102616
X150698Y-97866
X150749Y-96495
X150749Y-99060
X150749Y-100330
X150749Y-101600
X150749Y-102616
X150749Y-103937
M30
