%TF.GenerationSoftware,KiCad,Pcbnew,7.0.11+1*%
%TF.CreationDate,2024-06-06T20:58:30+00:00*%
%TF.ProjectId,TFASPDIMU02,54464153-5044-4494-9d55-30322e6b6963,rev?*%
%TF.SameCoordinates,Original*%
%TF.FileFunction,Legend,Bot*%
%TF.FilePolarity,Positive*%
%FSLAX46Y46*%
G04 Gerber Fmt 4.6, Leading zero omitted, Abs format (unit mm)*
G04 Created by KiCad (PCBNEW 7.0.11+1) date 2024-06-06 20:58:30*
%MOMM*%
%LPD*%
G01*
G04 APERTURE LIST*
%ADD10C,0.150000*%
%ADD11C,0.120000*%
G04 APERTURE END LIST*
D10*
X130210140Y-93460742D02*
X130210140Y-93841695D01*
X130476807Y-93041695D02*
X130210140Y-93460742D01*
X130210140Y-93460742D02*
X129943474Y-93041695D01*
X130248236Y-95396361D02*
X130248236Y-94253504D01*
X132267284Y-95617695D02*
X131733950Y-96417695D01*
X131733950Y-95617695D02*
X132267284Y-96417695D01*
X131429188Y-96112933D02*
X130819665Y-96112933D01*
X130514903Y-95617695D02*
X129981569Y-95617695D01*
X129981569Y-95617695D02*
X130514903Y-96417695D01*
X130514903Y-96417695D02*
X129981569Y-96417695D01*
X146454019Y-95426305D02*
X145454019Y-95426305D01*
X145454019Y-95426305D02*
X145454019Y-95664400D01*
X145454019Y-95664400D02*
X145501638Y-95807257D01*
X145501638Y-95807257D02*
X145596876Y-95902495D01*
X145596876Y-95902495D02*
X145692114Y-95950114D01*
X145692114Y-95950114D02*
X145882590Y-95997733D01*
X145882590Y-95997733D02*
X146025447Y-95997733D01*
X146025447Y-95997733D02*
X146215923Y-95950114D01*
X146215923Y-95950114D02*
X146311161Y-95902495D01*
X146311161Y-95902495D02*
X146406400Y-95807257D01*
X146406400Y-95807257D02*
X146454019Y-95664400D01*
X146454019Y-95664400D02*
X146454019Y-95426305D01*
X146454019Y-96950114D02*
X146454019Y-96378686D01*
X146454019Y-96664400D02*
X145454019Y-96664400D01*
X145454019Y-96664400D02*
X145596876Y-96569162D01*
X145596876Y-96569162D02*
X145692114Y-96473924D01*
X145692114Y-96473924D02*
X145739733Y-96378686D01*
X145657019Y-103247866D02*
X146371304Y-103247866D01*
X146371304Y-103247866D02*
X146514161Y-103200247D01*
X146514161Y-103200247D02*
X146609400Y-103105009D01*
X146609400Y-103105009D02*
X146657019Y-102962152D01*
X146657019Y-102962152D02*
X146657019Y-102866914D01*
X146657019Y-104247866D02*
X146657019Y-103676438D01*
X146657019Y-103962152D02*
X145657019Y-103962152D01*
X145657019Y-103962152D02*
X145799876Y-103866914D01*
X145799876Y-103866914D02*
X145895114Y-103771676D01*
X145895114Y-103771676D02*
X145942733Y-103676438D01*
D11*
%TO.C,C5*%
X145715400Y-106229036D02*
X145715400Y-106013364D01*
X146435400Y-106229036D02*
X146435400Y-106013364D01*
%TO.C,R11*%
X142774641Y-98068400D02*
X142467359Y-98068400D01*
X142774641Y-97308400D02*
X142467359Y-97308400D01*
%TO.C,C9*%
X137774000Y-102000164D02*
X137774000Y-102215836D01*
X137054000Y-102000164D02*
X137054000Y-102215836D01*
%TO.C,C3*%
X137409600Y-97237436D02*
X137409600Y-97021764D01*
X138129600Y-97237436D02*
X138129600Y-97021764D01*
%TO.C,R4*%
X138937000Y-99287359D02*
X138937000Y-99594641D01*
X138177000Y-99287359D02*
X138177000Y-99594641D01*
%TO.C,C11*%
X147553000Y-106013364D02*
X147553000Y-106229036D01*
X146833000Y-106013364D02*
X146833000Y-106229036D01*
%TO.C,C10*%
X132607164Y-101240000D02*
X132822836Y-101240000D01*
X132607164Y-101960000D02*
X132822836Y-101960000D01*
%TO.C,R3*%
X139647959Y-97359200D02*
X139955241Y-97359200D01*
X139647959Y-98119200D02*
X139955241Y-98119200D01*
%TO.C,D2*%
X148523800Y-94834000D02*
X148523800Y-93634000D01*
X150483800Y-93634000D02*
X148523800Y-93634000D01*
X150483800Y-94834000D02*
X148523800Y-94834000D01*
%TO.C,C12*%
X139848000Y-103231836D02*
X139848000Y-103016164D01*
X140568000Y-103231836D02*
X140568000Y-103016164D01*
%TO.C,C13*%
X144886000Y-102838364D02*
X144886000Y-103054036D01*
X144166000Y-102838364D02*
X144166000Y-103054036D01*
D10*
%TO.C,U3*%
X135356000Y-105765000D02*
X132106000Y-105765000D01*
X135356000Y-105590000D02*
X135356000Y-105765000D01*
X135356000Y-102515000D02*
X135356000Y-102690000D01*
X135356000Y-102515000D02*
X132106000Y-102515000D01*
X132106000Y-105590000D02*
X132106000Y-105765000D01*
X132106000Y-102515000D02*
X132106000Y-102690000D01*
D11*
X135831000Y-102690000D02*
X135591000Y-102360000D01*
X136071000Y-102360000D01*
X135831000Y-102690000D01*
G36*
X135831000Y-102690000D02*
G01*
X135591000Y-102360000D01*
X136071000Y-102360000D01*
X135831000Y-102690000D01*
G37*
%TO.C,R10*%
X122937000Y-104547641D02*
X122937000Y-104240359D01*
X123697000Y-104547641D02*
X123697000Y-104240359D01*
%TO.C,R1*%
X141858000Y-102843359D02*
X141858000Y-103150641D01*
X141098000Y-102843359D02*
X141098000Y-103150641D01*
%TO.C,C6*%
X143692200Y-94278564D02*
X143692200Y-94494236D01*
X142972200Y-94278564D02*
X142972200Y-94494236D01*
%TO.C,R2*%
X143763000Y-102843359D02*
X143763000Y-103150641D01*
X143003000Y-102843359D02*
X143003000Y-103150641D01*
%TO.C,D1*%
X145025000Y-93499000D02*
X147485000Y-93499000D01*
X145025000Y-94969000D02*
X145025000Y-93499000D01*
X147485000Y-94969000D02*
X145025000Y-94969000D01*
D10*
%TO.C,U1*%
X131316000Y-102296000D02*
X129466000Y-102296000D01*
X131316000Y-100946000D02*
X131316000Y-102296000D01*
X131316000Y-96796000D02*
X131316000Y-98146000D01*
X131316000Y-96796000D02*
X129466000Y-96796000D01*
X124666000Y-96796000D02*
X122816000Y-96796000D01*
X122816000Y-102296000D02*
X124666000Y-102296000D01*
X122816000Y-100946000D02*
X122816000Y-102296000D01*
X122816000Y-96796000D02*
X122816000Y-98146000D01*
X131003000Y-97234600D02*
G75*
G03*
X130495000Y-97234600I-254000J0D01*
G01*
X130495000Y-97234600D02*
G75*
G03*
X131003000Y-97234600I254000J0D01*
G01*
D11*
%TO.C,J1*%
X148406000Y-95961000D02*
X146956000Y-95961000D01*
X146956000Y-95961000D02*
X146956000Y-97761000D01*
X151226000Y-97231000D02*
X151226000Y-103161000D01*
X146956000Y-97761000D02*
X145966000Y-97761000D01*
X148406000Y-104431000D02*
X146956000Y-104431000D01*
X146956000Y-104431000D02*
X146956000Y-102631000D01*
%TO.C,C2*%
X133584836Y-95737000D02*
X133369164Y-95737000D01*
X133584836Y-95017000D02*
X133369164Y-95017000D01*
%TO.C,C4*%
X136112364Y-94966200D02*
X136328036Y-94966200D01*
X136112364Y-95686200D02*
X136328036Y-95686200D01*
%TO.C,R8*%
X138202641Y-105282000D02*
X137895359Y-105282000D01*
X138202641Y-104522000D02*
X137895359Y-104522000D01*
%TO.C,R12*%
X145236200Y-95985359D02*
X145236200Y-96292641D01*
X144476200Y-95985359D02*
X144476200Y-96292641D01*
%TO.C,C1*%
X126511164Y-103907000D02*
X126726836Y-103907000D01*
X126511164Y-104627000D02*
X126726836Y-104627000D01*
%TO.C,C8*%
X138282000Y-94507164D02*
X138282000Y-94722836D01*
X137562000Y-94507164D02*
X137562000Y-94722836D01*
%TO.C,R5*%
X138177000Y-101753641D02*
X138177000Y-101446359D01*
X138937000Y-101753641D02*
X138937000Y-101446359D01*
%TO.C,R6*%
X127380000Y-105764359D02*
X127380000Y-106071641D01*
X126620000Y-105764359D02*
X126620000Y-106071641D01*
D10*
%TO.C,U6*%
X140742000Y-98578000D02*
X143992000Y-98578000D01*
X140742000Y-98753000D02*
X140742000Y-98578000D01*
X140742000Y-101828000D02*
X140742000Y-101653000D01*
X140742000Y-101828000D02*
X143992000Y-101828000D01*
X143992000Y-98753000D02*
X143992000Y-98578000D01*
X143992000Y-101828000D02*
X143992000Y-101653000D01*
D11*
X140507000Y-101983000D02*
X140027000Y-101983000D01*
X140267000Y-101653000D01*
X140507000Y-101983000D01*
G36*
X140507000Y-101983000D02*
G01*
X140027000Y-101983000D01*
X140267000Y-101653000D01*
X140507000Y-101983000D01*
G37*
%TO.C,R7*%
X128017000Y-104803641D02*
X128017000Y-104496359D01*
X128777000Y-104803641D02*
X128777000Y-104496359D01*
%TO.C,U5*%
X140589000Y-96429000D02*
X141389000Y-96429000D01*
X140589000Y-96429000D02*
X139789000Y-96429000D01*
X140589000Y-93309000D02*
X141389000Y-93309000D01*
X140589000Y-93309000D02*
X139789000Y-93309000D01*
X141889000Y-93359000D02*
X141649000Y-93029000D01*
X142129000Y-93029000D01*
X141889000Y-93359000D01*
G36*
X141889000Y-93359000D02*
G01*
X141649000Y-93029000D01*
X142129000Y-93029000D01*
X141889000Y-93359000D01*
G37*
%TO.C,R9*%
X138202641Y-104139000D02*
X137895359Y-104139000D01*
X138202641Y-103379000D02*
X137895359Y-103379000D01*
%TO.C,U4*%
X143256000Y-107224000D02*
X144056000Y-107224000D01*
X143256000Y-107224000D02*
X142456000Y-107224000D01*
X143256000Y-104104000D02*
X144056000Y-104104000D01*
X143256000Y-104104000D02*
X142456000Y-104104000D01*
X144556000Y-104154000D02*
X144316000Y-103824000D01*
X144796000Y-103824000D01*
X144556000Y-104154000D01*
G36*
X144556000Y-104154000D02*
G01*
X144316000Y-103824000D01*
X144796000Y-103824000D01*
X144556000Y-104154000D01*
G37*
%TO.C,C7*%
X140568000Y-105302164D02*
X140568000Y-105517836D01*
X139848000Y-105302164D02*
X139848000Y-105517836D01*
%TO.C,U2*%
X133274000Y-96571000D02*
X133274000Y-96821000D01*
X133274000Y-96571000D02*
X133524000Y-96571000D01*
X136474000Y-96571000D02*
X136224000Y-96571000D01*
X136474000Y-96571000D02*
X136474000Y-96821000D01*
X136474000Y-99771000D02*
X136224000Y-99771000D01*
X136474000Y-99771000D02*
X136474000Y-99521000D01*
X133514000Y-100101000D02*
X133034000Y-100101000D01*
X133274000Y-99771000D01*
X133514000Y-100101000D01*
G36*
X133514000Y-100101000D02*
G01*
X133034000Y-100101000D01*
X133274000Y-99771000D01*
X133514000Y-100101000D01*
G37*
%TD*%
M02*
